<?xml version="1.0" encoding="UTF-8"?>
<svg width="15px" height="18px" viewBox="0 0 15 18" version="1.1" xmlns="http://www.w3.org/2000/svg" xmlns:xlink="http://www.w3.org/1999/xlink">
    <title>人工活动</title>
    <g id="darshboard" stroke="none" stroke-width="1" fill="none" fill-rule="evenodd">
        <g id="Artboard-2" transform="translate(-2617.000000, -855.000000)" fill="#3757A4" fill-rule="nonzero">
            <g id="人工活动" transform="translate(2617.000000, 855.000000)">
                <path d="M9.00876622,15.5267011 C8.95161839,15.8726185 8.65711585,16.1259739 8.31215071,16.1259872 L8.07086727,16.1259872 C8.07285507,16.1145595 8.07385183,16.1029764 8.07384606,16.0913714 L8.07384606,10.6514986 C8.07395908,10.5988643 8.05347503,10.5483464 8.0169121,10.5110876 C7.98034917,10.4738289 7.93071122,10.4528903 7.87894694,10.4528905 L7.12147863,10.4528905 C7.06964065,10.4527752 7.01989319,10.473663 6.98323811,10.5109342 C6.94658304,10.5482055 6.92604063,10.5987892 6.92615394,10.6514986 L6.92615394,16.0922368 C6.92615394,16.1034869 6.92700501,16.1147371 6.92913276,16.1264199 L6.7206162,16.1264199 C6.3767622,16.1264469 6.08283998,15.874715 6.02442623,15.5301627 C6.02442623,10.7380381 5.45036738,8.42786619 4.30267526,8.60007981 C2.33410877,8.92590101 0,10.9379443 0,12.8474383 L0,16.8325822 C0,17.4773292 0.514029799,18 1.14811769,18 L13.8518823,18 C14.4859702,18 15,17.4773292 15,16.8325822 L15,12.8474383 C15,10.9418386 12.6646146,8.93455494 10.6968992,8.6018106 C9.57176089,8.34435561 9.00876619,10.6527967 9.00876622,15.5267011 L9.00876622,15.5267011 Z" id="路径"></path>
                <path d="M7.5419161,0.000217274435 C6.18513755,-0.014437621 4.92520951,0.713163084 4.24262559,1.90553728 C3.56004166,3.09791148 3.56004166,4.57122062 4.24262559,5.76359482 C4.92520951,6.95596902 6.18513755,7.68356972 7.5419161,7.66891483 C9.60893298,7.64658848 11.2730292,5.93644856 11.2730292,3.83456605 C11.2730292,1.73268354 9.60893298,0.0225436269 7.5419161,0.000217274435 L7.5419161,0.000217274435 Z" id="路径"></path>
            </g>
        </g>
    </g>
</svg>