<?xml version="1.0" encoding="UTF-8"?>
<svg width="128px" height="128px" viewBox="0 0 128 128" version="1.1" xmlns="http://www.w3.org/2000/svg" xmlns:xlink="http://www.w3.org/1999/xlink">
    <title>人工智能1</title>
    <g id="darshboard" stroke="none" stroke-width="1"  >
        <g id="Artboard-2" transform="translate(-1358.000000, -227.000000)" >
            <g id="人工智能1" transform="translate(1358.000002, 227.003785)">
                <path d="M117.482629,62.9585381 C123.291213,62.9585381 128,67.6686943 128,73.4789664 L128,73.4789664 L127.944014,73.4789664 C127.853863,77.1952118 125.748239,80.5676416 122.449388,82.2793249 L122.449388,82.2793249 L122.449388,89.0075988 C122.398804,94.0390069 119.649958,98.6553558 115.251187,101.096091 L115.251187,101.096091 L70.9502624,126.089109 C66.5122894,128.636964 61.0558185,128.636964 56.6178455,126.089109 L56.6178455,126.089109 L12.3489127,101.112092 C7.97868402,98.6420295 5.24066891,94.0438699 5.15070295,89.0235994 L5.15070295,89.0235994 L5.15070295,81.4792923 C5.14810973,80.1314108 5.69049998,78.8397529 6.6545514,77.8980227 C7.61860281,76.9562926 8.92238343,76.4445251 10.2694326,76.4790887 C11.6120596,76.4598718 12.9069887,76.9766575 13.8676577,77.9150836 C14.8283266,78.8535096 15.3755224,80.1361969 15.3881529,81.4792923 L15.3881529,81.4792923 L15.3881529,89.0235994 C15.412203,90.5049641 16.2310294,91.8588655 17.531617,92.5677437 L17.531617,92.5677437 L61.8245438,117.560761 C63.1267264,118.288809 64.7133135,118.288809 66.0154961,117.560761 L66.0154961,117.560761 L110.316421,92.5517431 C111.617008,91.8428649 112.435835,90.4889634 112.459885,89.0075988 L112.459885,89.0075988 L112.459885,82.2793249 C109.133811,80.5972897 107.016831,77.2066711 106.965259,73.4789664 C106.965259,67.6686943 111.674046,62.9585381 117.482629,62.9585381 Z M82.20723,37.6008719 C83.6203317,36.7846761 85.3614227,36.7846761 86.7745245,37.6008719 C88.1876262,38.4170677 89.0580054,39.9254312 89.0577355,41.5576668 L89.0577355,41.5576668 L89.0577355,84.8554297 C89.0580054,86.4876653 88.1876262,87.9960288 86.7745245,88.8122246 C85.3614227,89.6284203 83.6203317,89.6284203 82.20723,88.8122246 C80.7941282,87.9960288 79.923749,86.4876653 79.9240189,84.8554297 L79.9240189,84.8554297 L79.9240189,41.5576668 C79.923749,39.9254312 80.7941282,38.4170677 82.20723,37.6008719 Z M53.3546613,37.7010464 C53.6265933,37.7010464 53.8105474,37.8935176 54.0824794,37.8935176 C54.4255768,37.9112542 54.764636,37.9758557 55.0902274,38.0855255 C55.2741813,38.1815293 55.4581354,38.3655369 55.6420894,38.4615407 C55.9819876,38.6286873 56.2904508,38.8533355 56.5538615,39.1255677 C56.7979646,39.4182036 57.0123038,39.7344459 57.1937015,40.0696062 C57.3047767,40.2661936 57.4276371,40.455881 57.5616096,40.6376293 L57.5616096,40.6376293 L67.9590102,65.7826532 L68.2549363,65.5986456 C68.6289973,66.1367125 68.8777023,66.7518213 68.9827543,67.3987189 L68.9827543,67.3987189 L75.0132466,81.9593118 C76.031188,84.3461982 74.9684269,87.1101804 72.6138465,88.1995659 C71.5033447,88.7062915 70.233055,88.7323415 69.1027242,88.2715688 C67.9600261,87.797868 67.053293,86.8879919 66.5833541,85.7434659 L66.5833541,85.7434659 L61.2886778,73.0789502 L45.6685828,73.0789502 L40.3739064,85.7434659 C39.6736421,87.4484239 38.017633,88.5653718 36.1749562,88.5755811 C34.6120233,88.5832736 33.1564852,87.7811328 32.327918,86.4554948 C31.4758399,85.1072422 31.3412608,83.4260101 31.9680079,81.9593118 L31.9680079,81.9593118 L38.4543864,66.4546805 L49.195701,40.4376212 C49.2916771,40.2456134 49.4756311,40.0616058 49.5636091,39.869598 C49.7472924,39.5657471 49.961698,39.281577 50.2034491,39.0215636 C50.4668597,38.7493313 50.775323,38.5246832 51.1152212,38.3575365 C51.2991752,38.173529 51.3871532,37.9815212 51.5711072,37.9815212 C51.96992,37.7894044 52.4082096,37.6935007 52.8507873,37.7010464 L52.8507873,37.7010464 Z M56.5938515,1.7720469 C61.0793679,-0.5906823 66.440752,-0.5906823 70.9262684,1.7720469 L70.9262684,1.7720469 L115.411147,26.949072 C119.82019,29.4226954 122.566931,34.0690889 122.609357,39.1255677 L122.609357,39.1255677 L122.609357,47.7579193 C122.61195,49.1058008 122.06956,50.3974587 121.105509,51.3391888 C120.141457,52.280919 118.837677,52.7926865 117.490627,52.7581228 C116.148,52.7773398 114.853071,52.260554 113.892402,51.322128 C112.931733,50.383702 112.384538,49.1010147 112.371907,47.7579193 L112.371907,47.7579193 L112.371907,39.1255677 C112.372845,37.6145016 111.551491,36.2226988 110.228443,35.4934199 L110.228443,35.4934199 L65.9275181,10.5004023 C64.5938088,9.7733418 62.9822971,9.7733418 61.6485878,10.5004023 L61.6485878,10.5004023 L17.531617,35.4054163 C16.208569,36.1346951 15.3872149,37.526498 15.3881529,39.0375642 L15.3881529,39.0375642 L15.3881529,48.9419675 C18.8222414,50.6354254 21.0162347,54.1128339 21.0667332,57.9423339 L21.0667332,57.9423339 L21.0347413,57.918333 C21.0347413,63.7286051 16.3259541,68.4387613 10.5173706,68.4387613 C4.70878723,68.4387613 0,63.7286051 0,57.918333 C0.0657786798,54.3139297 2.05530693,51.0204862 5.21469628,49.2859815 L5.21469628,49.2859815 L5.21469628,39.0615651 C5.24038374,34.0004481 7.99172954,29.346264 12.4128967,26.8850694 L12.4128967,26.8850694 Z M53.2506873,54.5341952 L49.411647,63.7985724 L57.0897276,63.7985724 L53.2506873,54.5341952 Z" id="形状结合"></path>
            </g>
        </g>
    </g>
</svg>
