<?xml version="1.0" encoding="UTF-8"?>
<svg width="116px" height="116px" viewBox="0 0 116 116" version="1.1" xmlns="http://www.w3.org/2000/svg" xmlns:xlink="http://www.w3.org/1999/xlink">
    <!-- Generator: Sketch 53.2 (72643) - https://sketchapp.com -->
    <title>api</title>
    <desc>Created with Sketch.</desc>
    <g id="Page-1" stroke="none" stroke-width="1">
        <g id="Artboard" transform="translate(-1154.000000, -1636.000000)">
            <g id="api" transform="translate(1154.000000, 1636.000000)">
                <path d="M52,73 L45.2417704,73 L42.5382978,65.978779 L30.1787911,65.978779 L27.6262647,73 L21,73 L33.0223635,42 L39.6242237,42 L52,73 Z M40,61 L35.9618966,49 L32,61 L40,61 L40,61 Z M56,73 L56,42 L66.1623109,42 C69.9495644,42 72.4245759,42.1486138 73.5900963,42.444802 C75.4461256,42.9238996 76.9793673,43.9454893 78.1879872,45.5106105 C79.393856,47.0757317 80,49.0918904 80,51.5580475 C80,53.7997251 79.479138,55.6787019 78.436497,57.1939388 C77.392939,58.7091756 76.090784,59.7733749 74.5272811,60.3865366 C72.9637781,60.9996983 70.2714351,61.3062791 66.4502522,61.3062791 L62.3053645,61.3062791 L62.3053645,73 L56,73 Z M62,47 L62,56 L65.4422935,56 C67.7558035,56 69.328521,55.8631703 70.1595439,55.5884502 C70.9914691,55.3158515 71.6727094,54.8215675 72.204167,54.1077195 C72.7356246,53.3938715 73,52.5166765 73,51.4782557 C73,50.4249853 72.7256993,49.538244 72.1780002,48.8169711 C71.6408985,48.1045963 70.9332616,47.5995678 70.147814,47.3680613 C69.3420556,47.1230407 67.6376015,47 65.0344516,47 L62,47 L62,47 Z M86,42 L92,42 L92,73 L86,73 L86,42 Z" id="Shape"></path>
                <path d="M113.730829,35.5805947 C114.984121,35.5805947 116,34.5647154 116,33.3114241 C116,32.0582746 114.984121,31.0422535 113.730829,31.0422536 L108.738654,31.0422536 L108.738654,11.7996871 C108.738654,9.29324633 106.706754,7.2613459 104.200313,7.2613459 L85.4115806,7.2613459 L85.4115806,2.26917059 C85.4115806,1.01602114 84.3957013,0 83.14241,0 C81.8889769,0 80.8732394,1.01602114 80.8732394,2.26917059 L80.8732394,7.2613459 L60.2691705,7.2613459 L60.2691705,2.26917059 C60.2691705,1.01602114 59.2532912,0 57.9999999,0 C56.7468505,0 55.7308293,1.01602114 55.7308293,2.26917059 L55.7308293,7.2613459 L35.5805947,7.2613459 L35.5805947,2.26917059 C35.5805947,1.01602114 34.5645736,0 33.3114241,0 C32.0581328,0 31.0422535,1.01602114 31.0422535,2.26917059 L31.0422535,7.2613459 L11.799687,7.2613459 C9.29324623,7.2613459 7.26134579,9.29324633 7.26134579,11.7996871 L7.26134579,30.7699531 L2.26917048,30.7699531 C1.01602102,30.7699531 -1.1329233e-07,31.7859742 0,33.0391237 C1.1329233e-07,34.2922732 1.01602114,35.3082943 2.26917048,35.3082942 L7.26134579,35.3082942 L7.26134579,55.7308294 L2.26917048,55.7308294 C1.01602102,55.7308294 -1.1329233e-07,56.7468505 0,58 C0,59.2532913 1.01602114,60.2691706 2.26917048,60.2691706 L7.26134579,60.2691706 L7.26134579,80.4194053 L2.26917048,80.4194053 C1.01602102,80.4194053 -1.1329233e-07,81.4352846 0,82.6885759 C1.1329233e-07,83.9418672 1.01602114,84.9577465 2.26917048,84.9577464 L7.26134579,84.9577464 L7.26134579,104.200313 C7.26134579,106.706896 9.29324623,108.738654 11.799687,108.738654 L31.4960876,108.738654 L31.4960876,113.730829 C31.4960876,114.984121 32.5121088,116 33.7652582,116 C35.0185495,116 36.0344288,114.984121 36.0344288,113.730829 L36.0344288,108.738654 L56.1846635,108.738654 L56.1846635,113.730829 C56.1846635,114.984121 57.2006846,116 58.4538341,116 C59.7071254,116 60.7230047,114.984121 60.7230047,113.730829 L60.7230047,108.738654 L80.8732394,108.738654 L80.8732394,113.730829 C80.8732394,114.984121 81.8889769,116 83.14241,116 C84.3957013,116 85.4115806,114.984121 85.4115806,113.730829 L85.4115806,108.738654 L104.200313,108.738654 C106.706754,108.738654 108.738654,106.706896 108.738654,104.200313 L108.738654,85.2300469 L113.730688,85.2300469 C114.983979,85.2300469 115.999858,84.2141676 115.999858,82.9608763 C115.999858,81.707585 114.983979,80.6917057 113.730688,80.6917058 L108.738654,80.6917058 L108.738654,60.2691706 L113.730688,60.2691706 C114.983979,60.2691706 115.999858,59.2532913 115.999858,58 C115.999858,56.7468505 114.983979,55.7308294 113.730688,55.7308294 L108.738654,55.7308294 L108.738654,35.5805947 L113.730829,35.5805947 Z M18,98 L18,18 L97.912854,18 L98,98 L18,98 L18,98 Z" id="Shape"></path>
            </g>
        </g>
    </g>
</svg>
