<?xml version="1.0" encoding="UTF-8"?>
<svg width="12px" height="12px" viewBox="0 0 12 12" version="1.1" xmlns="http://www.w3.org/2000/svg" xmlns:xlink="http://www.w3.org/1999/xlink">
    <!-- Generator: Sketch 53.2 (72643) - https://sketchapp.com -->
    <title>应用</title>
    <desc>Created with Sketch.</desc>
    <g id="页面-1" stroke="none" stroke-width="1" fill="none" fill-rule="evenodd">
        <g id="2-copy-2" transform="translate(-278.000000, -181.000000)" fill="#5791E9" fill-rule="nonzero">
            <g id="Group-6" transform="translate(239.000000, 91.000000)">
                <g id="应用" transform="translate(39.000000, 90.000000)">
                    <g id="应用-(3)">
                        <path d="M2.783565,0.0051980198 C4.312665,0.0051980198 5.55144,1.2324802 5.55144,2.74566832 L5.55144,4.33489604 C5.55144,4.97058416 5.03073,5.48689604 4.38792,5.48689604 L2.7828,5.48689604 C1.2537,5.48689604 0.014925,4.25961386 0.014925,2.74642574 C0.01569,1.23172277 1.25448,0.0051980198 2.783565,0.0051980198 Z M2.783565,11.8879158 C4.312665,11.8879158 5.55144,10.6606337 5.55144,9.14744554 L5.55144,7.55821782 C5.55144,6.9225297 5.03073,6.40621782 4.38792,6.40621782 L2.7828,6.40621782 C1.2537,6.40621782 0.014925,7.6335 0.014925,9.14668812 C0.01569,10.6606337 1.25448,11.8879158 2.783565,11.8879158 Z M9.183315,11.8879158 C7.654215,11.8879158 6.41544,10.6606337 6.41544,9.14744554 L6.41544,7.55821782 C6.41544,6.9225297 6.93615,6.40621782 7.57896,6.40621782 L9.18408,6.40621782 C10.71318,6.40621782 11.951955,7.6335 11.951955,9.14668812 C11.95119,10.6606337 10.711635,11.8879158 9.183315,11.8879158 Z" id="Shape"></path>
                        <path d="M9.183315,0.0051980198 C7.654215,0.0051980198 6.41544,1.2324802 6.41544,2.74566832 L6.41544,4.33489604 C6.41544,4.97058416 6.93615,5.48689604 7.57896,5.48689604 L9.18408,5.48689604 C10.71318,5.48689604 11.951955,4.25961386 11.951955,2.74642574 C11.95119,1.23172277 10.711635,0.0051980198 9.183315,0.0051980198 L9.183315,0.0051980198 Z" id="Path" opacity="0.500023251"></path>
                    </g>
                </g>
            </g>
        </g>
    </g>
</svg>