<?xml version="1.0" standalone="no"?><!DOCTYPE svg PUBLIC "-//W3C//DTD SVG 1.1//EN" "http://www.w3.org/Graphics/SVG/1.1/DTD/svg11.dtd"><svg t="1617354469640" class="icon" viewBox="0 0 1024 1024" version="1.1" xmlns="http://www.w3.org/2000/svg" p-id="5471" xmlns:xlink="http://www.w3.org/1999/xlink" width="200" height="200"><defs><style type="text/css"></style></defs><path d="M503.297 73.86a29.927 29.927 0 0 1 29.406 0l360.089 203.131A29.89 29.89 0 0 1 908 303.024v416.952a29.89 29.89 0 0 1-15.208 26.033l-360.089 203.13a29.927 29.927 0 0 1-29.406 0L143.208 746.01A29.89 29.89 0 0 1 128 719.976V303.024a29.89 29.89 0 0 1 15.208-26.033zM518 134.219L187.823 320.475v382.047L518 888.778 848.177 702.52V320.475L518 134.218zM762.82 335.63c14.286-7.588 32.099-2.435 40.085 11.731l0.36 0.656c7.592 14.278 2.436 32.08-11.739 40.061l-240.168 135.22v280.236l-0.009 0.705c-0.375 16.184-13.62 29.188-29.903 29.188-0.384 0-0.767-0.007-1.147-0.022-0.381 0.015-0.764 0.022-1.149 0.022-16.283 0-29.528-13.004-29.903-29.188l-0.008-0.705V523.299L249.07 388.079c-14.174-7.981-19.33-25.784-11.738-40.062l0.36-0.656c7.985-14.166 25.799-19.319 40.085-11.73l0.657 0.358 241.864 136.177 241.865-136.177z" fill="#D5BA93" p-id="5472"></path></svg>