<svg class="icon" viewBox="0 0 1024 1024" xmlns="http://www.w3.org/2000/svg" width="32" height="32"><path d="M950.7 963.7H71c-38.6 0-70-31.4-70-70v-363c0-38.6 31.4-70 70-70h206.3c14.5 0 26.2 11.7 26.2 26.2V716c0 10.1 8.3 18.4 18.4 18.4h377.9c10.2 0 18.4-8.3 18.4-18.4V487c0-14.5 11.7-26.2 26.2-26.2h206.3c38.6 0 70 31.4 70 70v363c-.1 38.5-31.4 69.9-70 69.9zM71 513.2c-9.5 0-17.6 8.1-17.6 17.6v363c0 9.5 8.1 17.6 17.6 17.6h879.7c9.5 0 17.6-8.1 17.6-17.6v-363c0-9.5-8.1-17.6-17.6-17.6H770.6v202.9c0 39-31.8 70.8-70.8 70.8H321.9c-39 0-70.8-31.7-70.8-70.8V513.2H71z" fill="#1296db"/><path d="M53.1 534.7l-51.8-7.9L70 77.2C72 64.5 83 55 95.9 55h.1l802.7 3c12.3 0 22.9 8.7 25.5 20.7l92 430.2-51.2 11-87.6-409.6-759-2.8-65.3 427.2z" fill="#1296db"/><path d="M740.2 227.8l-2.8-2.8c-9.2-9.2-24.2-9.2-33.3 0L472.2 456.8 343 327.7c-8.5-8.5-22.3-8.5-30.8 0l-5.3 5.3c-8.5 8.5-8.5 22.3 0 30.8L455 511.9c2.2 2.2 4.8 3.9 7.6 4.9 8.7 4 19.4 2.5 26.5-4.7l251-251c9.3-9.2 9.3-24.2.1-33.3z" fill="#1296db"/></svg>