<?xml version="1.0" encoding="UTF-8"?>
<svg width="36px" height="36px" viewBox="0 0 36 36" version="1.1" xmlns="http://www.w3.org/2000/svg" xmlns:xlink="http://www.w3.org/1999/xlink">
    <!-- Generator: Sketch 53.2 (72643) - https://sketchapp.com -->
    <title>异步角标</title>
    <desc>Created with Sketch.</desc>
    <g id="Page-1" stroke="none" stroke-width="1" fill="none" fill-rule="evenodd">
        <g id="Artboard" transform="translate(-1829.000000, -1550.000000)" fill-rule="nonzero">
            <g id="异步角标" transform="translate(1829.000000, 1550.000000)">
                <path d="M34.8776264,15.2790285 L20.7209714,1.12237358 C19.2156502,-0.374124528 16.7843869,-0.374124528 15.2790657,1.12237358 L1.12237358,15.2790285 C-0.374124528,16.7843497 -0.374124528,19.215613 1.12237358,20.7209343 L15.2790657,34.8776264 C16.7843869,36.3741245 19.2156502,36.3741245 20.7209714,34.8776264 L34.8776264,20.7209343 C36.3741245,19.215613 36.3741245,16.7843497 34.8776264,15.2790285 L34.8776264,15.2790285 Z" id="Path" fill="#A115C4"></path>
                <g id="交叉" transform="translate(7.000000, 12.000000)" fill="#FFFFFF">
                    <path d="M17.2453217,6.08436102 L17.2453217,7.93194814 L14.8956779,7.93194814 L13.113912,6.092089 L11.57863,7.84339 L13.4124811,9.74391763 C13.6374316,10.0015046 13.9738525,10.1507675 14.332584,10.1507675 L17.2453422,10.1507675 L17.2453422,12 L22,9.04221864 L17.2453217,6.08436102 Z M2.18959234,0 C1.53159677,0 1,0.496092674 1,1.11027075 C1,1.72173115 1.53157626,2.21881903 2.18959234,2.21881903 L6.63739059,2.21881903 L8.71915668,4.59287156 L10.2544387,2.8406717 L8.12062842,0.406753505 C7.8938529,0.149989518 7.55743195,5.4395285e-16 7.20243259,5.4395285e-16 L2.18959234,0 Z" id="Shape"></path>
                    <path d="M21,2.95801932 L16.2457395,0 L16.2457395,1.8477 L13.3333295,1.8477 C12.9746296,1.8477 12.6382382,1.99861756 12.4133075,2.25457424 L5.63881234,9.78104525 L1.18948781,9.78104525 C0.535261311,9.78104525 -3.55271368e-15,10.2788909 -3.55271368e-15,10.8913839 C-3.55271368e-15,11.5047 0.535261311,12 1.18948781,12 L6.20193882,12 C6.55877285,12 6.89518474,11.8507286 7.12378571,11.5931259 L13.8963945,4.06665458 L16.2457395,4.06665458 L16.2457395,5.91607729 L21,2.95801932 Z" id="Path" transform="translate(10.500000, 6.000000) scale(-1, -1) translate(-10.500000, -6.000000) "></path>
                </g>
            </g>
        </g>
    </g>
</svg>