<?xml version="1.0" encoding="UTF-8"?>
<svg width="99px" height="116px" viewBox="0 0 99 116" version="1.1" xmlns="http://www.w3.org/2000/svg" xmlns:xlink="http://www.w3.org/1999/xlink">
    <!-- Generator: Sketch 53.2 (72643) - https://sketchapp.com -->
    <title>audio</title>
    <desc>Created with Sketch.</desc>
    <g id="Page-1" stroke="none" stroke-width="1">
        <g id="Artboard" transform="translate(-1522.000000, -1046.000000)">
            <g id="audio" transform="translate(1522.000000, 1046.000000)">
                <path d="M49.5000001,115.977254 C48.9435382,116.007582 48.3858369,116.007582 47.8293751,115.977254 C42.631875,114.863793 0,105.028227 0,40.7568194 L0,23.6219015 C0.0167312466,20.8357816 1.20730877,18.1857511 3.27937498,16.3225501 C5.16712588,14.5873637 7.64513134,13.636234 10.2093749,13.662617 L13.6743749,13.662617 C18.230168,13.6946466 22.7752655,13.2174317 27.225,12.2398621 C33.1192584,10.2059492 38.4287628,6.76628508 42.6937501,2.21871869 L43.4362501,1.60012954 C46.8866889,-0.533376513 51.2470611,-0.533376513 54.6975,1.60012954 C55.6626491,2.25081386 56.592115,2.95289437 57.481875,3.70333254 C61.506275,7.35663746 66.1888078,10.2116099 71.28,12.1161442 C75.7164123,13.0461143 80.2358934,13.5228162 84.7687501,13.5388991 L88.2956251,13.5388991 C90.8522018,13.5541182 93.3157233,14.4996885 95.2256251,16.1988323 C97.4299536,17.9863472 98.7961587,20.606092 99,23.4363248 L99,40.7568194 C99,104.966368 56.2443749,114.987511 51.418125,115.791677 L49.5000001,115.977254 Z M13.773199,23.2833175 C12.672642,23.195762 11.5815491,23.5398528 10.7381238,24.2404693 C10.0199935,24.8718641 9.60445791,25.7706768 9.5928125,26.7178035 L9.5928125,42.3137479 C9.5928125,96.3083714 44.6393408,104.247101 48.6479307,105.091647 L50.0223043,105.091647 C53.9736285,104.303404 89.5928125,96.1394624 89.5928125,42.3137479 L89.5928125,26.6615004 C89.5550466,25.7202836 89.1439277,24.8310241 88.4475012,24.1841663 C87.735822,23.5670736 86.8194561,23.2267096 85.8705505,23.2270145 L82.6064131,23.2270145 C77.9695601,23.2168165 73.3456625,22.7452211 68.8054109,21.8194383 C63.1637708,19.9508921 57.9634341,16.9827121 53.515504,13.0924657 L51.3966779,11.6848895 C50.0780629,10.8938995 48.4203752,10.8938995 47.1017603,11.6848895 C42.4754421,16.3947635 36.7285222,19.8971913 30.3802141,21.8757414 C25.8316516,22.8755531 21.1827145,23.3666305 16.5219463,23.3396206 L13.773199,23.2833175 Z" id="Shape"></path>
                <path d="M68.8901487,62.4989662 L64.3801965,62.4989662 L55.5996473,50.4038594 C59.5301083,48.3694004 62.0748299,44.3376981 62.0748299,39.9090283 C62.0748299,33.3342522 56.6578483,28 49.9937012,28 C43.3421517,28 37.9125724,33.3466575 37.9125724,39.9090283 C37.9125724,44.3501034 40.457294,48.3818057 44.3877551,50.4038594 L35.6072058,62.4989662 L31.0972537,62.4989662 C27.7336861,62.4989662 25,65.1909028 25,68.4906961 L25,76.0082702 C25,79.3080634 27.7336861,82 31.0972537,82 L68.9027463,82 C72.2663139,82 75,79.3080634 75,76.0082702 L75,68.4906961 C74.9874024,65.1909028 72.2537163,62.4989662 68.8901487,62.4989662 Z M49.4935169,35 C52.5396565,35 55,37.2458629 55,40 C55,42.7186761 52.5526742,44.964539 49.5586053,45 L49.4414461,45 C46.4343596,44.964539 44.0000514,42.7186761 44.0000514,40 C43.9870337,37.2340426 46.4473773,35 49.4935169,35 Z M49.9937824,54 L56,62 L44,62 L49.9937824,54 L49.9937824,54 Z M68,75 L32,75 L32,69 L68,69 L68,75 Z" id="Shape"></path>
            </g>
        </g>
    </g>
</svg>
