<?xml version="1.0" encoding="UTF-8"?>
<svg width="108px" height="111px" viewBox="0 0 108 111" version="1.1" xmlns="http://www.w3.org/2000/svg" xmlns:xlink="http://www.w3.org/1999/xlink">
    <!-- Generator: Sketch 53.2 (72643) - https://sketchapp.com -->
    <title>b-w-list</title>
    <desc>Created with Sketch.</desc>
    <g id="Page-1" stroke="none" stroke-width="1">
        <g id="Artboard" transform="translate(-1154.000000, -852.000000)">
            <g id="b-w-list" transform="translate(1154.000000, 852.000000)">
                <path d="M69.2405334,110.839572 L69.2405334,110.843848 L8.8544,110.843848 C3.94891934,110.810887 -0.00505702336,106.805908 0.013866625,101.88928 L0.013866625,8.95677291 C-0.0074078943,4.04154369 3.94602347,0.0370964575 8.85013338,0.00648122235 L77.2789334,0.00648122235 C82.1830432,0.0370965263 86.1364745,4.04154374 86.1152,8.95677291 L86.1152,101.885004 C86.1364825,106.800936 82.1837297,110.806609 77.2789334,110.839572 L69.2405334,110.839572 Z M70.8806613,102.421538 C74.8682349,102.393583 78.0818021,98.996414 78.0644995,94.8272636 L78.0644995,16.0158126 C78.0644995,9.96719093 76.0573819,8.42516476 70.8806613,8.42516476 L15.2484074,8.42516476 C9.94620516,8.42516476 8.06456908,9.96719093 8.06456908,16.0158126 L8.06456908,94.8308903 C8.06456908,100.050524 9.94620516,102.425165 15.2518761,102.425165 L64.3454845,102.425165 L70.8806613,102.421538 Z" id="Combined-Shape"></path>
                <path d="M66.4544,25.0185481 L19.8069334,25.0185481 C18.1077191,25.1259901 16.7844263,26.5385791 16.7844263,28.2450149 C16.7844263,29.9514507 18.1077191,31.3640397 19.8069334,31.4714817 L66.4544,31.4714817 C67.5952411,31.4687692 68.6471387,30.8535051 69.2106666,29.8593173 C69.7782973,28.8583016 69.7782973,27.6317282 69.2106666,26.6307125 C68.648453,25.6352237 67.5957248,25.0194738 66.4544,25.0185481 L66.4544,25.0185481 Z M66.4544,40.3790103 L19.8069334,40.3790103 C18.6363502,40.3352523 17.5370927,40.9420309 16.9482666,41.9569643 C16.3525987,42.9748943 16.3525987,44.23606 16.9482666,45.25399 C17.5370927,46.2689234 18.6363502,46.875702 19.8069334,46.831944 L66.4544,46.831944 C67.5952411,46.8292315 68.6471387,46.2139674 69.2106666,45.2197797 C69.7782974,44.218764 69.7782974,42.9921904 69.2106666,41.9911747 C68.6471387,40.996987 67.5952411,40.3817229 66.4544,40.3790103 L66.4544,40.3790103 Z M66.4544,55.7394727 L19.8069334,55.7394727 C18.074604,55.802693 16.7028181,57.2285491 16.7028181,58.9659395 C16.7028181,60.7033299 18.074604,62.1291861 19.8069334,62.1924064 L66.4544,62.1924064 C67.5952411,62.1896938 68.6471387,61.5744297 69.2106666,60.580242 C69.7782974,59.5792263 69.7782974,58.3526527 69.2106666,57.351637 C68.648453,56.3561483 67.5957248,55.7403984 66.4544,55.7394727 L66.4544,55.7394727 Z M66.4544,71.099935 L19.8069334,71.099935 C18.074604,71.1631552 16.7028181,72.5890114 16.7028181,74.3264018 C16.7028181,76.0637922 18.074604,77.4896484 19.8069334,77.5528686 L66.4544,77.5528686 C67.5957248,77.5519429 68.648453,76.936193 69.2106666,75.9407042 C69.7782973,74.9396886 69.7782973,73.7131151 69.2106666,72.7120994 C68.6471387,71.7179116 67.5952411,71.1026475 66.4544,71.099935 L66.4544,71.099935 Z" id="Shape"></path>
                <path d="M54.9386666,110.912269 C53.9640773,110.91228 53.1726968,110.122936 53.168,109.146158 L53.168,104.360981 C53.1514665,94.8067864 58.9808371,86.2195242 67.8538666,82.7271891 L68.8650666,82.2995594 L68.0117334,81.6281806 C63.3968099,78.0106434 61.5806002,71.8566827 63.4894515,66.3050909 C65.3983028,60.7534991 70.6116278,57.0274879 76.4704,57.0274879 C82.3291722,57.0274879 87.5424972,60.7534991 89.4513485,66.3050909 C91.3601998,71.8566827 89.5439901,78.0106434 84.9290666,81.6281806 L84.0757334,82.3038356 L85.0869334,82.7058077 C93.9599628,86.1981427 99.7893334,94.785405 99.7728,104.339599 L99.7728,109.124777 C99.7681032,110.101555 98.9767228,110.890899 98.0021334,110.890888 L54.9386666,110.890888 L54.9386666,110.912269 Z" id="Path"></path>
                <path d="M106.177067,103.591247 C107.150964,103.593616 107.943031,102.805499 107.947733,101.829412 L107.947733,98.1389671 C107.96575,91.2335055 104.114107,84.9026178 97.9808,81.7564696 L97.2554666,81.3801553 L97.8058666,80.7771972 C99.7010062,78.7086312 100.754378,76.0036543 100.7584,73.195321 C100.699322,67.1641049 95.9731669,62.2175879 89.9637334,61.8973418 C90.8771251,63.1331531 91.5965543,64.5017122 92.0970666,65.9555485 C95.1596036,67.0407537 97.2097437,69.9396888 97.2170666,73.195321 C97.2057389,76.2540373 95.4126389,79.0241524 92.6304,80.2811468 C91.9010871,80.50087 91.4052757,81.1782951 91.4151779,81.9414996 C91.4250802,82.7047042 91.9382997,83.3689783 92.6730666,83.5696199 L93.0997334,83.6636984 C99.7415857,85.3113522 104.409967,91.2812513 104.4192,98.1389671 L104.4192,100.071854 L102.1536,100.071854 C102.353358,101.235093 102.468859,102.411296 102.4992,103.591247 L106.177067,103.591247 L106.177067,103.591247 Z" id="Path"></path>
            </g>
        </g>
    </g>
</svg>
