<svg xmlns="http://www.w3.org/2000/svg" viewBox="0 0 213.33333 213.33333" id="babel"><path d="M50.22 199.659c-.875-.406-1.261-1.6-.857-2.652.404-1.053.12-1.914-.63-1.914s-1.615.748-1.92 1.663c-.328.983-1.27.302-2.304-1.667-.962-1.831-3.718-5.533-6.126-8.226-9.418-10.535-7.71-27.444 5.432-53.77 12.459-24.96 23.117-39.033 45.966-60.696 30.229-28.66 52.679-46.223 70.587-55.22 10.98-5.518 13.025-5.059 2.778.624-11.004 6.102-11.378 6.359-10.512 7.226.33.33 7.306-2.67 15.504-6.667 15.87-7.737 16.34-7.912 16.34-6.082 0 .652-4.95 3.738-11 6.858-13.062 6.736-12.722 6.48-10.472 7.872 1.117.69 5.428-.582 11.54-3.406 5.367-2.48 10.397-4.508 11.179-4.508 2.755 0-3.928 5.302-11.541 9.157-20.437 10.35-68.937 46.043-68.07 50.097.166.777-5.792 7.639-13.241 15.248-15.257 15.587-26.14 30.002-33.748 44.706-6.379 12.326-7.457 17.734-5.385 26.996 3.482 15.56 11.592 18.366 31.482 10.895 28.228-10.603 45.758-28.704 47.022-48.556.602-9.442-1.317-13.479-8.52-17.93-4.01-2.48-5.268-2.621-12.065-1.365-4.173.771-10.153 2.906-13.289 4.744s-6.455 3.34-7.377 3.34c-.922 0-3.216 1.336-5.096 2.968-1.88 1.633.48-1.13 5.247-6.14 6.82-7.167 7.956-8.9 5.333-8.132-5.208 1.525-10.194 4.33-15.649 8.803-2.76 2.264-.923.175 4.08-4.641 11.565-11.131 21.183-15.97 33.088-16.641 17.097-.966 27.254 5.805 31.964 21.31 2.435 8.017 2.609 10.24 1.353 17.37-1.65 9.361-7.034 21.553-15.593 35.307-4.398 7.067-8.434 11.427-15.588 16.844-9.166 6.94-15.654 11.02-15.654 9.845 0-.295 2.455-2.161 5.455-4.147 8.818-5.835 5.075-5.377-8.326 1.02-6.854 3.27-15.199 6.593-18.542 7.38-7.106 1.675-30.527 3.164-32.846 2.089zm-8.408-19.899c0-1.1-.6-2-1.333-2-.734 0-1.334.9-1.334 2s.6 2 1.333 2c.734 0 1.334-.9 1.334-2zm89.255-8.204c1.53-1.945 2.473-3.845 2.097-4.222-.377-.377-.836-.435-1.02-.13-.182.306-1.787 2.206-3.565 4.223-1.778 2.016-2.571 3.666-1.763 3.666s2.72-1.591 4.25-3.536zm-77.644-1.745c-.82-2.172-1.74-3.7-2.045-3.396-.951.952 1.088 7.345 2.343 7.345.656 0 .522-1.777-.298-3.95zm82.303-27.915c-.837-.837-3.217 2.55-3.184 4.53.012.734.896.178 1.965-1.235 1.07-1.413 1.618-2.896 1.219-3.295zm-66.238-36.904c-1.312-1.312-3.676.702-3.676 3.133 0 2.035.175 2.031 2.254-.047 1.24-1.24 1.88-2.628 1.422-3.086zm39.657.768c4.403-2.196 6.8-3.986 5.333-3.982-2.838.01-16.667 6.028-16.667 7.254 0 1.6 3.717.527 11.333-3.272zm16.667-5.333c0-.733-.9-1.333-2-1.333s-2 .6-2 1.333.9 1.333 2 1.333 2-.6 2-1.333zm-3.334-3.923l5.334-1.104-7.334-.133c-4.033-.073-8.233.45-9.333 1.16-2.539 1.64 3.572 1.682 11.333.077zm35.738-63.976c2.788-1.69 4.765-3.376 4.393-3.748-.947-.947-11.942 5.654-14.237 8.548-1.792 2.258-1.714 2.276 1.44.329a1452.76 1452.76 0 0 1 8.403-5.13z" fill="#ffca28" stroke-width="1.333"></path></svg>