<?xml version="1.0" encoding="UTF-8"?>
<svg width="42px" height="42px" viewBox="0 0 42 42" version="1.1" xmlns="http://www.w3.org/2000/svg" xmlns:xlink="http://www.w3.org/1999/xlink">
    <title>返回应用首页</title>
    <defs>
        <filter x="-0.5%" y="-16.0%" width="101.0%" height="132.0%" filterUnits="objectBoundingBox" id="filter-1">
            <feOffset dx="0" dy="0" in="SourceAlpha" result="shadowOffsetOuter1"></feOffset>
            <feGaussianBlur stdDeviation="2" in="shadowOffsetOuter1" result="shadowBlurOuter1"></feGaussianBlur>
            <feColorMatrix values="0 0 0 0 0   0 0 0 0 0   0 0 0 0 0  0 0 0 0.100988855 0" type="matrix" in="shadowBlurOuter1" result="shadowMatrixOuter1"></feColorMatrix>
            <feMerge>
                <feMergeNode in="shadowMatrixOuter1"></feMergeNode>
                <feMergeNode in="SourceGraphic"></feMergeNode>
            </feMerge>
        </filter>
    </defs>
    <g id="Page-1" stroke="none" stroke-width="1" fill="none" fill-rule="evenodd">
        <g id="菜单样式3备份" transform="translate(-4.000000, -4.000000)">
            <g id="Top" filter="url(#filter-1)" transform="translate(0.000000, -0.000000)">
                <g id="返回应用首页" transform="translate(10.000000, 10.000000)">
                    <rect id="矩形" fill="#000000" opacity="0.300000012" x="0" y="0" width="30" height="30" rx="6"></rect>
                    <path d="M14.2499809,15.7440041 L14.2499809,18.5829967 C14.2499809,18.9972092 13.9141953,19.3329948 13.4999828,19.3329948 C13.0857703,19.3329948 12.7499848,18.9972092 12.7499848,18.5829967 L12.7499848,17.2530002 L8.62499557,17.2770001 C6.35200151,17.2770001 4.49999927,19.1219953 4.49999927,21.3879894 C4.49999927,23.6539835 6.35200149,25.4999787 8.62499557,25.4999787 C9.80453449,25.5002064 10.9279125,24.9961965 11.7119875,24.1149823 C11.9875985,23.8054889 12.4616547,23.7773139 12.7719847,24.0519825 C13.0799839,24.3279817 13.1089839,24.8019805 12.8339846,25.1109797 C11.7646881,26.312225 10.2332198,26.9995483 8.62499557,26.999999 C7.1333163,27.004362 5.70164416,26.4129017 4.64800594,25.356979 C3.59054563,24.3080606 2.99705492,22.8794334 2.99999927,21.3899894 C2.99999927,19.8919933 3.58600873,18.480997 4.64800594,17.4219998 L4.64800594,17.4199998 C5.70209523,16.3659768 7.13233673,15.7748104 8.62299557,15.7770041 L14.2499809,15.7440041 Z M15.74996,15.7450041 L21.3769623,15.778004 C22.8676211,15.7758103 24.2978626,16.3669768 25.3519519,17.4209998 C26.410285,18.4701513 27.0038857,19.8997638 26.9999671,21.3899894 C26.9999671,22.8899855 26.4159491,24.2989818 25.3519519,25.357979 C24.297835,26.4130646 22.8663882,27.0040719 21.3749623,26.999999 C19.883283,27.004362 18.4516109,26.4129017 17.3979727,25.356979 C16.3398868,24.3080712 15.7463067,22.8788686 15.74996,21.3889894 L15.74996,15.7450041 Z M17.249973,17.2550002 L17.249973,21.3889894 C17.249973,23.6549835 19.1019682,25.4999787 21.3749623,25.4999787 C23.6479563,25.4999787 25.4999515,23.6549835 25.4999515,21.3899894 C25.4999515,19.1229953 23.6479563,17.2780001 21.3749623,17.2780001 L21.3699623,17.2780001 L17.249973,17.2550002 Z M13.4999828,20.6389914 L13.4999828,20.6399913 C13.9149817,20.6399913 14.2499809,20.9739905 14.2479898,21.3899894 C14.2479898,21.8319882 14.195981,22.2749871 14.0929813,22.703986 C13.9947917,23.1058799 13.5904076,23.3529787 13.1879836,23.2569845 C12.7853886,23.1597559 12.5378159,22.7545963 12.6349851,22.3519869 C12.7129849,22.0409877 12.7499848,21.7149886 12.7499848,21.3889894 C12.7499848,20.9747769 13.0857703,20.6389914 13.4999828,20.6389914 Z M21.3749623,3.00001625 C22.8663882,2.9959403 24.297835,3.58694753 25.3519519,4.64203312 C26.4139491,5.70103037 26.9999783,7.11002669 26.9999783,8.61002277 C27.0048958,10.1004482 26.4111395,11.5304353 25.3519519,12.5790124 C24.2978626,13.6330353 22.8676211,14.2242018 21.3769623,14.2220081 L21.3769623,14.2220081 L15.74996,14.255008 L15.74996,8.61102275 C15.7463067,7.12114359 16.3398868,5.69194096 17.3979727,4.64303313 C18.4519252,3.58758081 19.8833924,2.99620525 21.3749623,3.00001625 Z M8.62499557,3.00000779 C10.1164215,2.9959403 11.5478683,3.58694753 12.6019852,4.64203312 C13.6639824,5.70103037 14.2499809,7.11002669 14.2499809,8.61002277 L14.2499809,8.61002277 L14.2499809,14.255008 L8.62199557,14.2220081 C7.4152576,14.2243925 6.24011279,13.8364194 5.27200432,13.116011 C4.3223441,12.4157029 3.61873773,11.4327543 3.26200957,10.3080183 C3.18073185,10.0525741 3.24190602,9.77317274 3.42248836,9.57506206 C3.6030707,9.37695139 3.87562645,9.2902291 4.1374865,9.34756266 C4.39934655,9.40489622 4.61072812,9.59757529 4.69200582,9.85301952 C5.23385522,11.567019 6.82740289,12.729462 8.62499557,12.722012 L8.62499557,12.722012 L8.62999554,12.722012 L12.7499848,12.745012 L12.7499848,8.61002277 C12.7499848,6.34502866 10.8979896,4.50003349 8.62499557,4.50003349 C6.77589153,4.50035169 5.15223169,5.72943156 4.65000593,7.50902564 C4.53954927,7.90832647 4.12630917,8.14248094 3.72700834,8.03202428 C3.32770751,7.92156761 3.09355304,7.50832752 3.20400971,7.10902669 C3.53140225,5.93903689 4.22842063,4.90631314 5.19100453,4.16503435 C6.17441162,3.40590414 7.38267845,2.99599417 8.62499557,3.00000779 Z M21.3749623,4.50003349 C19.1019682,4.50003349 17.249973,6.34502866 17.249973,8.61102275 L17.249973,8.61102275 L17.249973,12.745012 L21.3749623,12.722012 C23.6479563,12.722012 25.4999515,10.8770168 25.4999515,8.61002277 C25.4999515,6.34502866 23.6479563,4.50003349 21.3749623,4.50003349 Z" id="形状结合" fill="#F4F9FF" fill-rule="nonzero" opacity="0.699999988"></path>
                </g>
            </g>
        </g>
    </g>
</svg>