<svg class="icon" viewBox="0 0 1024 1024" xmlns="http://www.w3.org/2000/svg" width="16" height="16"><defs><style/></defs><path fill="#fff" d="M855.235 923.561c-2.709 53.683-73.488 40.96-109.917 40.96H121.226c-22.149 0-43.458-3.558-52.393-27.976-3.988-10.905-2.078-25.825-2.078-37.217V267.945c0-34.412-8.694-91.884 42.705-91.884h704.763c53.09 0 41.012 72.433 41.012 106.752v640.748c0 33.014 51.2 33.014 51.2 0V219.392c0-42.854-26.092-76.175-65.562-90.624-14.418-5.279-31.693-3.907-46.94-3.907H164.388c-51.205 0-98.919-4.853-133.975 42.025-23.378 31.263-14.864 88.92-14.864 125.594v620.493c0 59.76 39.148 102.748 100.168 102.748h696.177c52.9 0 91.909-40.315 94.53-92.16 1.675-33.014-49.53-32.855-51.19 0z"/><path fill="#fff" d="M170.737 121.846c2.703-53.566 72.929-40.96 109.301-40.96h623.263c20.864 0 38.938 1.674 51.38 22.154 6.717 11.054 4.54 28.498 4.54 41.052v630.533c0 34.765 9.498 92.18-40.96 94.73-32.854 1.66-33.013 52.865 0 51.2 50.34-2.539 92.16-40.453 92.16-92.6V122.62c0-47.043-37.36-90.174-85.355-92.6-35.19-1.777-70.743-.343-105.963-.343H228.31c-7.823 0-15.6-.052-23.414.343-49.167 2.483-82.995 45.076-85.355 91.817-1.674 33.024 49.536 32.86 51.195.01z"/><path fill="#fff" d="M435.395 339.963v460.651c0 33.014 51.194 33.014 51.194 0V339.963c0-33.014-51.194-33.014-51.194 0z"/><path fill="#fff" d="M230.666 595.891h460.652c33.014 0 33.014-51.2 0-51.2H230.666c-33.014 0-33.014 51.2 0 51.2z"/></svg>