<svg width="16" height="14" xmlns="http://www.w3.org/2000/svg"><g fill="#5A626B" fill-rule="nonzero"><path d="M.013 2.006a1.997 1.997 0 1 0 3.994 0 1.997 1.997 0 0 0-3.994 0zM.013 8.851a1.997 1.997 0 1 0 3.994 0 1.997 1.997 0 0 0-3.994 0zM7.144 1.15h7.987c.57 0 .856.285.856.856 0 .57-.286.855-.856.855H7.144c-.57 0-.855-.285-.855-.855 0-.57.285-.856.855-.856zM7.144 7.996h7.987c.57 0 .856.285.856.855 0 .57-.286.856-.856.856H7.144c-.57 0-.855-.285-.855-.856 0-.57.285-.855.855-.855zM7.144 4.573h1.712c.57 0 .855.285.855.855 0 .57-.285.856-.855.856H7.144c-.57 0-.855-.285-.855-.856 0-.57.285-.855.855-.855zM7.144 11.418h4.564c.57 0 .856.286.856.856 0 .57-.285.856-.856.856H7.144c-.57 0-.855-.285-.855-.856 0-.57.285-.856.855-.856z"/></g></svg>