<?xml version="1.0" encoding="UTF-8"?>
<svg width="14px" height="14px" viewBox="0 0 14 14" version="1.1" xmlns="http://www.w3.org/2000/svg" xmlns:xlink="http://www.w3.org/1999/xlink">
    <title>企业管理员</title>
    <g id="darshboard" stroke="none" stroke-width="1" fill="none" fill-rule="evenodd">
        <g id="Artboard-2" transform="translate(-3456.000000, -722.000000)" fill-rule="nonzero">
            <g id="编组-4" transform="translate(3437.000000, 584.000000)">
                <g id="企业管理员" transform="translate(19.000000, 138.000000)">
                    <path d="M6.61111111,6.44077777 C8.36344444,6.44077777 9.78288889,4.99955556 9.78288889,3.22077777 C9.78288889,1.44277777 8.36344444,0.00155555707 6.61111111,0 C4.85877778,0 3.43933333,1.44122222 3.43777777,3.22 L3.43777777,3.22155556 C3.43933333,4.99955556 4.85877776,6.44155556 6.61111111,6.44155556 L6.61111111,6.44077777 Z M1.25922222,8.61 C0.633111111,10.2176667 0,14 0,14 L5.39,14 L3.76911111,7.245 C2.79300001,7.245 1.88533333,7.00077777 1.25922222,8.60922221 L1.25922222,8.61 Z M11.963,8.61 C11.3368889,7.00155556 10.4292222,7.24577778 9.45311111,7.24577778 L7.83222223,14 L13.2222222,14 C13.2222222,14 12.5891111,10.2176667 11.963,8.60922221 L11.963,8.61 Z" id="形状" fill="#5B93EF"></path>
                    <polygon id="路径" fill="#3B2F45" points="6.61111111 7.24577778 5.082 9.41422222 6.286 14 6.93622222 14 8.14022223 9.41344444 6.61111111 7.245"></polygon>
                </g>
            </g>
        </g>
    </g>
</svg>