<?xml version="1.0" encoding="UTF-8"?>
<svg width="14px" height="14px" viewBox="0 0 14 14" version="1.1" xmlns="http://www.w3.org/2000/svg" xmlns:xlink="http://www.w3.org/1999/xlink">
    <title>流程1</title>
    <g id="darshboard" stroke="none" stroke-width="1" fill="none" fill-rule="evenodd">
        <g id="Artboard-2" transform="translate(-3442.000000, -623.000000)" fill-rule="nonzero">
            <g id="流程1" transform="translate(3442.000000, 623.000000)">
                <path d="M6.72300418,3.26632737 C7.62713315,3.26632737 8.35935029,2.53602037 8.35935029,1.63380151 C8.358296,0.730921541 7.62588469,-0.000349831056 6.72300418,1.11414192e-06 C6.28952471,-0.000504660013 5.87359811,0.171208406 5.56672362,0.477366456 C5.25984913,0.783524505 5.08716436,1.19904862 5.08665806,1.63252808 C5.08736109,2.53565677 5.81987528,3.26731589 6.72300418,3.2669642 L6.72300418,3.26632737 Z M3.05873495,9.70729132 C2.60522083,8.92419603 1.60315621,8.65637097 0.819423941,9.1087834 C0.443169308,9.32478313 0.168412955,9.68171694 0.0558684183,10.1007124 C-0.0566761183,10.5197078 0.00225606469,10.9662722 0.219642589,11.3417273 C0.673156701,12.1248226 1.67522134,12.3926477 2.45895361,11.9402352 C2.83481927,11.7238723 3.10923771,11.3669447 3.22174172,10.9481001 C3.33424573,10.5292556 3.27560288,10.0828658 3.05873495,9.70729132 L3.05873495,9.70729132 Z M12.2241833,8.94578549 C11.8478154,8.72796702 11.4003104,8.66865531 10.9801951,8.78090897 C10.5600798,8.89316263 10.2017992,9.16777805 9.98423562,9.54429342 C9.76707483,9.91986571 9.70833609,10.3664301 9.82098904,10.7853843 C9.93364198,11.2043386 10.2084207,11.5612232 10.5846537,11.7772373 C10.9610217,11.9950558 11.4085266,12.0543675 11.8286419,11.9421138 C12.2487572,11.8298602 12.6070378,11.5552448 12.8246014,11.1787294 C13.0412441,10.8030381 13.0996939,10.3566482 12.9870815,9.93784461 C12.874469,9.51904099 12.6000278,9.16216247 12.2241833,8.94578549 L12.2241833,8.94578549 Z" id="形状" fill="#005BAC"></path>
                <path d="M3.33116696,12.1496202 C3.48963629,12.0673595 3.67995358,12.0758898 3.83042814,12.1719979 C4.68362028,12.7132018 5.67306848,12.9997216 6.68925852,12.9997216 C7.69118185,13.0011708 8.67313221,12.7195415 9.52198376,12.1872789 C9.67325449,12.0923082 9.86370068,12.0852536 10.0215831,12.1687725 C10.1794655,12.2522915 10.2807981,12.4136954 10.2874098,12.5921851 C10.2940215,12.7706747 10.2049078,12.9391332 10.0536371,13.034104 C9.04546619,13.6663643 7.87928388,14.0011673 6.68925852,13.9999969 C5.48629479,14.001091 4.30795311,13.6591841 3.29240772,13.0143659 C3.14193316,12.9182578 3.05416198,12.7491731 3.06215675,12.5708042 C3.07015151,12.3924354 3.17269763,12.231881 3.33116696,12.1496202 Z M9.23450466,2.04551872 C9.36121085,2.00575137 9.4985277,2.01797537 9.61621693,2.0794989 C10.6263735,2.60561694 11.4763761,3.39382113 12.0771032,4.36146952 C12.7696693,5.47849868 13.0949745,6.78439533 13.0073373,8.09577691 C12.9901461,8.35937507 12.7692076,8.56184903 12.5081563,8.56184903 L12.5081563,8.56184903 L12.475684,8.56057561 C12.1993516,8.54338443 11.9911473,8.30461797 12.0083385,8.03019573 C12.1494839,5.92328116 11.0273552,3.93335959 9.15141823,2.96388986 C9.03361676,2.90338052 8.94499359,2.79816677 8.90538306,2.671796 C8.86577252,2.54542524 8.87848199,2.40844907 8.94066703,2.29152351 C9.00209357,2.17378363 9.10779847,2.08528607 9.23450466,2.04551872 Z M3.7985926,2.06230771 C4.04351371,1.93571532 4.34468491,2.03163969 4.47127731,2.2765608 C4.5978697,2.52148191 4.50194532,2.82265311 4.25702421,2.94924551 C2.37394218,3.90703861 1.23943537,5.89161249 1.36954185,8.00027032 C1.38511129,8.27587161 1.17458549,8.51203655 0.899012749,8.52810337 C0.889462101,8.52937679 0.878638018,8.52937679 0.869087358,8.52937679 C0.606125896,8.52937679 0.385824048,8.32371928 0.370542994,8.06012112 C0.290896879,6.75408049 0.620280374,5.45568636 1.31287462,4.34555175 C1.92032562,3.37418681 2.77923545,2.5852394 3.7985926,2.06230771 Z" id="形状结合" fill="#5B93EF"></path>
            </g>
        </g>
    </g>
</svg>