<svg width="37" height="40" xmlns="http://www.w3.org/2000/svg"><defs><filter x="-5.1%" y="-2%" width="110.3%" height="105.8%" filterUnits="objectBoundingBox" id="a"><feOffset dy="6" in="SourceAlpha" result="shadowOffsetOuter1"/><feGaussianBlur stdDeviation="5" in="shadowOffsetOuter1" result="shadowBlurOuter1"/><feColorMatrix values="0 0 0 0 0 0 0 0 0 0 0 0 0 0 0 0 0 0 0.0975713315 0" in="shadowBlurOuter1" result="shadowMatrixOuter1"/><feMerge><feMergeNode in="shadowMatrixOuter1"/><feMergeNode in="SourceGraphic"/></feMerge></filter></defs><g filter="url(#a)" transform="translate(-12 -249)" fill-rule="nonzero" fill="none"><path d="M36.038 253.452l-5.526 5.453-5.526-5.453a1.662 1.662 0 0 0-.578-.38 1.805 1.805 0 0 0-.659-.126c-.223 0-.44.042-.65.126-.21.085-.4.211-.569.38-.349.337-.524.74-.524 1.21s.175.872.524 1.21l6.646 6.59c.168.17.37.302.604.398.235.096.473.15.714.162.24.013.472-.018.695-.09.223-.072.406-.192.55-.361l6.755-6.7a1.65 1.65 0 0 0 .505-1.21c0-.469-.168-.872-.505-1.21a1.662 1.662 0 0 0-.578-.379 1.805 1.805 0 0 0-.66-.126c-.222 0-.439.042-.65.126-.21.085-.4.211-.568.38z" fill="#72C075"/><path d="M36.038 263.452l-5.526 5.453-5.526-5.453a1.662 1.662 0 0 0-.578-.38 1.805 1.805 0 0 0-.659-.126c-.223 0-.44.042-.65.126-.21.085-.4.211-.569.38-.349.337-.524.74-.524 1.21s.175.872.524 1.21l6.646 6.59c.168.17.37.302.604.398.235.096.473.15.714.162.24.013.472-.018.695-.09.223-.072.406-.192.55-.361l6.755-6.7a1.65 1.65 0 0 0 .505-1.21c0-.469-.168-.872-.505-1.21a1.662 1.662 0 0 0-.578-.379 1.805 1.805 0 0 0-.66-.126c-.222 0-.439.042-.65.126-.21.085-.4.211-.568.38z" fill="#369539"/></g></svg>