<?xml version="1.0" standalone="no"?><!DOCTYPE svg PUBLIC "-//W3C//DTD SVG 1.1//EN" "http://www.w3.org/Graphics/SVG/1.1/DTD/svg11.dtd"><svg t="1617329878459" class="icon" viewBox="0 0 1024 1024" version="1.1" xmlns="http://www.w3.org/2000/svg" p-id="5059" xmlns:xlink="http://www.w3.org/1999/xlink" width="200" height="200"><defs><style type="text/css"></style></defs><path d="M511.6928 0C229.33504 0 0.43008 228.90496 0.43008 511.2832c0 126.09536 45.64992 241.50016 121.30304 330.62912 1.37216 1.59744 2.74432 3.21536 4.11648 4.79232 29.5936-28.44672 164.7616-152.12544 376.27904-155.7504 223.72352-3.82976 368.0256 129.41312 395.42784 155.7504 78.09024-89.76384 125.41952-207.07328 125.41952-335.42144C1022.976 228.90496 794.07104 0 511.6928 0z" fill="#60C7C8" p-id="5060"></path><path d="M897.55648 846.70464c-80.95744 93.06112-195.03104 156.52864-323.82976 172.09344l-30.18752-176.88576 21.44256-31.6416-14.56128-14.56128-38.85056-38.85056-38.85056 38.85056-14.49984 14.49984 18.67776 31.70304-26.29632 176.98816c-129.18784-15.38048-243.56864-78.90944-324.75136-172.19584 29.5936-28.44672 164.7616-152.12544 376.27904-155.7504 223.744-3.85024 368.0256 129.41312 395.42784 155.7504z" fill="#E7E9E8" p-id="5061"></path><path d="M610.73408 609.3824v170.10688h-60.33408c-11.81696-3.19488-23.63392-6.41024-35.45088-9.60512-14.09024 3.19488-28.16 6.41024-42.25024 9.60512H412.672v-170.10688h198.06208z" fill="#F2D688" p-id="5062"></path><path d="M573.72672 1018.79808a508.5184 508.5184 0 0 1-62.01344 3.74784c-20.6848 0-41.0624-1.2288-61.09184-3.62496l26.29632-176.98816h66.62144l30.18752 176.86528z" fill="#5353B2" p-id="5063"></path><path d="M412.20096 228.864c-35.10272 30.78144-53.12512 76.71808-51.44576 123.37152l6.02112 168.01792c0 50.688 20.6848 99.10272 57.05728 133.57056l28.52864 22.05696c35.77856 27.66848 85.72928 27.58656 121.46688-0.12288 9.25696-7.168 18.49344-14.35648 27.7504-21.52448 34.05824-34.26304 53.248-81.03936 53.248-129.86368l7.18848-168.61184c2.84672-66.99008-35.61472-130.49856-98.24256-154.46016-23.30624-8.92928-48.55808-12.20608-73.66656-8.68352-29.06112 4.096-55.95136 16.9984-77.90592 36.2496z" fill="#FBEAB4" p-id="5064"></path><path d="M656.829903 512.166508a36.2496 61.19424 20.303 1 0 42.466937-114.784577 36.2496 61.19424 20.303 1 0-42.466937 114.784577Z" fill="#FBEAB4" p-id="5065"></path><path d="M317.337109 467.370058a61.19424 36.2496 69.697 1 0 67.99488-25.156117 61.19424 36.2496 69.697 1 0-67.99488 25.156117Z" fill="#FBEAB4" p-id="5066"></path><path d="M673.75104 229.25312c-4.34176-19.82464-14.60224-37.82656-30.96576-49.80736-16.4864-12.06272-38.23616-24.30976-65.35168-32.03072-73.8304-20.992-134.5536 6.79936-150.3232 14.41792-46.46912 22.46656-82.90304 60.33408-104.8576 106.0864-25.21088 52.5312-22.528 114.25792 4.38272 165.94944 6.51264 12.51328 13.02528 25.02656 19.5584 37.53984 3.23584-3.54304 6.94272-8.23296 10.3424-14.11072a82.96448 82.96448 0 0 0 8.47872-20.70528c14.76608-2.1504 30.16704-4.9152 46.10048-8.45824 50.23744-11.18208 93.67552-27.36128 129.86368-44.21632l-20.70528 41.41056c15.54432-5.61152 33.32096-13.18912 52.224-23.53152a369.68448 369.68448 0 0 0 51.28192-33.87392c0.18432 27.52512 7.92576 44.29824 15.0528 54.5792 5.81632 8.3968 11.9808 13.5168 19.29216 26.33728 7.3728 12.94336 10.89536 24.92416 12.6976 32.93184 3.50208-8.47872 9.03168-21.44256 16.34304-37.02784 7.8848-16.77312 11.50976-22.03648 15.872-31.96928 10.01472-22.85568 13.0048-43.58144 13.88544-52.16256 1.04448-10.19904 6.9632-77.43488-25.41568-105.61536-4.01408-3.50208-13.1072-10.30144-16.93696-22.58944a37.6832 37.6832 0 0 1-0.8192-3.15392z" fill="#4F2A25" p-id="5067"></path><path d="M511.6928 756.71552l-38.99392 38.99392-14.47936 14.49984-13.12768 13.1072-26.48064-27.60704-5.91872-6.20544-71.41376-74.50624 58.20416-41.69728 13.2096 9.80992 98.85696 73.5232z" fill="#FFFFFF" p-id="5068"></path><path d="M681.82016 714.99776l-71.08608 74.19904-6.2464 6.51264-26.46016 27.60704-27.62752-27.60704-38.85056-38.85056-0.12288-0.14336 0.12288-0.08192 99.18464-73.74848 12.88192-9.58464z" fill="#FFFFFF" p-id="5069"></path><path d="M564.96128 810.27072l-21.44256 31.6416h-66.62144l-18.67776-31.70304 14.47936-14.49984 38.85056-38.85056 38.85056 38.85056z" fill="#518EFD" p-id="5070"></path></svg>