<?xml version="1.0" encoding="UTF-8"?>
<svg width="16px" height="12px" viewBox="0 0 16 12" version="1.1" xmlns="http://www.w3.org/2000/svg" xmlns:xlink="http://www.w3.org/1999/xlink">
    <!-- Generator: Sketch 53.2 (72643) - https://sketchapp.com -->
    <title>Breadcrumber/_Resources/Icon/Non current page</title>
    <desc>Created with Sketch.</desc>
    <g id="页面-1" stroke="none" stroke-width="1" fill="none" fill-rule="evenodd">
        <g id="浅色1备份-7-copy-7" transform="translate(-260.000000, -145.000000)" fill="#000000" fill-rule="nonzero">
            <g id="Breadcrumber/Icon" transform="translate(260.000000, 141.000000)">
                <g id="Breadcrumber/_Resources/Icon/Non-current-page" transform="translate(0.000000, 4.000000)">
                    <path d="M7.04874414,1.20226037 C7.10222724,1.20302969 7.15332122,1.22465106 7.19124401,1.26256183 C7.22793172,1.30105514 7.24812869,1.35247792 7.24749395,1.4057778 L7.24749395,1.44346622 L4.39874574,10.2399418 C4.38347956,10.3208462 4.31863112,10.3829892 4.2374959,10.3944643 L0.198749808,10.3944643 C0.145266708,10.393695 0.0941727319,10.3720736 0.0562499455,10.3341628 C0.0204631794,10.2966093 0.000336195175,10.2467133 0,10.1947157 L0,10.1532585 L2.84874821,1.36055171 C2.86413462,1.28040096 2.92649808,1.21772411 3.00624806,1.20226037 L7.04874414,1.20226037 Z M15.9437355,1.26256183 C15.9804232,1.30105514 16.0006202,1.35247792 15.9999855,1.4057778 L15.9999855,1.44346622 L13.1512373,10.2399418 C13.1364438,10.3196925 13.0734227,10.3815222 12.9937374,10.3944643 L8.95124133,10.3944643 C8.89775824,10.393695 8.84666426,10.3720736 8.80874147,10.3341628 C8.77205376,10.2956695 8.75185679,10.2442468 8.75249153,10.1909469 L8.75249153,10.1532585 L11.6012397,1.36055171 C11.6171439,1.27929514 11.6812875,1.21632841 11.7624896,1.20226037 L15.8012357,1.20226037 C15.8547188,1.20302969 15.9058127,1.22465106 15.9437355,1.26256183 Z" id="Shape" fill-opacity="0.3"></path>
                    <path d="M10.4552809,0 C10.5146237,0.0029648722 10.5701763,0.0301998814 10.6090308,0.075376826 C10.6468077,0.121649853 10.6619466,0.182510002 10.6502807,0.241205843 L6.90267325,11.8379305 C6.88470365,11.931929 6.80291248,11.9999039 6.70767344,11.9999907 L5.5039246,11.9999907 C5.443727,12.0005853 5.38676431,11.972659 5.35017475,11.9246139 C5.31239785,11.8783408 5.2972589,11.8174807 5.30892479,11.7587849 L9.07153227,0.162060176 C9.08950187,0.0680616835 9.17129303,8.67941036e-05 9.26653208,0 L10.4552809,0 Z" id="Path" fill-opacity="0.5"></path>
                </g>
            </g>
        </g>
    </g>
</svg>