<?xml version="1.0" encoding="UTF-8"?>
<svg width="24px" height="24px" viewBox="0 0 24 24" version="1.1" xmlns="http://www.w3.org/2000/svg" xmlns:xlink="http://www.w3.org/1999/xlink">
    <defs></defs>
    <g id="Page-1" stroke="none" stroke-width="1">
                <path d="M3.04150002,2 L2,2 L2,22 L22,22 L22,2 L3.04150002,2 Z M3.52941176,0 L20.4705882,0 C22.4198824,0 24,1.58011765 24,3.52941176 L24,20.4705882 C24,22.4198824 22.4198824,24 20.4705882,24 L3.52941176,24 C1.58011765,24 0,22.4198824 0,20.4705882 L0,3.52941176 C0,1.58011765 1.58011765,0 3.52941176,0 Z M11,18.3382275 C11,18.7797621 10.7939723,19 10.3824111,19 L4.61758895,19 C4.20553361,19 4.00000003,18.7797621 4,18.3382275 L4,4.66177248 C4,4.22023786 4.20553361,4 4.61758895,4 L10.3814229,4 C10.7934783,4 10.9990118,4.2202379 10.9990118,4.66177248 L10.9990118,18.3382275 L11,18.3382275 Z M20,15.1818033 C20,15.7270496 19.7939723,16 19.382411,16 L13.6175889,16 C13.2055336,16 13,15.7270496 13,15.1818033 L13,4.81819668 C13,4.27229583 13.2055336,4 13.6175889,4 L19.3814229,4 C19.7934783,4 19.9990118,4.27229588 19.9990118,4.81819668 L19.9990118,15.1818033 L20,15.1818033 Z" id="Shape"></path>
    </g>
</svg>
