<?xml version="1.0" encoding="UTF-8"?>
<svg width="24px" height="24px" viewBox="0 0 24 24" version="1.1" xmlns="http://www.w3.org/2000/svg" xmlns:xlink="http://www.w3.org/1999/xlink">
    <defs></defs>
    <g id="Page-1" stroke="none" stroke-width="1">
                <path d="M2,2 L2,22 L22,22 L22,2 L2,2 Z M3.52941176,0 L20.4705882,0 C22.4198824,0 24,1.58011765 24,3.52941176 L24,20.4705882 C24,22.4198824 22.4198824,24 20.4705882,24 L3.52941176,24 C1.58011765,24 0,22.4198824 0,20.4705882 L0,3.52941176 C0,1.58011765 1.58011765,0 3.52941176,0 Z M4.5,4 C4.22385763,4 4,4.22385763 4,4.5 L4,6.5 C4,6.77614237 4.22385763,7 4.5,7 L19.5,7 C19.7761424,7 20,6.77614237 20,6.5 L20,4.5 C20,4.22385763 19.7761424,4 19.5,4 L4.5,4 Z M4.5,10 C4.22385763,10 4,10.2238576 4,10.5 L4,12.5 C4,12.7761424 4.22385763,13 4.5,13 L19.5,13 C19.7761424,13 20,12.7761424 20,12.5 L20,10.5 C20,10.2238576 19.7761424,10 19.5,10 L4.5,10 Z M4.5,16 C4.22385763,16 4,16.2238576 4,16.5 L4,18.5 C4,18.7761424 4.22385763,19 4.5,19 L19.5,19 C19.7761424,19 20,18.7761424 20,18.5 L20,16.5 C20,16.2238576 19.7761424,16 19.5,16 L4.5,16 Z" id="Shape"></path>
    </g>
</svg>
