<svg width="26" height="26" xmlns="http://www.w3.org/2000/svg"><defs><filter x="-4%" y="-8.2%" width="108.4%" height="116.4%" filterUnits="objectBoundingBox" id="a"><feOffset dy="2" in="SourceAlpha" result="shadowOffsetOuter1"/><feGaussianBlur stdDeviation="2" in="shadowOffsetOuter1" result="shadowBlurOuter1"/><feColorMatrix values="0 0 0 0 0 0 0 0 0 0 0 0 0 0 0 0 0 0 0.2 0" in="shadowBlurOuter1" result="shadowMatrixOuter1"/><feMerge><feMergeNode in="shadowMatrixOuter1"/><feMergeNode in="SourceGraphic"/></feMerge></filter></defs><g filter="url(#a)" transform="translate(-7 -9)" fill="#994ED6" fill-rule="evenodd"><path d="M13 11h14a2 2 0 0 1 2 2v14a2 2 0 0 1-2 2H13a2 2 0 0 1-2-2V13a2 2 0 0 1 2-2zm8.978 5.574L20 15.434l-1.978 1.14v2.286L20 20l1.978-1.14v-2.286zm-.608 1.979L20 19.33l-1.37-.777v-1.671l1.37-.778 1.37.778v1.67zM20 17.504l1.065-.547L20 16.409l-1.065.548 1.065.547zm-.304 3.027l-1.979-1.14-1.978 1.14v2.286l1.978 1.14 1.979-1.14V20.53zm-.609 1.978l-1.37.778-1.37-.778v-1.67l1.37-.778 1.37.777v1.671zm-1.37-1.048l1.066-.548-1.066-.548-1.065.548 1.065.548zm6.544-.93l-1.978-1.14-1.979 1.14v2.286l1.979 1.14 1.978-1.14V20.53zm-.609 1.978l-1.37.778-1.369-.778v-1.67l1.37-.778 1.37.777v1.671zm-1.37-1.048l1.066-.548-1.066-.548-1.065.548 1.065.548zM20 27a7 7 0 1 1 0-14 7 7 0 0 1 0 14zm0-.913a6.087 6.087 0 1 0 0-12.174 6.087 6.087 0 0 0 0 12.174z"/></g></svg>