<?xml version="1.0" encoding="UTF-8"?>
<svg width="116px" height="116px" viewBox="0 0 116 116" version="1.1" xmlns="http://www.w3.org/2000/svg" xmlns:xlink="http://www.w3.org/1999/xlink">
    <!-- Generator: Sketch 53.2 (72643) - https://sketchapp.com -->
    <title>business-link</title>
    <desc>Created with Sketch.</desc>
    <g id="Page-1" stroke="none" stroke-width="1">
        <g id="Artboard" transform="translate(-1154.000000, -1254.000000)">
            <g id="business-link" transform="translate(1154.000000, 1254.000000)">
                <path d="M69.9275182,79.2864537 C69.4921749,76.7101687 69.4921749,74.0790942 69.9275182,71.5028092 L38.6897685,57.8727311 C31.4555348,64.3612605 20.9441149,65.6533421 12.3539288,61.1099771 C3.76374275,56.5666121 -1.08464566,47.1507001 0.206532864,37.5188781 C1.49771139,27.887056 8.65481051,20.0806472 18.1382887,17.9603091 C27.6217668,15.839971 37.42174,19.8550781 42.691634,28.0199603 L56.1587811,23.5017345 C58.131572,22.811032 60.3233963,23.2353227 61.895954,24.6123296 C63.4685117,25.9893365 64.1785111,28.1060215 63.7544009,30.1528231 C63.3302907,32.1996247 61.8376855,33.8598803 59.8474571,34.4985973 L46.3513109,39.0284234 C46.5505548,42.082344 46.1526139,45.1458212 45.1797503,48.047475 L74.6775584,60.9177486 C80.8280645,53.2209589 91.1689155,50.2485192 100.467513,53.5045206 C109.766111,56.7605219 115.994082,65.5347079 115.999996,75.3872324 C116.005909,85.2397568 109.788476,94.0214134 100.493793,97.2885756 C91.1991107,100.555738 80.8546989,97.5957148 74.6949578,89.9063145 L46.3455111,100.033172 C45.6474868,108.474958 38.9720518,115.187503 30.5345684,115.932011 C22.0970849,116.676518 14.3494272,111.236641 12.1840379,103.047517 C10.0186487,94.8583938 14.0647751,86.2997274 21.7673943,82.7760915 C29.4700135,79.2524557 38.5907979,81.7877945 43.3702111,88.781108 L69.9275182,79.2922537 L69.9275182,79.2864537 Z M32.0779908,33.1297896 C29.3752817,29.1001812 22.4031402,27.7608297 17.548804,30.471204 C12.6944677,33.1815783 10.4458014,38.9552605 12.1882172,44.2350628 C13.9306329,49.5148651 19.1740758,52.8158418 24.6880405,52.1042484 C30.2020051,51.3926551 34.4356876,46.8686274 34.7806999,41.3194364 C34.7806999,39.8783783 34.7806999,37.159398 32.0779908,33.1297896 Z M87.0021441,34.8001991 C80.7855974,34.8007007 75.0410568,31.4843702 71.9326387,26.1005547 C68.8242206,20.7167391 68.8242206,14.08346 71.9326387,8.69964445 C75.0410568,3.31582889 80.7855974,-0.000501634996 87.0021441,0 C96.6110273,0.00077537456 104.400155,7.79083819 104.400155,17.4000996 C104.400155,27.0093609 96.6110273,34.7994237 87.0021441,34.8001991 L87.0021441,34.8001991 Z M87.0021441,23.2001327 C89.0744079,23.2004224 90.9893825,22.0950056 92.025598,20.3003502 C93.0618136,18.5056947 93.0618136,16.2945044 92.025598,14.4998489 C90.9893825,12.7051935 89.0744079,11.5997767 87.0021441,11.6000664 C83.7993168,11.600514 81.2031496,14.1971462 81.2031496,17.4000996 C81.2031496,20.6030529 83.7993168,23.1996851 87.0021441,23.2001327 L87.0021441,23.2001327 Z M92.801949,87.0004978 C99.2082367,87.0004978 104.401559,81.8069712 104.401559,75.4004315 C104.401559,68.9938917 99.2082367,63.8003651 92.801949,63.8003651 C86.3956613,63.8003651 81.202339,68.9938917 81.202339,75.4004315 C81.202339,81.8069712 86.3956613,87.0004978 92.801949,87.0004978 L92.801949,87.0004978 Z M29.0040942,104.400597 C31.076358,104.400887 32.9913327,103.29547 34.0275482,101.500815 C35.0637637,99.7061593 35.0637637,97.494969 34.0275482,95.7003135 C32.9913327,93.9056581 31.076358,92.8002413 29.0040942,92.800531 C25.8012669,92.8009786 23.2050998,95.3976108 23.2050998,98.6005641 C23.2050998,101.803517 25.8012669,104.40015 29.0040942,104.400597 L29.0040942,104.400597 Z" id="Shape"></path>
            </g>
        </g>
    </g>
</svg>
