<?xml version="1.0" encoding="UTF-8"?>
<svg width="79px" height="32px" viewBox="0 0 79 32" version="1.1" xmlns="http://www.w3.org/2000/svg" xmlns:xlink="http://www.w3.org/1999/xlink">
    <!-- Generator: Sketch 53.2 (72643) - https://sketchapp.com -->
    <title>返回主界面</title>
    <desc>Created with Sketch.</desc>
    <g id="Page-1" stroke="none" stroke-width="1" fill="none" fill-rule="evenodd">
        <g id="投产管理详情" transform="translate(-290.000000, -59.000000)">
            <g id="Calendar" transform="translate(178.000000, 50.000000)">
                <g id="Button-Copy" transform="translate(112.000000, 9.000000)">
                    <path d="M0.5,17.9940603 L0.5,30.0059397 C0.5,30.8301102 1.16890505,31.5 1.99233094,31.5 L77.0076691,31.5 C77.8342802,31.5 78.5,30.8300225 78.5,29.9982567 L78.5,2.00174332 C78.5,1.1675457 77.8339961,0.5 77.0076691,0.5 L1.99233094,0.5 C1.16528725,0.5 0.5,1.16697233 0.5,1.99406028 L0.5,14.0059397 C0.5,14.9178312 0.5,14.9178312 0.5,16.0020938 C0.5,17.0836091 0.5,17.0836091 0.5,17.9940603 Z" id="Rectangle-77-Copy-4" stroke="#D9D9D9" fill="#FFFFFF"></path>
                    <path d="M42.8241379,10.888 C44.9804598,10.7874286 47.4862069,10.5588571 48.916092,10.1657143 L49.9091954,11.1074286 C48.2862069,11.5508571 46.0425287,11.7748571 43.9965517,11.88 L43.9965517,13.1325714 L48.5022989,13.1325714 L48.7045977,13.096 L49.4448276,13.352 C49.1423138,14.6982442 48.5353945,15.9583003 47.6701149,17.0365714 C48.4103448,17.6582857 49.1,18.2662857 49.5735632,18.7371429 L48.6724138,19.5737143 C48.0994538,18.978822 47.502809,18.406937 46.883908,17.8594286 C46.0931034,18.6228571 45.1367816,19.1942857 44.1252874,19.5874286 C43.947519,19.2418487 43.723235,18.9219557 43.4586207,18.6365714 C44.391954,18.3074286 45.2747126,17.7817143 46.037931,17.1005714 C45.3850575,16.5428571 44.7091954,15.9851429 44.1206897,15.4868571 L44.9482759,14.8148571 C45.5137931,15.2582857 46.162069,15.7794286 46.8011494,16.3005714 C47.2977011,15.688 47.7068966,14.9794286 48.0149425,14.1931429 L43.9827586,14.1931429 C43.945977,15.8525714 43.6655172,17.9737143 42.516092,19.3954286 C42.2097091,19.1321478 41.8714601,18.907937 41.5091954,18.728 C42.6954023,17.2697143 42.8241379,15.1988571 42.8241379,13.6491429 L42.8241379,10.888 L42.8241379,10.888 Z M39.7804598,10.3942857 C40.3781609,10.9931429 41.1965517,11.8388571 41.5965517,12.3508571 L40.5988506,13.0594286 C40.0472893,12.34597 39.4595555,11.6608929 38.837931,11.0068571 L39.7804598,10.3942857 L39.7804598,10.3942857 Z M49.854023,21.224 C48.9482759,21.288 46.7873563,21.3611429 45.5137931,21.3611429 C43.9551724,21.3611429 42.8333333,21.224 41.9137931,20.7531429 C41.316092,20.4468571 40.8931034,20.0674286 40.5850575,20.0674286 C40.2034483,20.0674286 39.6655172,20.8308571 39.1551724,21.5394286 L38.3505747,20.4102857 C38.962069,19.7748571 39.5781609,19.3085714 40.0977011,19.1165714 L40.0977011,15.7291429 L38.5804598,15.7291429 L38.5804598,14.6228571 L41.2885057,14.6228571 L41.2885057,19.2445714 C41.5183908,19.3588571 41.7712644,19.5371429 42.1206897,19.7245714 C42.9896552,20.1725714 44.1344828,20.2457143 45.5551724,20.2457143 C46.9712644,20.2457143 48.9390805,20.1451429 50.2172414,19.976 C50.0468766,20.3762259 49.9249489,20.7951632 49.854023,21.224 L49.854023,21.224 Z M62.4057471,21.6582857 L61.1321839,21.6582857 L61.1321839,20.9725714 L52.9712644,20.9725714 L52.9712644,21.6582857 L51.7436782,21.6582857 L51.7436782,10.4857143 L62.4057471,10.4857143 L62.4057471,21.6582857 Z M55.6425287,14.4674286 L55.6425287,17.0548571 L58.3597701,17.0548571 L58.3597701,14.4674286 L55.6425287,14.4674286 Z M61.1321839,11.688 L52.9712644,11.688 L52.9712644,19.8662857 L61.1321839,19.8662857 L61.1321839,11.688 Z M59.545977,18.088 L54.516092,18.088 L54.516092,13.4251429 L59.545977,13.4251429 L59.545977,18.088 Z" id="Shape" fill="#595959" fill-rule="nonzero"></path>
                    <path d="M25.9866667,17.3083744 C25.9866667,16.0571429 25.5161905,14.8807882 24.6609524,13.9960591 C23.8361905,13.1428571 22.7371429,12.6541872 21.5695238,12.6246305 C21.5580952,12.6246305 21.5466667,12.6246305 21.5352381,12.6226601 L16.16,12.6226601 L17.6514286,11.079803 C17.887619,10.835468 17.887619,10.4374384 17.6514286,10.1931034 C17.4152381,9.94876847 17.032381,9.95073892 16.7942857,10.1931034 L14.1771429,12.9004926 C13.9409524,13.1448276 13.9409524,13.5428571 14.1771429,13.7871921 L16.792381,16.4926108 C17.0285714,16.7369458 17.4133333,16.7369458 17.6495238,16.4926108 C17.8838095,16.2502463 17.8838095,15.8522167 17.6495238,15.6059113 L16.0571429,13.9605911 L21.4590476,13.9605911 C23.2438095,13.9605911 24.6952381,15.462069 24.6952381,17.3083744 C24.6952381,19.1546798 23.2438095,20.6561576 21.4590476,20.6561576 L16.9542857,20.6561576 C16.5980952,20.6561576 16.3085714,20.955665 16.3085714,21.3241379 C16.3085714,21.6926108 16.5980952,21.9921182 16.9542857,21.9921182 L21.48,21.9921182 C22.68,21.9862069 23.8114286,21.4995074 24.6628571,20.6206897 C25.5161905,19.7359606 25.9866667,18.5596059 25.9866667,17.3083744 L25.9866667,17.3083744 Z" id="Path" fill="#595959" fill-rule="nonzero"></path>
                </g>
            </g>
        </g>
    </g>
</svg>