<svg class="icon" viewBox="0 0 1024 1024" xmlns="http://www.w3.org/2000/svg" width="200" height="200"><defs><style/></defs><path d="M332.33 530.07c-66.26-42.164-108.424-114.446-108.424-198.776 0-132.518 108.423-240.941 240.941-240.941s240.941 108.423 240.941 240.941-108.423 240.941-240.94 240.941c-198.777 0-361.413 162.636-361.413 361.412 0 18.07-12.047 30.118-30.117 30.118S43.2 951.718 43.2 933.647c0-186.73 120.47-343.341 289.13-403.576zM464.846 512c102.4 0 180.706-78.306 180.706-180.706s-78.306-180.706-180.706-180.706-180.706 78.306-180.706 180.706S362.447 512 464.847 512zm373.459 289.13c36.141-36.142 36.141-90.354 0-126.495-36.141-36.14-90.353-36.14-126.494 0-12.047 12.047-30.118 12.047-42.165 0-36.141-36.14-90.353-36.14-126.494 0-36.141 36.141-36.141 90.353 0 126.494L693.74 951.718l144.565-150.589zm42.165-168.66c60.235 60.236 60.235 156.612 0 210.824l-168.66 168.659c-12.046 12.047-30.117 12.047-42.164 0L500.988 843.294c-60.235-60.235-60.235-156.612 0-210.823 54.212-54.212 132.518-60.236 192.753-18.071 54.212-42.165 138.541-36.141 186.73 18.07zM43.2 0"/></svg>