<svg class="icon" viewBox="0 0 1024 1024" xmlns="http://www.w3.org/2000/svg" width="32" height="32"><path d="M369.6 896.1h-192v-768h448v127.7c0 35.3 28.7 64 64 64h128v128.3c.1 17.6 14.4 31.7 32 31.7s31.9-14.2 32-31.7V255.9h-.5c-1.1-6.2-4.1-12.2-8.9-17L706.6 73.2c-4.8-4.8-10.8-7.8-17-8.9v-.5h-64v.3h-448c-35.3 0-64 28.7-64 64v768c0 35.3 28.7 64 64 64h192c17.7 0 32-14.3 32-32s-14.3-32-32-32zm429.1-640.2H689.6V146.7l109.1 109.2z" fill="#1296db"/><path d="M908.8 640c-3.8-11.6-13.8-20-25.8-21.8l-145.1-21.1L673 465.7c-5.4-10.9-16.5-17.8-28.7-17.8s-23.3 6.9-28.7 17.8l-64.9 131.5-145.1 21.1c-12.1 1.8-22.1 10.2-25.8 21.8-3.8 11.6-.6 24.3 8.1 32.8l105 102.3-24.8 144.5c-2.1 12 2.9 24.1 12.7 31.3s22.9 8.1 33.7 2.4l129.8-68.2 129.8 68.2c4.7 2.5 9.8 3.7 14.9 3.7 6.6 0 13.2-2.1 18.8-6.1 9.9-7.2 14.8-19.3 12.7-31.3l-24.8-144.5 105-102.3c8.7-8.6 11.9-21.3 8.1-32.9zM739 741.1c-7.5 7.4-11 17.9-9.2 28.3l16.7 97.2-87.3-45.9c-4.7-2.5-9.8-3.7-14.9-3.7s-10.2 1.2-14.9 3.7l-87.3 45.9 16.7-97.2c1.8-10.4-1.7-21-9.2-28.3L479 672.3l97.6-14.2c10.4-1.5 19.4-8.1 24.1-17.5l43.6-88.4 43.6 88.4c4.7 9.4 13.7 16 24.1 17.5l97.6 14.2-70.6 68.8z" fill="#1296db"/></svg>