<svg class="icon" viewBox="0 0 1024 1024" xmlns="http://www.w3.org/2000/svg" width="32" height="32"><path d="M271.059 120.47h722.823q30.118 0 30.118 30.118t-30.118 30.118H271.06q-30.118 0-30.118-30.118 0-30.117 30.118-30.117zM255.036 542.118H90.353a30.118 30.118 0 0 1 0-60.236H586.33a30.118 30.118 0 1 1 0 60.236H375.507m437.67 0a30.118 30.118 0 1 1 0-60.236h177.935a30.118 30.118 0 0 1 0 60.236H813.176zM271.059 843.294h722.823q30.118 0 30.118 30.118 0 30.117-30.118 30.117H271.06q-30.118 0-30.118-30.117 0-30.118 30.118-30.118z" fill="#8a8a8a"/></svg>