<svg t="1601020857682" class="icon" viewBox="0 0 1639 1024" version="1.1" xmlns="http://www.w3.org/2000/svg" p-id="23859" width="200" height="200"><path d="M819.2512 870.4C1017.1904 870.4 1177.6512 709.9392 1177.6512 512 1177.6512 314.0608 1017.1904 153.6 819.2512 153.6 621.312 153.6 460.8512 314.0608 460.8512 512 460.8512 709.9392 621.312 870.4 819.2512 870.4L819.2512 870.4ZM819.2512 768C677.8368 768 563.2512 653.4144 563.2512 512 563.2512 370.5856 677.8368 256 819.2512 256 960.6144 256 1075.2512 370.5856 1075.2512 512 1075.2512 653.4144 960.6144 768 819.2512 768L819.2512 768ZM819.2512 102.4C977.2032 102.4 1145.1392 138.0864 1310.7712 285.2864 1370.8288 338.688 1426.5856 396.544 1476.7104 455.0656 1487.0528 467.1488 1500.4672 483.584 1510.2976 495.6672 1518.08 505.2416 1518.2848 518.7072 1510.5536 528.2816 1502.8224 537.856 1491.5584 551.5264 1476.7104 568.8832 1426.5856 627.4048 1370.8288 685.2608 1310.7712 738.6624 1145.1392 885.8624 977.2032 921.5488 819.2512 921.5488 661.2992 921.5488 493.3632 885.8624 327.7312 738.6624 267.6736 685.2608 211.9168 627.456 161.792 568.8832 156.416 562.5856 150.1696 555.1104 144.0256 547.6864 126.8224 526.7968 126.6688 496.9472 143.9232 476.16 149.1456 469.8624 155.0848 462.848 161.7408 455.0656 211.8656 396.544 267.6224 338.688 327.68 285.2864 493.3632 138.0864 661.2992 102.4 819.2512 102.4L819.2512 102.4ZM819.2512 0C631.0912 0 442.3168 46.4896 259.6864 208.7424 195.8912 265.4208 136.96 326.6048 83.968 388.4544 50.5344 427.4688 25.2928 459.8784 9.6768 481.5872L0 495.0016 0 511.5392 0 512.4608 0 528.9984 9.6768 542.4128C25.2928 564.1216 50.5344 596.48 83.968 635.5456 136.96 697.4464 195.8912 758.5792 259.6864 815.2576 442.3168 977.5616 631.04 1024 819.2512 1024 1007.4112 1024 1196.1856 977.5616 1378.816 815.2576 1442.6112 758.528 1501.5424 697.3952 1554.5344 635.5456 1587.968 596.5312 1613.2096 564.1216 1628.8256 542.4128L1638.5024 528.9984 1638.5024 512.4608 1638.5024 511.5392 1638.5024 495.0016 1628.8256 481.5872C1613.2096 459.9296 1587.968 427.52 1554.5344 388.4544 1501.5424 326.5536 1442.6624 265.4208 1378.816 208.7424 1196.1856 46.4896 1007.4112 0 819.2512 0L819.2512 0Z" p-id="23860"></path></svg>
