<?xml version="1.0" encoding="UTF-8"?>
<svg width="79px" height="79px" viewBox="0 0 79 79" version="1.1" xmlns="http://www.w3.org/2000/svg" xmlns:xlink="http://www.w3.org/1999/xlink">
    <!-- Generator: Sketch 53.2 (72643) - https://sketchapp.com -->
    <title>子工作项</title>
    <desc>Created with Sketch.</desc>
    <g id="Page-1" stroke="none" stroke-width="1" >
        <g id="Artboard" transform="translate(-2237.000000, -743.000000)" >
            <g id="子工作项" transform="translate(2237.000000, 743.000000)">
                <path d="M34.3136478,41.0823804 L3.55344784,26.3490107 C1.41173413,25.5135185 0,23.4382065 0,21.125 C0,18.8117935 1.41165734,16.7364815 3.55344784,15.9010667 L34.3136478,1.16761958 C37.2854228,-0.222539861 40.7145772,-0.222539861 43.6863522,1.16761958 L74.4465522,15.9010667 C76.5882659,16.7364815 78,18.8117935 78,21.125 C78,23.4382065 76.5883427,25.5135185 74.4465522,26.3489333 L43.6863522,41.0823804 C40.7145772,42.4725399 37.2854228,42.4725399 34.3136478,41.0823804 Z" id="Path"></path>
                <path d="M39.4860326,60.5703831 C37.2375519,60.5712502 35.0190043,60.0596815 33.0020071,59.0752499 L2.67791155,44.1511336 C1.19545447,43.5821631 0.16540873,42.2313974 0.0180964404,40.6631456 C-0.129215849,39.0948938 0.631555133,37.5790242 1.98258216,36.7488214 C3.33360919,35.9186186 5.04240462,35.9169458 6.39508513,36.7445017 L36.6911688,51.6685416 C38.4559492,52.5172153 40.516116,52.5172153 42.2808965,51.6685416 L72.6049149,36.7445017 C73.9575954,35.9169458 75.6663908,35.9186186 77.0174178,36.7488214 C78.3684449,37.5790242 79.1292158,39.0948938 78.9819036,40.6631456 C78.8345913,42.2313974 77.8045455,43.5821631 76.3220884,44.1511336 L45.9700582,59.0752499 C43.9535713,60.0610955 41.7346858,60.5727421 39.4860326,60.5703831 L39.4860326,60.5703831 Z M39.4860326,78.1248391 C37.2373795,78.1271981 35.018494,77.6155515 33.0020071,76.6297059 L2.67791155,61.7055896 C1.19545447,61.1366192 0.16540873,59.7858534 0.0180964404,58.2176016 C-0.129215849,56.6493498 0.631555133,55.1334802 1.98258216,54.3032774 C3.33360919,53.4730746 5.04240462,53.4714018 6.39508513,54.2989578 L36.6911688,69.223074 C38.4525119,70.0864342 40.5195533,70.0864342 42.2808965,69.223074 L72.6049149,54.2989578 C73.9575954,53.4714018 75.6663908,53.4730746 77.0174178,54.3032774 C78.3684449,55.1334802 79.1292158,56.6493498 78.9819036,58.2176016 C78.8345913,59.7858534 77.8045455,61.1366192 76.3220884,61.7055896 L45.9700582,76.6297823 C43.9535777,77.6156544 41.7346919,78.1273272 39.4860326,78.124992 L39.4860326,78.1248391 Z" id="Shape"></path>
            </g>
        </g>
    </g>
</svg>
