<svg width="112" height="113" xmlns="http://www.w3.org/2000/svg"><path d="M39.774 112.157H15.987C7.186 112.157.025 105 .025 96.2V16.366C.024 7.566 7.185.408 15.988.408h23.78a4 4 0 0 1 0 8h-23.78c-4.392 0-7.964 3.57-7.964 7.958V96.2c0 4.389 3.572 7.959 7.964 7.959h23.786a4 4 0 0 1 0 7.998zm56.031 0H72.02a4 4 0 0 1 0-8h23.786c4.392 0 7.964-3.57 7.964-7.958V16.366c0-4.389-3.572-7.958-7.964-7.958H72.025a4 4 0 0 1 0-8h23.78c8.802 0 15.964 7.158 15.964 15.958V96.2c.001 8.799-7.162 15.957-15.964 15.957z"/><path d="M23 19h47v9H23v-9zm0 29h57v9H23v-9zm0 28h43v9H23v-9zM23 28h38v9H23v-9zm0 29h66v9H23v-9zm0 28h33v9H23v-9z"/></svg>