<svg width="112" height="113" xmlns="http://www.w3.org/2000/svg"><path d="M39.774 112.157H15.987C7.186 112.157.025 105 .025 96.2V16.366C.024 7.566 7.185.408 15.988.408h23.78a4 4 0 0 1 0 8h-23.78c-4.392 0-7.964 3.57-7.964 7.958V96.2c0 4.389 3.572 7.959 7.964 7.959h23.786a4 4 0 0 1 0 7.998zm56.031 0H72.02a4 4 0 0 1 0-8h23.786c4.392 0 7.964-3.57 7.964-7.958V16.366c0-4.389-3.572-7.958-7.964-7.958H72.025a4 4 0 0 1 0-8h23.78c8.802 0 15.964 7.158 15.964 15.958V96.2c.001 8.799-7.162 15.957-15.964 15.957zM55.666 12.041a4 4 0 0 1-4-4v-4a4 4 0 0 1 8 0v4c0 2.21-1.79 4-4 4zm0 83.692a4 4 0 0 1-4-4v-8.696a4 4 0 0 1 8 0v8.695a4 4 0 0 1-4 4zm0-20.923a4 4 0 0 1-4-4v-8.695a4 4 0 0 1 8 0v8.695a4 4 0 0 1-4 4zm0-20.922a4 4 0 0 1-4-4v-8.695a4 4 0 0 1 8 0v8.695a4 4 0 0 1-4 4zm0-20.923a4 4 0 0 1-4-4V20.27a4 4 0 0 1 8 0v8.695a4 4 0 0 1-4 4zm0 78.995a4 4 0 0 1-4-4v-4a4 4 0 0 1 8 0v4a4 4 0 0 1-4 4z"/><path d="M27.131 70.381a3.999 3.999 0 0 1-2.829-6.827l7.914-7.914-7.395-7.395a3.999 3.999 0 0 1 0-5.656 3.999 3.999 0 0 1 5.656 0L40.7 52.81a3.999 3.999 0 0 1 0 5.657L29.957 69.21a3.977 3.977 0 0 1-2.826 1.171zm57.509 0a3.987 3.987 0 0 1-2.829-1.171L71.07 58.468a3.999 3.999 0 0 1 0-5.657L81.29 42.59a3.999 3.999 0 0 1 5.657 0 3.999 3.999 0 0 1 0 5.656l-7.395 7.395 7.913 7.914a3.999 3.999 0 0 1-2.826 6.827z"/></svg>