<svg width="26" height="26" xmlns="http://www.w3.org/2000/svg"><defs><filter x="-4%" y="-8.2%" width="108.4%" height="116.4%" filterUnits="objectBoundingBox" id="a"><feOffset dy="2" in="SourceAlpha" result="shadowOffsetOuter1"/><feGaussianBlur stdDeviation="2" in="shadowOffsetOuter1" result="shadowBlurOuter1"/><feColorMatrix values="0 0 0 0 0 0 0 0 0 0 0 0 0 0 0 0 0 0 0.2 0" in="shadowBlurOuter1" result="shadowMatrixOuter1"/><feMerge><feMergeNode in="shadowMatrixOuter1"/><feMergeNode in="SourceGraphic"/></feMerge></filter></defs><g filter="url(#a)" transform="translate(-7 -71)" fill="#4ED6B4" fill-rule="evenodd"><path d="M13 73h14a2 2 0 0 1 2 2v14a2 2 0 0 1-2 2H13a2 2 0 0 1-2-2V75a2 2 0 0 1 2-2zm10.169 11.851a.635.635 0 0 0 .817 0l2.845-2.504A.463.463 0 0 0 27 82a.463.463 0 0 0-.169-.347l-2.845-2.504a.635.635 0 0 0-.817 0 .467.467 0 0 0 0 .719l2.45 2.157-2.45 2.157c-.225.149-.225.47 0 .67zm-.236-8.047a.5.5 0 0 1 .183.683l-5.5 9.526a.5.5 0 0 1-.866-.5l5.5-9.526a.5.5 0 0 1 .683-.183zm-6.102 8.047a.635.635 0 0 1-.817 0l-2.845-2.504A.463.463 0 0 1 13 82c0-.124.056-.248.169-.347l2.845-2.504a.635.635 0 0 1 .817 0 .467.467 0 0 1 0 .719l-2.45 2.157 2.45 2.157c.225.149.225.47 0 .67z"/></g></svg>