<svg width="129" height="129" xmlns="http://www.w3.org/2000/svg"><g fill-rule="nonzero" fill="none"><path d="M103.619 2.822C93.372 1.028 78.907 0 63.939 0 49.103 0 35.382.966 25.306 2.717 9.426 5.477 5.644 9.29 2.832 25.382-.895 46.692-.95 82.554 2.71 103.694c2.75 15.88 6.563 19.66 22.663 22.479C35.646 127.97 50.141 129 65.14 129c14.802 0 28.496-.96 38.557-2.703 15.882-2.762 19.665-6.573 22.473-22.67 3.729-21.313 3.78-57.183.112-78.326-2.757-15.88-6.568-19.662-22.663-22.48z" fill="#E1F1FF"/><path d="M56.553 31H35.447C32.723 31 30 33.043 30 36.447v21.106C30 60.277 32.043 63 35.447 63h21.106C59.277 63 62 60.957 62 57.553V36.447C61.32 33.043 59.277 31 56.553 31z" fill="#2F54EB"/><path d="M56.644 67.72H35.465c-2.732 0-5.465 2.04-5.465 5.44v21.08c0 2.72 2.733 4.76 5.465 4.76h21.179c2.732 0 5.465-2.04 5.465-5.44v-20.4c-.683-3.4-2.733-5.44-5.465-5.44zM92.85 31H71.673c-2.732 0-4.782 2.04-4.782 5.44v21.08c0 2.72 2.05 5.44 5.465 5.44h21.179c2.732 0 5.465-2.04 5.465-5.44V36.44c-.683-3.4-3.416-5.44-6.149-5.44z" fill="#ADC6FF"/><g fill="#2F54EB"><path d="M68 83.604L71.606 80 83 91.396 79.394 95z"/><path d="M79.692 95L76 91.307 95.308 72 99 75.693z"/></g></g></svg>