<svg width="129" height="129" xmlns="http://www.w3.org/2000/svg"><defs><radialGradient cx="50%" cy="50%" fx="50%" fy="50%" r="61.308%" id="a"><stop stop-color="#FFF" offset="0%"/><stop stop-color="#FFF" offset="51.021%"/><stop stop-color="#E3E3E3" offset="100%"/></radialGradient></defs><g fill-rule="nonzero" fill="none"><path d="M103.619 2.822C93.372 1.028 78.907 0 63.939 0 49.103 0 35.382.966 25.306 2.717 9.426 5.477 5.644 9.29 2.832 25.382-.895 46.692-.95 82.554 2.71 103.694c2.75 15.88 6.563 19.66 22.663 22.479C35.646 127.97 50.141 129 65.14 129c14.802 0 28.496-.96 38.557-2.703 15.882-2.762 19.665-6.573 22.473-22.67 3.729-21.313 3.78-57.183.112-78.326-2.757-15.88-6.568-19.662-22.663-22.48z" fill="url(#a)"/><path fill="#F95F5D" d="M27 52h76v25H27z"/><path d="M102 52V32.559C102 30.145 99.846 28 97.287 28H31.713C29.154 28 27 30.145 27 32.559V52h75z" fill="#55C7F7"/><path d="M27 77v19.441c0 2.414 2.168 4.559 4.742 4.559h66.516c2.574 0 4.742-2.145 4.742-4.559V77H27z" fill="#7ECF3B"/><path fill="#FDAF42" d="M57 28h17v73H57z"/><path d="M74.01 59.3v10.54H55.99V59.3h18.02zM76.9 55H53.1c-.412 0-1.1.416-1.1 1.11v16.78c0 .417.413 1.11 1.1 1.11h23.8c.412 0 1.1-.416 1.1-1.11V56.11c-.275-.833-.688-1.11-1.1-1.11z" fill="#FFF"/></g></svg>