<?xml version="1.0" encoding="UTF-8"?>
<svg width="18px" height="18px" viewBox="0 0 18 18" version="1.1" xmlns="http://www.w3.org/2000/svg" xmlns:xlink="http://www.w3.org/1999/xlink">
    <title>组件 (1)</title>
    <g id="darshboard" stroke="none" stroke-width="1" fill="none" fill-rule="evenodd">
        <g id="Artboard-2" transform="translate(-2284.000000, -1003.000000)" fill="#000000" fill-rule="nonzero">
            <g id="组件-(1)" transform="translate(2284.000000, 1003.000000)">
                <path d="M1.12505154,15.1873711 C1.12505154,16.1193944 1.88060564,16.8749485 2.81262886,16.8749485 L11.1706368,16.8749485 C12.10266,16.8749485 12.8582141,16.1193944 12.8582141,15.1873711 L12.8582141,12.805637 C12.8582034,12.5838905 12.9884645,12.3828277 13.1908477,12.2922047 C13.393231,12.2015817 13.6299698,12.2383096 13.795382,12.3859928 C14.5365114,13.0484162 15.6688127,13.0061107 16.3584454,12.2902305 C17.0480781,11.5743503 17.0480781,10.441259 16.3584454,9.7253788 C15.6688127,9.00949861 14.5365114,8.96719308 13.795382,9.62961652 C13.630122,9.7771646 13.3936485,9.8139728 13.1913604,9.72363529 C12.9890724,9.63329777 12.8586461,9.43263996 12.8582141,9.21109735 L12.8582141,6.82936323 C12.8582141,5.89734001 12.10266,5.14178591 11.1706368,5.14178591 L8.78890265,5.14178591 C8.56715616,5.14179661 8.36609334,5.0115355 8.27547035,4.80915225 C8.18484736,4.60676901 8.22157527,4.37003016 8.36925843,4.20461799 C9.03168187,3.46348855 8.98937634,2.33118726 8.27349615,1.6415546 C7.55761595,0.95192194 6.42452462,0.95192194 5.70864443,1.6415546 C4.99276424,2.33118726 4.95045871,3.46348855 5.61288215,4.20461799 C5.76043023,4.36987802 5.79723843,4.60635154 5.70690092,4.80863958 C5.6165634,5.01092762 5.41590559,5.14135389 5.19436298,5.14178591 L2.81262886,5.14178591 C1.88060564,5.14178591 1.12505154,5.89734001 1.12505154,6.82936323 L1.12505154,8.22442714 C2.36175555,7.76109188 3.75586795,8.16895911 4.54782107,9.2258066 C5.33977419,10.2826541 5.33977419,11.7352053 4.54782107,12.7920528 C3.75586795,13.8489003 2.36175555,14.2567675 1.12505154,13.7934323 L1.12505154,15.1873711 Z M13.9832656,15.1873711 C13.9832656,15.9333267 13.6869359,16.6487299 13.1594657,17.1762001 C12.6319955,17.7036703 11.9165923,18 11.1706368,18 L2.81262886,18 C1.25925683,18 0,16.7407432 0,15.1873711 L0,12.805637 C0,12.5838905 0.130250418,12.3828277 0.332633663,12.2922047 C0.535016907,12.2015817 0.771755749,12.2383096 0.937167929,12.3859928 C1.67829736,13.0484162 2.81059865,13.0061107 3.50023131,12.2902305 C4.18986397,11.5743503 4.18986397,10.441259 3.50023131,9.7253788 C2.81059865,9.00949861 1.67829736,8.96719308 0.937167929,9.62961652 C0.772212434,9.77689894 0.536266353,9.81386972 0.334167039,9.72410172 C0.132067724,9.63433372 0.00131268804,9.43448249 0,9.21334746 L0,6.82936323 C0,5.2759912 1.25925683,4.01673437 2.81262886,4.01673437 L4.20769277,4.01673437 C3.74435751,2.78003036 4.15222474,1.38591796 5.20907223,0.59396484 C6.26591973,-0.19798828 7.71847095,-0.19798828 8.77531845,0.59396484 C9.83216595,1.38591796 10.2400332,2.78003036 9.77669791,4.01673437 L11.1706368,4.01673437 C11.9165923,4.01673437 12.6319955,4.31306406 13.1594657,4.84053429 C13.6869359,5.36800452 13.9832656,6.08340768 13.9832656,6.82936323 L13.9832656,8.22442714 C15.2199696,7.76109188 16.614082,8.16895911 17.4060352,9.2258066 C18.1979883,10.2826541 18.1979883,11.7352053 17.4060352,12.7920528 C16.614082,13.8489003 15.2199696,14.2567675 13.9832656,13.7934323 L13.9832656,15.1873711 Z" id="形状"></path>
            </g>
        </g>
    </g>
</svg>