<?xml version="1.0" encoding="UTF-8"?>
<svg width="22px" height="22px" viewBox="0 0 22 22" version="1.1" xmlns="http://www.w3.org/2000/svg" xmlns:xlink="http://www.w3.org/1999/xlink">
    <title>复制链接</title>
    <g id="darshboard" stroke="none" stroke-width="1" fill="none" fill-rule="evenodd">
        <g id="Artboard-2" transform="translate(-2614.000000, -704.000000)" fill="#FFFFFF" fill-rule="nonzero">
            <g id="复制链接" transform="translate(2614.000000, 704.000000)">
                <path d="M5.50000001,20.9 L18.7,20.9 C19.9595,20.9 20.9,19.9122 20.9,18.7 L20.9,5.50000001 C20.9,4.89248678 20.4075132,4.40000001 19.8,4.40000001 C19.4962434,4.40000001 19.25,4.15375662 19.25,3.85 C19.25,3.54624339 19.4962434,3.3 19.8,3.3 C20.3834763,3.3 20.9430549,3.53178504 21.3556349,3.94436508 C21.768215,4.35694511 22,4.91652373 22,5.50000001 L22,18.7 C22,20.7097 20.6294,22 18.7,22 L5.50000001,22 C4.91652373,22 4.35694511,21.768215 3.94436508,21.3556349 C3.53178504,20.9430549 3.29997238,20.3834763 3.29997238,19.8 C3.29803504,19.6035039 3.40104875,19.4208858 3.57023687,19.320936 C3.73942498,19.2209863 3.9490838,19.2188897 4.12023687,19.315436 C4.29138994,19.4119824 4.39803505,19.5925039 4.40000001,19.789 C4.40000001,20.4072 4.89280001,20.9 5.50000001,20.9 Z M16.621,0 C17.7694,0 18.7000003,0.930599999 18.7000003,2.07790002 L18.7000003,16.621 C18.7002918,17.1722839 18.4814997,17.7010886 18.0917862,18.0910083 C17.7020727,18.4809281 17.173384,18.7000003 16.6221,18.7000003 L2.079,18.7000003 C1.52771609,18.7002918 0.998911452,18.4814997 0.608991668,18.0917862 C0.219071883,17.7020727 0,17.173384 0,16.6221 L0,2.079 C0,0.930599999 0.930599999,0 2.07790002,0 L16.621,0 Z M16.5682,1.09999942 L2.1318,1.09999942 C1.5619526,1.09999942 1.10000001,1.5619526 1.10000001,2.1318 L1.10000001,16.5682 C1.10000001,17.138 1.56200001,17.5999994 2.1318,17.5999994 L16.5682,17.5999994 C17.138,17.5999994 17.6,17.138 17.6,16.5682 L17.6,2.1318 C17.6002923,1.85806012 17.491679,1.59544789 17.2981155,1.40188446 C17.1045521,1.20832103 16.8419399,1.09970771 16.5682,1.09999942 Z M8.68280061,7.39199999 C9.04516562,7.39217143 9.39255789,7.53680845 9.64826277,7.79397101 L10.2940051,8.44073684 C10.3797741,8.52615152 10.428,8.64229334 10.428,8.76343511 C10.428,8.88457688 10.3797741,9.0007187 10.2940051,9.08613338 C10.2086476,9.17206582 10.0926142,9.22037929 9.97158965,9.22037929 C9.85056512,9.22037929 9.73453172,9.17206582 9.6491742,9.08613338 L9.0038876,8.43936754 C8.91910259,8.35333809 8.80349176,8.30483707 8.68280154,8.30466561 C8.56211133,8.30449415 8.4463636,8.35266648 8.36133526,8.43845468 L5.13581367,11.6690888 C5.05061246,11.754492 5.00282829,11.8703326 5.00299926,11.9910635 C5.00317024,12.1117945 5.05128232,12.2274988 5.13672508,12.3126596 L6.42684258,13.6043655 C6.51176668,13.6903618 6.62748704,13.7387916 6.74825158,13.7388773 C6.86901613,13.738963 6.98480491,13.6906976 7.06985063,13.604822 L8.84256595,11.8292968 C8.92806119,11.7434493 9.04414759,11.6952024 9.16520925,11.6952024 C9.28627091,11.6952024 9.40235731,11.7434493 9.48785255,11.8292968 L9.48785255,11.8288404 C9.57366862,11.9144727 9.62183077,12.0308565 9.62165967,12.1521851 C9.62148857,12.2735137 9.57299837,12.3897606 9.48694112,12.4751498 L7.71422582,14.2506749 C7.45826135,14.5076837 7.11069157,14.6520856 6.74825204,14.652 C6.38581251,14.6519143 6.03831079,14.5073482 5.78246741,14.2502185 L4.49280561,12.9580561 C4.23643735,12.7017679 4.09225675,12.3539482 4.092,11.9911579 C4.09174393,11.6283676 4.23543274,11.2803438 4.49143848,11.0236923 L7.71696009,7.79305814 C7.97290719,7.53613742 8.32043561,7.39182887 8.68280061,7.39199999 Z M11.8637479,4.092 C12.2261875,4.09208567 12.5736892,4.23665181 12.8295326,4.4937815 L14.1191944,5.78594386 C14.3755626,6.04223211 14.5197432,6.3900518 14.52,6.7528421 C14.5202561,7.1156324 14.3765672,7.4636562 14.1205615,7.72030771 L10.8950399,10.9509418 C10.6390928,11.2078626 10.2915644,11.3521711 9.92919937,11.352 C9.56683437,11.3518286 9.21944209,11.2071915 8.96373721,10.950029 L8.31799488,10.3032632 C8.23222588,10.2178485 8.18399999,10.1017066 8.18399999,9.98056488 C8.18399999,9.85942311 8.23222588,9.74328129 8.31799488,9.6578666 C8.40335241,9.57193417 8.5193858,9.5236207 8.64041033,9.5236207 C8.76143486,9.5236207 8.87746826,9.57193417 8.96282578,9.6578666 L9.60811239,10.3046324 C9.6928974,10.3906619 9.80850822,10.4391629 9.92919844,10.4393344 C10.0498887,10.4395058 10.1656364,10.3913335 10.2506647,10.3055453 L13.4761863,7.07491119 C13.5613875,6.98950796 13.6091717,6.87366739 13.6090007,6.75293646 C13.6088297,6.63220552 13.5607177,6.51650119 13.4752749,6.43134039 L12.1851574,5.13963447 C12.1002333,5.05363814 11.9845129,5.0052084 11.8637484,5.00512268 C11.7429839,5.00503695 11.6271951,5.05330235 11.5421494,5.13917802 L9.76943404,6.91470314 C9.68393879,7.00055065 9.56785239,7.04879754 9.44679074,7.04879754 C9.32572908,7.04879754 9.20964268,7.00055065 9.12414743,6.91470314 L9.12414743,6.91515956 C9.03833136,6.82952724 8.99016922,6.71314352 8.99034031,6.59181493 C8.99051141,6.47048633 9.03900161,6.35423934 9.12505886,6.26885017 L10.8977742,4.49332507 C11.1537386,4.23631631 11.5013084,4.0919144 11.8637479,4.092 Z" id="形状"></path>
            </g>
        </g>
    </g>
</svg>