<?xml version="1.0" encoding="UTF-8"?>
<svg width="22px" height="22px" viewBox="0 0 22 22" version="1.1" xmlns="http://www.w3.org/2000/svg" xmlns:xlink="http://www.w3.org/1999/xlink">
    <title>复制使用</title>
    <g id="darshboard" stroke="none" stroke-width="1" fill="none" fill-rule="evenodd">
        <g id="Artboard-2" transform="translate(-2580.000000, -672.000000)" fill="#FFFFFF" fill-rule="nonzero">
            <g id="使用复制" transform="translate(2580.000000, 672.000000)">
                <path d="M5.50000001,20.9 L18.7,20.9 C19.9595,20.9 20.9,19.9122 20.9,18.7 L20.9,5.50000001 C20.9,4.89248678 20.4075132,4.40000001 19.8,4.40000001 C19.4962434,4.40000001 19.25,4.15375662 19.25,3.85 C19.25,3.54624339 19.4962434,3.3 19.8,3.3 C20.3834763,3.3 20.9430549,3.53178504 21.3556349,3.94436508 C21.768215,4.35694511 22,4.91652373 22,5.50000001 L22,18.7 C22,20.7097 20.6294,22 18.7,22 L5.50000001,22 C4.91652373,22 4.35694511,21.768215 3.94436508,21.3556349 C3.53178504,20.9430549 3.29997238,20.3834763 3.29997238,19.8 C3.29803504,19.6035039 3.40104875,19.4208858 3.57023687,19.320936 C3.73942498,19.2209863 3.9490838,19.2188897 4.12023687,19.315436 C4.29138994,19.4119824 4.39803505,19.5925039 4.40000001,19.789 C4.40000001,20.4072 4.89280001,20.9 5.50000001,20.9 Z M2.07790002,0 L16.621,0 C17.7694,0 18.7000003,0.930599999 18.7000003,2.07790002 L18.7000003,16.621 C18.7002918,17.1722839 18.4814997,17.7010886 18.0917862,18.0910083 C17.7020727,18.4809281 17.173384,18.7000003 16.6221,18.7000003 L2.079,18.7000003 C1.52771609,18.7002918 0.998911452,18.4814997 0.608991668,18.0917862 C0.219071883,17.7020727 0,17.173384 0,16.6221 L0,2.079 C0,0.930599999 0.930599999,0 2.07790002,0 Z M2.1318,1.09999942 C1.5619526,1.09999942 1.10000001,1.5619526 1.10000001,2.1318 L1.10000001,16.5682 C1.10000001,17.138 1.56200001,17.5999994 2.1318,17.5999994 L16.5682,17.5999994 C17.138,17.5999994 17.6,17.138 17.6,16.5682 L17.6,2.1318 C17.6002923,1.85806012 17.491679,1.59544789 17.2981155,1.40188446 C17.1045521,1.20832103 16.8419399,1.09970771 16.5682,1.09999942 L2.1318,1.09999942 Z M8.80000001,8.80000001 L8.80000001,4.95 C8.80000001,4.64624339 9.04624339,4.40000001 9.35,4.40000001 C9.65375661,4.40000001 9.90000001,4.64624339 9.90000001,4.95 L9.90000001,8.80000001 L13.75,8.80000001 C14.0537566,8.80000001 14.3,9.04624339 14.3,9.35 C14.3,9.65375661 14.0537566,9.90000001 13.75,9.90000001 L9.90000001,9.90000001 L9.90000001,13.75 C9.90000001,14.0537566 9.65375661,14.3 9.35,14.3 C9.04624339,14.3 8.80000001,14.0537566 8.80000001,13.75 L8.80000001,9.90000001 L4.95,9.90000001 C4.64624339,9.90000001 4.40000001,9.65375661 4.40000001,9.35 C4.40000001,9.04624339 4.64624339,8.80000001 4.95,8.80000001 L8.80000001,8.80000001 Z" id="形状"></path>
            </g>
        </g>
    </g>
</svg>