<?xml version="1.0" encoding="UTF-8"?>
<svg width="22px" height="22px" viewBox="0 0 22 22" version="1.1" xmlns="http://www.w3.org/2000/svg" xmlns:xlink="http://www.w3.org/1999/xlink">
    <title>复制名称</title>
    <g id="darshboard" stroke="none" stroke-width="1" fill="none" fill-rule="evenodd">
        <g id="Artboard-2" transform="translate(-2613.000000, -673.000000)" fill="#FFFFFF" fill-rule="nonzero">
            <g id="复制名称" transform="translate(2613.000000, 673.000000)">
                <path d="M5.50000001,20.9 L18.7,20.9 C19.9595,20.9 20.9,19.9122 20.9,18.7 L20.9,5.50000001 C20.9,4.89248678 20.4075132,4.40000001 19.8,4.40000001 C19.4962434,4.40000001 19.25,4.15375662 19.25,3.85 C19.25,3.54624339 19.4962434,3.3 19.8,3.3 C20.3834763,3.3 20.9430549,3.53178504 21.3556349,3.94436508 C21.768215,4.35694511 22,4.91652373 22,5.50000001 L22,18.7 C22,20.7097 20.6294,22 18.7,22 L5.50000001,22 C4.91652373,22 4.35694511,21.768215 3.94436508,21.3556349 C3.53178504,20.9430549 3.29997238,20.3834763 3.29997238,19.8 C3.29803504,19.6035039 3.40104875,19.4208858 3.57023687,19.320936 C3.73942498,19.2209863 3.9490838,19.2188897 4.12023687,19.315436 C4.29138994,19.4119824 4.39803505,19.5925039 4.40000001,19.789 C4.40000001,20.4072 4.89280001,20.9 5.50000001,20.9 Z M16.621,0 C17.7694,0 18.7000003,0.930599999 18.7000003,2.07790002 L18.7000003,16.621 C18.7002918,17.1722839 18.4814997,17.7010886 18.0917862,18.0910083 C17.7020727,18.4809281 17.173384,18.7000003 16.6221,18.7000003 L2.079,18.7000003 C1.52771609,18.7002918 0.998911452,18.4814997 0.608991668,18.0917862 C0.219071883,17.7020727 0,17.173384 0,16.6221 L0,2.079 C0,0.930599999 0.930599999,0 2.07790002,0 L16.621,0 Z M16.5682,1.09999942 L2.1318,1.09999942 C1.5619526,1.09999942 1.10000001,1.5619526 1.10000001,2.1318 L1.10000001,16.5682 C1.10000001,17.138 1.56200001,17.5999994 2.1318,17.5999994 L16.5682,17.5999994 C17.138,17.5999994 17.6,17.138 17.6,16.5682 L17.6,2.1318 C17.6002923,1.85806012 17.491679,1.59544789 17.2981155,1.40188446 C17.1045521,1.20832103 16.8419399,1.09970771 16.5682,1.09999942 Z M9.24007716,4.092 C12.156098,4.092 14.52,6.45590197 14.52,9.37192283 C14.52,11.5074523 13.2335881,13.4327037 11.2606161,14.2499355 C9.28764421,15.0671672 7.01665527,14.6154394 5.50660792,13.1053921 C3.99656057,11.5953447 3.54483279,9.32435578 4.36206452,7.35138384 C5.17929626,5.37841189 7.10454772,4.092 9.24007716,4.092 Z M9.24007716,5.02328851 C6.83777231,5.02328851 4.89031945,6.97074137 4.89031945,9.37304622 C4.89031945,11.704695 6.72490091,13.6078544 9.02932747,13.717788 L9.24007716,13.7228039 C11.6419434,13.7216806 13.5892145,11.7749123 13.5898349,9.37304622 C13.5898349,6.97074137 11.642382,5.02328851 9.24007716,5.02328851 Z M9.2456941,6.56570002 C9.37531504,6.5635259 9.50381765,6.58999361 9.62202902,6.64321378 C9.78304794,6.70462564 9.9227225,6.87725291 10.0410527,7.16109557 L11.4598915,11.078349 C11.4907841,11.1703234 11.5100316,11.2658061 11.5171843,11.3625661 C11.5081109,11.4423986 11.4812383,11.5191774 11.4385472,11.5872436 C11.3816288,11.7010803 11.2374607,11.7673602 11.0060428,11.7860833 C10.9035859,11.789734 10.8012881,11.775283 10.7038515,11.7433946 C10.5809808,11.6921008 10.4916954,11.583021 10.4656933,11.4524371 L10.267977,10.7694173 L8.25261926,10.7694173 L8.02794169,11.4501903 C8.00246174,11.5296649 7.9558664,11.6007228 7.89313515,11.6557703 C7.77794454,11.7453787 7.63448919,11.7908062 7.48871552,11.7838365 C7.32960591,11.7882649 7.17608822,11.7249797 7.06632169,11.6097114 C6.95323399,11.4913812 6.93226409,11.3142604 7.00341199,11.078349 L8.47954359,7.16109557 C8.51805389,7.05435111 8.57425979,6.95485148 8.645805,6.86676796 C8.76188841,6.69376623 8.96185145,6.59341025 9.2456941,6.56570002 Z M9.25018765,7.67223703 L8.56941462,9.77297228 L9.93208408,9.77297228 L9.25018765,7.67223703 Z" id="形状"></path>
            </g>
        </g>
    </g>
</svg>