<svg class="icon" width="200" height="200" viewBox="0 0 1024 1024" xmlns="http://www.w3.org/2000/svg"><path d="M969.574 710.441a221.976 221.976 0 0 0-118.261-119.65 218.249 218.249 0 0 0-86.978-17.322c-30.26 0-58.911 5.847-85.881 17.323a221.976 221.976 0 0 0-70.752 48.093 231.697 231.697 0 0 0-48.02 71.556c-11.768 27.263-17.689 56.572-17.689 87.928 0 31.356 5.848 60.665 17.688 87.928 11.768 27.19 27.775 51.09 48.02 71.556 20.174 20.465 43.855 36.4 70.753 48.02 26.97 11.622 55.621 17.396 85.881 17.396 31.064 0 60.007-5.847 86.978-17.395a221.83 221.83 0 0 0 118.26-119.577c11.476-27.263 17.177-56.572 17.177-87.928 0-31.429-5.701-60.665-17.176-87.928zm-62.64 113.437c-4.75 6.87-10.086 10.232-16.152 10.232H753.225c-6.066 0-11.475-3.362-16.08-10.232a41.808 41.808 0 0 1-7.09-24.486c0-2.704.585-6.797 1.974-12.279V674.7c0-5.482 2.558-10.233 7.601-14.326 5.044-4.093 12.645-6.14 22.658-6.14 10.233 0 18.054 2.047 23.828 6.14 5.701 4.093 8.552 8.844 8.552 14.326V764.6h96.114c6.066 0 11.402 3.436 16.08 10.233a41.808 41.808 0 0 1 7.09 24.558c0 9.502-2.34 17.688-7.017 24.486zm-431.672-26.532v-15.35c0-4.75.365-9.5 1.023-14.325H226.607a61.104 61.104 0 0 1-45.024-18.857 62.42 62.42 0 0 1-18.638-45.536c0-17.688 6.213-32.744 18.638-44.95a61.908 61.908 0 0 1 45.024-18.42h294.19c25.582-40.2 59.276-72.213 101.084-96.114a274.528 274.528 0 0 1 138.507-35.814h18.127c6.14 0 11.84.73 17.249 2.12V255.525H648.121c-18.2 0-33.987-4.02-47.509-12.28a106.055 106.055 0 0 1-33.33-31.648 139.457 139.457 0 0 1-19.222-41.442 158.826 158.826 0 0 1-6.067-42.393V0H74.433A38.373 38.373 0 0 0 36.57 38.3v884.25a38.373 38.373 0 0 0 37.861 38.373h450.385a319.699 319.699 0 0 1-36.4-76.745 282.642 282.642 0 0 1-13.155-86.832zM181.583 402.218a61.03 61.03 0 0 1 45.024-18.858h379.048a59.203 59.203 0 0 1 44.512 18.858c12.133 12.645 18.2 27.774 18.2 45.535a61.396 61.396 0 0 1-18.273 44.951 60.08 60.08 0 0 1-44.439 18.419H226.607a61.908 61.908 0 0 1-45.024-18.419 60.665 60.665 0 0 1-18.638-44.95c0-17.762 6.213-32.891 18.638-45.536zm500.89-212.11h113.291V38.3A38.373 38.373 0 0 0 757.757 0H606.678v113.437c0 19.661 7.383 39.25 22.22 54.233 14.837 14.984 34.206 22.439 53.575 22.439z"/></svg>