<?xml version="1.0" encoding="UTF-8"?>
<svg width="16px" height="16px" viewBox="0 0 16 16" version="1.1" xmlns="http://www.w3.org/2000/svg" xmlns:xlink="http://www.w3.org/1999/xlink">
    <title>日期</title>
    <g id="页面-1" stroke="none" stroke-width="1" fill="none" fill-rule="evenodd">
        <g id="画板备份-22" transform="translate(-478.000000, -385.000000)" fill="#2763F0" fill-rule="nonzero">
            <g id="编组-2" transform="translate(0.000000, -1.000000)">
                <g id="实体1备份-2" transform="translate(0.000000, 1.000000)">
                    <g transform="translate(441.750014, 251.000000)">
                        <g id="日历31" transform="translate(36.249986, 134.000000)">
                            <path d="M4.04045136,0 C4.16537345,0 4.26665566,0.0992800816 4.26665566,0.219959113 L4.26665566,0.219959113 L4.26665566,1.0666777 L11.733326,1.0666777 L11.733326,0.219959113 C11.733326,0.0984718896 11.8317611,0 11.9595303,0 L11.9595303,0 L12.5737626,0 C12.6987031,0 12.7999853,0.0992800816 12.7999853,0.219959113 L12.7999853,0.219959113 L12.7999853,1.0666777 L13.8670304,1.0666777 C15.0450193,1.06667768 16,2.02353194 16,3.19832482 L16,3.19832482 L16,13.8683345 C16,15.0456071 15.0470398,15.9999816 13.8670487,15.9999816 L13.8670487,15.9999816 L2.13295129,15.9999816 C0.954943972,15.9999816 0,15.0431274 0,13.8683345 L0,13.8683345 L0,3.19832482 C0,2.02105224 0.952960226,1.0666777 2.13295129,1.0666777 L2.13295129,1.0666777 L3.19999632,1.0666777 L3.19999632,0.219959113 C3.19999632,0.0984718896 3.29843147,0 3.42620062,0 L3.42620062,0 Z M14.9333039,5.33333333 L1.06665931,5.33333333 L1.06665931,13.8683529 C1.06665931,14.4549411 1.54494868,14.9333407 2.1329329,14.9333407 L2.1329329,14.9333407 L13.8670304,14.9333407 C14.4572188,14.9333407 14.9333039,14.4572187 14.9333039,13.8683529 L14.9333039,13.8683529 L14.9333039,5.33333333 Z M9.71428571,6.85714286 C10.0010266,6.89952774 10.2045202,6.90800471 10.6392564,6.90800471 L10.6392564,6.90800471 L11.4902295,6.90800471 C11.9619646,6.90800471 12.1007102,6.89952774 12.4336996,6.86561983 C12.3782014,7.36576142 12.359702,7.75570232 12.359702,8.26432088 L12.359702,8.26432088 L12.359702,12.5536708 C12.359702,13.0029505 12.3782014,13.3081216 12.4336996,13.6556777 L12.4336996,13.6556777 L11.0369938,13.6556777 C11.0924921,13.3250756 11.1109915,12.9944735 11.1109915,12.5536708 L11.1109915,12.5536708 L11.1109915,7.88285696 L10.6670056,7.88285696 C10.3247664,7.88285696 10.0565249,7.89981092 9.71428571,7.93371882 L9.71428571,7.93371882 Z M6.04424149,6.85714286 C7.42657343,6.85714286 8.32053663,7.54353339 8.32053663,8.60580446 C8.32053663,9.0960834 8.10532321,9.54550578 7.74939342,9.80698788 C7.56728981,9.94590025 7.3851862,10.0112708 6.94648213,10.1256692 C7.5341801,10.2155537 7.84044523,10.3544661 8.1301556,10.6731474 C8.40331101,10.9754861 8.52747253,11.3186813 8.52747253,11.800789 C8.52747253,12.24204 8.33709148,12.6914624 8.03082636,12.993801 C7.57556733,13.4268808 6.8802626,13.6556777 5.99457683,13.6556777 C5.02611678,13.6556777 4.36392177,13.4105382 3.89210789,12.8794027 C3.68517198,12.6506058 3.57756529,12.4381516 3.42857143,11.9642153 L3.42857143,11.9642153 L4.6122449,11.7354184 C4.71985156,12.111299 4.79434851,12.24204 5.00128441,12.4054663 C5.27443982,12.6179205 5.60553732,12.7241476 6.00285427,12.7241476 C6.82232051,12.7241476 7.34379906,12.3074105 7.34379906,11.6618766 C7.34379906,11.285996 7.1782503,10.9754861 6.8802626,10.8038884 C6.68160413,10.68949 6.29256454,10.6077768 5.92835732,10.6077768 C5.56415009,10.6077768 5.32410449,10.6159482 5.04267164,10.6486334 L5.04267164,10.6486334 L5.04267164,9.63539025 C5.30754963,9.66807552 5.48965324,9.67624683 5.84558303,9.67624683 C6.67332671,9.67624683 7.16169545,9.3003663 7.16169545,8.67117497 C7.16169545,8.10735418 6.77265594,7.78867286 6.06907378,7.78867286 C5.66347942,7.78867286 5.36549163,7.87855734 5.16683316,8.04198365 C5.00128441,8.19723866 4.91851002,8.33615104 4.8191808,8.67117497 L4.8191808,8.67117497 L3.63550736,8.4750634 C3.84244327,7.87038602 4.03282436,7.58438997 4.42186385,7.30656523 C4.84401317,7.00422654 5.38204648,6.85714286 6.04424149,6.85714286 Z M3.19997796,2.13333701 L2.1329329,2.13333701 C1.54274449,2.13333701 1.06665931,2.60945893 1.06665931,3.19832482 L1.06665931,3.19832482 L1.06665931,4.26667402 L14.9333039,4.26667402 L14.9333039,3.19832482 C14.9333039,2.61173659 14.4549778,2.13333701 13.8669936,2.13333701 L13.8669936,2.13333701 L12.7999486,2.13333701 L12.7999486,2.98005559 C12.7999486,3.1015428 12.7015134,3.20001469 12.5737259,3.20001469 L12.5737259,3.20001469 L11.9594935,3.20001469 C11.8345715,3.2000147 11.7332893,3.10073462 11.7332893,2.98005559 L11.7332893,2.98005559 L11.7332893,2.13333701 L4.26663728,2.13333701 L4.26663728,2.98005559 C4.26663728,3.1015428 4.16820213,3.20001469 4.04043298,3.20001469 L4.04043298,3.20001469 L3.42618226,3.20001469 C3.30126017,3.2000147 3.19997796,3.10073462 3.19997796,2.98005559 L3.19997796,2.98005559 L3.19997796,2.13333701 Z" id="形状结合"></path>
                        </g>
                    </g>
                </g>
            </g>
        </g>
    </g>
</svg>