<svg class="icon" viewBox="0 0 1024 1024" xmlns="http://www.w3.org/2000/svg" width="16" height="16"><defs><style/></defs><path d="M566.217 131.241l-14.272-14.095-7.733 7.865 9.191 3.933c-3.446 8.616-7.467 17.763-12.019 27.484l24.833-25.187zm22.712 33.052l4.375 9.147 7.733-7.865-14.273-14.052-24.744 25.054c9.765-4.242 18.735-8.307 26.91-12.284zm-31.814 17.233l-7.645 7.733 14.273 14.095 21.033-21.342c-7.777 3.668-15.51 7.114-23.198 10.252l-4.463-10.738zm-19.752-21.077l-12.151-5.126a411.321 411.321 0 0 0 12.107-23.419l-22.668 22.977 14.273 14.096 8.44-8.528zm0 0"/><path d="M600.33-17.713H-15.15l1059.47 1059.47v-615.48L600.33-17.713zm177.233 341.786l32.39 3.093c.397 26.512.353 46.175-.133 58.946l-36.19-3.05c1.415-14.625 2.696-34.288 3.933-58.989zm-390.17-87.27c13.565-5.39 27.705-12.283 42.42-20.679l9.279 19.133c-15.068 7.821-29.429 14.582-43.127 20.326l-8.572-18.78zm32.389 36.102c7.998-11.135 15.421-23.154 22.27-36.101l16.659 9.942a429.939 429.939 0 0 1-21.033 36.94l-17.896-10.781zm29.03 21.077c6.364-13.168 12.02-26.159 16.88-39.017l17.498 7.998c-5.126 14.67-10.207 27.882-15.333 39.547l-19.044-8.528zm130.131 97.609c-10.693 2.032-23.065 4.816-37.117 8.351-2.298-29.208 9.014-62.48 33.98-99.818-31.682 23.463-65.883 35.305-102.69 35.393a286.773 286.773 0 0 0 3.225-36.321c2.607.132 5.17.31 7.689.353a237.715 237.715 0 0 0 5.788-27.616l16.88 4.816a3175.492 3175.492 0 0 0-83.204-69.948l17.144-21.917 38.178 34.82 9.72-9.854-32.52-32.124 16.172-16.35 32.521 32.125 8.75-8.882-30.622-30.224 68.224-69.064 81.79 80.73-68.224 69.108-30.622-30.224-8.749 8.838 32.875 32.477-16.172 16.35-32.875-32.478-8.75 8.881 38.09 33.494a222.835 222.835 0 0 0-18.382 15.863L508.2 278.075a181.476 181.476 0 0 1-3.49 20.105c27.174-3.535 56.868-19.266 89.124-47.28l-18.647-18.382 22.491-22.8 19.84 19.574a3620.675 3620.675 0 0 0 46.043-45.954l22.977 22.668c-20.149 20.414-35.57 35.703-46.22 45.777l34.82 34.334-22.491 22.8-31.947-31.55c-30.533 40.52-44.452 78.565-41.757 114.224zm123.15-161.99a429.939 429.939 0 0 1-10.65 42.818l-28.059-9.147c5.789-15.598 10.473-30.003 14.052-43.17l24.656 9.5zm-56.825 234.014a32.787 32.787 0 0 0 22.226-9.986l57.399-58.15-17.764-17.542 22.315-22.624L770.36 395.7l-61.508 62.304 38.752 1.458a193.76 193.76 0 0 0-13.83 28.28c-31.153-.266-61.553 1.325-91.291 4.683l2.784-28.81zm219.211-2.342c-46.617 56.515-63.673 107.993-51.168 154.478-16.57 3.314-31.02 6.451-43.348 9.412-3.623-42.73 5.303-80.465 26.69-113.163a210.462 210.462 0 0 1-115.417 25.187c3.844-13.39 6.716-27.22 8.572-41.404 37.073 3.624 67.032-.707 89.92-13.035 22.845-12.284 56.03-40.828 99.51-85.501l25.937 25.584c-14.493 14.36-28.014 27.13-40.696 38.442zm0 0"/></svg>