<svg class="icon" viewBox="0 0 1024 1024" xmlns="http://www.w3.org/2000/svg" width="32" height="32"><path d="M619.764 491.959H401.115V382.635h218.649v109.324zm0 218.648H401.115V601.234h218.649v109.324zm328.07-437.297h-153.6a327.387 327.387 0 0 0-99.474-107.178l89.088-89.088L706.804 0 588.166 118.686a329.777 329.777 0 0 0-154.624 0L314.368 0l-77.044 77.044 88.6 89.088a329.29 329.29 0 0 0-98.986 107.178H73.143v109.325h114.249c-2.78 18.042-4.925 36.083-4.925 54.662v54.662H73.143v109.324h109.324v54.613c0 18.627 2.146 36.67 4.876 54.711h-114.2v109.324h153.6A327.68 327.68 0 0 0 510.44 983.918 327.924 327.924 0 0 0 794.136 819.93h153.6V710.607H833.634c2.73-18.042 4.876-36.084 4.876-54.662v-54.71h109.324V491.91H838.51v-54.613a361.813 361.813 0 0 0-4.876-54.662h114.2V273.31z" fill="#707070"/></svg>