<svg t="1590045681997" class="icon" viewBox="0 0 1024 1024" version="1.1" xmlns="http://www.w3.org/2000/svg" p-id="4139" width="32" height="32"><path d="M512 0C229.687652 0 0 229.709913 0 512.022261 0 794.334609 229.687652 1024 512 1024c282.312348 0 512-229.665391 512-511.977739C1024 229.709913 794.312348 0 512 0zM862.163478 790.639304c-1.469217-4.808348-3.717565-9.416348-7.524174-13.222957L825.878261 748.633043c-6.255304-6.233043-14.425043-9.349565-22.617043-9.349565-8.214261 0-16.384 3.116522-22.661565 9.349565-12.510609 12.510609-12.510609 32.768 0 45.256348l28.805565 28.761043c4.697043 4.741565 10.662957 7.078957 16.740174 8.236522-80.896 79.738435-191.844174 129.113043-314.145391 129.113043-122.034087 0-232.737391-49.174261-313.58887-128.578783 7.078957-0.734609 14.024348-3.33913 19.433739-8.770783l28.761043-28.761043c6.255304-6.255304 9.394087-14.425043 9.394087-22.639304s-3.138783-16.361739-9.394087-22.639304c-12.510609-12.510609-32.745739-12.510609-45.256348 0l-28.761043 28.783304c-4.719304 4.719304-7.056696 10.618435-8.236522 16.673391-56.32-69.275826-92.026435-155.692522-98.749217-250.056348L128 544.01113c17.67513 0 32.01113-14.313739 32.01113-32.01113 0-17.697391-14.313739-32.01113-32.01113-32.01113L65.602783 479.98887c7.078957-99.461565 46.569739-189.885217 108.210087-260.964174l27.536696 27.581217c6.255304 6.255304 14.447304 9.371826 22.639304 9.371826s16.361739-3.138783 22.617043-9.371826c12.510609-12.510609 12.510609-32.745739 0-45.256348L219.046957 173.81287c71.056696-61.618087 161.502609-101.10887 260.964174-108.165565l0 62.374957c0 17.67513 14.313739 31.98887 32.01113 31.98887s32.01113-14.291478 32.01113-31.98887L544.033391 65.647304c221.45113 15.760696 398.60313 192.912696 414.363826 414.386087L896 480.033391c-17.697391 0-32.01113 14.291478-32.01113 32.01113 0 17.67513 14.313739 32.01113 32.01113 32.01113l62.374957 0C951.785739 636.861217 916.947478 721.92 862.163478 790.639304zM711.390609 267.50887l-158.363826 190.063304c-12.510609-5.988174-26.312348-9.572174-41.026783-9.572174-52.958609 0-96.01113 43.074783-96.01113 96.01113 0 52.936348 43.052522 96.01113 96.01113 96.01113 52.936348 0 96.01113-43.074783 96.01113-96.01113 0-15.003826-3.739826-28.983652-9.883826-41.627826 0.75687-0.712348 1.78087-1.024 2.470957-1.869913l160.01113-192.022261c11.330783-13.57913 9.48313-33.769739-4.096-45.078261C742.867478 252.14887 722.69913 253.952 711.390609 267.50887zM544.01113 576l-64 0 0-63.977739 64 0L544.01113 576z" p-id="4140"></path></svg>