<?xml version="1.0" standalone="no"?><!DOCTYPE svg PUBLIC "-//W3C//DTD SVG 1.1//EN" "http://www.w3.org/Graphics/SVG/1.1/DTD/svg11.dtd"><svg t="1561374965903" class="icon" viewBox="0 0 1024 1024" version="1.1" xmlns="http://www.w3.org/2000/svg" p-id="10225" xmlns:xlink="http://www.w3.org/1999/xlink" width="200" height="200"><defs><style type="text/css"></style></defs><path d="M143.36 256H12.8C5.632 256 0 249.856 0 242.176v-143.36c0-7.68 5.632-13.824 12.8-13.824H143.36c7.168 0 12.8 6.144 12.8 13.824v143.872c0 7.168-5.632 13.312-12.8 13.312z m867.84 0H306.688c-7.168 0-12.8-6.144-12.8-13.824v-143.36c0-7.68 5.632-13.824 12.8-13.824h704c7.168 0 12.8 6.144 12.8 13.824v143.872c0 7.168-5.632 13.312-12.288 13.312zM143.36 597.504H12.8c-7.168 0-12.8-6.144-12.8-13.824V440.32c0-7.68 5.632-13.824 12.8-13.824H143.36c7.168 0 12.8 6.144 12.8 13.824v143.872c0 7.168-5.632 13.312-12.8 13.312z m867.84 0H306.688c-7.168 0-12.8-6.144-12.8-13.824V440.32c0-7.68 5.632-13.824 12.8-13.824h704c7.168 0 12.8 6.144 12.8 13.824v143.872c0 7.168-5.632 13.312-12.288 13.312zM143.36 938.496H12.8c-7.168 0-12.8-6.144-12.8-13.824v-143.872c0-7.68 5.632-13.824 12.8-13.824H143.36c7.168 0 12.8 6.144 12.8 13.824v143.872c0 7.68-5.632 13.824-12.8 13.824z m867.84 0H306.688c-7.168 0-12.8-6.144-12.8-13.824v-143.872c0-7.68 5.632-13.824 12.8-13.824h704c7.168 0 12.8 6.144 12.8 13.824v143.872c0 7.68-5.632 13.824-12.288 13.824z m0 0" p-id="10226"></path></svg>