<svg class="icon" viewBox="0 0 1024 1024" xmlns="http://www.w3.org/2000/svg" width="200" height="200"><defs><style/></defs><path d="M674.133 874.667h-512c-34.133 0-64-29.867-64-64V213.333c0-34.133 29.867-64 64-64h469.334c34.133 0 64 29.867 64 64V345.6c0 12.8-8.534 21.333-21.334 21.333S652.8 358.4 652.8 345.6V213.333c0-12.8-8.533-21.333-21.333-21.333H162.133c-12.8 0-21.333 8.533-21.333 21.333v597.334c0 12.8 8.533 21.333 21.333 21.333h512c12.8 0 21.334 8.533 21.334 21.333s-8.534 21.334-21.334 21.334z"/><path d="M226.133 298.667H524.8c12.8 0 21.333 8.533 21.333 21.333s-8.533 21.333-21.333 21.333H226.133c-12.8 0-21.333-8.533-21.333-21.333s8.533-21.333 21.333-21.333zm0 128H396.8c12.8 0 21.333 8.533 21.333 21.333s-8.533 21.333-21.333 21.333H226.133c-12.8 0-21.333-8.533-21.333-21.333s8.533-21.333 21.333-21.333zm0 128h213.334c12.8 0 21.333 8.533 21.333 21.333s-8.533 21.333-21.333 21.333H226.133c-12.8 0-21.333-8.533-21.333-21.333s8.533-21.333 21.333-21.333zm0 128h85.334c12.8 0 21.333 8.533 21.333 21.333s-8.533 21.333-21.333 21.333h-85.334c-12.8 0-21.333-8.533-21.333-21.333s8.533-21.333 21.333-21.333zm583.254 16.81l90.538 90.539c9.046 9.045 9.046 21.12 0 30.165-9.088 9.046-21.12 9.046-30.208 0l-90.453-90.496c-9.088-9.088-9.088-21.12 0-30.208 5.973-6.016 21.077-9.045 30.123 0z"/><path d="M670.635 765.867c-42.24 0-84.48-18.091-117.675-51.286s-51.285-75.434-48.299-120.661c0-48.299 18.134-90.539 48.299-120.704 63.36-63.36 178.005-63.36 241.365 0 33.152 33.195 48.256 78.464 48.256 120.704 0 48.256-18.09 90.453-48.256 120.661a173.525 173.525 0 0 1-123.733 51.286zM673.62 467.2c-36.181 0-66.346 12.075-90.496 36.181-24.149 24.15-39.253 57.344-36.224 90.539-2.986 33.152 12.075 66.347 36.224 90.453 51.286 51.328 129.707 51.328 181.035 0 24.107-24.106 39.21-57.301 36.181-90.453 0-36.224-12.074-66.39-36.181-90.539S703.787 467.2 673.621 467.2z"/></svg>