<svg width="32" height="34" xmlns="http://www.w3.org/2000/svg"><g fill="#258CE2" fill-rule="nonzero"><path d="M0 34h3.676c5.013 0 9.501-2.291 12.515-5.904C20.73 26.54 24 22.16 24 17c0-5.161-3.27-9.54-7.811-11.096C13.175 2.29 8.687 0 3.676 0H0v5.299h12.542c1.275 0 2.501.212 3.647.605a16.922 16.922 0 0 1 3.92 10.875v.442c0 4.149-1.475 7.946-3.918 10.875a11.23 11.23 0 0 1-3.649.605H0V34z"/><path d="M32 22.03C29.984 27.278 24.908 31 18.964 31 11.252 31 5 24.732 5 17S11.252 3 18.964 3C24.908 3 29.984 6.723 32 11.97 30.014 7.854 25.669 5 20.627 5 13.71 5 8.103 10.373 8.103 17s5.607 12 12.524 12c5.042 0 9.387-2.855 11.373-6.97z"/></g></svg>