<?xml version="1.0" standalone="no"?><!DOCTYPE svg PUBLIC "-//W3C//DTD SVG 1.1//EN" "http://www.w3.org/Graphics/SVG/1.1/DTD/svg11.dtd"><svg t="1554183640119" class="icon" style="" viewBox="0 0 1024 1024" version="1.1" xmlns="http://www.w3.org/2000/svg" p-id="1413" xmlns:xlink="http://www.w3.org/1999/xlink" width="200" height="200"><defs><style type="text/css"></style></defs><path d="M448 561.4464V424.2752C373.4272 397.92 320 326.8032 320 243.2 320 137.1584 405.9584 51.2 512 51.2c106.0416 0 192 85.9584 192 192 0 83.5968-53.4272 154.72-128 181.0752v137.1712l138.7328 80.1024c59.7824-46.0736 143.8336-54.272 213.248-14.1952 91.8208 53.0048 123.2768 170.4128 70.272 262.2272-53.0112 91.8208-170.4192 123.2768-262.2336 70.272-75.2832-43.4688-109.9904-130.2144-90.8352-210.656L512 672.3008l-133.184 76.896c19.1552 80.448-15.552 167.1872-90.8352 210.6496-91.8144 53.0112-209.216 21.5552-262.2272-70.2656-53.0112-91.8144-21.5552-209.216 70.2656-262.2272 69.4144-40.0832 153.4656-31.872 213.248 14.1952L448 561.4464zM512 307.2c35.3472 0 64-28.6528 64-64s-28.6528-64-64-64-64 28.6528-64 64 28.6528 64 64 64z m-320 550.4c35.3472 0 64-28.6528 64-64s-28.6528-64-64-64-64 28.6528-64 64 28.6528 64 64 64z m646.4 0c35.3472 0 64-28.6528 64-64s-28.6528-64-64-64-64 28.6528-64 64 28.6528 64 64 64z" p-id="1414" fill="#2c2c2c"></path></svg>