<!-- Generated by IcoMoon.io -->
<svg version="1.1" xmlns="http://www.w3.org/2000/svg" width="1024" height="1024" viewBox="0 0 1024 1024">
<title></title>
<g id="icomoon-ignore">
</g>
<path d="M191 926.8c-11 0-20-9-20-20v-619.2c0-11 9-20 20-20s20 9 20 20v619.2c0 11-8.9 20-20 20zM509 628.1c-11 0-20-9-20-20v-320.5c0-11 9-20 20-20s20 9 20 20v320.5c0 11-8.9 20-20 20zM827.1 786.9c-11 0-20-9-20-20v-479.3c0-11 9-20 20-20s20 9 20 20v479.4c0 11-9 19.9-20 19.9zM964 160.3h-909.9c-11 0-20-9-20-20s9-20 20-20h909.9c11 0 20 9 20 20s-9 20-20 20z"></path>
</svg>
