<svg t="1592275290390" class="icon" viewBox="0 0 1024 1024" version="1.1" xmlns="http://www.w3.org/2000/svg" p-id="6150" width="32" height="32"><path d="M900.7 336.404a15.365 15.365 0 0 1 0 21.725L522.86 613.084a15.36 15.36 0 0 1-21.725 0L123.305 358.13a15.36 15.36 0 0 1 0-21.725L501.14 96.81a15.36 15.36 0 0 1 21.725 0.005L900.7 336.404z" fill="#BAD4FF" p-id="6151"></path><path d="M512 641.807a39.286 39.286 0 0 1-25.907-9.656L107.827 376.904l-1.648-1.649c-15.427-15.427-15.427-40.53-0.006-55.967l1.9-1.9L486.426 77.467c7.142-6.062 16.107-9.365 25.58-9.365s18.441 3.308 25.584 9.375l378.358 239.918 1.899 1.9c15.416 15.446 15.406 40.55-0.026 55.971l-1.638 1.639-1.93 1.3-376.336 253.942A39.29 39.29 0 0 1 512 641.807zM150.932 347.561L512 591.201l361.073-243.64-361.078-228.956L150.932 347.56z" fill="#4E8CEE" p-id="6152"></path><path d="M512 804.362a24.187 24.187 0 0 1-13.63-4.198L82.192 516.823a24.218 24.218 0 0 1 27.26-40.033L512 750.843l402.55-274.058a24.218 24.218 0 0 1 27.259 40.033l-416.18 283.34A24.192 24.192 0 0 1 512 804.363z" fill="#4E8CEE" p-id="6153"></path><path d="M512 955.899a24.187 24.187 0 0 1-13.63-4.199L82.192 668.36a24.218 24.218 0 0 1 27.26-40.039L512 902.385 914.55 628.32a24.223 24.223 0 0 1 27.259 40.039L525.629 951.7A24.187 24.187 0 0 1 512 955.9z" fill="#4E8CEE" p-id="6154"></path></svg>