<svg t="1592274466302" class="icon" viewBox="0 0 1024 1024" version="1.1" xmlns="http://www.w3.org/2000/svg" p-id="2834" width="32" height="32"><path d="M105.931034 0h812.137932v1024H105.931034V0z" fill="#F1AF74" p-id="2835"></path><path d="M739.857655 247.172414H284.16c-1.076966 1.182897-2.100966 0.759172-2.860138 0L112.816552 6.885517A4.025379 4.025379 0 0 1 115.659034 0h792.681932c3.584 0 5.384828 4.343172 2.842482 6.885517L742.700138 247.172414c-0.759172 0.759172-1.783172 1.182897-2.842483 0M739.857655 882.758621H284.16c-1.076966-1.182897-2.100966-0.759172-2.860138 0L112.816552 1017.114483a4.025379 4.025379 0 0 0 2.842482 6.885517h792.681932a4.025379 4.025379 0 0 0 2.842482-6.885517L742.700138 882.758621c-0.759172-0.759172-1.783172-1.182897-2.842483 0" fill="#FEDAAC" p-id="2836"></path><path d="M582.62069 194.206897a70.62069 70.62069 0 1 1-141.24138 0 70.62069 70.62069 0 0 1 141.24138 0M582.62069 512a70.62069 70.62069 0 1 1-141.24138 0 70.62069 70.62069 0 0 1 141.24138 0" fill="#D73B37" p-id="2837"></path><path d="M547.310345 194.206897a35.310345 35.310345 0 1 1-70.603035 0.017655A35.310345 35.310345 0 0 1 547.310345 194.206897M547.310345 512a35.310345 35.310345 0 1 1-70.603035 0.017655A35.310345 35.310345 0 0 1 547.310345 512" fill="#D9ECFF" p-id="2838"></path></svg>