<?xml version="1.0" encoding="UTF-8"?>
<svg width="112px" height="112px" viewBox="0 0 112 112" version="1.1" xmlns="http://www.w3.org/2000/svg" xmlns:xlink="http://www.w3.org/1999/xlink">
    <!-- Generator: Sketch 53.2 (72643) - https://sketchapp.com -->
    <title>domain</title>
    <desc>Created with Sketch.</desc>
    <g id="Page-1" stroke="none" stroke-width="1">
        <g id="Artboard" transform="translate(-1150.000000, -659.000000)">
            <g id="domain" transform="translate(1150.000000, 659.000000)">
                <path d="M56,104.5 C82.78575,104.5 104.5,82.78575 104.5,56 C104.5,29.21425 82.78575,7.5 56,7.5 C29.21425,7.5 7.5,29.21425 7.5,56 C7.5,82.78575 29.21425,104.5 56,104.5 Z M56,112 C25.072,112 0,86.928 0,56 C0,25.072 25.072,0 56,0 C86.928,0 112,25.072 112,56 C112,86.928 86.928,112 56,112 Z" id="Shape"></path>
                <path d="M56.035,104.5 C61.32625,104.5 66.958,100.22875 71.5695,91.94875 C76.725,82.6915 79.75,69.837 79.75,56 C79.75,42.163 76.725,29.3085 71.5695,20.05125 C66.958,11.77125 61.32625,7.5 56.034875,7.5 C50.73775,7.5 45.0875,11.777875 40.460625,20.059875 C35.286875,29.320875 32.25,42.17325 32.25,56 C32.25,69.82675 35.286875,82.679125 40.460625,91.940125 C45.0875,100.222125 50.73775,104.5 56.035,104.5 Z M56.035,112 C38.756625,112 24.75,86.928 24.75,56 C24.75,25.072 38.75675,0 56.035,0 C73.313,0 87.25,25.072 87.25,56 C87.25,86.928 73.313125,112 56.035,112 Z" id="Shape"></path>
                <path d="M7.5,55.965 C7.5,50.67375 11.77125,45.042 20.05125,40.4305 C29.3085,35.275 42.163,32.25 56,32.25 C69.837,32.25 82.6915,35.275 91.94875,40.4305 C100.22875,45.042 104.5,50.67375 104.5,55.965125 C104.5,61.26225 100.222125,66.9125 91.940125,71.539375 C82.679125,76.713125 69.82675,79.75 56,79.75 C42.17325,79.75 29.320875,76.713125 20.059875,71.539375 C11.777875,66.9125 7.5,61.26225 7.5,55.965 Z M0,55.965 C0,73.243375 25.072,87.25 56,87.25 C86.928,87.25 112,73.24325 112,55.965 C112,38.687 86.928,24.75 56,24.75 C25.072,24.75 0,38.686875 0,55.965 Z" id="Shape"></path>
                <polygon id="Path" points="37.375 42.625 43.325 42.625 48.35 61.9875 48.5 61.9875 53.7875 42.625 58.325 42.625 63.6125 61.9875 63.7625 61.9875 68.7875 42.625 73.7375 42.625 67.0125 69.4 60.3625 69.4 56.15 54.2625 56 54.2625 51.75 69.4 45.0625 69.4"></polygon>
            </g>
        </g>
    </g>
</svg>
