<svg width="35" height="35" xmlns="http://www.w3.org/2000/svg"><path d="M34.061 19.491c0 .376-.134.7-.404.976-.269.274-.588.412-.956.412h-4.76c0 2.472-.474 4.568-1.424 6.288l4.42 4.532c.27.275.404.6.404.976 0 .375-.135.7-.404.975a1.25 1.25 0 0 1-.956.413 1.25 1.25 0 0 1-.956-.413l-4.208-4.271c-.1.1-.207.193-.318.282-.142.115-.439.32-.892.617-.445.291-.906.555-1.382.791-.468.231-1.048.44-1.742.629a7.867 7.867 0 0 1-2.062.282V12.55h-2.72v19.43a8.153 8.153 0 0 1-2.157-.294c-.715-.195-1.331-.433-1.848-.715-.48-.26-.948-.543-1.402-.846-.418-.28-.727-.516-.925-.704l-.318-.304-3.888 4.488a1.349 1.349 0 0 1-1.02.455c-.34 0-.645-.116-.914-.347a1.399 1.399 0 0 1-.436-.965c-.02-.383.09-.719.33-1.009l4.292-4.922c-.822-1.648-1.232-3.628-1.232-5.941h-4.76c-.369 0-.687-.138-.957-.412-.269-.275-.404-.6-.404-.976 0-.375.135-.7.404-.975.27-.275.589-.412.956-.412h4.76v-6.376L2.507 7.974c-.269-.275-.403-.6-.403-.976 0-.375.134-.7.403-.975.27-.275.588-.412.957-.412.368 0 .686.137.956.412l3.676 3.751H26.03l3.677-3.751c.269-.275.588-.412.956-.412s.686.137.956.412c.269.275.404.6.404.975 0 .376-.135.701-.404.976l-3.677 3.751v6.376h4.76c.369 0 .687.137.957.412.269.274.404.6.404.975l-.002.003zm-10.2-12.49h-13.6c0-1.922.663-3.56 1.987-4.911C13.573.738 15.177.063 17.061.063s3.489.675 4.813 2.027C23.2 3.442 23.861 5.079 23.861 7z" fill="#FEFEFE" fill-rule="nonzero"/></svg>