<svg width="36" height="36" xmlns="http://www.w3.org/2000/svg"><g fill="#FEFEFE" fill-rule="nonzero"><path d="M22.971 13.063a7.01 7.01 0 0 0-7.638-1.533A7 7 0 0 0 11 18a7 7 0 0 0 4.333 6.47 7.01 7.01 0 0 0 7.638-1.533 7.022 7.022 0 0 0 0-9.874z"/><path d="M34.264 31.737l-2.269-2.276.492-.63a18.111 18.111 0 0 0 0-21.439l-.492-.657 2.16-2.139a1.943 1.943 0 0 0-.867-3.243 1.928 1.928 0 0 0-1.866.502L29.29 3.993l-.629-.466a17.992 17.992 0 0 0-21.399 0l-.656.493L4.42 1.827a1.928 1.928 0 0 0-2.733 0 1.943 1.943 0 0 0 0 2.742l2.241 2.248-.492.658a18.14 18.14 0 0 0 0 21.246l.465.63-2.323 2.358a1.943 1.943 0 0 0 .866 3.243 1.928 1.928 0 0 0 1.867-.501l2.35-2.358.656.493a17.965 17.965 0 0 0 21.071 0l.656-.466 2.268 2.276a1.928 1.928 0 0 0 2.733 0 1.943 1.943 0 0 0 0-2.742l.219.083zm-9.112-4.59l1.968 1.973-.998.639a14.42 14.42 0 0 1-15.442 0l-1.026-.639 1.913-1.917a1.967 1.967 0 0 0 0-2.777 1.958 1.958 0 0 0-2.772 0l-1.913 1.916-.638-1a14.551 14.551 0 0 1 0-15.527l.638-1 1.996 2a1.958 1.958 0 0 0 2.772 0 1.967 1.967 0 0 0 0-2.778L9.6 5.982l.97-.64a14.449 14.449 0 0 1 15.775 0l.97.64-2.162 2.222a1.967 1.967 0 0 0 0 2.778 1.958 1.958 0 0 0 2.772 0l2.107-2.112.638 1a14.467 14.467 0 0 1 0 15.75l-.638.972-2.3-2a1.884 1.884 0 0 0-2.773 0 1.864 1.864 0 0 0 .194 2.556z"/></g></svg>