<svg width="34" height="38" xmlns="http://www.w3.org/2000/svg"><g fill="#FEFEFE" fill-rule="nonzero"><path d="M17 0C7.58 0 0 7.738 0 17.352c0 7.034 4.135 13.6 10.797 16.179.23 0 .23.235.46.235.459 0 1.148-.47 1.148-1.173 0-.469-.46-.938-.919-1.172C3.446 28.372 0 19.462 2.986 11.724 5.973 3.986 14.932.234 22.743 3.517c7.81 3.283 11.256 12.193 8.04 19.931-1.608 3.752-4.594 6.8-8.27 8.442-.46 0-.919.469-.919 1.172 0 .469.46.938 1.149.938h.23c8.729-3.283 13.323-13.366 9.878-22.51C30.553 4.455 24.12 0 17 0z"/><path d="M9 17.286c0 4.603 3.556 8.285 8 8.285s8-3.682 8-8.285S21.444 9 17 9s-8 3.683-8 8.286zm8.667 11.047c-.223-.23-.445-.46-.89-.46-.444 0-.666.23-.888.69l-3.556 7.366c0 .23-.222.23-.222.46v.46c0 .69.445 1.151.889 1.151h7.111c.667 0 .889-.46.889-1.15 0-.231 0-.461-.222-.691l-3.111-7.826z"/></g></svg>