<svg width="26" height="31" xmlns="http://www.w3.org/2000/svg"><g fill="#FFBC21" fill-rule="nonzero"><path d="M25.994 4.508l-1.287-.021c-.03 0-2.915-.061-5.893-1.264C15.761 1.99 13.791.573 13.774.56L12.994 0l-.772.559c-.018.014-1.987 1.43-5.04 2.664-2.978 1.203-5.863 1.264-5.89 1.264L0 4.507V17.54C0 24.082 8.453 31 12.999 31 17.547 31 26 24.082 26 17.54l-.006-13.032zM23.372 17.54c0 5.058-7.363 10.849-10.373 10.849-3.012 0-10.374-5.791-10.374-10.849V7.006C3.91 6.868 6 6.52 8.17 5.643a30.553 30.553 0 0 0 4.827-2.459c.919.582 2.607 1.56 4.83 2.46 2.169.875 4.258 1.224 5.544 1.362V17.54z"/><path d="M16.919 8.03L11.001 8 8 18.762l4.082-.206L10.414 26 19 13.77l-4.831.637z"/></g></svg>