<svg width="23" height="23" xmlns="http://www.w3.org/2000/svg"><g fill="#29D7E5" fill-rule="nonzero"><path d="M.875 11.875c0 6.075 4.925 11 11 11s11-4.925 11-11-4.925-11-11-11-11 4.925-11 11m1.61 0a9.39 9.39 0 1 1 18.781 0 9.39 9.39 0 0 1-18.781 0"/><path d="M11.325 3.875h1.1c.248 0 .45.142.45.302v9.408c0 .16-.202.29-.45.29h-1.1c-.248 0-.45-.13-.45-.29v-9.42c0-.16.202-.29.45-.29"/><path d="M19.875 11.325v1.1c0 .248-.142.45-.302.45h-9.408c-.16 0-.29-.202-.29-.45v-1.1c0-.248.13-.45.29-.45h9.42c.16 0 .29.202.29.45"/></g></svg>