<svg width="26" height="30" xmlns="http://www.w3.org/2000/svg"><path d="M26 28.637C26 29.39 25.416 30 24.695 30c-.72 0-1.304-.61-1.304-1.363v-.016h-.031c-.635-5.327-4.89-9.38-10.027-9.55-.108.009-.217.025-.333.025-.116 0-.217-.016-.325-.024-5.138.168-9.39 4.222-10.02 9.55h-.038l.008.015C2.625 29.39 2.04 30 1.32 30 .6 30 .015 29.39.015 28.637L0 28.508c.003-.158.035-.315.093-.46.635-4.711 3.575-8.735 7.758-10.618-3.311-2.36-4.763-6.7-3.58-10.7C5.452 2.729 8.993 0 13.003 0c4.01 0 7.55 2.729 8.733 6.73 1.183 4-.269 8.34-3.58 10.7 4.294 1.927 7.271 6.108 7.804 10.957.012.04.02.08.024.121l.015.13zM19.527 9.554c0-3.765-2.922-6.817-6.527-6.817S6.473 5.79 6.473 9.554 9.395 16.371 13 16.371s6.527-3.052 6.527-6.817z" fill="#FFBC21" fill-rule="nonzero"/></svg>