<svg width="34" height="33" xmlns="http://www.w3.org/2000/svg"><path d="M32.034 25.767c.787.807 1.364 1.546 1.73 2.218.367.673.306 1.44-.183 2.3a7.514 7.514 0 0 1-.448.585c-.19.228-.387.45-.59.665-.204.215-.408.41-.611.585a3.877 3.877 0 0 1-.51.383c-.678.403-1.479.511-2.402.323s-1.751-.646-2.484-1.372l-1.71-1.694-2.28-2.259-2.688-2.662-2.933-2.904-5.212 5.163a430.122 430.122 0 0 0-3.91 3.913c-1.031 1.022-2.056 1.654-3.074 1.896-1.019.242-1.921.013-2.709-.686l-.284-.282-.448-.444-.448-.444c-.163-.161-.258-.269-.286-.323-.298-.376-.475-.76-.529-1.15-.054-.39-.02-.772.102-1.149.122-.376.305-.74.55-1.089.244-.35.515-.672.814-.968.245-.215.679-.619 1.303-1.21l2.2-2.26a458.89 458.89 0 0 0 2.992-2.904c1.1-1.075 2.247-2.205 3.442-3.388A915.503 915.503 0 0 0 7.7 12.94c-1.18-1.157-2.24-2.192-3.176-3.107-.937-.914-1.704-1.66-2.301-2.238a183.3 183.3 0 0 1-1.1-1.07C.42 5.827.06 5.135.046 4.449.032 3.762.27 3.07.758 2.371c.217-.27.53-.585.937-.948.407-.363.692-.598.855-.706C3.364.18 4.097-.056 4.749.011c.652.067 1.303.437 1.955 1.11l1.262 1.25c.624.618 1.398 1.371 2.321 2.259.923.887 1.962 1.889 3.116 3.005 1.153 1.116 2.355 2.279 3.604 3.49a623.361 623.361 0 0 1 3.034-2.986c.99-.968 1.914-1.875 2.769-2.723a332.62 332.62 0 0 1 2.32-2.279 245.28 245.28 0 0 0 1.732-1.694c.651-.618 1.357-1.028 2.117-1.23.76-.202 1.494-.034 2.2.504.027.027.115.094.264.202.15.107.299.228.448.363l.428.383c.135.121.23.195.285.222.733.7 1.092 1.459 1.079 2.279-.014.82-.373 1.58-1.08 2.279-.488.484-1.092 1.09-1.812 1.815-.719.726-1.52 1.52-2.402 2.38-.883.86-1.812 1.775-2.79 2.743l-3.095 3.066 2.953 2.844c.964.928 1.86 1.795 2.687 2.602a172.86 172.86 0 0 1 2.24 2.218c.665.672 1.215 1.223 1.65 1.654z" fill="#FEFEFE" fill-rule="nonzero"/></svg>