<?xml version="1.0" encoding="UTF-8"?>
<svg width="28px" height="18px" viewBox="0 0 28 18" version="1.1" xmlns="http://www.w3.org/2000/svg" xmlns:xlink="http://www.w3.org/1999/xlink">
    <title>engine</title>
    <g id="darshboard" stroke="none" stroke-width="1" fill="none" fill-rule="evenodd">
        <g id="Artboard-2" transform="translate(-2361.000000, -895.000000)" fill="#333333" fill-rule="nonzero">
            <g id="engine" transform="translate(2361.000000, 895.000000)">
                <path d="M27.8700615,7.44846348 L27.1700616,5.16876574 L23.1503236,5.16876574 L23.1503236,7.61712846 L22.235291,7.61712846 L22.235291,5.25944584 L20.0611737,5.25944584 L18.3226118,2.72040302 L15.5555534,2.72040302 L15.5555534,1.45088161 L18.2091478,1.45088161 L18.2091478,0 L7.9607832,0 L7.9607832,1.45088161 L10.3398678,1.45088161 L10.3398678,2.72040302 L6.97712321,2.72040302 L5.60457438,4.35264484 L4.07280989,4.35264484 L2.47058789,6.06287154 L2.47058789,8.97732997 L1.46405208,8.97732997 L1.46405208,6.07556675 L0,6.07556675 L0,13.511335 L1.46405208,13.511335 L1.46405208,10.4282116 L2.47058789,10.4282116 L2.47058789,13.5394458 L3.86052234,14.9168766 L7.16653495,14.9168766 L10.4606521,18 L21.0869252,18 L22.0888858,16.0150126 L22.1483629,15.0075567 L23.1503236,15.0075567 L23.1503236,17.4105793 L26.6457479,17.4105793 L27.6422184,15.1889169 C27.8786529,14.6629418 28.000562,14.093486 28,13.5176826 L28,8.31445844 C28,8.02065491 27.9560745,7.72866499 27.8700615,7.44846348 Z M11.8039199,1.45088161 L14.0915013,1.45088161 L14.0915013,2.72040302 L11.8039199,2.72040302 L11.8039199,1.45088161 Z M26.535944,13.5176826 C26.535944,13.8930982 26.4581662,14.2567254 26.3044408,14.5994962 L25.6941141,15.9596977 L24.6143756,15.9596977 L24.6143756,13.5566751 L20.7675788,13.5566751 L20.6440494,15.6323426 L20.181958,16.5491184 L11.0426128,16.5491184 L7.74849565,13.465995 L4.46627389,13.465995 L3.93463997,12.9391436 L3.93463997,6.63324937 L4.71150261,5.80443325 L6.29084879,5.80443325 L7.66339762,4.17219144 L17.5466642,4.17219144 L19.2852261,6.71123426 L20.7712389,6.71123426 L20.7712389,9.06891688 L24.6143756,9.06891688 L24.6143756,6.62055416 L26.084833,6.62055416 L26.4691466,7.87193955 C26.5130682,8.01612091 26.535944,8.16574307 26.535944,8.31627204 L26.535944,13.5176826 L26.535944,13.5176826 Z M12,9 L16,6 L14.5,9 L16,10.5 L10,14 L13.5,10.5 L12,9 Z" id="形状"></path>
            </g>
        </g>
    </g>
</svg>