<?xml version="1.0" encoding="UTF-8" standalone="no"?>
<svg width="129px" height="129px" viewBox="0 0 129 129" version="1.1" xmlns="http://www.w3.org/2000/svg" xmlns:xlink="http://www.w3.org/1999/xlink">
    <!-- Generator: Sketch 46.2 (44496) - http://www.bohemiancoding.com/sketch -->
    <title>EOS</title>
    <desc>Created with Sketch.</desc>
    <defs>
        <radialGradient cx="50%" cy="50%" fx="50%" fy="50%" r="61.3084801%" id="radialGradient-1">
            <stop stop-color="#FFFFFF" offset="0%"></stop>
            <stop stop-color="#FFFFFF" offset="51.0207527%"></stop>
            <stop stop-color="#E3E3E3" offset="100%"></stop>
        </radialGradient>
        <linearGradient x1="50%" y1="0%" x2="50%" y2="100%" id="linearGradient-2">
            <stop stop-color="#FABF00" offset="0%"></stop>
            <stop stop-color="#FFED0D" offset="23.0180429%"></stop>
            <stop stop-color="#FFEF49" offset="38.1306094%"></stop>
            <stop stop-color="#EF7B00" offset="75.3851671%"></stop>
            <stop stop-color="#EA5404" offset="100%"></stop>
        </linearGradient>
        <linearGradient x1="50%" y1="0%" x2="50%" y2="91.5443402%" id="linearGradient-3">
            <stop stop-color="#F18B00" offset="0%"></stop>
            <stop stop-color="#FFED0D" offset="26.3049351%"></stop>
            <stop stop-color="#FFF7B1" offset="51.9023028%"></stop>
            <stop stop-color="#EF7B00" offset="75.3851671%"></stop>
            <stop stop-color="#EA5404" offset="100%"></stop>
        </linearGradient>
        <linearGradient x1="50%" y1="0%" x2="50%" y2="100%" id="linearGradient-4">
            <stop stop-color="#0080CC" offset="0%"></stop>
            <stop stop-color="#0080CC" offset="45.7838335%"></stop>
            <stop stop-color="#5BA8DE" offset="100%"></stop>
        </linearGradient>
        <linearGradient x1="50%" y1="0%" x2="50%" y2="100%" id="linearGradient-5">
            <stop stop-color="#0086CF" offset="0%"></stop>
            <stop stop-color="#41A2DB" offset="46.586912%"></stop>
            <stop stop-color="#D1DFF5" offset="82.8817702%"></stop>
            <stop stop-color="#4AA3DC" offset="100%"></stop>
        </linearGradient>
        <linearGradient x1="62.2895328%" y1="100%" x2="19.8429503%" y2="0.463042967%" id="linearGradient-6">
            <stop stop-color="#8BBDE7" offset="0%"></stop>
            <stop stop-color="#E2ECF8" offset="23.338109%"></stop>
            <stop stop-color="#0081CD" offset="62.0388788%"></stop>
            <stop stop-color="#0080CC" offset="100%"></stop>
        </linearGradient>
        <linearGradient x1="50%" y1="0%" x2="50%" y2="100%" id="linearGradient-7">
            <stop stop-color="#FABE00" offset="0%"></stop>
            <stop stop-color="#EA5404" offset="100%"></stop>
        </linearGradient>
        <linearGradient x1="10.1426789%" y1="9.67081471%" x2="83.4883593%" y2="91.5596853%" id="linearGradient-8">
            <stop stop-color="#F08100" offset="0%"></stop>
            <stop stop-color="#FED600" offset="17.7459502%"></stop>
            <stop stop-color="#FFED0D" offset="53.9002541%"></stop>
            <stop stop-color="#EF7B00" offset="82.9128058%"></stop>
            <stop stop-color="#EB6100" offset="100%"></stop>
        </linearGradient>
        <linearGradient x1="20.0012694%" y1="4.25769781%" x2="62.1361241%" y2="89.4742452%" id="linearGradient-9">
            <stop stop-color="#F08500" offset="0%"></stop>
            <stop stop-color="#FFED0D" offset="35.3024982%"></stop>
            <stop stop-color="#FEE40C" offset="51.430366%"></stop>
            <stop stop-color="#F49C00" offset="100%"></stop>
        </linearGradient>
        <linearGradient x1="50%" y1="100%" x2="50%" y2="3.061617e-15%" id="linearGradient-10">
            <stop stop-color="#FFFBD9" offset="0%"></stop>
            <stop stop-color="#FFEB00" offset="51.4623465%"></stop>
            <stop stop-color="#EA5404" offset="100%"></stop>
        </linearGradient>
        <linearGradient x1="28.3408661%" y1="0%" x2="71.7341529%" y2="98.0267413%" id="linearGradient-11">
            <stop stop-color="#8BBDE7" offset="0%"></stop>
            <stop stop-color="#D1DFF5" offset="45.7838335%"></stop>
            <stop stop-color="#279AD8" offset="100%"></stop>
        </linearGradient>
        <linearGradient x1="50%" y1="0%" x2="88.3001177%" y2="97.3885361%" id="linearGradient-12">
            <stop stop-color="#1195D6" offset="0%"></stop>
            <stop stop-color="#AFD0EE" offset="50.725011%"></stop>
            <stop stop-color="#0E93D5" offset="100%"></stop>
        </linearGradient>
        <linearGradient x1="50%" y1="0%" x2="50%" y2="100%" id="linearGradient-13">
            <stop stop-color="#8BBDE7" offset="0%"></stop>
            <stop stop-color="#D1DFF5" offset="45.7838335%"></stop>
            <stop stop-color="#70B1E2" offset="100%"></stop>
        </linearGradient>
    </defs>
    <g id="Page-1" stroke="none" stroke-width="1" fill="none" fill-rule="evenodd">
        <g id="Artboard" transform="translate(-601.000000, -1410.000000)" fill-rule="nonzero">
            <g id="EOS" transform="translate(601.000000, 1410.000000)">
                <path d="M103.618789,2.82160675 C93.3718926,1.02838055 78.9073874,0 63.9393737,0 C49.1031809,0 35.3821825,0.966426686 25.3055436,2.71698532 C9.42574665,5.4766382 5.64388657,9.28963799 2.83232346,25.382175 C-0.895117583,46.6917781 -0.951385771,82.5544519 2.71040901,103.693517 C5.46002416,119.573112 9.27266015,123.353352 25.3734354,126.172581 C35.6458243,127.970034 50.1412376,129 65.1400272,129 C79.9417457,129 93.6356666,128.039518 103.696852,126.296621 C119.57863,123.534987 123.362207,119.723704 126.170072,103.627204 C129.898834,82.3142982 129.949554,46.4435666 126.28208,25.3006707 C123.524804,9.42107524 119.713885,5.63911828 103.618789,2.82160675 Z" id="Shape" fill="url(#radialGradient-1)"></path>
                <g id="Group-2" transform="translate(31.000000, 30.000000)">
                    <path d="M55.074449,59.5263 C56.5378367,57.67227 57.7104898,54.65628 58.2184082,51.45606 C58.797102,47.81976 58.4945714,44.16138 57.3753469,41.15781 C54.8461633,34.38201 50.9014694,29.36433 47.730449,25.33542 C46.2719184,23.47725 44.8883265,21.7212 43.8801224,20.08383 C43.2119184,19.00053 42.8406939,17.90412 42.6401633,16.82013 C42.6401633,16.80702 42.6346122,16.79667 42.6346122,16.78632 C42.5124898,16.12461 42.4826531,15.4836 42.5381633,14.85087 C42.5409388,14.82672 42.5409388,14.80326 42.5437143,14.77704 C42.6346122,13.89177 42.8295918,13.03203 43.2702041,12.25164 C44.5642857,9.9705 47.1677143,8.61327 50.2332653,8.62638 C51.4288163,8.6319 53.2231837,8.81889 55.0904082,9.41988 C52.4411837,8.03505 49.8238776,7.76388 47.4917551,7.75353 C40.8742449,7.73007 36.7581633,13.31838 40.7007755,19.3959 C44.166,24.72477 51.3462449,30.92028 55.3686531,41.17092 C58.0574286,48.02124 55.9813469,56.4765 52.8519592,60.25356 C48.4146122,65.61417 42.4354694,67.39368 42.4354694,67.39368 C45.2054286,66.65538 47.9108571,65.56173 50.3498367,64.02165 C50.705102,63.77877 51.0707755,63.4938 51.436449,63.20952 C52.9428571,61.82952 53.9323265,60.97875 55.074449,59.5263 L55.074449,59.5263 Z" id="Shape" fill="url(#linearGradient-2)"></path>
                    <path d="M43.6657143,65.59209 C44.3783265,65.1015 45.7348571,64.57917 46.3614286,64.02855 C46.6001224,63.81396 46.8304898,63.59316 47.0553061,63.36684 C47.3425714,63.09222 47.5958367,62.7969 47.8560408,62.50986 C48.2994286,62.0034 48.7317143,61.46796 49.1556735,60.87249 C51.2928163,57.87444 52.3364082,54.39408 52.252449,50.51904 C52.1004898,43.24506 46.7000408,38.3778 44.9237143,36.77769 C44.324898,36.23742 43.3708163,35.53569 42.1565306,34.64421 C38.0529388,31.63374 30.4973061,26.59536 27.4157959,20.13834 C25.2418776,15.56985 25.9385306,9.33984 29.1178776,4.98111 C30.8893469,2.54955 33.365102,1.06191 35.9588163,0.57408 C25.1613878,-0.41745 19.436898,12.25854 23.6084898,20.24943 C27.9667347,28.61223 39.145102,34.55037 42.1273878,37.00125 C45.0604082,39.41901 50.1000408,44.07513 50.2533878,50.94546 C50.4525306,59.49111 45.8153469,65.55759 35.6708571,68.724 C35.6708571,68.724 36.742898,68.64534 38.3568571,68.29137 C40.1657959,67.60137 41.8366531,66.79476 43.3028163,65.83497 C43.4249388,65.75562 43.5470612,65.67144 43.6657143,65.59209 Z" id="Shape" fill="url(#linearGradient-3)"></path>
                    <path d="M8.99959184,11.39121 C8.92673469,11.523 8.54718367,12.18195 8.16208163,12.90714 C7.84359184,13.50537 6.72159184,14.50932 6.24489796,15.87 C4.94665306,19.55874 4.15355102,25.48377 5.70506122,32.63631 C6.17412245,34.80636 7.35579592,38.35779 8.21759184,40.95219 C8.56453061,42.00375 8.86844898,42.91386 9.0377551,43.46931 C9.48738776,44.96937 9.54983673,45.27711 9.0377551,45.54 C8.43893878,45.85119 7.55702041,45.13635 6.24489796,43.47 C5.82093878,42.93249 4.85714286,42.09 3.46938776,40.02 C4.81759184,42.99942 6.78334694,45.66006 7.9344898,46.87515 C10.8848571,50.00154 12.9609388,48.84441 11.6196735,45.40338 C10.840449,43.38927 8.05661224,37.23516 7.09697959,33.98457 C2.73665306,19.26687 9.55122449,10.764 9.55122449,10.764 C9.34791837,10.97238 9.19595918,11.18283 8.99959184,11.39121 Z" id="Shape" fill="url(#linearGradient-4)"></path>
                    <path d="M21.7155918,2.66961 C21.2673469,2.84073 20.8336735,3.036 20.3958367,3.22851 C18.4606122,4.13379 15.1376327,6.03957 12.4419184,9.46128 C10.9833878,11.32014 9.80587755,14.3382 9.29934694,17.53704 C8.72481633,21.17265 9.02457143,24.82689 10.1451837,27.83253 C12.6750612,34.61109 16.620449,39.62601 19.7914694,43.65699 C21.25,45.51516 22.6308163,47.26845 23.6404082,48.90582 C25.3112653,51.61407 25.534,54.4686 24.2503265,56.73663 C22.9576327,59.02191 20.3528163,60.37983 17.283102,60.36465 C15.8412245,60.35913 14.1537143,60.07209 13.0303265,59.78436 C12.648,59.6919 12.2670612,59.52906 12.1504898,59.48145 C14.8538367,60.94218 17.5322041,61.22646 19.9156735,61.2375 C26.5304082,61.26372 30.6478776,55.67472 26.7052653,49.59513 C23.2372653,44.26902 16.0570204,38.07075 12.0373878,27.82218 C9.35,20.97255 11.4219184,12.51729 14.5513061,8.73954 C18.9893469,3.37962 24.9705714,1.59942 24.9705714,1.59942 C23.9269796,1.87749 22.8986531,2.21697 21.8821224,2.59854 C21.9202857,2.58543 21.9986939,2.55783 22.0014694,2.55645 L21.7155918,2.66961 L21.7155918,2.66961 Z" id="Shape" fill="url(#linearGradient-5)"></path>
                    <path d="M43.7909236,48.74022 C39.4173823,40.37949 28.1934226,34.44204 25.2018061,31.98771 C22.2589471,29.57271 17.2000158,24.91659 17.0419024,18.0435 C16.8447831,9.49854 21.4997243,3.43482 31.6802752,0.26772 C31.6802752,0.26772 30.6055222,0.34845 28.9895617,0.69897 C28.6273637,0.83628 28.2770067,0.98256 27.9287394,1.13298 C27.1507102,1.52973 25.983318,2.13624 25.0680715,2.67513 C19.0103094,6.23139 15.707342,11.7921 15.8459524,18.47337 C15.9998865,25.74459 21.4238021,30.61185 23.2020551,32.21196 C23.8087368,32.75223 24.7706512,33.45672 25.9895869,34.34751 C30.1061068,37.35591 36.9941382,42.39429 40.0804834,48.85338 C42.0447111,52.95543 41.7075884,58.39746 39.2181734,62.72169 C37.9205293,64.9704 36.1952129,66.63675 34.1884965,67.61517 C33.6236069,67.8891 32.8100544,68.16372 32.0647623,68.27688 C31.4713148,68.36658 31.0910068,68.39832 31.0910068,68.39832 C31.1711083,68.38314 31.2296172,68.35554 31.306236,68.34036 C31.1920044,68.35554 31.0749865,68.3721 30.9579687,68.38521 C31.0053331,68.39004 31.0436425,68.40039 31.0910068,68.40522 C42.1296884,69.67137 48.0167995,56.8077 43.7909236,48.74022 L43.7909236,48.74022 Z" id="Shape" fill="url(#linearGradient-6)"></path>
                    <path d="M57.8555102,58.22634 C58.0747755,57.99933 58.2454694,57.77025 58.4543265,57.54048 C59.0913061,56.54688 59.9260408,54.8067 60.6185306,53.01132 C62.0208571,49.3626 63.3669796,43.50933 61.8189388,36.35679 C61.347102,34.18674 60.1640408,30.63255 59.2994694,28.04091 C58.9497551,26.98659 58.6527755,26.07924 58.4834694,25.52034 C58.0296735,24.02304 58.0622857,23.09499 58.5702041,22.8321 C59.1717959,22.52367 60.1584898,23.20884 61.466449,24.86967 L62.1686531,25.94538 L63.1810204,27.73317 C61.9244082,25.17603 60.5082041,23.2116 59.471551,22.11726 C56.5211837,18.99018 54.4423265,20.14524 55.7863673,23.58834 C56.5683673,25.60314 59.3508163,31.75656 60.3125306,35.00715 C64.6693878,49.72554 57.8555102,58.22634 57.8555102,58.22634 L57.8555102,58.22634 Z" id="Shape" fill="url(#linearGradient-7)"></path>
                    <path d="M28.5275897,5.12187 C25.3046561,9.4116 24.5951243,15.54363 26.800967,20.0307 C29.9480837,26.43459 36.9890421,31.45227 41.1983107,34.44963 C42.4557268,35.34594 43.4449228,36.0525 44.0757767,36.59829 C45.925423,38.21427 51.5494636,43.1319 51.7089652,50.51076 C51.7955109,54.43893 50.7033183,57.97173 48.4695807,61.0098 C46.2916329,63.97542 43.1216281,66.31935 39.0668544,68.00709 C43.3347737,66.90723 49.9158239,64.16862 53.0479203,57.41559 C56.5934333,49.79385 54.8653802,42.16866 48.2142351,33.8376 C41.4879884,25.41408 33.4149189,21.62805 33.815461,14.83362 C34.3926708,5.17362 45.5377554,4.16691 52.0987785,6.28314 C51.2984095,5.70285 45.7258672,1.74915 35.8238937,0.60651 C35.5070362,0.64377 35.185172,0.66309 34.8840502,0.72795 L34.1409015,0.95634 C33.0036479,1.38345 30.5059817,2.48814 28.5275897,5.12187 Z" id="Shape" fill="url(#linearGradient-8)"></path>
                    <path d="M54.9256665,9.315 C54.7665812,9.26256 50.9899095,8.18409 49.7521828,8.17857 C46.6910385,8.16477 44.0978761,10.16301 42.8144926,12.36963 C41.5382429,14.56314 41.7636733,17.32935 43.4329993,19.95756 C44.4624169,21.58389 45.881344,23.33235 47.3773169,25.18293 C50.6446301,29.22978 54.7173575,34.26264 57.3312081,41.07294 C59.8423309,47.62656 58.0403149,55.83204 54.9278067,59.67603 C53.8884016,60.95667 52.6735032,62.00133 51.3259149,63.00873 C54.9848777,60.36672 57.9233194,56.65728 59.3351126,51.41811 C61.9225679,41.83401 56.7127014,31.71033 53.7364501,26.50359 C50.8087092,21.38103 49.1679187,18.17253 50.6332159,16.72767 C53.5017457,13.9035 59.3779158,17.25207 62.8706594,23.45034 C67.6161109,31.8711 67.1581163,38.04108 67.1245871,38.38401 C67.9164468,32.95785 66.6573185,25.60728 64.9951264,22.44846 C61.9575238,15.05856 58.4198369,11.15592 54.9256665,9.315 Z" id="Shape" fill="url(#linearGradient-9)"></path>
                    <path d="M57.8631218,25.2293039 C58.0361262,25.7865562 58.3424291,26.70234 58.6969463,27.7570894 C59.5804032,30.3724233 60.7893068,33.9619065 61.2742864,36.1596485 C62.8724499,43.4212995 62.2227073,49.4267009 60.6791394,53.0981738 C59.8360975,55.1103967 59.4021684,55.8809613 59.0724674,56.4361292 C58.8661384,56.7786796 58.7307128,57.0065833 58.611595,57.18168 C67.161841,47.859863 67.0271244,38.2733163 64.6880199,31.2854277 C64.5774105,30.9748394 64.4689283,30.669115 64.3498105,30.3724233 C64.2874155,30.2021903 64.2221843,30.0354315 64.1576622,29.8672831 C63.7322415,28.8479699 63.2827137,27.9405241 62.8431124,27.1491146 L61.6163181,24.9779663 C60.8004165,23.953962 59.6734694,22.77 58.611595,22.77 C57.5497207,22.77 57.6835899,24.6460217 57.8631218,25.2293039 Z" id="Shape" fill="url(#linearGradient-10)"></path>
                    <path d="M35.6198135,66.90516 C37.2431652,65.92191 38.6554883,64.4667 39.7555461,62.60025 C42.224438,58.41126 42.5752017,52.92645 40.6303166,48.96102 C37.494831,42.55437 30.4752787,37.53669 26.2825114,34.54485 C25.0291727,33.64578 24.0381938,32.93922 23.4143762,32.38791 C21.5693019,30.774 15.9577951,25.85706 15.8002366,18.4782 C15.7125457,14.31267 17.0336131,10.59426 19.5096344,7.49961 C19.5623915,7.43613 19.6137228,7.36851 19.665767,7.30227 C20.7251876,6.01266 21.9678323,4.82655 23.427922,3.77982 C24.4139103,3.07602 25.6280376,2.4012 26.8813763,1.79055 C27.058184,1.70499 27.2307142,1.61805 27.4075219,1.53456 C27.9771565,1.27029 28.5439394,1.01844 29.1050188,0.79005 C28.9574413,0.86388 28.7093402,0.98532 28.4184629,1.13298 C28.7749301,0.98256 29.1342491,0.83628 29.504262,0.69897 C25.4048891,1.56561 17.7936012,4.1331 14.350128,11.57337 C10.8203896,19.19856 12.5414133,26.82099 19.1695647,35.15481 C25.8725741,43.57833 33.9237425,47.36367 33.5230734,54.15534 C32.9448836,63.8181 21.8387911,64.82067 15.2990437,62.70858 C16.0939656,63.28887 21.6484376,67.24326 31.5183018,68.3859 C31.6380748,68.3721 31.7578477,68.35623 31.874769,68.34105 C33.2528712,68.06022 34.3664748,67.66002 35.6198135,66.90516 L35.6198135,66.90516 Z" id="Shape" fill="url(#linearGradient-11)"></path>
                    <path d="M11.7959184,59.34 C13.1836735,60.03 16.4031604,60.7143917 17.9049234,60.7199025 C20.8663115,60.7329907 23.3786904,58.7376188 24.6227912,56.5319192 C25.8544579,54.3448186 25.6389335,51.5832165 24.0211189,48.9593846 C23.022937,47.3378303 21.6531137,45.5929718 20.2017779,43.7427191 C17.0366087,39.7053658 13.0956898,34.6808895 10.5674229,27.8819342 C8.13103007,21.3385424 9.92913907,13.1839291 12.8905272,9.30983333 C13.8244662,8.08643468 14.9469892,7.05935845 16.057078,6.19347325 C16.2138858,6.06396934 16.363095,5.95375324 16.5226659,5.83320439 C16.6497701,5.73814301 16.7748018,5.63894852 16.901906,5.54664254 C17.1609497,5.35445323 17.4227566,5.14366495 17.6735109,4.97283 C13.4652589,7.63110444 9.36236565,11.6374595 7.81432022,17.5546861 C5.31299379,27.122132 10.3536397,37.2296367 13.2369693,42.4277033 C16.0767796,47.5417301 17.6593642,50.7448854 16.2404952,52.1845831 C13.4635463,55.006804 7.77287322,51.6631232 4.39494275,45.4758672 C-0.10896454,37.2289479 0.230210073,31.1649961 0.271657073,30.6070271 C-0.487513803,36.0145043 0.729646418,43.3294087 2.34055314,46.4740117 C5.27223757,53.8364468 8.42282338,57.5028355 11.7959184,59.34 Z" id="Shape" fill="url(#linearGradient-12)"></path>
                    <path d="M9.24128542,43.7337898 C9.06058101,43.167514 8.74030815,42.2437017 8.37596105,41.171092 C7.46068586,38.5138974 6.20677355,34.8736536 5.70432714,32.6424 C4.04713547,25.2702363 5.40902969,19.2041036 6.989826,15.4728889 C8.1761578,12.6697178 8.97096337,11.476519 9.30225479,11.04 C0.178885775,20.6004001 0.319188793,30.4626259 2.77853175,37.6218191 C2.87182223,37.8778068 2.96364358,38.1316789 3.06281064,38.378499 C3.13773685,38.5837122 3.21927421,38.7825787 3.30081157,38.9821504 C4.05007376,40.5773134 5.51326547,43.2658061 6.24489796,44.16 C7.7595829,46.0182027 8.90411743,46.3768805 9.27727939,46.1907076 C9.67027475,45.9974827 9.65631791,45.0779016 9.24128542,43.7337898 Z" id="Shape" fill="url(#linearGradient-13)"></path>
                </g>
            </g>
        </g>
    </g>
</svg>
