<svg width="129" height="129" xmlns="http://www.w3.org/2000/svg"><defs><radialGradient cx="50%" cy="50%" fx="50%" fy="50%" r="61.308%" id="a"><stop stop-color="#FFF" offset="0%"/><stop stop-color="#FFF" offset="51.021%"/><stop stop-color="#E3E3E3" offset="100%"/></radialGradient><linearGradient x1="50%" y1="0%" x2="50%" y2="100%" id="b"><stop stop-color="#FABF00" offset="0%"/><stop stop-color="#FFED0D" offset="23.018%"/><stop stop-color="#FFEF49" offset="38.131%"/><stop stop-color="#EF7B00" offset="75.385%"/><stop stop-color="#EA5404" offset="100%"/></linearGradient><linearGradient x1="50%" y1="0%" x2="50%" y2="91.544%" id="c"><stop stop-color="#F18B00" offset="0%"/><stop stop-color="#FFED0D" offset="26.305%"/><stop stop-color="#FFF7B1" offset="51.902%"/><stop stop-color="#EF7B00" offset="75.385%"/><stop stop-color="#EA5404" offset="100%"/></linearGradient><linearGradient x1="50%" y1="0%" x2="50%" y2="100%" id="d"><stop stop-color="#0080CC" offset="0%"/><stop stop-color="#0080CC" offset="45.784%"/><stop stop-color="#5BA8DE" offset="100%"/></linearGradient><linearGradient x1="50%" y1="0%" x2="50%" y2="100%" id="e"><stop stop-color="#0086CF" offset="0%"/><stop stop-color="#41A2DB" offset="46.587%"/><stop stop-color="#D1DFF5" offset="82.882%"/><stop stop-color="#4AA3DC" offset="100%"/></linearGradient><linearGradient x1="62.29%" y1="100%" x2="19.843%" y2=".463%" id="f"><stop stop-color="#8BBDE7" offset="0%"/><stop stop-color="#E2ECF8" offset="23.338%"/><stop stop-color="#0081CD" offset="62.039%"/><stop stop-color="#0080CC" offset="100%"/></linearGradient><linearGradient x1="50%" y1="0%" x2="50%" y2="100%" id="g"><stop stop-color="#FABE00" offset="0%"/><stop stop-color="#EA5404" offset="100%"/></linearGradient><linearGradient x1="10.143%" y1="9.671%" x2="83.488%" y2="91.56%" id="h"><stop stop-color="#F08100" offset="0%"/><stop stop-color="#FED600" offset="17.746%"/><stop stop-color="#FFED0D" offset="53.9%"/><stop stop-color="#EF7B00" offset="82.913%"/><stop stop-color="#EB6100" offset="100%"/></linearGradient><linearGradient x1="20.001%" y1="4.258%" x2="62.136%" y2="89.474%" id="i"><stop stop-color="#F08500" offset="0%"/><stop stop-color="#FFED0D" offset="35.302%"/><stop stop-color="#FEE40C" offset="51.43%"/><stop stop-color="#F49C00" offset="100%"/></linearGradient><linearGradient x1="50%" y1="100%" x2="50%" y2="0%" id="j"><stop stop-color="#FFFBD9" offset="0%"/><stop stop-color="#FFEB00" offset="51.462%"/><stop stop-color="#EA5404" offset="100%"/></linearGradient><linearGradient x1="28.341%" y1="0%" x2="71.734%" y2="98.027%" id="k"><stop stop-color="#8BBDE7" offset="0%"/><stop stop-color="#D1DFF5" offset="45.784%"/><stop stop-color="#279AD8" offset="100%"/></linearGradient><linearGradient x1="50%" y1="0%" x2="88.3%" y2="97.389%" id="l"><stop stop-color="#1195D6" offset="0%"/><stop stop-color="#AFD0EE" offset="50.725%"/><stop stop-color="#0E93D5" offset="100%"/></linearGradient><linearGradient x1="50%" y1="0%" x2="50%" y2="100%" id="m"><stop stop-color="#8BBDE7" offset="0%"/><stop stop-color="#D1DFF5" offset="45.784%"/><stop stop-color="#70B1E2" offset="100%"/></linearGradient></defs><g fill-rule="nonzero" fill="none"><path d="M103.619 2.822C93.372 1.028 78.907 0 63.939 0 49.103 0 35.382.966 25.306 2.717 9.426 5.477 5.644 9.29 2.832 25.382-.895 46.692-.95 82.554 2.71 103.694c2.75 15.88 6.563 19.66 22.663 22.479C35.646 127.97 50.141 129 65.14 129c14.802 0 28.496-.96 38.557-2.703 15.882-2.762 19.665-6.573 22.473-22.67 3.729-21.313 3.78-57.183.112-78.326-2.757-15.88-6.568-19.662-22.663-22.48z" fill="url(#a)"/><path d="M55.074 59.526c1.464-1.854 2.636-4.87 3.144-8.07.58-3.636.277-7.295-.843-10.298-2.529-6.776-6.474-11.794-9.645-15.823-1.458-1.858-2.842-3.614-3.85-5.251a9.359 9.359 0 0 1-1.24-3.264c0-.013-.005-.023-.005-.034a7.145 7.145 0 0 1-.097-1.935c.003-.024.003-.048.006-.074.09-.885.286-1.745.726-2.525 1.294-2.282 3.898-3.639 6.963-3.626a16.71 16.71 0 0 1 4.857.794c-2.649-1.385-5.266-1.656-7.598-1.666-6.618-.024-10.734 5.564-6.791 11.642 3.465 5.329 10.645 11.524 14.668 21.775 2.688 6.85.612 15.306-2.517 19.083-4.437 5.36-10.417 7.14-10.417 7.14 2.77-.739 5.476-1.832 7.915-3.372.355-.243.72-.528 1.086-.812 1.507-1.38 2.496-2.231 3.638-3.684z" fill="url(#b)" transform="translate(31 30)"/><path d="M43.666 65.592c.712-.49 2.069-1.013 2.695-1.563.24-.215.47-.436.694-.662.288-.275.54-.57.801-.857a20.65 20.65 0 0 0 1.3-1.638c2.137-2.998 3.18-6.478 3.096-10.353-.152-7.274-5.552-12.141-7.328-13.741-.6-.54-1.553-1.242-2.767-2.134-4.104-3.01-11.66-8.049-14.741-14.506-2.174-4.568-1.477-10.798 1.702-15.157 1.771-2.431 4.247-3.92 6.84-4.407C25.162-.417 19.438 12.26 23.609 20.25c4.359 8.363 15.537 14.301 18.52 16.752 2.932 2.418 7.972 7.074 8.125 13.944.2 8.546-4.438 14.613-14.582 17.779 0 0 1.072-.079 2.686-.433 1.809-.69 3.48-1.496 4.946-2.456.122-.08.244-.164.363-.243z" fill="url(#c)" transform="translate(31 30)"/><path d="M9 11.391c-.073.132-.453.791-.838 1.516-.318.598-1.44 1.602-1.917 2.963-1.298 3.689-2.091 9.614-.54 16.766.47 2.17 1.65 5.722 2.513 8.316.347 1.052.65 1.962.82 2.517.45 1.5.512 1.808 0 2.071-.6.311-1.481-.404-2.793-2.07-.424-.538-1.388-1.38-2.776-3.45 1.349 2.98 3.314 5.64 4.465 6.855 2.95 3.127 5.027 1.97 3.686-1.472-.78-2.014-3.563-8.168-4.523-11.418-4.36-14.718 2.454-23.221 2.454-23.221-.203.208-.355.419-.551.627z" fill="url(#d)" transform="translate(31 30)"/><path d="M21.716 2.67c-.449.17-.882.366-1.32.559-1.935.905-5.258 2.81-7.954 6.232-1.459 1.86-2.636 4.877-3.143 8.076-.574 3.636-.274 7.29.846 10.296 2.53 6.778 6.475 11.793 9.646 15.824 1.459 1.858 2.84 3.611 3.85 5.249 1.67 2.708 1.893 5.563.61 7.83-1.293 2.286-3.898 3.644-6.968 3.629-1.442-.006-3.13-.293-4.253-.58-.382-.093-.763-.256-.88-.304 2.704 1.461 5.382 1.745 7.766 1.756 6.614.027 10.732-5.562 6.79-11.642-3.469-5.326-10.649-11.524-14.669-21.773-2.687-6.85-.615-15.305 2.514-19.082 4.438-5.36 10.42-7.14 10.42-7.14a32.905 32.905 0 0 0-3.089.999l.12-.043-.286.114z" fill="url(#e)" transform="translate(31 30)"/><path d="M43.79 48.74c-4.373-8.36-15.597-14.298-18.588-16.752-2.943-2.415-8.002-7.071-8.16-13.944C16.845 9.499 21.5 3.434 31.68.268c0 0-1.074.08-2.69.431-.363.137-.713.284-1.061.434-.778.397-1.946 1.003-2.86 1.542-6.059 3.556-9.362 9.117-9.223 15.798.154 7.272 5.578 12.139 7.356 13.739.607.54 1.569 1.245 2.788 2.136 4.116 3.008 11.004 8.046 14.09 14.505 1.965 4.102 1.628 9.544-.862 13.869-1.297 2.248-3.023 3.915-5.03 4.893a7.987 7.987 0 0 1-2.123.662c-.594.09-.974.121-.974.121.08-.015.139-.042.215-.058-.114.016-.231.032-.348.045.047.005.086.015.133.02 11.039 1.266 16.926-11.597 12.7-19.665z" fill="url(#f)" transform="translate(31 30)"/><path d="M57.856 58.226c.219-.227.39-.456.598-.686.637-.993 1.472-2.733 2.165-4.529 1.402-3.648 2.748-9.502 1.2-16.654-.472-2.17-1.655-5.724-2.52-8.316-.35-1.054-.646-1.962-.816-2.52-.453-1.498-.42-2.426.087-2.689.602-.308 1.588.377 2.896 2.038l.703 1.075 1.012 1.788c-1.257-2.557-2.673-4.521-3.71-5.616-2.95-3.127-5.029-1.972-3.685 1.471.782 2.015 3.565 8.169 4.527 11.42 4.356 14.718-2.457 23.218-2.457 23.218z" fill="url(#g)" transform="translate(31 30)"/><path d="M28.528 5.122c-3.223 4.29-3.933 10.422-1.727 14.909 3.147 6.404 10.188 11.421 14.397 14.419 1.258.896 2.247 1.602 2.878 2.148 1.85 1.616 7.473 6.534 7.633 13.913.087 3.928-1.006 7.46-3.24 10.499-2.177 2.965-5.347 5.31-9.402 6.997 4.268-1.1 10.849-3.838 13.98-10.591 3.546-7.622 1.818-15.247-4.833-23.578-6.726-8.424-14.8-12.21-14.399-19.004.578-9.66 11.723-10.667 18.284-8.55-.8-.581-6.373-4.535-16.275-5.677-.317.037-.639.056-.94.121l-.743.228c-1.137.427-3.635 1.532-5.613 4.166z" fill="url(#h)" transform="translate(31 30)"/><path d="M54.926 9.315c-.16-.052-3.936-1.13-5.174-1.136-3.061-.014-5.654 1.984-6.938 4.19-1.276 2.194-1.05 4.96.619 7.589 1.03 1.626 2.448 3.374 3.944 5.225 3.268 4.047 7.34 9.08 9.954 15.89 2.511 6.554.71 14.759-2.403 18.603-1.04 1.28-2.254 2.325-3.602 3.333 3.659-2.642 6.597-6.352 8.01-11.59 2.587-9.585-2.623-19.709-5.6-24.915-2.927-5.123-4.568-8.331-3.103-9.776 2.869-2.825 8.745.524 12.238 6.722 4.745 8.421 4.287 14.591 4.254 14.934.791-5.426-.468-12.777-2.13-15.936-3.037-7.39-6.575-11.292-10.07-13.133z" fill="url(#i)" transform="translate(31 30)"/><path d="M57.863 25.23c.173.557.48 1.472.834 2.527.883 2.615 2.092 6.205 2.577 8.403 1.598 7.261.949 13.267-.595 16.938-.843 2.012-1.277 2.783-1.607 3.338-.206.343-.341.57-.46.746 8.55-9.322 8.415-18.909 6.076-25.897-.11-.31-.22-.616-.338-.913-.063-.17-.128-.337-.192-.505a27.09 27.09 0 0 0-1.315-2.718l-1.227-2.171c-.816-1.024-1.943-2.208-3.004-2.208-1.062 0-.928 1.876-.749 2.46z" fill="url(#j)" transform="translate(31 30)"/><path d="M35.62 66.905c1.623-.983 3.035-2.438 4.136-4.305 2.468-4.189 2.82-9.674.874-13.639-3.135-6.407-10.155-11.424-14.347-14.416-1.254-.9-2.245-1.606-2.869-2.157-1.845-1.614-7.456-6.53-7.614-13.91-.087-4.165 1.234-7.884 3.71-10.978.052-.064.104-.131.156-.198a19.703 19.703 0 0 1 3.762-3.522c.986-.704 2.2-1.379 3.453-1.99.177-.085.35-.172.527-.255.57-.265 1.136-.517 1.697-.745-.148.074-.396.195-.687.343a26.5 26.5 0 0 1 1.086-.434c-4.1.867-11.71 3.434-15.154 10.874-3.53 7.626-1.809 15.248 4.82 23.582 6.703 8.423 14.754 12.209 14.353 19-.578 9.663-11.684 10.666-18.224 8.554.795.58 6.35 4.534 16.22 5.677.12-.014.239-.03.356-.045 1.378-.28 2.491-.681 3.745-1.436z" fill="url(#k)" transform="translate(31 30)"/><path d="M11.796 59.34c1.388.69 4.607 1.374 6.109 1.38 2.961.013 5.474-1.982 6.718-4.188 1.231-2.187 1.016-4.949-.602-7.573-.998-1.621-2.368-3.366-3.82-5.216-3.164-4.038-7.105-9.062-9.634-15.861-2.436-6.543-.638-14.698 2.324-18.572.933-1.224 2.056-2.25 3.166-3.117.157-.129.306-.24.466-.36.127-.095.252-.194.379-.286.259-.193.52-.403.772-.574-4.209 2.658-8.312 6.664-9.86 12.582-2.501 9.567 2.54 19.675 5.423 24.873 2.84 5.114 4.422 8.317 3.003 9.757-2.776 2.822-8.467-.522-11.845-6.71C-.11 37.23.23 31.166.272 30.608c-.76 5.408.458 12.722 2.069 15.867 2.931 7.362 6.082 11.029 9.455 12.866z" fill="url(#l)" transform="translate(31 30)"/><path d="M9.241 43.734c-.18-.566-.5-1.49-.865-2.563-.915-2.657-2.17-6.297-2.672-8.529-1.657-7.372-.295-13.438 1.286-17.17 1.186-2.802 1.981-3.995 2.312-4.432C.18 20.6.32 30.463 2.78 37.622c.093.256.185.51.284.756.075.206.156.405.238.604.75 1.595 2.212 4.284 2.944 5.178 1.515 1.858 2.66 2.217 3.032 2.03.393-.193.38-1.112-.036-2.456z" fill="url(#m)" transform="translate(31 30)"/></g></svg>