<!-- Generated by IcoMoon.io -->
<svg version="1.1" xmlns="http://www.w3.org/2000/svg" width="1024" height="1024" viewBox="0 0 1024 1024">
<title></title>
<g id="icomoon-ignore">
</g>
<path d="M661.333 384h170.667c11.782 0 21.333-9.551 21.333-21.333s-9.551-21.333-21.333-21.333v0h-119.168l176.917-176.917c4.018-3.885 6.513-9.323 6.513-15.345 0-11.782-9.551-21.333-21.333-21.333-6.021 0-11.46 2.495-15.339 6.507l-176.923 176.923v-119.168c0-11.782-9.551-21.333-21.333-21.333s-21.333 9.551-21.333 21.333v0 170.667c0 11.782 9.551 21.333 21.333 21.333v0zM362.667 640h-170.667c-11.782 0-21.333 9.551-21.333 21.333s9.551 21.333 21.333 21.333v0h119.168l-176.917 176.917c-4.018 3.885-6.513 9.323-6.513 15.345 0 11.782 9.551 21.333 21.333 21.333 6.021 0 11.46-2.495 15.339-6.507l176.923-176.923v119.168c0 11.782 9.551 21.333 21.333 21.333s21.333-9.551 21.333-21.333v0-170.667c0-11.782-9.551-21.333-21.333-21.333v0zM712.832 682.667h119.168c11.782 0 21.333-9.551 21.333-21.333s-9.551-21.333-21.333-21.333v0h-170.667c-11.782 0-21.333 9.551-21.333 21.333v0 170.667c0 11.782 9.551 21.333 21.333 21.333s21.333-9.551 21.333-21.333v0-119.168l176.917 176.917c3.832 3.705 9.060 5.989 14.821 5.989 11.782 0 21.333-9.551 21.333-21.333 0-5.761-2.283-10.988-5.994-14.827l0.006 0.006zM362.667 170.667c-11.782 0-21.333 9.551-21.333 21.333v119.168l-176.917-176.917c-3.832-3.705-9.060-5.989-14.821-5.989-11.782 0-21.333 9.551-21.333 21.333 0 5.761 2.283 10.988 5.994 14.827l176.911 176.911h-119.168c-11.782 0-21.333 9.551-21.333 21.333s9.551 21.333 21.333 21.333v0h170.667c11.782 0 21.333-9.551 21.333-21.333v0-170.667c0-11.782-9.551-21.333-21.333-21.333v0z"></path>
</svg>
