<svg class="icon" viewBox="0 0 1024 1024" xmlns="http://www.w3.org/2000/svg" width="16" height="16"><defs><style/></defs><path d="M896.437 416.17c0-26.673-21.623-48.297-48.296-48.297H630.807c-26.673 0-48.297 21.624-48.297 48.297v83.048H384.695l-2.714-5.368c-41.337-87.447-35.952-204.128 150.602-199.945V402.82l172.19-164.757-172.19-164.774V179.86c-228.645-5.707-263.652 183.518-157.434 314.01l4.689 5.347h-88.466c-26.673 0-48.297 21.624-48.297 48.297v66.789H144.64c-26.673 0-40.426 21.623-30.718 48.297l79.103 217.334c9.708 26.674 39.202 48.297 65.875 48.297h603.707c23.759 0 37.25-17.161 33.057-39.762.498-2.77.774-5.62.774-8.535V416.17zm-60.37 306.453L814.22 662.6c-9.708-26.674-39.201-48.297-65.874-48.297H303.447v-30.567c0-13.337 10.811-24.148 24.148-24.148H642.88V452.392c0-13.337 10.811-24.148 24.148-24.148h144.889c13.336 0 24.148 10.811 24.148 24.148v270.23z"/></svg>