<svg class="icon" viewBox="0 0 1032 1024" xmlns="http://www.w3.org/2000/svg" width="32" height="32"><path d="M339.84 136.128H123.136A59.52 59.52 0 0 0 64 195.84v219.264a59.52 59.52 0 0 0 59.072 59.776h216.832a59.52 59.52 0 0 0 59.072-59.776V195.776a59.392 59.392 0 0 0-59.072-59.648zm2.816 278.912c0 1.536-1.28 2.816-2.752 2.816H123.072a2.88 2.88 0 0 1-2.752-2.816V195.776c0-1.6 1.28-2.816 2.752-2.816h216.832c1.472 0 2.752 1.216 2.752 2.816V415.04zm0 0l218.496-218.88c1.024.704 2.176 1.152 3.456 1.152h2.368a5.12 5.12 0 0 0 1.792 0h417.088l1.024.064.96-.064h1.92a5.312 5.312 0 0 0 2.88-.896 34.112 34.112 0 1 0 .64-67.136 6.208 6.208 0 0 0-3.648-1.28H564.48a5.568 5.568 0 0 0-3.392 1.408 34.24 34.24 0 0 0-27.52 33.344 34.688 34.688 0 0 0 27.584 33.472L342.656 415.04zm217.984 37.696a5.76 5.76 0 0 0 3.968 1.6h425.216a5.568 5.568 0 0 0 3.328-1.28 34.048 34.048 0 1 0-.32-67.136 5.888 5.888 0 0 0-3.008-.768l-.96.128a7.168 7.168 0 0 0-3.072-.128l-415.936.128a7.296 7.296 0 0 0-3.136-.128h-2.112a4.736 4.736 0 0 0-3.008.96 34.112 34.112 0 0 0-27.84 33.472c0 15.936 11.392 29.76 26.88 33.152zm.128 260.096a5.376 5.376 0 0 0 3.84 1.472h425.216A34.56 34.56 0 0 0 1024 679.552c0-19.072-15.36-34.56-34.176-34.56l-.96.128H568.96a5.12 5.12 0 0 0-1.856 0H564.8a5.312 5.312 0 0 0-3.136.96 34.048 34.048 0 1 0-.832 66.688zM992 873.92a5.056 5.056 0 0 0-2.176-.448H564.608c-1.28 0-2.56.64-3.52 1.536a34.24 34.24 0 0 0-27.328 33.344c0 16.32 11.776 30.336 27.776 33.472.96.512 1.92.832 3.072.832l.96-.064c.448.064.96.32 3.52.064l418.304-.064c.64.064 1.792.384 2.368.384a34.368 34.368 0 0 0 34.112-34.56A34.24 34.24 0 0 0 992 873.92zM231.552 684.096c59.84 0 108.416 49.28 108.416 109.696 0 60.544-48.64 109.696-108.416 109.696-59.84 0-108.48-49.28-108.48-109.696 0-60.544 48.64-109.696 108.48-109.696zm0-56.512c-90.816 0-164.352 74.368-164.352 166.208S140.8 960 231.552 960c90.752 0 164.352-74.368 164.352-166.208s-73.6-166.208-164.352-166.208z" fill="#707070"/></svg>