<?xml version="1.0" encoding="UTF-8"?>
<svg width="72px" height="72px" viewBox="0 0 72 72" version="1.1" xmlns="http://www.w3.org/2000/svg" xmlns:xlink="http://www.w3.org/1999/xlink">
    <!-- Generator: Sketch 53.2 (72643) - https://sketchapp.com -->
    <title>图钉已标记</title>
    <desc>Created with Sketch.</desc>
    <g id="Page-1" stroke="none" stroke-width="1" fill="none" fill-rule="evenodd">
        <g id="Artboard" transform="translate(-2308.000000, -527.000000)" fill="#333333" fill-rule="nonzero">
            <g id="图钉已标记" transform="translate(2308.000000, 527.000000)">
                <path d="M4.77908476,63.2383446 C6.37211302,61.6453163 15.1337684,52.0871468 19.9128532,45.7150338 L26.2849662,52.0871468 C19.9128532,57.6627457 10.3546837,65.627887 8.7616554,67.2209152 C6.37211302,69.6104576 3.18605651,71.2034859 0,72 C1.59302825,68.8139435 2.38954238,65.627887 4.77908476,63.2383446 Z M70.8897573,19.4300676 C72.4827856,21.0230958 72.4827856,24.2091524 70.0932432,25.8021806 C67.7037008,27.3952089 65.3141585,28.191723 63.7211302,25.8021806 L62.1281019,24.2091524 L43.808277,49.6976044 L49.3838759,55.2732033 C50.9769042,56.8662316 50.9769042,60.0522881 49.3838759,61.6453163 C47.7908476,63.2383446 44.6047911,63.2383446 43.0117629,62.4418305 L10.3546837,28.9882371 C8.7616554,27.3952089 8.7616554,24.2091524 10.3546837,22.6161241 C11.9477119,21.0230958 15.1337684,21.0230958 16.7267967,22.6161241 L22.3023956,28.191723 L47.7908476,10.6684122 L46.1978194,8.2788698 C43.808277,6.68584155 44.6047911,3.49978504 46.1978194,1.11024265 C47.7908476,-0.482785601 50.9769042,-0.482785601 52.5699324,1.90675678 L70.8897573,19.4300676 L70.8897573,19.4300676 Z" id="Shape"></path>
            </g>
        </g>
    </g>
</svg>