<?xml version="1.0" encoding="UTF-8"?>
<svg width="56px" height="88px" viewBox="0 0 56 88" version="1.1" xmlns="http://www.w3.org/2000/svg" xmlns:xlink="http://www.w3.org/1999/xlink">
    <!-- Generator: Sketch 53.2 (72643) - https://sketchapp.com -->
    <title>图钉未标记</title>
    <desc>Created with Sketch.</desc>
    <g id="Page-1" stroke="none" stroke-width="1" fill="none" fill-rule="evenodd">
        <g id="Artboard" transform="translate(-2492.000000, -526.000000)" fill="#333333" fill-rule="nonzero">
            <g id="图钉未标记" transform="translate(2492.000000, 526.000000)">
                <path d="M25.0955855,78.2486273 C25.0955855,75.9957451 24.532365,63.0416727 23.4059239,55.1565851 L32.4174526,55.1565851 C31.854232,63.6048932 30.7277909,75.9957451 30.7277909,78.2486273 C30.7277909,81.6279505 29.6013499,85.0072738 27.9116882,87.8233765 C26.7852472,84.4440532 25.0955855,81.6279505 25.0955855,78.2486273 Z M40.8657607,0.524192658 C43.1186428,0.524192658 45.371525,2.77707482 44.8083045,5.59317753 C44.2450839,8.40928023 43.1186428,10.6621624 40.3025401,10.0989419 L38.049658,10.0989419 L43.1186428,41.0760716 L51.0037304,41.0760716 C53.2566126,41.0760716 55.5094947,43.3289538 55.5094947,45.5818359 C55.5094947,47.8347181 53.2566126,50.0876003 51.566951,50.6508208 L4.81964607,50.0876003 C2.56676391,50.0876003 0.313881743,47.8347181 0.313881743,45.5818359 C0.313881743,43.3289538 2.56676391,41.0760716 4.81964607,41.0760716 L12.7047336,41.0760716 L18.3369391,10.6621624 L15.5208363,10.0989419 C12.7047336,10.6621624 11.015072,7.84605969 10.4518515,5.02995698 C10.4518515,2.77707482 12.7047336,0.524192658 15.5208363,1.0874132 L40.8657607,0.524192658 L40.8657607,0.524192658 Z" id="Shape"></path>
            </g>
        </g>
    </g>
</svg>