<?xml version="1.0" encoding="UTF-8"?>
<svg width="88px" height="116px" viewBox="0 0 88 116" version="1.1" xmlns="http://www.w3.org/2000/svg" xmlns:xlink="http://www.w3.org/1999/xlink">
    <!-- Generator: Sketch 53.2 (72643) - https://sketchapp.com -->
    <title>flow</title>
    <desc>Created with Sketch.</desc>
    <g id="Page-1" stroke="none" stroke-width="1">
        <g id="Artboard" transform="translate(-1170.000000, -1455.000000)">
            <g id="flow" transform="translate(1170.000000, 1455.000000)">
                <path d="M43.867355,116 C37.7609514,116 31.9321115,114.895238 26.3808353,112.409524 C21.1071231,110.2 16.3885384,106.885714 12.2250813,102.742857 C4.17573092,94.4571429 -0.265289907,83.6857143 0.0122738539,72.0857143 C0.289837615,62.9714286 2.78791186,54.6857143 8.61675189,45.847619 L35.5404409,4.41904758 C37.4833875,1.65714286 40.5365894,0 43.867355,0 C47.1981207,0 50.2513226,1.65714286 52.1942692,4.41904758 L81.3384687,49.7142857 C83.5589792,53.8571429 84.9467981,57.1714286 86.0570534,60.4857143 C87.4448725,64.352381 88,68.2190476 88,72.0857143 C88,83.6857143 83.2814153,94.7333333 75.232065,103.019048 C66.627587,111.580952 55.5250348,116 43.867355,116 Z M43.5967329,12.1380952 C43.333841,12.1380952 43.070949,12.1380952 43.070949,12.400067 L17.5704343,51.9578136 C13.1012718,59.031053 10.9981367,65.318377 10.7352447,72.3916164 C10.4723528,81.0366868 13.8899476,89.1578136 19.9364614,95.1831657 C23.0911643,98.3268277 26.508759,100.684574 30.7150295,102.518377 C34.9212999,104.35218 39.1275705,105.138095 43.8596248,105.138095 C52.5350576,105.138095 60.9475986,101.732461 66.9941124,95.4451375 C73.3035181,89.1578136 76.7211128,81.0366868 76.7211129,72.1296445 C76.7211129,66.8902078 75.1437615,62.1747149 71.4632748,55.1014756 L44.3854086,12.400067 C44.1225167,12.1380952 43.8596248,12.1380952 43.5967329,12.1380952 Z" id="Shape"></path>
                <path d="M38.5402884,46.0000145 C40.0913726,46.0000145 41.4468246,47.2721084 41.4468246,48.8387925 L41.4468246,93.161222 C41.4617766,93.9022286 41.167909,94.6183874 40.6302689,95.1511783 C40.0926288,95.6839693 38.3555595,95.9894489 37.5822096,96 L37.5402884,96 C35.9260523,95.9708088 33.6334648,94.7083546 33.6337522,93.161222 L33.6337522,68.2147912 L27.473093,68.2147912 C24.2731085,68.2147912 23.0573938,66.15266 24.7901366,63.5549103 L34.655591,48.7450593 C35.0206514,48.1104182 35.543913,47.5721964 36.1787278,47.1783752 C36.7160274,46.4375954 37.5988621,45.9970826 38.5402884,46.0000145 Z M49.3285519,95.9998768 C47.8035636,95.9779013 46.5787917,94.724669 46.5789474,93.1863789 L46.5789474,48.8268955 C46.5789474,47.23258 48.8142769,46 50.3285519,46 C51.8029775,46 54.0914395,47.2593752 54.0914395,48.8268955 L54.0914395,73.8000387 L59.7292299,73.8000387 C62.7710629,73.8000387 63.8868444,75.8900657 62.2397383,78.4356114 L52.26412,93.8562594 C52.1152521,94.1097183 51.9417143,94.3475845 51.7460786,94.5663327 C51.2648951,95.4581538 50.3351581,96.0094689 49.3285519,95.9998768 Z" id="Combined-Shape"></path>
            </g>
        </g>
    </g>
</svg>
