<svg width="26" height="16" xmlns="http://www.w3.org/2000/svg"><g fill="#5A626B" fill-rule="nonzero"><path d="M12.823 15.209C5.964 15.209.596 8.349.298 8.052L0 7.604l.298-.447C.596 6.859 5.964 0 12.823 0s12.226 6.859 12.525 7.157l.298.447-.298.448c-.299.298-5.666 7.157-12.525 7.157zM1.938 7.604c1.342 1.491 5.815 6.114 10.885 6.114 5.219 0 9.692-4.623 10.885-6.114-1.193-1.49-5.666-6.113-10.885-6.113-5.219 0-9.692 4.622-10.885 6.113z"/><path d="M12.823 12.376c-2.684 0-4.771-2.088-4.771-4.772s2.087-4.771 4.77-4.771c2.685 0 4.772 2.087 4.772 4.771 0 2.684-2.087 4.772-4.771 4.772zm0-8.052c-1.79 0-3.28 1.491-3.28 3.28 0 1.79 1.49 3.28 3.28 3.28 1.79 0 3.28-1.49 3.28-3.28 0-1.789-1.49-3.28-3.28-3.28z"/></g></svg>