<?xml version="1.0" standalone="no"?><!DOCTYPE svg PUBLIC "-//W3C//DTD SVG 1.1//EN" "http://www.w3.org/Graphics/SVG/1.1/DTD/svg11.dtd"><svg t="1617354078205" class="icon" viewBox="0 0 1024 1024" version="1.1" xmlns="http://www.w3.org/2000/svg" p-id="4541" xmlns:xlink="http://www.w3.org/1999/xlink" width="200" height="200"><defs><style type="text/css"></style></defs><path d="M819.2 877.226667H204.8c-58.026667 0-102.4-44.373333-102.4-102.4v-477.866667c0-58.026667 44.373333-102.4 102.4-102.4h211.626667c27.306667 0 54.613333 10.24 71.68 30.72l13.653333 13.653333c13.653333 13.653333 13.653333 34.133333 0 47.786667s-34.133333 13.653333-47.786667 0l-13.653333-13.653333c-6.826667-6.826667-13.653333-10.24-23.893333-10.24H204.8c-20.48 0-34.133333 13.653333-34.133333 34.133333v477.866667c0 20.48 13.653333 34.133333 34.133333 34.133333h614.4c20.48 0 34.133333-13.653333 34.133333-34.133333v-341.333334c0-20.48-13.653333-34.133333-34.133333-34.133333H273.066667c-20.48 0-34.133333-13.653333-34.133334-34.133333s13.653333-34.133333 34.133334-34.133334h546.133333c58.026667 0 102.4 44.373333 102.4 102.4v341.333334c0 54.613333-44.373333 102.4-102.4 102.4z" fill="#D5BA93" p-id="4542"></path></svg>