<!-- Generated by IcoMoon.io -->
<svg version="1.1" xmlns="http://www.w3.org/2000/svg" width="1024" height="1024" viewBox="0 0 1024 1024">
<title></title>
<g id="icomoon-ignore">
</g>
<path d="M639.328 416c8.032 0 16.096-3.008 22.304-9.056l202.624-197.184-0.8 143.808c-0.096 17.696 14.144 32.096 31.808 32.192 0.064 0 0.128 0 0.192 0 17.6 0 31.904-14.208 32-31.808l1.248-222.208c0-0.672-0.352-1.248-0.384-1.92 0.032-0.512 0.288-0.896 0.288-1.408 0.032-17.664-14.272-32-31.968-32.032l-225.12-0.384c-17.664 0-31.968 14.304-32 31.968s14.304 32.032 31.968 32.032l151.872 0.224-206.368 200.8c-12.672 12.32-12.928 32.608-0.64 45.248 6.304 6.464 14.624 9.728 22.976 9.728zM896.032 639.552v0c-17.696 0-32 14.304-32.032 31.968l-0.224 151.872-200.832-206.4c-12.32-12.64-32.576-12.96-45.248-0.64-12.672 12.352-12.928 32.608-0.64 45.248l197.184 202.624-143.808-0.8c-0.064 0-0.128 0-0.192 0-17.6 0-31.904 14.208-32 31.808-0.096 17.696 14.144 32.096 31.808 32.192l222.24 1.248c0.064 0 0.128 0 0.192 0 0.64 0 1.12-0.32 1.76-0.352 0.512 0.032 0.896 0.288 1.408 0.288h0.032c17.664 0 31.968-14.304 32-31.968l0.32-225.056c0.032-17.632-14.272-32-31.968-32.032zM209.76 159.744l143.808 0.8c0.064 0 0.128 0 0.192 0 17.6 0 31.904-14.208 32-31.808 0.096-17.696-14.144-32.096-31.808-32.192l-222.272-1.216c-0.064 0-0.128 0-0.192 0-0.672 0-1.248 0.352-1.888 0.384-0.448 0-0.8-0.256-1.248-0.256 0 0-0.032 0-0.032 0-17.664 0-31.968 14.304-32 31.968l-0.32 225.024c-0.032 17.664 14.272 32 31.968 32.032 0 0 0.032 0 0.032 0 17.664 0 31.968-14.304 32-31.968l0.224-151.936 200.832 206.4c6.272 6.464 14.624 9.696 22.944 9.696 8.032 0 16.096-3.008 22.304-9.056 12.672-12.32 12.96-32.608 0.64-45.248l-197.184-202.624zM362.368 617.056l-202.624 197.184 0.8-143.808c0.096-17.696-14.144-32.096-31.808-32.192-0.064 0-0.128 0-0.192 0-17.6 0-31.904 14.208-32 31.808l-1.248 222.24c0 0.704 0.352 1.312 0.384 2.016 0 0.448-0.256 0.832-0.256 1.312-0.032 17.664 14.272 32 31.968 32.032l225.056 0.352c0 0 0.032 0 0.032 0 17.664 0 31.968-14.304 32-31.968s-14.272-32-31.968-32.032l-151.936-0.224 206.4-200.832c12.672-12.352 12.96-32.608 0.64-45.248s-32.608-12.992-45.248-0.64z"></path>
</svg>
