<svg width="116" height="116" xmlns="http://www.w3.org/2000/svg"><path d="M69.928 79.286a23.358 23.358 0 0 1 0-7.783L38.69 57.873A23.199 23.199 0 0 1 .207 37.519a23.2 23.2 0 0 1 42.485-9.499l13.467-4.518a5.8 5.8 0 1 1 3.688 10.997l-13.496 4.53c.2 3.053-.198 6.117-1.171 9.018l29.498 12.87A23.199 23.199 0 0 1 116 75.388a23.2 23.2 0 0 1-41.305 14.52l-28.35 10.126a17.4 17.4 0 1 1-24.578-17.257 17.399 17.399 0 0 1 21.603 6.005l26.558-9.489v-.006zM32.078 33.13c-2.703-4.03-9.675-5.37-14.53-2.659A11.6 11.6 0 1 0 34.782 41.32c0-1.44 0-4.16-2.703-8.19zm54.924 1.67a17.4 17.4 0 1 1 0-34.8C96.611 0 104.4 7.79 104.4 17.4s-7.789 17.4-17.398 17.4zm0-11.6a5.8 5.8 0 1 0 .002-11.6 5.8 5.8 0 0 0-.002 11.6zm5.8 63.8c6.406 0 11.6-5.193 11.6-11.6 0-6.406-5.194-11.6-11.6-11.6s-11.6 5.194-11.6 11.6c0 6.407 5.194 11.6 11.6 11.6zm-63.798 17.4a5.8 5.8 0 1 0 .002-11.599 5.8 5.8 0 0 0-.002 11.6z" fill="#333" fill-rule="nonzero"/></svg>