<?xml version="1.0" standalone="no"?><!DOCTYPE svg PUBLIC "-//W3C//DTD SVG 1.1//EN" "http://www.w3.org/Graphics/SVG/1.1/DTD/svg11.dtd"><svg t="1617354627883" class="icon" viewBox="0 0 1041 1024" version="1.1" xmlns="http://www.w3.org/2000/svg" p-id="5668" xmlns:xlink="http://www.w3.org/1999/xlink" width="203.3203125" height="200"><defs><style type="text/css"></style></defs><path d="M290.785215 490.36705H130.619637c-71.786878 0-130.191301-58.404423-130.191301-130.191301v-160.165578c0-71.786878 58.404423-130.191301 130.191301-130.191301h160.165578c71.786878 0 130.191301 58.404423 130.191301 130.191301v160.165578c0 71.786878-58.404423 130.191301-130.191301 130.191301z m-160.165578-362.012556c-39.511546 0-71.655677 32.144131-71.655677 71.655677v160.165578c0 39.511546 32.144131 71.655677 71.655677 71.655677h160.165578c39.511546 0 71.655677-32.144131 71.655677-71.655677v-160.165578c0-39.511546-32.144131-71.655677-71.655677-71.655677H130.619637zM290.785215 1024H130.619637c-71.786878 0-130.191301-58.404423-130.191301-130.191301v-160.165578c0-71.786878 58.404423-130.191301 130.191301-130.191301h160.165578c71.786878 0 130.191301 58.404423 130.191301 130.191301v160.165578c0 71.786878-58.404423 130.191301-130.191301 130.191301z m-160.165578-362.012556c-39.511546 0-71.655677 32.144131-71.655677 71.655677v160.165578c0 39.511546 32.144131 71.655677 71.655677 71.655677h160.165578c39.511546 0 71.655677-32.144131 71.655677-71.655677v-160.165578c0-39.511546-32.144131-71.655677-71.655677-71.655677H130.619637zM783.927661 523.540601c-34.778234 0-67.467353-13.543932-92.062407-38.128894L578.619006 372.155367c-24.595054-24.584962-38.128894-57.284173-38.128894-92.062407s13.543932-67.467353 38.128894-92.062407L691.865254 74.784306c24.595054-24.584962 57.284173-38.128894 92.062407-38.128895s67.467353 13.543932 92.062407 38.128895l113.256339 113.256339c24.595054 24.584962 38.128894 57.284173 38.128895 92.062407s-13.543932 67.467353-38.128895 92.062407l-113.256339 113.236155c-24.595054 24.595054-57.284173 38.138987-92.062407 38.138987z m-50.673684-79.52771c13.53384 13.53384 31.528498 20.992086 50.673684 20.992086s37.129752-7.458246 50.663591-20.981993l113.25634-113.25634c13.53384-13.53384 20.981993-31.528498 20.981993-50.663592s-7.448154-37.129752-20.981993-50.673684L834.591252 116.173029c-13.53384-13.53384-31.528498-20.992086-50.663591-20.992086s-37.129752 7.458246-50.673684 20.992086L620.007729 229.429368c-13.53384 13.53384-20.981993 31.528498-20.981993 50.673684s7.448154 37.129752 20.981993 50.663592l113.246248 113.246247zM864.010449 1024h-160.165577c-71.786878 0-130.191301-58.404423-130.191301-130.191301v-160.165578c0-71.786878 58.404423-130.191301 130.191301-130.191301h160.165577c71.786878 0 130.191301 58.404423 130.191302 130.191301v160.165578c0 71.786878-58.404423 130.191301-130.191302 130.191301z m-160.165577-362.012556c-39.511546 0-71.655677 32.144131-71.655678 71.655677v160.165578c0 39.511546 32.144131 71.655677 71.655678 71.655677h160.165577c39.511546 0 71.655677-32.144131 71.655678-71.655677v-160.165578c0-39.511546-32.144131-71.655677-71.655678-71.655677h-160.165577z" p-id="5669" fill="#D5BA93"></path></svg>