<?xml version="1.0" standalone="no"?><!DOCTYPE svg PUBLIC "-//W3C//DTD SVG 1.1//EN" "http://www.w3.org/Graphics/SVG/1.1/DTD/svg11.dtd"><svg t="1617346945594" class="icon" viewBox="0 0 1024 1024" version="1.1" xmlns="http://www.w3.org/2000/svg" p-id="2559" xmlns:xlink="http://www.w3.org/1999/xlink" width="200" height="200"><defs><style type="text/css"></style></defs><path d="M116.948037 343.849302h115.494431c13.866822 0 25.148773-11.700483 25.148773-26.077935 0-14.381545-11.281951-26.083052-25.148773-26.083052H116.948037c-13.867846 0-25.15082 11.701506-25.15082 26.083052 0 14.377452 11.281951 26.077935 25.15082 26.077935zM116.948037 531.208481h115.494431c13.866822 0 25.148773-11.69946 25.148773-26.078959 0-6.965645-2.615571-13.514805-7.365758-18.439978-4.750187-4.925173-11.066033-7.640004-17.783015-7.640004H116.948037c-13.867846 0-25.15082 11.700483-25.15082 26.079982 0 14.379499 11.281951 26.078958 25.15082 26.078959zM257.591241 691.800016c0-6.969739-2.615571-13.520945-7.366781-18.445095-4.749164-4.926196-11.06501-7.641027-17.781992-7.641027H116.948037c-13.867846 0-25.15082 11.70253-25.15082 26.086122 0 14.377452 11.282974 26.073842 25.15082 26.073842h115.494431c13.866822 0.001023 25.148773-11.695367 25.148773-26.073842zM338.175581 718.26476l-3.39533 8.241709h56.053644l1.681292-3.171226c26.273387-49.514717 88.028892-85.744873 150.142555-88.105641h6.066159c2.289136 0 4.562922 0 6.782474 0.005117 62.145385 2.360767 123.900891 38.587853 150.178371 88.100524l1.681292 3.171226h56.056713l-3.396353-8.241709c-10.207479-24.774243-28.0171-49.005111-51.503001-70.068845-18.481933-16.575514-40.379663-31.149441-63.423495-42.22366 22.687722-14.728446 41.967834-34.592866 55.834656-57.547671 16.476253-27.269064 25.184589-58.594513 25.184589-90.589204 0-97.816816-79.580476-177.394223-177.395246-177.394223-97.820909 0-177.402409 79.579453-177.402409 177.394223 0 32.061207 8.743128 63.443961 25.285896 90.75191 13.928221 22.998807 33.288151 42.878576 56.062854 57.594743-22.958898 11.092639-44.763506 25.65224-63.158459 42.178634-23.408129 21.027919-41.160445 45.200458-51.336202 69.904093z m210.547297-386.233621c69.365834 0 125.799124 56.434314 125.799124 125.803217 0 69.365834-56.432267 125.798101-125.799124 125.798101-69.367881 0-125.803217-56.431244-125.803218-125.798101 0-69.368904 56.435337-125.803217 125.803218-125.803217z" fill="#D5BA93" p-id="2560"></path><path d="M848.424 63.251h-599.407c-52.319 0-94.881 42.561-94.881 94.88v71.012h50.908v-60.41c0-35.955 19.006-54.962 54.966-54.962h578.356c35.955 0 54.96 19.006 54.96 54.962v672.747c0 35.96-19.003 54.968-54.96 54.968h-578.357c-35.959 0-54.966-19.006-54.966-54.968v-60.401h-50.908v69.968c0 52.32 42.562 94.883 94.881 94.883h599.408c52.319 0 94.883-42.563 94.883-94.883v-692.92c0-52.314-42.564-94.877-94.883-94.877z" fill="#D5BA93" p-id="2561"></path></svg>