<?xml version="1.0" encoding="UTF-8"?>
<svg width="116px" height="110px" viewBox="0 0 116 110" version="1.1" xmlns="http://www.w3.org/2000/svg" xmlns:xlink="http://www.w3.org/1999/xlink">
    <!-- Generator: Sketch 53.2 (72643) - https://sketchapp.com -->
    <title>gateway</title>
    <desc>Created with Sketch.</desc>
    <g id="Page-1" stroke="none" stroke-width="1">
        <g id="Artboard" transform="translate(-1142.000000, -75.000000)">
            <g id="gateway" transform="translate(1142.000000, 75.000000)">
                <path d="M110.893004,69 L110.893004,76.6705821 C110.893004,76.6705821 87.4731752,75.2119086 79.3132505,105.577752 L71,105.577903 C71,105.577903 78.5266731,69.8325534 110.893004,69 Z M110.893156,84.5658536 L110.893156,92.2365873 C110.893156,92.2365873 100.249991,94.4611252 97.1566252,105.5776 L87.8433748,105.5776 C87.8433748,105.577903 93.130009,87.0669999 110.893156,84.5658536 Z M109.773265,100.121704 C112.10645,100.121704 114,102.10995 114,104.560928 C114,107.011906 112.109939,109 109.773265,109 C107.43993,109 105.549868,107.011906 105.549868,104.560928 C105.549868,102.10995 107.443115,100.121552 109.773265,100.121552 L109.773265,100.121704 Z" id="Shape"></path>
                <path d="M116,0 L62.142647,0 L62.142647,22.8332485 L16.5713424,22.8332485 L16.5713424,49.8134732 L0,49.8134732 L0,95.4732953 L22.7855015,95.4732953 L22.7855015,103.773316 L6.21430996,103.773316 L6.21430996,110 L55.9284879,110 L55.9284879,103.773316 L39.3571456,103.773316 L39.3571456,95.4732953 L62.1429487,95.4732953 L62.1429487,49.8104392 L25.7858032,49.8104392 L25.7858032,32.0568986 L62.1429487,32.0568986 L62.1429487,41.5069294 L80.7857278,41.5069294 L80.7857278,47.7336136 L68.3571078,47.7336136 L68.3571078,51.8836238 L109.785841,51.8836238 L109.785841,47.7336136 L97.357221,47.7336136 L97.357221,41.5069294 L116,41.5069294 L116,0 Z M55.0712481,88.6836934 L7.07124811,88.6836934 L7.07124811,56.6836934 L55.0712481,56.6836934 L55.0712481,88.6836934 Z M70.0711727,7.7552093 L108.071173,7.7552093 L108.071173,34.7552093 L70.0711727,34.7552093 L70.0711727,7.7552093 Z" id="Shape"></path>
            </g>
        </g>
    </g>
</svg>
