<?xml version="1.0" standalone="no"?><!DOCTYPE svg PUBLIC "-//W3C//DTD SVG 1.1//EN" "http://www.w3.org/Graphics/SVG/1.1/DTD/svg11.dtd"><svg t="1561374682712" class="icon" viewBox="0 0 1024 1024" version="1.1" xmlns="http://www.w3.org/2000/svg" p-id="6307" xmlns:xlink="http://www.w3.org/1999/xlink" width="200" height="200"><defs><style type="text/css"></style></defs><path d="M258.56 560.64a256.3072 256.3072 0 0 0 199.68 199.68v258.6112A512.1536 512.1536 0 0 1 0 560.6912h258.56z m199.68-302.08a256.3072 256.3072 0 0 0-199.68 199.68H0A512.1536 512.1536 0 0 1 458.24 0v258.56z m302.08 199.68a256.3072 256.3072 0 0 0-199.68-199.68V0a512.1536 512.1536 0 0 1 458.2912 458.24h-258.56z m-199.68 302.08a256.3072 256.3072 0 0 0 199.68-199.68h258.6112a512.1536 512.1536 0 0 1-458.24 458.2912v-258.56z" p-id="6308" fill="#333333"></path></svg>