<?xml version="1.0" encoding="UTF-8"?>
<svg width="12px" height="10px" viewBox="0 0 12 10" version="1.1" xmlns="http://www.w3.org/2000/svg" xmlns:xlink="http://www.w3.org/1999/xlink">
    <!-- Generator: Sketch 53.2 (72643) - https://sketchapp.com -->
    <title>分组</title>
    <desc>Created with Sketch.</desc>
    <g id="页面-1" stroke="none" stroke-width="1" fill="none" fill-rule="evenodd">
        <g id="2-copy" transform="translate(-258.000000, -224.000000)" fill-rule="nonzero">
            <g id="Group-6" transform="translate(239.000000, 91.000000)">
                <g id="Group-4" transform="translate(15.000000, 128.000000)">
                    <g id="分组" transform="translate(4.000000, 5.000000)">
                        <path d="M2.9894321,0.605919461 L10.2712099,0.605919461 C11.0297284,0.605919461 11.3837037,0.95371179 11.3837037,1.69898108 L11.3837037,7.61145076 C11.3837037,8.35672004 11.0297284,8.70451237 10.2712099,8.70451237 L2.9894321,8.70451237 C2.23091359,8.70451237 1.87693828,8.35672004 1.87693827,7.61145076 L1.87693827,1.69898108 C1.87693827,1.0033964 2.28148148,0.605919461 2.9894321,0.605919461" id="Path" fill="#8DDFFF"></path>
                        <path d="M0.00592592593,1.10276565 C0.00592592593,0.804657933 0.107061733,0.506550218 0.35990123,0.307811747 C0.612740726,0.109073275 0.815012341,0.00970403202 1.11841975,0.00970403202 L4.40533333,0.00970403202 C4.91101234,0.00970403202 5.36612345,0.357496361 5.46725926,0.804657933 L5.77066667,1.84803493 L10.8780247,1.84803493 C11.1814321,1.84803493 11.4848395,1.94740418 11.6871111,2.19582726 C11.8893827,2.39456574 11.9905185,2.69267345 11.9905185,2.99078118 L11.9905185,8.90325084 C11.9905185,9.49946627 11.4848395,9.99631246 10.8780247,9.99631247 L1.11841975,9.99631247 C0.511604933,9.94662785 0.00592592593,9.44978166 0.00592592593,8.85356623 L0.00592592593,1.10276565 Z" id="Path" fill="#5EC4FC"></path>
                    </g>
                </g>
            </g>
        </g>
    </g>
</svg>