<svg class="icon" viewBox="0 0 1024 1024" xmlns="http://www.w3.org/2000/svg" width="200" height="200"><path d="M974.996 774.774H49.004V220.366h857.088c38.111 0 69.042 30.931 69.042 69.042v485.366h-.138zM627.714 220.366c0-63.933-51.781-115.714-115.714-115.714H49.004v115.714h578.71" fill="#CE9F06"/><path d="M164.719 620.258V273.115H859.28v347.143H164.72z" fill="#FFF"/><path d="M974.996 848.097V398.495c0-31.898-25.96-57.857-57.857-57.857H106.86c-31.897 0-57.857 25.96-57.857 57.857v449.464c0 39.354 31.897 71.389 71.39 71.389h783.35c39.355.138 71.252-31.897 71.252-71.251z" fill="#FFCD2C"/></svg>