<!-- Generated by IcoMoon.io -->
<svg version="1.1" xmlns="http://www.w3.org/2000/svg" width="1024" height="1024" viewBox="0 0 1024 1024">
<title></title>
<g id="icomoon-ignore">
</g>
<path d="M870.4 204.8c-18.637 0-36.147 5.018-51.2 13.773v-64.973c0-56.474-45.926-102.4-102.4-102.4-21.094 0-40.653 6.4-56.986 17.357-14.029-39.885-52.019-68.557-96.614-68.557s-82.637 28.672-96.614 68.557c-16.282-10.957-35.891-17.357-56.986-17.357-56.474 0-102.4 45.926-102.4 102.4v377.498l-68.915-119.45c-13.363-24.32-35.174-41.626-61.389-48.794-25.549-6.963-52.122-3.277-74.854 10.342-46.438 27.853-64.154 90.829-39.424 140.39 1.536 3.123 34.202 70.042 136.192 273.92 48.026 96 100.71 164.659 156.621 203.981 43.878 30.874 74.189 32.461 79.821 32.461h256c43.571 0 84.070-14.182 120.422-42.086 34.15-26.266 63.795-64.256 88.064-112.845 47.821-95.642 73.114-227.942 73.114-382.669v-179.2c0-56.474-45.926-102.4-102.4-102.4zM921.6 486.4c0 146.79-23.398 271.155-67.686 359.731-28.877 57.754-80.589 126.669-162.714 126.669h-255.488c-1.997-0.154-23.552-2.56-56.064-26.88-32.41-24.269-82.176-75.366-135.066-181.248-103.782-207.565-135.68-272.947-135.987-273.562-0.051-0.102-0.051-0.154-0.102-0.205-12.851-25.754-3.738-59.494 19.917-73.677 10.65-6.4 23.091-8.090 35.072-4.864 12.749 3.482 23.45 12.083 30.054 24.166 0.102 0.154 0.205 0.358 0.307 0.512l79.923 138.496c16.333 29.85 34.714 42.394 54.63 37.325 19.968-5.069 30.054-25.037 30.054-59.238v-400.026c0-28.211 22.989-51.2 51.2-51.2s51.2 22.989 51.2 51.2v332.8c0 14.131 11.469 25.6 25.6 25.6s25.6-11.469 25.6-25.6v-384c0-28.211 22.989-51.2 51.2-51.2s51.2 22.989 51.2 51.2v384c0 14.131 11.469 25.6 25.6 25.6s25.6-11.469 25.6-25.6v-332.8c0-28.211 22.989-51.2 51.2-51.2s51.2 22.989 51.2 51.2v384c0 14.131 11.469 25.6 25.6 25.6s25.6-11.469 25.6-25.6v-230.4c0-28.211 22.989-51.2 51.2-51.2s51.2 22.989 51.2 51.2v179.2z"></path>
</svg>
