<?xml version="1.0" standalone="no"?><!DOCTYPE svg PUBLIC "-//W3C//DTD SVG 1.1//EN" "http://www.w3.org/Graphics/SVG/1.1/DTD/svg11.dtd"><svg t="1698390796564" class="icon" viewBox="0 0 1024 1024" version="1.1" xmlns="http://www.w3.org/2000/svg" p-id="7260" xmlns:xlink="http://www.w3.org/1999/xlink" width="200" height="200"><path d="M512 47.476364c-256.651636 0-465.454545 208.802909-465.454545 465.454545 0 256.698182 208.802909 465.501091 465.454545 465.501091s465.454545-208.802909 465.454545-465.501091-208.802909-465.454545-465.454545-465.454545z m0 861.137454c-218.158545 0-395.636364-177.477818-395.636364-395.682909 0-218.158545 177.477818-395.636364 395.636364-395.636364 218.158545 0 395.636364 177.477818 395.636364 395.636364 0 218.158545-177.477818 395.682909-395.636364 395.682909zM687.522909 418.443636a173.474909 173.474909 0 0 1-138.379636 169.704728v52.130909a34.909091 34.909091 0 0 1-69.818182 0v-83.456a34.909091 34.909091 0 0 1 34.909091-34.909091c57.064727 0 103.470545-46.405818 103.470545-103.470546s-46.405818-103.470545-103.470545-103.470545-103.517091 46.405818-103.517091 103.470545a34.909091 34.909091 0 0 1-69.818182 0 173.474909 173.474909 0 0 1 173.288727-173.288727 173.521455 173.521455 0 0 1 173.335273 173.288727zM512 715.217455a48.081455 48.081455 0 1 0 0 96.116363 48.081455 48.081455 0 0 0 0-96.116363z" fill="#231815" p-id="7261"></path></svg>