<svg class="icon" width="16" height="16" viewBox="0 0 1024 1024" xmlns="http://www.w3.org/2000/svg"><path d="M780.64 148.405a475.492 475.492 0 0 1 83.882 77.955 510.035 510.035 0 0 1 62.859 94.075c17.484 33.69 30.747 69.34 39.83 106.954 9.126 37.655 13.647 75.78 13.647 114.502 0 66.654-12.367 129.214-37.23 187.638a491.27 491.27 0 0 1-100.642 152.626 478.05 478.05 0 0 1-148.831 103.201 443.295 443.295 0 0 1-182.947 38.168c-64.266 0-124.908-12.709-181.839-38.168a484.234 484.234 0 0 1-149.385-103.2c-42.645-43.37-76.164-94.246-100.643-152.67-24.435-58.424-36.674-120.941-36.674-187.638 0-37.954 4.35-75.226 13.092-111.773a504.064 504.064 0 0 1 37.229-104.267c16.077-32.964 35.992-63.797 59.746-92.454a515.323 515.323 0 0 1 79.703-77.444c15.395-11.429 31.984-15.778 49.81-12.879 17.825 2.858 32.324 11.813 43.497 26.867s15.353 31.898 12.58 50.534c-2.814 18.636-11.513 33.69-26.226 45.161A331.65 331.65 0 0 0 210.944 387.09a348.58 348.58 0 0 0-35.097 154.802c0 47.336 8.742 91.9 26.184 133.82 17.485 41.962 41.409 78.467 71.814 109.683a343.634 343.634 0 0 0 106.912 74.202 315.957 315.957 0 0 0 130.493 27.378 315.914 315.914 0 0 0 130.494-27.42 343.719 343.719 0 0 0 106.954-74.203 353.1 353.1 0 0 0 72.326-109.598c17.826-41.962 26.738-86.57 26.738-133.905 0-55.865-12.58-108.745-37.74-158.554A332.845 332.845 0 0 0 704.134 260.22a64.863 64.863 0 0 1-27.762-44.095c-3.156-18.636.512-35.822 11.002-51.6a64.053 64.053 0 0 1 42.987-27.421c18.166-3.199 34.969.554 50.32 11.3zM511.25 545.089c-18.166 0-33.69-6.61-46.653-19.873a66.1 66.1 0 0 1-19.404-47.847V68.829c0-18.636 6.482-34.756 19.404-48.36C477.518 6.824 493.084.044 511.25.044c18.85 0 34.756 6.823 47.678 20.427 12.964 13.646 19.403 29.723 19.403 48.36v408.539c0 18.635-6.44 34.585-19.403 47.847-12.922 13.263-28.829 19.873-47.678 19.873z"/></svg>