<?xml version="1.0" encoding="UTF-8"?>
<svg width="48px" height="48px" viewBox="0 0 48 48" version="1.1" xmlns="http://www.w3.org/2000/svg" xmlns:xlink="http://www.w3.org/1999/xlink">
    <!-- Generator: Sketch 53.2 (72643) - https://sketchapp.com -->
    <title>自定义</title>
    <desc>Created with Sketch.</desc>
    <g id="Page-1" stroke="none" stroke-width="1" fill="none" fill-rule="evenodd">
        <g id="Artboard" transform="translate(-1969.000000, -1608.000000)" fill="#48B04B" fill-rule="nonzero">
            <path d="M1970,1608 L2016,1608 C2016.55228,1608 2017,1608.44772 2017,1609 L2017,1655 C2017,1655.55228 2016.55228,1656 2016,1656 L1970,1656 C1969.44772,1656 1969,1655.55228 1969,1655 L1969,1609 C1969,1608.44772 1969.44772,1608 1970,1608 Z M1987,1622 L1987,1636.625 C1987,1637.38439 1987.58763,1638 1988.3125,1638 L2003,1638 L2003,1644 L1982,1644 L1982,1622 L1987,1622 Z M1991,1619.36364 C1991,1619.00198 1990.86112,1618.65513 1990.61391,1618.3994 C1990.36671,1618.14367 1990.03142,1618 1989.68182,1618 L1979.31818,1618 C1978.96858,1618 1978.63329,1618.14367 1978.38609,1618.3994 C1978.13888,1618.65513 1978,1619.00198 1978,1619.36364 L1978,1646.63636 C1978,1646.99802 1978.13888,1647.34487 1978.38609,1647.6006 C1978.63329,1647.85633 1978.96858,1648 1979.31818,1648 L2005.68182,1648 C2006.03142,1648 2006.36671,1647.85633 2006.61391,1647.6006 C2006.86112,1647.34487 2007,1646.99802 2007,1646.63636 L2007,1635.36364 C2007,1635.00198 2006.86112,1634.65513 2006.61391,1634.3994 C2006.36671,1634.14367 2006.03142,1634 2005.68182,1634 L1991,1634 L1991,1619.36364 Z M1998,1621 L2004,1621 L2004,1627 L1998,1627 L1998,1621 Z M2006.6,1617 L1995.4,1617 C1995.0287,1617 1994.6726,1617.1475 1994.41005,1617.41005 C1994.1475,1617.6726 1994,1618.0287 1994,1618.4 L1994,1629.6 C1994,1629.9713 1994.1475,1630.3274 1994.41005,1630.58995 C1994.6726,1630.8525 1995.0287,1631 1995.4,1631 L2006.6,1631 C2006.9713,1631 2007.3274,1630.8525 2007.58995,1630.58995 C2007.8525,1630.3274 2008,1629.9713 2008,1629.6 L2008,1618.4 C2008,1618.0287 2007.8525,1617.6726 2007.58995,1617.41005 C2007.3274,1617.1475 2006.9713,1617 2006.6,1617 Z" id="自定义"></path>
        </g>
    </g>
</svg>