<svg width="16" height="16" xmlns="http://www.w3.org/2000/svg"><g transform="translate(1 1)" fill="none" fill-rule="evenodd"><rect fill="#FF9C23" width="14" height="14" rx="2"/><g fill="#FFF"><path d="M6.492 11a1 1 0 0 1-1-1V8h3v2a1 1 0 0 1-1 1h-1z"/><path d="M8.49 9.553h-1V8.74c.002-.113.011-.218.031-.32.066-.345.255-.605.442-.843l.242-.297c.103-.126.207-.251.305-.381.411-.54.552-1.117.431-1.764-.169-.904-1.004-1.588-1.942-1.592-.953.004-1.788.688-1.957 1.592-.12.647.021 1.224.431 1.764.1.13.204.258.309.385l.238.294c.216.266.414.512.478.844.019.1.028.207.03.31v.82h-1V8.74a.872.872 0 0 0-.012-.13c-.017-.086-.124-.218-.217-.334l-.289-.357a14.696 14.696 0 0 1-.333-.414c-.583-.767-.791-1.626-.618-2.554.259-1.39 1.488-2.402 2.921-2.408 1.456.006 2.685 1.018 2.944 2.408.173.928-.035 1.787-.618 2.554-.106.139-.217.275-.329.41l-.229.283c-.116.146-.222.287-.245.412a.827.827 0 0 0-.013.139v.804z"/></g></g></svg>