<?xml version="1.0" standalone="no"?><!DOCTYPE svg PUBLIC "-//W3C//DTD SVG 1.1//EN" "http://www.w3.org/Graphics/SVG/1.1/DTD/svg11.dtd"><svg t="1532502411772" class="icon" style="" viewBox="0 0 1116 1024" version="1.1" xmlns="http://www.w3.org/2000/svg" p-id="1974" xmlns:xlink="http://www.w3.org/1999/xlink" width="17.4375" height="16"><defs><style type="text/css"></style></defs><path d="M957.064604 622.387624a36.200893 36.200893 0 0 0-36.256673-36.256673h-145.026691a36.200893 36.200893 0 0 0-36.256673 36.256673v326.310055h-72.513346v-253.796709a36.200893 36.200893 0 0 0-36.256673-36.256673h-145.026691a36.200893 36.200893 0 0 0-36.256673 36.256673v253.796709h-72.513345v-145.026691a36.200893 36.200893 0 0 0-36.256673-36.256673h-145.026692a36.200893 36.200893 0 0 0-36.256672 36.256673v145.026691h-72.513346v72.513346h942.673494v-72.513346h-72.513346z m-725.133457 326.310055v-108.770018h72.513346v108.770018z m290.053383 0v-217.540037h72.513346v217.540037z m290.053383 0v-290.053382h72.513345v290.053382z" p-id="1975"></path><path d="M77.58928 948.697679h975.19294v75.302321H77.58928zM77.58928 335.067437h975.19294v75.30232H77.58928z" p-id="1976"></path><path d="M478.922758 103.526746L427.159386 0H0v1024h81.382286V81.382286H378.742782l51.763373 103.470966h604.593965v839.146748h81.326506V103.526746H478.922758z" p-id="1977"></path></svg>
