<?xml version="1.0" encoding="UTF-8"?>
<svg width="104px" height="128px" viewBox="0 0 104 128" version="1.1" xmlns="http://www.w3.org/2000/svg" xmlns:xlink="http://www.w3.org/1999/xlink">
    <!-- Generator: Sketch 53.2 (72643) - https://sketchapp.com -->
    <title>license</title>
    <desc>Created with Sketch.</desc>
    <g id="Page-1" stroke="none" stroke-width="1">
        <g id="Artboard" transform="translate(-1169.000000, -2220.000000)">
            <g id="license" transform="translate(1169.000000, 2220.000000)">
                <path d="M24,77.3 C24,80 25.8571429,81.8 28.6428571,81.8 L74,81.8 C76.7857143,81.8 78.6428571,80 78.6428571,77.3 C78.6428571,74.6 76.7857143,72.8 74,72.8 L28.6428571,72.8 C25.8571429,72.8 24,74.6 24,77.3 Z M74,94.6 L28.5,94.6 C25.8,94.6 24,96.4 24,99.1 C24,101.8 25.8,103.6 28.5,103.6 L74,103.6 C76.7,103.6 78.5,101.8 78.5,99.1 C78.5,96.4 76.7,94.6 74,94.6 Z M43.2,32.4 C44,32.8 44,33.6 44,34 L41.2,42.8 C40.8,44.4 42.4,45.6 43.6,44.4 L51.2,38.8 C51.6,38.4 52.4,38.4 53.2,38.8 L60.8,44.4 C62,45.2 63.6,44 63.2,42.8 L60,34 C59.6,33.2 60,32.8 60.4,32.4 L68,26.8 C69.6,26 68.8,24 67.2,24 L58,24 C57.2,24 56.8,23.6 56.4,22.8 L53.6,14 C53.2,12.4 51.2,12.4 50.4,14 L47.6,22.8 C47.2,23.6 46.8,24 46,24 L36.8,24 C35.2,24 34.8,26 36,26.8 L43.2,32.4 L43.2,32.4 Z" id="Shape"></path>
                <path d="M92,23.2 L81.2,23.2 C81.6,25.2 82,27.6 82,30 L82,32.2 L92,32.2 C94,32.2 95,33.8 95,36.2 L95,114.6 C95,116.6 94.4,118.6 92,118.6 L12,118.6 C10,118.6 9,117 9,114.6 L9,36.2 C9,34.2 9.6,32.2 12,32.2 L22,32.2 L22,30 C22,27.6 22.4,25.6 22.8,23.2 L12,23.2 C5.6,23.2 0,28.4 0,35.2 L0,115.6 C0,122 5.2,127.6 12,127.6 L92,127.6 C98.4,127.6 104,122.4 104,115.6 L104,35.2 C104,28.8 98.8,23.2 92,23.2 Z" id="Path"></path>
                <path d="M26.4,31.2 L22,31.2 C22.8,47.2 36,60 52,60 C68,60 81.2,47.2 82,31.2 L77.2,31.2 L77.2,23.2 L81.6,23.2 C78,10 66.4,0 52,0 C37.6,0 26,10 22.8,23.2 L26.4,23.2 L26.4,31.2 Z M52,9 C63.4545455,9 73,18.5454545 73,30 C73,41.4545455 63.4545455,51 52,51 C40.5454545,51 31,41.4545455 31,30 C31,18.5454545 40.5454545,9 52,9 Z" id="Shape"></path>
                <path d="M77.2,31.2 L82,31.2 L82,30 C82,27.6 81.6,25.6 81.2,23.2 L76.8,23.2 L76.8,31.2 L77.2,31.2 Z M22,31.2 L26.4,31.2 L26.4,23.2 L22.8,23.2 C22.4,25.6 22,27.6 22,30 L22,31.2 Z" id="Shape"></path>
            </g>
        </g>
    </g>
</svg>
