<?xml version="1.0" encoding="UTF-8"?>
<svg width="115px" height="115px" viewBox="0 0 115 115" version="1.1" xmlns="http://www.w3.org/2000/svg" xmlns:xlink="http://www.w3.org/1999/xlink">
    <!-- Generator: Sketch 53.2 (72643) - https://sketchapp.com -->
    <title>logger</title>
    <desc>Created with Sketch.</desc>
    <g id="Page-1" stroke="none" stroke-width="1">
        <g id="Artboard" transform="translate(-1511.000000, -79.000000)">
            <g id="logger" transform="translate(1511.000000, 79.000000)">
                <path d="M43.1686047,102.417526 L14.3895348,102.417526 C11.5116278,102.417526 9.78488367,100.128866 9.20930236,97.8402062 L9.20930236,13.7319588 C9.20930236,11.443299 11.5116279,9.15463921 14.3895348,9.15463921 L84.610465,9.15463921 C87.4883721,9.15463921 89.2151162,10.871134 89.7906976,13.7319588 L89.7906976,44.628866 C90.3662791,46.9175258 92.0930232,48.6340206 94.3953488,48.6340206 C96.6976744,48.6340206 98.4244186,46.9175258 99,44.628866 L99,13.7319588 C99,6.29381443 92.6686047,0 84.610465,0 L14.3895348,0 C10.9360465,0 6.90697677,1.71649482 4.60465118,4.00515463 C1.72674416,6.29381443 0,10.2989691 0,13.7319588 L0,97.2680412 C0,101.273196 1.72674416,104.706186 4.60465118,106.994845 C7.48255819,109.283505 10.9360465,111 14.9651163,111 L43.7441861,111 C46.0465117,111 48.3488373,108.71134 48.3488371,106.42268 C47.7732557,104.134021 45.4709301,102.417526 43.1686047,102.417526 Z" id="Path"></path>
                <path d="M114.426829,81.3228347 C114.426829,78.4566929 112.707317,77.3102362 109.841463,77.3102362 C108.121951,77.3102362 106.402439,76.7370079 105.256098,75.0173228 C104.109756,73.8708662 103.536585,71.5779528 104.109756,69.8582677 C105.256097,64.6992125 104.682927,64.1259842 100.097561,61.8330709 L97.2317073,60.1133858 C94.3658536,57.8204724 90.3536585,58.3937008 88.6341463,60.6866141 C85.195122,63.5527559 83.4756097,63.5527559 80.6097561,60.6866141 C78.3170732,57.8204723 74.304878,57.8204723 72.0121951,60.1133858 L66.8536586,62.9795275 C64.5609757,64.1259841 63.4146342,66.4188975 64.5609757,68.711811 C66.2804878,73.8708662 63.9878049,76.7370079 58.2560976,77.3102362 C55.9634147,77.3102362 54.8170733,78.4566929 54.2439024,80.7496063 L54.2439024,92.2141733 C54.2439024,94.5070866 55.9634146,96.2267717 58.8292683,96.2267717 C60.5487804,96.2267717 62.2682926,96.8 63.4146341,98.5196851 C64.5609755,99.6661417 65.1341463,101.959055 64.5609757,103.67874 C63.4146342,108.837795 63.4146342,109.411024 68.5731708,112.277165 L72.0121951,113.99685 C74.304878,115.716535 77.7439024,115.143307 80.0365853,112.850394 C84.0487804,109.411024 85.195122,109.411024 89.2073171,112.850394 C90.3536585,113.423622 90.9268292,113.99685 92.0731708,114.570079 C93.2195122,115.143307 94.9390245,115.143307 96.0853659,114.570079 C98.9512196,112.850394 101.243903,111.130709 104.109756,109.411024 C104.682927,108.837795 105.256097,108.264567 105.256098,107.11811 L105.256098,104.825197 C103.536585,100.23937 106.402439,96.2267717 111.560976,96.2267717 C113.853659,96.2267717 115,95.080315 115,92.7874015 C114.426829,88.7748031 114.426829,84.7622047 114.426829,81.3228347 Z M92.6463414,94.5070866 C90.3536585,96.8 87.4878048,97.9464567 84.0487804,97.9464567 C79.4634146,97.9464567 74.8780487,95.0803149 73.1585366,90.4944881 C71.448464,85.9174991 72.5679442,80.7634014 76.0225763,77.308422 C79.4772084,73.8534427 84.6307881,72.7338499 89.2073171,74.4440945 C93.7926829,76.1637795 96.6585366,80.7496063 96.6585366,85.3354331 C96.0853659,89.3480315 94.9390245,92.7874016 92.6463414,94.5070866 L92.6463414,94.5070866 Z M71.4390243,24 L25.5853659,24 C23.2926829,24 21.5731708,25.719685 21.5731708,28.5858268 C21.5731708,30.8787402 23.8658537,33.1716536 26.1585366,33.1716535 L72.0121951,33.1716535 C74.304878,33.1716535 76.597561,30.8787401 76.597561,28.5858268 C76.0243902,25.719685 74.304878,24 71.4390243,24 L71.4390243,24 Z M71.4390243,44.6362204 L25.5853659,44.6362204 C23.2926829,44.6362204 21,46.9291338 21,49.2220472 C21,51.5149606 23.2926829,53.807874 25.5853659,53.807874 L71.4390243,53.807874 C73.7317073,53.807874 76.0243902,51.5149606 76.0243902,49.2220472 C76.0243902,46.9291338 74.304878,44.6362204 71.4390243,44.6362204 L71.4390243,44.6362204 Z M48.5121951,65.2724409 L25.5853659,65.2724409 C23.2926829,65.2724409 21,67.5653543 21,69.8582677 C21,72.1511811 23.2926829,74.4440945 25.5853659,74.4440945 L48.5121951,74.4440945 C50.804878,74.4440945 53.097561,72.1511811 53.097561,69.8582677 C53.097561,67.5653543 51.3780488,65.2724409 48.5121951,65.2724409 L48.5121951,65.2724409 Z" id="Shape"></path>
            </g>
        </g>
    </g>
</svg>
