<?xml version="1.0" standalone="no"?><!DOCTYPE svg PUBLIC "-//W3C//DTD SVG 1.1//EN" "http://www.w3.org/Graphics/SVG/1.1/DTD/svg11.dtd"><svg t="1617348517061" class="icon" viewBox="0 0 1024 1024" version="1.1" xmlns="http://www.w3.org/2000/svg" p-id="4628" xmlns:xlink="http://www.w3.org/1999/xlink" width="200" height="200"><defs><style type="text/css"></style></defs><path d="M319.247059 36.141176h-126.494118c-72.282353 0-126.494118 54.211765-126.494117 126.494118v698.729412c0 72.282353 54.211765 126.494118 126.494117 126.494118h632.470588c72.282353 0 126.494118-54.211765 126.494118-126.494118v-698.729412c0-72.282353-54.211765-126.494118-126.494118-126.494118h-120.470588v60.235295h120.470588c36.141176 0 66.258824 30.117647 66.258824 66.258823v698.729412c0 36.141176-30.117647 66.258824-66.258824 66.258823h-632.470588c-36.141176 0-66.258824-30.117647-66.258823-66.258823v-698.729412c0-36.141176 30.117647-66.258824 66.258823-66.258823h126.494118v-60.235295z" fill="#D5BA93" p-id="4629"></path><path d="M385.505882 96.376471h252.988236v-60.235295h-252.988236zM512 572.235294c84.329412 0 156.611765-72.282353 156.611765-156.611765s-72.282353-156.611765-156.611765-156.611764-156.611765 72.282353-156.611765 156.611764 72.282353 156.611765 156.611765 156.611765z m0-60.235294c-54.211765 0-96.376471-42.164706-96.376471-96.376471s42.164706-96.376471 96.376471-96.37647 96.376471 42.164706 96.376471 96.37647-42.164706 96.376471-96.376471 96.376471z" fill="#D5BA93" p-id="4630"></path><path d="M734.870588 734.870588c0-120.470588-96.376471-222.870588-222.870588-222.870588s-222.870588 96.376471-222.870588 222.870588h60.235294c0-90.352941 72.282353-162.635294 162.635294-162.635294s162.635294 72.282353 162.635294 162.635294h60.235294z" fill="#D5BA93" p-id="4631"></path></svg>