<?xml version="1.0" encoding="UTF-8"?>
<svg width="7px" height="20px" viewBox="0 0 7 20" version="1.1" xmlns="http://www.w3.org/2000/svg" xmlns:xlink="http://www.w3.org/1999/xlink">
    <title>icone/maniglia</title>
    <g id="页面-1" stroke="none" stroke-width="1" fill="none" fill-rule="evenodd">
        <g id="应用门户备份" transform="translate(-982.000000, -1174.000000)" fill="#999999">
            <g id="graph_15-copy-2" transform="translate(66.000000, 1160.000000)">
                <g id="maniglia" transform="translate(916.000000, 14.000000)">
                    <path d="M1.75001199,18 C1.81771108,18 1.87630052,18.0248358 1.92578031,18.0742197 C1.9752601,18.1236995 2,18.1822889 2,18.249988 L2,18.249988 L2,19.750012 C2,19.8177111 1.9752601,19.8763005 1.92578031,19.9257803 C1.87630052,19.975356 1.81771108,20 1.75001199,20 L1.75001199,20 L0.249988014,20 C0.18228892,20 0.123699477,19.9752601 0.0742196864,19.9257803 C0.0247398955,19.8763005 0,19.8177111 0,19.750012 L0,19.750012 L0,18.249988 C0,18.1822889 0.0247398955,18.1236995 0.0742196864,18.0742197 C0.123699477,18.0247399 0.18228892,18 0.249988014,18 L0.249988014,18 Z M6.75001199,18 C6.81771108,18 6.87630052,18.0248358 6.92578031,18.0742197 C6.9752601,18.1236995 7,18.1822889 7,18.249988 L7,18.249988 L7,19.750012 C7,19.8177111 6.9752601,19.8763005 6.92578031,19.9257803 C6.87630052,19.975356 6.81771108,20 6.75001199,20 L6.75001199,20 L5.24998801,20 C5.18228892,20 5.12369948,19.9752601 5.07421969,19.9257803 C5.0247399,19.8763005 5,19.8177111 5,19.750012 L5,19.750012 L5,18.249988 C5,18.1822889 5.0247399,18.1236995 5.07421969,18.0742197 C5.12369948,18.0247399 5.18228892,18 5.24998801,18 L5.24998801,18 Z M1.75001199,12 C1.81771108,12 1.87630052,12.0248358 1.92578031,12.0742197 C1.9752601,12.1236995 2,12.1822889 2,12.249988 L2,12.249988 L2,13.750012 C2,13.8177111 1.9752601,13.8763005 1.92578031,13.9257803 C1.87630052,13.975356 1.81771108,14 1.75001199,14 L1.75001199,14 L0.249988014,14 C0.18228892,14 0.123699477,13.9752601 0.0742196864,13.9257803 C0.0247398955,13.8763005 0,13.8177111 0,13.750012 L0,13.750012 L0,12.249988 C0,12.1822889 0.0247398955,12.1236995 0.0742196864,12.0742197 C0.123699477,12.0247399 0.18228892,12 0.249988014,12 L0.249988014,12 Z M6.75001199,12 C6.81771108,12 6.87630052,12.0248358 6.92578031,12.0742197 C6.9752601,12.1236995 7,12.1822889 7,12.249988 L7,12.249988 L7,13.750012 C7,13.8177111 6.9752601,13.8763005 6.92578031,13.9257803 C6.87630052,13.975356 6.81771108,14 6.75001199,14 L6.75001199,14 L5.24998801,14 C5.18228892,14 5.12369948,13.9752601 5.07421969,13.9257803 C5.0247399,13.8763005 5,13.8177111 5,13.750012 L5,13.750012 L5,12.249988 C5,12.1822889 5.0247399,12.1236995 5.07421969,12.0742197 C5.12369948,12.0247399 5.18228892,12 5.24998801,12 L5.24998801,12 Z M1.75001199,6 C1.81771108,6 1.87630052,6.02483579 1.92578031,6.07421969 C1.9752601,6.12369948 2,6.18228892 2,6.24998801 L2,6.24998801 L2,7.75001199 C2,7.81771108 1.9752601,7.87630052 1.92578031,7.92578031 C1.87630052,7.975356 1.81771108,8 1.75001199,8 L1.75001199,8 L0.249988014,8 C0.18228892,8 0.123699477,7.9752601 0.0742196864,7.92578031 C0.0247398955,7.87630052 0,7.81771108 0,7.75001199 L0,7.75001199 L0,6.24998801 C0,6.18228892 0.0247398955,6.12369948 0.0742196864,6.07421969 C0.123699477,6.0247399 0.18228892,6 0.249988014,6 L0.249988014,6 Z M6.75001199,6 C6.81771108,6 6.87630052,6.02483579 6.92578031,6.07421969 C6.9752601,6.12369948 7,6.18228892 7,6.24998801 L7,6.24998801 L7,7.75001199 C7,7.81771108 6.9752601,7.87630052 6.92578031,7.92578031 C6.87630052,7.975356 6.81771108,8 6.75001199,8 L6.75001199,8 L5.24998801,8 C5.18228892,8 5.12369948,7.9752601 5.07421969,7.92578031 C5.0247399,7.87630052 5,7.81771108 5,7.75001199 L5,7.75001199 L5,6.24998801 C5,6.18228892 5.0247399,6.12369948 5.07421969,6.07421969 C5.12369948,6.0247399 5.18228892,6 5.24998801,6 L5.24998801,6 Z M1.75001199,0 C1.81771108,0 1.87630052,0.0247410817 1.92578031,0.0742232451 C1.9752601,0.123705409 2,0.18229766 2,0.25 L2,0.25 L2,1.7500959 C2,1.81789413 1.9752601,1.87648638 1.92578031,1.92596855 C1.87630052,1.97545071 1.81771108,2 1.75001199,2 L1.75001199,2 L0.249988014,2 C0.18228892,2 0.123699477,1.97535481 0.0742196864,1.92596855 C0.0247398955,1.87639049 0,1.81789413 0,1.7500959 L0,1.7500959 L0,0.25 C0,0.18229766 0.0247398955,0.123609513 0.0742196864,0.0742232451 C0.123699477,0.0248369774 0.18228892,0 0.249988014,0 L0.249988014,0 Z M6.75001199,0 C6.81771108,0 6.87630052,0.0247410817 6.92578031,0.0742232451 C6.9752601,0.123705409 7,0.18229766 7,0.25 L7,0.25 L7,1.7500959 C7,1.81789413 6.9752601,1.87648638 6.92578031,1.92596855 C6.87630052,1.97545071 6.81771108,2 6.75001199,2 L6.75001199,2 L5.24998801,2 C5.18228892,2 5.12369948,1.97535481 5.07421969,1.92596855 C5.0247399,1.87639049 5,1.81789413 5,1.7500959 L5,1.7500959 L5,0.25 C5,0.18229766 5.0247399,0.123609513 5.07421969,0.0742232451 C5.12369948,0.0248369774 5.18228892,0 5.24998801,0 L5.24998801,0 Z"></path>
                </g>
            </g>
        </g>
    </g>
</svg>