<svg width="34" height="24" xmlns="http://www.w3.org/2000/svg"><g fill="#666" fill-rule="nonzero"><path d="M2.333 20H5v1.333h8V2.667H5V4H2.333V2.667C2.333 1.067 3.4 0 5 0h8c1.6 0 2.667 1.067 2.667 2.667v18.666C15.667 22.933 14.6 24 13 24H5c-1.6 0-2.667-1.067-2.667-2.667V20z"/><path d="M2.333 4A1.333 1.333 0 1 0 5 4a1.333 1.333 0 0 0-2.667 0zM2.333 20A1.333 1.333 0 1 0 5 20a1.333 1.333 0 0 0-2.667 0zM29 4a1.333 1.333 0 1 0 2.667 0A1.333 1.333 0 0 0 29 4zM29 20a1.333 1.333 0 1 0 2.667 0A1.333 1.333 0 0 0 29 20zM11.067 10.933c.266.267.266.534.266 1.067 0 .533-.266.8-.266 1.067L8.4 15.733a1.289 1.289 0 0 1-1.867 0 1.289 1.289 0 0 1 0-1.866L6.8 13.6H2c-.8 0-1.333-.533-1.333-1.333 0-.8.533-1.334 1.333-1.334h4.8l-.267-.266a1.289 1.289 0 0 1 0-1.867 1.289 1.289 0 0 1 1.867 0l2.667 2.133zm11.866 0c-.266.267-.266.534-.266 1.067 0 .533.266.8.266 1.067l2.667 2.666a1.289 1.289 0 0 0 1.867 0 1.289 1.289 0 0 0 0-1.866L27.2 13.6H32c.8 0 1.333-.533 1.333-1.333 0-.8-.533-1.334-1.333-1.334h-4.8l.267-.266a1.289 1.289 0 0 0 0-1.867 1.289 1.289 0 0 0-1.867 0l-2.667 2.133z"/><path d="M31.667 20H29v1.333h-8V2.667h8v1.6h2.667v-1.6C31.667 1.067 30.6 0 29 0h-8c-1.6 0-2.667 1.067-2.667 2.667v18.666C18.333 22.933 19.4 24 21 24h8c1.6 0 2.667-1.067 2.667-2.667V20z"/></g></svg>