<?xml version="1.0" standalone="no"?>
<!DOCTYPE svg PUBLIC "-//W3C//DTD SVG 1.1//EN" "http://www.w3.org/Graphics/SVG/1.1/DTD/svg11.dtd"><svg t="1545359880553" class="icon" style="" viewBox="0 0 1024 1024" version="1.1" xmlns="http://www.w3.org/2000/svg" p-id="2601" xmlns:xlink="http://www.w3.org/1999/xlink" width="16" height="16">
    <defs>
        <style type="text/css"></style>
    </defs>
    <path d="M160.74016,753.38752 C72.35872,753.38752 0.74016,789.26848 0.74016,833.38752 C0.74016,877.57824 72.35872,913.38752 160.74016,913.38752 C249.10112,913.38752 320.71968,877.57824 320.71968,833.38752 C320.7248,789.26336 249.10112,753.38752 160.74016,753.38752 Z M160.73504,873.28256 C106.47328,873.28256 62.4976,858.25024 62.4976,833.38752 C62.4976,808.56576 106.46816,793.4976 160.73504,793.4976 C214.99168,793.4976 258.96224,808.56576 258.96224,833.38752 C258.96224,858.25024 214.99168,873.28256 160.73504,873.28256 Z" id="Shape"></path>
    <path d="M199.36032,829.98272 C199.36032,829.98272 203.71744,847.03744 171.07744,852.79744 C141.43776,858.02496 136.1232,839.82336 136.1232,839.82336 L90.21728,544.69632 L144.83744,499.7632 L199.36032,829.98272 Z M798.82528,41.1136 L730.26336,449.38752 L721.7232,455.08096 C718.48224,457.27232 641.35968,508.64128 550.41824,490.8544 C516.41632,484.1984 484.97952,473.57952 454.70496,463.17056 C414.51296,449.51552 376.61984,436.62336 341.1024,436.62336 C216.1232,436.62336 145.53888,499.13856 144.83744,499.76832 L90.21728,544.70144 L18.03552,80.9728 C18.03552,71.13216 27.70208,59.60704 35.58176,51.58912 C68.73888,17.85344 220.41376,0.5632 335.38336,0.5632 C406.9456,0.5632 456.07712,37.16608 495.56768,66.52928 C518.92512,83.86048 540.94112,100.21888 560.8784,104.2688 C620.78752,116.23424 716.66976,79.9232 748.53664,64.8448 L798.82528,41.1136 Z" id="Shape"></path>
</svg>
