<svg width="129" height="129" xmlns="http://www.w3.org/2000/svg"><defs><radialGradient cx="50%" cy="50%" fx="50%" fy="50%" r="61.308%" id="a"><stop stop-color="#FFF" offset="0%"/><stop stop-color="#FFF" offset="51.021%"/><stop stop-color="#E3E3E3" offset="100%"/></radialGradient></defs><g fill="none" fill-rule="evenodd"><path d="M103.619 2.822C93.372 1.028 78.907 0 63.939 0 49.103 0 35.382.966 25.306 2.717 9.426 5.477 5.644 9.29 2.832 25.382-.895 46.692-.95 82.554 2.71 103.694c2.75 15.88 6.563 19.66 22.663 22.479C35.646 127.97 50.141 129 65.14 129c14.802 0 28.496-.96 38.557-2.703 15.882-2.762 19.665-6.573 22.473-22.67 3.729-21.313 3.78-57.183.112-78.326-2.757-15.88-6.568-19.662-22.663-22.48z" fill="url(#a)" fill-rule="nonzero"/><g fill-rule="nonzero"><path d="M83.442 42.33c-2.094 0-3.888-1.781-3.888-3.86V26H35.888C33.794 26 32 27.781 32 29.86v69.28c0 2.079 1.794 3.86 3.888 3.86h57.224c2.094 0 3.888-1.781 3.888-3.86V43.914c0-.594-.1-1.089-.3-1.584H83.443z" fill="#4856FF"/><path d="M83.855 42H97c-.198-.388-.494-.776-.79-1.164l-14.036-13.77c-.593-.678-1.383-.969-2.174-1.066v12.218C80 40.352 81.68 42 83.855 42z" fill="#CADAFF"/><path d="M59.953 60.544v-4.836h3.952v4.836h-3.952zm3.952-4.836v-4.836h3.953v4.836h-3.953zm0-9.574v-4.836h3.953v4.836h-3.953zm-3.952 4.836v-4.836h3.952v4.836h-3.952zm0-9.672v-4.836h3.952v4.836h-3.952zm3.952-5.724v-4.837h3.953v4.837h-3.953zm-3.952-4.837V26h3.952v4.836h-3.952v-.099z" fill="#FFF"/></g><g stroke="#FFF" stroke-width=".5"><path d="M64.002 65.316c-1.242.98-2.23 2.01-2.962 3.09a15.677 15.677 0 0 0-1.71 3.277c.934.266 1.82.723 2.656 1.37.805.621 1.476 1.423 2.014 2.402.538-.979 1.21-1.78 2.014-2.403.84-.65 1.73-1.107 2.67-1.373-.339-1.031-.912-2.122-1.722-3.27a14.254 14.254 0 0 0-2.96-3.093z" fill="#E74A46"/><path d="M78.092 73.533c-1.5-.618-2.91-.984-4.231-1.098a15.725 15.725 0 0 0-3.732.11c.253.961.314 1.975.185 3.039-.125 1.028-.477 2.027-1.055 2.996 1.137-.01 2.186.187 3.147.593 1 .424 1.86.987 2.577 1.69.721-.813 1.372-1.864 1.95-3.153.6-1.336.986-2.728 1.16-4.177z" fill="#92509F"/><path d="M78.09 89.635c-.21-1.595-.595-2.987-1.155-4.177a15.407 15.407 0 0 0-1.962-3.148 8.197 8.197 0 0 1-2.567 1.681c-.96.407-2.01.604-3.147.593.578.97.93 1.969 1.055 2.997a8.044 8.044 0 0 1-.189 3.053c1.072.211 2.315.244 3.731.096a14.631 14.631 0 0 0 4.234-1.095z" fill="#2186BB"/><path d="M63.998 97.684c1.242-.98 2.23-2.01 2.962-3.09a15.677 15.677 0 0 0 1.71-3.277c-.934-.266-1.82-.723-2.656-1.37-.805-.621-1.476-1.423-2.014-2.402-.538.979-1.21 1.78-2.014 2.403-.84.65-1.73 1.107-2.67 1.373.339 1.031.912 2.122 1.722 3.27a14.254 14.254 0 0 0 2.96 3.093z" fill="#69A76B"/><path d="M49.908 89.631c1.5.618 2.91.984 4.231 1.098 1.281.111 2.525.075 3.732-.109a8.047 8.047 0 0 1-.185-3.04c.125-1.027.477-2.027 1.055-2.996-1.137.011-2.186-.186-3.147-.593-1-.423-1.86-.987-2.577-1.69-.721.813-1.372 1.864-1.95 3.153a14.277 14.277 0 0 0-1.16 4.177z" fill="#D1D700"/><path d="M49.91 73.53c.21 1.595.595 2.987 1.155 4.176a15.407 15.407 0 0 0 1.962 3.148 8.197 8.197 0 0 1 2.567-1.68c.96-.407 2.01-.605 3.147-.594-.578-.969-.93-1.968-1.055-2.996a8.044 8.044 0 0 1 .189-3.053c-1.072-.212-2.315-.245-3.731-.097-1.469.154-2.88.52-4.234 1.096z" fill="#EFAA31"/></g></g></svg>