<svg width="129" height="129" xmlns="http://www.w3.org/2000/svg"><defs><radialGradient cx="50%" cy="50%" fx="50%" fy="50%" r="61.308%" id="a"><stop stop-color="#FFF" offset="0%"/><stop stop-color="#FFF" offset="51.021%"/><stop stop-color="#E3E3E3" offset="100%"/></radialGradient></defs><g fill="none" fill-rule="evenodd"><path d="M103.619 2.822C93.372 1.028 78.907 0 63.939 0 49.103 0 35.382.966 25.306 2.717 9.426 5.477 5.644 9.29 2.832 25.382-.895 46.692-.95 82.554 2.71 103.694c2.75 15.88 6.563 19.66 22.663 22.479C35.646 127.97 50.141 129 65.14 129c14.802 0 28.496-.96 38.557-2.703 15.882-2.762 19.665-6.573 22.473-22.67 3.729-21.313 3.78-57.183.112-78.326-2.757-15.88-6.568-19.662-22.663-22.48z" fill="url(#a)" fill-rule="nonzero"/><path d="M64.5 18a30.38 30.38 0 0 1 6.65 6.828c1.867 2.636 3.15 5.137 3.85 7.504-2.1.508-4.083 1.48-5.95 2.918-1.867 1.438-3.383 3.354-4.55 5.75-1.167-2.396-2.683-4.313-4.55-5.75-1.867-1.438-3.85-2.41-5.95-2.918.933-2.607 2.217-5.108 3.85-7.504S61.7 20.156 64.5 18z" fill="#E74A46"/><path d="M94.568 35.511a30.758 30.758 0 0 1-2.471 9.28c-1.31 2.961-2.8 5.34-4.471 7.138-1.501-1.605-3.34-2.876-5.52-3.812-2.178-.937-4.589-1.325-7.232-1.165 1.459-2.224 2.33-4.52 2.614-6.885.283-2.367.109-4.605-.522-6.715 2.706-.471 5.499-.58 8.38-.327 2.88.253 5.954 1.082 9.222 2.486z" fill="#92509F"/><path d="M94.568 69.833a30.277 30.277 0 0 1-9.222 2.486c-3.205.34-5.998.231-8.38-.327.631-2.11.805-4.349.522-6.715-.284-2.366-1.155-4.661-2.614-6.885 2.643.16 5.054-.229 7.233-1.165 2.178-.936 4.018-2.207 5.519-3.812 1.758 2.122 3.248 4.502 4.47 7.138 1.223 2.637 2.047 5.73 2.472 9.28z" fill="#2186BB"/><path d="M64.5 87a30.38 30.38 0 0 1-6.65-6.828c-1.867-2.636-3.15-5.137-3.85-7.504 2.1-.508 4.083-1.48 5.95-2.918 1.867-1.437 3.383-3.354 4.55-5.75 1.167 2.396 2.683 4.313 4.55 5.75 1.867 1.438 3.85 2.41 5.95 2.918-.933 2.607-2.217 5.108-3.85 7.504S67.3 84.844 64.5 87z" fill="#69A76B"/><path d="M35.432 69.833a30.758 30.758 0 0 1 2.471-9.28c1.31-2.962 2.8-5.341 4.471-7.138 1.501 1.605 3.34 2.876 5.52 3.812 2.178.936 4.589 1.325 7.232 1.165-1.459 2.224-2.33 4.519-2.614 6.885-.283 2.366-.109 4.605.522 6.715-2.706.471-5.499.58-8.38.327-2.88-.253-5.954-1.082-9.222-2.486z" fill="#D1D700"/><path d="M35.432 35.511a30.277 30.277 0 0 1 9.222-2.486c3.205-.34 5.998-.232 8.38.327-.631 2.11-.805 4.348-.522 6.715.284 2.366 1.155 4.66 2.614 6.885-2.643-.16-5.054.228-7.233 1.165-2.178.936-4.018 2.207-5.519 3.812-1.758-2.123-3.248-4.502-4.47-7.139-1.223-2.636-2.047-5.73-2.472-9.279z" fill="#EFAA31"/><g fill="#A4C439" fill-rule="nonzero"><path d="M24.608 106.832l-.816-2.454H19.37l-.833 2.454H15l4.336-11.664h4.575l4.302 11.664h-3.605zm-4.336-5.143h2.636L21.7 98.042h-.204l-1.224 3.647zm12.344 5.143V95.168h5.102l2.449 7.311h.102v-7.31h3.299v11.663h-4.71l-2.807-7.798h-.102v7.798h-3.333zm16.562-11.664H53.7c3.538 0 5.8.975 5.8 5.832 0 4.504-2.262 5.832-5.8 5.832h-4.523V95.168zm3.384 8.807h.935c1.973 0 2.483-.639 2.483-2.975 0-2.437-.578-3.042-2.483-3.042h-.935v6.017zm22.769 2.857h-3.996l-2.432-3.916h-.663v3.916h-3.385V95.168h4.796c3.01 0 4.574 1.126 4.574 3.9 0 1.882-.629 2.974-2.057 3.495l3.163 4.269zm-7.091-9.11v2.807h.816c1.377 0 1.836-.37 1.836-1.462 0-1.075-.459-1.344-1.836-1.344h-.816zM84.818 107c-3.503 0-5.56-1.193-5.56-6 0-4.79 2.057-6 5.56-6 3.52 0 5.561 1.21 5.561 6 0 4.807-2.04 6-5.56 6zm0-2.756c1.616 0 2.007-.74 2.007-3.244 0-2.538-.391-3.294-2.007-3.294-1.615 0-1.99.756-1.99 3.294 0 2.504.375 3.244 1.99 3.244zm10.865 2.588V95.168h3.384v11.664h-3.384zm8.995-11.664h4.523c3.537 0 5.799.975 5.799 5.832 0 4.504-2.262 5.832-5.799 5.832h-4.523V95.168zm3.384 8.807h.935c1.973 0 2.483-.639 2.483-2.975 0-2.437-.578-3.042-2.483-3.042h-.935v6.017z"/></g></g></svg>