<svg width="129" height="129" xmlns="http://www.w3.org/2000/svg"><defs><radialGradient cx="50%" cy="50%" fx="50%" fy="50%" r="61.308%" id="a"><stop stop-color="#FFF" offset="0%"/><stop stop-color="#FFF" offset="51.021%"/><stop stop-color="#E3E3E3" offset="100%"/></radialGradient></defs><g fill="none" fill-rule="evenodd"><path d="M103.619 2.822C93.372 1.028 78.907 0 63.939 0 49.103 0 35.382.966 25.306 2.717 9.426 5.477 5.644 9.29 2.832 25.382-.895 46.692-.95 82.554 2.71 103.694c2.75 15.88 6.563 19.66 22.663 22.479C35.646 127.97 50.141 129 65.14 129c14.802 0 28.496-.96 38.557-2.703 15.882-2.762 19.665-6.573 22.473-22.67 3.729-21.313 3.78-57.183.112-78.326-2.757-15.88-6.568-19.662-22.663-22.48z" fill="url(#a)" fill-rule="nonzero"/><g fill-rule="nonzero"><path d="M46.374 97.079c-.676 0-1.224.546-1.224 1.219s.548 1.219 1.224 1.219c.676 0 1.224-.546 1.224-1.22 0-.672-.548-1.218-1.224-1.218z" fill="#FFC107"/><path d="M51.5 103.212l2.322-.978c1.097-1.955 2.946-3.073 5.343-3.073.549 0 1.059.064 1.544.178l2.206-.927c-1.084-.533-2.334-.838-3.75-.838-3.838 0-6.567 2.095-7.664 5.638zm-4.31 1.803v-2.502h-1.645v3.2l1.645-.698z" fill="#FF5722"/><path d="M47.19 109.472v-4.457l-1.645.686v4.457l1.645-.686zm5.535-2.527c0-1.866.396-3.454 1.097-4.71l-2.321.977c-.344 1.117-.536 2.362-.536 3.733 0 .318.051.61.064.915l1.709-.712c0-.076-.013-.14-.013-.203zm21.948-9.028a6.82 6.82 0 0 0-1.237.52l1.237-.52zm-11.758.495l-2.206.927c1.645.38 2.933 1.384 3.775 2.87l1.645-.686a7.228 7.228 0 0 0-3.214-3.111z" fill="#F44336"/><path d="M47.19 113.93v-4.458l-1.645.686v4.457l1.645-.686zm27.483-16.013l-1.237.52c-1.581.876-2.525 2.337-2.525 4.127 0 .483.077.915.191 1.32l1.658-.697a2.859 2.859 0 0 1-.089-.674c0-1.955 1.798-3.377 4.387-3.377 1.275 0 2.36.343 3.137.927l1.684-.711c-1.11-1.092-2.78-1.778-4.77-1.778-.893 0-1.709.127-2.436.343zm-21.935 9.231l-1.709.712c.09 1.536.42 2.895.956 4.05l1.607-.673c-.535-1.143-.829-2.514-.854-4.089zm13.378-5.638l-1.645.686c.612 1.092.969 2.45 1.058 4.013l1.71-.711c-.154-1.511-.511-2.858-1.123-3.988z" fill="#E91E63"/><path d="M66.945 110.069c.23-.965.382-1.994.382-3.136 0-.508-.05-.978-.102-1.448l-1.709.711c.013.241.052.47.052.724 0 1.549-.281 2.895-.778 4.025l2.155-.876zm-13.34 1.168l-1.607.673c.65 1.41 1.62 2.502 2.857 3.251l2.015-.85c-1.454-.534-2.563-1.588-3.265-3.074zm-6.415 2.692l-1.645.686v1.333h1.645v-2.019zm25.557-10.742l-1.657.698c.395 1.384 1.466 2.35 3.417 3.022l2.564-1.08-.549-.139c-2.333-.584-3.481-1.333-3.775-2.501zm8.826-.839h1.734c-.076-1.168-.612-2.196-1.428-2.996l-1.684.71a3.428 3.428 0 0 1 1.378 2.286z" fill="#9C27B0"/><path d="M66.945 110.069l-2.143.902c-1.007 2.362-2.971 3.771-5.65 3.771a6.434 6.434 0 0 1-2.308-.432l-2.015.851c1.212.737 2.64 1.168 4.324 1.168 4.093 0 6.848-2.362 7.792-6.26zm5.178 1.206h-1.735a4.85 4.85 0 0 0 .421 1.626l1.581-.673a3.29 3.29 0 0 1-.267-.953zm6.198-5.142l-1.25-.318-2.564 1.08c.37.126.778.253 1.225.355l2.066.52c1.147.28 2.015.636 2.665 1.067l1.939-.812c-.855-.813-2.181-1.423-4.081-1.892z" fill="#3F51B5"/><path d="M72.403 112.24l-1.581.673c.6 1.385 1.823 2.451 3.481 2.997l2.717-1.143c-2.232-.063-3.966-1.04-4.617-2.527zm11.083-.203c.05-.304.102-.622.102-.952 0-1.257-.37-2.248-1.2-3.035l-1.938.813c.931.622 1.378 1.41 1.378 2.412 0 .623-.204 1.194-.561 1.702l2.219-.94z" fill="#03A9F4"/><path d="M83.486 112.037l-2.22.927c-.752 1.092-2.231 1.803-4.093 1.803-.064 0-.115-.012-.179-.012l-2.716 1.143c.829.279 1.747.431 2.742.431 3.558 0 5.994-1.689 6.466-4.292z" fill="#009688"/></g><path d="M64.5 18a30.38 30.38 0 0 1 6.65 6.828c1.867 2.636 3.15 5.137 3.85 7.504-2.1.508-4.083 1.48-5.95 2.918-1.867 1.438-3.383 3.354-4.55 5.75-1.167-2.396-2.683-4.313-4.55-5.75-1.867-1.438-3.85-2.41-5.95-2.918.933-2.607 2.217-5.108 3.85-7.504S61.7 20.156 64.5 18z" fill="#E74A46"/><path d="M94.568 35.511a30.758 30.758 0 0 1-2.471 9.28c-1.31 2.961-2.8 5.34-4.471 7.138-1.501-1.605-3.34-2.876-5.52-3.812-2.178-.937-4.589-1.325-7.232-1.165 1.459-2.224 2.33-4.52 2.614-6.885.283-2.367.109-4.605-.522-6.715 2.706-.471 5.499-.58 8.38-.327 2.88.253 5.954 1.082 9.222 2.486z" fill="#92509F"/><path d="M94.568 69.833a30.277 30.277 0 0 1-9.222 2.486c-3.205.34-5.998.231-8.38-.327.631-2.11.805-4.349.522-6.715-.284-2.366-1.155-4.661-2.614-6.885 2.643.16 5.054-.229 7.233-1.165 2.178-.936 4.018-2.207 5.519-3.812 1.758 2.122 3.248 4.502 4.47 7.138 1.223 2.637 2.047 5.73 2.472 9.28z" fill="#2186BB"/><path d="M64.5 87a30.38 30.38 0 0 1-6.65-6.828c-1.867-2.636-3.15-5.137-3.85-7.504 2.1-.508 4.083-1.48 5.95-2.918 1.867-1.437 3.383-3.354 4.55-5.75 1.167 2.396 2.683 4.313 4.55 5.75 1.867 1.438 3.85 2.41 5.95 2.918-.933 2.607-2.217 5.108-3.85 7.504S67.3 84.844 64.5 87z" fill="#69A76B"/><path d="M35.432 69.833a30.758 30.758 0 0 1 2.471-9.28c1.31-2.962 2.8-5.341 4.471-7.138 1.501 1.605 3.34 2.876 5.52 3.812 2.178.936 4.589 1.325 7.232 1.165-1.459 2.224-2.33 4.519-2.614 6.885-.283 2.366-.109 4.605.522 6.715-2.706.471-5.499.58-8.38.327-2.88-.253-5.954-1.082-9.222-2.486z" fill="#D1D700"/><path d="M35.432 35.511a30.277 30.277 0 0 1 9.222-2.486c3.205-.34 5.998-.232 8.38.327-.631 2.11-.805 4.348-.522 6.715.284 2.366 1.155 4.66 2.614 6.885-2.643-.16-5.054.228-7.233 1.165-2.178.936-4.018 2.207-5.519 3.812-1.758-2.123-3.248-4.502-4.47-7.139-1.223-2.636-2.047-5.73-2.472-9.279z" fill="#EFAA31"/></g></svg>