<svg class="icon" viewBox="0 0 1024 1024" xmlns="http://www.w3.org/2000/svg" width="32" height="32"><defs><style/></defs><path d="M238.933 546.133h204.8v-204.8h-204.8v204.8zm0 68.267v204.8h204.8V614.4h-204.8zM512 546.133h202.513c37.786 0 70.554 27.341 70.554 64.478V822.99c0 37.171-32.802 64.478-70.554 64.478H204.8a34.133 34.133 0 0 1-34.133-34.134V307.2a34.133 34.133 0 0 1 34.133-34.133h273.067A34.133 34.133 0 0 1 512 307.2v238.933zm0 68.267v204.8h202.513c1.946 0 2.253.102 2.287 1.843V612.557c-.034 1.706-.341 1.843-2.287 1.843H512zm136.533-375.467V409.6H819.2V238.933H648.533zM614.4 170.667h238.933a34.133 34.133 0 0 1 34.134 34.133v238.933a34.133 34.133 0 0 1-34.134 34.134H614.4a34.133 34.133 0 0 1-34.133-34.134V204.8a34.133 34.133 0 0 1 34.133-34.133z"/></svg>