<?xml version="1.0" encoding="UTF-8"?>
<svg width="78px" height="116px" viewBox="0 0 78 116" version="1.1" xmlns="http://www.w3.org/2000/svg" xmlns:xlink="http://www.w3.org/1999/xlink">
    <!-- Generator: Sketch 53.2 (72643) - https://sketchapp.com -->
    <title>monitor</title>
    <desc>Created with Sketch.</desc>
    <g id="Page-1" stroke="none" stroke-width="1">
        <g id="Artboard" transform="translate(-1539.000000, -1248.000000)">
            <g id="monitor" transform="translate(1539.000000, 1248.000000)">
                <path d="M39,4.3397165e-15 C17.470606,0.0234547218 0.0234270094,17.4912724 0,39.0461341 L0,63.6228561 C0.0195317005,80.0420999 10.2778008,94.7019647 25.6847412,100.32835 L18.4585832,104.913877 C16.2084913,106.343918 15.1692877,109.087837 15.9066572,111.651997 C16.6440267,114.216156 18.9814624,115.986764 21.6465939,116 L55.6520436,116 C58.3171751,115.986765 60.654611,114.216156 61.3919805,111.651997 C62.12935,109.087837 61.0901464,106.343918 58.8400546,104.913877 L51.8583106,100.4773 C67.496721,94.9857456 77.9740286,80.2148815 78,63.6228561 L78,39.0461341 C77.976573,17.4912724 60.529394,0.0234547218 39,4.3397165e-15 Z M52.6732969,108.66899 L25.6732969,108.66899 L34.8279845,101.66899 L43.4848595,101.66899 L52.6732969,108.66899 Z M69,62.7218191 C69,79.6287332 55.5685425,93.3344951 39,93.3344951 C22.4314575,93.3344951 9,79.6287332 9,62.7218191 L9,39.9471711 C9,23.040257 22.4314575,9.3344951 39,9.3344951 C55.5685425,9.3344951 69,23.040257 69,39.9471711 L69,62.7218191 Z" id="Shape"></path>
                <path d="M39,18 C26.8497355,18 17,27.7561283 17,39.7909225 C17,51.8257167 26.8497355,61.581845 39,61.581845 C51.1502645,61.581845 61,51.8257167 61,39.7909225 C60.9881451,27.7609955 51.1453507,18.0117422 39,18 Z M39,52.7909225 C31.8202983,52.7909225 26,46.9706243 26,39.7909225 C26,32.6112208 31.8202983,26.7909225 39,26.7909225 C46.1797017,26.7909225 52,32.6112208 52,39.7909225 C51.9903293,46.9666147 46.1756922,52.7812518 39,52.7909225 L39,52.7909225 Z M34.5990135,72.0000001 C32.9673469,71.9996365 31.4594669,72.8572521 30.6435271,74.2497062 C29.8275872,75.6421604 29.8275872,77.3578396 30.6435271,78.7502938 C31.4594669,80.1427479 32.9673469,81.0003635 34.5990135,80.9999999 L43.4641308,80.9999999 C45.0957974,81.0003635 46.6036775,80.1427479 47.4196173,78.7502938 C48.2355571,77.3578396 48.2355571,75.6421604 47.4196173,74.2497062 C46.6036775,72.8572521 45.0957974,71.9996365 43.4641308,72.0000001 L34.5990135,72.0000001 Z" id="Shape"></path>
            </g>
        </g>
    </g>
</svg>
