<svg t="1592361631028" class="icon" viewBox="0 0 1024 1024" version="1.1" xmlns="http://www.w3.org/2000/svg" p-id="6938" width="32" height="32"><path d="M256 512m-64 0a64 64 0 1 0 128 0 64 64 0 1 0-128 0Z" fill="#333333" p-id="6939"></path><path d="M512 512m-64 0a64 64 0 1 0 128 0 64 64 0 1 0-128 0Z" fill="#333333" p-id="6940"></path><path d="M768 512m-64 0a64 64 0 1 0 128 0 64 64 0 1 0-128 0Z" fill="#333333" p-id="6941"></path><path d="M505.6 1024C229.312 1024 0 794.752 0 518.272 0 229.248 229.248 0 505.6 0 794.816 0 1024 229.248 1024 518.272 1024 794.752 794.752 1024 505.6 1024m0-44.544a476.544 476.544 0 0 0 336.448-136.384 460.736 460.736 0 0 0 100.672-146.688c24.384-56.576 36.736-116.48 36.736-178.112 0-127.872-48.896-247.296-137.728-336C752.96 93.312 633.6 44.416 505.664 44.416c-61.632 0-121.536 12.352-178.048 36.736-54.848 23.68-104.32 57.536-146.752 100.736a476.352 476.352 0 0 0-136.32 336.32c0 61.504 12.224 121.408 36.48 178.176 23.488 54.848 56.96 104.32 99.584 146.944a466.24 466.24 0 0 0 146.944 99.52c56.704 24.256 116.608 36.544 178.112 36.544" fill="#333333" p-id="6942"></path></svg>