<?xml version="1.0" standalone="no"?><!DOCTYPE svg PUBLIC "-//W3C//DTD SVG 1.1//EN" "http://www.w3.org/Graphics/SVG/1.1/DTD/svg11.dtd"><svg t="1529635492109" class="icon" style="" viewBox="0 0 1024 1024" version="1.1" xmlns="http://www.w3.org/2000/svg" p-id="4622" xmlns:xlink="http://www.w3.org/1999/xlink" width="16" height="16"><defs><style type="text/css"></style></defs><path d="M64 288c0-12.8 12.8-32 32-32h12.8L320 108.8v-6.4c0-19.2 12.8-38.4 32-38.4s32 19.2 32 32v6.4l211.2 160h25.6L832 102.4v-6.4c0-12.8 12.8-32 32-32s32 19.2 32 32c0 19.2-12.8 32-32 32h-12.8L640 288v6.4c0 12.8-12.8 25.6-32 25.6S576 307.2 576 288v-6.4L364.8 128h-12.8-6.4L128 288c0 19.2-12.8 32-32 32S64 307.2 64 288zM928 896H896V320h-64v576h-192V448H576v448H384V320H320v576H128V448H64v448H32c-19.2 0-32 12.8-32 32s12.8 32 32 32h896c19.2 0 32-12.8 32-32s-12.8-32-32-32z" p-id="4623"></path></svg>
