<?xml version="1.0" standalone="no"?><!DOCTYPE svg PUBLIC "-//W3C//DTD SVG 1.1//EN" "http://www.w3.org/Graphics/SVG/1.1/DTD/svg11.dtd"><svg t="1529635424663" class="icon" style="" viewBox="0 0 1024 1024" version="1.1" xmlns="http://www.w3.org/2000/svg" p-id="1908" xmlns:xlink="http://www.w3.org/1999/xlink" width="16" height="16"><defs><style type="text/css"></style></defs><path d="M844.8 729.6c-2.29 0-4.56 0.08-6.82 0.21A381 381 0 0 0 544 547.88v-89.67c94.24-15.35 166.4-97.3 166.4-195.81C710.4 153 621.4 64 512 64s-198.4 89-198.4 198.4c0 98.5 72.16 180.46 166.4 195.81v89.67a382 382 0 0 0-294 181.93c-2.26-0.13-4.53-0.21-6.82-0.21a115.21 115.21 0 0 0-34 225.28 31.84 31.84 0 0 0 17.38 5.12 32.19 32.19 0 0 0 5.72-0.52c3.6 0.34 7.24 0.52 10.92 0.52a115.16 115.16 0 0 0 68.57-207.71c51.37-77 135.45-130.38 232.23-140.12v122a115.2 115.2 0 1 0 64 0v-122c96.78 9.73 180.86 63.12 232.23 140.12a115.14 115.14 0 1 0 68.57-22.69zM179.2 896a51.2 51.2 0 1 1 51.2-51.2 51.26 51.26 0 0 1-51.2 51.2z m198.4-633.6c0-74.11 60.29-134.4 134.4-134.4s134.4 60.29 134.4 134.4S586.11 396.8 512 396.8s-134.4-60.29-134.4-134.4z m185.6 582.4a51.2 51.2 0 1 1-51.2-51.2 51.26 51.26 0 0 1 51.2 51.2zM844.8 896a51.2 51.2 0 1 1 51.2-51.2 51.26 51.26 0 0 1-51.2 51.2z" fill="#333333" p-id="1909"></path></svg>
