<?xml version="1.0" standalone="no"?><!DOCTYPE svg PUBLIC "-//W3C//DTD SVG 1.1//EN" "http://www.w3.org/Graphics/SVG/1.1/DTD/svg11.dtd"><svg t="1530521624699" class="icon" style="" viewBox="0 0 1024 1024" version="1.1" xmlns="http://www.w3.org/2000/svg" p-id="4729" xmlns:xlink="http://www.w3.org/1999/xlink" width="16" height="16"><defs><style type="text/css"></style></defs><path d="M22.69527 300.7744l473.472 258.16576a40.0128 40.0128 0 0 0 14.95552 2.99008c4.98176 0 10.96192-1.99168 14.95552-2.99008l479.44192-258.16576c10.96192-5.98016 16.94208-15.94368 15.95392-28.90752 0-11.96032-5.98016-22.92736-16.94208-27.904L531.05495 3.74272c-9.97376-4.992-19.93216-4.992-28.90752 0L23.69879 243.96288a30.6688 30.6688 0 0 0-17.9456 27.904c0 12.96384 5.98016 22.92736 16.94208 28.90752z m493.40928-233.23648l404.6848 206.32576-409.66656 220.28288-404.69504-220.288 409.6768-206.32064z m482.44224 410.66496l-94.69952-47.85152-67.77344 36.8896 79.73888 40.86784-409.6768 220.288-404.6848-220.288 84.72576-42.86976-67.7888-36.87424-100.67456 49.83808c-22.92736 11.96032-23.92576 44.86144-0.9984 56.81152l473.472 258.16576c4.98176 2.99008 10.96192 3.98848 15.94368 3.98848 4.992 0 9.97376-0.9984 14.95552-3.98848l478.45376-258.16576c22.92224-11.95008 22.92224-44.84608-0.99328-56.81152z m0 223.27808l-89.70752-43.85792-67.78368 36.87936 74.75712 36.8896-409.6768 220.288-404.6848-220.288 78.7456-35.88608-67.78368-36.87936-94.68928 42.85952c-22.92736 11.96032-23.92576 44.86144-0.9984 56.81152l473.472 258.16576c5.98016 2.00192 9.96352 3.98848 15.94368 3.98848 4.992 0 9.97376-0.9984 14.95552-3.98848l478.45376-258.16576c22.912-11.9552 22.912-44.8512-1.00352-56.81664z" fill="" p-id="4730"></path></svg>
