<?xml version="1.0" standalone="no"?><!DOCTYPE svg PUBLIC "-//W3C//DTD SVG 1.1//EN" "http://www.w3.org/Graphics/SVG/1.1/DTD/svg11.dtd"><svg t="1530515815504" class="icon" style="" viewBox="0 0 1024 1024" version="1.1" xmlns="http://www.w3.org/2000/svg" p-id="2658" id="mx_n_1530515815505" data-spm-anchor-id="a313x.7781069.0.i7" xmlns:xlink="http://www.w3.org/1999/xlink" width="16" height="16"><defs><style type="text/css"></style></defs><path d="M433.92 256m-192 0a192 192 0 1 0 384 0 192 192 0 1 0-384 0Z" fill="#ffffff" p-id="2659"></path><path d="M529.92 755.2c0-95.36 59.52-177.28 144-209.28-55.68-60.16-134.4-97.92-222.08-97.92H416c-166.4 0-302.08 135.68-302.08 302.08V960h549.12c-78.72-34.56-133.12-113.28-133.12-204.8z m-96-69.76L343.04 595.2h181.12l-90.24 90.24z" fill="#ffffff" p-id="2660" data-spm-anchor-id="a313x.7781069.0.i6" class=""></path><path d="M753.92 550.4c-113.28 0-204.8 91.52-204.8 204.8s91.52 204.8 204.8 204.8 204.8-91.52 204.8-204.8-91.52-204.8-204.8-204.8z m128 236.8h-128c-7.04 0-12.8-5.76-12.8-12.8V633.6c0-7.04 5.76-12.8 12.8-12.8s12.8 5.76 12.8 12.8v128h115.2c7.04 0 12.8 5.76 12.8 12.8s-5.76 12.8-12.8 12.8z" fill="#ffffff" p-id="2661" data-spm-anchor-id="a313x.7781069.0.i8" class=""></path></svg>
