<?xml version="1.0" standalone="no"?><!DOCTYPE svg PUBLIC "-//W3C//DTD SVG 1.1//EN" "http://www.w3.org/Graphics/SVG/1.1/DTD/svg11.dtd"><svg t="1529635476141" class="icon" style="" viewBox="0 0 1024 1024" version="1.1" xmlns="http://www.w3.org/2000/svg" p-id="3837" xmlns:xlink="http://www.w3.org/1999/xlink" width="16" height="16"><defs><style type="text/css"></style></defs><path d="M96.281345 320.127018h831.436286c17.675568 0 31.978319-14.302751 31.978319-31.978319 0-17.674545-14.302751-31.978319-31.978319-31.978319H219.363591l209.223139-123.666554c17.08205-10.086729 22.922059-32.446993 13.054317-49.935295-9.837042-17.488303-31.66621-23.452131-48.74826-13.366426L83.727425 251.92366c-9.153474 5.415336-15.078417 14.367219-17.083074 24.203238a31.91385 31.91385 0 0 0-2.341324 12.022824c0 17.674545 14.302751 31.977295 31.978318 31.977296z m831.436286 383.739824h-831.436286c-17.675568 0-31.978319 13.427824-31.978318 30.104645 0 16.613376 14.302751 30.0412 31.978318 30.0412h716.672496l-217.510895 127.851877c-17.113773 10.055007-22.984481 32.290427-13.115716 49.653886 9.868765 17.362436 31.728632 23.357987 48.779983 13.302981l309.102941-181.689039c10.900258-6.405897 17.23043-17.754363 17.845436-29.652343a28.39777 28.39777 0 0 0 1.641383-9.509585c-0.001023-16.675798-14.302751-30.103622-31.979342-30.103622z" fill="#7E7E7E" p-id="3838"></path></svg>
