<?xml version="1.0" standalone="no"?><!DOCTYPE svg PUBLIC "-//W3C//DTD SVG 1.1//EN" "http://www.w3.org/Graphics/SVG/1.1/DTD/svg11.dtd"><svg t="1530521769399" class="icon" style="" viewBox="0 0 1024 1024" version="1.1" xmlns="http://www.w3.org/2000/svg" p-id="5413" xmlns:xlink="http://www.w3.org/1999/xlink" width="16" height="16"><defs><style type="text/css"></style></defs><path d="M708.914 144.438l163.832 163.995-504.385 504.376-163.656-164.182 504.209-504.189zM164.167 680.72l167.581 168.035c-11.036 15.82-24.672 29.665-47.488 34.12-43.678 8.526-86.979 19-130.4 28.82-32.363 7.32-60.229-19.885-53.003-51.834 9.176-40.572 18.269-81.162 27.362-121.752 7.646-34.133 7.623-34.138 35.948-57.39z m576.755-567.842l39.344-37.066L946.27 243.936l-37.647 38.267-167.7-169.325z m-471.06-30.172c-42.25 42.28-85.422 85.762-128.953 128.882-14.341 14.206-29.61 27.476-44.456 41.175v4.394c5.536 4.386 11.563 8.281 16.535 13.235 63.216 62.993 126.408 126.013 189.235 189.394 8.613 8.689 15.217 19.369 22.028 28.191l175.193-175.664L269.862 82.706zM174.684 285.95L289.75 169.607l33.165 32.8-115.067 116.344-33.165-32.8zM299.78 410.506l-33.164-32.8L381.684 261.36l33.165 32.8L299.78 410.507z m404.459 108.38L535.415 687.653l227.259 227.226 168.612-168.893-227.046-227.1z m-92.495 197.987L726.813 600.53l33.164 32.8L644.91 749.675l-33.165-32.8z m125.098 124.555l-33.165-32.8 115.067-116.345 33.165 32.801-115.067 116.344z" p-id="5414"></path></svg>
