<?xml version="1.0" standalone="no"?><!DOCTYPE svg PUBLIC "-//W3C//DTD SVG 1.1//EN" "http://www.w3.org/Graphics/SVG/1.1/DTD/svg11.dtd"><svg t="1539656278519" class="icon" style="" viewBox="0 0 1024 1024" version="1.1" xmlns="http://www.w3.org/2000/svg" p-id="4604" xmlns:xlink="http://www.w3.org/1999/xlink" width="16" height="16"><defs><style type="text/css"></style></defs><path d="M669.6 256.96a16 16 0 0 0 0-3.84 15.04 15.04 0 0 0-8.48-10.88L523.52 176a16 16 0 0 0-13.76 0l-136.96 65.92a16 16 0 0 0-8.48 10.88 16 16 0 0 0 0 3.84v186.24L240 501.6a13.28 13.28 0 0 0-6.08 2.24 16 16 0 0 0-7.52 13.44v195.68a16 16 0 0 0 9.12 14.56l136.96 65.12h0.8a13.6 13.6 0 0 0 12.16 0h0.8l128-61.28 131.52 62.72a15.04 15.04 0 0 0 12.16 0h0.8l136.96-65.28a16 16 0 0 0 9.12-14.4V518.72a17.6 17.6 0 0 0-1.12-5.76 16 16 0 0 0-8.32-10.08l-128-60.64V257.12z m-305.92 496l-104.96-49.92v-160L363.68 592z m16-188l-98.88-47.04 99.04-47.2 98.88 47.04z m120.96 138.08l-104.96 50.08V592l104.96-49.92z m0-210.24l-104.96-49.92v-160l104.96 50.08zM416 256l100.64-48 100.64 48-100.64 48z m221.6 25.76v160l-104.96 49.92v-160z m0 471.84L532.64 704V544l104.96 50.08z m136.96-49.6l-104.96 49.92v-160L774.56 544z m-20-185.92l-100.96 48-100.48-48 100.96-48z" fill="" p-id="4605"></path><path d="M168.48 294.4A407.36 407.36 0 0 1 832 249.44a88.48 88.48 0 0 1 29.28-14.72 439.36 439.36 0 0 0-721.6 46.56l6.72 1.76a91.52 91.52 0 0 1 22.08 11.36zM912 409.6a407.68 407.68 0 0 1-348.16 503.36 88.32 88.32 0 0 1-1.44 32 439.52 439.52 0 0 0 378.72-549.92 91.36 91.36 0 0 1-29.12 14.56zM110.72 460.64a89.92 89.92 0 0 1-22.08-4.32c-3.04-0.96-6.08-2.24-9.12-3.52a440.64 440.64 0 0 0 299.04 472.96l3.84 1.28a91.36 91.36 0 0 1 4.48-31.04v-1.44A408.8 408.8 0 0 1 110.72 460.64zM956.32 288a73.12 73.12 0 0 0-42.88-36.96 73.92 73.92 0 0 0-89.12 103.52 74.56 74.56 0 0 0 65.92 40.8A73.92 73.92 0 0 0 956.32 288z m-26.08 46.4a41.92 41.92 0 0 1-52.96 26.72 40.48 40.48 0 0 1-24.32-20.96 41.76 41.76 0 0 1 50.56-58.72A41.44 41.44 0 0 1 928 303.04a42.08 42.08 0 0 1 2.24 32zM119.36 445.12a72.48 72.48 0 0 0 33.44-8 73.6 73.6 0 0 0 36.96-42.88 72.64 72.64 0 0 0-4.32-56.32A73.92 73.92 0 1 0 96 441.44a71.52 71.52 0 0 0 23.36 3.68zM80 358.08a42.24 42.24 0 0 1 40-28.96 46.72 46.72 0 0 1 13.12 2.08A42.08 42.08 0 1 1 80 358.08zM498.88 856a74.08 74.08 0 0 0-46.24 140.64 71.52 71.52 0 0 0 23.04 3.68 74.56 74.56 0 0 0 33.44-8 73.92 73.92 0 0 0-10.24-136.32z m16 83.52a41.92 41.92 0 1 1-26.72-53.12 41.92 41.92 0 0 1 27.52 53.12z" fill="" p-id="4606"></path></svg>
