<?xml version="1.0" standalone="no"?><!DOCTYPE svg PUBLIC "-//W3C//DTD SVG 1.1//EN" "http://www.w3.org/Graphics/SVG/1.1/DTD/svg11.dtd"><svg t="1498210086447" class="icon" style="" viewBox="0 0 1024 1024" version="1.1" xmlns="http://www.w3.org/2000/svg" p-id="1575" xmlns:xlink="http://www.w3.org/1999/xlink" width="16" height="16"><defs><style type="text/css"></style></defs><path d="M395.387 419.558h-121.201v-141.4q0-46.172 18.277-86.091t50.5-70.219 75.991-47.614 95.71-17.315q46.172 0 88.976 17.315t75.991 47.614 52.905 70.219 19.719 86.091v141.4h-116.391v-114.468q0-60.6-33.667-93.786t-91.381-33.186q-51.944 0-83.686 33.186t-31.743 93.786v114.468zM809.969 477.272q25.972 0 44.729 18.757t18.757 44.729v298.191q0 25.972-9.138 48.577t-25.010 39.439-37.514 26.452-47.614 9.619h-485.763q-25.972 0-47.134-9.619t-36.072-25.49-23.085-37.034-8.177-45.21v-304.925q0-25.972 18.277-44.729t44.247-18.757h593.498z" p-id="1576"></path></svg>
