<?xml version="1.0" standalone="no"?><!DOCTYPE svg PUBLIC "-//W3C//DTD SVG 1.1//EN" "http://www.w3.org/Graphics/SVG/1.1/DTD/svg11.dtd"><svg t="1528426929890" class="icon" style="" viewBox="0 0 1024 1024" version="1.1" xmlns="http://www.w3.org/2000/svg" p-id="3831" xmlns:xlink="http://www.w3.org/1999/xlink" width="16" height="16"><defs><style type="text/css"></style></defs><path d="M422.36247 839.786465c-13.320377 13.421684-34.909068 13.421684-48.126091 0l-10.69355-10.800997 0 0-11.398608-11.502985-50.145074-50.544163c-0.097214-0.201591 0-0.500397-0.201591-0.604774L72.380494 533.085224c-13.320377-13.421684-13.320377-35.218106 0-48.535413l72.132854-72.842005c13.319353-13.408381 34.907021-13.408381 48.224328 0l205.814506 209.252815L831.363631 184.208419c13.218046-13.414521 34.806737-13.414521 48.124044 0l72.134901 72.842005c13.317307 13.408381 13.317307 35.113729 0 48.52211L422.36247 839.786465 422.36247 839.786465z" p-id="3832"></path></svg>
