<?xml version="1.0" encoding="UTF-8" standalone="no"?>
<svg width="18px" height="18px" viewBox="0 0 18 18" version="1.1" xmlns="http://www.w3.org/2000/svg" xmlns:xlink="http://www.w3.org/1999/xlink">
  <!-- Generator: Sketch 3.6.1 (26313) - http://www.bohemiancoding.com/sketch -->
  <title>ui-24px-glyph-3_security</title>
  <desc>Created with Sketch.</desc>
  <defs></defs>
  <g id="Page-1" stroke="none" stroke-width="1" fill="none" fill-rule="evenodd">
    <g id="Artboard-1" transform="translate(-152.000000, -10234.000000)" fill="#9599A2">
      <g id="Group-32" transform="translate(72.000000, 9887.000000)">
        <g id="Group-26" transform="translate(0.000000, 345.000000)">
          <g id="ui-24px-glyph-3_security" transform="translate(80.000000, 2.000000)">
            <path d="M17.1818182,2.4550754 C14.5988182,2.4550754 11.565,1.54610638 9.45409091,0.138063475 C9.17918182,-0.0460211584 8.82163636,-0.0460211584 8.54672727,0.138063475 C6.435,1.54610638 3.40118182,2.4550754 0.818181818,2.4550754 C0.366545455,2.4550754 0,2.8207902 0,3.27322932 C0,10.1244503 3.24409091,15.6052635 8.67763636,17.9337295 C8.78072727,17.9779098 8.89036364,18 9,18 C9.10963636,18 9.21927273,17.9779098 9.32236364,17.9337295 C14.7559091,15.6052635 18,10.1244503 18,3.27322932 C18,2.8207902 17.6334545,2.4550754 17.1818182,2.4550754 L17.1818182,2.4550754 Z M9,16.2859675 L9,9.00030681 L2.56990909,9.00030681 C2.03809091,7.49490358 1.72390909,5.83650557 1.65272727,4.06438417 C4.15145455,3.90484415 6.90709091,3.05396407 9,1.78827995 L9,9.00030681 L15.4300909,9.00030681 C14.2600909,12.3097394 12.0346364,14.8795609 9,16.2859675 L9,16.2859675 Z" id="Shape"></path>
          </g>
        </g>
      </g>
    </g>
  </g>
</svg>
