<svg class="icon" width="200" height="192.48" viewBox="0 0 1064 1024" xmlns="http://www.w3.org/2000/svg"><path d="M901.488 839.23l121.405 119.848a36.823 36.823 0 0 1 0 52.43 37.683 37.683 0 0 1-26.542 10.854 37.683 37.683 0 0 1-26.5-10.855L848.362 891.535a489.513 489.513 0 0 1-316.62 115.385c-115.754.123-227.738-40.55-315.802-114.688L95.15 1011.507a37.847 37.847 0 0 1-53.084 0 36.741 36.741 0 0 1 0-52.429l120.586-119.03A476.282 476.282 0 0 1 43.786 525.068c0-266.076 218.44-481.812 487.915-481.812 269.435 0 487.915 215.736 487.915 481.853A476.242 476.242 0 0 1 901.488 839.23zm111.944-601.99A562.257 562.257 0 0 0 825.016 50.464 134.8 134.8 0 0 1 930.529.001c74.219 0 134.43 59.474 134.43 132.833a131.891 131.891 0 0 1-51.527 104.407zm-962.97-.818A131.81 131.81 0 0 1 0 132.793c0-35.185 14.172-68.936 39.403-93.88A135.373 135.373 0 0 1 134.472 0c40.837 0 79.462 18.35 104.939 49.848A562.094 562.094 0 0 0 50.463 236.422zm695.87 495.37a36.782 36.782 0 0 0-4.096-52.265l-184.32-155.69V339.314a37.274 37.274 0 0 0-37.52-37.069 37.274 37.274 0 0 0-37.56 37.07v201.604a36.864 36.864 0 0 0 13.107 28.18l197.427 166.79a37.683 37.683 0 0 0 24.412 8.888 37.642 37.642 0 0 0 28.55-12.984z"/></svg>