<?xml version="1.0" standalone="no"?><!DOCTYPE svg PUBLIC "-//W3C//DTD SVG 1.1//EN" "http://www.w3.org/Graphics/SVG/1.1/DTD/svg11.dtd"><svg t="1498210107674" class="icon" style="" viewBox="0 0 1024 1024" version="1.1" xmlns="http://www.w3.org/2000/svg" p-id="5599" xmlns:xlink="http://www.w3.org/1999/xlink" width="16" height="16"><defs><style type="text/css"></style></defs><path d="M754.797 61.145q45.882 0 88.419 17.206t75.515 47.316 53.051 70.257 20.074 86.029v141.471h-115.662v-114.706q0-60.22-33.934-93.676t-91.287-33.456q-51.618 0-83.162 33.456t-31.545 93.676v116.618h-120.441v-143.382q0-45.882 18.162-86.029t50.184-70.257 75.515-47.316 95.11-17.206zM752.885 713.056v127.133q0 25.809-9.081 48.751t-24.853 39.192-37.28 25.809-47.316 9.559h-483.676q-25.809 0-46.839-9.081t-36.324-24.853-23.419-36.802-8.125-44.927v-303.971q0-26.765 18.639-44.927t43.492-18.162h591.692q26.765 0 44.927 18.162t18.162 44.927v169.192z" p-id="5600"></path></svg>
