<?xml version="1.0" standalone="no"?><!DOCTYPE svg PUBLIC "-//W3C//DTD SVG 1.1//EN" "http://www.w3.org/Graphics/SVG/1.1/DTD/svg11.dtd"><svg t="1640230255673" class="icon" viewBox="0 0 1024 1024" version="1.1" xmlns="http://www.w3.org/2000/svg" p-id="2056" width="48" height="48" xmlns:xlink="http://www.w3.org/1999/xlink"><defs><style type="text/css"></style></defs><path d="M512 34.133333C248.149333 34.133333 34.133333 248.149333 34.133333 512s214.016 477.866667 477.866667 477.866667 477.866667-214.016 477.866667-477.866667S775.850667 34.133333 512 34.133333z m-170.154667 593.749334l8.362667-50.688c0.682667-3.925333 2.56-7.68 5.461333-10.581334l325.461334-325.461333c7.509333-7.509333 19.797333-7.509333 27.306666 0l42.325334 42.325333c7.509333 7.509333 7.509333 19.797333 0 27.306667L425.301333 636.416c-2.901333 2.901333-6.485333 4.778667-10.581333 5.461333l-50.688 8.362667c-12.970667 2.048-24.234667-9.216-22.186667-22.357333z m393.728 129.536H278.186667c-19.968 0-36.010667-16.213333-36.010667-36.010667s16.213333-36.010667 36.010667-36.010667h457.386666c19.968 0 36.010667 16.213333 36.010667 36.010667s-16.213333 36.010667-36.010667 36.010667z" fill="#43A87D" p-id="2057"></path></svg>