<?xml version="1.0" encoding="UTF-8" standalone="no"?>
<svg width="129px" height="129px" viewBox="0 0 129 129" version="1.1" xmlns="http://www.w3.org/2000/svg" xmlns:xlink="http://www.w3.org/1999/xlink">
    <!-- Generator: Sketch 46.2 (44496) - http://www.bohemiancoding.com/sketch -->
    <title>nginx</title>
    <desc>Created with Sketch.</desc>
    <defs>
        <radialGradient cx="50%" cy="50%" fx="50%" fy="50%" r="61.3084801%" id="radialGradient-1">
            <stop stop-color="#FFFFFF" offset="0%"></stop>
            <stop stop-color="#FFFFFF" offset="51.0207527%"></stop>
            <stop stop-color="#E3E3E3" offset="100%"></stop>
        </radialGradient>
    </defs>
    <g id="Page-1" stroke="none" stroke-width="1" fill="none" fill-rule="evenodd">
        <g id="Artboard" transform="translate(-436.000000, -218.000000)" fill-rule="nonzero">
            <g id="nginx" transform="translate(436.000000, 218.000000)">
                <path d="M103.618789,2.82160675 C93.3718926,1.02838055 78.9073874,0 63.9393737,0 C49.1031809,0 35.3821825,0.966426686 25.3055436,2.71698532 C9.42574665,5.4766382 5.64388657,9.28963799 2.83232346,25.382175 C-0.895117583,46.6917781 -0.951385771,82.5544519 2.71040901,103.693517 C5.46002416,119.573112 9.27266015,123.353352 25.3734354,126.172581 C35.6458243,127.970034 50.1412376,129 65.1400272,129 C79.9417457,129 93.6356666,128.039518 103.696852,126.296621 C119.57863,123.534987 123.362207,119.723704 126.170072,103.627204 C129.898834,82.3142982 129.949554,46.4435666 126.28208,25.3006707 C123.524804,9.42107524 119.713885,5.63911828 103.618789,2.82160675 Z" id="Shape" fill="url(#radialGradient-1)"></path>
                <g transform="translate(13.000000, 54.000000)" id="Shape" fill="#009900">
                    <path d="M19.2983855,1.76965361e-14 C18.0665736,1.76965361e-14 17.2453658,0.996226415 17.2453658,2.24150943 L17.2453658,13.9471698 L4.18816026,0.664150943 C3.53119394,1.76965361e-14 2.38150289,-0.166037736 1.560295,0.166037736 C0.739087104,0.498113208 0,1.32830189 0,2.24150943 L0,19.4264151 C0,20.6716981 1.23181184,21.6679245 2.46362368,21.6679245 C3.69543552,21.6679245 4.92724736,20.6716981 4.92724736,19.4264151 L4.92724736,7.72075472 L18.1486944,21.0037736 C18.5592984,21.4188679 19.1341439,21.6679245 19.7089894,21.6679245 C19.9553518,21.6679245 20.0374726,21.5849057 20.283835,21.5018868 C21.1050429,21.1698113 21.3514052,20.3396226 21.3514052,19.4264151 L21.3514052,2.3245283 C21.3514052,1.07924528 20.5301973,0 19.2983855,0 L19.2983855,1.76965361e-14 Z M35.476181,9.79622642 C34.3264899,9.79622642 33.2589197,10.9584906 33.2589197,12.1207547 C33.2589197,13.2830189 34.3264899,14.445283 35.476181,14.445283 L40.8961531,14.7773585 L39.6643412,17.8490566 L32.6840741,17.8490566 L29.235001,11.290566 L32.7661949,4.56603774 L40.2391868,4.56603774 L41.9637233,7.88679245 L46.4803668,7.88679245 L43.5240183,1.32830189 L42.867052,0.41509434 L30.0562089,0.41509434 L29.4813634,1.41132075 L24.6362368,9.96226415 L24.0613913,11.0415094 L24.6362368,12.1207547 L29.3992426,20.6716981 L30.0562089,22 L42.4564481,22 L43.0312936,20.5886792 L46.5624875,13.1169811 L48.1227825,9.54716981 L44.5094678,9.54716981 L35.476181,9.79622642 L35.476181,9.79622642 Z M52.5573052,2.13162821e-14 C51.4076141,2.13162821e-14 50.0936815,1.07924528 50.0936815,2.24150943 L50.0936815,7.88679245 L55.0209288,7.88679245 L55.0209288,2.3245283 C55.0209288,1.07924528 53.7069962,2.13162821e-14 52.5573052,2.13162821e-14 Z M77.5220251,0.249056604 C76.7008172,-0.0830188679 75.5511262,0.0830188679 74.9762806,0.747169811 L61.590592,14.0301887 L61.590592,2.3245283 C61.590592,1.07924528 60.7693841,0.0830188679 59.5375723,0.0830188679 C58.3057604,0.0830188679 57.4845525,1.07924528 57.4845525,2.3245283 L57.4845525,19.509434 C57.4845525,20.4226415 58.059398,21.2528302 58.8806059,21.5849057 C59.1269683,21.6679245 59.4554515,21.7509434 59.7018138,21.7509434 C60.2766594,21.7509434 61.0157465,21.5018868 61.4263504,21.0867925 L74.7299183,7.80377358 L74.7299183,19.509434 C74.7299183,20.754717 75.5511262,21.7509434 76.782938,21.7509434 C78.0147499,21.7509434 78.8359577,20.754717 78.8359577,19.509434 L78.8359577,2.3245283 C78.8359577,1.41132075 78.343233,0.581132075 77.5220251,0.249056604 L77.5220251,0.249056604 Z M95.4243572,10.8754717 L102.322503,3.90188679 C103.225832,2.98867925 103.225832,1.57735849 102.322503,0.747169811 C101.419175,-0.166037736 100.023121,-0.166037736 99.2019135,0.747169811 L92.3037672,7.72075472 L85.4056209,0.747169811 C84.5022922,-0.166037736 83.1062388,-0.166037736 82.2850309,0.747169811 C81.3817022,1.66037736 81.3817022,3.07169811 82.2850309,3.90188679 L89.1831772,10.8754717 L82.2850309,17.8490566 C81.3817022,18.7622642 81.3817022,20.1735849 82.2850309,21.0037736 C82.6956348,21.4188679 83.2704804,21.6679245 83.8453259,21.6679245 C84.4201714,21.6679245 84.9950169,21.4188679 85.4056209,21.0037736 L92.3037672,14.0301887 L99.2019135,21.0037736 C99.6125174,21.4188679 100.187363,21.6679245 100.762208,21.6679245 C101.337054,21.6679245 101.9119,21.4188679 102.322503,21.0037736 C103.225832,20.090566 103.225832,18.6792453 102.322503,17.8490566 L95.4243572,10.8754717 L95.4243572,10.8754717 Z M50.0936815,19.4264151 C50.0936815,20.5886792 51.3254933,21.6679245 52.5573052,21.6679245 C53.7069962,21.6679245 55.0209288,20.5886792 55.0209288,19.4264151 L55.0209288,9.54716981 L50.0936815,9.54716981 L50.0936815,19.4264151 Z"></path>
                </g>
            </g>
        </g>
    </g>
</svg>
