<?xml version="1.0" encoding="UTF-8" standalone="no"?>
<svg width="129px" height="129px" viewBox="0 0 129 129" version="1.1" xmlns="http://www.w3.org/2000/svg" xmlns:xlink="http://www.w3.org/1999/xlink">
    <!-- Generator: Sketch 46.2 (44496) - http://www.bohemiancoding.com/sketch -->
    <title>Nginxweb云主机部署</title>
    <desc>Created with Sketch.</desc>
    <defs></defs>
    <g id="Page-1" stroke="none" stroke-width="1" fill="none" fill-rule="evenodd">
        <g id="Artboard" transform="translate(-131.000000, -1261.000000)">
            <g id="Nginxweb云主机部署" transform="translate(131.000000, 1261.000000)">
                <path d="M103.618789,2.82160675 C93.3718926,1.02838055 78.9073874,0 63.9393737,0 C49.1031809,0 35.3821825,0.966426686 25.3055436,2.71698532 C9.42574665,5.4766382 5.64388657,9.28963799 2.83232346,25.382175 C-0.895117583,46.6917781 -0.951385771,82.5544519 2.71040901,103.693517 C5.46002416,119.573112 9.27266015,123.353352 25.3734354,126.172581 C35.6458243,127.970034 50.1412376,129 65.1400272,129 C79.9417457,129 93.6356666,128.039518 103.696852,126.296621 C119.57863,123.534987 123.362207,119.723704 126.170072,103.627204 C129.898834,82.3142982 129.949554,46.4435666 126.28208,25.3006707 C123.524804,9.42107524 119.713885,5.63911828 103.618789,2.82160675 Z" id="Shape" fill="#07A007" fill-rule="nonzero"></path>
                <g id="Nginx" transform="translate(12.000000, 37.000000)" fill-rule="nonzero" fill="#FEFEFE">
                    <path d="M7.17939216,2.58288596 L17.8827115,15.1214651 L17.8827114,2.46711715 C17.8827114,1.64463869 18.1106387,1.02791241 18.5669195,0.616726274 C19.0227742,0.205433949 19.638391,0 20.4132375,0 C21.2129004,0 21.8438545,0.205433949 22.3064192,0.616726274 C22.7686644,1.02791252 23,1.64463869 23,2.46711715 L23,19.1994772 C23,21.0666339 22.0002084,22 20.0008382,22 C19.5007826,22 19.0508924,21.9443971 18.651274,21.8335094 C18.2512295,21.7217729 17.8763209,21.5455199 17.5265484,21.3034772 C17.1763497,21.0618589 16.851713,20.7790689 16.5517862,20.4544706 C16.2518594,20.130615 15.9519325,19.7993316 15.6520057,19.4606202 L5.21112227,7.06709693 L5.21112227,19.5328828 C5.21112227,20.345599 4.96743168,20.9599907 4.48005059,21.3761642 C3.99266951,21.7919133 3.36778638,21.9998939 2.6055079,21.9998939 C1.81820001,21.9998939 1.18692643,21.7896849 0.712326243,21.3687364 C0.237406623,20.9477878 0,20.3363672 0,19.5328828 L1.04082345e-07,3.11992169 C1.04082345e-07,2.42339879 0.099798211,1.87691907 0.29992691,1.48027035 C0.537226953,1.04478434 0.930880951,0.689201143 1.48078232,0.413520748 C2.03036416,0.137840249 2.62425334,0.000106184511 3.26159793,0.000106184511 C3.76133401,0.000106184511 4.18939003,0.062818715 4.54555315,0.188668203 C4.90171627,0.314623772 5.21399807,0.483767297 5.48282455,0.696629081 C5.7513315,0.909490865 6.02644195,1.18517136 6.30762332,1.52356429 C6.58891116,1.86238164 6.87946525,2.21531199 7.17939216,2.58288596 Z" id="Shape"></path>
                    <path d="M66.1792123,2.58287349 L76.8826877,15.1213921 L76.8826877,2.46710525 C76.8826877,1.64463075 77.1106161,1.02790745 77.566899,0.616723297 C78.0227558,0.205432957 78.6383754,0 79.4132256,0 C80.2128921,0 80.8439556,0.205432957 81.306416,0.616723297 C81.7687698,1.02790756 82,1.64463075 82,2.46710525 L82,19.1993845 C82,21.0665322 81.0002038,21.9998938 79.0009308,21.9998938 C78.5007664,21.9998938 78.0508741,21.9442911 77.6512538,21.833404 C77.2512075,21.7216681 76.8764037,21.5454159 76.526523,21.3033744 C76.1763227,21.0617573 75.8516845,20.7789686 75.5517564,20.4543718 C75.2519346,20.1305178 74.9518999,19.7992361 74.6520782,19.4605263 L64.2111466,7.06727509 L64.2111466,19.5330008 C64.2111466,20.345713 63.9674549,20.9601018 63.4800715,21.3762733 C62.9927947,21.7920204 62.3678022,22 61.6056266,22 C60.8182085,22 60.1870386,21.789792 59.7123297,21.3688455 C59.2374079,20.947899 59.0000002,20.3364814 59.0000002,19.5330008 L59,3.11990663 C59,2.4233871 59.0997986,1.87691001 59.2999282,1.48026321 C59.5372293,1.0447793 59.9308852,0.689197816 60.4808956,0.413518752 C61.0304799,0.137839584 61.6242654,0.000106183998 62.2616128,0.000106183998 C62.7613512,0.000106183998 63.1895158,0.0628184118 63.5456806,0.188667292 C63.9018453,0.314622253 64.2141286,0.483764963 64.4829563,0.696625719 C64.7514645,0.909486475 65.0265762,1.18516564 65.3077589,1.52355694 C65.5887286,1.86237265 65.879284,2.2153013 66.1792123,2.58287349 Z" id="Shape"></path>
                    <path d="M85.3202531,17.5015265 L91.2531701,10.5501313 L86.2609566,4.36784752 C85.7906562,3.76841182 85.437931,3.25291205 85.2027807,2.8226214 C84.9676305,2.39190633 84.8500555,1.97848778 84.8500555,1.58183524 C84.8500555,1.17542016 85.0760586,0.810177175 85.5283733,0.48589412 C85.9804824,0.162035393 86.5322837,0 87.1834687,0 C87.9308517,0 88.5129717,0.176254715 88.9289038,0.529612904 C89.3448359,0.882971092 89.9204811,1.53811645 90.6563532,2.49568547 L94.635715,7.66214393 L98.8863011,2.49568547 C99.2357375,2.06051361 99.5343002,1.68826715 99.7816806,1.37862775 C100.028753,1.06898834 100.266883,0.812405619 100.496175,0.609198132 C100.725159,0.405990646 100.981275,0.253505418 101.264833,0.152379146 C101.548082,0.0507223621 101.876552,1.17889626e-14 102.250655,1.17889626e-14 C102.925684,1.17889626e-14 103.477382,0.162035497 103.90575,0.48589412 C104.333707,0.810177278 104.547891,1.19483905 104.547891,1.63966715 C104.547891,2.2880212 104.083346,3.16844561 103.155078,4.2807283 L97.9277146,10.5501314 L103.553025,17.5015266 C104.059502,18.1110431 104.427027,18.6164621 104.656319,19.017996 C104.885405,19.4194236 105,19.7993104 105,20.1571254 C105,20.4958399 104.897327,20.8054794 104.692496,21.0860437 C104.487459,21.3666081 104.197941,21.5891282 103.824352,21.7534982 C103.450249,21.9178681 103.028459,22 102.558261,22 C102.051784,22 101.623416,21.9152152 101.27398,21.7459641 C100.924235,21.5771374 100.640986,21.3665019 100.423924,21.1148005 C100.206862,20.8634174 99.8027495,20.3747643 99.2119963,19.6490534 L94.5453754,13.7574146 L89.589236,19.8231857 C89.2032115,20.307276 88.9290066,20.6456721 88.7662104,20.8391173 C88.6034141,21.0328807 88.4073186,21.2215507 88.178335,21.404915 C87.949043,21.5890221 87.6776131,21.7340794 87.3643536,21.8404052 C87.050683,21.9468371 86.682747,21.9998939 86.2610594,21.9998939 C85.6098743,21.9998939 85.0700978,21.8404052 84.6421409,21.5210033 C84.213773,21.2017075 84.0000001,20.7373544 84.0000001,20.127838 C83.9997944,19.4124201 84.4396732,18.5368768 85.3202531,17.5015265 Z" id="Shape"></path>
                    <path d="M56,7 L56,2.62593351 C56,1.74087852 55.7668924,1.08178134 55.3012511,0.649282214 C54.835323,0.216249616 54.226584,0 53.4747475,0 C52.7451025,0 52.1501378,0.218596599 51.6902357,0.656323373 C51.2299511,1.0941568 51,1.75058682 51,2.62593351 L51,7 L56,7 Z" id="Shape"></path>
                    <path d="M51,10 L51,19.2817922 C51,20.1828464 51.2326294,20.8613002 51.6986532,21.3169338 C52.1642945,21.772238 52.7561983,22 53.4747474,22 C54.2264883,22 54.8353228,21.7749836 55.3012511,21.3244015 C55.7668924,20.8737096 56,20.1929497 56,19.2817922 L56,10 L51,10 Z" id="Shape"></path>
                    <path d="M34.2492794,8.91176462 C33.2568968,9.05834106 32.4926825,9.93609554 32.4926825,10.9995207 C32.4926825,12.1656346 33.4104219,13.1112446 34.5421661,13.1112446 L42.0760658,13.1112446 L39.582548,17.7764457 L31.7237126,17.7764457 L28.5814603,10.8109739 L32.0167027,4.22344777 L39.6287605,4.22344777 L40.665495,6.4484063 L45.2124251,6.4484063 L42.2079838,0 L29.5661926,5.91725698e-15 L24,10.6737714 L29.1088219,22 L42.0047309,22 L49,8.91187111 L34.2492794,8.91187111 L34.2492794,8.91176462 Z" id="Shape"></path>
                </g>
                <g id="web" transform="translate(12.000000, 67.000000)" fill-rule="nonzero" fill="#FFFFFF">
                    <path d="M5.83655859,20.6017656 C6.70237172,21.5468868 7.78216608,22 9.07594153,22 C10.7218698,22 11.8872302,21.4270268 12.5722865,20.300528 C13.1526595,19.3363561 13.6520809,18.2574837 14.0706825,17.0737009 C14.4797913,18.152441 14.7747242,18.8850951 14.955481,19.2765585 C15.3550972,20.1261622 15.8687576,20.8122483 16.4967258,21.3373305 C17.0008935,21.7478444 17.6525935,21.9525061 18.451826,21.9525061 C20.4401506,21.9525061 21.7626678,20.644365 22.4191143,18.0286122 L27,0.0144201953 L23.646441,0 L19.4223226,16.4532336 C19.2225804,17.2455533 19.003721,17.7324019 18.7658761,17.9137794 C18.6135974,18.0188222 18.4280944,18.0713437 18.2093668,18.0713437 C17.9906392,18.0713437 17.8241215,18.0188222 17.7099454,17.9137794 C17.4815934,17.6846431 17.2152704,17.1723936 16.9108449,16.0077936 L12.7295754,0.340661664 L9.34740638,0.340661664 L12.5012233,12.2990127 L10.6174502,17.4619892 C10.5318841,17.6816003 10.3415028,17.8740907 10.0465699,18.1318029 C9.7897398,18.3418886 9.4995533,18.4237798 9.17601046,18.4237798 C8.7574089,18.4237798 8.41962702,18.2594684 8.16279688,17.9539974 C7.87735673,17.6102928 7.6110339,17.0947361 7.36369632,16.0923307 L3.38216898,0.340661793 L0,0.340661793 L4.08133254,16.4446345 C4.62347102,18.6211649 5.20859035,19.9238818 5.83655859,20.6017656 Z" id="Shape"></path>
                    <path d="M30.2410128,21.5195955 C31.1741972,21.8657046 32.587107,22 33.4241597,22 L43,22 L43,19.0185369 L33.4241597,19.0185369 C32.9239013,19.0185369 31.9977834,18.8572786 31.6801887,18.5767618 C31.304995,18.239986 30.6000734,17.7467483 30.6000734,17.1387891 L30.6000734,12.4075961 L42.9998666,12.4075961 L42.9998666,8.77798881 L30.6000734,8.77798881 L30.6000735,5.52093504 C30.6000735,4.29555379 32.4283097,3.98146312 34.0157499,3.98146312 L42.9998667,3.98146312 L42.9998667,1 L32.7601707,1 C31.3651273,1 29.7310212,1.22127645 28.9131682,2.08188227 C27.9895836,3.0640799 27,4.10849937 27,5.63319372 L27,16.7176253 C27.0001336,19.2713131 28.4322429,20.8460441 30.2410128,21.5195955 Z" id="Shape"></path>
                    <path d="M50.6544163,22 L61,22 C60.9664485,8.35981715 60.9496727,1.02648382 60.9496727,0 L50.3341365,0 C49.0810582,0 47.6369696,0.481744077 46.7273238,1.39977468 C45.817678,2.29872107 45,3.46418395 45,4.85097076 L45,17.0728248 C45,18.5264063 45.8037863,19.6821946 46.6855202,20.6194419 C47.5766439,21.566364 49.1415126,22 50.6544163,22 Z M48.8007812,4 C49.3431952,3.68195132 50.0098619,3.51528465 50.8007812,3.5 L57.5,3.5 L57.5,9 L48,9 L48,6 C47.9914402,4.98471535 48.2583673,4.31804868 48.8007812,4 Z M48,12.1928304 L57.5,12.1928304 L57.5,18.9516931 L50.3345691,18.9516931 C49.2485765,18.9516931 48,18.2060831 48,16.8002121 L48,12.1928304 Z" id="Shape" transform="translate(53.000000, 11.000000) scale(-1, 1) translate(-53.000000, -11.000000) "></path>
                </g>
                <g id="执行" transform="translate(73.000000, 73.000000)">
                    <circle id="Oval-4" fill="#0275D8" cx="23" cy="23" r="23"></circle>
                    <circle id="Oval-4" fill="#FFFFFF" cx="23" cy="23" r="20"></circle>
                    <g id="容器云" transform="translate(9.000000, 8.000000)" fill-rule="nonzero" fill="#006DFF">
                        <path d="M20.5,3.744 L14,0 L7.5,3.744 L7.5,11.2549091 L14,14.9989091 L20.5,11.2549091 L20.5,3.744 Z M18.5,10.245045 L14,12.7998047 L9.5,10.245045 L9.5,4.75495495 L14,2.20019531 L18.5,4.75495495 L18.5,10.245045 Z M13.9989073,6.79980469 L17.5,5 L13.9989073,3.20019531 L10.5,5 L13.9989073,6.79980469 Z" id="Shape"></path>
                        <path d="M13,16.744 L6.5,13 L0,16.744 L0,24.2549091 L6.5,27.9989091 L13,24.2549091 L13,16.744 Z M11,23.245045 L6.5,25.7998047 L2,23.245045 L2,17.754955 L6.5,15.2001953 L11,17.754955 L11,23.245045 Z M6.49890727,19.7998047 L10,18 L6.49890727,16.2001953 L3,18 L6.49890727,19.7998047 Z" id="Shape"></path>
                        <path d="M28,16.744 L21.5,13 L15,16.744 L15,24.2549091 L21.5,27.9989091 L28,24.2549091 L28,16.744 Z M26,23.245045 L21.5,25.7998047 L17,23.245045 L17,17.754955 L21.5,15.2001953 L26,17.754955 L26,23.245045 Z M21.4989073,19.7998047 L25,18 L21.4989073,16.2001953 L18,18 L21.4989073,19.7998047 Z" id="Shape"></path>
                    </g>
                </g>
            </g>
        </g>
    </g>
</svg>
