<svg width="59" height="59" xmlns="http://www.w3.org/2000/svg"><path d="M.013 29.354C.013 13.154 13.144.021 29.345.021c16.2 0 29.333 13.133 29.333 29.333S45.546 58.688 29.346 58.688.012 45.555.012 29.354zM41 38c-.154-2.3-1.23-4.447-2.923-5.827v-6.44c0-3.68-2.615-6.9-6-7.513v-.153A3.08 3.08 0 0 0 29 15a3.08 3.08 0 0 0-3.077 3.067v.153c-3.385.767-6 3.833-6 7.513v6.44C18.231 33.553 17 35.7 17 38h24zm-12.706 5h.784c2.04 0 3.608-1.304 3.922-3h-8c.314 1.696 1.882 3 3.922 3h-.628z" fill="#3DA7FF" fill-rule="nonzero"/></svg>