<?xml version="1.0" encoding="UTF-8"?>
<svg width="16px" height="10px" viewBox="0 0 16 10" version="1.1" xmlns="http://www.w3.org/2000/svg" xmlns:xlink="http://www.w3.org/1999/xlink">
    <title>数字备份</title>
    <g id="页面-1" stroke="none" stroke-width="1" fill="none" fill-rule="evenodd">
        <g id="画板备份-22" transform="translate(-442.000000, -351.000000)" fill="#1D9B94" fill-rule="nonzero">
            <g id="编组-2" transform="translate(0.000000, -1.000000)">
                <g id="实体1备份-2" transform="translate(0.000000, 1.000000)">
                    <g transform="translate(441.750014, 251.000000)">
                        <g id="数字备份" transform="translate(0.249986, 100.800000)">
                            <path d="M2.88205128,8.20512821 C2.81507064,7.78566401 2.79274375,7.41735405 2.79274375,6.8751199 L2.79274375,1.6983183 C2.79274375,1.08446832 2.81507064,0.613849984 2.88205128,0.0102308333 C2.48016745,0.0511541667 2.31271584,0.061385 1.74338044,0.061385 L0.716343974,0.061385 C0.191662308,0.061385 0.34606663,0.0511541667 0,0 L0,1.29931582 C0.413047271,1.25839248 0.336787033,1.23793082 0.749834286,1.23793082 L1.2856794,1.23793082 L1.2856794,6.8751199 C1.2856794,7.40712317 1.26335253,7.80612574 1.19637189,8.20512821 L2.88205128,8.20512821 Z M7.52479771,8.14494389 C8.10730264,8.14494389 8.47136822,8.16500534 8.89914529,8.20512821 L8.89914529,6.88107329 C8.59879119,6.93122687 8.14370919,6.96131904 7.5703059,6.96131904 L5.02184678,6.96131904 C5.15837137,6.58015171 5.26759106,6.37953734 5.54064024,6.05855431 C5.76818125,5.7877249 6.22326322,5.36643471 6.62373537,5.0554824 C7.80694853,4.16274841 7.89796493,4.08250266 8.15281084,3.82170397 C8.59879119,3.3602909 8.79902725,2.87881638 8.79902725,2.21678891 C8.79902725,0.842580401 7.81605016,0 6.22326322,0 C5.31309925,0 4.59406971,0.310952292 4.13898773,0.892734006 C3.80222705,1.32405492 3.63839755,1.73531441 3.51097458,2.49764904 L4.81250907,2.66817127 C4.87622055,2.20675819 4.93993203,1.98608237 5.09465989,1.74534511 C5.32220088,1.35414708 5.72267304,1.15353269 6.25056815,1.15353269 C7.02420753,1.15353269 7.50659443,1.57482288 7.50659443,2.25691179 C7.50659443,2.76847846 7.25174852,3.0994922 6.41439766,3.7314275 C5.50423368,4.40348567 5.23118449,4.63419221 4.91262711,4.9451445 C4.32102051,5.53695694 3.91144674,6.17892295 3.66570245,6.91116545 C3.54738115,7.27227128 3.48366967,7.62334646 3.42905984,8.19509744 C3.74761722,8.15497457 3.89324344,8.14494389 4.60317136,8.14494389 L7.52479771,8.14494389 Z M9.44615385,6.16370808 C9.62597402,6.73570019 9.75584416,6.99211045 10.0055944,7.26824462 C10.5750249,7.90927026 11.3742258,8.20512821 12.5430569,8.20512821 C13.611988,8.20512821 14.4511489,7.92899405 15.0005995,7.40631159 C15.3702298,7.04142013 15.6,6.4990138 15.6,5.96646942 C15.6,5.38461538 15.4501499,4.9704142 15.1204796,4.60552269 C14.7708291,4.22090731 14.4011988,4.05325444 13.6919081,3.94477317 C14.2213786,3.80670611 14.4411588,3.72781064 14.660939,3.56015779 C15.0905094,3.24457595 15.3502498,2.70216962 15.3502498,2.11045365 C15.3502498,0.828402372 14.2713287,0 12.602997,0 C11.8037962,0 11.1544456,0.177514792 10.644955,0.542406314 C10.1754246,0.877712035 9.94565434,1.22287968 9.6959041,1.95266272 L11.1244755,2.1893491 C11.2443556,1.78500987 11.3442557,1.617357 11.5440559,1.42998027 C11.7838162,1.23274162 12.1434566,1.12426035 12.632967,1.12426035 C13.4821179,1.12426035 13.9516484,1.50887574 13.9516484,2.1893491 C13.9516484,2.94871795 13.3622378,3.40236686 12.3632368,3.40236686 C11.9336664,3.40236686 11.7138862,3.39250494 11.3942058,3.3530572 L11.3942058,4.57593687 C11.7338662,4.53648915 12.0235764,4.52662723 12.4631368,4.52662723 C12.9026973,4.52662723 13.3722278,4.62524654 13.611988,4.76331361 C13.9716283,4.9704142 14.1714286,5.34516764 14.1714286,5.79881657 C14.1714286,6.57790928 13.5420579,7.08086785 12.5530469,7.08086785 C12.0735265,7.08086785 11.673926,6.95266272 11.3442557,6.69625247 C11.0945055,6.4990138 11.0045954,6.34122288 10.8747253,5.88757397 L9.44615385,6.16370808 Z" id="形状"></path>
                        </g>
                    </g>
                </g>
            </g>
        </g>
    </g>
</svg>