<?xml version="1.0" encoding="UTF-8"?>
<svg width="12px" height="12px" viewBox="0 0 12 12" version="1.1" xmlns="http://www.w3.org/2000/svg" xmlns:xlink="http://www.w3.org/1999/xlink">
    <!-- Generator: Sketch 53.2 (72643) - https://sketchapp.com -->
    <title>项目</title>
    <desc>Created with Sketch.</desc>
    <g id="页面-1" stroke="none" stroke-width="1" fill="none" fill-rule="evenodd">
        <g id="2-copy-2" transform="translate(-294.000000, -218.000000)" fill="#14B4E6" fill-rule="nonzero">
            <g id="Group-6" transform="translate(239.000000, 91.000000)">
                <g id="项目" transform="translate(55.000000, 127.000000)">
                    <path d="M5.28121219,6.26227389 L0.587055937,4.01000985 C0.26022,3.88228966 0.0447825,3.56504039 0.0447825,3.21142463 C0.0447825,2.85780887 0.260208281,2.54055961 0.587055937,2.41285123 L5.28121219,0.160575369 C5.73471951,-0.0519358334 6.25802517,-0.0519358334 6.7115325,0.160575369 L11.4056887,2.41285123 C11.7325247,2.54055961 11.9479622,2.85780887 11.9479622,3.21142463 C11.9479622,3.56504039 11.7325364,3.88228966 11.4056887,4.00999803 L6.7115325,6.26227389 C6.25802517,6.47478509 5.73471951,6.47478509 5.28121219,6.26227389 Z" id="Path"></path>
                    <path d="M5.99637234,9.2745931 C5.65491672,9.27472719 5.31800677,9.19561535 5.01170437,9.04337734 L0.406669219,6.73542857 C0.181542406,6.6474398 0.025119048,6.43854983 0.00274811629,6.19602661 C-0.0196228154,5.95350339 0.0959083177,5.71908083 0.301076084,5.59069363 C0.506243851,5.46230643 0.76574254,5.46204773 0.971161406,5.59002562 L5.57194266,7.89796256 C5.83994326,8.02920622 6.15280142,8.02920622 6.42080203,7.89796256 L11.0258255,5.59002562 C11.2312443,5.46204773 11.490743,5.46230643 11.6959108,5.59069363 C11.9010786,5.71908083 12.0166097,5.95350339 11.9942388,6.19602661 C11.9718678,6.43854983 11.8154445,6.6474398 11.5903177,6.73542857 L6.98104031,9.04337734 C6.67481542,9.19583402 6.33785415,9.27495791 5.99637234,9.2745931 L5.99637234,9.2745931 Z M5.99637234,11.9893123 C5.65489054,11.9896771 5.31792927,11.9105532 5.01170438,11.7580966 L0.406669219,9.45014778 C0.181542406,9.36215901 0.025119048,9.15326904 0.00274811629,8.91074582 C-0.0196228154,8.6682226 0.0959083177,8.43380004 0.301076084,8.30541284 C0.506243851,8.17702564 0.76574254,8.17676695 0.971161406,8.30474483 L5.57194266,10.6126936 C5.83942128,10.7462084 6.15332341,10.7462084 6.42080203,10.6126936 L11.0258255,8.30474483 C11.2312443,8.17676695 11.490743,8.17702564 11.6959108,8.30541284 C11.9010786,8.43380004 12.0166097,8.6682226 11.9942388,8.91074582 C11.9718678,9.15326904 11.8154445,9.36215901 11.5903177,9.45014778 L6.98104031,11.7581084 C6.67481639,11.9105691 6.33785507,11.9896971 5.99637234,11.989336 L5.99637234,11.9893123 Z" id="Shape" opacity="0.5"></path>
                </g>
            </g>
        </g>
    </g>
</svg>