<svg width="129" height="129" xmlns="http://www.w3.org/2000/svg"><defs><radialGradient cx="50%" cy="50%" fx="50%" fy="50%" r="61.308%" id="a"><stop stop-color="#FFF7F7" offset="0%"/><stop stop-color="#FEF7F7" offset="51.021%"/><stop stop-color="#FFEBE0" offset="100%"/></radialGradient></defs><g fill="none" fill-rule="evenodd"><path d="M103.619 2.822C93.372 1.028 78.907 0 63.939 0 49.103 0 35.382.966 25.306 2.717 9.426 5.477 5.644 9.29 2.832 25.382-.895 46.692-.95 82.554 2.71 103.694c2.75 15.88 6.563 19.66 22.663 22.479C35.646 127.97 50.141 129 65.14 129c14.802 0 28.496-.96 38.557-2.703 15.882-2.762 19.665-6.573 22.473-22.67 3.729-21.313 3.78-57.183.112-78.326-2.757-15.88-6.568-19.662-22.663-22.48z" fill="url(#a)" fill-rule="nonzero"/><g fill-rule="nonzero"><path d="M76.1 41.798c2.764 1.233 5.225 3.084 7.378 5.245L97 42.107c-12.314-17.28-36.246-21.284-53.478-8.947-11.37 7.715-17.211 20.67-16.292 34.242l13.523-4.935c.92-13.882 12.91-24.062 26.741-23.14 3.073.31 5.837.93 8.606 2.471M34.91 71.415L22 76.04c1.228 4.626 3.072 9.257 6.145 12.96l13.214-4.626a25.977 25.977 0 0 1-6.448-12.96" fill="#E00"/><path d="M90.564 66.566c-.31 3.044-.925 5.788-2.165 8.527-5.874 12.487-20.708 17.664-33.381 11.876-2.78-1.217-5.255-3.044-7.42-5.177L34 86.969a35.544 35.544 0 0 0 15.143 12.487c19.473 8.832 42.346.61 51.31-18.575a36.175 36.175 0 0 0 3.4-18.881l-13.29 4.566z" fill="#E00"/><path d="M93.91 50L81 54.67c2.521 4.364 3.463 9.347 3.147 14.33L98 64.017c-.626-4.983-1.884-9.654-4.09-14.017" fill="#E00"/><path d="M46.552 60.275L33 65.189l.922 6.45 12.939-4.606c-.31-2.147-.31-4.607-.31-6.758zM106 45.53c-.922-1.844-2.157-3.687-3.388-5.531L89.06 44.915c1.54 1.535 2.77 3.379 4.006 5.222L106 45.531zM34.54 86.696c.921 1.536 2.157 2.763 3.387 4.304l14.788-5.223c-1.54-.919-3.388-2.152-4.619-3.687L34.54 86.696zm69.612-25.189L90.6 66.422c0 1.843-.618 3.995-1.23 5.839l14.787-5.223c.304-2.152.304-3.995-.005-5.53z" fill="#C00"/><path d="M46.523 63.382v-2.766L33 65.536c0 .921.308 1.847.308 2.464l13.215-4.618zM104 42.155c-.308-.617-.92-1.23-1.228-2.155L89.25 44.921c.617.617 1.228 1.23 1.536 1.846L104 42.155z" fill="#A30000"/></g><g transform="translate(73 73)"><circle fill="#0275D8" cx="23" cy="23" r="23"/><circle fill="#FFF" cx="23" cy="23" r="20"/><path d="M8 29.35C8 32.454 10.46 35 13.483 35h15.965C31.945 35 34 32.903 34 30.32c0-2.582-2.032-4.68-4.552-4.68h-.02C28.79 21.776 25.612 19 21.775 19c-3.08 0-5.91 1.942-7.13 4.835a6.068 6.068 0 0 0-1.161-.136c-3.023 0-5.483 2.54-5.483 5.65zm3 .15c0-1.5 1-3.177 3-3.177.667 0 1.408.126 2.224.377l.15-.377C17.176 24.335 18 22 21.651 22c4.349 0 5.276 2.93 5.576 5.5l.049.42.466-.058c.15-.014.268-.028.369-.028C29.715 27.834 31 28.58 31 30c0 1.423-1.301 2-2.89 2H14.673C12.653 32 11 31 11 29.5zm23.52-3.486h-1.406a4.65 4.65 0 0 0-.396-.32v-.247c0-.104.09-.19.198-.19h1.604c.113 0 .202.086.202.19v.377c0 .104-.09.19-.202.19zm-7.285-6.076v-.343h-.475c.164.108.322.223.475.343zm-1.567-6.036h-.756v.754h.756v-.754zm3.078.038h-.756v.753h.756v-.753zm-1.511-.019h-.756v.754h.756v-.754zm-3.097 0h-.755v.754h.755v-.754zM37 13.089v2.339c0 .727-.456 1.09-1.204 1.09h-13.45c-.732 0-1.204-.187-1.204-1.09v-2.339c0-.615.28-1.089 1.205-1.089h13.449c.864 0 1.204.313 1.204 1.09zm-1.708.192H22.84v1.937h12.453V13.28zm-2.372 1.382h1.604c.109 0 .202-.085.202-.19v-.377c0-.104-.09-.19-.202-.19H32.92a.193.193 0 0 0-.199.19v.377c-.003.108.086.19.199.19zm2.876 2.992h-13.45c-.777 0-1.099.336-1.181.806a7.436 7.436 0 0 1 1.384-.135c.882 0 1.728.402 2.517.674h10.317v2H28s.952.8 1.165 1.172h6.63c.749 0 1.205-.358 1.205-1.09v-2.338c0-.772-.34-1.09-1.204-1.09zm-7.806 1.958v.754h.756v-.754h-.756zm6.53.728c.109 0 .202-.086.202-.19v-.377c0-.105-.09-.19-.202-.19h-1.604a.193.193 0 0 0-.198.19v.376c0 .105.09.19.198.19h1.604zm-4.813 2.991c.13.35.41.991.492 1.368H35.5v1.8h-1.9c.224.325.61.973.748 1.35h1.448c.748 0 1.204-.359 1.204-1.09v-2.339c0-.776-.34-1.089-1.204-1.089h-6.089z" fill="#0275D8" fill-rule="nonzero"/></g></g></svg>