<?xml version="1.0" encoding="UTF-8"?>
<svg width="82px" height="67px" viewBox="0 0 82 67" version="1.1" xmlns="http://www.w3.org/2000/svg" xmlns:xlink="http://www.w3.org/1999/xlink">
    <!-- Generator: Sketch 51.2 (57519) - http://www.bohemiancoding.com/sketch -->
    <title>分公司1</title>
    <desc>Created with Sketch.</desc>
    <defs></defs>
    <g id="Page-1" stroke="none" stroke-width="1" fill="none" fill-rule="evenodd">
        <g id="Artboard-1" transform="translate(-2145.000000, -12108.000000)" fill-rule="nonzero">
            <g id="分公司1" transform="translate(2145.000000, 12108.000000)">
                <path d="M53.0658136,5.96809915 L33.9341864,0 C30,0 29,2.65336183 29,5.92644952 L29,63 L58,63 L58,11.8945487 C58,8.62146098 56,7 53.0658136,5.96809915 Z M53,48 L34,48 L34,42 L53,42 L53,48 Z M53,35 L34,35 L34,29 L53,29 L53,35 Z M53,21 L34,21 L34,15 L53,15 L53,21 Z" id="Shape" fill="#A7B9C6"></path>
                <path d="M20.9374016,21.262928 L9.06259845,17 C6,17 6,18.8952584 6,21.2331782 L6,62 L24,62 L24,25.4961062 C24,23 23,22 20.9374016,21.262928 Z M19,48 L11,48 L11,42 L19,42 L19,48 Z M19,35 L11,35 L11,29 L19,29 L19,35 Z" id="Shape" fill="#667587" transform="translate(15.000000, 39.500000) scale(-1, 1) translate(-15.000000, -39.500000) "></path>
                <path d="M74.2776903,37.3366352 L63.7223097,33.5 C61,33.5 61,35.2057326 61,37.3098604 L61,63 L77,63 L77,41.1464956 C77,38.9 76.1111111,38 74.2776903,37.3366352 Z M73,51 L65,51 L65,44 L73,44 L73,51 Z" id="Shape" fill="#667587" transform="translate(69.000000, 48.250000) scale(-1, 1) translate(-69.000000, -48.250000) "></path>
                <path d="M79.0131618,67 L2.98588088,67 C1.36316341,66.973867 0.0629196228,65.7852949 0.0629196228,64.328078 C0.0629196228,62.870861 1.36316341,61.682289 2.98588088,61.656156 L79.0131618,61.656156 C80.6358793,61.682289 81.9361231,62.870861 81.9361231,64.328078 C81.9361231,65.7852949 80.6358793,66.973867 79.0131618,67 Z" id="Shape" fill="#A7B9C6"></path>
            </g>
        </g>
    </g>
</svg>
