<?xml version="1.0" encoding="UTF-8"?>
<svg width="16px" height="14px" viewBox="0 0 16 14" version="1.1" xmlns="http://www.w3.org/2000/svg" xmlns:xlink="http://www.w3.org/1999/xlink">
    <title>组织</title>
    <g id="页面-1" stroke="none" stroke-width="1" fill="none" fill-rule="evenodd">
        <g id="提交" transform="translate(-517.000000, -378.000000)" fill="#B58B26" fill-rule="nonzero">
            <g id="Group-11" transform="translate(381.000000, 0.000000)">
                <g id="编组-4" transform="translate(40.000000, 240.000000)">
                    <g id="Group-12" transform="translate(0.000000, 129.000000)">
                        <g id="组织" transform="translate(96.000000, 9.000000)">
                            <path d="M14.2320084,9.82668977 L15.160004,9.82668977 C15.6221116,9.83107674 15.9956607,10.2087278 16,10.6759099 L16,13.1426921 C15.995611,13.6130087 15.6172328,13.9919331 15.152004,13.9919122 L12.5040165,13.9919122 C12.0387878,13.9919331 11.6604095,13.6130087 11.6560205,13.1426921 L11.6560205,10.6759099 C11.6560205,10.2024318 12.0356813,9.81860197 12.5040165,9.81860197 L13.3840124,9.81860197 L13.3840124,7.91796649 L8.42403584,7.91796649 L8.42403584,9.82668977 L9.32803156,9.82668977 C9.55358889,9.82450747 9.77053645,9.91412978 9.93003688,10.0753817 C10.0895373,10.2366336 10.1781861,10.4559635 10.1760276,10.6839977 L10.1760276,13.1507799 C10.1760276,13.6197912 9.79994852,14 9.33603152,14 L6.67204412,14 C6.20681534,14 5.82843708,13.6210965 5.82404813,13.1507799 L5.82404813,10.6759099 C5.82404813,10.2024318 6.20370887,9.81860197 6.67204412,9.81860197 L7.57603985,9.81860197 L7.57603985,7.91796649 L2.62406327,7.91796649 L2.62406327,9.82668977 L3.50405911,9.82668977 C3.96797611,9.82668977 4.34405514,10.2068986 4.34405514,10.6759099 L4.34405514,13.1426921 C4.3440653,13.3693276 4.25446865,13.5865648 4.09520434,13.746059 C3.93594004,13.9055532 3.72022281,13.9940706 3.49605914,13.9919122 L0.848071672,13.9919122 C0.382842899,13.9919331 0.00446464141,13.6130087 3.71703832e-05,13.1426921 L3.71703832e-05,10.6759099 C-0.00208290206,10.4478757 0.0865659428,10.2285458 0.246066366,10.0672939 C0.405566789,9.90604198 0.622514339,9.81641967 0.848071672,9.81860197 L1.76806733,9.81860197 L1.76806733,7.48931254 C1.76806733,7.25257349 1.95789769,7.06065858 2.19206532,7.06065858 L7.57603985,7.06065858 L7.57603985,5.24090122 L4.23205567,5.24090122 C3.98805765,5.24090122 3.75405315,5.14290901 3.5815205,4.96848176 C3.40898784,4.79405451 3.31206001,4.55748039 3.31206001,4.310803 L3.31206001,0.930098203 C3.31206001,0.68342082 3.40898785,0.446846701 3.5815205,0.272419452 C3.75405316,0.0979922027 3.98805765,0 4.23205567,0 L11.76802,0 C12.2761196,0 12.6880157,0.41641915 12.6880157,0.930098203 L12.6880157,4.310803 C12.6880157,4.55748038 12.5910878,4.7940545 12.4185552,4.96848176 C12.2460225,5.14290901 12.012018,5.24090122 11.76802,5.24090122 L8.42403584,5.24090122 L8.42403584,7.06065858 L13.8000104,7.06065858 C13.9124617,7.06065858 14.0203072,7.1058202 14.0998223,7.18620841 C14.1793373,7.26659662 14.2240084,7.37562644 14.2240084,7.48931254 L14.2320084,9.82668977 Z M5.60004919,1.77931831 C5.15822348,1.77931831 4.80005298,2.14142192 4.80005298,2.58809936 C4.80005298,3.0347768 5.15822348,3.39688042 5.60004919,3.39688042 C6.0418749,3.39688042 6.40004541,3.0347768 6.40004541,2.58809936 C6.40004541,2.37359729 6.31576034,2.16788067 6.16573194,2.0162048 C6.01570355,1.86452893 5.81222138,1.77931831 5.60004919,1.77931831 L5.60004919,1.77931831 Z M8.00003784,1.77931831 C7.55821213,1.77931831 7.20004163,2.14142192 7.20004163,2.58809936 C7.20004163,3.0347768 7.55821213,3.39688042 8.00003784,3.39688042 C8.44186355,3.39688042 8.80003406,3.0347768 8.80003406,2.58809936 C8.80003406,2.14142192 8.44186355,1.77931831 8.00003784,1.77931831 L8.00003784,1.77931831 Z M10.4000265,1.77931831 C10.0764582,1.77931831 9.78475057,1.97637148 9.66092635,2.27859224 C9.53710214,2.58081301 9.60554641,2.92868416 9.83434373,3.15999393 C10.063141,3.39130369 10.4072337,3.46049956 10.7061718,3.33531563 C11.0051099,3.21013169 11.2000227,2.91522076 11.2000227,2.58809936 C11.2000227,2.14142193 10.8418522,1.77931831 10.4000265,1.77931831 L10.4000265,1.77931831 Z" id="形状"></path>
                        </g>
                    </g>
                </g>
            </g>
        </g>
    </g>
</svg>