<?xml version="1.0" encoding="UTF-8"?>
<svg width="70px" height="58px" viewBox="0 0 70 58" version="1.1" xmlns="http://www.w3.org/2000/svg" xmlns:xlink="http://www.w3.org/1999/xlink">
    <!-- Generator: Sketch 51.2 (57519) - http://www.bohemiancoding.com/sketch -->
    <title>部门1</title>
    <desc>Created with Sketch.</desc>
    <defs></defs>
    <g id="Page-1" stroke="none" stroke-width="1" fill="none" fill-rule="evenodd">
        <g id="Artboard-1" transform="translate(-2262.000000, -12113.000000)" fill-rule="nonzero">
            <g id="部门1" transform="translate(2262.000000, 12113.000000)">
                <path d="M29.8452745,32.9438551 C30.310172,33.9877902 29.7477034,36.6061849 27.8823738,37.6501201 C27.8823738,37.6501201 15.3875348,43.4003202 14.9226373,57 L0,57 L0,11.6603092 C0,10.0915542 2.3302272,9.04761905 2.3302272,9.04761905 L26.4876812,0 C28.1818182,0 28.8179084,1.04393516 28.8179084,2.61269018 L28.8179084,10.4564652 C28.8179084,10.4564652 25.5521466,12.55004 25.5521466,20.9186349 C25.0872491,29.2815252 29.380377,32.4190352 29.8452745,32.9438551 Z M8.18181818,16.2857143 L8.18181818,24.4285714 L19.0909091,24.4285714 L19.0909091,16.2857143 L8.18181818,16.2857143 Z M8.18181818,28.952381 L8.18181818,37.0952381 L19.0909091,37.0952381 L19.0909091,28.952381 L8.18181818,28.952381 Z" id="Combined-Shape" fill="#667587"></path>
                <path d="M69.9943017,55.4596596 L69.9829463,55.3467123 L69.9772686,55.2676491 C69.9749606,55.0886946 69.9521015,54.9105884 69.9091362,54.7367964 C68.8447441,46.4918735 63.4920593,39.4145427 55.8227689,36.1117727 C60.3365035,33.034116 63.0325572,27.939188 63.027767,22.4959655 C63.0434611,13.4032858 55.6471719,6.0186958 46.5056674,6 C37.3641645,6.01558244 29.9653369,13.3976412 29.9778901,22.4903181 C29.9706309,27.9385883 32.6693561,33.0387764 37.1885659,36.1174201 C29.5903458,39.3894416 24.2605571,46.3693687 23.130587,54.5278438 C23.0471602,54.7658086 23.0030595,55.0156494 23,55.2676491 L23.017033,55.4596596 L23.017033,55.4878965 C22.9558468,56.3640394 23.3910847,57.2009655 24.1453504,57.6575563 C24.899616,58.1141471 25.846939,58.1141471 26.6012046,57.6575563 C27.3554703,57.2009655 27.7907082,56.3640394 27.729522,55.4878965 L27.729522,55.4596596 L27.7806212,55.4596596 C28.8848331,46.4116557 36.3566993,39.4558038 45.5063926,38.9580468 C46.1700936,38.997417 46.8355634,38.997417 47.4992644,38.9580468 C56.6501838,39.4554043 64.1239141,46.4107638 65.2307135,55.4596596 L65.2818128,55.4596596 L65.2818128,55.4878965 C65.2206263,56.3640395 65.6558642,57.2009659 66.4101299,57.6575568 C67.1643957,58.1141477 68.1117188,58.1141477 68.8659845,57.6575568 C69.6202502,57.2009659 70.0554881,56.3640395 69.9943017,55.4878965 L69.9943017,55.4596596 Z M34.7500053,22.7103549 C34.7500053,16.188643 40.0074013,10.9056604 46.5028292,10.9056604 C52.992604,10.9056604 58.2499999,16.188643 58.25,22.7103549 C58.25,28.8587512 53.5579155,33.9098256 47.5712677,34.4528302 C46.8593421,34.4204884 46.1463163,34.4204884 45.4343906,34.4528302 C39.3756297,33.8887166 34.7442786,28.7987162 34.7500053,22.7103549 Z" id="Shape" fill="#A7B9C6"></path>
            </g>
        </g>
    </g>
</svg>
