<?xml version="1.0" standalone="no"?><!DOCTYPE svg PUBLIC "-//W3C//DTD SVG 1.1//EN" "http://www.w3.org/Graphics/SVG/1.1/DTD/svg11.dtd"><svg t="1554185997092" class="icon" style="" viewBox="0 0 1024 1024" version="1.1" xmlns="http://www.w3.org/2000/svg" p-id="1781" xmlns:xlink="http://www.w3.org/1999/xlink" width="200" height="200"><defs><style type="text/css"></style></defs><path d="M235.2 896c-16 0-30.4-1.6-46.4-6.4-44.8-11.2-83.2-41.6-105.6-81.6-48-84.8-19.2-192 64-240 40-24 88-30.4 132.8-17.6 44.8 12.8 83.2 41.6 107.2 81.6s30.4 88 17.6 132.8-41.6 83.2-81.6 107.2c-27.2 16-57.6 24-88 24z m0-288c-19.2 0-38.4 4.8-56 14.4-52.8 30.4-72 99.2-41.6 153.6 14.4 25.6 38.4 44.8 68.8 52.8 28.8 8 59.2 3.2 84.8-11.2 25.6-14.4 44.8-38.4 52.8-67.2s3.2-59.2-11.2-84.8-38.4-44.8-68.8-52.8c-9.6-3.2-19.2-4.8-28.8-4.8zM788.8 896c-30.4 0-60.8-8-88-24-40-24-70.4-60.8-81.6-107.2s-6.4-92.8 17.6-132.8c24-40 60.8-70.4 107.2-81.6 44.8-12.8 92.8-6.4 132.8 17.6 84.8 48 113.6 156.8 64 240-24 40-60.8 70.4-107.2 81.6-14.4 4.8-28.8 6.4-44.8 6.4z m0-288c-9.6 0-19.2 1.6-28.8 3.2-28.8 8-52.8 25.6-67.2 52.8-14.4 25.6-19.2 56-11.2 84.8 8 28.8 25.6 52.8 52.8 67.2 25.6 14.4 56 19.2 84.8 11.2 28.8-8 52.8-25.6 67.2-52.8 30.4-52.8 12.8-121.6-41.6-153.6-17.6-8-36.8-12.8-56-12.8zM512 416c-97.6 0-176-78.4-176-176S414.4 64 512 64s176 78.4 176 176-78.4 176-176 176z m0-288c-62.4 0-112 49.6-112 112s49.6 112 112 112 112-49.6 112-112-49.6-112-112-112z" p-id="1782"></path><path d="M830.4 614.4h-1.6c-17.6-1.6-30.4-16-30.4-33.6v-3.2c0-6.4 1.6-11.2 1.6-17.6 0-110.4-62.4-209.6-161.6-259.2-16-8-22.4-27.2-14.4-43.2 8-16 27.2-22.4 43.2-14.4C788.8 304 864 424 864 560c0 8 0 14.4-1.6 22.4v3.2c0 16-14.4 28.8-32 28.8zM512 912c-70.4 0-139.2-20.8-196.8-60.8-14.4-9.6-19.2-30.4-8-44.8 9.6-14.4 30.4-19.2 44.8-8 48 32 104 49.6 161.6 49.6 57.6 0 113.6-17.6 161.6-49.6 14.4-9.6 35.2-6.4 44.8 8 9.6 14.4 6.4 35.2-8 44.8C651.2 891.2 582.4 912 512 912zM193.6 614.4c-16 0-30.4-12.8-32-30.4v-3.2c0-6.4-1.6-14.4-1.6-20.8 0-136 75.2-256 198.4-316.8 16-8 35.2-1.6 43.2 14.4s1.6 35.2-14.4 43.2C286.4 350.4 224 449.6 224 560c0 6.4 0 11.2 1.6 16v3.2c1.6 17.6-12.8 33.6-30.4 33.6 0 1.6-1.6 1.6-1.6 1.6z" p-id="1783"></path></svg>