<svg width="12" height="12" xmlns="http://www.w3.org/2000/svg"><g fill-rule="nonzero" fill="none"><path d="M11.626 5.093L6.907.374a1.286 1.286 0 0 0-1.814 0L.374 5.093a1.286 1.286 0 0 0 0 1.814l4.719 4.719a1.286 1.286 0 0 0 1.814 0l4.719-4.719a1.286 1.286 0 0 0 0-1.814z" fill="#438CFF"/><path d="M8.435 5c.15 0 .294-.052.4-.146A.471.471 0 0 0 9 4.5c0-.276-.253-.5-.564-.5H3.538c-.301.013-.538.233-.538.5s.236.487.538.5h4.897zM8.435 8c.15 0 .294-.052.4-.146A.471.471 0 0 0 9 7.5c0-.276-.253-.5-.564-.5H3.538c-.301.013-.538.233-.538.5s.236.487.538.5h4.897z" fill="#FFF"/></g></svg>