<?xml version="1.0" encoding="UTF-8"?>
<svg width="20px" height="17px" viewBox="0 0 20 17" version="1.1" xmlns="http://www.w3.org/2000/svg" xmlns:xlink="http://www.w3.org/1999/xlink">
    <title> 参与者</title>
    <g id="darshboard" stroke="none" stroke-width="1" fill="none" fill-rule="evenodd">
        <g id="Artboard-2" transform="translate(-2784.000000, -1126.000000)" fill="#000000" fill-rule="nonzero">
            <g id="-参与者" transform="translate(2784.000000, 1126.000000)">
                <path d="M11.6153846,8.19090909 C13.1538461,7.57272728 14.2307693,6.02727272 14.2307693,4.32727272 C14.2307693,1.85454546 12.2307693,0 9.92307695,0 C7.61538462,0 5.61538461,1.85454546 5.61538461,4.32727272 C5.61538461,6.02727272 6.6923077,7.57272728 8.23076924,8.19090909 C4.84615385,8.96363637 2.38461538,11.9 2.38461538,15.4545454 L2.38461538,16.6909091 C2.38461538,16.8454546 2.53846154,17 2.69230769,17 L17.3076924,17 C17.4615385,17 17.6153847,16.8454546 17.6153847,16.6909091 L17.6153847,15.4545454 C17.4615385,11.9 15,8.96363637 11.6153846,8.19090909 L11.6153846,8.19090909 Z M6.6923077,4.32727272 C6.6923077,2.47272728 8.23076924,1.08181818 9.92307695,1.08181818 C11.6153846,1.08181818 13.1538461,2.47272728 13.1538461,4.32727272 C13.1538461,6.18181818 11.7692307,7.57272728 9.92307695,7.57272728 C8.07692308,7.57272728 6.6923077,6.02727272 6.6923077,4.32727272 L6.6923077,4.32727272 Z M16.3846154,15.9181818 L3.46153845,15.9181818 L3.46153845,15.4545454 C3.46153845,11.9 6.38461539,8.96363637 9.92307695,8.96363637 C13.4615385,8.96363637 16.3846154,11.9 16.3846154,15.4545454 L16.3846154,15.9181818 L16.3846154,15.9181818 Z M4.3076923,8.96363637 C5.6923077,8.80909091 5.53846154,7.72727272 4.92307692,7.41818182 C4,6.95454546 3.38461539,6.18181818 3.38461539,5.1 C3.38461539,3.86363637 4.3076923,2.78181818 5.38461539,2.78181818 C6,2.47272728 5.6923077,1.7 5.38461539,1.7 C3.6923077,1.7 2.46153847,3.24545454 2.46153847,4.94545454 C2.46153847,6.18181818 3.07692307,7.26363637 4,7.72727272 C1.69230769,8.34545454 0,10.5090909 0,13.1363637 C0,13.6 0,14.2181818 0.153846155,14.6818182 C0.461538466,15.1454546 1.07692307,14.8363637 1.23076923,14.3727272 C1.07692307,13.9090909 1.07692307,13.6 1.07692307,13.1363637 C1.07692307,10.8181818 2.61538461,8.96363637 4.3076923,8.96363637 L4.3076923,8.96363637 Z M16,8.03636363 C16.9230769,7.41818182 17.5384616,6.33636363 17.5384616,5.25454546 C17.5384616,3.4 16.1538462,2.00909091 14.6153846,2.00909091 C14.3076923,2.00909091 14,2.78181818 14.6153846,3.09090909 C15.6923076,3.09090909 16.6153846,4.17272728 16.6153846,5.40909091 C16.6153846,6.49090909 16,7.26363637 15.0769231,7.72727272 C14.3076923,8.03636363 14.1538462,9.11818182 15.5384615,9.11818182 C17.3846153,9.11818182 18.9230769,11.1272728 18.9230769,13.2909091 C18.9230769,13.7545454 18.9230769,14.2181818 18.7692307,14.5272728 C18.9230769,14.9909091 19.5384616,15.3 19.8461539,14.8363637 C20,14.3727272 20,13.7545454 20,13.2909091 C19.8461539,10.5090909 18.1538462,8.34545454 16,8.03636363 L16,8.03636363 Z" id="形状"></path>
            </g>
        </g>
    </g>
</svg>