<svg class="icon" width="16" height="15.98" viewBox="0 0 1025 1024" xmlns="http://www.w3.org/2000/svg"><path d="M754.28 610.796c-65.73 0-119.201 53.475-119.201 119.218 0 65.736 53.47 119.208 119.201 119.208 65.725 0 119.219-53.472 119.219-119.208 0-65.743-53.476-119.218-119.219-119.218zm0 187.043c-37.439-.047-67.778-30.39-67.82-67.825 0-37.405 30.42-67.836 67.82-67.836 37.446.035 67.795 30.384 67.836 67.836-.002 37.394-30.433 67.825-67.836 67.825zm0 0"/><path d="M1023.16 802.445a25.645 25.645 0 0 0-11.878-15.66l-47.831-27.956a210.014 210.014 0 0 0 .553-53.471l46.831-27.867a25.71 25.71 0 0 0 11.766-15.76 25.684 25.684 0 0 0-2.822-19.458l-57.387-96.463a25.69 25.69 0 0 0-35.504-8.76l-42.134 25.855c-14.417-10.787-29.597-19.212-42.063-25.252V493.61A25.702 25.702 0 0 0 817 467.913H693.675a25.69 25.69 0 0 0-25.69 25.696v40.034c-18.336 7.256-32.401 16.853-45.515 27.767l-37.968-22.974a25.717 25.717 0 0 0-35.571 9.17l-55.7 96.893c-7.057 12.272-2.853 27.937 9.39 35.036l41.757 24.186a222.632 222.632 0 0 0-1.512 26.303c0 11.272.934 22.6 2.782 33.86l-41.782 24.903a25.661 25.661 0 0 0-8.933 35.205l57.405 96.445a25.666 25.666 0 0 0 35.859 8.55l40.32-25.614c10.915 8.837 22.764 16.994 39.464 23.355v60.168a25.682 25.682 0 0 0 25.69 25.69h123.324a25.69 25.69 0 0 0 25.69-25.69v-64.29a245.238 245.238 0 0 0 38.847-22.93l46.889 28.19a25.676 25.676 0 0 0 35.418-9.055l56.633-96.885a25.57 25.57 0 0 0 2.687-19.48zm-90.53 67.982l-39.956-24.021a25.682 25.682 0 0 0-30.337 2.85c-14.148 12.626-34.089 24.499-54.7 32.584a25.69 25.69 0 0 0-16.318 23.917v55.439h-71.94v-53.434a25.688 25.688 0 0 0-19.7-24.986c-22.651-5.433-32.324-13.69-48.325-27.343l-4.075-3.475a25.727 25.727 0 0 0-30.39-2.087l-33.901 21.551-30.743-51.642 35.5-21.156a25.696 25.696 0 0 0 11.725-28.527 159.404 159.404 0 0 1-5.204-40.069c0-12.136 1.163-23.628 3.463-34.152a25.688 25.688 0 0 0-12.22-27.704l-34.947-20.259 29.831-51.906 31.619 19.122a25.65 25.65 0 0 0 30.636-3.023c18.983-17.346 32.332-28.373 57.571-35a25.672 25.672 0 0 0 19.17-24.85v-32.953h71.934v34.935a25.682 25.682 0 0 0 15.86 23.738c22.945 9.52 44.031 22.352 57.827 35.226a25.688 25.688 0 0 0 30.949 3.11l35.61-21.839 30.932 52.013-39.73 23.644a25.702 25.702 0 0 0-12.025 27.298 160.416 160.416 0 0 1-.824 68.712 25.692 25.692 0 0 0 12.067 27.98l41.198 24.08-30.556 52.227zm0 0"/><path d="M581.812 956.393c-37.015 3.193-75.452 4.805-114.215 4.805-250.935 0-411.07-65.431-411.07-110.475 0-5.751-1.94-10.992-5.139-15.266V699.408c79.12 57.387 248.372 87.09 416.21 87.09 14.19 0 25.691-11.504 25.691-25.693s-11.503-25.696-25.692-25.696c-250.935 0-411.07-65.431-411.07-110.469a25.334 25.334 0 0 0-5.139-15.27V473.321c79.12 57.4 248.372 87.088 416.21 87.088 6.969 0 13.895-.01 20.78-.123 13.89-.47 24.873-11.914 24.775-25.81-.1-13.895-11.25-25.186-25.145-25.45h-.396c-6.633 0-13.314.07-20.017.07-250.935 0-411.07-65.501-411.07-110.545a25.354 25.354 0 0 0-5.139-15.272V247.237c79.12 57.387 248.372 87.083 416.21 87.083 160.894 0 323.082-27.286 405.931-80.104v234.259c0 14.19 11.508 25.692 25.697 25.692 14.184 0 25.69-11.504 25.69-25.692V198.742c3.299-8.39 5.134-17.136 5.134-26.286 0-106.258-232.64-161.858-462.453-161.858-223.764 0-450.138 52.73-461.887 153.609a25.463 25.463 0 0 0-5.704 15.958v678.264c0 8.862 4.491 16.671 11.303 21.287 38.205 87.348 248.394 132.866 456.29 132.866 40.235 0 80.15-1.675 118.639-4.984 14.131-1.225 24.61-13.667 23.386-27.81-1.223-14.133-13.666-24.519-27.81-23.395zM467.597 61.983c230.007 0 383.621 54.958 407.673 98.82a25.844 25.844 0 0 0-1.74 9.085v17.088c-28.98 43.35-180.9 95.957-405.933 95.957-250.935 0-411.07-65.431-411.07-110.475S216.662 61.983 467.597 61.983zm0 0"/></svg>