<?xml version="1.0" encoding="UTF-8"?>
<svg width="16px" height="16px" viewBox="0 0 16 16" version="1.1" xmlns="http://www.w3.org/2000/svg" xmlns:xlink="http://www.w3.org/1999/xlink">
    <title>保存</title>
    <g id="Page-1" stroke="none" stroke-width="1" fill="none" fill-rule="evenodd">
        <g id="应用门户" transform="translate(-1540.000000, -142.000000)" fill="#417AF8" fill-rule="nonzero">
            <g id="setting备份-2" transform="translate(1499.000000, 134.000000)">
                <g id="保存" transform="translate(41.000000, 8.000000)">
                    <path d="M15.6527407,5.1282963 L10.8717037,0.347259259 C10.6494901,0.124978519 10.3480827,5.26327952e-16 10.0337778,5.26327952e-16 L1.18518519,5.26327952e-16 C0.530625482,5.26327952e-16 0,0.530625482 0,1.18518519 L0,14.8148148 C0,15.4693745 0.530625482,16 1.18518519,16 L14.8148148,16 C15.4693745,16 16,15.4693745 16,14.8148148 L16,5.96622222 C16,5.65191726 15.8750215,5.3505099 15.6527407,5.1282963 Z M3.85185185,1.18518519 L7.40740741,1.18518519 L7.40740741,3.25925926 L3.85185185,3.25925926 L3.85185185,1.18518519 Z M12.1481481,14.8148148 L3.85185185,14.8148148 L3.85185185,12.1481481 L12.1481481,12.1481481 L12.1481481,14.8148148 Z M14.8148148,14.8148148 L13.3333333,14.8148148 L13.3333333,11.5555556 C13.3333333,11.2282757 13.0680206,10.962963 12.7407407,10.962963 L3.25925926,10.962963 C2.93197941,10.962963 2.66666667,11.2282757 2.66666667,11.5555556 L2.66666667,14.8148148 L1.18518519,14.8148148 L1.18518519,1.18518519 L2.66666667,1.18518519 L2.66666667,3.85185185 C2.66666667,4.1791317 2.93197941,4.44444444 3.25925926,4.44444444 L8,4.44444444 C8.32727985,4.44444444 8.59259259,4.1791317 8.59259259,3.85185185 L8.59259259,1.18518519 L10.0337778,1.18518519 L14.8148148,5.96622222 L14.8148148,14.8148148 Z" id="形状"></path>
                </g>
            </g>
        </g>
    </g>
</svg>