<?xml version="1.0" encoding="UTF-8"?>
<svg width="14px" height="14px" viewBox="0 0 14 14" version="1.1" xmlns="http://www.w3.org/2000/svg" xmlns:xlink="http://www.w3.org/1999/xlink">
    <title>设计</title>
    <g id="darshboard" stroke="none" stroke-width="1" fill="none" fill-rule="evenodd">
        <g id="Artboard-2" transform="translate(-3152.000000, -26.000000)" fill="#217EE1" fill-rule="nonzero">
            <g id="设计" transform="translate(3152.000000, 26.000000)">
                <path d="M6.9998477,0 C8.90800618,0.00139997114 10.5473705,0.602686876 11.9235406,1.82136037 C13.2997106,3.04003386 13.9996954,4.53310137 13.9996954,6.27606346 C14.0131996,7.3531326 13.577143,8.38708654 12.7964216,9.12920138 C12.0407625,9.8944721 11.0060755,10.3190628 9.93068394,10.3051758 L9.93068394,10.3051758 L8.60981268,10.3051758 C8.2094921,10.3184777 7.88946139,10.6425049 7.88112852,11.0429597 C7.88112854,11.2725547 7.93922727,11.4321513 8.04982486,11.5427489 C8.3182081,11.7997854 8.46992683,12.155313 8.46981572,12.5269275 C8.48171406,12.920694 8.33080857,13.3019593 8.05264416,13.5809184 C7.77447974,13.8598776 7.39364658,14.0118702 6.9998477,14.0010954 C5.05808995,14.0010954 3.39842605,13.3242101 2.03975561,11.9627397 C0.681085176,10.6012694 0,8.94090549 0,7.00124768 C0,5.06158988 0.683885118,3.39842605 2.04185557,2.04115559 C3.39982602,0.683885118 5.06018989,0 6.9998477,0 L6.9998477,0 Z M6.9998477,1.11297578 C5.34578368,1.11297578 3.97941342,1.67366358 2.82373856,2.82793847 C1.6680637,3.98221336 1.10807588,5.34858364 1.10807588,6.99914773 C1.10807588,8.64971181 1.66946367,10.0132821 2.82373856,11.169657 C3.97801345,12.3260318 5.34298376,12.8860196 6.99494781,12.8860196 C7.09420749,12.8959539 7.19280055,12.8616384 7.26444195,12.7922217 C7.31064094,12.7460227 7.35543996,12.6795241 7.35543996,12.5248275 C7.35642409,12.4476176 7.32214958,12.3741722 7.26234199,12.3253318 C7.03694689,12.0999368 6.76815274,11.6953456 6.76815274,11.0450597 C6.77379418,10.0281101 7.59292996,9.20305882 8.60981268,9.19010006 L8.60981268,9.19010006 L9.93558383,9.19010006 C10.7191479,9.20356197 11.4736559,8.89365665 12.0215384,8.3333187 C12.5870124,7.79929495 12.9011315,7.05161028 12.8867196,6.2739635 C12.8867196,4.8487945 12.3302317,3.66442026 11.1864566,2.65294227 C10.0153821,1.61696482 8.64621188,1.11297578 6.9998477,1.11297578 Z M2.69035597,6.06334675 C3.02541714,5.86988218 3.43824221,5.86988218 3.77330338,6.06334675 C4.10836455,6.25681131 4.31475003,6.61434392 4.31470612,7.00124768 C4.31475003,7.38815145 4.10836455,7.74568406 3.77330338,7.93914862 C3.43824221,8.13261318 3.02541714,8.13261318 2.69035597,7.93914862 C2.3552948,7.74568406 2.14890932,7.38815145 2.14895323,7.00124768 C2.14890932,6.61434392 2.3552948,6.25681131 2.69035597,6.06334675 Z M10.0807952,5.58595713 C10.4158564,5.39249257 10.8286814,5.39249257 11.1637426,5.58595713 C11.4988038,5.77942169 11.7051892,6.1369543 11.7051453,6.52385807 C11.7051892,6.91076183 11.4988038,7.26829445 11.1637426,7.46175901 C10.8286814,7.65522357 10.4158564,7.65522357 10.0807952,7.46175901 C9.74573401,7.26829445 9.53934853,6.91076183 9.53939244,6.52385807 C9.53934853,6.1369543 9.74573401,5.77942169 10.0807952,5.58595713 Z M4.57751491,2.92811494 C4.91257609,2.73465038 5.32540115,2.73465038 5.66046232,2.92811494 C5.99552349,3.12157951 6.20190897,3.47911212 6.20186506,3.86601588 C6.20190897,4.25291965 5.99552349,4.61045226 5.66046232,4.80391682 C5.32540115,4.99738138 4.91257609,4.99738138 4.57751491,4.80391682 C4.24245374,4.61045226 4.03606826,4.25291965 4.03611217,3.86601588 C4.03606826,3.47911212 4.24245374,3.12157951 4.57751491,2.92811494 Z M8.09563837,2.56902277 C8.43069955,2.37555821 8.84352461,2.37555821 9.17858578,2.56902277 C9.51364695,2.76248733 9.72003243,3.12001994 9.71998852,3.5069237 C9.72003243,3.89382747 9.51364695,4.25136008 9.17858578,4.44482464 C8.84352461,4.6382892 8.43069955,4.6382892 8.09563837,4.44482464 C7.7605772,4.25136008 7.55419172,3.89382747 7.55423563,3.5069237 C7.55419172,3.12001994 7.7605772,2.76248733 8.09563837,2.56902277 Z" id="形状结合"></path>
            </g>
        </g>
    </g>
</svg>