<?xml version="1.0" encoding="UTF-8"?>
<svg width="76px" height="76px" viewBox="0 0 76 76" version="1.1" xmlns="http://www.w3.org/2000/svg" xmlns:xlink="http://www.w3.org/1999/xlink">
    <title>setting</title>
    <defs>
        <circle id="path-1" cx="32" cy="32" r="32"></circle>
        <filter x="-14.8%" y="-13.3%" width="129.7%" height="129.7%" filterUnits="objectBoundingBox" id="filter-2">
            <feOffset dx="0" dy="1" in="SourceAlpha" result="shadowOffsetOuter1"></feOffset>
            <feGaussianBlur stdDeviation="3" in="shadowOffsetOuter1" result="shadowBlurOuter1"></feGaussianBlur>
            <feColorMatrix values="0 0 0 0 0   0 0 0 0 0   0 0 0 0 0  0 0 0 0.2 0" type="matrix" in="shadowBlurOuter1"></feColorMatrix>
        </filter>
    </defs>
    <g id="Page-1" stroke="none" stroke-width="1" fill="none" fill-rule="evenodd">
        <g id="拟物样式备份-3" transform="translate(-1453.000000, -791.000000)">
            <g id="setting" transform="translate(1459.000000, 796.000000)">
                <g id="椭圆形" opacity="0.900000036">
                    <use fill="black" fill-opacity="1" filter="url(#filter-2)" xlink:href="#path-1"></use>
                    <use fill="#3271FD" fill-rule="evenodd" xlink:href="#path-1"></use>
                </g>
                <path d="M28.6257251,13.2990122 C30.8370423,12.9003293 33.1629577,12.9003293 35.3742749,13.2990122 L35.3742749,13.2990122 L35.488873,13.3202188 C36.0448856,13.4220102 36.4820558,13.8546236 36.5839207,14.4102349 L36.5839207,14.4102349 L37.2502869,18.0153468 C38.7867492,18.5921647 40.2086135,19.4149785 41.4819248,20.4583403 L41.4819248,20.4583403 L44.9325984,19.2326023 C45.4673892,19.0459847 46.0573567,19.2071544 46.4223726,19.6355265 L46.4223726,19.6355265 L46.4987713,19.724594 C47.9758124,21.4635303 49.1133038,23.4314973 49.881535,25.5733579 L49.881535,25.5733579 L49.9197343,25.6836319 C50.110731,26.2180367 49.9536893,26.8118199 49.5250078,27.1765724 L49.5250078,27.1765724 L46.7449448,29.5517049 C46.8765203,30.3575534 46.9444303,31.1803672 46.9444303,32.003181 C46.9444303,32.8259948 46.8765203,33.6488085 46.7449448,34.4546571 L46.7449448,34.4546571 L49.5250078,36.8297896 C49.9536893,37.1987834 50.110731,37.7925665 49.9197343,38.3142474 L49.9197343,38.3142474 L49.881535,38.4245215 C49.1133038,40.5621407 47.9758124,42.5301077 46.4987713,44.2732853 L46.4987713,44.2732853 L46.4223726,44.3623528 C46.0573567,44.7949662 45.4631448,44.9518946 44.9325984,44.7652771 L44.9325984,44.7652771 L41.4819248,43.539539 C40.2086135,44.5871421 38.7867492,45.4057146 37.2502869,45.9825325 L37.2502869,45.9825325 L36.5839207,49.5876444 C36.4820558,50.1432558 36.0448856,50.5758692 35.488873,50.6776606 L35.488873,50.6776606 L35.3742749,50.6988671 C34.2707385,50.8982086 33.1332471,51 32,51 C30.8667529,51 29.7335059,50.8982086 28.6257251,50.6988671 L28.6257251,50.6988671 L28.511127,50.6776606 C27.9551144,50.5758692 27.5179442,50.1432558 27.4160793,49.5876444 L27.4160793,49.5876444 L26.7454687,45.9655673 C25.2217395,45.3929907 23.808364,44.5701769 22.5435414,43.5310564 L22.5435414,43.5310564 L19.0674016,44.7652771 C18.5326108,44.9518946 17.9426433,44.7907249 17.5776274,44.3623528 L17.5776274,44.3623528 L17.5012287,44.2732853 C16.0241876,42.534349 14.8866962,40.5621407 14.118465,38.4245215 L14.118465,38.4245215 L14.0802657,38.3142474 C13.889269,37.7798426 14.0463107,37.1860595 14.4749922,36.821307 L14.4749922,36.821307 L17.2890101,34.4207266 C17.1574346,33.627602 17.0937691,32.8132708 17.0937691,31.9989397 C17.0937691,31.1888498 17.1574346,30.3745187 17.2890101,29.5771527 L17.2890101,29.5771527 L14.4749922,27.1765724 C14.0463107,26.8075785 13.889269,26.2137954 14.0802657,25.6836319 L14.0802657,25.6836319 L14.118465,25.5733579 C14.8866962,23.4357386 16.0241876,21.4677716 17.5012287,19.724594 L17.5012287,19.724594 L17.5776274,19.6355265 C17.9426433,19.2029131 18.5368552,19.0459847 19.0674016,19.2326023 L19.0674016,19.2326023 L22.5435414,20.4668229 C23.808364,19.4277024 25.2217395,18.60913 26.7454687,18.0323121 L26.7454687,18.0323121 L27.4160793,14.4102349 C27.5179442,13.8546236 27.9551144,13.4220102 28.511127,13.3202188 L28.511127,13.3202188 Z M33.8038577,16.1661365 C32.6069451,16.0304146 31.3888106,16.0304146 30.1961423,16.1661365 L30.1961423,16.1661365 L29.4363999,20.288688 L27.8277833,20.895195 C26.6181376,21.3532563 25.4933793,22.0064178 24.4874633,22.8334729 L24.4874633,22.8334729 L23.1547309,23.9319717 L19.1904883,22.5238574 C18.4689453,23.4951169 17.8620002,24.5384787 17.3823863,25.6454601 L17.3823863,25.6454601 L20.5868864,28.3811039 L20.3110023,30.0776271 C20.204893,30.709582 20.1539606,31.3585021 20.1539606,32.0074223 C20.1539606,32.6521011 20.2091374,33.3052626 20.3110023,33.9372175 L20.3110023,33.9372175 L20.5868864,35.6337407 L17.3823863,38.3693845 C17.8662446,39.4721246 18.4689453,40.5197277 19.1904883,41.4909872 L19.1904883,41.4909872 L23.1547309,40.0828729 L24.4874633,41.1813717 C25.4933793,42.0084268 26.6181376,42.6615883 27.8277833,43.1196495 L27.8277833,43.1196495 L29.4321556,43.7346392 L30.191898,47.8571907 C31.3888106,47.9929126 32.6069451,47.9929126 33.7996133,47.8571907 L33.7996133,47.8571907 L34.5593557,43.7431218 L36.1764611,43.1366148 C37.3988399,42.6785535 38.5278426,42.025392 39.5422473,41.1940957 L39.5422473,41.1940957 L40.8749797,40.0998382 L44.813756,41.4952285 C45.5352991,40.523969 46.1422441,39.4806072 46.6218581,38.3736258 L46.6218581,38.3736258 L43.4513129,35.6634299 L43.7314414,33.9626653 C43.8375507,33.3222278 43.8927275,32.664825 43.8927275,32.0074223 C43.8927275,31.3500195 43.8375507,30.6926168 43.7314414,30.0521793 L43.7314414,30.0521793 L43.4555573,28.3598973 L46.6261024,25.6497014 C46.1422441,24.5469613 45.5395435,23.4993582 44.8180004,22.5280987 L44.8180004,22.5280987 L40.8792241,23.923489 L39.5464916,22.8292315 C38.532087,21.9979352 37.3988399,21.3447737 36.1807054,20.8867124 L36.1807054,20.8867124 L34.5636001,20.2802054 Z M32.0042444,24.1185892 C36.129773,24.1185892 39.4743373,27.46074 39.4743373,31.5832915 C39.4743373,35.705843 36.129773,39.0479937 32.0042444,39.0479937 C27.8787158,39.0479937 24.5341514,35.705843 24.5341514,31.5832915 C24.5341514,27.46074 27.8787158,24.1185892 32.0042444,24.1185892 Z M32.0042444,26.8330264 C30.7351774,26.8330264 29.5425092,27.3250181 28.6427025,28.2241755 C27.7471403,29.1233328 27.2505489,30.3151404 27.2505489,31.5832915 C27.2505489,32.8514426 27.7471403,34.0432502 28.6427025,34.9424075 C29.5425092,35.8373235 30.7351774,36.3335566 32.0042444,36.3335566 C33.2733113,36.3335566 34.4659795,35.8373235 35.3657862,34.9424075 C36.2613485,34.0432502 36.7579399,32.8514426 36.7579399,31.5832915 C36.7579399,30.3151404 36.2613485,29.1233328 35.3657862,28.2241755 C34.4659795,27.3250181 33.2733113,26.8330264 32.0042444,26.8330264 Z" id="形状结合" fill="#FFFFFF" fill-rule="nonzero"></path>
            </g>
        </g>
    </g>
</svg>