<?xml version="1.0" encoding="UTF-8"?>
<svg width="108px" height="108px" viewBox="0 0 108 108" version="1.1" xmlns="http://www.w3.org/2000/svg" xmlns:xlink="http://www.w3.org/1999/xlink">
    <!-- Generator: Sketch 53.2 (72643) - https://sketchapp.com -->
    <title>position</title>
    <desc>Created with Sketch.</desc>
    <g id="Page-1" stroke="none" stroke-width="1">
        <g id="Artboard" transform="translate(-1506.000000, -476.000000)">
            <g id="position" transform="translate(1506.000000, 476.000000)">
                <path d="M5.13333338,43.8876405 L15.4,43.8876405 C18.2,43.8876405 20.5333334,41.6404495 20.5333334,38.9438203 C20.5333334,36.2471911 18.2,34 15.4,34 L5.13333338,34 C2.33333338,34 0,36.2471911 0,38.9438203 C0,41.1910113 2.33333338,43.8876405 5.13333338,43.8876405 Z M21,69.0561797 C21,66.3595505 18.6666666,64.1123595 15.8666668,64.1123596 L5.13333338,64.1123596 C2.33333338,64.1123596 0,66.3595507 0,69.0561797 C0,71.7528088 2.33333338,74 5.13333338,74 L15.4,74 C18.6666666,74 21,71.7528089 21,69.0561797 L21,69.0561797 Z" id="Shape"></path>
                <path d="M101.637077,-4.40536496e-13 C105.24839,-4.33011135e-13 108.408289,3.16318 107.956875,6.32635987 L107.956875,101.221757 C107.956875,104.83682 104.796976,108 101.185662,108 L16.7712126,108 C13.1598992,108 10,104.83682 10,101.221757 L10,75.916318 L14.9655558,75.916318 C18.5768692,75.916318 21.7367683,72.7531381 21.7367683,69.1380753 C21.7367683,65.5230125 18.5768692,62.3598326 14.9655558,62.3598326 L10,62.3598326 L10,45.6401674 L14.9655558,45.6401674 C18.5768692,45.6401674 21.7367683,42.4769875 21.7367683,38.8619247 C21.7367683,35.2468619 18.5768692,32.083682 14.9655558,32.083682 L10,32.083682 L10,6.77824268 C10,3.16317987 13.1598992,-4.40536496e-13 16.7712126,-4.40536496e-13 L101.637077,-4.40536496e-13 Z M93.9833511,9.51778244 L24.3516465,9.51778244 C21.3885952,9.51778244 18.7959254,12.1234353 18.7959254,15.1013244 L18.7959254,26.4245554 C25.9853682,27.1306224 29.5800896,31.0139906 29.5800896,38.07466 C29.5800896,45.8413964 25.9853682,50.2460774 18.7959254,51.2887029 L18.7959254,56.0334728 C25.9853682,57.4762029 29.5800896,61.7279027 29.5800896,68.7885721 C29.5800896,76.5553085 25.9853682,81.1447437 18.7959254,82.5568776 L18.7959254,92.8986756 C18.7959254,95.8765647 21.3885952,98.4822176 24.3516465,98.4822176 L93.6129697,98.4822176 C96.576021,98.4822176 99.1686909,95.8765647 99.1686909,92.8986756 L99.1686909,14.7290883 C99.5390722,12.1234354 96.9464024,9.51778244 93.9833511,9.51778244 Z" id="Shape"></path>
                <path d="M61.2705882,95 C58.9764705,95 42,85.4882353 42,83.2235294 C42,80.5058823 55.7647059,34.7588235 55.7647059,34.7588235 L44.7529412,21.1705882 C44.7529412,21.1705882 42.9176471,18 47.964706,18 L75.4941177,18 C80.5411765,18 77.7882353,21.1705882 77.7882352,21.1705882 L67.2352941,34.7588235 C67.2352941,34.7588235 81,80.9588234 81,83.2235294 C80.5411765,85.4882353 63.1058824,95 61.2705882,95 Z" id="Path"></path>
                <path d="M83.6585366,61.6086957 L80.0162601,67 L70,36 L83.6585366,58.4637682 C84.1138211,58.9130435 84.1138211,60.710145 83.6585366,61.6086957 Z" id="Path"></path>
            </g>
        </g>
    </g>
</svg>
