<?xml version="1.0" encoding="UTF-8"?>
<svg width="175px" height="175px" viewBox="0 0 175 175" version="1.1" xmlns="http://www.w3.org/2000/svg" xmlns:xlink="http://www.w3.org/1999/xlink">
    <title>催办</title>
    <g id="darshboard" stroke="none" stroke-width="1" fill="none" fill-rule="evenodd">
        <g id="Artboard-2" transform="translate(-3236.000000, -1540.000000)" fill="#E54A3B" fill-rule="nonzero">
            <g id="催办" transform="translate(3236.000000, 1540.000000)">
                <path d="M62.5,31.6375 L62.5,25 C62.5,21.5482203 65.2982203,18.75 68.75,18.75 C72.2017797,18.75 75,21.5482203 75,25 L75,31.6375 C99.6625,34.7125 118.75,55.75 118.75,81.25 L118.75,150 L131.25,150 C134.70178,150 137.5,152.79822 137.5,156.25 C137.5,159.70178 134.70178,162.5 131.25,162.5 L81.25,162.5 C81.25,169.403559 75.6535594,175 68.75,175 C61.8464406,175 56.25,169.403559 56.25,162.5 L6.25,162.5 C2.79822031,162.5 0,159.70178 0,156.25 C0,152.79822 2.79822031,150 6.25,150 L18.75,150 L18.75,81.25 C18.7504277,56.0516419 37.4996265,34.7900505 62.5,31.6375 Z M31.25,150 L106.25,150 L106.25,81.25 C106.25,60.5393219 89.4606781,43.75 68.75,43.75 C48.0393219,43.75 31.25,60.5393219 31.25,81.25 L31.25,150 Z M175,50 C175,53.4517797 172.20178,56.25 168.75,56.25 C165.29822,56.25 162.5,53.4517797 162.5,50 C162.5,29.2893219 145.710678,12.5 125,12.5 C121.54822,12.5 118.75,9.70177969 118.75,6.25 C118.75,2.79822031 121.54822,-5.55111512e-15 125,-5.55111512e-15 C152.614237,-5.55111512e-15 175,22.3857625 175,50 Z M150,56.25 C150,59.7017797 147.20178,62.5 143.75,62.5 C140.29822,62.5 137.5,59.7017797 137.5,56.25 C137.5,45.8946609 129.105339,37.5 118.75,37.5 C115.29822,37.5 112.5,34.7017797 112.5,31.25 C112.5,27.7982203 115.29822,25 118.75,25 C136.008898,25 150,38.9911016 150,56.25 Z" id="形状"></path>
            </g>
        </g>
    </g>
</svg>