<svg xmlns="http://www.w3.org/2000/svg" viewBox="0 0 210 210" id="prettier"><title>prettier-icon-dark</title><g transform="matrix(.9 0 0 .9 10.5 10.5)" fill="none" fill-rule="evenodd"><rect fill="#56B3B4" x="165" y="40" width="20" height="10" rx="5"></rect><rect fill="#EA5E5E" x="15" y="200" width="60" height="10" rx="5"></rect><rect fill="#BF85BF" x="135" y="120" width="40" height="10" rx="5"></rect><rect fill="#EA5E5E" x="75" y="120" width="50" height="10" rx="5"></rect><rect fill="#56B3B4" x="15" y="120" width="50" height="10" rx="5"></rect><rect fill="#BF85BF" x="15" y="160" width="60" height="10" rx="5"></rect><rect fill="#BF85BF" x="15" y="80" width="60" height="10" rx="5"></rect><rect fill="#F7BA3E" x="65" y="20" width="110" height="10" rx="5"></rect><rect fill="#EA5E5E" x="15" y="20" width="40" height="10" rx="5"></rect><rect fill="#F7BA3E" x="55" y="180" width="20" height="10" rx="5"></rect><rect fill="#56B3B4" x="55" y="60" width="20" height="10" rx="5"></rect><rect fill="#56B3B4" x="15" y="180" width="30" height="10" rx="5"></rect><rect fill="#F7BA3E" x="15" y="60" width="30" height="10" rx="5"></rect><rect fill="#56B3B4" x="95" y="100" width="90" height="10" rx="5"></rect><rect fill="#F7BA3E" x="45" y="100" width="40" height="10" rx="5"></rect><rect fill="#EA5E5E" x="15" y="100" width="20" height="10" rx="5"></rect><rect fill="#BF85BF" x="105" y="40" width="50" height="10" rx="5"></rect><rect fill="#56B3B4" x="15" y="40" width="80" height="10" rx="5"></rect><rect fill="#F7BA3E" x="45" y="140" width="100" height="10" rx="5"></rect><rect fill="#BF85BF" x="15" y="140" width="20" height="10" rx="5"></rect><rect fill="#EA5E5E" x="135" y="60" width="60" height="10" rx="5"></rect><rect fill="#F7BA3E" x="135" y="80" width="60" height="10" rx="5"></rect><rect fill="#56B3B4" x="15" width="130" height="10" rx="5"></rect></g></svg>