<svg width="35" height="38" xmlns="http://www.w3.org/2000/svg"><defs><filter x="-5.1%" y="-2%" width="110.3%" height="105.8%" filterUnits="objectBoundingBox" id="a"><feOffset dy="6" in="SourceAlpha" result="shadowOffsetOuter1"/><feGaussianBlur stdDeviation="5" in="shadowOffsetOuter1" result="shadowBlurOuter1"/><feColorMatrix values="0 0 0 0 0 0 0 0 0 0 0 0 0 0 0 0 0 0 0.0975713315 0" in="shadowBlurOuter1" result="shadowMatrixOuter1"/><feMerge><feMergeNode in="shadowMatrixOuter1"/><feMergeNode in="SourceGraphic"/></feMerge></filter></defs><g filter="url(#a)" transform="translate(-13 -332)" fill="#369539" fill-rule="nonzero"><path d="M31.01 354.874a1.418 1.418 0 0 1-1.548-.316l-7.049-7.155a1.432 1.432 0 0 1 .012-2.02 1.42 1.42 0 0 1 2.012.012l4.51 4.42v-13.378c0-.79.796-1.43 1.581-1.43.786 0 1.58.64 1.58 1.43v13.303l4.452-4.297a1.419 1.419 0 0 1 2.012.003c.557.56.552 1.463-.003 2.02l-7.087 7.095-.004.003-.003.004a1.42 1.42 0 0 1-.447.295c-.006.002-.012.01-.017.01z"/></g></svg>