<?xml version="1.0" encoding="UTF-8"?>
<svg width="18px" height="18px" viewBox="0 0 18 18" version="1.1" xmlns="http://www.w3.org/2000/svg" xmlns:xlink="http://www.w3.org/1999/xlink">
    <title>测试流程</title>
    <g id="darshboard" stroke="none" stroke-width="1" fill="none" fill-rule="evenodd">
        <g id="Artboard-2" transform="translate(-2643.000000, -855.000000)" fill-rule="nonzero">
            <g id="测试流程" transform="translate(2643.000000, 855.000000)">
                <path d="M0.529395716,0 L0.529395716,15.877454 C0.529395716,17.049207 1.47890503,18 2.65005415,18 C3.82199697,18 4.77225038,17.0492566 4.77225038,15.877454 L4.77225038,0 L0.529395716,0 Z M6.87896952,0 L6.87896952,15.877454 C6.87896952,17.049207 7.82847883,18 8.99962795,18 C10.1715708,18 11.1218242,17.0492566 11.1218242,15.877454 L11.1218242,0 L6.87896952,0 Z M13.2285433,0 L13.2285433,15.877454 C13.2285433,17.049207 14.1780526,18 15.3492018,18 C16.5211446,18 17.471398,17.0492566 17.471398,15.877454 L17.471398,0 L13.2285433,0 Z" id="形状" fill="#CCD1D9"></path>
                <path d="M0.529395716,6.61741738 L0.529395716,15.4531267 C0.529395716,16.8591299 1.47890503,18 2.65005415,18 C3.82199697,18 4.77225038,16.8591894 4.77225038,15.4531267 L4.77225038,6.61741738 L0.529395716,6.61741738 Z" id="路径" fill="#2F7EEB"></path>
                <path d="M4.77225038,0 L0.529395716,0 C0.236422412,0 1.33226763e-15,0.23728879 1.33226763e-15,0.529668681 C1.33226763e-15,0.822048573 0.236422412,1.05854326 0.529395716,1.05854326 L4.77225038,1.05854326 C5.06368589,1.05854326 5.3008524,0.821998941 5.3008524,0.529668681 C5.3008524,0.237338421 5.06368589,0 4.77225038,0 Z M11.1218242,0 L6.87896952,0 C6.58599621,0 6.3495738,0.23728879 6.3495738,0.529668681 C6.3495738,0.822048573 6.58599621,1.05854326 6.87896952,1.05854326 L11.1218242,1.05854326 C11.4132597,1.05854326 11.6504262,0.821998941 11.6504262,0.529668681 C11.6504262,0.237338421 11.4132597,0 11.1218242,0 Z M17.471398,0 L13.2285433,0 C12.93557,0 12.6991476,0.23728879 12.6991476,0.529668681 C12.6991476,0.822048573 12.93557,1.05854326 13.2285433,1.05854326 L17.471398,1.05854326 C17.7628335,1.05854326 18,0.821998941 18,0.529668681 C18,0.237338421 17.7628335,0 17.471398,0 Z" id="形状" fill="#E6E9ED"></path>
                <path d="M6.87896952,6.61741738 L6.87896952,15.877454 C6.87896952,17.049207 7.82847883,18 8.99962795,18 C10.1715708,18 11.1218242,17.0492566 11.1218242,15.877454 L11.1218242,6.61741738 L6.87896952,6.61741738 Z" id="路径" fill="#2F7EEB"></path>
                <path d="M13.2285433,10.429126 L13.2285433,15.877454 C13.2285433,17.049207 14.1780526,18 15.3492018,18 C16.5211446,18 17.471398,17.0492566 17.471398,15.877454 L17.471398,10.429126 L13.2285433,10.429126 Z" id="路径" fill="#23CB4A"></path>
            </g>
        </g>
    </g>
</svg>