<svg width="58" height="56" xmlns="http://www.w3.org/2000/svg"><g fill-rule="nonzero"><path d="M52 35.362c.494 0 .962.194 1.319.557.356.356.556.825.556 1.319v13.75c0 .493-.194.962-.556 1.318a1.86 1.86 0 0 1-1.319.556H6c-.494 0-.963-.193-1.319-.556a1.86 1.86 0 0 1-.556-1.319v-13.75c0-.493.194-.962.556-1.318A1.86 1.86 0 0 1 6 35.363h14.125c1.313 3.987 5.075 6.874 9.5 6.874s8.188-2.887 9.5-6.875H52zm0-3.125H36.5c0 3.8-3.075 6.875-6.875 6.875a6.871 6.871 0 0 1-6.875-6.875H6c-2.75 0-5 2.25-5 5v13.75c0 2.75 2.25 5 5 5h46c2.75 0 5-2.25 5-5v-13.75c0-2.75-2.25-5-5-5z"/><path d="M3.383 12.453A9037.562 9037.562 0 0 1 9 32.914l-2.733.929-5.48-20.449c-.503-1.878.595-3.811 2.447-4.307L11.023 7v2.914l-7.277 1.869c-.34.054-.46.278-.363.67zM55.178 15.682a4397.203 4397.203 0 0 0-6.259 18.254l2.699 1.023 6.12-18.246c.568-1.86-.461-3.83-2.295-4.39L48.732 10l-.102 2.913 6.208 2.086c.338.067.451.294.34.683z"/><path d="M9 34V3.528C9 1.583 10.56 0 12.478 0h11.7c.988 0 1.93.427 2.59 1.174l3.74 4.239a.705.705 0 0 0 .52.237h15.494C48.44 5.65 50 7.233 50 9.178V34H9zm3.478-31.178a.698.698 0 0 0-.696.706V34h35.43V9.172a.698.698 0 0 0-.695-.706H31.023a3.456 3.456 0 0 1-2.59-1.174l-3.74-4.233a.695.695 0 0 0-.52-.237H12.478z"/><path d="M16 19a2 2 0 1 0 4 0 2 2 0 0 0-4 0zM40.642 21H23.364c-.75 0-1.364-.674-1.364-1.5s.613-1.5 1.364-1.5h17.272c.75 0 1.364.674 1.364 1.5s-.607 1.5-1.358 1.5zM18 33a2 2 0 1 0 0-4 2 2 0 0 0 0 4zM40.642 33H23.364c-.75 0-1.364-.674-1.364-1.5s.613-1.5 1.364-1.5h17.272c.75 0 1.364.674 1.364 1.5s-.607 1.5-1.358 1.5z"/></g></svg>