<svg width="51" height="56" xmlns="http://www.w3.org/2000/svg"><g fill-rule="nonzero"><path d="M46.667 56H4.326C1.94 56 0 54.03 0 51.61V4.39C0 1.97 1.941 0 4.326 0H18.88c1.228 0 2.399.531 3.22 1.46l4.653 5.276c.167.185.4.295.647.295h19.273c2.385 0 4.326 1.97 4.326 4.39v40.196C50.993 54.03 49.052 56 46.667 56zM4.326 3.512a.869.869 0 0 0-.865.878v47.22c0 .487.385.878.865.878h42.341c.48 0 .865-.391.865-.878V11.414a.869.869 0 0 0-.865-.878H27.394c-1.229 0-2.4-.531-3.22-1.46L19.52 3.806a.865.865 0 0 0-.647-.295H4.326z"/><path d="M9 23.5a2.5 2.5 0 1 0 5 0 2.5 2.5 0 0 0-5 0zM38.37 26H17.637C16.736 26 16 25.1 16 24s.736-2 1.637-2h20.726c.901 0 1.637.9 1.637 2s-.729 2-1.63 2zM11.5 41a2.5 2.5 0 1 0 0-5 2.5 2.5 0 0 0 0 5zM38.37 41H17.637C16.736 41 16 40.1 16 39s.736-2 1.637-2h20.726c.901 0 1.637.9 1.637 2s-.729 2-1.63 2z"/></g></svg>