<svg t="1590046810793" class="icon" viewBox="0 0 1024 1024" version="1.1" xmlns="http://www.w3.org/2000/svg" p-id="4410" width="32" height="32"><path d="M512 64.7C264.9 64.7 64.7 264.9 64.7 512 64.7 759.1 265 959.3 512 959.3S959.3 759.1 959.3 512c0-247.1-200.2-447.3-447.3-447.3z m0 782.8c-185.3 0-335.5-150.2-335.5-335.5S326.7 176.5 512 176.5 847.5 326.7 847.5 512 697.3 847.5 512 847.5z m167.8-391.4H567.9V344.3c0-30.9-25-55.9-55.9-55.9s-55.9 25-55.9 55.9V512c0 30.9 25 55.9 55.9 55.9h167.8c30.9 0 55.9-25 55.9-55.9s-25.1-55.9-55.9-55.9z" p-id="4411"></path></svg>