<?xml version="1.0" encoding="UTF-8"?>
<svg width="18px" height="18px" viewBox="0 0 18 18" version="1.1" xmlns="http://www.w3.org/2000/svg" xmlns:xlink="http://www.w3.org/1999/xlink">
    <title>撤回</title>
    <g id="页面-1" stroke="none" stroke-width="1" fill="none" fill-rule="evenodd">
        <g id="1-copy-3备份-2" transform="translate(-281.000000, -254.000000)" fill="#999999" fill-rule="nonzero">
            <g id="No-Conversation" transform="translate(260.000000, 134.000000)">
                <g transform="translate(1.000000, 48.000000)" id="Group-29">
                    <g id="撤回" transform="translate(20.000000, 72.000000)">
                        <path d="M3.33579157e-05,8.99996647 C3.33579157e-05,4.02942224 4.0294893,0 9.00003336,0 C13.9705778,0 18,4.02942224 18,8.99996647 C18,13.9705107 13.9705778,17.9999666 9.00003336,17.9999666 C6.61109446,18.006475 4.31811473,17.060368 2.62887338,15.3711266 C0.939632037,13.6818853 -0.00647502707,11.3889055 3.33579157e-05,8.99996647 Z M1.22733522,8.99996647 C1.22733522,13.2927092 4.70729079,16.7726648 9.00003353,16.7726648 C13.2927763,16.7726648 16.7727318,13.2927092 16.7727318,8.99996647 C16.7727318,4.70722373 13.2927763,1.22726816 9.00003353,1.22726816 C4.71825174,1.25361559 1.25368265,4.71818467 1.22733522,8.99996647 Z M11.8636592,11.8635922 C11.8636592,8.99996647 9.1636693,8.99996647 8.10003689,8.99996647 L8.10003689,10.9635955 L4.58186817,7.5231538 L8.10003689,4.08680296 L8.10003689,5.88679624 C8.83639778,5.88679624 13.4181989,5.96861412 13.4181989,10.3867795 C13.4037576,12.65221 11.7335868,14.5659473 9.49094079,14.8867627 C10.8730561,14.5293445 11.8449236,13.2910513 11.8636592,11.8635922 Z" id="形状"></path>
                    </g>
                </g>
            </g>
        </g>
    </g>
</svg>
