<?xml version="1.0" encoding="UTF-8" standalone="no"?>
<svg width="129px" height="129px" viewBox="0 0 129 129" version="1.1" xmlns="http://www.w3.org/2000/svg" xmlns:xlink="http://www.w3.org/1999/xlink">
    <!-- Generator: Sketch 46.2 (44496) - http://www.bohemiancoding.com/sketch -->
    <title>Redis容器云部署</title>
    <desc>Created with Sketch.</desc>
    <defs></defs>
    <g id="Page-1" stroke="none" stroke-width="1" fill="none" fill-rule="evenodd">
        <g id="Artboard" transform="translate(-131.000000, -2006.000000)">
            <g id="Redis容器云部署" transform="translate(131.000000, 2006.000000)">
                <path d="M126.28208,25.3006707 C123.524804,9.42107524 119.713885,5.63911828 103.618789,2.82160675 C93.3718926,1.02838055 78.9073874,0 63.9393737,0 C49.1031809,0 35.3821825,0.966426686 25.3055436,2.71698532 C9.42574665,5.4766382 5.64388657,9.28963799 2.83232346,25.382175 C-0.895117583,46.6917781 -0.951385771,82.5544519 2.71040901,103.693517 C5.46002416,119.573112 9.27266015,123.353352 25.3734354,126.172581 C35.6458243,127.970034 50.1412376,129 65.1400272,129 L65.1422726,129 C79.9417457,129 93.6356666,128.039518 103.696852,126.296621 C119.57863,123.534987 123.362207,119.723704 126.170072,103.627204 C129.898834,82.3142982 129.949554,46.4435666 126.28208,25.3006707" id="Shape" fill="#B1B1B1" fill-rule="nonzero"></path>
                <g id="Group-13" transform="translate(24.000000, 24.000000)" fill-rule="nonzero">
                    <path d="M47.2336015,21.8783087 L28.1552428,23.7595741 C28.0775509,23.7703199 28.0157001,23.8283234 28.0018135,23.9034599 C27.9903673,23.9810078 28.0339724,24.0563464 28.1080665,24.0870383 L42.9775325,29.988423 C43.0013331,29.9942115 43.0187586,30 43.0421343,30 C43.1063111,30 43.1653877,29.9656824 43.1947135,29.9082108 L47.3993562,22.1193588 C47.428257,22.0680891 47.428257,21.9990405 47.392556,21.9535593 C47.3576782,21.9021127 47.296738,21.873263 47.2336015,21.8783087 L47.2336015,21.8783087 Z M71.8949164,16.5673519 L60.2742413,12.0130359 C60.232731,11.9956547 60.185698,11.9956547 60.1441877,12.0130359 L49.8389244,15.9930492 C49.7735361,16.0178787 49.7310817,16.0798301 49.7326714,16.1480985 C49.7258712,16.2171471 49.7734726,16.2795804 49.8321242,16.3085229 L61.5059258,20.9831572 C61.5267687,20.9900435 61.5485305,20.9939433 61.5705276,20.9947342 C61.5943283,20.9947342 61.6126038,20.9893592 61.6359794,20.9831572 L71.8944914,16.8819987 C71.9586682,16.8596716 71.9998943,16.795998 71.9998943,16.7219878 C72.002397,16.6539334 71.9602373,16.5918307 71.8949164,16.5673519 L71.8949164,16.5673519 Z" id="Shape" fill="#FFFFFF"></path>
                    <path d="M81.4867429,28.920262 L81.3852743,28.9602018 C81.343273,28.9868283 81.3041826,29.0167831 81.2563593,29.0355049 L41.1820982,44.9698169 C41.0897785,45.0097567 40.9853989,45.0276464 40.8814352,45.0276464 C40.7774715,45.0276464 40.6739237,45.0039321 40.5816039,44.9698169 L0.507342824,29.0355049 C0.373669949,28.9784345 0.257151755,28.88753 0.169252893,28.7717359 L0.140143059,35.0530999 C0.227056706,35.1837363 0.355139977,35.2902424 0.507342824,35.3551446 L40.5761978,51.2948651 C40.6685176,51.3289803 40.7724813,51.3526946 40.8760291,51.3526946 C40.9799928,51.3526946 41.0839565,51.3356369 41.1762762,51.2948651 L81.2509532,35.3605531 C81.4409988,35.2852499 81.5902907,35.1358918 81.6780361,34.9565787 C81.7291862,35.0605886 81.7574643,35.1758316 81.7691083,35.296899 C81.7624546,35.6197457 81.7624546,46.319449 81.7691083,46.6485362 C81.7595147,46.9749276 81.5580288,47.2648043 81.2555276,47.3874223 L41.1820982,63.3217343 C41.0868889,63.3613919 40.9845559,63.3810747 40.8814352,63.3795638 C40.7774715,63.3795638 40.6735078,63.3562656 40.5811881,63.3217343 L0.506926969,47.3874223 C0.320866972,47.3107297 0.170173028,47.1672397 0.084418519,46.9851121 L0.053229411,53.6771071 C0.0627940708,53.6521448 0.0686160376,53.6267664 0.0802599713,53.6026361 C0.160935797,53.7823651 0.316465483,53.9254827 0.506926969,54.0070264 L40.575782,69.9413384 C40.6681017,69.9762857 40.7720654,70 40.8756132,70 C40.9795769,70 41.0835406,69.9829424 41.1758604,69.9413384 L81.2505373,54.0070264 C81.440583,53.9317233 81.5902907,53.7823651 81.6772043,53.6026361 C81.7283545,53.707478 81.7570485,53.8223049 81.7691083,53.9433724 C81.7624546,54.265803 81.7624546,64.9663384 81.7691083,65.2945935 L81.944599,28.4409845 C81.8671701,28.6586871 81.7006223,28.833027 81.4867429,28.920262 L81.4867429,28.920262 Z M33.3885639,5.01047318 C33.3243722,4.98742296 33.2526592,5.00309694 33.2039244,5.050829 C33.1564147,5.102943 33.1472265,5.17948938 33.1810524,5.24137509 L34.8020543,8.49605192 L27.1815156,9.96217504 C27.0987443,9.9756195 27.0408823,10.0514031 27.0496896,10.1348314 C27.0526807,10.2206531 27.1200033,10.2903405 27.2056351,10.2962547 L36.0317368,10.9427801 L37.7733366,14.4171258 C37.7954858,14.462911 37.8384021,14.4951513 37.8885284,14.503662 C37.8997565,14.5090705 37.9114004,14.5090705 37.9230444,14.5090705 C37.9633491,14.5110821 38.0027201,14.4964993 38.0319983,14.4687147 L41.718135,11.3584035 L50.5908125,12.0103374 C50.6732813,12.0165065 50.7484346,11.9630016 50.76963,11.8830293 C50.7881917,11.8008703 50.7440305,11.717457 50.6656663,11.6866587 L44.2627504,9.21122378 L47.6719278,6.33722307 C47.7303983,6.2847322 47.7468756,6.1997598 47.7122657,6.12920333 C47.6779305,6.06136213 47.6033552,6.02388915 47.5284579,6.03684257 L39.8734032,7.51419875 L33.3885639,5.01047318 L33.3885639,5.01047318 Z M0,65.2954256 L0.001536,64.9817318 L0,65.2954256 Z M81.7412506,16.7247042 L81.7279386,16.7190722 L81.7299866,16.7359682 C81.7339934,16.7324744 81.7377568,16.728711 81.7412506,16.7247042 L81.7412506,16.7247042 Z M82.0001961,16.8293227 L81.9986601,17.1018285 L82.0001961,16.8293227 Z M29.6679112,17.6892763 C29.6620893,16.5925962 28.6070657,15.5653947 26.6854008,14.8036264 C24.8394215,14.0651564 22.4220577,13.660766 19.8903338,13.660766 C17.5428336,13.660766 15.3504473,14.0185599 13.7061575,14.6650853 C11.9695479,15.3453098 11.0126661,16.2926317 11.0064283,17.3252417 C11.0010222,18.4040321 12.0277676,19.4200005 13.8970348,20.1875933 C15.7596484,20.943121 18.206122,21.364985 20.7844216,21.364985 C23.1901414,21.364985 25.4216182,20.9963741 27.0779677,20.320726 C28.7505356,19.6400854 29.6737332,18.7052447 29.6679112,17.6892763 L29.6679112,17.6892763 Z" id="Shape" fill="#FFFFFF"></path>
                    <path d="M81,54.3364754 C80.990606,54.2201611 80.9598908,54.1065401 80.9093729,54.0012295 C80.8230049,54.1816092 80.6721685,54.323492 80.4863093,54.3991803 L40.7887708,70.0959016 C40.6969079,70.1364754 40.5943345,70.1532787 40.4913492,70.1532787 C40.3887759,70.1532787 40.2857906,70.1303279 40.1943396,70.0959016 L0.502568275,54.3983607 C0.316460935,54.3229972 0.165609068,54.1808152 0.0799165946,54 C0.0683822408,54.0237705 0.0626150638,54.0487705 0.053140416,54.0733607 C0.0194504955,54.1571086 0.00144070828,54.2462806 0,54.3364754 C0.00535523572,54.6319672 0.00576717693,63.429918 0.00123582363,65.2094262 L0,65.5184426 C0,65.8430328 0.199791487,66.1270492 0.502568275,66.2463115 L40.1996949,81.9430328 C40.2911458,81.9770492 40.3937192,82 40.4967045,82 C40.5996898,82 40.703087,81.9831967 40.794538,81.9430328 L80.4916645,66.2463115 C80.7910882,66.1253091 80.9904612,65.8398334 81,65.5184426 C80.9942328,65.195082 80.9942328,54.6540984 81,54.3364754 L81,54.3364754 Z" id="Shape" fill="#A11C24"></path>
                    <path d="M0.508299262,47.249078 L40.2025996,62.9430428 C40.2940441,62.9770532 40.397022,63 40.5,63 C40.6025661,63 40.7051321,62.9831997 40.7978123,62.9430428 L80.4912888,47.249078 C80.7909219,47.1283096 80.9904974,46.8428052 81,46.521337 C80.9934094,46.1972136 80.9934094,35.6589007 81,35.3409237 C80.9909496,35.2246196 80.9603662,35.1109816 80.9097913,35.0057367 C80.8228779,35.182345 80.6750015,35.3294503 80.4867578,35.4036176 L40.7920455,51.0975824 C40.6979178,51.1367558 40.5966652,51.1561473 40.4946451,51.1545396 C40.3920791,51.1545396 40.2891011,51.131183 40.1976567,51.0975824 L0.508711173,35.3978809 C0.360859084,35.336197 0.23441219,35.2327748 0.144992982,35.1003922 C0.122613201,35.0685987 0.102911745,35.0350204 0.0860895832,35 C0.034600598,35.107768 0,35.2212726 0,35.3347773 C0.00535485446,35.6584909 0.00535485446,46.1980331 0,46.5156003 C0.00205955941,46.6364807 0.0387197168,46.7483463 0.090208702,46.8524264 C0.176710197,47.0286249 0.318819796,47.1740912 0.508299262,47.249078 L0.508299262,47.249078 Z" id="Shape" fill="#A11C24"></path>
                    <path d="M0.508138003,28.3021914 L40.2220283,43.9432349 C40.3135179,43.9767222 40.4161346,44 40.5191634,44 C40.6221921,44 40.7256331,43.9824396 40.8171226,43.9432349 L80.5310129,28.301783 C80.577582,28.2834058 80.617145,28.2540023 80.6587686,28.2278658 L41.0458465,43.8297046 C40.95141,43.8683571 40.850055,43.8876666 40.7478873,43.8864697 C40.6456827,43.8864697 40.5418297,43.8631919 40.4507522,43.8297046 L0.736449806,28.1886611 C0.433726672,28.0690856 0.233168004,27.7809579 0.227899688,27.4580651 C0.233257185,27.1407521 0.233257185,16.6379752 0.227899688,16.3149447 C0.227899688,16.2014144 0.262105247,16.0882925 0.314031758,15.980888 C0.393982101,16.1564924 0.548113174,16.2977927 0.736861921,16.3774272 L40.4458069,32.0237796 C40.5368843,32.0576754 40.6399131,32.0805448 40.7425298,32.0805448 C40.8455586,32.0805448 40.9481752,32.0633927 41.0400769,32.0237796 L80.7543794,16.3827362 C80.8471053,16.3463902 80.9299404,16.2920753 81,16.2259174 L80.9983515,16.2124408 C80.9275752,15.980177 80.7536569,15.792645 80.5260676,15.703188 L40.811353,0.0568355837 C40.7163183,0.0206967024 40.6155879,0.00147965874 40.5138059,7.04391179e-05 C40.4118873,-0.00132388185 40.3107617,0.0179953063 40.2166708,0.0568355837 L0.508138003,15.697879 C0.204821239,15.8163099 0.00535749719,16.105853 0,16.428475 C0.00535749719,16.7510971 0.00535749719,27.2542823 0,27.571187 C0.00288480618,27.7480166 0.068411118,27.909736 0.173088371,28.0436854 C0.259632556,28.1535402 0.371727882,28.2458347 0.508138003,28.3021914 Z M20.6024615,20.7732547 C18.0477596,20.7732547 15.6228739,20.3595634 13.7770101,19.6175327 C11.9241403,18.8640673 10.90704,17.8667976 10.9123975,16.8078622 C10.9185793,15.7942573 11.8668563,14.8643707 13.5878492,14.1966656 C15.2173526,13.5620394 17.3900238,13.2108306 19.7164139,13.2108306 C22.225371,13.2108306 24.6209965,13.6073698 26.4503757,14.3326569 C28.3547599,15.0804049 29.4002961,16.0887009 29.4060657,17.1651968 C29.4118353,18.162058 28.4969397,19.0801015 26.8394125,19.7486234 C25.1983699,20.4110196 22.9865477,20.7732547 20.6024615,20.7732547 Z M46.3629564,22.2181114 L42.2859011,29.9112178 C42.2581491,29.9669977 42.2007101,30.0021954 42.1379517,30.0018787 C42.1144612,30.0018787 42.0975645,29.995753 42.0753102,29.990444 L27.6566368,24.1616029 C27.5849922,24.1310661 27.5428052,24.0568206 27.553608,23.9802812 C27.5670733,23.9060683 27.6270472,23.8487778 27.7023816,23.8381641 L46.2018194,21.9800245 C46.263066,21.9749788 46.3222474,22.003285 46.3563626,22.0539417 C46.3897233,22.1030227 46.3922752,22.1665582 46.3629564,22.2181114 L46.3629564,22.2181114 Z M70.1148021,17.0455407 L60.1675782,21.0962851 C60.1444998,21.1024108 60.1267788,21.1077198 60.1049367,21.1077198 C60.0834605,21.10705 60.0622068,21.1031957 60.0418831,21.0962851 L48.7227279,16.4791144 C48.6646197,16.4505277 48.6196991,16.3884536 48.6258808,16.3206621 C48.6258808,16.2524622 48.665856,16.1903881 48.7289096,16.1675187 L58.7214661,12.2364303 C58.7618657,12.2192901 58.8075859,12.2192901 58.8479855,12.2364303 L70.1160384,16.7347618 C70.1790247,16.7598927 70.2197275,16.8210444 70.218243,16.8883135 C70.2178308,16.9610056 70.1782678,17.0234881 70.1148021,17.0455407 L70.1148021,17.0455407 Z M47.105588,5.72763269 C47.1797153,5.71483413 47.2535517,5.75166681 47.2873308,5.81829357 C47.3214839,5.88757058 47.3051725,5.97088831 47.2473556,6.02248474 L43.8688354,8.84358991 L50.2137606,11.2734648 C50.2932988,11.3020516 50.3345103,11.3869951 50.3167894,11.4662213 C50.2962222,11.545021 50.2214491,11.5977497 50.1395798,11.5911863 L41.3475148,10.9512511 L37.6941139,14.0043175 C37.6649713,14.0313869 37.6260449,14.045668 37.5861397,14.0439306 C37.5746005,14.0439306 37.5630613,14.0439306 37.5519341,14.0386216 C37.5023142,14.0301397 37.4598367,13.9985321 37.4377782,13.9536781 L35.7118399,10.5432772 L26.9651076,9.90865104 C26.8801595,9.90302951 26.8133402,9.83451998 26.8105644,9.75019869 C26.8022609,9.66842449 26.8594052,9.59429182 26.9412049,9.58072002 L34.4932154,8.14158067 L32.8867904,4.94680567 C32.853526,4.88601005 32.8626125,4.81102927 32.9094568,4.75976656 C32.957946,4.71326794 33.0287957,4.69792971 33.0924359,4.72015347 L39.5177235,7.17861513 L47.105588,5.72763269 L47.105588,5.72763269 Z" id="Shape" fill="#D72C25"></path>
                    <path d="M81.9979405,17.6089094 L81.9991762,17.340514 C81.9903149,17.2241778 81.9597227,17.1105056 81.9089684,17.0053269 C81.8666403,17.0914577 81.8096418,17.169648 81.7404982,17.2364339 L81.7314362,17.2454487 C81.6614119,17.3122402 81.5786184,17.3663291 81.4859392,17.4027981 L41.7916306,33.0967629 C41.6974459,33.1357449 41.5962348,33.1551288 41.4942333,33.1537201 C41.3927648,33.1523562 41.2923468,33.1330708 41.1976598,33.0967629 L1.508706,17.3978809 C1.32005228,17.3179769 1.1659988,17.1761986 1.08608871,17 C1.03418834,17.107768 1,17.2212726 1,17.335187 C1.0053548,17.6593104 1.0053548,28.1976234 1,28.5160101 C1.0053548,28.8397237 1.20595385,29.1298367 1.50829409,29.249078 L41.2026026,44.9430428 C41.2936342,44.9766434 41.397435,45 41.4995881,45 C41.602565,45 41.7055419,44.9823801 41.7973974,44.9430428 L81.3903766,29.2884154 L81.4908821,29.249078 C81.7079574,29.1630276 81.8665419,28.9876485 81.9456282,28.7782591 C81.9752855,28.6963063 81.9967047,28.6106656 82,28.521337 C81.9938214,28.2230287 81.9934095,19.2856641 81.9979405,17.6089094 L81.9979405,17.6089094 Z" id="Shape" fill="#A11C24"></path>
                </g>
                <g id="执行" transform="translate(73.000000, 73.000000)">
                    <circle id="Oval-4" fill="#0275D8" cx="23" cy="23" r="23"></circle>
                    <circle id="Oval-4" fill="#FFFFFF" cx="23" cy="23" r="20"></circle>
                    <g id="容器云" transform="translate(9.000000, 8.000000)" fill-rule="nonzero" fill="#006DFF">
                        <path d="M20.5,3.744 L14,0 L7.5,3.744 L7.5,11.2549091 L14,14.9989091 L20.5,11.2549091 L20.5,3.744 Z M18.5,10.245045 L14,12.7998047 L9.5,10.245045 L9.5,4.75495495 L14,2.20019531 L18.5,4.75495495 L18.5,10.245045 Z M13.9989073,6.79980469 L17.5,5 L13.9989073,3.20019531 L10.5,5 L13.9989073,6.79980469 Z" id="Shape"></path>
                        <path d="M13,16.744 L6.5,13 L0,16.744 L0,24.2549091 L6.5,27.9989091 L13,24.2549091 L13,16.744 Z M11,23.245045 L6.5,25.7998047 L2,23.245045 L2,17.754955 L6.5,15.2001953 L11,17.754955 L11,23.245045 Z M6.49890727,19.7998047 L10,18 L6.49890727,16.2001953 L3,18 L6.49890727,19.7998047 Z" id="Shape"></path>
                        <path d="M28,16.744 L21.5,13 L15,16.744 L15,24.2549091 L21.5,27.9989091 L28,24.2549091 L28,16.744 Z M26,23.245045 L21.5,25.7998047 L17,23.245045 L17,17.754955 L21.5,15.2001953 L26,17.754955 L26,23.245045 Z M21.4989073,19.7998047 L25,18 L21.4989073,16.2001953 L18,18 L21.4989073,19.7998047 Z" id="Shape"></path>
                    </g>
                </g>
            </g>
        </g>
    </g>
</svg>
