<?xml version="1.0" encoding="UTF-8"?>
<svg width="117px" height="68px" viewBox="0 0 117 68" version="1.1" xmlns="http://www.w3.org/2000/svg" xmlns:xlink="http://www.w3.org/1999/xlink">
    <!-- Generator: Sketch 53.2 (72643) - https://sketchapp.com -->
    <title>关联工作项</title>
    <desc>Created with Sketch.</desc>
    <g id="Page-1" stroke="none" stroke-width="1" fill="none" fill-rule="evenodd">
        <g id="Artboard" transform="translate(-2354.000000, -1462.000000)" fill="#333333" fill-rule="nonzero">
            <g id="关联工作项" transform="translate(2354.000000, 1462.000000)">
                <path d="M44.2129641,53.3680024 C48.0651636,53.3680024 51.1896175,56.6283021 51.1896175,60.6454571 C51.1896175,64.6626121 48.0651635,67.922912 44.2129641,67.922912 L32.5544814,67.922912 C14.5743163,67.922912 1.69109171e-12,52.717883 1.69109171e-12,33.961456 C1.69109171e-12,15.205029 14.5743163,2.13162821e-14 32.5544814,2.13162821e-14 L44.34881,2.13162821e-14 C48.2058611,2.13162821e-14 51.3254634,3.26029975 51.3254634,7.27745488 C51.3254634,11.29461 48.205861,14.5549098 44.34881,14.5549098 L32.5593331,14.5549098 C22.2835669,14.5549098 13.9533069,23.2441909 13.9533068,33.961456 C13.9533066,44.6787211 22.2835668,53.3680023 32.5544814,53.3680024 L44.2129641,53.3680024 Z M72.2263138,53.3680024 L83.8847964,53.3680024 C94.155711,53.3680024 102.485971,44.6787213 102.485971,33.961456 C102.485971,23.2441907 94.155711,14.5549097 83.8847964,14.5549097 L72.0904679,14.5549097 C68.2334168,14.5549097 65.1138145,11.29461 65.1138145,7.27745487 C65.1138145,3.26029975 68.2334168,-7.10542736e-15 72.0904679,-7.10542736e-15 L83.8799448,-7.10542736e-15 C101.869813,-7.10542736e-15 116.439278,15.205029 116.439278,33.961456 C116.439278,52.717883 101.864962,67.922912 83.8847964,67.922912 L72.2263138,67.922912 C69.7374241,67.922912 67.4328969,66.535344 66.1860261,64.2841846 C64.9395955,62.0184762 64.9395955,59.2724382 66.1860261,57.0067297 C67.4328968,54.7555704 69.7374241,53.3680024 72.2263138,53.3680024 L72.2263138,53.3680024 Z M48.8365738,26.6840011 L72.0904679,26.6840011 C75.9426674,26.6840011 79.0671213,29.9443009 79.0671213,33.961456 C79.0671213,37.9786111 75.9426673,41.2389109 72.0904679,41.2389109 L48.8365738,41.2389109 C44.9795226,41.2389109 41.8599204,37.9786111 41.8599204,33.961456 C41.8599204,29.9443009 44.9795228,26.6840011 48.8365738,26.6840011 L48.8365738,26.6840011 Z" id="Shape"></path>
            </g>
        </g>
    </g>
</svg>