<?xml version="1.0" encoding="UTF-8"?>
<svg width="99px" height="116px" viewBox="0 0 99 116" version="1.1" xmlns="http://www.w3.org/2000/svg" xmlns:xlink="http://www.w3.org/1999/xlink">
    <!-- Generator: Sketch 53.2 (72643) - https://sketchapp.com -->
    <title>release</title>
    <desc>Created with Sketch.</desc>
    <g id="Page-1" stroke="none" stroke-width="1">
        <g id="Artboard" transform="translate(-1163.000000, -2059.000000)">
            <g id="release" transform="translate(1163.000000, 2059.000000)">
                <path d="M27.0983009,108.389919 L26.1667959,107.873696 C24.1174853,106.653533 23.3722814,103.978561 24.5832377,101.86674 L36.9747531,80.1587496 C37.7665323,78.7977986 39.2103646,78 40.7473477,78 C41.4925515,78 42.2377554,78.1877174 42.9363841,78.6100813 L43.8678889,79.1732333 C45.9171995,80.3933962 46.6158282,83.0683686 45.404872,85.180189 L33.0133565,106.88818 C32.2681527,108.155272 30.8243201,109 29.2873371,109 C28.5421332,109 27.750354,108.812283 27.0983009,108.389919 Z" id="Path"></path>
                <path d="M61.0802935,116 C60.5089704,116 59.9376475,115.808896 59.5023538,115.453989 C58.7677956,114.880678 58.4141195,113.925159 58.5773547,112.99694 C59.1486777,109.693575 57.5435321,102.37703 54.8501522,98.145446 L52.8641246,97.3810309 C50.0619213,98.1181455 49.1369222,98.500353 46.2803072,98.554954 C45.7906018,98.500353 45.0016319,98.3638502 44.3214854,98.145446 L49.5,88.2278845 C59.5023538,85.8096537 69.5097299,79.1664508 77.3450169,67.672923 C83.3030997,58.8821487 86.6810052,50.9005796 87.7964453,41.0723847 L86.9258579,39.2978495 L56.8089739,21.7265386 L54.8501522,21.8357408 C46.8788361,27.650756 42.1679804,32.753611 37.461367,42.2815001 C32.6731361,52.0004928 29.2766464,61.6273461 33.8355806,78.625559 L26.7737076,86.8430219 C25.3590031,84.7135797 24.1891512,82.3930337 23.3185637,79.9632855 L22.2847412,78.8985644 C22.0398884,78.8166627 21.8766533,78.7074605 21.7406241,78.625559 C20.6251839,77.8611438 19.3193028,77.4516357 17.7957747,77.4516357 C11.7016627,77.4516357 4.6553456,83.7307601 4.60093403,83.8126618 C4.1384344,84.2494705 3.51269977,84.4678748 2.886965,84.4678748 C2.5877005,84.4678748 2.28843616,84.4132737 1.98917166,84.3040716 C1.09137832,83.9491645 0.465643697,83.1574489 0.356820271,82.2019299 C-2.82626501,53.1814546 16.0545998,40.4867028 26.4744431,37.8385503 C26.6648842,37.7839492 26.8553251,37.7566486 27.0729721,37.7566486 C27.1817955,37.7566486 27.3178249,37.7566486 27.4266482,37.7839492 L29.2766464,36.8011298 C41.4648704,12.3398448 61.4339697,4.17698293 72.2346949,1.47422934 C76.016309,0.518710346 79.9883642,1.51139422e-07 83.089832,0 C85.8920353,0 88.0412981,0.436808649 89.1567381,1.2285244 C94.9515856,5.4328078 108.663338,37.6747471 87.9868862,69.6709814 L87.7964453,71.1998118 L87.7964453,71.1725112 L87.8236511,71.2544129 C93.0567578,84.4678748 88.8302678,104.342669 62.1413219,115.808896 C61.7604399,115.945399 61.4339697,116 61.0802935,116 Z M64.6661378,92.3135339 L64.0504669,94.2106963 C64.9208983,95.9799601 65.4728792,98.1116033 65.6639494,100.605626 C65.6851795,100.925372 65.7064095,101.266435 65.7276394,101.586182 L67.8718728,102.737269 C78.1259788,96.4489216 82.1793987,89.8051306 80.9708032,81.9963809 L78.4868894,80.9731922 C74.1347327,86.046503 69.4853554,89.8621442 64.6661378,92.3135339 Z M10.6799326,69.6320327 L12.5310943,70.6651047 C14.8396801,69.2286687 17.1628863,68.4213741 19.2110253,68.3139895 C19.5401905,68.2967313 19.8703236,68.297949 20.2014245,68.3176427 L21.4676538,66.9358578 C20.8512369,62.1697599 21.359798,56.8259314 23.0183991,51.0327451 L21.2210279,49.6263187 C17.239926,52.0397271 10.5937227,57.8350411 10.6799326,69.6320327 Z M81.7044877,9.47840667 C80.3737417,9.47840667 73.3029121,9.69142404 64.9013364,13.9517705 L64.8417508,16.198135 L87.0274717,28.8242527 L89.0136598,27.6623401 C88.636284,18.2508474 85.0810074,11.6279451 83.8495708,10.0399978 L82.975648,9.53650236 C82.657858,9.49777194 82.2407584,9.47840667 81.7044877,9.47840667 Z" id="Shape"></path>
            </g>
        </g>
    </g>
</svg>
