<?xml version="1.0" encoding="UTF-8"?>
<svg width="14px" height="14px" viewBox="0 0 14 14" version="1.1" xmlns="http://www.w3.org/2000/svg" xmlns:xlink="http://www.w3.org/1999/xlink">
    <title>添加备注</title>
    <g id="darshboard" stroke="none" stroke-width="1" fill="none" fill-rule="evenodd">
        <g id="Artboard-2" transform="translate(-2921.000000, -793.000000)" fill="#333333" fill-rule="nonzero">
            <g id="添加备注" transform="translate(2921.000000, 793.000000)">
                <path d="M0.388792785,12.5806811 L0.390498574,12.5883732 L0.410147417,12.5849455 C0.411000311,12.5849455 0.412706116,12.5866513 0.414427992,12.5866513 C0.442621899,12.5866513 0.470815821,12.5798121 0.494745239,12.5695612 L4.13317622,11.9150182 L4.13317622,11.9124595 C4.26048333,11.8885301 4.38096726,11.8278617 4.48009654,11.7287324 L12.4824047,3.7264404 C12.7430213,3.46582372 12.7430213,3.04540934 12.4824047,2.78479266 L9.89416477,0.196536688 C9.76341389,0.0658018901 9.59338142,0 9.42247995,0 C9.25241529,0 9.08236672,0.0658018901 8.95250092,0.196536688 L0.94933993,8.1988448 C0.85193254,8.2962683 0.790411226,8.41673612 0.766481808,8.54150063 L0.763070214,8.54150063 L0.278559724,11.9329613 L0.271720449,11.9338303 L0.276001025,11.9526262 L0.225583489,12.3003995 C0.215332621,12.3251818 0.20934624,12.3525228 0.20934624,12.3798638 C0.20934624,12.4841105 0.287973786,12.5678554 0.388792785,12.5806811 Z M1.54577315,9.24729791 L3.44786459,11.1493894 L1.21764879,11.5510078 L1.54577315,9.24729791 Z M9.42247995,0.962149498 L11.715939,3.25560851 L4.25364407,10.7187402 L1.96105405,8.42528119 L9.42247995,0.962149498 Z" id="形状"></path>
                <path d="M13.5624794,13.0008529 L0.437504532,13.0008529 C0.195683794,13.0008529 0,13.2244708 0,13.5008529 C0,13.7771982 0.195683778,14.0008529 0.437504532,14.0008529 L13.5624794,14.0008529 C13.8043001,14.0008529 14,13.7772166 14,13.5008529 C14,13.2244708 13.8043001,13.0008529 13.5624794,13.0008529 Z" id="路径"></path>
            </g>
        </g>
    </g>
</svg>