<?xml version="1.0" encoding="UTF-8"?>
<svg width="64px" height="64px" viewBox="0 0 64 64" version="1.1" xmlns="http://www.w3.org/2000/svg" xmlns:xlink="http://www.w3.org/1999/xlink">
    <!-- Generator: Sketch 64 (93537) - https://sketch.com -->
    <title>请求</title>
    <desc>Created with Sketch.</desc>
    <g id="页面-1" stroke="none" stroke-width="1" fill="none" fill-rule="evenodd">
        <g id="画板" transform="translate(-629.000000, -127.000000)" fill-rule="nonzero">
            <g id="请求" transform="translate(629.000000, 127.000000)">
                <path d="M32,0 C14.326888,0 0,14.326888 0,32 C0,49.673112 14.326888,64 32,64 C49.673112,64 64,49.673112 64,32 C64,23.5130723 60.6285811,15.3737471 54.627417,9.372583 C48.6262529,3.37141889 40.4869277,0 32,0 Z" id="路径" fill="#F7731B"></path>
                <path d="M34.540009,15.0169074 L45.8891005,16.9147874 C46.4850628,17.0150126 46.9519939,17.4811839 47.0523824,18.0761766 L48.9533552,29.4068031 C49.0760354,29.8726927 48.9531188,30.3688945 48.6270689,30.7239884 L31.504127,47.8049079 C29.8993296,49.398364 27.3067012,49.398364 25.7019039,47.8049079 L16.1970397,38.3155082 C14.6009868,36.7133219 14.6009868,34.1249117 16.1970397,32.5227254 L33.3057953,15.4276426 C33.6263644,15.0993654 34.0862664,14.9463142 34.540009,15.0169074 Z M18.9775672,33.7407677 L18.1973171,34.5197483 C17.7013413,35.0170921 17.7013413,35.8211414 18.1973171,36.3184853 L27.7021813,45.807885 C28.2003356,46.3030538 29.0056953,46.3030538 29.5038496,45.807885 L30.2840996,45.0289044 L18.9775672,33.7407677 Z M34.852109,17.948707 L21.03459,31.7437448 L32.3836816,43.0743713 L46.101896,29.1801906 L44.4846504,19.5066682 L34.852109,17.948707 Z M41.8176139,22.2826717 C42.5283177,23.0050008 42.9217907,23.9800623 42.9111438,24.9925364 C42.9004968,26.0050106 42.4866056,26.9716096 41.7608685,27.6788825 L41.8176139,27.6788825 C40.7234758,28.7760385 39.0746727,29.1062857 37.64132,28.5153736 C36.2079672,27.9244616 35.2729227,26.529001 35.2729227,24.9807771 C35.2729227,23.4325532 36.2079672,22.0370926 37.64132,21.4461806 C39.0746727,20.8552685 40.7234758,21.1855157 41.8176139,22.2826717 Z M39.1080183,23.4298768 C38.3623914,23.4260785 37.7182329,23.9494249 37.5704635,24.6790834 C37.4226942,25.408742 37.8126049,26.1408257 38.5011492,26.4265084 C39.1896935,26.7121911 39.9844727,26.4716451 40.3982235,25.8523444 C40.8119742,25.2330437 40.7290828,24.4080383 40.2003684,23.8831227 C39.9108111,23.5934756 39.5179112,23.4304582 39.1080183,23.4298768 Z" id="形状结合" fill="#FFFFFF"></path>
            </g>
        </g>
    </g>
</svg>