<?xml version="1.0" encoding="UTF-8"?>
<svg width="98px" height="116px" viewBox="0 0 98 116" version="1.1" xmlns="http://www.w3.org/2000/svg" xmlns:xlink="http://www.w3.org/1999/xlink">
    <!-- Generator: Sketch 53.2 (72643) - https://sketchapp.com -->
    <title>right</title>
    <desc>Created with Sketch.</desc>
    <g id="Page-1" stroke="none" stroke-width="1">
        <g id="Artboard" transform="translate(-1521.000000, -844.000000)">
            <g id="right" transform="translate(1521.000000, 844.000000)">
                <path d="M49.0053348,0 L98,17.7595135 L98,61.6633974 C98,80.4809729 87.7145346,97.1938015 71.5394665,104.509219 L48.0237343,116 L25.9697333,105.021185 C9.80533478,97.1824245 0,80.9815614 0,62.6987054 L0,17.7595135 L49.0053348,0 Z M49.5044094,11 L9,25.3913299 L9,61.8075716 C9,76.6229894 17.1044094,89.751275 30.4647795,96.1033739 L48.6930866,105 L68.1295591,95.6885053 C81.498748,89.7604943 90,76.2173401 90,60.9686151 L90,25.3913299 L49.5044094,11 Z" id="Combined-Shape"></path>
                <path d="M28,41.9239531 C28,51.8562814 34.8247142,59.7041876 43.7528579,62.3239531 L43.7528579,89 L54.2585738,89 L54.2585738,83.7718593 L59.5057158,83.7718593 L59.5057158,73.3041876 L54.2585738,73.3041876 L54.2585738,62.3239531 C63.1752858,60.239531 70,51.8676717 70,41.9239531 C70,30.4197655 60.5459989,21 49,21 C37.4540011,21 28,30.4197655 28,41.9239531 Z M59.4942842,41.9239531 C59.4942842,47.6760469 54.7729995,52.3916248 48.9885683,52.3916248 C43.2155689,52.3916248 38.4828525,47.6874372 38.4828525,41.9239531 C38.4828525,36.1718593 43.2041372,31.4562814 48.9885683,31.4562814 C54.7729995,31.4676717 59.4942842,36.1718593 59.4942842,41.9239531 L59.4942842,41.9239531 Z" id="Shape"></path>
            </g>
        </g>
    </g>
</svg>
