<?xml version="1.0" encoding="UTF-8"?>
<svg width="18px" height="14px" viewBox="0 0 18 14" version="1.1" xmlns="http://www.w3.org/2000/svg" xmlns:xlink="http://www.w3.org/1999/xlink">
    <title>角色</title>
    <g id="页面-1" stroke="none" stroke-width="1" fill="none" fill-rule="evenodd">
        <g id="提交" transform="translate(-517.000000, -378.000000)" fill-rule="nonzero">
            <g id="Group-11" transform="translate(381.000000, 0.000000)">
                <g id="编组-4" transform="translate(40.000000, 240.000000)">
                    <g id="Group-12" transform="translate(0.000000, 129.000000)">
                        <g id="角色" transform="translate(96.000000, 9.000000)">
                            <path d="M5.85479433,8.22675418 C5.99813228,8.17557178 6.18217112,8.12438938 6.38690073,7.99153293 C6.69385901,7.79687646 6.92921638,7.39776263 6.35627296,6.90676551 C4.47341401,4.16442337 5.15920373,2.35357369 5.44560737,1.66778397 C5.18137603,1.56517641 4.90020345,1.51318095 4.61675195,1.5144842 L4.51438715,1.5144842 C2.70340136,1.5144842 2.22247736,3.16173836 2.19171347,4.09282245 C2.17115884,6.28250357 3.50135676,7.14198675 3.50135676,7.14198675 C3.50135676,7.14198675 3.58330305,7.25442469 3.58330305,7.59228298 C3.58330305,7.66361165 3.53212065,7.89910514 3.45031049,7.96063292 C2.70340136,8.56447635 0.227044349,9.18846604 0.0532147593,10.4982455 C-0.0389407868,10.8768047 0.012241614,11.2655731 0.0327962483,11.6238499 C0.441983207,11.9410174 1.74155337,12.1967933 1.74155337,12.1967933 C1.74155337,12.1967933 1.8539913,11.8694165 1.9563561,11.3271009 C2.11997644,10.5288732 3.20460774,9.22957531 5.85479433,8.22675418 L5.85479433,8.22675418 Z M17.3455155,10.4879001 C17.1715498,9.18846604 14.6235919,8.56447635 13.8562643,7.96076904 C13.7641087,7.88903201 13.7232717,7.66374777 13.7232717,7.59241911 C13.7232717,7.25469693 13.8050819,7.14212288 13.8050819,7.14212288 C13.8050819,7.14212288 15.1659076,6.27229431 15.1456252,4.09295858 C15.104652,3.17194761 14.5317086,1.51464514 12.7615598,1.51464514 L12.659195,1.51464514 C12.280772,1.51464514 11.9531229,1.58597381 11.6770647,1.70875712 C12.0556239,2.98777264 12.5161293,5.32092783 10.5924334,6.886347 C9.83517885,8.01195144 12.3420275,8.67691428 11.9532591,8.49287544 C14.2248865,9.51611508 14.8285938,10.3041335 15.0024234,11.112162 C15.1457613,11.7877425 15.2172261,12.2070026 15.2172261,12.2070026 C15.2172261,12.2070026 16.9159101,11.9512267 17.3558609,11.6139129 C17.3761433,11.2555 17.4376711,10.8668676 17.3455155,10.4879001 L17.3455155,10.4879001 Z" id="形状" fill="#A8A6F6"></path>
                            <path d="M9.94788903,8.00160606 C9.84538811,7.9197959 9.78386033,7.63325613 9.78386033,7.54110058 C9.78386033,7.1317775 9.88636125,6.98857568 9.88636125,6.98857568 C9.88636125,6.98857568 11.5644906,6.07791009 11.5338628,3.20257538 C11.4927536,2.05668854 10.7868176,0 8.60720961,0 L8.48442629,0 C6.21279889,0 5.59901845,2.04647929 5.55804531,3.20257538 C5.52728142,5.91428975 7.20527465,6.98857568 7.20527465,6.98857568 C7.20527465,6.98857568 7.41000425,7.22393304 7.41000425,7.63312 C7.41000425,7.72527555 7.24624779,7.91965977 7.14401911,8.00146994 C6.21279889,8.74851519 2.84646705,9.50563358 2.63166432,11.1225074 C2.45769861,11.8077526 1.46522285,12.8926562 4.78037229,13.3324709 C5.69103787,13.4551181 6.93928951,13.526719 8.61741886,13.526719 C16.3222759,13.526719 14.7259567,12.0329007 14.511154,11.152999 C14.2757966,9.52618821 10.878837,8.74865132 9.94788903,8.00160606 L9.94788903,8.00160606 Z" id="路径" fill="#6264FE"></path>
                        </g>
                    </g>
                </g>
            </g>
        </g>
    </g>
</svg>