<?xml version="1.0" standalone="no"?><!DOCTYPE svg PUBLIC "-//W3C//DTD SVG 1.1//EN" "http://www.w3.org/Graphics/SVG/1.1/DTD/svg11.dtd"><svg t="1617348877615" class="icon" viewBox="0 0 1217 1024" version="1.1" xmlns="http://www.w3.org/2000/svg" p-id="4260" xmlns:xlink="http://www.w3.org/1999/xlink" width="237.6953125" height="200"><defs><style type="text/css"></style></defs><path d="M1047.053838 477.405405c17.933838 0 32.657297 13.616432 34.42854 31.052109l0.166054 3.542486v115.324541a34.594595 34.594595 0 0 1-68.995459 3.51481l-0.19373-3.51481V546.594595H205.242811v80.729946a34.594595 34.594595 0 0 1-31.052108 34.400864l-3.514811 0.19373a34.594595 34.594595 0 0 1-34.428541-31.079784l-0.166054-3.51481V512c0-17.906162 13.616432-32.657297 31.052108-34.428541l3.542487-0.166054h876.377946z" fill="#D5BA93" p-id="4261"></path><path d="M597.324108 362.080865c17.933838 0 32.657297 13.616432 34.428541 31.079784l0.166054 3.51481v207.567568a34.594595 34.594595 0 0 1-68.99546 3.542487l-0.193729-3.542487v-207.567568c0-19.096216 15.498378-34.594595 34.594594-34.594594zM724.189405 16.134919h-230.649081c-19.096216 0-34.594595 15.498378-34.594594 34.594595v207.567567c0 19.096216 15.498378 34.594595 34.594594 34.594595h230.649081c19.096216 0 34.594595-15.498378 34.594595-34.594595v-207.567567c0-19.096216-15.498378-34.594595-34.594595-34.594595z m-34.62227 69.189189v138.378378h-161.432216v-138.378378h161.432216zM720.923676 709.881081H496.778378c-19.096216 0-34.594595 15.470703-34.594594 34.594595v218.997621c0 19.096216 15.498378 34.594595 34.594594 34.594595h224.117622c19.096216 0 34.594595-15.498378 34.594595-34.594595V744.475676c0-19.096216-15.498378-34.594595-34.594595-34.594595z m-34.622271 69.161514v149.836108h-154.900756v-149.836108h154.900756zM280.271568 709.881081H56.181622c-19.096216 0-34.594595 15.470703-34.594595 34.594595v218.997621c0 19.096216 15.498378 34.594595 34.594595 34.594595h224.06227c19.096216 0 34.594595-15.498378 34.594594-34.594595V744.475676c0-19.096216-15.498378-34.594595-34.594594-34.594595z m-34.622271 69.161514v149.836108H90.776216v-149.836108h154.873081zM1161.520432 709.881081h-224.06227c-19.096216 0-34.594595 15.470703-34.594594 34.594595v218.997621c0 19.096216 15.498378 34.594595 34.594594 34.594595h224.06227c19.096216 0 34.594595-15.498378 34.594595-34.594595V744.475676c0-19.096216-15.498378-34.594595-34.594595-34.594595z m-34.62227 69.161514v149.836108h-154.873081v-149.836108h154.873081z" fill="#D5BA93" p-id="4262"></path></svg>