<?xml version="1.0" standalone="no"?><!DOCTYPE svg PUBLIC "-//W3C//DTD SVG 1.1//EN" "http://www.w3.org/Graphics/SVG/1.1/DTD/svg11.dtd"><svg t="1557386457460" class="icon" style="" viewBox="0 0 1024 1024" version="1.1" xmlns="http://www.w3.org/2000/svg" p-id="5900" xmlns:xlink="http://www.w3.org/1999/xlink" width="200" height="200"><defs><style type="text/css"></style></defs><path d="M764.8 759.4c20.1 31.5 13.2 74.7-15.9 97.1-72.3 55.5-157 84.9-244.3 84.9-13.3 0-27-0.9-43-2.6-2.4-0.3-2.4-0.3-4.5-0.7-2-0.3-2-0.3-3.9-0.6-2.7-0.4-2.7-0.4-5.5-0.7-2.9-0.4-2.9-0.4-5.9-0.8-4.7-0.6-8.5-1.2-12-1.9-2.7-0.5-2.7-0.5-4.7-1.1-2-0.6-2-0.6-2.4-0.7-3.4-0.7-6-1.3-11.5-2.8-3.6-0.9-3.6-0.9-5.4-1.4-11.8-3.1-17.8-4.8-25-7.1-4.6-1.6-4.6-1.6-8.9-3.2-1.5-0.6-1.5-0.6-3-1.1-12.2-4.5-20.7-7.9-29-11.6-2.2-1.1-2.2-1.1-4.2-2l-3.6-1.8c-11.5-5.5-21.6-10.9-30.8-16.3-2.2-1.3-2.2-1.3-3-1.9-35.3-21.2-67.5-47.6-95.6-78.5-2.1-2.4-2.1-2.4-2.6-3-9.7-11-17.4-20.1-24.4-29.5-2.1-2.8-2.1-2.8-3.8-5.4-1.4-2.1-1.4-2.1-1.9-2.8-1.7-2.3-1.7-2.3-3.5-4.7-6.2-8.4-8.9-12.2-12.3-17.6-1.2-2-1.2-2-1.7-3.2-45.6-72.5-71.7-157.5-74.6-246.7h-56c-8.2 0-15.7-4.7-19.4-12.1-3.5-7-3.1-15.2 0.9-21.8l121.4-199.7c3.9-6.3 10.7-10.4 18.4-10.4 7.7 0 14.6 4.1 18.5 10.5L283 457.7c4.1 6.6 4.5 15 1 21.9-3.7 7.4-11.2 12.2-19.4 12.2h-55.3c3.2 68.6 26 133.4 64.7 186.6 0.9 1.3 0.9 1.3 1.8 2.5 1.1 1.6 1.1 1.6 1.7 2.4 5.8 7.6 11.6 14.7 18.2 21.9 20.4 22.3 43 40.9 67.1 55.4 8.1 4.8 15.2 8.5 24.3 12.9l4 2c5.5 2.5 11.2 4.8 19.8 8 1.7 0.6 1.7 0.6 3.2 1.2 3.5 1.3 3.5 1.3 5 1.9 4.9 1.6 9.5 2.9 17.8 5 1.8 0.5 1.8 0.5 3.4 0.9 4 1.1 5.6 1.4 7.7 1.9 4.8 1 8.9 1.7 18.3 3.1 2.3 0.3 2.3 0.3 4.3 0.6 2.8 0.4 2.8 0.4 5.2 0.7 8.5 0.8 16.6 1.3 24.5 1.3 61.6 0.9 121.2-19.1 172-58.1 30-23.1 71.7-15.1 92.5 17.4zM1002.2 532.1c8.2 0 15.7 4.7 19.4 12.1 3.5 7 3.1 15.3-0.9 21.8L899.3 765.9c-3.9 6.3-10.8 10.4-18.4 10.4-7.8 0-14.8-4.1-18.5-10.5L741 566.1c-4.1-6.6-4.5-14.9-1-21.9 3.7-7.4 11.2-12.1 19.4-12.1h55.3c-3.2-70.2-26.9-136.3-66.7-189.5-31.1-41.2-69.2-72.6-111.8-92.7-0.8-0.3-1.5-0.7-2.1-1-7.3-3.3-14.6-6.2-22.6-9.1-1.5-0.5-1.5-0.5-2.8-1.1-2.1-0.8-2.1-0.8-3.2-1.2-5.8-1.9-11.9-3.6-20-5.6-1.8-0.5-1.8-0.5-3.5-0.9-2.9-0.7-2.9-0.7-5.5-1.3-6.1-1.3-12.7-2.4-20.8-3.5l-2.8-0.4c-3.1-0.5-3.1-0.5-4.9-0.7-8.5-0.9-17-1.3-25.8-1.4-61.1-0.6-120.2 19.4-170.6 58.2-30 23.1-71.8 15.1-92.5-17.4-20.1-31.6-13.1-74.8 16-97.1C347 112.1 431.4 83 517.7 82.8c0.4 0 1.1-0.1 2.4-0.2 2.6 0.1 2.6 0.1 4.3 0.2 14.5 0.4 25.3 0.9 35.9 2 4.7 0.6 4.7 0.6 9 1.2 2.7 0.4 2.7 0.4 4.9 0.7 3 0.4 3 0.4 6.3 0.8 1.3 0.2 1.3 0.2 2.7 0.3 4.6 0.6 7.9 1 11.3 1.7 2.4 0.5 2.4 0.5 4.3 1 2.2 0.6 2.2 0.6 3.1 0.8 3 0.6 5.4 1.2 10.4 2.5 2.6 0.7 2.6 0.7 4.7 1.2 11.1 2.8 19 5 26.8 7.6 3.9 1.3 3.9 1.3 7.4 2.6 2 0.7 2 0.7 3.8 1.4 11.5 4.3 20.9 8 30.3 12.2 1.5 0.7 1.5 0.7 2.8 1.4 63.9 30.2 118.1 74.8 161 131.9 1.2 1.6 1.2 1.6 1.9 2.7 0.3 0.5 0.7 1 1.3 1.8 8.7 11.8 13 17.7 17.9 25.4 1.3 2.3 1.3 2.3 2 3.7 45.6 72.9 71.4 157.6 74.3 246.4h55.7z" fill="" p-id="5901"></path></svg>