<?xml version="1.0" encoding="UTF-8"?>
<svg width="116px" height="115px" viewBox="0 0 116 115" version="1.1" xmlns="http://www.w3.org/2000/svg" xmlns:xlink="http://www.w3.org/1999/xlink">
    <!-- Generator: Sketch 53.2 (72643) - https://sketchapp.com -->
    <title>route</title>
    <desc>Created with Sketch.</desc>
    <g id="Page-1" stroke="none" stroke-width="1">
        <g id="Artboard" transform="translate(-1521.000000, -1447.000000)">
            <g id="route" transform="translate(1521.000000, 1447.000000)">
                <path d="M1,105 C1.00607506,107.534382 2.02025741,110.439329 3.81900248,112.225664 C5.61774756,114.011999 8.0533914,115.010084 10.589073,114.999923 L106.410927,114.999923 C108.945993,115.008051 111.380457,114.009309 113.17876,112.223413 C114.977063,110.437517 115.991894,108.01076 116,105.477007 L116,79.2794276 C115.993925,76.7450461 114.979743,74.3171063 113.180998,72.5307711 C111.382252,70.744436 108.946609,69.7463507 106.410927,69.7565118 L77.6513609,69.7565118 L77.6513609,44.7751117 C77.5360885,41.5527598 74.8890549,39 71.6629733,39 C68.4368917,39 65.7898581,41.5527598 65.6745857,44.7751117 L65.6745857,69.7718097 L10.5737672,69.7718097 C5.30668438,69.7633192 1.02529542,74.0151263 1,79.2794276 C1,86.7107931 0.993924942,102.465618 1,105 Z M16.0001848,93.0575653 C15.9769069,89.4123309 18.1548331,86.1130663 21.5159421,84.7019364 C24.8770511,83.2908066 28.7574416,84.0465442 31.3433147,86.6158972 C33.9291878,89.1852502 34.7097702,93.0607085 33.3201968,96.4307785 C31.9306233,99.8008486 28.6453687,101.999859 25.0000494,101.999933 C22.6202916,102.009094 20.3345301,101.071733 18.6463934,99.394381 C16.9582568,97.7170292 16.0062691,95.437326 16.0001848,93.0575653 M48.0001847,93.057581 C47.976903,89.4112924 50.1560724,86.1112878 53.5185971,84.7008254 C56.8811218,83.2903629 60.7624215,84.0482109 63.3473938,86.6199592 C65.932366,89.1917076 66.7101085,93.0690676 65.3169073,96.4387791 C63.9237062,99.8084906 60.6349182,102.004553 56.9885559,101.99997 C54.6107861,102.006075 52.3279794,101.067361 50.6423311,99.3903358 C48.9566828,97.7133108 48.0062738,95.4353494 48.0001847,93.057581" id="Shape"></path>
                <path d="M71.5076843,19.1156982 C64.8277784,19.0953086 58.4134703,21.727305 53.6763703,26.4324585 C48.9392703,31.137612 46.2675808,37.5303382 46.2492661,44.2037763 C46.3650121,47.4379081 49.0229226,50 52.2622604,50 C55.5015982,50 58.1595087,47.4379081 58.2752547,44.2037763 C58.4483594,37.028977 64.3199968,31.3027156 71.5038422,31.3027156 C78.6876876,31.3027156 84.5593249,37.028977 84.7324296,44.2037763 C84.8481756,47.4379081 87.5060861,50 90.7454239,50 C93.9847617,50 96.6426722,47.4379081 96.7584182,44.2037763 C96.7401035,37.5303382 94.068414,31.137612 89.331314,26.4324585 C84.594214,21.727305 78.1799059,19.0953086 71.5,19.1156982 M71.5,0.000240901545 C59.7318781,-0.0364612796 48.4313808,4.59975557 40.0855576,12.8885381 C31.7397344,21.1773206 27.0325584,32.4393703 27,44.1960994 C27.115746,47.4302312 29.7736565,49.9923231 33.0129943,49.9923231 C36.2523321,49.9923231 38.9102426,47.4302312 39.0259886,44.1960994 C39.0259889,26.2785799 53.5650989,11.7535607 71.5,11.7535607 C89.4349011,11.7535607 103.974011,26.2785799 103.974011,44.1960994 C104.089757,47.4302312 106.747668,49.9923231 109.987006,49.9923231 C113.226344,49.9923231 115.884254,47.4302312 116,44.1960994 C115.96948,32.4387399 111.262955,21.175504 102.916688,12.8862809 C94.5704216,4.59705781 83.2687409,-0.0385010917 71.5,0.000240901545" id="Shape"></path>
            </g>
        </g>
    </g>
</svg>
