<?xml version="1.0" encoding="UTF-8"?>
<svg width="19px" height="19px" viewBox="0 0 19 19" version="1.1" xmlns="http://www.w3.org/2000/svg" xmlns:xlink="http://www.w3.org/1999/xlink">
    <title>不同意</title>
    <g id="darshboard" stroke="none" stroke-width="1" fill="none" fill-rule="evenodd">
        <g id="Artboard-2" transform="translate(-3148.000000, -252.000000)" fill="#4086E2" fill-rule="nonzero">
            <g id="不同意" transform="translate(3148.000000, 252.000000)">
                <path d="M5.02983815,16.1745896 C5.79958066,16.1745896 5.84956395,17.4241716 5.02983815,17.4241716 C4.21011234,17.4241716 3.58032301,17.4341683 2.04083797,17.4241716 C1.16113223,17.4441649 0.371396407,16.8943488 0.10148668,16.0546297 C0.0315100788,15.8247066 -0.00847654225,15.5747902 0.00152011791,15.3348705 L0.00152011791,2.42918744 C0.00152011791,0.149949844 1.28109211,0 2.52067746,0 L12.5973068,0 C14.5366581,0 15.1364575,0.649782656 15.1364575,2.48916738 L15.1364575,4.15860895 C15.1364575,5.13828125 13.8768788,5.02831803 13.8768788,4.15860895 L13.8768788,2.48916738 C13.8768788,1.56947502 13.5769791,1.23958537 12.5973068,1.23958537 L2.5106808,1.23958537 C1.47102857,1.23958537 1.25110213,1.37953855 1.25110213,2.48916738 L1.25110213,14.9350042 C1.25110213,15.6147769 1.63097506,16.1745896 2.5106808,16.1745896 L5.02983815,16.1745896 Z M3.8802227,3.66877279 L11.2377616,3.66877279 C12.2174339,3.66877279 12.0774807,4.94834479 11.2377616,4.94834479 L3.8802227,4.94834479 C2.96053033,4.94834479 3.00051695,3.66877279 3.8802227,3.66877279 Z M5.84956395,7.43751215 C6.82923625,7.43751215 6.69927971,8.70708748 5.84956395,8.71708414 L3.8802227,8.71708414 C2.96053033,8.71708414 3.00051695,7.43751215 3.8802227,7.43751215 L5.84956395,7.43751215 Z M12.3773804,17.5941148 C15.2464207,17.5841181 17.5656449,15.2548972 17.5856382,12.3858569 C17.5856382,9.51681662 15.2564173,7.18759576 12.3773804,7.18759576 C9.50834008,7.18759576 7.17911922,9.51681664 7.16912256,12.3858569 C7.16912256,15.2349039 9.45835682,17.5541281 12.3074038,17.5941148 L12.3773804,17.5941148 L12.3773804,17.5941148 Z M12.3773804,6.02798363 C15.8862067,6.02798363 18.725257,8.87703062 18.7353015,12.3858569 C18.7452504,14.9549976 17.185772,17.2842184 14.8065678,18.2638907 C12.4373603,19.2535597 9.69827656,18.7037436 7.8888818,16.8843522 C6.06949039,15.0649608 5.5196743,12.3358737 6.50934324,9.95666949 C7.48901555,7.57746533 9.80823977,6.02798363 12.3773804,6.02798363 Z M13.2570861,12.3858569 L15.5663137,14.6451012 C15.7062669,14.7850544 15.7762435,14.9250076 15.7762435,15.0749574 C15.7762435,15.2249073 15.7062669,15.3648604 15.5663137,15.5048137 C15.4263605,15.6447668 15.2764107,15.7147434 15.1264608,15.7147434 C14.976511,15.7147434 14.8265611,15.6447668 14.6866079,15.5048137 L12.3773804,13.2455694 L10.0581562,15.5148103 C9.77824981,15.7947167 9.46835346,15.7947167 9.17845043,15.5148103 C9.04849391,15.4048471 8.97851731,15.2449006 8.96852066,15.0849541 C8.96852066,14.9350042 9.03849727,14.7950511 9.17845043,14.6550979 L11.4976746,12.3958536 L9.18844709,10.1266127 C9.04849391,9.98665947 8.97851731,9.84670629 8.97851731,9.69675645 C8.97851731,9.5468066 9.04849391,9.40685342 9.18844709,9.26690023 C9.46835346,8.98699387 9.78824647,8.98699387 10.0681528,9.26690023 L12.3873771,11.5361412 L14.6966046,9.26690023 C14.976511,8.98699387 15.2864073,8.98699387 15.5763104,9.26690023 C15.7162635,9.40685342 15.7862401,9.5468066 15.7862401,9.69675645 C15.7862401,9.84670629 15.7162635,9.98665947 15.5763104,10.1266127 L13.2570861,12.3858569 Z" id="形状"></path>
            </g>
        </g>
    </g>
</svg>