<?xml version="1.0" standalone="no"?><!DOCTYPE svg PUBLIC "-//W3C//DTD SVG 1.1//EN" "http://www.w3.org/Graphics/SVG/1.1/DTD/svg11.dtd"><svg t="1561374865968" class="icon" viewBox="0 0 1024 1024" version="1.1" xmlns="http://www.w3.org/2000/svg" p-id="9195" data-spm-anchor-id="a313x.7781069.0.i6" xmlns:xlink="http://www.w3.org/1999/xlink" width="200" height="200"><defs><style type="text/css"></style></defs><path d="M679.936 944.128c23.552 9.728 49.664 15.36 77.312 15.36s53.248-5.632 77.312-15.36c23.04-9.728 44.032-23.552 61.952-40.448l3.584-3.584c18.944-18.944 33.792-40.96 44.032-65.536 9.728-23.552 15.36-49.664 15.36-76.8 0-27.136-5.632-53.248-15.36-76.8-10.24-24.576-25.6-47.104-44.032-65.536l-3.584-3.584c-17.92-17.408-38.912-31.232-62.464-40.96-23.552-9.728-49.664-15.36-77.312-15.36H555.008v201.728c0 27.136 5.632 53.248 15.36 76.8 10.24 24.576 25.6 47.104 44.032 65.536l3.584 3.584c17.92 17.408 38.912 31.232 61.952 40.96z m17.408-41.984c-14.336-6.144-27.648-14.336-39.936-24.064l-0.512 0.512-10.752-10.752c-14.336-14.336-26.112-31.744-33.792-50.688-7.68-18.432-11.776-38.912-11.776-59.904V600.064H757.76c20.992 0 41.472 4.096 59.904 11.776 14.336 6.144 27.648 14.336 39.936 24.064l0.512-0.512 10.752 10.752c14.336 14.336 26.112 31.744 33.792 50.688 7.68 18.432 11.776 38.912 11.776 59.904s-4.096 41.472-11.776 59.904c-8.192 18.944-19.456 36.352-33.792 50.688l-10.752 10.752-0.512-0.512c-11.776 9.728-25.088 17.92-39.936 24.064-18.432 7.68-38.912 11.776-59.904 11.776-21.504 0.512-41.984-3.584-60.416-11.264zM343.552 79.872c-23.552-9.728-49.664-15.36-76.8-15.36-27.136 0-53.248 5.632-76.8 15.36-24.576 10.24-47.104 25.6-65.536 44.032l-3.584 3.584c-17.408 17.92-31.232 38.912-40.96 62.464-9.728 23.552-15.36 49.664-15.36 76.8s5.632 53.248 15.36 77.312c9.728 23.04 23.552 44.544 40.96 62.464l3.584 3.584c18.944 18.944 40.96 33.792 65.536 44.032 23.552 9.728 49.664 15.36 76.8 15.36H468.48V266.752c0-27.136-5.632-53.248-15.36-76.8-9.728-23.04-23.552-44.032-40.448-61.952l-3.072-4.096c-18.944-18.432-40.96-33.792-66.048-44.032z m-16.896 41.984c18.944 8.192 36.352 19.456 50.688 33.792l10.752 10.752-0.512 0.512a162.696 162.696 0 0 1 24.064 39.424c7.68 18.432 11.776 38.912 11.776 59.904v157.184H266.752c-20.992 0-41.472-4.096-59.904-11.776-18.944-7.68-36.352-19.456-50.688-33.792l-10.752-10.752 0.512-0.512a162.696 162.696 0 0 1-24.064-39.424c-7.68-18.432-11.776-38.912-11.776-59.904s4.096-41.472 11.776-59.904a162.696 162.696 0 0 1 24.064-39.424l-0.512-0.512 10.752-10.752c14.336-14.336 31.744-26.112 50.688-33.792 18.432-7.68 38.912-11.776 59.904-11.776 20.992-1.024 41.472 3.072 59.904 10.752z m370.688 0c18.432-7.68 38.912-11.776 59.904-11.776s41.472 4.096 59.904 11.776c18.944 8.192 36.352 19.456 50.688 33.792 14.336 14.336 26.112 31.744 33.792 50.688 7.68 18.432 11.776 38.912 11.776 59.904s-4.096 41.472-11.776 59.904c-8.192 18.944-19.456 36.352-33.792 50.688-14.336 14.336-31.744 26.112-50.688 33.792-18.432 7.68-38.912 11.776-59.904 11.776H600.064V266.752c0-20.992 4.096-41.472 11.776-59.904 8.192-18.944 19.456-36.352 33.792-50.688 15.36-14.336 32.768-26.112 51.712-34.304z m-17.408-41.984c-24.576 10.24-47.104 25.6-65.536 44.032-18.432 18.944-33.792 40.96-44.032 65.536-9.728 23.552-15.36 49.664-15.36 76.8v202.24h201.728c27.136 0 53.248-5.632 76.8-15.36 24.576-10.24 47.104-25.6 65.536-44.032 18.432-18.432 33.792-40.96 44.032-65.536 9.728-23.552 15.36-49.664 15.36-76.8 0-27.136-5.632-53.248-15.36-76.8-10.24-24.576-25.6-47.104-44.032-65.536-18.432-18.432-40.96-33.792-65.536-44.032-23.552-9.728-49.664-15.36-76.8-15.36-26.624-0.512-52.736 5.12-76.8 14.848z m-353.28 822.272c-18.432 7.68-38.912 11.776-59.904 11.776s-41.472-4.096-59.904-11.776c-19.456-8.192-36.352-19.456-50.688-34.304-14.336-14.336-26.112-31.744-34.304-50.688-7.68-18.432-11.776-38.912-11.776-59.904s4.096-41.472 11.776-59.904c8.192-19.456 19.456-36.352 34.304-50.688 14.336-14.336 31.744-26.112 50.688-34.304 18.432-7.68 38.912-11.776 59.904-11.776h157.184V757.76c0 20.992-4.096 41.472-11.776 59.904-8.192 19.456-19.456 36.352-34.304 50.688-14.848 13.824-32.256 25.6-51.2 33.792z m17.408 41.984c24.576-10.24 47.104-25.6 65.536-44.032 18.944-18.944 33.792-40.96 44.032-65.536 9.728-23.552 15.36-49.664 15.36-77.312V555.52H267.264c-27.136 0-53.248 5.632-77.312 15.36-24.576 10.24-47.104 25.088-65.536 44.032-18.944 18.944-33.792 40.96-44.032 65.536-9.728 23.552-15.36 49.664-15.36 77.312 0 27.136 5.632 53.248 15.36 77.312 10.24 24.576 25.6 47.104 44.032 65.536 18.944 18.944 40.96 33.792 65.536 44.032 23.552 9.728 49.664 15.36 77.312 15.36s52.736-6.144 76.8-15.872z" p-id="9196" fill="#333333"></path></svg>