<svg width="24" height="23" xmlns="http://www.w3.org/2000/svg"><g fill="#5A626B" fill-rule="nonzero"><path d="M23.76 8.932a2.043 2.043 0 0 0-1.988-1.812h-.044a1.851 1.851 0 0 1-1.859-1.838c.018-.233.073-.462.163-.678a2.271 2.271 0 0 0-.803-2.773L16.393.271l-.116-.054c-.29-.122-.6-.183-.914-.18a2.49 2.49 0 0 0-1.76.705c-.414.447-.944.769-1.531.93a3.26 3.26 0 0 1-1.537-.947A2.473 2.473 0 0 0 8.769.003a2.347 2.347 0 0 0-.914.18l-2.96 1.595-.117.075a2.258 2.258 0 0 0-.783 2.75c.094.218.15.45.168.685a1.869 1.869 0 0 1-1.932 1.838h-.046a2.031 2.031 0 0 0-1.917 1.83 10.957 10.957 0 0 0 0 4.608c.11.993.923 1.76 1.92 1.812h.113a1.85 1.85 0 0 1 1.86 1.835 2.072 2.072 0 0 1-.167.679 2.271 2.271 0 0 0 .786 2.762l2.796 1.553.113.054c.289.123.6.185.913.182a2.46 2.46 0 0 0 1.784-.741c.42-.468.96-.811 1.563-.991.61.178 1.157.53 1.573 1.01a2.415 2.415 0 0 0 1.78.762c.316.002.629-.06.92-.183l2.908-1.578.117-.075a2.257 2.257 0 0 0 .78-2.748 2.206 2.206 0 0 1-.166-.685 1.868 1.868 0 0 1 1.937-1.835 2.069 2.069 0 0 0 1.957-1.829 11.112 11.112 0 0 0 0-4.614l.006-.002zm-1.684 4.303c-.04.217-.157.45-.296.45a3.541 3.541 0 0 0-3.625 3.521c.017.46.119.912.3 1.335a.6.6 0 0 1-.183.717h-.006l-2.772 1.503a.62.62 0 0 1-.186.026.693.693 0 0 1-.505-.202c-.156-.169-1.493-1.567-2.847-1.567-1.375 0-2.81 1.518-2.825 1.532a.755.755 0 0 1-.73.166l-.03-.014-2.647-1.47a.6.6 0 0 1-.163-.667c.187-.431.292-.893.31-1.362A3.553 3.553 0 0 0 2.3 13.682h-.113c-.04-.009-.177-.137-.238-.44-.123-.66-.195-1.33-.214-2 .018-.67.09-1.337.214-1.995a.69.69 0 0 1 .225-.445h.055A3.55 3.55 0 0 0 5.871 5.28a3.726 3.726 0 0 0-.3-1.338.605.605 0 0 1 .168-.702l.029-.017 2.807-1.515a.764.764 0 0 1 .713.172c.058.06 1.436 1.471 2.781 1.471 1.329 0 2.703-1.383 2.761-1.443a.792.792 0 0 1 .525-.194.58.58 0 0 1 .209.034l.023.011 2.698 1.482a.61.61 0 0 1 .176.678c-.187.43-.293.893-.31 1.362a3.55 3.55 0 0 0 3.573 3.521c.243 0 .322.308.347.44.127.66.2 1.33.218 2a11.662 11.662 0 0 1-.213 1.993z"/><path d="M12.016 6.268a4.97 4.97 0 1 0-.003 9.942 4.97 4.97 0 0 0 .003-9.942zm0 8.077a3.104 3.104 0 1 1 0-6.208 3.104 3.104 0 0 1 0 6.208z"/></g></svg>