<svg class="icon" width="16" height="16" viewBox="0 0 1024 1024" xmlns="http://www.w3.org/2000/svg"><path d="M1015.39 306.24a23.8 23.8 0 0 0-19.19-9.71H812.5V133.29a23.79 23.79 0 0 0-23.8-23.8H479.33V34.75A23.8 23.8 0 0 0 455.53 11H122.36a119.13 119.13 0 0 0-119 119v856.66a23.8 23.8 0 0 0 23.8 23.8H788.7a23.58 23.58 0 0 0 20.93-13.05h-1.5a22.65 22.65 0 0 0 1.81-3.62l209-666.34a23.83 23.83 0 0 0-3.55-21.21zm-893-247.69h309.35v74.74a23.79 23.79 0 0 0 23.79 23.79h309.38v139.45H253.25a23.79 23.79 0 0 0-22.7 16.67L51 885.83V129.94a71.46 71.46 0 0 1 71.36-71.39zm647.4 904.32H76.7l194-618.75h693.09z"/><path d="M301.13 611.57h428.36a23.8 23.8 0 0 0 0-47.6H301.13a23.8 23.8 0 0 0 0 47.6zm0 163.19h428.36a23.8 23.8 0 0 0 0-47.6H301.13a23.8 23.8 0 0 0 0 47.6z"/></svg>