<?xml version="1.0" standalone="no"?><!DOCTYPE svg PUBLIC "-//W3C//DTD SVG 1.1//EN" "http://www.w3.org/Graphics/SVG/1.1/DTD/svg11.dtd"><svg t="1531817464277" class="icon" style="" viewBox="0 0 1024 1024" version="1.1" xmlns="http://www.w3.org/2000/svg" p-id="1935" xmlns:xlink="http://www.w3.org/1999/xlink" width="16" height="16"><defs><style type="text/css"></style></defs><path d="M797.161668 236.042971c-13.052271-13.30605-20.481474-30.423917-20.481473-51.347459s7.43432-38.043455 20.481473-51.349505c13.050224-13.323447 29.814026-20.926612 50.293453-20.926611 18.639522 0 35.403325 7.602142 50.2955 20.926611 14.892175 13.30605 20.479427 30.425963 20.479427 51.349505s-7.432273 38.043455-20.479427 51.347459c-14.892175 13.30912-29.814026 20.926612-50.2955 20.926612-20.479427-0.00307-37.243229-7.617491-50.293453-20.926612z m-33.531697 340.438622c-16.763802-20.908192-106.178251-116.009154-234.710626-161.65475l20.47738-24.731264c39.120996 13.3214 96.877421 43.74634 134.121674 70.375837l89.412402-104.611569s40.990576-53.249785 13.05227-96.994078c-18.637476-30.42494-48.421826-34.236755-61.472049-34.236755H405.974221c-22.351054 0-39.116903 19.015076-39.116902 39.941687 0 22.821775 18.608823 39.937594 39.116902 39.937594h216.073151l-70.77595 83.689051c-39.116903-13.323447-85.696778-24.734334-132.278699-22.821775-26.066679 0-50.293453 5.704932-70.77595 13.309121-27.940352-34.234709-42.86425-68.471464-42.86425-68.471465L277.412171 321.628208c1.871627 1.893116 14.923898 34.232662 40.990576 68.467371-22.353101 9.511631-40.990576 20.926612-59.59633 32.334429-18.637476 11.409864-35.405371 20.926612-52.169173 28.526707-95.000678 32.336476-132.245953-28.526707-134.119627-30.42494L46.416146 435.737082s50.327222 83.687004 169.523975 43.751457c18.637476-7.608282 37.274952-19.017122 55.880704-30.42801 20.515243-13.323447 40.992623-24.734334 65.221444-34.234709 16.763802 17.114796 37.245276 34.234709 63.341631 45.645596 24.196075 11.409864 48.421826 19.017122 68.904323 22.821775l-81.952501 95.100962H225.275743c-13.052271 0-24.226774 3.793396-33.529651 13.310143-9.336646 7.600095-13.051247 19.013029-13.051247 32.33443 0 13.305027 3.714602 22.803355 13.051247 32.336476 9.302877 9.498328 20.47738 13.290701 33.529651 13.290701h191.878099c7.429203 0 14.892175 0 20.481473-1.883907 16.761756-3.821025 27.940352-7.614421 33.527605-15.231913l91.284029-100.792591s87.541799 41.834804 126.662795 83.689051c70.804602 76.069513 59.630099 228.208539 59.630098 230.148727 0 20.881586 18.605753 49.40727 50.293453 45.645597 26.066679-3.823072 37.245276-30.469965 37.245276-53.289694-3.713578 5.706979 5.589298-182.575222-72.6486-281.46958zM491.642346 458.561927c-22.353101-3.792373-50.293453-11.409864-78.235852-24.720008-16.763802-7.605212-29.782304-17.114796-42.832527-28.531823 14.894222-3.804652 31.658024-7.600095 48.421826-7.600095 37.276998-1.908466 74.522274 5.705955 109.923552 17.114796l-37.276999 43.73713z" p-id="1936"></path></svg>
