<?xml version="1.0" encoding="UTF-8" standalone="no"?>
<svg width="129px" height="129px" viewBox="0 0 129 129" version="1.1" xmlns="http://www.w3.org/2000/svg" xmlns:xlink="http://www.w3.org/1999/xlink">
    <!-- Generator: Sketch 46.2 (44496) - http://www.bohemiancoding.com/sketch -->
    <title>Springboot容器云部署</title>
    <desc>Created with Sketch.</desc>
    <defs></defs>
    <g id="Page-1" stroke="none" stroke-width="1" fill="none" fill-rule="evenodd">
        <g id="Artboard" transform="translate(-131.000000, -1112.000000)">
            <g id="Springboot容器云部署" transform="translate(131.000000, 1112.000000)">
                <path d="M103.618789,2.82160675 C93.3718926,1.02838055 78.9073874,0 63.9393737,0 C49.1031809,0 35.3821825,0.966426686 25.3055436,2.71698532 C9.42574665,5.4766382 5.64388657,9.28963799 2.83232346,25.382175 C-0.895117583,46.6917781 -0.951385771,82.5544519 2.71040901,103.693517 C5.46002416,119.573112 9.27266015,123.353352 25.3734354,126.172581 C35.6458243,127.970034 50.1412376,129 65.1400272,129 C79.9417457,129 93.6356666,128.039518 103.696852,126.296621 C119.57863,123.534987 123.362207,119.723704 126.170072,103.627204 C129.898834,82.3142982 129.949554,46.4435666 126.28208,25.3006707 C123.524804,9.42107524 119.713885,5.63911828 103.618789,2.82160675 Z" id="Shape" fill="#72C65D" fill-rule="nonzero"></path>
                <path d="M30.2718287,96.261944 C27.3602781,96.261944 25,93.9016659 25,90.9901153 C25,88.0785647 27.3602781,85.7182867 30.2718287,85.7182867 C33.1833792,85.7182867 35.5436573,88.0785647 35.5436573,90.9901153 C35.5436573,93.9016659 33.1833792,96.261944 30.2718287,96.261944 Z M78.2454695,92.5716639 C62.4299835,93.0988468 46.0873147,89.9357496 39.7611203,94.1532125 C49.2504119,86.2454695 64.538715,90.9901153 80.8813839,76.7561779 C87.6137808,70.8924774 92.8856094,62.9847344 96.6968699,53.0329489 C90.3706755,63.5766063 83.5172982,70.9571664 76.1367381,75.1746293 C60.9095521,83.8758784 41.8370977,84.3951545 37.1252059,85.1911038 C31.8533773,80.9736409 27.6359143,72.538715 33.4349259,61.4678748 C39.2339374,50.3970346 48.1960461,48.2883031 70.8649094,49.3426689 C79.9878559,49.766992 90.180058,44.3194357 101.441516,33 C104.604613,48.1125755 105.658979,59.534871 104.604613,67.2668863 C103.023064,78.8649094 96.6818668,91.9571173 78.2454695,92.5716639 Z" id="Combined-Shape" fill="#FFFFFF"></path>
                <g id="执行" transform="translate(73.000000, 73.000000)">
                    <circle id="Oval-4" fill="#0275D8" cx="23" cy="23" r="23"></circle>
                    <circle id="Oval-4" fill="#FFFFFF" cx="23" cy="23" r="20"></circle>
                    <g id="容器云" transform="translate(9.000000, 8.000000)" fill-rule="nonzero" fill="#006DFF">
                        <path d="M20.5,3.744 L14,0 L7.5,3.744 L7.5,11.2549091 L14,14.9989091 L20.5,11.2549091 L20.5,3.744 Z M18.5,10.245045 L14,12.7998047 L9.5,10.245045 L9.5,4.75495495 L14,2.20019531 L18.5,4.75495495 L18.5,10.245045 Z M13.9989073,6.79980469 L17.5,5 L13.9989073,3.20019531 L10.5,5 L13.9989073,6.79980469 Z" id="Shape"></path>
                        <path d="M13,16.744 L6.5,13 L0,16.744 L0,24.2549091 L6.5,27.9989091 L13,24.2549091 L13,16.744 Z M11,23.245045 L6.5,25.7998047 L2,23.245045 L2,17.754955 L6.5,15.2001953 L11,17.754955 L11,23.245045 Z M6.49890727,19.7998047 L10,18 L6.49890727,16.2001953 L3,18 L6.49890727,19.7998047 Z" id="Shape"></path>
                        <path d="M28,16.744 L21.5,13 L15,16.744 L15,24.2549091 L21.5,27.9989091 L28,24.2549091 L28,16.744 Z M26,23.245045 L21.5,25.7998047 L17,23.245045 L17,17.754955 L21.5,15.2001953 L26,17.754955 L26,23.245045 Z M21.4989073,19.7998047 L25,18 L21.4989073,16.2001953 L18,18 L21.4989073,19.7998047 Z" id="Shape"></path>
                    </g>
                </g>
            </g>
        </g>
    </g>
</svg>
