<?xml version="1.0" encoding="UTF-8" standalone="no"?>
<svg width="129px" height="129px" viewBox="0 0 129 129" version="1.1" xmlns="http://www.w3.org/2000/svg" xmlns:xlink="http://www.w3.org/1999/xlink">
    <!-- Generator: Sketch 46.2 (44496) - http://www.bohemiancoding.com/sketch -->
    <title>数据库脚本执行</title>
    <desc>Created with Sketch.</desc>
    <defs></defs>
    <g id="Page-1" stroke="none" stroke-width="1" fill="none" fill-rule="evenodd">
        <g id="数据库脚本执行">
            <path d="M126.28208,25.3006707 C123.524804,9.42107524 119.713885,5.63911828 103.618789,2.82160675 C93.3718926,1.02838055 78.9073874,0 63.9393737,0 C49.1031809,0 35.3821825,0.966426686 25.3055436,2.71698532 C9.42574665,5.4766382 5.64388657,9.28963799 2.83232346,25.382175 C-0.895117583,46.6917781 -0.951385771,82.5544519 2.71040901,103.693517 C5.46002416,119.573112 9.27266015,123.353352 25.3734354,126.172581 C35.6458243,127.970034 50.1412376,129 65.1400272,129 L65.1422726,129 C79.9417457,129 93.6356666,128.039518 103.696852,126.296621 C119.57863,123.534987 123.362207,119.723704 126.170072,103.627204 C129.898834,82.3142982 129.949554,46.4435666 126.28208,25.3006707" id="Shape" fill="#033062" fill-rule="nonzero"></path>
            <g id="数据库" transform="translate(30.000000, 23.000000)" fill-rule="nonzero">
                <path d="M0,51 L0,67.9268062 C0.130480459,76.8118212 13.5994028,84 34.5,84 C55.4005972,84 68.859415,76.8122541 69,67.9268062 L69,51 L0,51 L0,51 Z" id="Shape" fill="#449296"></path>
                <path d="M69,51 C69,60.3878731 55.479237,68 34.5,68 C13.5203237,68 0,60.3883042 0,51 C0,41.612558 13.5203237,34 34.5,34 C55.479237,34 69,41.6026425 69,51 Z" id="Shape" fill="#FFFFFF"></path>
                <path d="M0,34 L0,49.0062528 C0.130480459,57.8767269 13.5994028,66 34.5,66 C55.4005972,66 68.859415,57.8767269 69,49.0062528 L69,34 L0,34 Z" id="Shape" fill="#4DA5AA"></path>
                <path d="M69,35 C69,44.387442 55.479237,52 34.5,52 C13.5203237,52 0,44.3878731 0,35 C0,25.6121269 13.520763,18 34.5,18 C55.479237,18 69,25.6030736 69,35 Z" id="Shape" fill="#FFFFFF"></path>
                <path d="M0,18 L0,33.0060233 C0.130480459,41.8766172 13.5994028,50 34.5,50 C55.4005972,50 68.859415,41.8766172 69,33.0060233 L69,18 L0,18 Z" id="Shape" fill="#58BAB7"></path>
                <path d="M69,16.9997844 C69,26.3875385 55.479237,34 34.5,34 C13.5203237,34 0,26.3875385 0,16.9997844 C0,7.61246149 13.5203237,0 34.5,0 C55.479237,0 69,7.60297716 69,16.9997844 Z" id="Shape" fill="#67DCE8"></path>
            </g>
            <g id="执行" transform="translate(73.000000, 73.000000)">
                <circle id="Oval-4" fill="#0275D8" cx="23" cy="23" r="23"></circle>
                <circle id="Oval-4" fill="#FFFFFF" cx="23" cy="23" r="20"></circle>
                <path d="M35.0627356,21.3459355 C36.3124215,22.0274444 36.3124215,23.9725555 35.0627356,24.6540645 L16.4537639,34.80239 C15.3264321,35.4171603 14,34.5230664 14,33.1483255 L14,12.8516745 C14,11.4769336 15.3264321,10.5828397 16.4537639,11.19761 L35.0627356,21.3459355 Z M30.403559,22.035129 L18.5614861,16.1152725 C17.8440931,15.7566565 17,16.2782113 17,17.0801434 L17,28.9198566 C17,29.7217887 17.8440931,30.2433435 18.5614861,29.8847275 L30.403559,23.964871 C31.1988137,23.567324 31.1988137,22.4326759 30.403559,22.035129 Z" id="Combined-Shape" fill="#0275D8" fill-rule="nonzero"></path>
            </g>
        </g>
    </g>
</svg>
