<svg t="1601020057535" class="icon" viewBox="0 0 1024 1024" version="1.1" xmlns="http://www.w3.org/2000/svg" p-id="12448" width="200" height="200"><path d="M776 187.2c92.8 76.8 152 192 152 321.6 0 230.4-185.6 416-416 416S96 739.2 96 508.8c0-129.6 59.2-244.8 152-321.6 6.4-4.8 12.8-8 20.8-8 17.6 0 32 14.4 32 32 0 11.2-6.4 20.8-14.4 27.2-78.4 64-128 161.6-128 272 0 195.2 156.8 352 352 352s352-156.8 352-352c0-110.4-51.2-209.6-131.2-275.2-6.4-6.4-9.6-14.4-9.6-22.4 0-17.6 14.4-32 32-32 9.6-1.6 17.6 1.6 22.4 6.4z" fill="#4A576A" p-id="12449"></path><path d="M512 99.2c17.6 0 32 14.4 32 32v448c0 17.6-14.4 32-32 32s-32-14.4-32-32v-448c0-17.6 14.4-32 32-32z" fill="#4A576A" p-id="12450"></path></svg>
