<svg class="icon" viewBox="0 0 1024 1024" xmlns="http://www.w3.org/2000/svg" width="32" height="32"><defs><style/></defs><path d="M187.976 565.985c14.889 73.165 51.589 138.988 106.096 190.316a32.686 32.686 0 0 0 27.188 8.56 32.742 32.742 0 0 0 23.608-16.005l42.568-73.723a32.768 32.768 0 0 0-4.096-38.369 214.134 214.134 0 0 1-47.391-86.062 32.753 32.753 0 0 0-31.555-24.002h-84.342a32.681 32.681 0 0 0-25.349 12.037 32.65 32.65 0 0 0-6.727 27.248zm433.141 151.552a32.707 32.707 0 0 0-35.353-15.646 210.883 210.883 0 0 1-106.46-4.23 32.783 32.783 0 0 0-37.909 14.95l-41.79 72.423a32.748 32.748 0 0 0-2.426 27.484 32.625 32.625 0 0 0 19.446 19.574c39.587 14.623 81.403 22.042 124.236 22.042 35.415 0 70.38-5.115 103.895-15.222a32.83 32.83 0 0 0 20.992-19.282 32.732 32.732 0 0 0-2.099-28.442l-42.532-73.65zM771.584 217.37a32.701 32.701 0 0 0-20.961-7.609c-1.9 0-3.835.2-5.735.528a32.737 32.737 0 0 0-22.6 15.872l-41.881 72.478a32.804 32.804 0 0 0 6 40.31 210.652 210.652 0 0 1 59.362 98.191 32.768 32.768 0 0 0 31.585 24.075h84.352a32.758 32.758 0 0 0 25.319-12.002 32.625 32.625 0 0 0 6.753-27.223c-16.097-79.77-59.49-152.442-122.194-204.62zm-105.836-49.096a32.763 32.763 0 0 0-20.992-19.287 359.803 359.803 0 0 0-103.895-15.253c-42.833 0-84.649 7.414-124.236 22.037a32.783 32.783 0 0 0-17.02 47.104l41.79 72.412a32.783 32.783 0 0 0 37.909 14.95 210.74 210.74 0 0 1 61.563-9.149c14.986 0 30.105 1.638 44.897 4.89a32.748 32.748 0 0 0 35.353-15.611l42.537-73.662a32.707 32.707 0 0 0 2.094-28.431zm195.958 358.42h-84.352a32.732 32.732 0 0 0-31.585 24.07 210.75 210.75 0 0 1-59.361 98.196 32.737 32.737 0 0 0-6.001 40.269l41.882 72.51a32.701 32.701 0 0 0 22.6 15.876c1.899.328 3.834.492 5.734.492a32.676 32.676 0 0 0 20.961-7.573c62.705-52.213 106.097-124.856 122.194-204.615a32.614 32.614 0 0 0-6.753-27.223 32.666 32.666 0 0 0-25.319-12.002zm-667.008-77.522a32.696 32.696 0 0 0 25.35 12.038h84.351a32.758 32.758 0 0 0 31.555-24.003 214.154 214.154 0 0 1 47.39-86.093 32.717 32.717 0 0 0 4.097-38.338l-42.568-73.723a32.87 32.87 0 0 0-23.608-16.036 32.707 32.707 0 0 0-4.757-.328 32.675 32.675 0 0 0-22.43 8.92c-54.513 51.322-91.213 117.14-106.102 190.31a32.686 32.686 0 0 0 6.722 27.253z" fill="#2c2c2c"/></svg>