<?xml version="1.0" encoding="UTF-8" standalone="no"?>
<svg width="18px" height="20px" viewBox="0 0 18 20" version="1.1" xmlns="http://www.w3.org/2000/svg" xmlns:xlink="http://www.w3.org/1999/xlink">
    <!-- Generator: Sketch 46.2 (44496) - http://www.bohemiancoding.com/sketch -->
    <title>需求</title>
    <desc>Created with Sketch.</desc>
    <defs></defs>
    <g id="Page-1" stroke="none" stroke-width="1" fill="none" fill-rule="evenodd">
        <g id="20构建定义浏览-copy-11" transform="translate(-880.000000, -244.000000)" fill-rule="nonzero" fill="#336CEF">
            <g id="Group-7" transform="translate(190.000000, 94.000000)">
                <g id="需求" transform="translate(690.000000, 150.000000)">
                    <path d="M17.4099658,9.73562682 L15.9824508,9.73562682 C15.6568738,9.73562682 15.3924166,9.46969583 15.3924166,9.14084996 C15.3924166,8.81190358 15.6568738,8.5459726 15.9824508,8.5459726 L17.4099658,8.5459726 C17.7358395,8.5459726 18,8.81190358 18,9.14084996 C18,9.46969583 17.7358395,9.73562682 17.4099658,9.73562682 Z M14.4007516,4.56394253 C14.1698972,4.79635478 13.7978836,4.79635478 13.5670291,4.56394253 C13.4565138,4.45271193 13.3943372,4.30120328 13.3943372,4.1431364 C13.3943372,3.98506951 13.4565138,3.83356086 13.5670291,3.72233027 L14.5760015,2.7042347 C14.8074118,2.47243497 15.1791049,2.47243497 15.4105152,2.7042347 C15.5211536,2.81539836 15.5834157,2.96693207 15.5834157,3.12504083 C15.5834157,3.28314959 15.5211536,3.43468331 15.4105152,3.54584696 L14.4007516,4.56394253 L14.4007516,4.56394253 Z M12.9543469,13.7127322 C11.8982984,14.7772602 10.4933325,15.3639968 8.99985166,15.3639968 C7.50637079,15.3639968 6.10180054,14.7772602 5.0452575,13.7127322 C3.98851667,12.6474002 3.40679001,11.2318152 3.40679001,9.72527501 C3.40679001,8.21863427 3.98851668,6.80194373 5.0452575,5.73661174 C6.10140492,4.67208377 7.50597517,4.08534715 8.99985166,4.08534717 C10.4937281,4.08534717 11.8982984,4.67208379 12.9547425,5.73661174 C14.0111866,6.80194373 14.5925177,8.21903626 14.5925177,9.72527501 C14.5925177,11.2314132 14.0111866,12.6474002 12.9543469,13.7127322 Z M9.0657187,2.62865643 C8.73984495,2.62865643 8.47578338,2.36272545 8.47578336,2.03347756 L8.47578336,0.594877364 C8.47578336,0.266031493 8.73984493,0 9.0657187,0 C9.39129576,0 9.65535733,0.266031493 9.65535733,0.594877364 L9.65535733,2.03387958 C9.65535733,2.36272545 9.39129576,2.62865643 9.0657187,2.62865643 L9.0657187,2.62865643 Z M4.10867953,4.64454596 C3.95236059,4.64446059 3.80242584,4.58151983 3.69162047,4.46946969 L2.68254919,3.45217815 C2.57191667,3.34103175 2.50965699,3.18951464 2.50965699,3.03142227 C2.50965699,2.87332989 2.57191667,2.72181278 2.68254919,2.61066638 C2.91278715,2.37890643 3.28613265,2.37890643 3.51676621,2.61066638 L4.52573858,3.62876195 C4.63654684,3.73964885 4.69894237,3.89107858 4.69894237,4.04911582 C4.69894237,4.20715305 4.63654684,4.35858278 4.52573858,4.46946969 C4.41503709,4.58167829 4.26503493,4.64464736 4.10867953,4.64454596 L4.10867953,4.64454596 Z M2.01725246,9.60286232 L0.590034229,9.60286232 C0.264160477,9.60286232 0,9.33693134 0,9.00798498 C0,8.6791391 0.264160477,8.41320812 0.590034229,8.4132081 L2.01725246,8.4132081 C2.34312621,8.4132081 2.60768229,8.6795411 2.60728669,9.00798498 C2.60728669,9.33693136 2.34273061,9.60286234 2.01725246,9.60286232 Z M6.82248096,16.5497314 L11.1771235,16.5497314 C11.5033928,16.5497314 11.7671577,16.8164664 11.7671577,17.1445083 C11.7671577,17.4733541 11.5030961,17.7392851 11.1771235,17.7392851 L6.82248096,17.7392851 C6.4966072,17.7392851 6.23244673,17.4733541 6.23244673,17.1445083 C6.23244673,16.8168684 6.4966072,16.5497314 6.82248096,16.5497314 Z M7.61070972,18.8103458 L10.3889936,18.8103458 C10.7148673,18.8103458 10.9789289,19.0766788 10.9789289,19.4051226 C10.9789289,19.732863 10.7148673,20 10.3889936,20 L7.61070972,20 C7.28483596,20 7.02067549,19.733265 7.02067549,19.4051226 C7.02067549,19.0762768 7.28483596,18.8103458 7.61070972,18.8103458 Z" id="Shape"></path>
                </g>
            </g>
        </g>
    </g>
</svg>
