<svg class="icon" viewBox="0 0 1024 1024" xmlns="http://www.w3.org/2000/svg" width="200" height="200"><defs><style/></defs><path d="M948.57 424.58L532.7 71.75a32 32 0 0 0-41.4 0L75.43 424.58a32 32 0 0 0 41.4 48.8L127.9 464v454a41.91 41.91 0 0 0 41.86 41.86h684.53A41.91 41.91 0 0 0 896.15 918V464l11 9.34a32 32 0 0 0 41.4-48.8zm-116.42-14.37v485.64H191.9V409.71L512 138.12l320.16 271.63c0 .15-.01.3-.01.46z" fill="#fff"/><path d="M267.85 735.78h72q12 0 12 12v72q0 12-12 12h-72q-12 0-12-12v-72q0-12 12-12zM459.89 735.78h72q12 0 12 12v72q0 12-12 12h-72q-12 0-12-12v-72q0-12 12-12zM267.85 607.94h72q12 0 12 12v72q0 12-12 12h-72q-12 0-12-12v-72q0-12 12-12zM267.85 480.46h72q12 0 12 12v72q0 12-12 12h-72q-12 0-12-12v-72q0-12 12-12zM459.89 607.94h72q12 0 12 12v72q0 12-12 12h-72q-12 0-12-12v-72q0-12 12-12zM651.92 735.78h72q12 0 12 12v72q0 12-12 12h-72q-12 0-12-12v-72q0-12 12-12z" fill="#fff"/></svg>