<?xml version="1.0" encoding="UTF-8"?>
<svg width="103px" height="115px" viewBox="0 0 103 115" version="1.1" xmlns="http://www.w3.org/2000/svg" xmlns:xlink="http://www.w3.org/1999/xlink">
    <!-- Generator: Sketch 53.2 (72643) - https://sketchapp.com -->
    <title>subscribe</title>
    <desc>Created with Sketch.</desc>
    <g id="Page-1" stroke="none" stroke-width="1">
        <g id="Artboard" transform="translate(-1159.000000, -1849.000000)">
            <g id="subscribe" transform="translate(1159.000000, 1849.000000)">
                <path d="M34.1357073,77.2969631 C34.7788293,77.9355748 34.7788293,79.2127983 34.7788293,79.85141 L32.2063415,93.262256 C32.2063415,94.5394794 32.2063415,96.4553145 32.8494634,97.0939262 C33.4925854,97.732538 34.7788293,98.3711497 36.0650732,98.3711497 C36.7081951,98.3711497 37.994439,98.3711497 38.637561,97.732538 L50.856878,91.3464208 L53.4293659,91.3464208 L65.6486829,97.732538 C66.2918049,98.3711497 67.5780488,98.3711497 68.2211707,98.3711497 C69.5074146,98.3711497 70.7936585,97.732538 71.4367805,97.0939262 C72.0799024,95.8167028 72.7230244,94.5394794 72.0799024,93.262256 L70.7936585,79.2127983 C70.7936585,78.5741866 70.7936585,77.2969631 71.4367805,76.6583514 L81.0836098,67.0791757 C82.3698537,65.8019523 83.0129756,63.8861171 82.3698537,61.970282 C81.7267317,60.0544469 80.4404878,59.4158351 78.511122,58.7772234 L65.005561,56.8613883 C64.362439,56.8613883 63.0761951,56.2227766 63.0761951,55.5841649 L57.2880976,43.4505423 C56.6449756,41.5347072 54.7156098,40.8960954 52.7862439,40.8960954 C50.856878,40.8960954 49.5706341,42.1733189 48.2843902,43.4505423 L42.4962927,56.2227766 C42.4962927,56.8613883 41.2100488,57.5 40.5669268,57.5 L27.0613659,59.4158351 C25.132,59.4158351 23.8457561,60.6930586 23.2026341,62.6088937 C22.5595122,64.5247289 23.2026341,65.8019523 24.488878,67.7177874 L34.1357073,77.2969631 Z M49.3117188,58.6195951 L53.4293659,49.9529284 L57.5470129,58.6195951 C58.7234835,61.0957856 61.0764247,62.9529284 64.0176011,63.571976 L73.4293659,64.8100713 L66.3705423,71.6195951 C64.6058364,73.4767379 62.4293659,76.571976 63.0176011,79.0481665 L64.782307,88.9529284 L57.5470129,84.6195951 C56.3705423,84.0005475 55.1940717,84.0005475 53.4293659,84.0005475 C51.66466,84.0005475 50.4881894,84.6195951 49.3117188,84.6195951 L41.0764247,88.9529284 L42.8411306,79.0481665 C43.4293659,76.571976 42.2528953,73.4767379 40.4881894,71.6195951 L33.4293659,64.8100713 L42.8411306,63.571976 C45.1940717,62.9529284 48.1352482,61.0957856 49.3117188,58.6195951 Z M98.8036298,14 L20.1963702,14 C17.6785481,14 16,15.6 16,18 C16,20.4 17.6785481,22 20.1963702,22 L98.8036298,22 C101.321452,22 103,20.4 103,18 C103,16.4 101.321452,14 98.8036298,14 Z" id="Shape"></path>
                <path d="M19.1282927,26.9308026 C13.9833171,26.9308026 9.48146341,23.0991323 9.48146341,17.9902386 C9.48146341,12.2427332 13.9833171,9.41106291 19.1282927,9.41106291 L97.7341463,9.41106291 C101,9.41106291 103,7 103,4.5 C103,2 101,9.78380571e-13 97.7341463,0.0249457701 L16.1282927,0.0249457701 C7.12458537,0.0249457701 0.0502439024,7.04967462 0.0502439024,15.9902386 L0.0502439024,99.6483731 C0.0502439024,107.950325 7.12458537,114.975054 16.1282927,114.975054 L102.949756,114.975054 L102.949756,26.9308026 L19.1282927,26.9308026 Z M93.5185366,105.088937 L18.5185366,105.088937 C13.7185366,105.088937 9.51853659,101.660366 9.51853659,96.5175085 L9.51853659,33.0889371 C11.9185366,34.8032228 14.9185366,35.94608 18.5185366,35.94608 L93.5185366,35.94608 L93.5185366,105.088937 Z" id="Shape"></path>
            </g>
        </g>
    </g>
</svg>
