<?xml version="1.0" encoding="UTF-8"?>
<svg width="112px" height="97px" viewBox="0 0 112 97" version="1.1" xmlns="http://www.w3.org/2000/svg" xmlns:xlink="http://www.w3.org/1999/xlink">
    <!-- Generator: Sketch 53.2 (72643) - https://sketchapp.com -->
    <title>sysadmin</title>
    <desc>Created with Sketch.</desc>
    <g id="Page-1" stroke="none" stroke-width="1">
        <g id="Artboard" transform="translate(-1146.000000, -485.000000)">
            <g id="sysadmin" transform="translate(1146.000000, 485.000000)">
                <path d="M109.427871,0.0625 L2.53467113,0.0625 C1.16120401,0.0625 0.037458194,1.1875 0.037458194,2.5625 L0.037458194,77.5625 C0.037458194,78.9375 1.16120401,80.0625 2.53467113,80.0625 L109.427871,80.0625 C110.801338,80.0625 111.925084,78.9375 111.925084,77.5625 L111.925084,2.5625 C111.925084,1.1875 110.801338,0.0625 109.427871,0.0625 Z M100.975028,67.8428179 C100.975028,69.0670806 99.9410733,70.06875 98.6773511,70.06875 L13.2727047,70.06875 C12.0089824,70.06875 10.9750279,69.0670806 10.9750279,67.8428179 L10.9750279,12.2946821 C10.9750279,11.0704194 12.0089824,10.06875 13.2727047,10.06875 L98.6773511,10.06875 C99.9410733,10.06875 100.975028,11.0704194 100.975028,12.2946821 L100.975028,67.8428179 Z" id="Shape"></path>
                <polygon id="Path" points="48.0713489 79.1625 63.9411371 79.1625 63.9411371 89.0125 48.0713489 89.0125"></polygon>
                <path d="M79.7859532,96 L31.9268673,96 C29.7168339,96 27.9313266,94.2125 27.9313266,92 C27.9313266,89.7875 29.7168339,88 31.9268673,88 L79.7859532,88 C81.9959866,88 83.7814939,89.7875 83.7814939,92 C83.7814939,94.2125 81.9959866,96 79.7859532,96 Z M75.0037904,46.1625 L72.5939799,44.7625 C72.0445931,44.45 71.7698997,43.8125 71.9197324,43.1875 C72.2318841,41.9375 72.3942029,40.625 72.3942029,39.275 C72.3942029,38.5 72.3442586,37.75 72.2318841,37 C72.1569677,36.425 72.4316611,35.85 72.9311037,35.55 L74.9913043,34.3625 C75.6780379,33.9625 75.9152731,33.0875 75.5157191,32.4 L72.5814939,27.3125 C72.1819398,26.625 71.3079153,26.3875 70.6211817,26.7875 L69.0729097,27.675 C68.5235229,27.9875 67.8243032,27.9125 67.3623188,27.4625 C65.6767001,25.825 63.6289855,24.5625 61.3565217,23.775 C60.7821628,23.575 60.4075808,23.025 60.4075808,22.425 L60.4075808,20.9 C60.4075808,20.1125 59.7707915,19.4625 58.9716834,19.4625 L53.1157191,19.4625 C52.329097,19.4625 51.6798216,20.1 51.6798216,20.9 L51.6798216,22.3875 C51.6798216,23 51.2927536,23.55 50.7183946,23.75 C48.4334448,24.5375 46.3607581,25.8125 44.6626533,27.45 C44.2006689,27.8875 43.5139353,27.975 42.9645485,27.65 L41.4911929,26.8 C40.8044593,26.4 39.9304348,26.6375 39.5308807,27.325 L36.5966555,32.4125 C36.1971014,33.1 36.4343367,33.975 37.1210702,34.375 L39.0938685,35.5125 C39.6057971,35.8 39.8804905,36.375 39.7930881,36.9625 C39.6931996,37.7125 39.6307692,38.4875 39.6307692,39.2625 C39.6307692,40.6375 39.8055741,41.9625 40.1177258,43.2375 C40.2675585,43.8625 39.9928651,44.5125 39.4309922,44.825 L37.1335563,46.15 C36.4468227,46.55 36.2095875,47.425 36.6091416,48.1125 L39.5433668,53.2 C39.9429208,53.8875 40.8169454,54.125 41.5036789,53.725 L44.3629877,52.075 C44.8749164,51.7875 45.4992196,51.825 45.961204,52.1875 C47.3846154,53.3 48.9953177,54.175 50.7433668,54.775 C51.3177258,54.975 51.7047938,55.5125 51.7047938,56.125 L51.7047938,59.625 C51.7047938,60.4125 52.3415831,61.0625 53.1406912,61.0625 L58.9966555,61.0625 C59.7832776,61.0625 60.432553,60.425 60.432553,59.625 L60.432553,56.1 C60.432553,55.4875 60.8071349,54.95 61.3814939,54.75 C63.1045708,54.15 64.690301,53.2625 66.1012263,52.1625 C66.5632107,51.8 67.2,51.75 67.6994426,52.05 L70.6086957,53.7375 C71.2954292,54.1375 72.1694537,53.9 72.5690078,53.2125 L75.503233,48.125 C75.9152731,47.425 75.6780379,46.55 75.0037904,46.1625 Z M56.0624303,47.5625 C51.942029,47.5625 48.5957637,44.2125 48.5957637,40.0875 C48.5957637,35.9625 51.942029,32.6125 56.0624303,32.6125 C60.1828317,32.6125 63.529097,35.9625 63.529097,40.0875 C63.529097,44.2125 60.1828317,47.5625 56.0624303,47.5625 L56.0624303,47.5625 Z" id="Shape"></path>
            </g>
        </g>
    </g>
</svg>
