<?xml version="1.0" encoding="UTF-8"?>
<svg width="16px" height="9px" viewBox="0 0 16 9" version="1.1" xmlns="http://www.w3.org/2000/svg" xmlns:xlink="http://www.w3.org/1999/xlink">
    <title>字符</title>
    <g id="页面-1" stroke="none" stroke-width="1" fill="none" fill-rule="evenodd">
        <g id="画板备份-22" transform="translate(-441.000000, -311.000000)" fill="#0F1D63" fill-rule="nonzero">
            <g id="编组-2" transform="translate(0.000000, -1.000000)">
                <g id="实体1备份-2" transform="translate(0.000000, 1.000000)">
                    <g transform="translate(441.750014, 251.000000)">
                        <g id="字符" transform="translate(0.000000, 60.000000)">
                            <path d="M6.66664622,8.92858582 L5.8333056,6.69643937 L2.77774956,6.69643937 L1.94443519,8.92858582 L0,8.92858582 L3.05552978,0 L5.55555166,0 L8.6111077,8.92858582 L6.6666725,8.92858582 L6.66664622,8.92858582 Z M4.16665062,2.51116149 L3.33330998,5.02232295 L5.27774518,5.02232295 L4.44443082,2.51118776 L4.16665062,2.51118776 L4.16665062,2.51116149 Z M11.1111033,8.92861209 C9.78297081,8.92861209 8.61215862,7.95857512 8.61215862,6.69646565 C8.61215862,5.42127241 9.66519075,4.74333422 11.3888835,4.7433342 L13.3333187,4.7433342 L13.3333187,4.18530416 C13.3333187,3.53135285 12.9383627,3.06924407 12.2222242,3.06924407 C11.5126012,3.06924407 10.9244628,3.38966471 10.8333231,3.90628914 L9.16664185,3.90628914 C9.23826095,2.54607777 10.3732636,1.39512765 12.2222242,1.39512765 C14.0125706,1.39512765 15,2.49374274 15,3.90626287 L15,8.92861209 L13.3332925,8.92861209 L13.3332925,7.812552 C12.9426714,8.55803705 11.9834588,8.92861209 11.1110771,8.92861209 L11.1111033,8.92861209 Z M11.4973894,7.60980634 C12.3241881,7.60980634 13.0078012,7.06701441 13.0078012,6.3084456 L13.0078012,5.79836305 L11.5364567,5.88992306 C10.8268338,5.94223182 10.4231553,6.26267873 10.4231553,6.75967751 C10.4231553,7.28284382 10.8528437,7.60980634 11.4973894,7.60980634 Z" id="形状"></path>
                        </g>
                    </g>
                </g>
            </g>
        </g>
    </g>
</svg>