<?xml version="1.0" encoding="UTF-8"?>
<svg width="116px" height="110px" viewBox="0 0 116 110" version="1.1" xmlns="http://www.w3.org/2000/svg" xmlns:xlink="http://www.w3.org/1999/xlink">
    <!-- Generator: Sketch 53.2 (72643) - https://sketchapp.com -->
    <title>throtte</title>
    <desc>Created with Sketch.</desc>
    <g id="Page-1" stroke="none" stroke-width="1">
        <g id="Artboard" transform="translate(-1148.000000, -1067.000000)">
            <g id="throtte" transform="translate(1148.000000, 1067.000000)">
                <path d="M20.3367574,47.7306122 C24.3386252,47.7306122 27.6735148,44.4653062 27.6735148,40.5469388 C27.6735148,36.6285714 24.3386252,33.3632653 20.3367574,33.3632653 C18.3358236,33.3632653 16.4682853,34.1469388 15.1343294,35.4530612 C13.8003735,36.8897959 13,38.7183673 13,40.5469388 C13,44.4653062 16.3348897,47.7306122 20.3367574,47.7306122 Z M55,68.0127642 C55,70.8178699 56.6830634,73.342465 59.3479138,74.4645073 C62.0127642,75.5865496 64.9581252,74.8852732 66.9216992,72.9216991 C68.8852731,70.9581251 69.5865496,67.8725088 68.4645073,65.3479137 C67.342465,62.8233187 64.8178699,61 62.0127643,61 C58.0856162,61 55,64.2258715 55,68.0127642 M31.01214,29.1836735 C31.01214,34.638219 35.5575945,39.1836735 41.01214,39.1836735 C46.4666855,39.1836735 51.01214,34.638219 51.01214,29.1836735 C51.01214,23.7291279 46.4666855,19.1836735 41.01214,19.1836735 C35.5575945,19.1836735 31.01214,23.7291279 31.01214,29.1836735 M31.01214,78.8163266 C31.01214,84.270872 35.5575945,88.8163265 41.01214,88.8163265 C46.4666855,88.8163265 51.01214,84.270872 51.01214,78.8163266 C51.01214,73.3617811 46.4666855,68.8163266 41.01214,68.8163265 C38.2848673,68.8163265 35.7394126,69.9072356 33.9212309,71.7254175 C32.1030491,73.5435994 31.01214,76.0890537 31.01214,78.8163266 M31.01214,54 C31.01214,59.5555556 35.4565845,64 41.01214,64 C46.5676955,64 51.01214,59.5555555 51.01214,54 C51.01214,48.4444445 46.5676955,44 41.01214,44 C38.3137273,44 35.7740447,45.1111111 33.8692828,46.8571428 C32.1232511,48.7619047 31.01214,51.3015873 31.01214,54 M13,68 C13,71.9152543 16.0847457,75 20,75 C23.9152543,75 27,71.9152543 27,68 C27,64.0847457 23.9152543,61 20,61 C16.0847457,61 13,64.2033899 13,68" id="Shape"></path>
                <path d="M75.379845,56.1405751 C75.379845,59.7635783 78.2790697,62.7156549 81.8372093,62.7156549 C85.3953489,62.7156549 88.2945736,59.7635783 88.2945736,56.1405751 C88.2945736,52.5175718 85.3953489,49.5654952 81.8372093,49.5654952 C80.124031,49.5654952 78.4108528,50.2364217 77.2248062,51.4440894 C76.0387597,52.6517571 75.379845,54.396166 75.379845,56.1405751 M89.0852713,42.7220447 C89.0852713,46.3450479 91.9844961,49.2971246 95.5426357,49.2971246 C99.1007752,49.2971246 102,46.3450479 102,42.7220447 C102,39.0990415 99.1007752,36.1469648 95.5426357,36.1469648 C91.9844961,36.1469648 89.0852713,39.0990415 89.0852713,42.7220447 M89.0852713,69.4249201 C89.0852713,73.0479234 91.9844961,76 95.5426357,76 C99.1007752,76 102,73.0479234 102,69.4249201 C102,65.8019169 99.1007752,62.8498402 95.5426357,62.8498402 C93.8294574,62.8498402 92.1162791,63.5207667 90.9302325,64.7284345 C89.875969,66.0702875 89.0852713,67.6805111 89.0852713,69.4249201 M55,40 C55,42.5869565 56.3548387,44.8695653 58.4623656,46.0869565 C60.5698924,47.3043478 63.2795699,47.3043478 65.5376344,46.0869565 C67.6451613,44.8695653 69,42.4347827 69,40 C69,37.4130435 67.6451613,35.1304347 65.5376344,33.9130435 C63.4301076,32.6956522 60.7204301,32.6956522 58.4623656,33.9130435 C56.3548387,35.1304347 55,37.4130434 55,40 M3.84974137e-16,54.9329073 C3.84974137e-16,57.4824281 2.1085271,59.4952077 4.61240314,59.4952077 C7.11627917,59.4952077 9.22480616,57.4824281 9.22480616,54.9329073 C9.22480616,52.3833866 7.24806201,50.370607 4.61240314,50.370607 C3.42635664,50.370607 2.24031015,50.9073482 1.44961238,51.71246 C0.527131775,52.5175718 0,53.7252395 0,54.9329073" id="Shape"></path>
                <path d="M83.8468468,84.2966139 C83.8468468,86.7955539 82.6006006,88.8205868 79.5615616,90.1358184 L65.8198199,96.1858839 C61.4594594,98.1587313 56,101.394625 56,93.5032354 L56,16 C56,8.5031797 61.4594594,11.9066887 65.8198199,13.8795362 L79.5615616,19.9296017 C82.4684685,21.2448333 83.8468469,23.2698662 83.8468468,25.7688062 L83.8468468,29.0568853 L90,29.0568853 L90,23.1383429 C90,20.770926 88.018018,17.8774163 85.5075075,16.5621847 L56.1741741,1.70006727 C50.7567567,-1.06191912 46,-0.404303309 46,3.27834532 L46,106.655552 C46,110.469723 50.7567568,110.995816 56.1741741,108.365353 L85.3753753,93.5032354 C87.8858858,92.1880038 89.8678679,89.2944941 89.8678679,86.9270772 L89.8678679,81.0085348 L83.8468468,81.0085348 L83.8468468,84.2966139 Z" id="Path"></path>
                <path d="M103,55.5 C103,59.0816327 105.918367,62 109.5,62 C113.081633,62 116,59.0816327 116,55.5 C116,51.9183673 113.081633,49 109.5,49 C107.77551,49 106.05102,49.6632653 104.857143,50.8571428 C103.663265,52.0510204 103,53.7755101 103,55.5" id="Path"></path>
            </g>
        </g>
    </g>
</svg>
