<svg class="icon" viewBox="0 0 1024 1024" xmlns="http://www.w3.org/2000/svg" width="400" height="400"><defs><style/></defs><path d="M527.053 96.924c-169.131.322-306.127 137.496-306.127 306.7 0 157.986 128.978 324.17 278.121 502.935 7.838 9.418 17.977 14.485 28.006 15.061 10.029-.576 20.168-5.643 28.002-15.061 149.144-178.765 278.123-344.948 278.123-502.935 0-169.205-136.997-306.378-306.126-306.7zm0 404.043c-66.07-.358-119.562-53.956-119.562-120.099s53.492-119.74 119.562-120.099c66.069.358 119.557 53.956 119.557 120.099s-53.487 119.74-119.557 120.099z" fill="#1afa29"/></svg>