<?xml version="1.0" encoding="UTF-8"?>
<svg width="12px" height="12px" viewBox="0 0 12 12" version="1.1" xmlns="http://www.w3.org/2000/svg" xmlns:xlink="http://www.w3.org/1999/xlink">
    <title>token管理</title>
    <g id="darshboard" stroke="none" stroke-width="1" fill="none" fill-rule="evenodd">
        <g id="token管理" transform="translate(0.000000, 0.000000)" fill="#000000" fill-rule="nonzero">
            <path d="M1.43113562,12 C1.1033336,12 0.775531591,11.8744356 0.52634876,11.6246427 C0.2851611,11.3828645 0.15190825,11.0609388 0.15190825,10.7163047 C0.15190825,10.3730064 0.2851611,10.0510807 0.52634876,9.80796676 L6.13096366,4.18962929 C5.67257385,3.05554262 5.92175668,1.76383261 6.79456285,0.888889419 C7.4794825,0.202292781 8.46688613,-0.115625507 9.43296929,0.0379904726 C9.59020766,0.0633705039 9.71946292,0.174241167 9.76876648,0.325185565 C9.81807003,0.476129962 9.77809418,0.643103852 9.66616178,0.755310307 L8.72539666,1.69971463 L9.08917694,2.88990453 L10.3084405,3.28129132 L11.2465406,2.34089437 C11.358473,2.22868792 11.5237065,2.18861418 11.6756148,2.23803846 C11.8261905,2.28746273 11.9367904,2.41703447 11.9621084,2.57465782 C12.1153492,3.54310639 11.7982074,4.53159182 11.1119552,5.21952425 C10.2857875,6.04771475 9.08784441,6.32288772 7.99383851,5.95420937 L2.337255,11.6246427 C2.08807217,11.8744356 1.76027016,12 1.43113562,12 Z M8.28299719,0.946328438 C7.9511976,1.05052015 7.64604857,1.23352353 7.39153562,1.48865963 C6.7079485,2.17392048 6.55470772,3.21717335 7.01043247,4.082766 C7.09704682,4.24706831 7.06639867,4.44877277 6.93581087,4.5796803 L1.12332153,10.407737 C1.04203729,10.4892202 0.996731323,10.6000909 0.996731323,10.7176405 C0.996731323,10.8351901 1.04203729,10.944725 1.12332153,11.0275441 C1.29388518,11.1985253 1.57105111,11.1985253 1.74028223,11.0275441 L7.5914149,5.16208523 C7.71400752,5.03919245 7.90056151,5.00312609 8.06046493,5.07392302 C8.90528801,5.44928032 9.86737359,5.27028431 10.5149824,4.62108982 C10.7694954,4.36595372 10.9533843,4.06005755 11.055989,3.72744556 L10.7215244,4.06272913 C10.6095654,4.17485186 10.4445836,4.21503905 10.2937827,4.16692084 L8.62012691,3.62859702 C8.48820658,3.5858517 8.38560189,3.48165999 8.34562603,3.34941667 L7.84193026,1.7050578 C7.79662429,1.55544919 7.83660014,1.39248267 7.94720001,1.28161201 L8.28299719,0.946328438 Z M10.843805,4.9637505 L10.873805,4.9637505 L10.843805,4.9637505 Z M2.69970275,5.21017371 C2.47317291,5.21017371 2.26130087,5.1220115 2.10272998,4.96305235 L0.246517774,3.10095952 C0.0879468814,2.94200038 0,2.72960959 0,2.5025251 C0,2.27544061 0.0879468814,2.06304982 0.246517774,1.90409067 L1.11932395,1.02914749 C1.44845849,0.69920708 1.98413495,0.69920708 2.31326949,1.02914749 L4.17081422,2.89124032 C4.32938512,3.05019946 4.417332,3.26259025 4.417332,3.48967474 C4.417332,3.71675923 4.32938512,3.92915002 4.17081422,4.08810916 L3.29800805,4.96305235 C3.13810463,5.1220115 2.9262326,5.21017371 2.69970275,5.21017371 L2.69970275,5.21017371 Z M2.69970275,4.36461793 L2.40121637,4.66383514 L2.69970275,4.36461793 Z M1.71629672,1.62758191 L0.843490544,2.5025251 L2.69970275,4.36328214 L3.57384145,3.48833895 L1.71629672,1.62758191 L1.71629672,1.62758191 Z" id="形状"></path>
            <path d="M4.78510987,6.05038633 C4.67717506,6.05038633 4.67717506,6.20133072 4.59455829,6.11851168 L3.23804427,4.62643299 C3.07281073,4.46079489 3.07281073,4.19363666 3.23804427,4.02799856 C3.4032778,3.86236046 3.66978351,3.86236046 3.83501704,4.02799856 L4.46930061,4.66383514 L5.19286359,5.52007725 C5.35809712,5.68571535 5.35809712,5.95287358 5.19286359,6.11851168 C5.11024682,6.20133072 4.89304467,6.05038633 4.78510987,6.05038633 L4.78510987,6.05038633 Z M9.71813039,11.9625978 C9.61019559,11.9625978 9.50226078,11.9211883 9.41964401,11.8383693 L6.96645903,9.37917781 C6.88783985,9.30036614 6.84253388,9.19216705 6.84253388,9.0799606 C6.84253388,8.96775415 6.88650732,8.85955506 6.96645903,8.78074339 L7.97784817,7.76687792 C8.1430817,7.60123982 8.4095874,7.60123982 8.57482094,7.76687792 L11.0293384,10.2260694 C11.1079576,10.3048811 11.1532636,10.4130801 11.1532636,10.5252866 C11.1532636,10.6374931 11.1092902,10.7456921 11.0293384,10.8245038 L10.0166168,11.8383693 C9.93533254,11.9211883 9.82739773,11.9625978 9.71813039,11.9625978 Z M7.86191819,9.0799606 L9.71946292,10.9420534 L10.1338793,10.5266224 L8.27633455,8.66319377 L7.86191819,9.0799606 Z" id="形状"></path>
            <path d="M7.67003408,8.89428563 C7.56209927,8.89428563 7.45416446,8.85287611 7.3715477,8.77005706 L6.15095158,7.54112922 C5.98571805,7.37549112 5.98571805,7.1083329 6.15095158,6.9426948 C6.31618512,6.7770567 6.58269082,6.7770567 6.74792435,6.9426948 L7.96852047,8.17162263 C8.133754,8.33726073 8.133754,8.60441896 7.96852047,8.77005706 C7.8859037,8.85287611 7.77796889,8.89428563 7.67003408,8.89428563 Z" id="路径"></path>
        </g>
    </g>
</svg>