<svg width="37" height="40" xmlns="http://www.w3.org/2000/svg"><defs><filter x="-5.1%" y="-2%" width="110.3%" height="105.8%" filterUnits="objectBoundingBox" id="a"><feOffset dy="6" in="SourceAlpha" result="shadowOffsetOuter1"/><feGaussianBlur stdDeviation="5" in="shadowOffsetOuter1" result="shadowBlurOuter1"/><feColorMatrix values="0 0 0 0 0 0 0 0 0 0 0 0 0 0 0 0 0 0 0.0975713315 0" in="shadowBlurOuter1" result="shadowMatrixOuter1"/><feMerge><feMergeNode in="shadowMatrixOuter1"/><feMergeNode in="SourceGraphic"/></feMerge></filter></defs><g filter="url(#a)" transform="translate(-12 -164)" fill-rule="nonzero" fill="none"><path d="M36.038 187.615l-5.526-5.454-5.526 5.454a1.662 1.662 0 0 1-.578.379 1.805 1.805 0 0 1-.659.126c-.223 0-.44-.042-.65-.126-.21-.084-.4-.21-.569-.38a1.623 1.623 0 0 1-.524-1.21c0-.469.175-.872.524-1.21l6.646-6.59c.168-.169.37-.301.604-.398.235-.096.473-.15.714-.162.24-.012.472.018.695.09.223.072.406.193.55.361l6.755 6.7c.337.337.505.74.505 1.21s-.168.873-.505 1.21a1.662 1.662 0 0 1-.578.379 1.805 1.805 0 0 1-.66.126c-.222 0-.439-.042-.65-.126-.21-.084-.4-.21-.568-.38z" fill="#EA7744"/><path d="M36.038 177.615l-5.526-5.454-5.526 5.454a1.662 1.662 0 0 1-.578.379 1.805 1.805 0 0 1-.659.126c-.223 0-.44-.042-.65-.126-.21-.084-.4-.21-.569-.38a1.623 1.623 0 0 1-.524-1.21c0-.469.175-.872.524-1.21l6.646-6.59c.168-.169.37-.301.604-.398.235-.096.473-.15.714-.162.24-.012.472.018.695.09.223.072.406.193.55.361l6.755 6.7c.337.337.505.74.505 1.21s-.168.873-.505 1.21a1.662 1.662 0 0 1-.578.379 1.805 1.805 0 0 1-.66.126c-.222 0-.439-.042-.65-.126-.21-.084-.4-.21-.568-.38z" fill="#CE2003"/></g></svg>