<svg class="icon" viewBox="0 0 1024 1024" xmlns="http://www.w3.org/2000/svg" width="64" height="64"><path d="M650.667 405.333H373.333A53.333 53.333 0 0 1 320 352V160a53.333 53.333 0 0 1 53.333-53.333h277.334A53.333 53.333 0 0 1 704 160v192a53.333 53.333 0 0 1-53.333 53.333zm-266.667-64h256V170.667H384zm-10.667 576H160A53.333 53.333 0 0 1 106.667 864V672A53.333 53.333 0 0 1 160 618.667h213.333A53.333 53.333 0 0 1 426.667 672v192a53.333 53.333 0 0 1-53.334 53.333zm-202.666-64h192V682.667h-192zm693.333 64H650.667A53.333 53.333 0 0 1 597.333 864V672a53.333 53.333 0 0 1 53.334-53.333H864A53.333 53.333 0 0 1 917.333 672v192A53.333 53.333 0 0 1 864 917.333zm-202.667-64h192V682.667h-192zM266.66700000000003 480h490.666q32 0 32 32t-32 32H266.667q-32 0-32-32t32-32z"/><path d="M544 396.79999999999995v106.667q0 21.333-21.333 21.333h-21.334Q480 524.8 480 503.467V396.8q0-21.333 21.333-21.333h21.334Q544 375.467 544 396.8zM298.667 512v121.6q0 21.333-21.334 21.333H256q-21.333 0-21.333-21.333V512q0-21.333 21.333-21.333h21.333q21.334 0 21.334 21.333zM787.2 514.133V633.6q0 21.333-21.333 21.333h-21.334q-21.333 0-21.333-21.333V514.133q0-21.333 21.333-21.333h21.334q21.333 0 21.333 21.333z"/></svg>