<?xml version="1.0" encoding="UTF-8" standalone="no"?>
<svg width="16px" height="16px" viewBox="0 0 16 16" version="1.1" xmlns="http://www.w3.org/2000/svg" xmlns:xlink="http://www.w3.org/1999/xlink">
    <!-- Generator: Sketch 3.6.1 (26313) - http://www.bohemiancoding.com/sketch -->
    <title>卸载</title>
    <desc>Created with Sketch.</desc>
    <defs></defs>
    <g id="Page-1" stroke="none" stroke-width="1" fill="none" fill-rule="evenodd">
        <g id="Artboard-1" transform="translate(-856.000000, -10655.000000)">
            <g id="卸载" transform="translate(856.000000, 10655.000000)">
                <path d="M8,0 C3.58866667,0 0,3.58866667 0,8 C0,12.4113333 3.58866667,16 8,16 C12.4113333,16 16,12.4113333 16,8 C16,3.58866667 12.4113333,0 8,0 L8,0 Z" id="Shape" fill="#666666"></path>
                <g id="delete" transform="translate(3.000000, 3.000000)" fill="#FFFFFF">
                    <g id="Group">
                        <path d="M7.5,0.625 C7.5,0.25 7.25,0 6.875,0 L3.125,0 C2.75,0 2.5,0.25 2.5,0.625 L2.5,1.875 L0,1.875 L0,3.125 L0.625,3.125 L0.625,9.375 C0.625,9.75 0.875,10 1.25,10 L8.75,10 C9.125,10 9.375,9.75 9.375,9.375 L9.375,3.125 L10,3.125 L10,1.875 L7.5,1.875 L7.5,0.625 L7.5,0.625 Z M3.75,1.25 L6.25,1.25 L6.25,1.875 L3.75,1.875 L3.75,1.25 L3.75,1.25 Z M8.125,3.125 L8.125,8.75 L1.875,8.75 L1.875,3.125 L8.125,3.125 L8.125,3.125 Z" id="Shape"></path>
                        <rect id="Rectangle-path" x="3.125" y="4.375" width="1.25" height="3.75"></rect>
                        <rect id="Rectangle-path" x="5.625" y="4.375" width="1.25" height="3.75"></rect>
                    </g>
                </g>
            </g>
        </g>
    </g>
</svg>
