<svg width="129" height="129" xmlns="http://www.w3.org/2000/svg"><defs><linearGradient x1="60.283%" y1="98.802%" x2="60.283%" y2="0%" id="a"><stop stop-color="#D2D3D2" offset="0%"/><stop stop-color="#E6F0F2" offset="100%"/></linearGradient></defs><g fill-rule="nonzero" fill="none"><path d="M103.619 2.822C93.372 1.028 78.907 0 63.939 0 49.103 0 35.382.966 25.306 2.717 9.426 5.477 5.644 9.29 2.832 25.382-.895 46.692-.95 82.554 2.71 103.694c2.75 15.88 6.563 19.66 22.663 22.479C35.646 127.97 50.141 129 65.14 129c14.802 0 28.496-.96 38.557-2.703 15.882-2.762 19.665-6.573 22.473-22.67 3.729-21.313 3.78-57.183.112-78.326-2.757-15.88-6.568-19.662-22.663-22.48z" fill="url(#a)"/><path d="M36.62 30c-.96 0-1.983.35-2.686 1.05-.705.7-1.153 1.575-1.153 2.45v63c0 .875.384 1.808 1.153 2.45.767.7 1.727 1.05 2.687 1.05h56.32c.96 0 1.984-.35 2.688-1.05.767-.7 1.152-1.575 1.152-2.45V44.583L81.542 30H36.621z" fill="#6B7590"/><path d="M96.781 45H84.428c-.661 0-1.367-.264-1.852-.794a2.538 2.538 0 0 1-.795-1.853V30l15 15z" fill="#C0C8DD"/><path d="M68.487 82h-6.191v-6.194h6.19V82zm5.722-17.787c-.48.62-1.51 1.555-3.098 2.816-1.33 1.03-2.172 1.915-2.528 2.663-.353.748-.527 1.782-.527 3.105h-5.648c0-2.79.607-4.994 1.824-6.607.171-.208 1.288-1.247 3.356-3.128 1.188-1.115 1.783-2.407 1.783-3.877 0-1.177-.418-2.156-1.25-2.95-.837-.791-1.803-1.188-2.906-1.188-1.104 0-2.052.41-2.843 1.237-.905.917-1.47 2.243-1.694 3.982h-5.897c0-3.116.925-5.601 2.777-7.465C59.414 50.93 61.85 50 64.876 50c3.423 0 6.098.856 8.021 2.573 1.926 1.717 2.884 4.136 2.884 7.24 0 1.676-.524 3.142-1.572 4.4z" fill="#FFF"/></g></svg>