<?xml version="1.0" encoding="UTF-8"?>
<svg width="64px" height="64px" viewBox="0 0 64 64" version="1.1" xmlns="http://www.w3.org/2000/svg" xmlns:xlink="http://www.w3.org/1999/xlink">
    <!-- Generator: Sketch 64 (93537) - https://sketch.com -->
    <title>待办</title>
    <desc>Created with Sketch.</desc>
    <g id="页面-1" stroke="none" stroke-width="1" fill="none" fill-rule="evenodd">
        <g id="画板" transform="translate(-135.000000, -127.000000)" fill-rule="nonzero">
            <g id="待办" transform="translate(135.000000, 127.000000)">
                <path d="M0,32 C0,49.673112 14.326888,64 32,64 C49.673112,64 64,49.673112 64,32 C64,14.326888 49.673112,0 32,0 C14.326888,0 0,14.326888 0,32 Z" id="路径" fill="#FFB728"></path>
                <path d="M28.2055731,44.8568807 L21.6151398,44.8568807 C20.4758565,44.856531 19.3836557,44.4023032 18.5801106,43.5946636 C17.7765654,42.7870239 17.3278947,41.6925286 17.3332866,40.5532582 L17.3332866,21.6369558 C17.3332866,19.2533271 19.2424202,17.3333333 21.6151398,17.3333333 L37.6623607,17.3333333 C40.0337167,17.3333333 41.944165,19.2533271 41.944165,21.6369558 L41.944165,26.4042131 C41.944165,27.023302 41.4505302,27.549664 40.8041687,27.549664 C40.4992869,27.5549315 40.2054171,27.4357619 39.9903162,27.2196317 C39.7752152,27.0035016 39.6574496,26.7090663 39.6641724,26.4042131 L39.6641724,21.6369558 C39.6641724,20.4915049 38.7709935,19.5928714 37.6309971,19.5928715 L21.6151398,19.5928715 C20.4751435,19.5928715 19.5819646,20.491505 19.5819646,21.6369558 L19.5819646,40.5532582 C19.5819646,41.6987091 20.4751435,42.5959789 21.6137762,42.5959789 L28.2055731,42.5959789 C28.8219347,42.5959789 29.3455694,43.092341 29.3455694,43.7414298 C29.3455694,44.3918822 28.8219347,44.8568807 28.2055731,44.8568807 L28.2055731,44.8568807 Z M38.8937203,47.3332364 C34.2123719,47.3332364 30.4542022,43.5246123 30.4542022,38.8514456 C30.4542022,34.174188 34.2423717,30.3669275 38.895084,30.3669275 C43.5450689,30.3669275 47.3332385,34.144188 47.3332385,38.8500819 C47.3332385,43.5559759 43.5750688,47.3332364 38.8937203,47.3332364 Z M38.8937203,32.6278287 C37.2461215,32.6270782 35.6662473,33.2834007 34.5041662,34.451369 C33.342085,35.6193374 32.6937544,37.2025079 32.7027372,38.8500819 C32.7027372,42.2864345 35.475095,45.0736982 38.8937203,45.0736982 C42.3123457,45.0736982 45.0846094,42.2864345 45.0846094,38.8500819 C45.0846094,35.4137294 42.3437092,32.6278287 38.8937203,32.6278287 Z M38.8937203,39.9641692 C38.5904271,39.9641727 38.2996349,39.8433178 38.0856866,39.6283459 C37.8717383,39.4133739 37.7522729,39.1220082 37.7537109,38.8187184 L37.7537109,35.415093 C37.7537109,34.7960041 38.2473588,34.2696422 38.8937203,34.2696422 C39.5400819,34.2696422 40.0337167,34.7646406 40.0337166,35.415093 L40.0337166,37.6746312 L42.2823457,37.6746312 C42.8973437,37.6746312 43.4209784,38.1709932 43.4209784,38.8200821 C43.4209784,39.4705345 42.8973437,39.9655329 42.2823457,39.9655329 L38.8923567,39.9655329 L38.8937203,39.9641692 Z M23.1846802,25.9405782 L34.4891891,25.9405782 C34.7924824,25.9405782 35.0832746,25.8197268 35.2972229,25.6047549 C35.5111711,25.3897829 35.6306366,25.0984172 35.6291985,24.7951274 C35.6306366,24.4918376 35.5111711,24.2004718 35.2972229,23.9854999 C35.0832746,23.7705279 34.7924824,23.6496731 34.4891891,23.6496765 L23.1846802,23.6496765 C22.880033,23.6447839 22.5865206,23.764119 22.3717187,23.9802071 C22.1569169,24.1962951 22.0393363,24.4905148 22.0460475,24.7951274 C22.0460475,25.4442162 22.5696822,25.9405782 23.1846802,25.9405782 L23.1846802,25.9405782 Z M23.1846802,31.4196514 L28.2055731,31.4196514 C28.8219347,31.4196514 29.3142189,30.924653 29.3142189,30.2742006 C29.3156561,29.971147 29.1963774,29.6799885 28.9827244,29.465056 C28.7690713,29.2501236 28.47863,29.1291088 28.1755732,29.1287498 L23.1846802,29.1287498 C22.880033,29.1238572 22.5865206,29.2431923 22.3717187,29.4592803 C22.1569169,29.6753684 22.0393363,29.969588 22.0460475,30.2742006 C22.0460475,30.924653 22.5696822,31.4196514 23.1846802,31.4196514 L23.1846802,31.4196514 Z" id="形状" fill="#FFFFFF"></path>
            </g>
        </g>
    </g>
</svg>