<?xml version="1.0" encoding="UTF-8"?>
<svg width="15px" height="16px" viewBox="0 0 15 16" version="1.1" xmlns="http://www.w3.org/2000/svg" xmlns:xlink="http://www.w3.org/1999/xlink">
    <title>角色管理 (3)</title>
    <g id="页面-1" stroke="none" stroke-width="1" fill="none" fill-rule="evenodd">
        <g id="提交" transform="translate(-531.000000, -441.000000)" fill-rule="nonzero">
            <g id="Group-11" transform="translate(381.000000, 0.000000)">
                <g id="编组-4" transform="translate(40.000000, 240.000000)">
                    <g id="Group-12" transform="translate(0.000000, 193.000000)">
                        <g id="角色管理-(3)" transform="translate(110.000000, 8.000000)">
                            <path d="M8.03905857,10.0284729 C8.05774724,9.65698764 8.17989282,9.29712429 8.39275317,8.98642353 C8.78860466,8.49366279 9.07801749,7.92995348 9.24401814,7.32835607 C9.71516914,6.95590893 10.0145487,6.42018576 10.0772986,5.8372468 C10.131252,4.95064129 9.90344875,4.90458386 9.90344875,4.90458385 C10.2391589,3.93737783 10.3410709,0.298840907 7.90717246,0.719114954 C7.52350373,-0.0523469938 4.96970885,-0.65109357 3.77673892,1.39270487 C3.13484192,2.47171717 3.0081421,3.76401323 3.42903915,4.93912693 C3.42903915,5.01972742 3.26717891,4.85852643 3.2132255,5.3766725 C3.18735744,5.93113375 3.34473096,6.47924987 3.66283728,6.94262509 C3.77230869,7.07285303 3.91472575,7.17394494 4.07648011,7.23624121 C4.22828487,7.86928856 4.5298196,8.46027095 4.95771919,8.96339481 C5.03621002,9.38083815 4.82230943,9.79868357 4.43017472,9.99392979 C2.11617277,10.4487469 0,11.675026 0,13.0049342 L0,14.0354692 C0.269767067,15.8950379 5.52722744,15.7626228 9.07616307,15.6877795 C9.21627668,15.5954671 9.2603969,15.4160125 9.17807507,15.2732626 C8.95355118,14.96922 8.63774076,14.7382367 8.27285671,14.6111871 C8.27285671,14.5824012 8.16494989,14.5651296 8.15296023,14.5363438 C8.00822927,14.2505776 7.96002576,13.9285419 8.01507928,13.6151952 C8.01507928,13.6151952 8.02706892,10.0802875 8.03905857,10.0284729 Z" id="路径" fill="#A6C5F6"></path>
                            <path d="M14.0338823,9.03823813 L10.0832935,9.03823813 C9.57126595,9.02526788 9.1436438,9.41027145 9.12412166,9.90181493 L9.12412166,13.868511 C9.15468733,14.0586218 9.23745871,14.2374747 9.36391461,14.3866571 L11.6419476,15.8835236 C11.7637353,15.9673888 11.9120456,16.0080834 12.0615853,15.9986671 C12.2192726,16.0026492 12.3707122,15.939416 12.4752281,15.8259518 L14.6933129,14.3866571 C14.8670934,14.290884 14.9795633,14.1180658 14.9930541,13.9260828 L14.9930541,9.95938672 C15.0267577,9.70653765 14.9365979,9.45295682 14.7489072,9.27270656 C14.5612166,9.0924563 14.2971685,9.00587058 14.0338823,9.03823813 L14.0338823,9.03823813 Z M14.075846,11.3065665 L13.2305759,12.0895428 L13.4403947,13.1776496 C13.4566813,13.2502763 13.4259513,13.3251908 13.362462,13.3676365 C13.3286662,13.3941776 13.2862194,13.408445 13.2425655,13.4079367 C13.2108885,13.4138393 13.1783254,13.4138393 13.1466484,13.4079367 L12.0855646,12.9070622 L11.018486,13.4079367 C10.9887547,13.4131187 10.9582949,13.4131187 10.9285636,13.4079367 C10.8828655,13.4098398 10.8380418,13.3954909 10.8026723,13.3676365 C10.7416325,13.3233677 10.7115392,13.2500052 10.7247396,13.1776496 L10.9465481,12.0895428 L10.1012779,11.3353524 C10.0431927,11.2844519 10.0220117,11.2053468 10.0473245,11.1338512 C10.0732792,11.063168 10.1379394,11.0121597 10.2151796,11.0014361 L11.390165,10.7769061 L11.899725,9.78667135 C11.9359492,9.72029844 12.0075342,9.67871319 12.0855646,9.67871319 C12.163595,9.67871319 12.23518,9.72029844 12.2714041,9.78667135 L12.7929538,10.7999348 L13.9619444,10.9956789 C14.0369149,11.0083515 14.0988578,11.0590258 14.1238046,11.128094 C14.1398091,11.191543 14.1218224,11.2584785 14.075846,11.3065665 L14.075846,11.3065665 Z" id="形状" fill="#4E8CEE"></path>
                        </g>
                    </g>
                </g>
            </g>
        </g>
    </g>
</svg>