<?xml version="1.0" encoding="UTF-8" standalone="no"?>
<svg width="130px" height="130px" viewBox="0 0 130 130" version="1.1" xmlns="http://www.w3.org/2000/svg" xmlns:xlink="http://www.w3.org/1999/xlink">
    <!-- Generator: Sketch 46.2 (44496) - http://www.bohemiancoding.com/sketch -->
    <title>WAS</title>
    <desc>Created with Sketch.</desc>
    <defs>
        <radialGradient cx="50%" cy="50%" fx="50%" fy="50%" r="61.3084801%" id="radialGradient-1">
            <stop stop-color="#FFFFFF" offset="0%"></stop>
            <stop stop-color="#FFFFFF" offset="51.0207527%"></stop>
            <stop stop-color="#E3E3E3" offset="100%"></stop>
        </radialGradient>
        <path d="M103.631233,3.18943598 C93.3843368,1.39620978 78.9198315,0.367829229 63.9518178,0.367829229 C49.1156251,0.367829229 35.3946267,1.33425592 25.3179878,3.08481455 C9.43819082,5.84446743 5.65633074,9.65746722 2.84476763,25.7500042 C-0.882673416,47.0596074 -0.938941604,82.9222811 2.72285318,104.061346 C5.47246833,119.940942 9.28510432,123.721181 25.3858796,126.54041 C35.6582685,128.337863 50.1536817,129.367829 65.1524713,129.367829 C79.9541898,129.367829 93.6481108,128.407347 103.709296,126.66445 C119.591074,123.902816 123.374651,120.091533 126.182516,103.995033 C129.911278,82.6821274 129.961998,46.8113959 126.294524,25.6684999 C123.537248,9.78890446 119.726329,6.00694751 103.631233,3.18943598 Z" id="path-2"></path>
    </defs>
    <g id="Page-1" stroke="none" stroke-width="1" fill="none" fill-rule="evenodd">
        <g id="Artboard" transform="translate(-602.000000, -812.000000)">
            <g id="WAS" transform="translate(602.000000, 812.000000)">
                <g id="71533608714_.pic">
                    <mask id="mask-3" fill="white">
                        <use xlink:href="#path-2"></use>
                    </mask>
                    <use id="Mask" fill="url(#radialGradient-1)" fill-rule="nonzero" xlink:href="#path-2"></use>
                </g>
                <circle id="Oval" fill="#AE6EE8" cx="65" cy="65" r="49"></circle>
                <path d="M65,97.9264376 C46.8152307,97.9264376 32.0735624,83.1847693 32.0735624,65 C32.0735624,46.8152307 46.8152307,32.0735624 65,32.0735624 C83.1847693,32.0735624 97.9264376,46.8152307 97.9264376,65 C97.9264376,83.1847693 83.1847693,97.9264376 65,97.9264376 Z M65,93.8128588 C80.9129025,93.8128588 93.8128588,80.9129025 93.8128588,65 C93.8128588,49.0870975 80.9129025,36.1871412 65,36.1871412 C49.0870975,36.1871412 36.1871412,49.0870975 36.1871412,65 C36.1871412,80.9129025 49.0870975,93.8128588 65,93.8128588 Z" id="Combined-Shape" fill="#FFFFFF"></path>
                <path d="M65,76.0242391 C46.8152307,76.0242391 32.0735624,71.0134056 32.0735624,64.8322292 C32.0735624,58.6510528 46.8152307,53.6402193 65,53.6402193 C83.1847693,53.6402193 97.9264376,58.6510528 97.9264376,64.8322292 C97.9264376,71.0134056 83.1847693,76.0242391 65,76.0242391 Z M65,73.0688966 C80.9129025,73.0688966 93.8128588,69.381215 93.8128588,64.8322292 C93.8128588,60.2832434 80.9129025,56.5955618 65,56.5955618 C49.0870975,56.5955618 36.1871412,60.2832434 36.1871412,64.8322292 C36.1871412,69.381215 49.0870975,73.0688966 65,73.0688966 Z" id="Combined-Shape" fill="#FFFFFF"></path>
                <path d="M65,76.0242391 C46.8152307,76.0242391 32.0735624,71.0134056 32.0735624,64.8322292 C32.0735624,58.6510528 46.8152307,53.6402193 65,53.6402193 C83.1847693,53.6402193 97.9264376,58.6510528 97.9264376,64.8322292 C97.9264376,71.0134056 83.1847693,76.0242391 65,76.0242391 Z M65,73.0688966 C80.9129025,73.0688966 93.8128588,69.381215 93.8128588,64.8322292 C93.8128588,60.2832434 80.9129025,56.5955618 65,56.5955618 C49.0870975,56.5955618 36.1871412,60.2832434 36.1871412,64.8322292 C36.1871412,69.381215 49.0870975,73.0688966 65,73.0688966 Z" id="Combined-Shape" fill="#FFFFFF" transform="translate(65.000000, 64.832229) rotate(-270.000000) translate(-65.000000, -64.832229) "></path>
            </g>
        </g>
    </g>
</svg>
