<?xml version="1.0" encoding="UTF-8" standalone="no"?>
<svg width="129px" height="129px" viewBox="0 0 129 129" version="1.1" xmlns="http://www.w3.org/2000/svg" xmlns:xlink="http://www.w3.org/1999/xlink">
    <!-- Generator: Sketch 46.2 (44496) - http://www.bohemiancoding.com/sketch -->
    <title>Oracle Copy 2</title>
    <desc>Created with Sketch.</desc>
    <defs></defs>
    <g id="Page-1" stroke="none" stroke-width="1" fill="none" fill-rule="evenodd">
        <g id="Artboard" transform="translate(-436.000000, -2304.000000)">
            <g id="Oracle-Copy-2" transform="translate(436.000000, 2304.000000)">
                <path d="M103.618789,2.82160675 C93.3718926,1.02838055 78.9073874,0 63.9393737,0 C49.1031809,0 35.3821825,0.966426686 25.3055436,2.71698532 C9.42574665,5.4766382 5.64388657,9.28963799 2.83232346,25.382175 C-0.895117583,46.6917781 -0.951385771,82.5544519 2.71040901,103.693517 C5.46002416,119.573112 9.27266015,123.353352 25.3734354,126.172581 C35.6458243,127.970034 50.1412376,129 65.1400272,129 C79.9417457,129 93.6356666,128.039518 103.696852,126.296621 C119.57863,123.534987 123.362207,119.723704 126.170072,103.627204 C129.898834,82.3142982 129.949554,46.4435666 126.28208,25.3006707 C123.524804,9.42107524 119.713885,5.63911828 103.618789,2.82160675 Z" id="Shape" fill="#DF3930" fill-rule="nonzero"></path>
                <path d="M2.00003049,65.4821808 C1.97337288,79.1284184 2.84672924,92.7640195 4.62582686,102.870238 C7.29020618,118.011451 10.9846535,121.615914 26.5863178,124.304053 C36.540271,126.017926 50.5863382,127 65.1201775,127 C79.4630548,127 92.7324753,126.084179 102.481772,124.422325 C117.871228,121.789103 121.537517,118.15504 124.25834,102.807008 C126.05824,92.6836764 126.973717,79.1157601 126.999962,65.555133 C104.713524,65.555133 22.3484554,65.555133 2.00003049,65.4821808 Z" id="Shape" fill="#FEFEFE" fill-rule="nonzero"></path>
                <text id="WEBLOGIC" font-family="Helvetica-Bold, Helvetica" font-size="18" font-weight="bold" fill="#999999">
                    <tspan x="15" y="91">WEBLOGIC</tspan>
                </text>
                <g id="Oracle" transform="translate(5.000000, 38.000000)" fill-rule="nonzero" fill="#FFFFFF">
                    <path d="M50.0972662,9.82216461 L57.7662158,9.82216461 L53.7153381,3.29132895 L46.278446,15.0965743 L42.8896691,15.0993377 L51.9417554,0.92309503 C52.3396913,0.339004032 53.0032303,-0.00738198524 53.709813,0.000119394185 C54.4225612,0.000119394185 55.0763741,0.336333081 55.4622158,0.898224429 L64.5456115,15.0993377 L61.1540719,15.0965743 L59.563741,12.4575272 L51.7925755,12.4575272 L50.0981871,9.82216461 L50.0972662,9.82216461 Z M85.2806906,12.4602906 L85.2806906,0.147500732 L82.4048345,0.147500732 L82.4048345,13.6642119 C82.4048345,14.0381921 82.556777,14.3955918 82.8238273,14.6627205 C83.1056115,14.9418239 83.4776403,15.0956532 83.877295,15.0956532 L96.9821007,15.0956532 L98.6728057,12.4612118 L85.2806906,12.4612118 L85.2806906,12.4602906 Z M37.736518,10.2569396 C40.5007423,10.2196125 42.7219988,7.96750705 42.7219988,5.20222015 C42.7219988,2.43693325 40.5007423,0.184827757 37.736518,0.147500732 L25.1593669,0.147500732 L25.1593669,15.0965743 L28.0324604,15.0965743 L28.0324604,2.78194219 L37.5385324,2.78194219 C38.18026,2.78120727 38.795902,3.03594504 39.2495859,3.4899348 C39.7032698,3.94392456 39.9576985,4.55984404 39.9567194,5.20175958 C39.9574529,5.84368475 39.7029747,6.45955611 39.2493707,6.9136388 C38.7957666,7.36772149 38.1802697,7.62274307 37.5385324,7.62249811 L29.4395396,7.6197347 L38.0155396,15.0965743 L42.1907338,15.0965743 L36.4206043,10.2541762 L37.736518,10.2569396 L37.736518,10.2569396 Z M7.47234532,15.0965743 C3.34548295,15.0965743 5.05451994e-16,11.7501102 0,7.62203754 C-5.0540085e-16,3.49396485 3.34548295,0.147500732 7.47234532,0.147500732 L16.1588489,0.147500732 C20.285606,0.148009408 23.6307338,3.49453074 23.6307338,7.62249811 C23.6312223,9.60515026 22.8442532,11.5067788 21.4429765,12.9089847 C20.0416998,14.3111907 18.1409198,15.0990935 16.1588489,15.0993377 L7.47234532,15.0965743 Z M15.9654676,12.4621329 C17.2486325,12.4623774 18.479299,11.9525378 19.3865472,11.0448508 C20.2937955,10.1371637 20.8032513,8.90603923 20.8027626,7.62249811 C20.8032513,6.33895698 20.2937955,5.10783253 19.3865472,4.20014545 C18.479299,3.29245837 17.2486325,2.78261884 15.9654676,2.78286333 L7.66480576,2.78286333 C5.02952007,2.83429679 2.92006994,4.98593782 2.92006994,7.62249811 C2.92006994,10.2590584 5.02952007,12.4106994 7.66480576,12.4621329 L15.9654676,12.4621329 L15.9654676,12.4621329 Z M70.5413525,15.0965743 C67.8519741,15.1264388 65.3540115,13.7083678 64.0006298,11.3834646 C62.6472482,9.05856142 62.6472482,6.18551365 64.0006298,3.86061047 C65.3540115,1.53570728 67.8519741,0.117636235 70.5413525,0.147500732 L80.8642302,0.147500732 L79.1726043,2.78286333 L70.7356547,2.78286333 C68.9846257,2.7486881 67.3517873,3.66356985 66.4662615,5.17501061 C65.5807357,6.68645137 65.5807357,8.55854484 66.4662615,10.0699856 C67.3517873,11.5814264 68.9846257,12.4963081 70.7356547,12.4621329 L81.0962878,12.4621329 L79.4083453,15.0965743 L70.5404317,15.0965743 L70.5413525,15.0965743 Z M105.695309,12.4621329 C103.532977,12.4619518 101.633509,11.026026 101.043108,8.94524564 L113.327424,8.94524564 L115.01905,6.30988305 L101.039424,6.30896191 C101.626981,4.22322034 103.528978,2.78238083 105.695309,2.78194219 L114.127655,2.78286333 L115.822043,0.147500732 L105.499165,0.147500732 C101.40466,0.192968617 98.1093129,3.52607874 98.1093129,7.62203754 C98.1093129,11.7179963 101.40466,15.0511065 105.499165,15.0965743 L114.367079,15.0965743 L116.055022,12.4621329 L105.695309,12.4621329 L105.695309,12.4621329 Z M117.360806,1.73921921 C117.360806,1.0102121 117.95161,0.419235067 118.680403,0.419235067 C119.409196,0.419235067 120,1.0102121 120,1.73921921 C120,2.46822632 119.409196,3.05920334 118.680403,3.05920334 C117.95161,3.05920334 117.360806,2.46822632 117.360806,1.73921921 Z M118.522935,0.747158556 C118.781698,0.747158556 118.888518,0.749921958 119.015597,0.797820892 C119.347108,0.909278036 119.38118,1.21417318 119.38118,1.32563033 C119.379922,1.37778571 119.373131,1.42966004 119.360921,1.48038072 C119.32977,1.61531197 119.245413,1.73191731 119.127022,1.80369855 C119.107683,1.81843668 119.096633,1.82764802 119.042302,1.84791295 L119.479712,2.63087632 L119.057036,2.63087632 L118.673957,1.91055003 L118.418878,1.91055003 L118.418878,2.62995518 L118.050532,2.62995518 L118.050532,0.747158556 L118.522935,0.747158556 L118.522935,0.747158556 Z M118.654619,1.59828581 C118.767885,1.59644354 118.894043,1.58815333 118.967712,1.48038072 C118.997862,1.43219436 119.012636,1.37597044 119.010072,1.31918239 C119.011576,1.22183361 118.956156,1.1325586 118.868259,1.09074131 C118.78354,1.05758051 118.696978,1.05758051 118.522935,1.05758051 L118.418878,1.05758051 L118.418878,1.59828581 L118.654619,1.59828581 L118.654619,1.59828581 Z" id="Shape"></path>
                </g>
            </g>
        </g>
    </g>
</svg>
