<?xml version="1.0" standalone="no"?><!DOCTYPE svg PUBLIC "-//W3C//DTD SVG 1.1//EN" "http://www.w3.org/Graphics/SVG/1.1/DTD/svg11.dtd"><svg class="icon" width="128px" height="128.00px" viewBox="0 0 1024 1024" version="1.1" xmlns="http://www.w3.org/2000/svg"><path d="M909.312 0H162.24v74.88h709.632c22.4 0 37.44 14.976 37.44 37.376v778.496h74.88V74.88c0-44.928-30.016-74.88-74.88-74.88zM638.336 365.312l-269.44 269.44-119.808-119.744c-14.976-14.976-44.928-14.976-59.904 0-7.488 7.488-7.488 37.44 0 52.352l149.76 149.76c7.424 7.488 22.4 7.488 29.888 7.488 7.488 0 22.464 0 29.952-7.488l299.392-299.456a36.16 36.16 0 0 0 0-52.352c-14.976-14.976-44.864-14.976-59.84 0z m142.208 546.432c0 22.4-14.976 37.376-37.44 37.376H144.256c-22.4 0-37.376-14.976-37.376-37.376V238.016c0-22.4 14.976-37.376 37.376-37.376h598.848c22.464 0 37.44 14.912 37.44 37.376v673.728z m0-785.984H106.88c-44.928 0-74.88 29.952-74.88 74.88V949.12C32 994.048 61.952 1024 106.88 1024h673.664c44.928 0 74.88-37.44 74.88-74.88V200.64c0-44.928-29.952-74.88-74.88-74.88zM668.288 799.36H219.136c-22.4 0-37.44 14.976-37.44 37.44 0 22.4 14.976 37.44 37.44 37.44h449.152c22.4 0 37.376-14.976 37.376-37.44 0-22.4-14.976-37.44-37.376-37.44z" fill="#D6BA93" /></svg>