<?xml version="1.0" encoding="UTF-8" standalone="no"?>
<svg width="1024px" height="1024px" viewBox="0 0 1024 1024" version="1.1" xmlns="http://www.w3.org/2000/svg" xmlns:xlink="http://www.w3.org/1999/xlink">
    <!-- Generator: Sketch 46.2 (44496) - http://www.bohemiancoding.com/sketch -->
    <title>还原-直角</title>
    <desc>Created with Sketch.</desc>
    <defs></defs>
    <g id="Page-1" stroke="none" stroke-width="1" fill="none" fill-rule="evenodd">
        <g id="Artboard-1" transform="translate(-2201.000000, -11009.000000)" fill-rule="nonzero" fill="#8A8A8A">
            <g id="Group-32" transform="translate(167.000000, 11009.000000)">
                <g id="还原-直角" transform="translate(2034.000000, 0.000000)">
                    <polygon id="Shape" transform="translate(192.000000, 320.000000) scale(-1, -1) translate(-192.000000, -320.000000) " points="0 256 384 256 384 384 0 384"></polygon>
                    <polygon id="Shape" transform="translate(320.000000, 192.000000) scale(-1, -1) translate(-320.000000, -192.000000) " points="256 0 384 0 384 384 256 384"></polygon>
                    <polygon id="Shape" points="256 640 384 640 384 1024 256 1024"></polygon>
                    <polygon id="Shape" points="0 640 384 640 384 768 0 768"></polygon>
                    <polygon id="Shape" points="640 256 1024 256 1024 384 640 384"></polygon>
                    <polygon id="Shape" points="640 0 768 0 768 384 640 384"></polygon>
                    <polygon id="Shape" points="640 640 768 640 768 1024 640 1024"></polygon>
                    <polygon id="Shape" points="640 640 1024 640 1024 768 640 768"></polygon>
                </g>
            </g>
        </g>
    </g>
</svg>
