<?xml version="1.0" standalone="no"?><!DOCTYPE svg PUBLIC "-//W3C//DTD SVG 1.1//EN" "http://www.w3.org/Graphics/SVG/1.1/DTD/svg11.dtd"><svg t="1532413914142" class="icon" style="" viewBox="0 0 1024 1024" version="1.1" xmlns="http://www.w3.org/2000/svg" p-id="1657" xmlns:xlink="http://www.w3.org/1999/xlink" width="16" height="16"><defs><style type="text/css"></style></defs><path d="M0 0l384 0 0 128-384 0 0-128Z" p-id="1658" fill="#8a8a8a"></path><path d="M0 0l128 0 0 384-128 0 0-384Z" p-id="1659" fill="#8a8a8a"></path><path d="M0 640l128 0 0 384-128 0 0-384Z" p-id="1660" fill="#8a8a8a"></path><path d="M0 896l384 0 0 128-384 0 0-128Z" p-id="1661" fill="#8a8a8a"></path><path d="M640 0l384 0 0 128-384 0 0-128Z" p-id="1662" fill="#8a8a8a"></path><path d="M896 0l128 0 0 384-128 0 0-384Z" p-id="1663" fill="#8a8a8a"></path><path d="M896 640l128 0 0 384-128 0 0-384Z" p-id="1664" fill="#8a8a8a"></path><path d="M640 896l384 0 0 128-384 0 0-128Z" p-id="1665" fill="#8a8a8a"></path></svg>
