<svg width="59" height="59" xmlns="http://www.w3.org/2000/svg"><path d="M29.5 0A29.43 29.43 0 0 0 0 29.5 29.43 29.43 0 0 0 29.5 59 29.43 29.43 0 0 0 59 29.5 29.43 29.43 0 0 0 29.5 0zm4.917 15.856c0-.491.614-.614.86-.368l5.531 6.268c.123.123.123.369.123.615-.123.123-.246.246-.491.246h-3.934a2.035 2.035 0 0 1-1.475-.615c-.368-.369-.614-.983-.614-1.475v-4.67zM35.5 30c.875 0 1.5.75 1.5 1.5 0 .875-.75 1.5-1.5 1.5h-13c-.875 0-1.5-.75-1.5-1.5 0-.875.75-1.5 1.5-1.5h13zm0 6c.875 0 1.5.75 1.5 1.5 0 .875-.75 1.5-1.5 1.5h-13c-.875 0-1.5-.75-1.5-1.5 0-.875.75-1.5 1.5-1.5h13zm-13-10c-.875 0-1.5-.75-1.5-1.5 0-.875.625-1.5 1.5-1.5H29c.875 0 1.5.75 1.5 1.5 0 .875-.75 1.5-1.5 1.5h-6.5zm18.554 15.792c0 1.106-.86 1.966-1.967 1.966H19.912a1.942 1.942 0 0 1-1.966-1.966V17.7a2.466 2.466 0 0 1 2.458-2.458h10.448c.615 0 .983.491.983.983v5.9a3.043 3.043 0 0 0 3.073 3.073h5.163c.614 0 .983.492.983.983v15.61z" fill="#93D06B" fill-rule="nonzero"/></svg>