<?xml version="1.0" encoding="UTF-8"?>
<svg width="102px" height="99px" viewBox="0 0 102 99" version="1.1" xmlns="http://www.w3.org/2000/svg" xmlns:xlink="http://www.w3.org/1999/xlink">
    <!-- Generator: Sketch 53.2 (72643) - https://sketchapp.com -->
    <title>workgroup</title>
    <desc>Created with Sketch.</desc>
    <g id="Page-1" stroke="none" stroke-width="1">
        <g id="Artboard" transform="translate(-1520.000000, -659.000000)">
            <g id="workgroup" transform="translate(1520.000000, 659.000000)">
                <path d="M34.960396,45.6896112 L66.990099,45.6896112 C69.2178218,45.6896112 71,43.9228808 71,41.7144678 L71,39.751434 C71,32.6845124 67.2871287,26.4518802 61.6435644,22.9184194 C63.8217822,20.4155513 65.009901,17.2256214 65.009901,13.888464 C65.009901,6.18355641 58.7227723,0 51,0 C43.2772277,0 36.990099,6.23263225 36.990099,13.888464 C36.990099,17.1765456 38.1782178,20.3664755 40.3564356,22.9184194 C34.7623762,26.4518802 31,32.6354366 31,39.751434 L31,41.7144678 C31,43.9228808 32.7821782,45.6896112 34.960396,45.6896112 L34.960396,45.6896112 Z M64.0693069,76 C64.960396,76 65.8514851,75.5092416 66.3465347,74.6749522 C67.0891089,73.3989802 66.6435644,71.7794774 65.4059406,71.0433397 L53.6732673,64.1727215 L53.6732673,50.3824092 C53.6732673,48.9101338 52.4851485,47.7323136 51.049505,47.7323136 C49.6138614,47.7323136 48.4257426,48.9101338 48.4257426,50.3824092 L48.4257426,64.1236456 L36.6930693,71.0433397 C35.4554455,71.7794774 35.009901,73.3989802 35.7524752,74.6749522 C36.2475248,75.5092416 37.0891089,76 38.029703,76 C38.4752475,76 38.9207921,75.8527725 39.3168317,75.6564691 L51.049505,68.7858509 L62.7821782,75.6564691 C63.1287129,75.9018483 63.6237624,76 64.0693069,76 L64.0693069,76 Z" id="Shape"></path>
                <path d="M92.6390244,76.0741139 C94.8068293,73.5542427 95.9892683,70.3426423 95.9892683,66.9828142 C95.9892683,59.2255639 89.7321951,53 82.0463415,53 C74.3604878,53 68.1034146,59.2749731 68.1034146,66.9828142 C68.1034146,70.2932331 69.2858537,73.5048335 71.4536585,76.0741139 C65.8863415,79.6315789 62.1419512,85.8571429 62.1419512,93.0214823 L62.1419512,94.9978518 C62.1419512,97.2212675 63.9156098,99 66.1326829,99 L98.0092683,99 C100.226341,99 102,97.2212675 102,94.9978518 L102,93.0214823 C101.950732,85.8571429 98.2556098,79.6315789 92.6390244,76.0741139 Z M30.4970732,76.0741139 C32.664878,73.5542427 33.8473171,70.3426423 33.8473171,66.9828142 C33.8473171,59.2255639 27.5902439,53 19.9043902,53 C12.2185366,53 5.96146341,59.2749731 5.96146341,66.9828142 C5.96146341,70.2932331 7.14390244,73.5048335 9.31170732,76.0741139 C3.74439024,79.6315789 0,85.8571429 0,93.0214823 L0,94.9978518 C0,97.2212675 1.77365854,99 3.99073171,99 L35.8180488,99 C38.035122,99 39.8087805,97.2212675 39.8087805,94.9978518 L39.8087805,93.0214823 C39.8087805,85.8571429 36.0643902,79.6315789 30.4970732,76.0741139 L30.4970732,76.0741139 Z" id="Shape"></path>
            </g>
        </g>
    </g>
</svg>
