<!-- Generated by IcoMoon.io -->
<svg version="1.1" xmlns="http://www.w3.org/2000/svg" width="1024" height="1024" viewBox="0 0 1024 1024">
<title></title>
<g id="icomoon-ignore">
</g>
<path d="M628.924 671.965h-85.325v-64h65.325v-442.965h-433.124v442.965h62.666v64h-82.666c-24.262 0-44-19.738-44-44v-482.965c0-24.262 19.738-44 44-44h473.124c24.262 0 44 19.738 44 44v482.965c0 24.262-19.738 44-44 44zM870.924 925.965h-473.124c-24.262 0-44-19.738-44-44v-482.965c0-24.262 19.738-44 44-44h82.666v64h-62.666v442.965h433.124v-442.965h-65.325v-64h85.325c24.262 0 44 19.738 44 44v482.965c0 24.262-19.738 44-44 44z"></path>
</svg>
