<svg class="icon" viewBox="0 0 1024 1024" xmlns="http://www.w3.org/2000/svg" width="64" height="64"><defs><style/></defs><path d="M605.09 186.182a46.545 46.545 0 0 1 46.546 46.545V375.25a369.897 369.897 0 0 0-93.09 24.204v-120.18h-418.91v605.09l213.272.047a372.084 372.084 0 0 0 54.597 93.091l-314.414-.046a46.545 46.545 0 0 1-46.546-46.546V232.727a46.545 46.545 0 0 1 46.546-46.545h512zM837.819 0a46.545 46.545 0 0 1 46.546 46.545l.046 375.622a370.036 370.036 0 0 0-93.09-38.074l-.047-291.002h-512V46.545A46.545 46.545 0 0 1 325.818 0h512z" fill="#005BAD"/><path d="M698.182 465.455a279.273 279.273 0 1 1 0 558.545 279.273 279.273 0 0 1 0-558.545zm0 93.09a186.182 186.182 0 1 0 0 372.364 186.182 186.182 0 0 0 0-372.364zM768 698.182a46.545 46.545 0 0 1 0 93.09H628.364a46.545 46.545 0 0 1 0-93.09H768z" fill="#FC565A"/></svg>