<?xml version="1.0" encoding="UTF-8"?>
<svg width="105px" height="116px" viewBox="0 0 105 116" version="1.1" xmlns="http://www.w3.org/2000/svg" xmlns:xlink="http://www.w3.org/1999/xlink">
  <!-- Generator: Sketch 53.2 (72643) - https://sketchapp.com -->
  <title>application</title>
  <desc>Created with Sketch.</desc>
  <g id="Page-1" stroke="none" fill="#67C23A" stroke-width="1">
    <g id="Artboard" transform="translate(-1153.000000, -276.000000)">
      <g id="application" transform="translate(1153.000000, 276.000000)">
        <path d="M101.922414,24.10625 L55.0344828,0.54375 C53.4051724,-0.18125 51.5948276,-0.18125 49.9655172,0.54375 L3.07758621,24.10625 C1.26724138,25.0125 0,27.00625 0,29.18125 L0,86.81875 C0,88.99375 1.26724138,90.9875 3.07758621,91.89375 L49.9655172,115.45625 C50.6896552,115.81875 51.5948276,116 52.5,116 C53.4051724,116 54.1293103,115.81875 55.0344828,115.45625 L101.922414,91.89375 C103.732759,90.9875 105,88.99375 105,86.81875 L105,29.18125 C105,27.00625 103.732759,25.19375 101.922414,24.10625 Z M95,83.9055118 L52.5,105 L10,83.9055118 L10,32.0944882 L52.5,11 L95,32.0944882 L95,83.9055118 Z" id="Shape"></path>
        <path d="M26.6656057,36.5813816 C24.1415423,35.2731238 20.9443954,36.2543171 19.5982283,38.7073006 C18.2520611,41.160284 19.2616865,44.2673963 21.7857498,45.5756541 L47.8677378,59.148829 L47.8677378,87.930501 C47.8677378,90.7105488 50.2235303,93 53.0841354,93 C55.9447406,93 58.300533,90.7105488 58.300533,87.930501 L58.300533,59.148829 L84.2142502,45.5756541 C86.7383135,44.2673963 87.7479389,41.160284 86.4017717,38.7073006 C85.0556046,36.2543171 81.8584577,35.2731238 79.3343943,36.5813816 L53.0841354,50.3180887 L26.6656057,36.5813816 Z" id="Path"></path>
      </g>
    </g>
  </g>
</svg>
