<?xml version="1.0" encoding="UTF-8"?>
<svg width="179px" height="40px" viewBox="0 0 179 40" version="1.1" xmlns="http://www.w3.org/2000/svg" xmlns:xlink="http://www.w3.org/1999/xlink">
    <!-- Generator: Sketch 53.2 (72643) - https://sketchapp.com -->
    <title>Group 7 Copy</title>
    <desc>Created with Sketch.</desc>
    <defs>
        <linearGradient x1="15.96875%" y1="0%" x2="84.03125%" y2="100%" id="linearGradient-1">
            <stop stop-color="#72B2B1" offset="0%"></stop>
            <stop stop-color="#0B587A" offset="100%"></stop>
        </linearGradient>
        <linearGradient x1="50%" y1="0%" x2="50%" y2="100%" id="linearGradient-2">
            <stop stop-color="#C4CDC2" offset="0%"></stop>
            <stop stop-color="#7EA4A3" offset="100%"></stop>
        </linearGradient>
        <linearGradient x1="0%" y1="48.3435569%" x2="100%" y2="51.6564431%" id="linearGradient-3">
            <stop stop-color="#E7FCFB" offset="0%"></stop>
            <stop stop-color="#C8DECD" offset="100%"></stop>
        </linearGradient>
    </defs>
    <g id="darshboard" stroke="none" stroke-width="1" fill="none" fill-rule="evenodd">
        <g id="Artboard-2" transform="translate(-992.000000, -796.000000)">
            <g id="Group-7-Copy" transform="translate(1081.500000, 816.000000) rotate(-360.000000) translate(-1081.500000, -816.000000) translate(992.000000, 796.000000)">
                <path d="M27,10.8571429 L27.0199926,4.80406825e-11 L33,3.08131705 L33,13.9384599 L27,10.8571429 Z M-6.89404089e-12,3.09981854 L6,2.1509905e-11 L6.0199926,10.1811356 L0.019992598,13.3855328 L-6.89404089e-12,3.09981854 Z M7.2,22.2857143 L33,36.5726666 L27,39.9897433 L7.2,29.1428571 L7.2,22.2857143 Z M9.00363917,31.6123992 L15.0036392,34.6937162 L6,40 L0.0199925981,36.5714286 L9.00363917,31.6123992 Z M27,21.7142857 L33,24.7819422 L23.442855,30.0617609 L17.6503278,26.8593457 L27,21.7142857 Z" id="Combined-Shape" fill="url(#linearGradient-1)"></path>
                <path d="M27,39.9897433 L27.0199926,18.2754576 L33,15.0710604 L33,36.5714286 L27,39.9897433 Z M8.61888338e-12,14.8571429 L6,17.9384599 L6,40 L0.0199925981,36.5714286 L8.61888338e-12,14.8571429 Z" id="Combined-Shape" fill="url(#linearGradient-2)"></path>
                <path d="M6.83644252e-11,14.8571429 L27,8.04689648e-12 L33,3.08131705 L6,17.9384599 L6.83644252e-11,14.8571429 Z M17.4,13.1326005 L23.4,9.92820323 L33,15.0710604 L27.0199926,18.2754576 L17.4,13.1326005 Z M1.73239201e-11,3.09981854 L6,3.9306336e-12 L15,5.14285714 L9.0199926,8.24267569 L1.73239201e-11,3.09981854 Z" id="Combined-Shape" fill="#E7FCFB"></path>
                <path d="M50.6499033,22.368 L51.6099033,19.2 C52.3779033,16.64 53.1139033,14.048 53.7859033,11.36 L53.9139033,11.36 C54.6499033,14.016 55.3539033,16.64 56.1539033,19.2 L57.0819033,22.368 Z M59.9619033,32 L63.8979033,32 L56.0899033,8.448 L51.8019033,8.448 L43.9939033,32 L47.7699033,32 L49.7859033,25.28 L57.9779033,25.28 Z M66.2019033,32 L69.9139033,32 L69.9139033,21.856 L78.6179033,21.856 L78.6179033,18.752 L69.9139033,18.752 L69.9139033,11.552 L80.1539033,11.552 L80.1539033,8.448 L66.2019033,8.448 Z M92.3459033,32.416 C95.3859033,32.416 97.7859033,31.2 99.6739033,29.024 L97.6899033,26.688 C96.2819033,28.224 94.6179033,29.184 92.4739033,29.184 C88.3139033,29.184 85.6899033,25.76 85.6899033,20.16 C85.6899033,14.624 88.5059033,11.232 92.5699033,11.232 C94.4899033,11.232 95.9619033,12.096 97.1779033,13.344 L99.1939033,10.976 C97.7539033,9.408 95.4499033,8 92.5059033,8 C86.5539033,8 81.8819033,12.608 81.8819033,20.288 C81.8819033,28 86.4259033,32.416 92.3459033,32.416 Z M110.041903,32.416 C112.345903,32.416 114.361903,31.648 115.993903,30.56 L114.713903,28.224 C113.433903,29.056 112.089903,29.536 110.521903,29.536 C107.481903,29.536 105.369903,27.52 105.081903,24.16 L116.505903,24.16 C116.601903,23.744 116.665903,23.008 116.665903,22.304 C116.665903,17.312 114.169903,13.952 109.497903,13.952 C105.369903,13.952 101.465903,17.504 101.465903,23.232 C101.465903,29.024 105.273903,32.416 110.041903,32.416 Z M105.049903,21.632 C105.401903,18.528 107.353903,16.832 109.561903,16.832 C112.121903,16.832 113.497903,18.592 113.497903,21.632 Z M119.993903,32 L123.641903,32 L123.641903,19.52 C125.209903,17.952 126.329903,17.12 127.961903,17.12 C130.041903,17.12 130.937903,18.336 130.937903,21.376 L130.937903,32 L134.617903,32 L134.617903,20.928 C134.617903,16.448 132.953903,13.952 129.209903,13.952 C126.809903,13.952 125.017903,15.264 123.385903,16.832 L123.289903,16.832 L123.001903,14.4 L119.993903,14.4 Z M145.081903,32.416 C146.361903,32.416 147.545903,32.096 148.537903,31.776 L147.865903,29.056 C147.353903,29.28 146.585903,29.472 145.977903,29.472 C144.153903,29.472 143.417903,28.384 143.417903,26.272 L143.417903,17.344 L147.993903,17.344 L147.993903,14.4 L143.417903,14.4 L143.417903,9.536 L140.313903,9.536 L139.897903,14.4 L137.177903,14.592 L137.177903,17.344 L139.737903,17.344 L139.737903,26.24 C139.737903,29.952 141.113903,32.416 145.081903,32.416 Z M157.817903,32.416 C160.121903,32.416 162.137903,31.648 163.769903,30.56 L162.489903,28.224 C161.209903,29.056 159.865903,29.536 158.297903,29.536 C155.257903,29.536 153.145903,27.52 152.857903,24.16 L164.281903,24.16 C164.377903,23.744 164.441903,23.008 164.441903,22.304 C164.441903,17.312 161.945903,13.952 157.273903,13.952 C153.145903,13.952 149.241903,17.504 149.241903,23.232 C149.241903,29.024 153.049903,32.416 157.817903,32.416 Z M152.825903,21.632 C153.177903,18.528 155.129903,16.832 157.337903,16.832 C159.897903,16.832 161.273903,18.592 161.273903,21.632 Z M167.769903,32 L171.417903,32 L171.417903,21.024 C172.537903,18.24 174.265903,17.248 175.705903,17.248 C176.409903,17.248 176.857903,17.344 177.465903,17.536 L178.137903,14.336 C177.593903,14.08 177.017903,13.952 176.153903,13.952 C174.265903,13.952 172.409903,15.296 171.161903,17.568 L171.065903,17.568 L170.777903,14.4 L167.769903,14.4 Z" id="Combined-Shape" fill="url(#linearGradient-3)"></path>
            </g>
        </g>
    </g>
</svg>