<?xml version="1.0" encoding="UTF-8"?>
<svg width="110px" height="39px" viewBox="0 0 110 39" version="1.1" xmlns="http://www.w3.org/2000/svg" xmlns:xlink="http://www.w3.org/1999/xlink">
    <title>编组 7</title>
    <defs>
        <filter x="-0.5%" y="-16.0%" width="101.0%" height="132.0%" filterUnits="objectBoundingBox" id="filter-1">
            <feOffset dx="0" dy="0" in="SourceAlpha" result="shadowOffsetOuter1"></feOffset>
            <feGaussianBlur stdDeviation="2" in="shadowOffsetOuter1" result="shadowBlurOuter1"></feGaussianBlur>
            <feColorMatrix values="0 0 0 0 0   0 0 0 0 0   0 0 0 0 0  0 0 0 0.100988855 0" type="matrix" in="shadowBlurOuter1" result="shadowMatrixOuter1"></feColorMatrix>
            <feMerge>
                <feMergeNode in="shadowMatrixOuter1"></feMergeNode>
                <feMergeNode in="SourceGraphic"></feMergeNode>
            </feMerge>
        </filter>
    </defs>
    <g id="页面-1" stroke="none" stroke-width="1" fill="none" fill-rule="evenodd">
        <g id="Top" transform="translate(-12.000000, -5.000000)" filter="url(#filter-1)">
            <g id="编组-7" transform="translate(18.009375, 11.000000)">
                <path d="M12.009375,0 L12.2964884,0.00613105536 C13.814914,0.0715289792 15.1278033,0.660110294 16.2351563,1.771875 C17.3425092,2.88363971 17.9287549,4.19471237 17.9938933,5.70509299 L18,5.990625 L18,27 L12.009375,27 L12.009375,14.990625 L5.990625,14.990625 L5.990625,27 L0,27 L0,5.990625 L0.00610672578,5.70351157 C0.0712451341,4.18508596 0.657490809,2.87219669 1.76484375,1.76484375 C2.87219669,0.657490809 4.18508596,0.0712451341 5.70351157,0.00610672578 L5.990625,0 L12.009375,0 Z M38.98125,0 L38.98125,3.009375 L29.98125,3.009375 L29.98125,12.009375 L36,12.009375 L36,14.990625 L29.98125,14.990625 L29.98125,27 L23.990625,27 L23.990625,0 L38.98125,0 Z M54.009375,0 L54.2694362,0.00323992699 C57.7822249,0.0917452496 59.6860471,1.99353035 59.9809026,5.70859523 L60,5.990625 L56.990625,5.990625 L56.9602117,5.76570821 C56.6899455,4.00165496 55.7726378,3.08434726 54.2082886,3.01378513 L54.009375,3.009375 L51,3.009375 L50.7779055,3.01663869 C50.0472753,3.06506327 49.4134943,3.3556108 48.8765625,3.88828125 C48.3396307,4.4209517 48.0467588,5.04853435 47.9979468,5.77102918 L47.990625,5.990625 L47.990625,21.009375 L47.9978887,21.2265883 C48.0463133,21.9417226 48.3368608,22.5677557 48.8695313,23.1046875 C49.4022017,23.6416193 50.0375323,23.9344912 50.775523,23.9833032 L51,23.990625 L54.009375,23.990625 L54.2093288,23.9862149 C55.7816661,23.9156527 56.6989737,22.998345 56.9612518,21.2342918 L56.990625,21.009375 L60,21.009375 L59.9783004,21.2912468 C59.6498493,25.0019364 57.7502348,26.9036648 54.2794569,26.996432 L54.009375,27 L47.990625,27 L47.7035116,26.9938933 C46.185086,26.9287549 44.8721967,26.3425092 43.7648437,25.2351563 C42.6574908,24.1278033 42.0712451,22.814914 42.0061067,21.2964884 L42,21.009375 L42,5.990625 L42.0067841,5.69075317 C42.0746246,4.20375366 42.6512695,2.90214844 43.7367188,1.7859375 C44.8264246,0.665349265 46.1465803,0.0720966696 47.6971859,0.00617971453 L47.990625,0 L54.009375,0 Z M9,3.009375 C8.175,3.009375 7.4671875,3.30234375 6.8765625,3.88828125 C6.33963068,4.4209517 6.04675878,5.04853435 5.9979468,5.77102918 L5.990625,5.990625 L5.990625,12.009375 L12.009375,12.009375 L12.009375,5.990625 L12.0019951,5.77102918 C11.9527957,5.04853435 11.6575994,4.4209517 11.1164062,3.88828125 C10.5210937,3.30234375 9.815625,3.009375 9,3.009375 Z" id="形状" fill="#FF7A1D"></path>
                <path d="M66.996875,19.996875 L67.1763021,20.0041956 C67.6471354,20.0432388 68.0568576,20.2384549 68.4054687,20.5898438 C68.7540799,20.9412326 68.9477527,21.3524981 68.9864873,21.82364 L68.99375,22.003125 L68.99375,24 L64.990625,24 L64.990625,25.003125 L64.998763,25.1345052 C65.0258898,25.3484809 65.1208333,25.5375 65.2835937,25.7015625 C65.4463542,25.865625 65.6378689,25.9613281 65.858138,25.9886719 L65.99375,25.996875 L66.996875,25.996875 L67.1337691,25.9918048 C67.6610651,25.9512436 67.9449936,25.6673151 67.9855548,25.1400191 L67.990625,25.003125 L68.99375,25.003125 L68.9664922,25.1978203 C68.780599,26.332526 68.1846549,26.9313985 67.1786601,26.9944377 L66.996875,27 L64.990625,27 L64.8111979,26.9927373 C64.3403646,26.9540027 63.9306424,26.7603299 63.5820312,26.4117188 C63.2334201,26.0631076 63.0397473,25.6533854 63.0010127,25.1825521 L62.99375,25.003125 L62.99375,22.003125 L63.0010417,21.8217303 C63.0399306,21.3459587 63.234375,20.9337674 63.584375,20.5851563 C63.934375,20.2365451 64.3436343,20.0428723 64.8121528,20.0041377 L64.990625,19.996875 L66.996875,19.996875 Z M72.9875,19.996875 L72.9875,21 L73.0130859,20.8384115 C73.0645182,20.581033 73.1598958,20.3833333 73.2992187,20.2453125 C73.4385417,20.1072917 73.6218099,20.0267795 73.8490234,20.003776 L73.990625,19.996875 L74.99375,19.996875 L75.1731771,20.0041956 C75.6440104,20.0432388 76.0537326,20.2384549 76.4023437,20.5898438 C76.7509549,20.9412326 76.9446277,21.3524981 76.9833623,21.82364 L76.990625,22.003125 L76.990625,27 L74.99375,27 L74.99375,22.003125 L74.9854818,21.8688802 C74.957921,21.6505642 74.8614583,21.459375 74.6960937,21.2953125 C74.4976562,21.0984375 74.2625,21 73.990625,21 C73.715625,21 73.4796875,21.0984375 73.2828125,21.2953125 C73.11875,21.459375 73.0230469,21.6505642 72.9957031,21.8688802 L72.9875,22.003125 L72.9875,27 L70.990625,27 L70.990625,19.996875 L72.9875,19.996875 Z M81.9875,18 L81.9875,19.996875 L82.990625,19.996875 L82.990625,21 L81.9875,21 L81.9875,25.003125 L81.9940051,25.1364318 C82.0200255,25.3937659 82.1241071,25.5954241 82.30625,25.7414062 C82.47625,25.8776563 82.63625,25.9594063 82.78625,25.9866563 L82.896875,25.996875 L82.990625,25.996875 L82.990625,27 L81.9875,27 L81.8071181,26.9927373 C81.3339699,26.9540027 80.9237847,26.7603299 80.5765625,26.4117187 C80.2293403,26.0631076 80.036439,25.6533854 79.9978588,25.1825521 L79.990625,25.003125 L79.990625,21 L78.9875,21 L78.9875,19.996875 L79.990625,19.996875 L79.990625,18 L81.9875,18 Z M88.990625,19.996875 L89.1700521,20.0041956 C89.6408854,20.0432388 90.0506076,20.2384549 90.3992187,20.5898438 C90.7478299,20.9412326 90.9415027,21.3524981 90.9802373,21.82364 L90.9875,22.003125 L90.9875,24 L86.984375,24 L86.984375,25.003125 L86.992513,25.1345052 C87.0196398,25.3484809 87.1145833,25.5375 87.2773437,25.7015625 C87.4401042,25.865625 87.6316189,25.9613281 87.851888,25.9886719 L87.9875,25.996875 L88.990625,25.996875 L89.1275191,25.9918048 C89.6548151,25.9512436 89.9387436,25.6673151 89.9793048,25.1400191 L89.984375,25.003125 L90.9875,25.003125 L90.9602422,25.1978203 C90.774349,26.332526 90.1784049,26.9313985 89.1724101,26.9944377 L88.990625,27 L86.984375,27 L86.8049479,26.9927373 C86.3341146,26.9540027 85.9243924,26.7603299 85.5757812,26.4117188 C85.2271701,26.0631076 85.0334973,25.6533854 84.9947627,25.1825521 L84.9875,25.003125 L84.9875,22.003125 L84.9947917,21.8217303 C85.0336806,21.3459587 85.228125,20.9337674 85.578125,20.5851563 C85.928125,20.2365451 86.3373843,20.0428723 86.8059028,20.0041377 L86.984375,19.996875 L88.990625,19.996875 Z M94.98125,19.996875 L94.98125,22.003125 L95.012037,21.7864005 C95.1067901,21.2249807 95.3027778,20.7956597 95.6,20.4984375 C95.8972222,20.2012153 96.295679,20.0360918 96.7953704,20.0030671 L96.9875,19.996875 L97.98125,19.996875 L97.98125,22.003125 L95.984375,22.003125 L95.8501302,22.011263 C95.6318142,22.0383898 95.440625,22.1333333 95.2765625,22.2960938 C95.1125,22.4588542 95.0167969,22.6481988 94.9894531,22.8641276 L94.98125,22.996875 L94.98125,27 L92.984375,27 L92.984375,19.996875 L94.98125,19.996875 Z M65.99375,21 C65.71875,21 65.4828125,21.0984375 65.2859375,21.2953125 C65.121875,21.459375 65.0261719,21.6505642 64.9988281,21.8688802 L64.990625,22.003125 L64.990625,22.996875 L66.996875,22.996875 L66.996875,22.003125 L66.9886068,21.8688802 C66.961046,21.6505642 66.8645833,21.459375 66.6992187,21.2953125 C66.5007812,21.0984375 66.265625,21 65.99375,21 Z M87.9875,21 C87.7125,21 87.4765625,21.0984375 87.2796875,21.2953125 C87.115625,21.459375 87.0199219,21.6505642 86.9925781,21.8688802 L86.984375,22.003125 L86.984375,22.996875 L88.990625,22.996875 L88.990625,22.003125 L88.9823568,21.8688802 C88.954796,21.6505642 88.8583333,21.459375 88.6929687,21.2953125 C88.4945312,21.0984375 88.259375,21 87.9875,21 Z" id="形状" fill="#FFA200"></path>
            </g>
        </g>
    </g>
</svg>