<?xml version="1.0" encoding="UTF-8"?>
<svg width="135px" height="40px" viewBox="0 0 135 40" version="1.1" xmlns="http://www.w3.org/2000/svg" xmlns:xlink="http://www.w3.org/1999/xlink">
    <title>BPS</title>
    <g id="darshboard" stroke="none" stroke-width="1" fill="none" fill-rule="evenodd">
        <g id="Artboard-2" transform="translate(-1681.000000, -153.000000)">
            <g id="BPS" transform="translate(1681.600000, 153.560000)">
                <path d="M70.368,0 C73.726,0 76.3345833,0.749416667 78.0670104,1.57230556 L78.288,1.68 L76.8,7.488 L76.4402623,7.30800888 C75.105845,6.66428733 72.9850435,5.904 70.224,5.904 C66.48,5.904 64.8,7.92 64.8,9.984 C64.8,12.03 65.89554,13.2111 68.4887985,14.599776 L69.0095295,14.871432 L69.0095295,14.871432 L69.5683125,15.15 L69.5683125,15.15 L70.1657955,15.437208 L70.1657955,15.437208 L71.136,15.888 L71.136,15.888 C77.04,18.528 79.68,21.936 79.68,26.784 C79.68,33.216 74.832,37.92 66.24,37.92 C62.7177931,37.92 59.1508395,36.9803187 57.3536962,35.9650308 L57.168,35.856 L58.56,29.904 C60.48,31.056 63.552,31.968 66.528,31.968 C70.464,31.968 72.528,30.096 72.528,27.36 C72.528,24.7933333 70.8492963,23.2248148 67.006678,21.5075823 L66.672,21.36 C61.104,18.96 57.648,15.504 57.648,10.704 C57.648,4.656 62.4,0 70.368,0 Z M9.36,0.24 C13.824,0.24 16.992,0.816 19.536,2.592 C21.744,4.08 23.136,6.528 23.136,9.552 C23.136,12.8211892 21.2729408,15.863176 17.5468225,17.3958025 L17.232,17.52 L17.232,17.712 C21.36,18.768 24.432,22.032 24.432,26.736 C24.432,29.616 23.232,32.4 21.072,34.32 C18.576,36.576 14.448,37.776 7.872,37.776 L7.37731131,37.7743933 L7.37731131,37.7743933 L6.42332362,37.7620058 L6.42332362,37.7620058 L5.51672951,37.7384231 L5.51672951,37.7384231 L4.65777778,37.7048889 L4.65777778,37.7048889 L3.8467172,37.6626472 L3.8467172,37.6626472 L3.08379657,37.612942 L3.08379657,37.612942 L2.36926466,37.5570172 L2.36926466,37.5570172 L1.70337026,37.4961166 L1.70337026,37.4961166 L1.08636216,37.4314843 L1.08636216,37.4314843 L0.518489148,37.3643641 L0.518489148,37.3643641 L0,37.296 L0,1.008 C0.550956522,0.895304348 1.20644234,0.789141777 1.93833681,0.693772993 L2.69465932,0.602159941 C3.08451385,0.558310183 3.49112715,0.517513931 3.91098414,0.480303772 L4.76731487,0.410822717 C6.22049149,0.303516068 7.79478261,0.24 9.36,0.24 Z M39.552,0.24 C44.208,0.24 47.712,1.152 50.064,3.168 C52.272,5.04 53.616,8.016 53.616,11.424 C53.616,17.6937143 50.3785578,20.9467211 46.6024179,22.515312 L46.1644723,22.6889038 C45.651105,22.8828834 45.1298567,23.0472677 44.6073107,23.1853069 L44.15925,23.29725 C44.0098929,23.3324643 43.8605833,23.3656037 43.711475,23.3967442 L43.2649069,23.4842442 L43.2649069,23.4842442 L42.8204672,23.5602048 L42.8204672,23.5602048 L42.379077,23.6250809 L42.379077,23.6250809 L41.9416577,23.6793273 L41.9416577,23.6793273 L41.5091305,23.7233987 L41.5091305,23.7233987 L41.0824167,23.75775 C41.0118333,23.7626905 40.9415306,23.7672449 40.8715277,23.7714227 L40.4552614,23.7920466 L40.4552614,23.7920466 L40.0471118,23.8040875 L40.0471118,23.8040875 L39.648,23.808 L39.648,23.808 C38.766,23.808 37.99425,23.77125 37.33275,23.6655937 L37.056,23.616 L37.056,37.44 L30,37.44 L30,1.008 C30.2094545,0.968727273 30.4260496,0.930247934 30.6498212,0.892742299 L31.3427017,0.783326822 L31.3427017,0.783326822 L32.078858,0.680835462 C32.5841022,0.615056349 33.1183411,0.554614576 33.6818633,0.500952667 L34.549145,0.425725019 L34.549145,0.425725019 L35.460568,0.361749061 C36.7053223,0.284429752 38.0683636,0.24 39.552,0.24 Z M9.91931593,20.7379294 L7.056,20.736 L7.056,32.256 C7.57963636,32.3607273 8.17943802,32.4146777 8.94772652,32.4363156 L9.55697671,32.4467739 C9.66426446,32.4476033 9.77454545,32.448 9.888,32.448 C13.728,32.448 16.992,30.72 16.992,26.544 C16.992,22.3591837 13.4913786,20.7998334 9.91931593,20.7379294 L9.91931593,20.7379294 Z M40.128,5.76 C39.3051429,5.76 38.6233469,5.80702041 38.073656,5.87419242 L37.6860175,5.92793003 C37.5649679,5.94682216 37.452035,5.96655394 37.3470787,5.98670554 L37.056,6.048 L37.056,18.048 C37.728,18.192 38.496,18.24 39.552,18.24 C43.968,18.24 46.56,15.744 46.56,11.76 C46.56,7.824 44.064,5.76 40.128,5.76 Z M10.3913035,5.52187415 L9.87640889,5.52126578 L9.87640889,5.52126578 L9.3216,5.531136 C9.23392,5.533568 9.14858667,5.536384 9.06552889,5.53956978 L8.59392,5.563008 C8.44544,5.572224 8.30549333,5.58280533 8.17351111,5.59463822 L7.80088889,5.63377778 C7.68426667,5.648 7.57504,5.66336 7.47264,5.679744 L7.18535111,5.73185422 L7.18535111,5.73185422 L7.056,5.76 L7.056,15.552 L9.648,15.552 C13.68,15.552 16.08,13.392 16.08,10.368 C16.08,6.80290909 13.4669504,5.57580992 10.3913035,5.52187415 L10.3913035,5.52187415 Z" id="形状" fill="#FF7A1D"></path>
                <path d="M89.792,29.612 C91.256,29.612 92.336,30.98 92.336,33.032 C92.336,35.492 90.944,36.572 89.588,36.572 C88.917,36.572 88.3871667,36.2896667 88.0816875,35.9006181 L88.004,35.792 L87.98,35.792 L87.98,39.116 L86.204,39.116 L86.2026006,31.5790904 L86.2026006,31.5790904 L86.1926647,30.910379 L86.1926647,30.910379 L86.1760117,30.305481 L86.1760117,30.305481 L86.156,29.756 L87.704,29.756 L87.788,30.668 L87.812,30.668 C88.244,29.984 88.928,29.612 89.792,29.612 Z M99.308,29.624 C101.312414,29.624 101.907306,30.8545351 101.945949,32.2571136 L101.948,32.408 L101.948,34.856 C101.948,35.36 101.965633,35.864 102.016012,36.2546472 L102.044,36.44 L100.448,36.44 L100.34,35.744 L100.304,35.744 C99.92,36.272 99.272,36.572 98.528,36.572 C97.292,36.572 96.524,35.648 96.524,34.568 C96.524,32.852 98.048,32.048 100.172,32.048 C100.172,31.388 99.944,30.884 98.972,30.884 C98.4365,30.884 97.9101875,31.031 97.4975703,31.2446094 L97.328,31.34 L96.992,30.188 C97.436,29.924 98.264,29.624 99.308,29.624 Z M115.184,29.612 C117.056,29.612 118.232,31.016 118.232,33.044 C118.232,35.588 116.6,36.572 115.112,36.572 C113.312,36.572 112.016,35.3 112.016,33.128 C112.016,30.884 113.372,29.612 115.184,29.612 Z M105.572,28.016 L105.572,29.756 L107.048,29.756 L107.048,31.064 L105.572,31.064 L105.572,33.968 C105.572,34.772 105.824,35.108 106.364,35.108 C106.5656,35.108 106.69808,35.09264 106.835168,35.068064 L106.94,35.048 L106.964,36.404 C106.724,36.5 106.292,36.56 105.776,36.56 C104.451862,36.56 104.0238,35.7666587 103.88564,35.0301956 L103.852282,34.8118132 C103.84797,34.7759839 103.844231,34.7405094 103.84099,34.7054959 L103.826904,34.5017975 L103.826904,34.5017975 L103.82,34.148 L103.82,31.064 L102.944,31.064 L102.944,29.756 L103.82,29.756 L103.82,28.532 L105.572,28.016 Z M95.36,26.792 L95.36,36.44 L93.584,36.44 L93.584,26.792 L95.36,26.792 Z M110.864,26.66 C111.234,26.66 111.537333,26.71 111.780944,26.7752778 L111.92,26.816 L111.788,28.184 C111.62,28.124 111.416,28.076 111.14,28.076 C110.3432,28.076 110.18384,28.72112 110.151968,29.323232 L110.144996,29.545664 L110.144,29.756 L111.476,29.756 L111.476,31.064 L110.156,31.064 L110.156,36.44 L108.38,36.44 L108.38,31.064 L107.492,31.064 L107.492,29.756 L108.38,29.756 L108.38,29.48 C108.38,27.464 109.556,26.66 110.864,26.66 Z M122.768,29.612 C122.894,29.612 122.98625,29.61875 123.075125,29.63225 L123.164,29.648 L123.164,31.34 C123.032,31.316 122.888,31.304 122.708,31.304 C121.948667,31.304 121.360593,31.7856667 121.297595,32.7995453 L121.292,32.984 L121.292,36.44 L119.516,36.44 L119.514601,31.4991137 L119.514601,31.4991137 L119.504665,30.8634985 L119.504665,30.8634985 L119.488012,30.2874985 L119.488012,30.2874985 L119.468,29.756 L120.992,29.756 L121.064,30.92 L121.112,30.92 C121.424,30.056 122.144,29.612 122.768,29.612 Z M131.336,29.624 C132.455231,29.624 133.330379,30.3895325 133.396042,32.1659606 L133.4,32.384 L133.4,36.44 L131.66,36.44 L131.66,32.66 C131.66,31.7 131.396,31.064 130.688,31.064 C130.22675,31.064 129.712766,31.4015 129.650319,32.2149277 L129.644,32.384 L129.644,36.44 L127.904,36.44 L127.904,32.492 C127.904,31.7 127.652,31.064 126.956,31.064 C126.49475,31.064 125.959672,31.4647812 125.894589,32.2564561 L125.888,32.42 L125.888,36.44 L124.148,36.44 L124.146111,31.3935556 L124.146111,31.3935556 L124.133,30.698 C124.13,30.588 124.126667,30.4806667 124.123111,30.3755556 L124.1,29.768 L125.612,29.768 L125.696,30.656 L125.732,30.656 C126.044,30.176 126.632,29.624 127.628,29.624 C128.3896,29.624 128.983947,30.00032 129.27445,30.6066133 L129.332,30.74 L129.356,30.74 C129.908,29.924 130.592,29.624 131.336,29.624 Z M100.22,33.188 C99.26,33.188 98.264,33.416 98.264,34.388 C98.264,35.024 98.66,35.3 99.104,35.3 C99.49775,35.3 100.134078,35.0363281 100.212081,34.3013428 L100.22,34.148 L100.22,33.188 Z M115.148,30.92 C114.164,30.92 113.816,32.072 113.816,33.092 C113.816,34.28 114.272,35.264 115.136,35.264 C115.976,35.264 116.432,34.268 116.432,33.08 C116.432,32.036 116.06,30.92 115.148,30.92 Z M89.204,31.04 C88.5602353,31.04 88.0440277,31.6140069 87.9855249,32.3518372 L87.98,32.492 L87.98,33.74 C87.98,34.712 88.568,35.18 89.168,35.18 C90.068,35.18 90.536,34.292 90.536,33.092 C90.536,31.904 90.08,31.04 89.204,31.04 Z" id="形状" fill="#FFA200"></path>
            </g>
        </g>
    </g>
</svg>