<?xml version="1.0" standalone="no"?><!DOCTYPE svg PUBLIC "-//W3C//DTD SVG 1.1//EN" "http://www.w3.org/Graphics/SVG/1.1/DTD/svg11.dtd"><svg class="icon" width="200px" height="200.00px" viewBox="0 0 1024 1024" version="1.1" xmlns="http://www.w3.org/2000/svg"><path fill="#ffffff" d="M880 247.008l-162.016-166.016Q700.992 64 677.984 64h-316.992q-26.016 0-46.016 18.016-16.992 15.008-23.008 36.992H231.968q-43.008 0-73.504 31.008t-30.496 76v627.008q0 44 30.496 75.488T231.968 960h508q43.008 0 73.504-31.488t30.496-75.488v-63.008q23.008-6.016 37.504-25.504t14.496-44.512V287.008q0-24-16-40z m-168-160.992l-3.008-3.008z m98.016 177.984L744 196z m-126.016-116.992l108 110.016h-108V147.008zM676.992 128zM204.992 948q4 0.992 4.992 2.016-2.016-0.992-4.992-2.016z m27.008 4q-6.016 0-12-0.992 4.992 0.992 12 0.992z m543.008-99.008q0 15.008-10.016 25.504t-24.992 10.496H232q-14.016 0-24.512-10.496t-10.496-25.504V225.984q0-15.008 10.496-25.504t24.512-10.496h58.016v531.008q0 30.016 20.992 51.008t50.016 20.992H775.04v60z m52-132.992q0 2.016-2.016 2.016h-464q-2.016 0-2.016-2.016V136.992q0-2.016 2.016-2.016h251.008v156.992q0 15.008 10.016 24.992t24 10.016h180.992v392.992z m9.984 64q4-0.992 8.992-2.016-4.992 0.992-8.992 2.016z m-244-168.992h-107.008q-15.008 0-24.992 10.496t-10.016 24.992 10.016 24.992 24.992 10.496h107.008q14.016 0 24.512-10.496t10.496-24.992-10.496-24.992-24.512-10.496z m107.008-111.008h-214.016q-14.016 0-24.512 10.496t-10.496 24.992 10.496 24.992 24.512 10.496h214.016q14.016 0 24-10.496t10.016-24.992-10.016-24.992-24-10.496z m-240.992 36q0 4 0.992 8-0.992-4-0.992-8zM700 512z m12 52l4-2.016z m-260.992-135.488q0 14.496 10.496 24.992t24.512 10.496h214.016q14.016 0 24-10.496t10.016-24.992-10.016-24.992-24-10.496h-214.016q-14.016 0-24.512 10.496t-10.496 24.992z m8 1.504z" /></svg>