<?xml version="1.0" encoding="UTF-8"?>
<svg width="660px" height="485px" viewBox="0 0 660 485" version="1.1" xmlns="http://www.w3.org/2000/svg" xmlns:xlink="http://www.w3.org/1999/xlink">
    <title>分析</title>
    <defs>
        <path d="M523.634926,216.750899 C516.184874,217.850837 445.334383,194.652145 437.834331,162.903936 C430.334279,131.105729 373.683886,98.057593 349.533719,106.207133 C325.433552,114.406671 293.783332,105.657164 293.783332,105.657164 L273.833194,96.0077086 L269.333163,93.8578298 L269.283162,93.8578298 L17.4314164,239.24963 C-5.76874448,252.648875 -5.81874483,286.146985 17.3314157,299.596227 L268.433156,445.537996 C290.033306,458.137286 316.733491,458.137286 338.383641,445.637991 L598.785447,295.296469 C607.035504,290.546737 613.935552,283.447138 617.535577,274.647634 C637.435715,225.900383 530.484973,215.800953 523.634926,216.750899 Z" id="path-1"></path>
        <filter x="-5.6%" y="-6.9%" width="111.3%" height="119.4%" filterUnits="objectBoundingBox" id="filter-2">
            <feOffset dx="0" dy="10" in="SourceAlpha" result="shadowOffsetOuter1"></feOffset>
            <feGaussianBlur stdDeviation="10" in="shadowOffsetOuter1" result="shadowBlurOuter1"></feGaussianBlur>
            <feColorMatrix values="0 0 0 0 0.0982116521   0 0 0 0 0.128975012   0 0 0 0 0.234290082  0 0 0 0.1 0" type="matrix" in="shadowBlurOuter1"></feColorMatrix>
        </filter>
    </defs>
    <g id="页面-1" stroke="none" stroke-width="1" fill="none" fill-rule="evenodd">
        <g id="login备份" transform="translate(-62.000000, -232.000000)" fill-rule="nonzero">
            <g id="分析" transform="translate(82.000000, 232.000000)">
                <g id="路径">
                    <use fill="black" fill-opacity="1" filter="url(#filter-2)" xlink:href="#path-1"></use>
                    <use fill="#F3F6FD" xlink:href="#path-1"></use>
                </g>
                <path d="M498.33475,316.695263 L498.33475,322.94491 C498.33475,323.694868 497.834747,324.444826 496.78474,325.044792 L479.884622,334.894236 L476.334598,336.944121 L429.884276,363.942598 C427.884262,365.092533 424.634239,365.092533 422.634226,363.942598 L372.033875,334.744245 C371.033868,334.144278 370.483864,333.394321 370.483864,332.644363 L370.533864,326.444713 C370.533864,327.19467 371.033868,327.944628 372.033875,328.494597 L422.634226,357.742948 C424.634239,358.892883 427.884262,358.892883 429.884276,357.742948 L476.384598,330.694473 L479.884622,328.694586 L496.83474,318.795144 C497.834747,318.245175 498.33475,317.495217 498.33475,316.695263 Z" id="路径" fill="#E1E9F4"></path>
                <polygon id="路径" fill="#E1E9F4" points="423.384231 274.447645 455.03445 328.894575 467.484536 322.444938 458.884477 232.550008 422.834227 252.098906"></polygon>
                <path d="M450.834421,250.149016 L450.784421,259.348497 C450.784421,260.748418 449.884414,262.098342 448.084402,263.148282 L345.083688,322.994907 C341.483663,325.094789 335.533622,325.094789 331.883596,322.994907 L156.682382,221.850611 C154.832369,220.750674 153.932363,219.350752 153.932363,217.950831 L153.982363,208.801347 C153.982363,210.151271 154.882369,211.551192 156.732382,212.601133 L331.933597,313.745429 C335.583622,315.895308 341.533663,315.895308 345.133688,313.745429 L448.134402,253.898804 C449.934415,252.89886 450.834421,251.498939 450.834421,250.149016 Z" id="路径" fill="#E1E9F4"></path>
                <path d="M193.532637,399.440596 C193.632638,399.390599 193.732639,399.290604 193.732639,399.290604 C198.23267,395.740805 199.782681,386.941301 200.782687,382.691541 C201.13269,381.191625 219.432817,368.842322 219.432817,368.842322 C219.482817,368.742327 219.532817,368.592336 219.482817,368.492341 C222.132835,368.792324 226.282864,367.99237 226.532866,367.492398 C232.082904,370.792212 233.432914,372.642107 234.182919,371.692161 C239.582956,364.142587 241.432969,363.242637 240.282961,362.49268 C224.382851,352.593238 223.682846,351.093323 222.932841,352.093266 C217.532804,359.592843 215.682791,360.54279 216.832799,361.24275 L220.082821,363.392629 C218.532811,364.142587 217.0828,365.14253 216.482796,366.142474 C216.282795,366.04248 216.182794,365.992482 216.032793,365.942485 L200.982689,373.042085 C201.682694,370.592223 202.332698,368.492341 202.882702,367.042423 C202.882702,367.042423 209.482748,355.0431 208.032738,341.993836 C207.882737,340.343929 208.132738,338.644025 208.632742,336.994118 C209.83275,332.744357 213.382775,319.545102 215.282788,314.345395 C218.582811,313.695432 221.782833,312.84548 222.332837,312.84548 C223.582846,312.84548 224.882855,312.795482 226.082863,312.595494 C228.632881,312.095522 232.88291,311.045581 234.482921,309.195686 C234.482921,309.195686 236.182933,307.145801 229.382886,306.845818 C222.582839,306.595832 220.132822,307.745767 214.08278,304.14597 L206.832729,306.195855 C206.832729,306.195855 205.732722,308.645717 206.282726,311.145576 C206.282726,311.24557 206.332726,311.445559 206.432727,311.695545 C206.432727,311.845536 206.532727,311.94553 206.532727,312.045525 L206.532727,312.095522 C191.332622,338.794016 195.532651,343.143771 183.282566,353.243201 C178.582534,340.243934 177.232524,351.393306 177.382525,306.545835 C178.432533,306.445841 179.782542,306.395843 181.032551,305.995866 C182.932564,305.345903 186.232587,304.045976 187.732597,302.096086 C187.732597,302.096086 189.332608,299.89621 184.582575,299.946207 C179.732542,300.046202 177.732528,301.396125 174.132503,297.996317 L168.482464,300.496176 C168.482464,300.496176 167.232455,302.996035 167.182455,305.545891 C167.132454,305.695883 167.132454,305.845874 167.132454,306.09586 C167.132454,306.09586 167.132454,306.09586 167.132454,306.145858 C158.982398,330.844465 165.482443,328.79458 164.232434,338.19405 C163.882432,341.343872 164.832438,352.093266 162.732424,355.543072 C159.732403,360.54279 161.332414,366.942429 162.932425,370.542226 C162.432422,371.292183 162.23242,372.142136 162.432422,373.142079 C162.582423,374.042028 160.332407,382.141572 160.182406,382.641543 L191.332622,400.740523 C191.932626,400.490537 192.53263,400.240551 193.082634,399.890571 C193.232635,399.740579 193.432637,399.640585 193.532637,399.440596 Z" id="路径" fill="#E1E9F4"></path>
                <path d="M0.231297113,265.298161 L131.082204,341.343872 L177.382525,314.595381 L32.6315217,230.500124 L35.4315411,228.850217 L180.132544,312.995471 L226.882868,285.996994 L82.1318649,201.901737 L84.1318788,200.751801 L228.882882,284.897056 L275.983209,257.648593 L131.232205,173.553335 L133.182219,172.4034 L277.933222,256.548655 L324.633546,229.600174 L179.882543,145.45492 L182.682562,143.85501 L327.433566,227.950267 L373.733887,201.251773 L228.982883,117.106519 L231.782902,115.506609 L571.185255,311.24557 L568.385236,312.84548 L375.933902,202.501703 L329.633581,229.250194 L522.084915,339.593971 L519.284896,341.193881 L326.833561,230.850104 L182.33256,314.245401 L374.783894,424.639175 L372.033875,426.239085 L179.582541,315.895308 L133.28222,342.593802 L323.883541,451.937635 C322.683533,452.287616 321.433524,452.637596 320.183515,452.937579 L0.0312957266,268.347989 C0.0812960733,267.298048 0.13129642,266.298105 0.231297113,265.298161 Z" id="路径" fill="#FDFEFF"></path>
                <g id="编组" transform="translate(266.282515, 0.000000)">
                    <path d="M186.351918,102.057367 L11.1007033,0.913071594 C9.25069047,-0.186866373 7.60067903,-0.236863553 6.40067071,0.463096971 L2.25064194,2.81296445 C3.45065026,2.1630011 5.1006617,2.26299546 6.95067452,3.31293625 L10.4006984,5.26282628 L6.90067418,10.8625105 L6.6006721,130.005791 L181.851887,231.150087 C181.851887,231.150087 187.701928,238.54967 186.501919,239.199633 L190.651948,236.799768 C191.851956,236.149805 192.601962,234.64989 192.601962,232.550008 L192.901964,113.456725 C192.901964,109.306959 190.001944,104.157249 186.351918,102.057367 Z" id="路径" fill="#6262AA"></path>
                    <path d="M182.151889,104.457232 C185.801914,106.557114 188.801935,111.706823 188.752551,115.906586 L188.451933,234.949873 C188.401932,239.199633 185.451912,240.84954 181.801887,238.749658 L6.55067175,137.605363 C2.90064645,135.505481 -0.0493740049,130.405769 0,126.156008 L0.300628422,7.11272196 C0.350628768,2.91295881 3.30064922,1.21305468 6.95067452,3.31293625 L182.151889,104.457232 Z" id="路径" fill="#2A2A5E"></path>
                    <polygon id="路径" fill="#3887E5" points="182.151889 112.056803 181.801887 231.200084 6.6006721 130.005791 6.90067418 10.9125077"></polygon>
                </g>
                <g id="编组" transform="translate(153.932363, 136.011647)">
                    <path d="M296.902058,106.587794 L296.852058,115.837272 C296.852058,117.187196 295.952052,118.53712 294.152039,119.587061 L191.151325,179.433686 C187.5513,181.533567 181.601259,181.533567 177.951234,179.433686 L2.75001907,78.2893899 C0.900006239,77.2394491 0,75.8395281 0,74.439607 L0.0500003466,65.2401258 C0.0500003466,63.8402048 0.950006586,62.4402837 2.75001907,61.3903429 L105.750733,1.59371526 C109.350758,-0.556163491 115.300799,-0.506166311 118.900824,1.59371526 L294.152039,102.738011 C295.952052,103.787952 296.902058,105.187873 296.902058,106.587794 Z" id="路径" fill="#83A1CC"></path>
                    <g id="路径">
                        <g>
                            <path d="M296.902058,106.587794 L296.852058,115.787275 C296.852058,117.187196 295.952052,118.53712 294.152039,119.587061 L191.151325,179.433686 C187.5513,181.533567 181.601259,181.533567 177.951234,179.433686 L2.75001907,78.2893899 C0.900006239,77.2394491 0,75.8395281 0,74.3896098 L0.0500003466,65.2401258 C0.0500003466,66.5900497 0.950006586,67.9899707 2.80001941,69.0399115 L178.001234,170.184207 C181.651259,172.334086 187.601301,172.334086 191.201326,170.184207 L294.20204,110.38758 C296.002052,109.337639 296.902058,107.937718 296.902058,106.587794 Z" fill="#9EB5DF"></path>
                            <path d="M294.152039,102.738011 C297.802065,104.837893 297.802065,108.237701 294.20204,110.38758 L191.201326,170.234205 C187.601301,172.334086 181.651259,172.334086 178.001234,170.234205 L2.80001941,69.0399115 C-0.850005893,66.94003 -0.850005893,63.5402217 2.75001907,61.3903429 L105.750733,1.59371526 C109.350758,-0.556163491 115.250799,-0.506166311 118.900824,1.59371526 L294.152039,102.738011 Z" fill="#DEE7F8"></path>
                        </g>
                        <path d="M164.051137,110.887551 L108.350751,78.7393645 C107.200743,78.039404 105.30073,78.039404 104.150722,78.7393645 L77.0505342,94.4884763 C75.9005262,95.1384397 75.9005262,96.2383776 77.1005345,96.888341 L132.75092,129.036528 C133.900928,129.736488 135.800941,129.736488 136.950949,129.036528 L164.051137,113.287416 C165.201145,112.637453 165.201145,111.537515 164.051137,110.887551 Z" fill="#B6CBEA"></path>
                    </g>
                </g>
                <polygon id="路径" fill="#3A3A77" points="300.983382 165.753775 297.133355 168.003648 289.883305 163.803885 293.683332 161.554012"></polygon>
                <polygon id="路径" fill="#3A3A77" points="292.03332 160.604066 288.183293 162.803942 280.933243 158.654176 284.733269 156.404302"></polygon>
                <polygon id="路径" fill="#3A3A77" points="286.483282 163.803885 279.633234 167.80366 272.333184 163.603896 279.183231 159.654119"></polygon>
                <polygon id="路径" fill="#3A3A77" points="327.283564 197.351993 320.433517 201.30177 313.183467 197.152004 320.033514 193.15223"></polygon>
                <polygon id="路径" fill="#3A3A77" points="280.983243 190.502379 274.133196 194.502154 266.883146 190.302391 273.733193 186.352613"></polygon>
                <polygon id="路径" fill="#3A3A77" points="254.433059 185.152681 247.583012 189.152456 237.982945 183.602769 244.832993 179.602994"></polygon>
                <polygon id="路径" fill="#3A3A77" points="263.433122 190.352388 256.583074 194.302165 249.283024 190.102402 256.133071 186.152625"></polygon>
                <polygon id="路径" fill="#3A3A77" points="272.383184 195.502097 265.533136 199.501872 258.283086 195.302109 265.133134 191.302334"></polygon>
                <polygon id="路径" fill="#3A3A77" points="281.333246 200.701804 274.483198 204.651581 267.233148 200.501815 274.083196 196.502041"></polygon>
                <g id="编组" transform="translate(246.583005, 164.603840)" fill="#3A3A77">
                    <polygon id="路径" points="48.8503387 4.39975187 42.0002912 8.3995263 34.7502409 4.19976315 41.5502881 0.199988721"></polygon>
                    <polygon id="路径" points="35.9002489 6.84961371 29.0502014 10.8493881 17.2001192 3.99977443 24.0001664 0"></polygon>
                    <polygon id="路径" points="57.8004007 9.54946144 50.9503532 13.5492359 43.700303 9.34947272 50.5503505 5.3496983"></polygon>
                    <polygon id="路径" points="44.8503109 12.0493205 38.0002634 15.9990977 30.7502132 11.7993346 37.5502603 7.84955731"></polygon>
                    <polygon id="路径" points="29.4502042 13.1492584 22.6001567 17.0990357 8.60005962 8.99949246 15.4001068 4.99971803"></polygon>
                    <polygon id="路径" points="66.7504628 14.7491682 59.9004153 18.6989454 52.650365 14.5491795 59.5004125 10.549405"></polygon>
                    <polygon id="路径" points="81.3005636 16.6990582 77.4505369 18.9489313 70.2004867 14.7491682 74.000513 12.4992951"></polygon>
                    <polygon id="路径" points="53.800373 17.19903 46.9503255 21.1988045 39.7002752 16.9990413 46.5503227 13.0492641"></polygon>
                    <polygon id="路径" points="38.4502666 18.298968 31.6002191 22.2987424 24.3001685 18.0989793 31.150216 14.0992049"></polygon>
                    <polygon id="路径" points="75.7505252 19.8988778 68.9004777 23.8986522 61.6004271 19.6988891 68.4504745 15.7491118"></polygon>
                    <polygon id="路径" points="90.2506257 21.8487678 86.400599 24.0986409 79.1505487 19.8988778 83.0005754 17.6990018"></polygon>
                    <polygon id="路径" points="25.4501764 20.7488298 18.6001289 24.7486043 0 13.9992105 6.85004749 9.99943607"></polygon>
                    <polygon id="路径" points="62.750435 22.3987368 55.9503879 26.348514 48.6503373 22.1987481 55.5003848 18.1989736"></polygon>
                    <polygon id="路径" points="47.4003286 23.4986748 40.5502811 27.448452 33.3002309 23.2486889 40.1502784 19.2989116"></polygon>
                    <polygon id="路径" points="84.7005872 25.0985845 77.8505397 29.098359 70.6004895 24.8985958 77.4505369 20.8988214"></polygon>
                    <polygon id="路径" points="71.7504974 27.5484464 64.9004499 31.5482208 57.6503997 27.3484576 64.4504468 23.3986804"></polygon>
                    <polygon id="路径" points="56.3503907 28.6483843 49.5003432 32.6481588 42.2502929 28.4483956 49.1003404 24.4486212"></polygon>
                    <polygon id="路径" points="43.3503005 31.0982462 36.500253 35.0980206 29.2502028 30.8982574 36.1002503 26.898483"></polygon>
                    <polygon id="路径" points="52.3003626 36.2979529 45.5003154 40.2477302 38.2002648 36.047967 45.0503123 32.0981898"></polygon>
                </g>
                <polygon id="路径" fill="#3A3A77" points="390.634004 217.550854 386.783977 219.75073 379.533927 215.550967 383.333953 213.351091"></polygon>
                <polygon id="路径" fill="#3A3A77" points="381.633941 212.351147 377.833915 214.60102 370.533864 210.401257 374.383891 208.151384"></polygon>
                <polygon id="路径" fill="#3A3A77" points="372.683879 207.15144 368.833853 209.401314 361.583802 205.20155 365.433829 203.001674"></polygon>
                <polygon id="路径" fill="#3A3A77" points="394.034027 225.95038 387.18398 229.900158 379.933929 225.700394 386.783977 221.750617"></polygon>
                <polygon id="路径" fill="#3A3A77" points="390.384002 243.749376 383.533954 247.699154 369.483857 239.59961 376.333905 235.649833"></polygon>
                <polygon id="路径" fill="#3A3A77" points="390.034 233.599949 383.183952 237.549726 375.933902 233.349963 382.783949 229.400186"></polygon>
                <polygon id="路径" fill="#3A3A77" points="372.083875 223.250533 365.283828 227.20031 357.983777 223.000547 364.833825 219.050769"></polygon>
                <polygon id="路径" fill="#3A3A77" points="365.683831 229.50018 358.833783 233.449957 351.583733 229.250194 358.43378 225.300417"></polygon>
                <polygon id="路径" fill="#3A3A77" points="364.433822 248.6491 361.533802 250.349004 353.933749 245.949252 356.833769 244.249348"></polygon>
                <polygon id="路径" fill="#3A3A77" points="369.333856 256.048683 366.433836 257.748587 358.833783 253.348835 361.733803 251.698928"></polygon>
                <polygon id="路径" fill="#3A3A77" points="381.783942 248.749094 374.983895 252.698872 356.483767 242.049472 363.333814 238.099695"></polygon>
                <polygon id="路径" fill="#3A3A77" points="361.633803 237.099751 354.783755 241.099526 347.533705 236.899763 354.383752 232.899988"></polygon>
                <polygon id="路径" fill="#3A3A77" points="374.633893 234.64989 367.833846 238.649664 360.533795 234.449901 367.383842 230.450126"></polygon>
                <polygon id="路径" fill="#3A3A77" points="381.083937 228.400242 374.23389 232.400017 366.98384 228.200253 373.783887 224.200479"></polygon>
                <polygon id="路径" fill="#3A3A77" points="385.083965 220.750674 378.233918 224.750448 370.933867 220.550685 377.783915 216.55091"></polygon>
                <polygon id="路径" fill="#3A3A77" points="345.783693 191.652315 341.983666 193.902188 334.683616 189.702425 338.533642 187.452551"></polygon>
                <polygon id="路径" fill="#3A3A77" points="334.783616 221.600626 327.933569 225.550403 320.633518 221.35064 327.483566 217.400862"></polygon>
                <polygon id="路径" fill="#3A3A77" points="311.883458 198.451931 305.083411 202.401708 297.78336 198.201945 304.633407 194.252168"></polygon>
                <g id="编组" transform="translate(285.183273, 192.652258)" fill="#3A3A77">
                    <polygon id="路径" points="69.6004825 4.19976315 65.7504558 6.39963908 58.4504052 2.19987593 62.3004319 0"></polygon>
                    <polygon id="路径" points="64.050444 7.39958269 57.2003966 11.3993571 49.9003459 7.19959397 56.7503934 3.19981954"></polygon>
                    <polygon id="路径" points="78.5505446 9.34947272 74.7005179 11.5993458 67.4504676 7.39958269 71.250494 5.14970957"></polygon>
                    <polygon id="路径" points="51.0503539 9.89944171 44.2003064 13.849219 36.9502562 9.6494558 43.8003037 5.69967856"></polygon>
                    <polygon id="路径" points="35.7002475 10.9493825 28.8502 14.9491569 21.6001497 10.7493938 28.4001969 6.74961934"></polygon>
                    <polygon id="路径" points="73.0005061 12.5492923 66.1504586 16.5490667 58.9004083 12.3493035 65.7004555 8.3995263"></polygon>
                    <polygon id="路径" points="22.7001574 13.3992443 15.8501099 17.3990188 8.55005928 13.1992556 15.4001068 9.19948118"></polygon>
                    <polygon id="路径" points="60.000416 15.0491513 53.2003688 18.9989285 45.9003182 14.8491626 52.7503657 10.8493881"></polygon>
                    <polygon id="路径" points="44.6503095 16.1490892 37.8002621 20.0988665 30.5502118 15.8991033 37.4002593 11.9493261"></polygon>
                    <polygon id="路径" points="81.9505681 17.748999 75.1005207 21.7487734 67.8504704 17.5490103 74.7005179 13.5492359"></polygon>
                    <polygon id="路径" points="14.1000978 18.3989624 7.25005026 22.3487396 0 18.1489765 6.80004714 14.1991992"></polygon>
                    <polygon id="路径" points="31.6502194 18.5489539 24.8001719 22.5487283 17.5501217 18.3489652 24.4001692 14.3991879"></polygon>
                    <polygon id="路径" points="69.0004784 20.1988609 62.1504309 24.1986353 54.9003806 19.9988721 61.7004278 16.0490949"></polygon>
                    <polygon id="路径" points="53.6003716 21.2987988 46.7503241 25.2985732 39.5002738 21.0988101 46.3503213 17.0990357"></polygon>
                    <polygon id="路径" points="90.9006302 22.9487058 84.0505827 26.898483 76.8005324 22.6987199 83.6505799 18.7489426"></polygon>
                    <polygon id="路径" points="23.0501598 23.5486719 16.2001123 27.5484464 8.95006205 23.3486832 15.8001095 19.3489088"></polygon>
                    <polygon id="路径" points="77.9505404 25.3985676 71.1004929 29.3483449 63.8504427 25.1985789 70.7004901 21.1988045"></polygon>
                    <polygon id="路径" points="62.600434 26.4985056 55.7503865 30.4482828 48.4503359 26.2485197 55.3003834 22.2987424"></polygon>
                    <polygon id="路径" points="32.0002218 28.7483787 25.1501744 32.6981559 17.9001241 28.54839 24.7501716 24.5486155"></polygon>
                    <polygon id="路径" points="71.550496 31.6482151 64.7004486 35.6479896 57.4503983 31.4482264 64.3004458 27.448452"></polygon>
                    <polygon id="路径" points="41.0002842 33.8980883 34.1502368 37.8978627 26.8501861 33.6980995 33.7002336 29.7483223"></polygon>
                    <polygon id="路径" points="58.5504059 34.098077 51.7003584 38.0978514 44.4503082 33.8980883 51.2503553 29.8983138"></polygon>
                    <polygon id="路径" points="49.9503463 39.097795 43.1002988 43.0475723 35.8502485 38.8978063 42.700296 34.8980319"></polygon>
                </g>
                <polygon id="路径" fill="#3A3A77" points="340.233654 194.852134 333.383607 198.851909 326.133557 194.652145 332.983604 190.702368"></polygon>
                <polygon id="路径" fill="#3A3A77" points="399.584066 222.700564 395.734039 224.950437 388.483989 220.750674 392.334015 218.5008"></polygon>
                <polygon id="路径" fill="#3A3A77" points="413.13416 230.550121 409.284133 232.749997 397.434051 225.900383 401.284078 223.700507"></polygon>
                <polygon id="路径" fill="#3A3A77" points="398.984062 238.749658 392.134014 242.699436 384.883964 238.54967 391.734011 234.549895"></polygon>
                <polygon id="路径" fill="#3A3A77" points="407.584121 233.74994 400.734074 237.749715 388.883992 230.900101 395.734039 226.900327"></polygon>
                <polygon id="路径" fill="#3A3A77" points="318.883506 176.103191 315.08348 178.353065 307.783429 174.153301 311.633456 171.953426"></polygon>
                <polygon id="路径" fill="#3A3A77" points="309.933444 170.953482 306.083418 173.203355 298.833367 169.003592 302.683394 166.753719"></polygon>
                <polygon id="路径" fill="#3A3A77" points="351.633733 245.849258 348.733713 247.499165 341.13366 243.14941 344.033681 241.449506"></polygon>
                <polygon id="路径" fill="#3A3A77" points="346.383697 238.249687 339.533649 242.199464 329.983583 236.699774 336.833631 232.7"></polygon>
                <polygon id="路径" fill="#3A3A77" points="352.683741 231.950042 345.833693 235.899819 338.583643 231.700056 345.43369 227.750279"></polygon>
                <polygon id="路径" fill="#3A3A77" points="325.783554 216.400919 318.933507 220.400693 311.683456 216.20093 318.533504 212.201156"></polygon>
                <polygon id="路径" fill="#3A3A77" points="360.483795 250.94897 357.583775 252.648875 349.983722 248.249123 352.883742 246.549219"></polygon>
                <polygon id="路径" fill="#3A3A77" points="290.333308 205.851514 283.483261 209.851288 276.18321 205.651525 283.033258 201.651751"></polygon>
                <polygon id="路径" fill="#B6CBEA" points="428.634267 247.099188 394.984034 266.648085 381.633941 258.948519 415.284175 239.399622"></polygon>
                <polygon id="路径" fill="#B6CBEA" points="269.483164 155.20437 235.83293 174.753268 222.432838 167.053702 256.133071 147.504804"></polygon>
                <path d="M381.283939,103.60728 L381.133938,159.45413 C381.133938,162.803942 378.733921,164.153865 375.833901,162.453961 L288.683297,112.156798 C285.733276,110.456894 283.38326,106.357125 283.38326,103.007314 L283.583262,47.1604634 L381.283939,103.60728 Z" id="路径" fill="#FFFFFF"></path>
                <path d="M355.133758,100.05748 C357.533774,101.507398 359.983791,104.507229 360.883797,108.257018 L371.433871,151.754565 L291.133314,105.407178 L299.533372,85.1083233 C300.533379,82.6584614 302.883395,82.5084699 305.283412,83.8583938 C307.433427,85.1083233 309.583442,87.6081823 310.683449,90.857999 C311.833457,94.1578129 313.983472,96.6576719 316.133487,97.8576043 C318.683505,99.3575197 321.233523,99.0575366 322.083528,96.1577001 L322.933534,93.2078665 C323.73354,90.30803 326.283558,90.0080469 328.833575,91.5079624 C331.183592,92.8578862 333.533608,95.7077255 334.533615,99.3575197 L335.633622,103.2573 C336.583629,106.907094 338.933645,109.756933 341.283662,111.106857 C343.88368,112.606772 346.483698,112.256792 347.283703,109.206964 L349.133716,101.957373 C349.933722,98.8575479 352.53374,98.607562 355.133758,100.05748 Z" id="路径" fill="#6262AA"></path>
                <g id="编组" transform="translate(283.583262, 34.619358)">
                    <path d="M100.300695,60.1884185 L100.150694,123.334857 C100.150694,124.984764 99.5506902,126.134699 98.6006836,126.684668 L96.350668,127.984595 C97.1006732,127.384629 97.5506763,126.284691 97.5506763,124.834773 L97.7506777,61.6883339 C97.7506777,58.3385228 95.350661,54.2387541 92.4506409,52.5388499 L5.30003674,2.24168652 C3.85002669,1.39173445 2.50001733,1.29174009 1.55001075,1.89170625 L4.15002877,0.341793663 C5.10003536,-0.20817532 6.45004472,-0.10818096 7.90005477,0.741771106 L95.050659,51.0389345 C98.0006794,52.6888415 100.300695,56.7886103 100.300695,60.1884185 Z" id="路径" fill="#B6CBEA"></path>
                    <path d="M92.4506409,52.5388499 C95.4006614,54.2387541 97.7506777,58.3385228 97.7506777,61.6883339 L97.7006773,68.9879223 L0,12.5411057 L0,5.24151734 C0,1.89170625 2.40001664,0.541782385 5.30003674,2.24168652 L92.4506409,52.5388499 Z" id="路径" fill="#4C4A8B"></path>
                    <g transform="translate(74.425516, 47.984396)" fill="#DEE7F8" id="路径">
                        <path d="M2.52501751,0.304693488 C3.67502548,0.954656832 4.62503206,2.60456378 4.62503206,3.95448765 C4.62503206,5.30441152 3.67502548,5.8543805 2.47501716,5.15441998 C1.32500919,4.50445664 0.3750026,2.85454968 0.3750026,1.50462582 C0.3750026,0.154701947 1.32500919,-0.395267037 2.52501751,0.304693488 Z"></path>
                        <path d="M10.1750705,4.75444254 C11.3750789,5.40440588 12.3250854,7.05431283 12.2750851,8.4042367 C12.2750851,9.75416057 11.3250785,10.3041296 10.1750705,9.60416903 C9.02506257,8.9042085 8.07505598,7.30429873 8.07505598,5.95437487 C8.07505598,4.604451 9.02506257,4.05448201 10.1750705,4.75444254 Z"></path>
                        <path d="M17.8751239,9.15419441 C19.0251319,9.85415493 19.9751385,11.5040619 19.9751385,12.8539858 C19.9751385,14.1539124 19.0251319,14.7038814 17.8751239,14.0539181 C16.6751156,13.3539576 15.725109,11.7040506 15.725109,10.4041239 C15.7751094,9.05420005 16.725116,8.50423106 17.8751239,9.15419441 Z"></path>
                    </g>
                </g>
                <path d="M314.533476,135.205498 C315.683484,135.855461 316.633491,137.455371 316.633491,138.755298 L316.58349,146.954835 C316.58349,148.254762 315.683484,148.804731 314.533476,148.154768 L307.383427,144.054999 C306.233419,143.355038 305.333412,141.755129 305.333412,140.455202 L305.333412,132.255664 C305.333412,130.955738 306.283419,130.405769 307.433427,131.105729 L314.533476,135.205498 Z" id="路径" fill="#B6CBEA"></path>
                <path d="M331.983597,145.254931 C333.133605,145.954892 334.083612,147.554802 334.083612,148.854728 L334.033611,157.054266 C334.033611,158.354192 333.083605,158.904161 331.983597,158.204201 L324.833547,154.104432 C323.68354,153.454469 322.783533,151.854559 322.783533,150.554632 L322.783533,142.355095 C322.783533,141.005171 323.73354,140.505199 324.883548,141.155162 L331.983597,145.254931 Z" id="路径" fill="#B6CBEA"></path>
                <path d="M349.433718,155.354362 C350.583726,156.004325 351.533733,157.604235 351.533733,158.904161 L351.483732,167.103699 C351.483732,168.403626 350.533726,168.953595 349.433718,168.303631 L342.283668,164.203863 C341.13366,163.503902 340.233654,161.903992 340.233654,160.604066 L340.233654,152.404528 C340.233654,151.104601 341.183661,150.554632 342.333669,151.254593 L349.433718,155.354362 Z" id="路径" fill="#B6CBEA"></path>
                <path d="M366.883839,165.403795 C368.033847,166.103755 368.983854,167.653668 368.983854,169.003592 L368.933853,177.203129 C368.933853,178.503056 367.983847,179.053025 366.883839,178.353065 L359.733789,174.253296 C358.583781,173.603332 357.683775,172.003423 357.683775,170.703496 L357.683775,162.503958 C357.683775,161.154035 358.633782,160.654063 359.78379,161.304026 L366.883839,165.403795 Z" id="路径" fill="#B6CBEA"></path>
                <path d="M384.33396,175.503225 C385.483968,176.153189 386.433975,177.753098 386.433975,179.053025 L386.383974,187.252563 C386.383974,188.552489 385.433968,189.102458 384.33396,188.452495 L377.18391,184.352726 C376.033902,183.652766 375.133896,182.052856 375.133896,180.752929 L375.133896,172.553392 C375.133896,171.253465 376.083903,170.703496 377.233911,171.403457 L384.33396,175.503225 Z" id="路径" fill="#B6CBEA"></path>
                <path d="M401.784081,185.552659 C402.934089,186.252619 403.884096,187.802532 403.884096,189.152456 L403.834095,197.351993 C403.834095,198.65192 402.884089,199.201889 401.784081,198.501928 L394.634031,194.402159 C393.484023,193.752196 392.584017,192.152286 392.584017,190.85236 L392.584017,182.652822 C392.584017,181.302898 393.534024,180.802926 394.684032,181.45289 L401.784081,185.552659 Z" id="路径" fill="#B6CBEA"></path>
                <path d="M483.584648,174.00331 L483.484647,222.300586 C483.434647,225.200423 481.384633,226.350358 478.884615,224.900439 L403.534093,181.402893 C401.034076,179.952974 398.984062,176.403175 398.984062,173.503338 L399.134063,125.256059 L483.584648,174.00331 Z" id="路径" fill="#A6C2FF"></path>
                <path d="M485.834664,166.403738 L485.684663,221.000659 C485.684663,222.450578 485.184659,223.450521 484.334653,223.900496 L482.43464,225.050431 C483.084645,224.500462 483.484647,223.550516 483.484647,222.300586 L483.634648,167.703665 C483.634648,164.803829 481.584634,161.254029 479.034617,159.804111 L403.734094,116.356561 C402.484086,115.606603 401.284078,115.506609 400.484072,116.006581 L402.734088,114.706654 C403.584093,114.206682 404.734101,114.306677 405.98411,115.056634 L481.284632,158.504184 C483.83465,159.954102 485.834664,163.503902 485.834664,166.403738 Z" id="路径" fill="#1E72C6"></path>
                <path d="M479.034617,159.804111 C481.584634,161.254029 483.634648,164.803829 483.634648,167.703665 L483.584648,174.00331 L399.134063,125.256059 L399.134063,118.956414 C399.134063,116.056578 401.234077,114.856646 403.734094,116.356561 L479.034617,159.804111 Z" id="路径" fill="#4C4A8B"></path>
                <path d="M465.634524,156.154317 C466.634531,156.704286 467.484536,158.154204 467.484536,159.304139 C467.484536,160.454074 466.634531,160.954046 465.634524,160.35408 C464.634517,159.754114 463.784511,158.354192 463.784511,157.204257 C463.834511,156.004325 464.634517,155.55435 465.634524,156.154317 Z" id="路径" fill="#DEE7F8"></path>
                <path d="M472.28457,159.954102 C473.284577,160.554068 474.084582,161.953989 474.084582,163.153922 C474.084582,164.303857 473.284577,164.753832 472.28457,164.203863 C471.234562,163.603896 470.434557,162.203975 470.434557,161.004043 C470.434557,159.854108 471.284563,159.404133 472.28457,159.954102 Z" id="路径" fill="#DEE7F8"></path>
                <path d="M478.934616,163.803885 C479.934623,164.403851 480.734628,165.803772 480.734628,166.953707 C480.734628,168.15364 479.934623,168.603614 478.934616,168.003648 C477.884609,167.453679 477.084603,166.003761 477.084603,164.853826 C477.084603,163.703891 477.934609,163.203919 478.934616,163.803885 Z" id="路径" fill="#DEE7F8"></path>
                <polygon id="路径" fill="#3A3A77" points="424.78424 145.204934 424.634239 188.602487 410.33414 180.352952 410.434141 136.955399"></polygon>
                <polygon id="路径" fill="#B6CBEA" points="472.184569 207.651412 472.184569 212.551136 434.334307 190.752365 434.384307 185.802644"></polygon>
                <polygon id="路径" fill="#B6CBEA" points="472.234569 191.402329 472.184569 201.30177 434.384307 179.453003 434.434307 169.553561"></polygon>
                <polygon id="路径" fill="#B6CBEA" points="472.28457 175.203242 472.234569 185.052687 434.434307 163.253916 434.484308 153.354474"></polygon>
                <path d="M258.083085,70.1091692 L257.933084,129.805802 C257.933084,132.85563 255.733068,134.10556 253.03305,132.555647 L173.082495,86.40825 C170.382477,84.8583374 168.232462,81.0585517 168.232462,78.0087237 L168.382463,18.3120903 L258.083085,70.1091692 Z" id="路径" fill="#DEE7F8"></path>
                <path d="M260.483101,62.0596231 L260.2831,128.405881 C260.2831,129.955794 259.733096,131.005735 258.88309,131.505707 L256.833076,132.705639 C257.533081,132.105673 257.933084,131.105729 257.933084,129.805802 L258.083085,63.409547 C258.083085,60.359719 255.93307,56.5599333 253.233051,55.0100207 L173.282497,8.86262327 C171.932487,8.06266838 170.682479,8.0126712 169.782473,8.512643 L172.182489,7.11272196 C173.082495,6.61275015 174.282504,6.71274451 175.632513,7.46270222 L255.633068,53.6100997 C258.333086,55.1600123 260.483101,58.959798 260.483101,62.0596231 Z" id="路径" fill="#B6CBEA"></path>
                <path d="M253.233051,55.0100207 C255.93307,56.5599333 258.083085,60.359719 258.083085,63.409547 L258.083085,70.1091692 L168.382463,18.3120903 L168.382463,11.6124682 C168.382463,8.56264018 170.582478,7.31271068 173.282497,8.86262327 L253.233051,55.0100207 Z" id="路径" fill="#83A1CC"></path>
                <path d="M238.982952,51.1102406 C240.08296,51.760204 240.932966,53.2601194 240.932966,54.5100489 C240.932966,55.7099812 240.08296,56.209953 238.982952,55.6099869 C237.932945,54.9600235 237.032939,53.4601081 237.032939,52.2601758 C237.032939,51.0102463 237.932945,50.5102745 238.982952,51.1102406 Z" id="路径" fill="#DEE7F8"></path>
                <path d="M246.033001,55.2100094 C247.133009,55.8099756 247.983015,57.309891 247.983015,58.5598205 C247.983015,59.80975 247.133009,60.3097218 246.033001,59.6597585 C244.982994,59.0597923 244.082988,57.5598769 244.082988,56.3099474 C244.132988,55.0600179 244.982994,54.5600461 246.033001,55.2100094 Z" id="路径" fill="#DEE7F8"></path>
                <path d="M253.08305,59.259781 C254.183058,59.9097444 255.033064,61.4096598 255.033064,62.6095921 C255.033064,63.8595216 254.183058,64.3594934 253.08305,63.7595273 C252.033043,63.1095639 251.133037,61.6096485 251.133037,60.359719 C251.133037,59.1597867 252.033043,58.6598149 253.08305,59.259781 Z" id="路径" fill="#DEE7F8"></path>
                <polygon id="路径" fill="#83A1CC" points="243.932987 117.056522 243.882986 118.756426 178.582534 81.0585517 178.582534 79.3086504"></polygon>
                <polygon id="路径" fill="#1E72C6" points="190.082613 57.5598769 190.082613 66.0593976 190.032613 84.3583656 185.482581 81.7585122 185.582582 54.9600235"></polygon>
                <polygon id="路径" fill="#6B9EF9" points="194.582644 68.7092481 194.532644 86.9582189 190.032613 84.3583656 190.082613 66.0593976"></polygon>
                <polygon id="路径" fill="#6B9EF9" points="204.232711 67.4593186 204.182711 92.507906 199.63268 89.9080526 199.73268 64.8594652"></polygon>
                <polygon id="路径" fill="#1E72C6" points="208.782743 61.5096542 208.682742 95.1577565 204.182711 92.507906 204.282712 58.9098008"></polygon>
                <polygon id="路径" fill="#6B9EF9" points="222.932841 64.6094793 222.83284 103.307297 218.332809 100.707444 218.43281 62.009626"></polygon>
                <polygon id="路径" fill="#1E72C6" points="218.48281 53.4601081 218.43281 62.009626 218.332809 100.707444 213.782778 98.1075902 213.932779 50.8602547"></polygon>
                <polygon id="路径" fill="#6B9EF9" points="232.532908 90.6080131 232.482907 108.856984 227.982876 106.257131 228.032876 88.0081597"></polygon>
                <polygon id="路径" fill="#1E72C6" points="237.082939 84.6583486 236.982938 111.456837 232.482907 108.856984 232.532908 82.0584953"></polygon>
                <path d="M479.934623,323.794862 L429.884276,352.893221 C427.884262,354.043156 424.634239,354.043156 422.634226,352.893221 L372.033875,323.694868 C370.033864,322.544933 370.033864,320.64504 372.033875,319.495105 L422.084222,290.396746 L479.934623,323.794862 Z" id="路径" fill="#6262AA"></path>
                <path d="M498.33475,311.895533 L498.33475,318.095184 C498.33475,318.845141 497.834747,319.645096 496.78474,320.195065 L429.884276,359.092871 C427.884262,360.292804 424.634239,360.292804 422.634226,359.092871 L372.033875,329.894518 C371.033868,329.344549 370.483864,328.544594 370.483864,327.744639 L370.533864,321.594986 C370.533864,322.294947 371.033868,323.094902 372.033875,323.694868 L422.634226,352.893221 C424.634239,354.043156 427.884262,354.043156 429.884276,352.893221 L496.83474,313.995415 C497.834747,313.345451 498.33475,312.645491 498.33475,311.895533 Z" id="路径" fill="#2A2A5E"></path>
                <path d="M496.83474,309.795652 C498.834754,310.945587 498.834754,312.795482 496.83474,313.945418 L479.934623,323.794862 L422.084222,290.396746 L438.984339,280.547301 C440.984353,279.397366 444.234375,279.397366 446.234389,280.547301 L496.83474,309.795652 Z" id="路径" fill="#4C4A8B"></path>
                <polygon id="路径" fill="#B6CBEA" points="450.284417 311.195573 446.534391 313.395449 439.08434 309.095691 442.884366 306.895815"></polygon>
                <polygon id="路径" fill="#B6CBEA" points="460.934491 317.345226 457.184465 319.545102 449.734413 315.245344 453.53444 313.045468"></polygon>
                <polygon id="路径" fill="#7BB1FF" points="492.934713 312.195516 479.634621 319.945079 429.03427 290.696729 442.334362 282.997163"></polygon>
                <polygon id="路径" fill="#B6CBEA" points="471.584565 323.494879 467.834539 325.694755 460.384487 321.394998 464.184514 319.195122"></polygon>
                <polygon id="路径" fill="#DEE7F8" points="401.484079 314.845367 394.134028 319.145124 386.683976 314.845367 394.084028 310.545609"></polygon>
                <polygon id="路径" fill="#A6C2FF" points="432.884297 308.9457 425.484245 313.245457 418.084194 308.9457 425.434245 304.695939"></polygon>
                <polygon id="路径" fill="#DEE7F8" points="401.784081 327.044679 394.43403 331.294439 386.983978 327.044679 394.38403 322.744921"></polygon>
                <polygon id="路径" fill="#6B9EF9" points="444.134375 339.44398 426.384252 349.793396 418.9842 345.493638 436.684323 335.194219"></polygon>
                <polygon id="路径" fill="#6B9EF9" points="423.134229 339.343985 415.734178 343.593746 408.284126 339.343985 415.684177 335.044228"></polygon>
                <polygon id="路径" fill="#DEE7F8" points="412.434155 333.194332 405.084104 337.444092 397.634052 333.194332 405.034103 328.894575"></polygon>
                <polygon id="路径" fill="#DEE7F8" points="433.484301 333.294326 426.084249 337.594084 418.684198 333.294326 426.034249 328.994569"></polygon>
                <polygon id="路径" fill="#DEE7F8" points="422.834227 327.144673 415.434176 331.444431 408.034124 327.144673 415.384175 322.844916"></polygon>
                <polygon id="路径" fill="#DEE7F8" points="412.184153 320.99502 404.784102 325.294778 397.33405 320.99502 404.734101 316.695263"></polygon>
                <polygon id="路径" fill="#DEE7F8" points="422.534225 314.995358 415.134174 319.295116 407.734122 314.995358 415.084173 310.695601"></polygon>
                <polygon id="路径" fill="#DEE7F8" points="411.884151 308.845705 404.4841 313.095466 397.034048 308.845705 404.434099 304.545948"></polygon>
                <polygon id="路径" fill="#A6C2FF" points="422.234223 302.796046 414.834171 307.095804 407.43412 302.796046 414.784171 298.496289"></polygon>
                <polygon id="路径" fill="#DEE7F8" points="391.134007 320.895026 383.783956 325.144786 376.333905 320.895026 383.733956 316.595268"></polygon>
                <polygon id="路径" fill="#DEE7F8" points="433.184299 321.145012 425.784247 325.444769 418.384196 321.145012 425.734247 316.845254"></polygon>
                <polygon id="路径" fill="#DEE7F8" points="443.834372 327.294665 436.434321 331.594422 429.03427 327.294665 436.384321 322.994907"></polygon>
                <polygon id="路径" fill="#6B9EF9" points="464.834518 327.394659 457.484467 331.694417 450.034415 327.394659 457.434467 323.144899"></polygon>
                <polygon id="路径" fill="#DEE7F8" points="454.184444 321.245006 446.834393 325.544763 439.384342 321.245006 446.784393 316.995246"></polygon>
                <polygon id="路径" fill="#DEE7F8" points="443.53437 315.095353 436.184319 319.39511 428.734268 315.095353 436.134319 310.845592"></polygon>
                <polygon id="路径" fill="#B6CBEA" points="428.98427 298.896266 425.234244 301.096142 417.784192 296.796385 421.534218 294.596509"></polygon>
                <polygon id="路径" fill="#B6CBEA" points="439.634343 305.04592 435.884317 307.245795 428.434266 302.946038 432.184292 300.746162"></polygon>
                <polygon id="路径" fill="#6B9EF9" points="454.484446 333.444318 447.134395 337.744075 439.684344 333.444318 447.084395 329.14456"></polygon>
                <path d="M246.483004,208.201381 C246.333003,207.651412 245.883,207.551418 245.482997,207.951395 L226.782868,227.350301 C226.382865,227.750279 226.182864,228.550234 226.332865,229.050205 L230.782895,244.299345 C230.932897,244.849314 231.3829,244.949309 231.782902,244.549331 L250.483032,225.100428 C250.883035,224.700451 251.083036,223.950493 250.933035,223.400524 L246.483004,208.201381 Z" id="路径" fill="#FFFFFF"></path>
                <path d="M168.332463,297.196362 L174.132503,294.04654 C177.532526,298.2963 179.582541,296.646393 184.432574,296.496402 C189.232607,296.446405 187.482595,299.146252 187.482595,299.146252 C185.832584,301.596114 182.482561,303.246021 180.532547,304.045976 C179.582541,304.395956 178.682534,304.545948 177.732528,304.595945 C176.982522,304.695939 174.982509,305.095917 174.182503,305.295905 C174.182503,305.445897 174.132503,306.645829 174.132503,306.845818 C174.132503,307.095804 167.582457,309.745654 166.782452,307.745767 C166.58245,307.295793 166.58245,305.345903 166.632451,304.195967 C166.632451,303.895984 166.632451,303.645998 166.682451,303.44601 C166.932453,300.346185 168.332463,297.196362 168.332463,297.196362 Z" id="路径" fill="#3A3D4C"></path>
                <path d="M177.032523,205.301545 C175.582513,207.401426 168.482464,218.5008 171.082482,231.150087 C172.432491,237.599723 173.132496,242.399453 172.782493,248.199126 C172.482491,252.998855 171.532485,257.798584 170.282476,262.548316 C166.432449,277.247487 168.382463,298.196306 168.382463,298.196306 C172.482491,299.046258 175.732514,299.846213 177.932529,296.796385 C178.13253,292.546624 181.932557,273.64769 183.78257,264.598201 C184.432574,261.448378 185.33258,258.348553 186.632589,255.298725 C196.83266,231.250081 197.532665,212.101161 197.532665,212.101161 L177.032523,205.301545 Z" id="路径" fill="#505366"></path>
                <path d="M206.282726,305.295905 L213.682777,302.746049 C219.532817,307.245795 222.082835,305.795877 228.832882,306.09586 C235.582929,306.495838 233.782916,309.045694 233.782916,309.045694 C232.082904,311.345564 227.732874,312.645491 225.182857,313.295454 C223.932848,313.54544 222.682839,313.595437 221.38283,313.595437 C220.282823,313.595437 217.582804,313.795426 216.482796,313.945418 C216.532797,314.095409 216.732798,315.295342 216.782798,315.49533 C216.882799,315.745316 208.282739,317.795201 206.632728,315.745316 C206.282726,315.295342 205.782722,313.345451 205.582721,312.145519 C205.48272,311.845536 205.48272,311.59555 205.43272,311.445559 C205.082717,308.345733 206.282726,305.295905 206.282726,305.295905 Z" id="路径" fill="#3A3D4C"></path>
                <path d="M213.682777,262.998291 C218.032807,238.89965 214.08278,216.750899 214.08278,216.750899 L187.782597,208.951339 C186.882591,211.101218 181.432553,223.450521 187.782597,235.299853 C191.08262,241.549501 194.932647,248.099131 196.182656,254.248784 C197.282663,259.498488 199.132676,265.598144 199.082676,270.797851 C198.982675,285.447025 205.832722,305.895872 205.832722,305.895872 C210.182753,306.745824 213.532776,306.295849 215.032786,303.246021 C214.18278,298.996261 213.432775,281.347256 213.082773,272.297766 C212.982772,269.147944 213.132773,266.048119 213.682777,262.998291 Z" id="路径" fill="#5B5D70"></path>
                <path d="M182.38256,146.604855 C185.932585,142.555083 185.682583,137.155388 185.682583,137.155388 L189.58261,126.705977 C189.58261,126.705977 207.482734,117.25651 210.582755,119.056409 C213.882778,120.906304 209.482748,136.40543 209.482748,136.40543 C209.182746,140.005227 207.582735,141.255157 207.582735,141.255157 L199.882681,144.754959 L197.732666,150.654655 C197.732666,150.654655 178.882536,150.704624 182.38256,146.604855 Z" id="路径" fill="#ECB4BF"></path>
                <path d="M214.18278,115.806592 C202.882702,109.256961 195.982654,111.256849 193.732639,111.556832 C188.982606,112.306789 182.782563,114.95664 183.982571,123.556155 C185.182579,132.15567 183.232566,141.655134 190.882619,140.405205 C198.532672,139.205272 198.882674,137.505368 198.882674,137.505368 C198.882674,137.505368 197.732666,129.755805 200.532686,130.455766 C203.332705,131.205724 204.03271,132.355659 203.782708,135.505481 C203.782708,135.805464 203.782708,136.105447 203.732708,136.455427 L206.782729,133.905571 C207.232732,130.405769 207.582735,130.255777 207.582735,130.255777 C207.582735,130.255777 210.232753,121.406276 214.332781,118.806423 C215.182787,118.306451 215.182787,116.406558 214.18278,115.806592 Z" id="路径" fill="#4C4A8B"></path>
                <path d="M196.132655,203.25166 C196.082655,205.501534 193.332636,207.251435 191.532623,208.05139 L172.882494,185.402667 C171.832487,184.052743 171.182482,182.502831 170.982481,180.852924 C169.882473,170.853488 170.582478,153.404472 170.982481,149.604686 C170.982481,149.604686 172.532492,139.505255 182.132558,140.605193 C189.332608,141.455146 184.482574,166.253747 183.482568,175.853206 C183.232566,178.60305 196.132655,203.25166 196.132655,203.25166 Z" id="路径" fill="#3887E5"></path>
                <path d="M213.932779,176.603163 C214.482782,171.653442 214.432782,166.603727 213.532776,161.654006 C213.082773,159.404133 212.482769,157.304252 211.632763,156.054322 C211.132759,155.254367 210.432754,154.554407 209.632749,153.954441 L199.332677,146.204878 C193.93264,147.654796 185.832584,145.904895 185.28258,140.855179 C185.28258,140.855179 167.532457,137.155388 171.732486,160.404077 C175.082509,179.503 175.032509,190.602374 175.082509,199.151892 C175.082509,203.401652 175.882515,201.401765 175.032509,205.501534 C170.532478,226.750335 214.08278,216.750899 214.08278,216.750899 C213.482776,208.40137 212.782771,187.65254 213.932779,176.603163 Z" id="路径" fill="#6B9EF9"></path>
                <path d="M237.932945,220.000716 C235.882931,218.550798 236.032932,217.850837 236.332934,217.45086 L237.382941,216.350922 L237.882945,215.800953 C237.832944,215.650961 236.732937,214.851006 236.482935,214.751012 C232.382907,212.901116 231.332899,214.101049 230.532894,214.051051 C229.682888,213.951057 228.58288,212.851119 228.48288,212.801122 L225.282857,215.450972 L225.932862,215.85095 C226.732867,216.350922 227.282871,217.150877 227.432872,218.100823 C227.982876,221.400637 231.3829,224.600456 233.332913,225.800389 C233.932917,226.100372 234.28292,226.200366 234.482921,226.150369 C235.882931,226.750335 241.432969,223.700507 240.782965,223.200535 C240.732964,223.100541 241.032967,222.250589 237.932945,220.000716 Z" id="路径" fill="#ECB4BF"></path>
                <path d="M200.232684,163.203919 C200.232684,163.203919 199.782681,153.354474 208.982744,154.554407 C216.132794,155.454356 215.432789,178.203073 215.53279,187.752534 C215.53279,190.552377 231.032897,213.451085 231.032897,213.451085 C231.282899,215.650961 228.732881,217.700846 227.032869,218.700789 L206.082724,198.351937 C204.882716,197.202002 204.08271,195.752083 203.732708,194.102176 C201.482692,184.352726 200.232684,167.003705 200.232684,163.203919 Z" id="路径" fill="#3887E5"></path>
            </g>
        </g>
    </g>
</svg>