<?xml version="1.0" encoding="UTF-8"?>
<svg width="784px" height="462px" viewBox="0 0 784 462" version="1.1" xmlns="http://www.w3.org/2000/svg" xmlns:xlink="http://www.w3.org/1999/xlink">
    <title>4</title>
    <defs>
        <path d="M628.671035,275.079261 C619.731162,273.760511 535.01237,301.514205 526.012499,339.458239 C517.012627,377.462216 449.213594,416.964773 420.354005,407.194034 C391.434418,397.423295 353.574958,407.913352 353.574958,407.913352 L329.755297,419.422443 L324.295375,422 L324.235376,422 L0,234.977273 L404.63423,0 L718.609752,181.088352 C728.509611,186.782955 736.729494,195.294886 741.049432,205.844886 C764.869092,264.109659 636.890917,276.158239 628.671035,275.079261 Z" id="path-1"></path>
        <filter x="-4.7%" y="-5.9%" width="109.4%" height="116.6%" filterUnits="objectBoundingBox" id="filter-2">
            <feOffset dx="0" dy="10" in="SourceAlpha" result="shadowOffsetOuter1"></feOffset>
            <feGaussianBlur stdDeviation="10" in="shadowOffsetOuter1" result="shadowBlurOuter1"></feGaussianBlur>
            <feColorMatrix values="0 0 0 0 0.0980392157   0 0 0 0 0.129411765   0 0 0 0 0.235294118  0 0 0 0.1 0" type="matrix" in="shadowBlurOuter1"></feColorMatrix>
        </filter>
    </defs>
    <g id="页面-1" stroke="none" stroke-width="1" fill="none" fill-rule="evenodd">
        <g id="4" transform="translate(20.000000, 10.000000)" fill-rule="nonzero">
            <g id="编组">
                <g id="路径">
                    <use fill="black" fill-opacity="1" filter="url(#filter-2)" xlink:href="#path-1"></use>
                    <use fill="#F3F6FD" xlink:href="#path-1"></use>
                </g>
                <path d="M586.791632,187.801989 L511.612704,66.2372159 L250.256431,144.103409 L163.497668,329.267898 L324.235376,422 L324.295375,422 L329.755297,419.422443 L353.574958,407.913352 C353.574958,407.913352 391.434418,397.423295 420.354005,407.194034 C449.213594,416.964773 517.012627,377.462216 526.012499,339.458239 C527.99247,331.126136 533.63239,323.27358 541.31228,316.140341 L570.291867,236.955398 L586.791632,187.801989 Z" id="路径" fill="#E1E9F4"></path>
                <path d="M80.8788466,255.357955 C74.5189373,258.774716 71.3989818,262.790909 79.7388628,266.20767 C78.8388757,265.728125 73.4389527,262.071591 90.7787054,255.65767 C92.2186849,255.717614 93.5986652,255.717614 94.9786455,255.777557 C92.5786797,258.235227 93.3586686,261.1125 101.758549,263.809943 C100.618565,263.330398 93.9586601,260.333239 104.338512,255.597727 C110.038431,255.357955 114.358369,254.69858 116.758335,253.799432 C116.998331,253.679545 117.178329,253.619602 117.358326,253.499716 L117.418326,253.499716 L143.937947,243.549148 C145.617923,242.949716 145.257928,241.990625 142.437969,240.971591 C137.158044,238.87358 124.378226,236.895455 113.098387,236.415909 C107.218471,236.116193 102.598537,236.296023 100.018574,236.775568 L60.2991401,244.508239 C60.1191426,244.568182 59.9991444,244.568182 59.8791461,244.628125 C59.4591521,244.628125 59.0991572,244.748011 58.7991615,244.807955 C55.0192154,245.46733 52.9792445,246.486364 53.1592419,247.685227 C42.7793899,249.42358 33.4795226,250.082955 26.5796209,250.322727 L27.3596098,250.74233 C37.5594644,250.862216 46.9193309,250.38267 54.9592162,249.543466 C55.4392094,249.843182 55.9792017,250.082955 56.6991914,250.322727 C47.7593189,252.06108 39.7194336,253.2 32.8795311,253.919318 L34.5595071,254.878409 C43.9193737,254.33892 52.7392479,253.37983 60.5991358,252.240909 C52.2592547,254.099148 44.6393634,255.537784 37.7394618,256.736648 L40.319425,258.235227 C49.7392907,257.036364 58.6791632,255.537784 66.5990502,254.039205 C58.7391623,256.436932 51.539265,258.894602 45.5393506,261.232386 L47.6393206,262.43125 C51.8992599,261.052557 57.1791846,259.374148 63.599093,257.575852 C58.0791717,260.093466 53.8192325,262.790909 52.6792487,265.368466 L55.4992085,266.986932 C57.5991786,264.529261 63.8390896,260.692898 80.8788466,255.357955 Z" id="路径" fill="#E1E9F4"></path>
                <polygon id="路径" fill="#FDFEFF" points="716.449783 179.829545 486.113068 311.764489 431.033853 279.994602 661.310569 148.059659 658.010616 146.141477 427.7339 278.07642 255.836352 178.930398 486.113068 46.9954545 482.813115 45.0772727 252.536399 177.072159 197.457184 145.302273 427.7339 13.3073864 424.433947 11.4491477 18.2397399 245.46733 21.5396928 247.385511 194.817222 146.800852 249.896436 178.570739 76.6189073 279.155398 79.9188603 281.07358 253.196389 180.48892 308.815596 212.49858 135.538067 313.143182 137.878034 314.521875 311.155563 213.877273 367.254763 246.246591 193.917235 346.83125 196.257201 348.15 369.53473 247.565341 425.093938 279.634943 251.816409 380.219602 255.116362 382.137784 428.393891 281.493182 483.533104 313.323011 310.255575 413.90767 313.555528 415.825852 719.749736 181.747727"></polygon>
            </g>
            <g id="编组" transform="translate(250.256431, 4.833899)">
                <g id="路径">
                    <g transform="translate(235.196646, 18.843658)">
                        <polygon fill="#1E72C6" points="94.0786584 54.6681818 0 0 0.299995722 113.472443 94.4386532 168.080682"></polygon>
                        <polygon fill="#6B9EF9" points="94.0786584 54.6681818 94.4386532 168.080682 101.338555 164.124432 101.038559 50.6519886"></polygon>
                    </g>
                    <g transform="translate(152.014915, 136.218538)">
                        <g transform="translate(28.306987, 31.224267)">
                            <path d="M6.57543179,25.4159091 C14.8553137,26.8545455 17.7952718,29.3122159 25.2951648,25.1761364 L35.0150262,30.2713068 C35.0150262,30.2713068 35.7350159,40.221875 32.5550613,42.7394886 C29.6151032,45.0772727 22.5352042,39.8022727 14.6753163,38.1238636 C13.1153385,37.7642045 11.5553608,37.3446023 10.1153813,36.6852273 C7.05542494,35.2465909 1.95549767,32.4292614 0.155523343,29.0724432 C0.155523343,29.0724432 -1.58445184,24.0971591 6.57543179,25.4159091 Z" fill="#2A2A5E"></path>
                            <path d="M29.0151118,0 L23.5551896,26.1951705 C25.5951605,32.8488636 34.2350373,32.8488636 35.6750168,32.3693182 L42.9349133,5.69460227 C38.1349817,4.13607955 33.5150476,2.21789773 29.0151118,0 Z" fill="#3A3A77"></path>
                        </g>
                        <g transform="translate(42.262314, 8.753606)">
                            <path d="M0,50.5240699 C0.119998289,50.4641267 0.179997433,50.4041836 0.299995722,50.4041836 L10.1998545,48.0663995 L82.3188261,6.22605856 L72.4189672,8.56384265 C72.2989689,8.56384265 72.1789707,8.62378583 72.1189715,8.62378583 L0,50.5240699 Z" fill="#B6CBEA"></path>
                            <g transform="translate(69.119014, 0.000000)" fill="#9EB5DF">
                                <path d="M56.6391923,87.149354 L52.2592547,89.6669676 L47.6993198,23.5496381 C47.4593232,20.7323086 45.5993497,17.6752063 43.2593831,16.2965131 L20.4597082,3.16895628 C19.2597253,2.4496381 18.1197416,2.38969492 17.3397527,2.86924038 L21.7196903,0.291683557 C22.4996791,-0.187861897 23.6396629,-0.0679755335 24.8996449,0.591399467 L47.6993198,13.7788995 C49.9792872,15.0976495 51.8992599,18.1547517 52.0792573,20.9720813 L56.6391923,87.149354 Z"></path>
                                <path d="M43.2593831,16.2965131 C45.5993497,17.6752063 47.4593232,20.7323086 47.6993198,23.4896949 L52.2592547,89.6669676 L49.2592975,87.9885586 L44.7593617,22.1110017 C44.6393634,21.1519108 44.039372,20.1328767 43.2593831,19.7132745 L20.4597082,6.52577447 C19.7997176,6.16611538 19.1997262,6.34594492 19.0197288,6.94537674 L3.05995636,61.3138426 L0,59.5754904 L16.199769,4.36781992 C16.7397613,2.50958128 18.4797365,2.03003583 20.4597082,3.16895628 L43.2593831,16.2965131 Z"></path>
                            </g>
                            <path d="M82.3188261,6.22605856 C82.7388201,6.10617219 83.1588141,6.22605856 83.6388072,6.46583128 L125.098216,30.3831608 C126.358198,31.1624222 127.498182,31.2223654 128.33817,30.7428199 L56.2191983,72.5831608 C55.3792102,73.0627063 54.2392265,73.0027631 52.9792445,72.2834449 L11.5198357,48.3661154 C11.0398426,48.0663995 10.6198486,47.9465131 10.1998545,48.0663995 L82.3188261,6.22605856 Z" fill="#B6CBEA"></path>
                        </g>
                        <path d="M139.880922,35.7200054 C129.441071,26.8484145 119.421214,20.0148918 110.361343,14.7398918 C92.5415969,4.4896077 81.9817475,1.49244861 75.4418408,0.23364179 C68.8419349,-1.08510821 65.6619803,3.47057361 64.6419948,6.58761906 L59.0620744,31.1043804 C64.3419991,33.8018236 70.0419178,36.6191532 74.4818545,40.4555168 L75.6218382,37.5183009 C76.4018271,35.5401759 78.441798,35.1205736 80.6617664,36.3793804 C80.9017629,36.4992668 81.1417595,36.6790963 81.3817561,36.7989827 C90.6216243,43.5126191 98.4815122,48.6677327 105.081418,52.4441532 C150.980764,78.9390395 140.540912,37.5183009 139.880922,35.7200054 Z" fill="#3A3A77"></path>
                        <g transform="translate(0.000000, 5.394886)">
                            <path d="M6.62282222,60.8961418 C14.842705,62.3347782 17.7826631,64.7924486 25.2825561,60.5964259 L35.0024175,65.6915963 C35.0024175,65.6915963 35.7824064,75.7021077 32.5424526,78.2197213 C29.6624937,80.5575054 22.5225955,75.2225622 14.6627076,73.5441532 C13.1027298,73.2444372 11.6027512,72.824835 10.1027726,72.16546 C7.04281623,70.7268236 2.0028881,67.9094941 0.142914629,64.5526759 C0.142914629,64.5526759 -1.53706141,59.5773918 6.62282222,60.8961418 Z" fill="#2A2A5E"></path>
                            <path d="M36.2024004,6.58761906 C37.1623867,3.47057361 40.3423413,-1.08510821 46.9422472,0.23364179 C53.482154,1.49244861 64.0420034,4.4896077 81.8617492,14.7398918 C90.92162,19.9549486 100.941477,26.8484145 111.381328,35.7200054 C112.041319,37.5183009 122.541169,78.9390395 76.5818245,52.4441532 C69.9819187,48.6077895 62.1220307,43.5126191 52.8821625,36.7989827 C52.6421659,36.6790963 52.4021694,36.4992668 52.1621728,36.3793804 C49.9422044,35.0606304 47.9022335,35.4802327 47.1222447,37.5183009 L35.7224072,67.8495509 C34.2824278,68.3290963 25.5825518,68.3290963 23.5425809,61.6754032 L36.2024004,6.58761906 Z" fill="#4C4A8B"></path>
                        </g>
                    </g>
                    <g transform="translate(11.759832, 147.661555)">
                        <g>
                            <polygon fill="#1E72C6" points="94.0786584 54.6681818 0 0 0.299995722 113.472443 94.4386532 168.140625"></polygon>
                            <polygon fill="#6B9EF9" points="94.0786584 54.6681818 94.4386532 168.140625 179.397442 119.107102 179.097446 5.63465909"></polygon>
                            <g transform="translate(98.338598, 12.947727)" fill="#DEE7F8">
                                <polygon points="0.239996577 116.529545 0.299995722 147.87983 76.7989048 103.761648 76.7389056 72.4113636"></polygon>
                                <polygon points="0 44.1181818 0.119998289 75.4684659 76.6189073 31.3502841 76.4989091 0"></polygon>
                            </g>
                        </g>
                        <polygon fill="#DEE7F8" points="98.4585959 93.2715909 98.518595 124.621875 175.017504 80.5036932 174.957505 49.1534091"></polygon>
                        <g transform="translate(125.878205, 41.240909)" fill="#6262AA">
                            <polygon points="21.7196903 78.7653409 0 91.2934659 0 84.8795455 21.7196903 72.4113636"></polygon>
                            <polygon points="21.599692 42.6196023 0 55.0877841 0 48.6738636 21.599692 36.2056818"></polygon>
                            <polygon points="0 12.4082386 21.4796937 0 21.5396928 6.41392045 0 18.8221591"></polygon>
                        </g>
                    </g>
                    <g transform="translate(0.000000, 4.891882)">
                        <path d="M0,134.377628 L0.0599991444,143.848651 C0.0599991444,145.287287 1.01998545,146.66598 2.87995893,147.744957 L108.538452,209.126776 C112.258399,211.28473 118.318313,211.28473 122.098259,209.126776 L345.355075,80.3088778 C347.275048,79.2299006 348.175035,77.7912642 348.175035,76.3526278 L348.175035,66.9415483 C348.175035,68.3202415 347.215048,69.7588778 345.355075,70.8378551 L122.098259,199.59581 C118.318313,201.813707 112.258399,201.813707 108.478453,199.59581 L2.87995893,138.273935 C1.01998545,137.194957 0,135.756321 0,134.377628 Z" fill="#83A1CC"></path>
                        <path d="M2.87995893,130.421378 C-0.899987165,132.579332 -0.899987165,136.11598 2.87995893,138.273935 L108.478453,199.655753 C112.258399,201.813707 118.318313,201.813707 122.098259,199.655753 L345.355075,70.8378551 C349.075022,68.6799006 349.135021,65.1432528 345.355075,62.9852983 L239.756581,1.6634233 C235.976635,-0.554474432 229.916721,-0.554474432 226.136775,1.6634233 L2.87995893,130.421378 Z" fill="#B6CBEA"></path>
                    </g>
                    <g transform="translate(121.438268, 0.000000)">
                        <g>
                            <g>
                                <path d="M3.05995636,47.8561575 L85.3187833,0.441100722 C86.1587713,-0.0983879141 86.9387602,-0.0983879141 87.5387516,0.201327995 L90.2987123,1.8197939 C89.75872,1.52007799 88.9787311,1.52007799 88.0787439,2.05956663 L86.458767,2.95871436 L88.1387431,5.59621436 L88.2587413,61.4632598 L5.99991444,108.878317 L2.93995807,110.676612 C2.93995807,111.635703 3.2399538,112.355021 3.83994524,112.654737 L1.01998545,111.036271 C0.479993155,110.736555 0.119998289,110.017237 0.119998289,109.058146 L0,53.1911007 C0,51.2729189 1.37998032,48.8152484 3.05995636,47.8561575 Z" fill="#6262AA"></path>
                                <path d="M88.0787439,2.05956663 C89.8187191,1.04053254 91.1986994,1.8197939 91.1986994,3.7979189 L91.3786969,59.6649644 C91.3786969,61.6430894 89.9987165,64.0408166 88.2587413,64.9999075 L6.05991358,112.414964 C4.31993839,113.433998 2.93995807,112.654737 2.93995807,110.676612 L2.75996064,54.8095666 C2.75996064,52.8314416 4.13994096,50.4337144 5.87991615,49.4746234 L88.0787439,2.05956663 Z" fill="#2A2A5E"></path>
                                <polygon fill="#DEE7F8" points="5.87991615 53.0112712 5.99991444 108.878317 88.2587413 61.4632598 88.1387431 5.59621436"></polygon>
                            </g>
                            <g transform="translate(4.739932, 64.257940)">
                                <path d="M0,49.9553194 L0,54.3311716 C0,54.9306035 0.41999401,55.5899785 1.31998118,56.0695239 L49.6192924,84.122933 C51.3592676,85.1419671 54.1192282,85.1419671 55.7992043,84.122933 L138.058031,36.7078762 C138.898019,36.2283307 139.318013,35.5689557 139.318013,34.9095807 L139.318013,30.5936716 C139.318013,29.9342966 138.898019,29.2749216 138.058031,28.7953762 L89.6987208,0.74196709 C88.0187448,-0.277067001 85.2587841,-0.217123819 83.5188089,0.74196709 L1.31998118,48.1570239 C0.41999401,48.6965125 0,49.3558875 0,49.9553194 Z" fill="#83A1CC"></path>
                                <g>
                                    <g>
                                        <path d="M0,49.9553194 L0,54.3311716 C0,54.9306035 0.41999401,55.5899785 1.31998118,56.0695239 L49.6192924,84.122933 C51.3592676,85.1419671 54.1192282,85.1419671 55.7992043,84.122933 L138.058031,36.7078762 C138.898019,36.2283307 139.318013,35.5689557 139.318013,34.9095807 L139.318013,30.5936716 C139.318013,31.2530466 138.898019,31.9124216 138.058031,32.3919671 L55.7992043,79.8070239 C54.0592291,80.826058 51.2992684,80.826058 49.6192924,79.8070239 L1.25998203,51.7536148 C0.41999401,51.2740694 0,50.6146944 0,49.9553194 Z" fill="#3887E5"></path>
                                        <path d="M1.31998118,48.1570239 C-0.41999401,49.176058 -0.41999401,50.7945239 1.25998203,51.7536148 L49.6192924,79.8070239 C51.2992684,80.826058 54.0592291,80.826058 55.7992043,79.8070239 L138.058031,32.3919671 C139.738007,31.372933 139.738007,29.8144103 138.058031,28.7953762 L89.6987208,0.74196709 C88.0187448,-0.277067001 85.2587841,-0.217123819 83.5188089,0.74196709 L1.31998118,48.1570239 Z" fill="#A6C2FF"></path>
                                    </g>
                                    <path d="M65.8190614,51.9933875 L91.9786883,36.9476489 C92.5186806,36.5879898 93.4186678,36.5879898 93.9586601,36.8877057 L106.678479,44.3206603 C107.218471,44.6203762 107.218471,45.1598648 106.61848,45.4595807 L80.5188517,60.5053194 C79.9788594,60.8649785 79.0788723,60.8649785 78.53888,60.5053194 L65.8190614,53.132308 C65.2790691,52.8325921 65.2790691,52.2931035 65.8190614,51.9933875 Z" fill="#6B9EF9"></path>
                                </g>
                            </g>
                        </g>
                        <g transform="translate(15.839774, 70.454737)">
                            <polygon fill="#DEE7F8" points="0 41.3607955 28.259597 57.7252841 99.9585745 16.3644886 71.6989775 0"></polygon>
                            <g transform="translate(3.479950, 0.689347)" fill="#3A3A77">
                                <polygon points="64.6790776 12.018608 68.2790263 14.1166193 72.1789707 11.8987216 68.5190229 9.80071023"></polygon>
                                <polygon points="57.779176 10.699858 61.4391238 12.7978693 65.2790691 10.5799716 61.6191213 8.48196023"></polygon>
                                <polygon points="68.0990288 15.315483 71.6989775 17.4734375 75.5989219 15.1955966 71.9389741 13.0975852"></polygon>
                                <g transform="translate(65.279069, 21.729403)">
                                    <polygon points="4.7399324 3.05710227 8.39988021 5.15511364 12.2398254 2.93721591 8.57987764 0.839204545"></polygon>
                                    <polygon points="0 5.81448864 3.59994866 7.9125 7.49989304 5.69460227 3.83994524 3.59659091"></polygon>
                                </g>
                                <polygon points="74.818933 22.0291193 78.4188817 24.1271307 82.3188261 21.909233 78.6588783 19.8112216"></polygon>
                                <polygon points="79.5588654 19.271733 83.2188132 21.4296875 87.0587585 19.1518466 83.3988107 17.0538352"></polygon>
                                <g transform="translate(72.838961, 8.302131)">
                                    <polygon points="0 4.31590909 3.65994781 6.41392045 11.0998417 2.09801136 7.4398939 0"></polygon>
                                    <polygon points="2.1599692 8.33210227 5.75991786 10.4301136 15.6597767 4.73551136 12.059828 2.6375"></polygon>
                                </g>
                                <polygon points="69.41901 9.26122159 73.0789578 11.359233 79.378868 7.76264205 75.7189202 5.6046875"></polygon>
                                <polygon points="62.5191084 7.94247159 66.1790562 10.040483 70.0190015 7.82258523 66.4190528 5.72457386"></polygon>
                                <polygon points="67.31904 5.18508523 70.9189886 7.34303977 74.818933 5.06519886 71.1589852 2.9671875"></polygon>
                                <polygon points="43.4993797 18.972017 47.0993283 21.0700284 50.9992727 18.8521307 47.3393249 16.6941761"></polygon>
                                <polygon points="45.299354 14.4762784 47.3393249 15.675142 51.1792701 13.4572443 49.1392992 12.2583807"></polygon>
                                <polygon points="55.1392137 17.5333807 58.7991615 19.631392 62.6391067 17.4134943 58.9791589 15.2555398"></polygon>
                                <polygon points="50.3992813 20.290767 53.9992299 22.3887784 57.8991743 20.1708807 54.2392265 18.0129261"></polygon>
                                <polygon points="48.2393121 16.2146307 51.8992599 18.312642 55.7392051 16.0947443 52.1392564 13.996733"></polygon>
                                <polygon points="50.0392864 11.718892 52.0792573 12.9177557 55.9792017 10.699858 53.9392308 9.50099432"></polygon>
                                <polygon points="59.8791461 14.7759943 63.5390939 16.8740057 67.3790391 14.656108 63.7790905 12.5580966"></polygon>
                                <polygon points="53.0392436 13.4572443 56.6391923 15.5552557 60.5391367 13.337358 56.8791888 11.2393466"></polygon>
                                <polygon points="24.4196518 29.9416193 28.0795996 32.0396307 31.9195448 29.821733 28.3195961 27.7237216"></polygon>
                                <polygon points="55.9192025 27.6038352 59.5791503 29.7617898 63.4190956 27.543892 59.8191469 25.3859375"></polygon>
                                <polygon points="70.1989989 19.3916193 73.8589467 21.4896307 77.6988919 19.271733 74.0989433 17.1737216"></polygon>
                                <polygon points="63.2990973 18.0728693 66.9590451 20.2308239 70.7989903 17.952983 67.1990417 15.8549716"></polygon>
                                <polygon points="65.4590665 22.1490057 69.1190143 24.247017 72.9589595 22.0291193 69.2990117 19.931108"></polygon>
                                <polygon points="60.7191341 24.906392 64.3190827 27.0044034 68.2190271 24.7865057 64.5590793 22.6285511"></polygon>
                                <polygon points="53.7592333 23.587642 57.4191811 25.6856534 61.2591264 23.4677557 57.6591777 21.3697443"></polygon>
                                <polygon points="49.0193009 26.3450284 52.6792487 28.4430398 56.519194 26.225142 52.8592462 24.1271307"></polygon>
                                <polygon points="45.5993497 22.9882102 49.2592975 25.1461648 53.0992428 22.8683239 49.4992941 20.7703125"></polygon>
                                <polygon points="21.7796894 36.775142 25.4396372 38.8731534 29.2795824 36.6552557 25.6196346 34.4973011"></polygon>
                                <polygon points="25.1996406 40.072017 28.8595884 42.1700284 32.6995337 39.9521307 29.0395859 37.8541193"></polygon>
                                <polygon points="51.1792701 30.3612216 54.7792188 32.5191761 58.6791632 30.2413352 55.0192154 28.1433239"></polygon>
                                <polygon points="23.279668 54.218608 24.7796466 55.0578125 28.8595884 52.7799716 27.2996107 51.8808239"></polygon>
                                <polygon points="27.9596013 51.4612216 29.519579 52.3603693 33.5395217 50.0225852 31.9795439 49.1234375"></polygon>
                                <polygon points="32.6995337 48.7637784 34.1995123 49.6629261 38.2794541 47.325142 36.7194763 46.4259943"></polygon>
                                <polygon points="60.4791375 30.3012784 64.1390853 32.3992898 67.9790306 30.181392 64.3790819 28.0833807"></polygon>
                                <polygon points="55.7392051 33.0586648 59.3391538 35.1566761 63.2390982 32.9387784 59.5791503 30.7808239"></polygon>
                                <g transform="translate(29.939573, 22.688494)">
                                    <polygon points="10.9198443 3.05710227 14.5197929 5.15511364 18.4197373 2.93721591 14.7597895 0.839204545"></polygon>
                                    <polygon points="6.11991272 5.81448864 9.77986053 7.9125 13.6198058 5.69460227 10.0198571 3.59659091"></polygon>
                                    <polygon points="14.3397955 6.41392045 17.9397442 8.51193182 21.8396885 6.29403409 18.1797407 4.13607955"></polygon>
                                    <polygon points="1.37998032 8.571875 5.03992813 10.6698864 8.87987336 8.45198864 5.21992556 6.35397727"></polygon>
                                    <polygon points="16.4397656 10.4301136 20.0997134 12.528125 23.9396586 10.3102273 20.3397099 8.21221591"></polygon>
                                    <polygon points="4.79993155 11.86875 8.39988021 14.0267045 12.2998246 11.7488636 8.63987679 9.65085227"></polygon>
                                    <polygon points="20.9997005 13.0676136 24.6596483 15.2255682 28.5595927 12.9477273 24.8996449 10.8497159"></polygon>
                                    <polygon points="0 14.6261364 3.65994781 16.7241477 7.49989304 14.50625 3.89994438 12.4082386"></polygon>
                                    <polygon points="16.2597681 15.825 19.9197159 17.9230114 23.7596612 15.7051136 20.0997134 13.6071023"></polygon>
                                    <polygon points="11.5198357 18.5823864 15.1197844 20.6803977 19.0197288 18.4625 15.359781 16.3644886"></polygon>
                                    <polygon points="2.1599692 18.7022727 5.819917 20.8002841 9.65986224 18.5823864 5.99991444 16.484375"></polygon>
                                    <polygon points="5.51992128 22.0590909 9.17986909 24.1571023 14.2197972 21.2198864 10.6198486 19.121875"></polygon>
                                </g>
                                <polygon points="29.2195833 27.184233 32.819532 29.2822443 36.7194763 27.0643466 33.0595285 24.9663352"></polygon>
                                <polygon points="40.5594216 17.2336648 42.5993925 18.4325284 46.4393377 16.2146307 44.3993668 15.015767"></polygon>
                                <g transform="translate(30.959558, 16.484375)">
                                    <polygon points="4.79993155 3.50667614 6.83990246 4.70553977 10.7398468 2.42769886 8.69987593 1.28877841"></polygon>
                                    <polygon points="0.0599991444 6.2640625 2.09997005 7.40298295 5.93991529 5.18508523 3.89994438 4.04616477"></polygon>
                                </g>
                                <polygon points="33.9595157 24.4268466 37.6194635 26.5848011 41.4594088 24.3069602 37.7994609 22.2089489"></polygon>
                                <polygon points="38.6994481 21.6694602 42.3593959 23.8274148 46.1993412 21.609517 42.5993925 19.4515625"></polygon>
                                <g transform="translate(11.879831, 27.453977)">
                                    <polygon points="4.85993069 3.50667614 6.83990246 4.70553977 10.7398468 2.48764205 8.69987593 1.28877841"></polygon>
                                    <polygon points="0.0599991444 6.2640625 2.09997005 7.46292614 5.93991529 5.24502841 3.95994353 4.04616477"></polygon>
                                </g>
                                <polygon points="19.6797193 32.6990057 23.279668 34.797017 27.1796124 32.5791193 23.5196646 30.481108"></polygon>
                                <polygon points="17.039757 39.4725852 20.6397057 41.6305398 24.53965 39.412642 20.8797022 37.2546875"></polygon>
                                <g transform="translate(0.000000, 32.968750)">
                                    <polygon points="7.19989732 3.50667614 9.23986823 4.70553977 13.0798135 2.48764205 11.0398426 1.28877841"></polygon>
                                    <polygon points="10.1398554 5.24502841 13.7998032 7.34303977 17.6397484 5.12514205 13.9798006 2.9671875"></polygon>
                                    <polygon points="0 7.64275568 2.03997091 8.84161932 8.33988107 5.18508523 6.29991016 4.04616477"></polygon>
                                    <polygon points="12.2398254 9.26122159 15.8997733 11.4191761 19.7397185 9.14133523 16.1397698 7.04332386"></polygon>
                                    <polygon points="2.93995807 9.38110795 6.53990673 11.4791193 12.8398169 7.82258523 9.23986823 5.72457386"></polygon>
                                    <polygon points="12.059828 14.656108 15.7197758 16.8140625 23.1596697 12.4981534 19.4997219 10.400142"></polygon>
                                </g>
                                <polygon points="14.8797878 35.456392 18.5397356 37.5544034 22.3796808 35.3365057 18.7797322 33.2384943"></polygon>
                                <polygon points="54.8392179 9.02144886 56.8791888 10.1603693 60.7191341 7.94247159 58.6791632 6.74360795"></polygon>
                                <polygon points="59.5791503 6.2640625 61.6191213 7.40298295 65.5190656 5.18508523 63.4790947 4.04616477"></polygon>
                                <polygon points="64.3790819 3.50667614 66.4190528 4.70553977 70.258998 2.42769886 68.2190271 1.28877841"></polygon>
                                <polygon points="21.4796937 28.203267 23.5196646 29.4021307 27.3596098 27.184233 25.3196389 25.9853693"></polygon>
                                <polygon points="26.2196261 25.5058239 28.259597 26.6447443 32.1595414 24.4268466 30.1195705 23.227983"></polygon>
                                <polygon points="7.49989304 44.987358 11.1598409 47.0853693 14.9997861 44.8674716 11.3398383 42.7694602"></polygon>
                                <polygon points="26.5196218 34.0177557 30.1795696 36.115767 34.079514 33.8978693 30.4195662 31.799858"></polygon>
                                <polygon points="25.8596312 50.262358 27.419609 51.1615057 31.4395516 48.8237216 29.8795739 47.9245739"></polygon>
                                <g transform="translate(16.619763, 39.772301)">
                                    <polygon points="3.83994524 3.05710227 7.4398939 5.15511364 11.3398383 2.93721591 7.67989048 0.839204545"></polygon>
                                    <polygon points="10.7398468 4.37585227 14.3397955 6.47386364 18.2397399 4.25596591 14.5797921 2.09801136"></polygon>
                                    <polygon points="0 10.55 3.65994781 12.6480114 13.4398083 6.95340909 9.83985967 4.85539773"></polygon>
                                </g>
                                <polygon points="36.8994738 38.6333807 40.4994224 40.731392 44.3993668 38.5134943 40.739419 36.415483"></polygon>
                                <polygon points="41.6394062 35.8759943 45.299354 37.9740057 49.1392992 35.756108 45.4793514 33.6580966"></polygon>
                                <polygon points="39.479437 31.799858 43.1393848 33.9578125 46.97933 31.7399148 43.3793814 29.5819602"></polygon>
                                <polygon points="58.5591649 20.8302557 62.1591136 22.928267 66.0590579 20.7103693 62.3991101 18.612358"></polygon>
                                <polygon points="84.2987978 16.5143466 87.9587456 18.6723011 93.0586729 15.675142 89.4587242 13.5771307"></polygon>
                            </g>
                        </g>
                    </g>
                    <g transform="translate(157.548812, 22.261670)">
                        <g>
                            <path d="M108.007401,57.7240328 L103.507465,44.5365328 C103.507465,44.5365328 92.0476282,40.4004533 91.9276299,36.1444874 C91.8676308,31.8885215 87.3076958,13.9655101 91.8076316,9.64960101 C96.3075674,5.33369191 133.567036,20.3794306 131.527065,30.1501692 C130.627078,34.4061351 131.347068,50.8305669 128.887103,56.4052828 C128.887103,56.4052828 123.187184,63.718351 108.007401,57.7240328 Z" fill="#ECB4BF"></path>
                            <path d="M147.006844,58.2635215 C147.006844,43.4575556 130.207084,46.574601 130.207084,46.574601 C121.38721,56.9447715 106.807418,54.3072715 106.807418,54.3072715 C106.807418,54.3072715 96.2475683,58.3234646 88.8676735,62.8791465 C83.1077557,66.355851 90.307653,73.1893737 82.387766,76.9657942 L82.387766,105.199033 L80.4077942,105.199033 C80.7077899,106.817499 80.8877873,108.435965 80.9477865,110.054431 L81.1277839,116.048749 C84.067742,125.160112 85.0277283,142.124033 83.9477437,151.714942 C83.7677463,153.153578 83.4677506,154.592215 83.0477565,155.970908 C80.347795,165.322044 88.2676821,174.433408 97.9275443,173.294487 C114.36731,171.316362 131.107071,160.766362 140.886932,153.573181 C146.166856,149.676874 149.166814,143.442783 148.866818,136.908976 C147.846832,115.928862 147.006844,70.312101 147.006844,58.2635215 Z" fill="#3887E5"></path>
                            <path d="M129.847089,4.79420328 C124.86716,-1.49983081 113.887317,-0.960342177 105.187441,2.7561351 C100.987501,4.55443055 94.3275957,4.85414646 91.567635,5.57346464 C87.3676949,6.7123851 84.7277326,11.7476124 86.2277112,16.0635215 C87.6676907,20.3794306 92.5876205,21.518351 94.447594,23.2567033 C97.3275529,25.9541465 98.2275401,31.1692033 98.5875349,33.8067033 C98.9475298,36.3842601 100.927502,36.0845442 102.727476,35.8447715 C104.587449,35.6049987 104.587449,30.3299987 106.687419,27.6325556 C108.787389,24.8751692 110.767361,22.3575556 110.587364,36.5640896 C110.587364,36.683976 110.587364,36.8638056 110.587364,36.9836919 C110.767361,49.1521578 128.587107,54.7268737 133.027044,43.3376692 C144.186885,14.9845442 129.847089,4.79420328 129.847089,4.79420328 Z" fill="#A0533F"></path>
                            <path d="M0.788929632,102.141931 C2.40890653,101.962101 11.348779,103.940226 11.8287722,104.000169 C11.8287722,104.000169 11.9487705,103.940226 11.9487705,103.760396 C11.9487705,103.64051 11.8287722,103.520624 11.4687773,103.340794 C10.6287893,103.101021 2.40890653,101.18284 2.28890824,101.062953 C2.2289091,101.00301 2.10891081,100.763237 2.10891081,100.583408 C2.04891166,100.223749 2.2289091,99.8640896 3.12889626,99.983976 C4.62887487,100.163806 9.18880984,100.283692 13.2087525,101.542499 C15.8487149,102.32176 16.2687089,102.201874 16.2087097,101.962101 C16.2087097,101.782271 16.0287123,101.662385 16.0287123,101.602442 C15.9687132,101.542499 14.4087354,100.223749 13.9887414,99.983976 C13.6887457,99.8640896 12.4287636,98.4853965 12.3087653,97.346476 C12.2487662,96.8069874 12.3687645,96.3274419 12.9087568,95.9677828 C12.9687559,96.027726 13.6887457,96.6271578 14.2887371,97.4064192 C15.0087268,98.1856806 17.9486849,99.7442033 18.1886815,99.8041465 C18.1886815,99.8640896 19.9886558,100.643351 21.4886344,102.261817 C22.2086242,102.981135 22.988613,103.520624 23.9485994,103.940226 C40.7483598,107.896476 51.6082049,109.754715 65.5880055,109.874601 C73.5078926,88.6547146 76.0278567,75.4672146 81.9677719,70.1922146 C85.747718,66.8953396 91.3876376,64.2578396 95.6475769,65.696476 C100.387509,67.3149419 102.247483,70.3720442 100.147513,78.8240328 C95.287582,98.8450556 78.6078199,123.361817 72.0679131,125.999317 C64.8080167,128.87659 42.8483298,120.544487 26.6485608,114.010681 C23.2286096,112.572044 19.3286652,111.73284 15.1287251,111.493067 C14.5887328,111.493067 14.228738,111.433124 14.1687388,111.433124 C13.9287422,111.433124 5.52886204,110.23426 5.10886803,109.754715 C4.92887059,109.574885 4.86887145,109.395056 4.86887145,109.215226 C4.8088723,108.975453 5.04886888,108.675737 5.64886032,108.615794 C6.48884835,108.555851 12.9687559,109.574885 13.1487534,109.454999 C13.2087525,109.454999 13.2687517,109.395056 13.2687517,109.275169 C13.2687517,109.155283 13.0887542,108.975453 12.5487619,108.795624 C11.5887756,108.555851 1.98891252,107.476874 1.86891423,106.27801 C2.04891166,105.079146 2.52890482,105.079146 3.66888856,105.318919 C4.74887316,105.498749 11.4087782,106.577726 11.7087739,106.637669 C11.7087739,106.637669 11.8887713,106.577726 11.8287722,106.517783 C11.8287722,106.45784 11.7087739,106.337953 11.348779,106.158124 C10.6287893,105.858408 2.40890653,104.419771 0.48893391,103.520624 C0.188938188,103.400737 0.00894075491,103.160965 0.00894075491,102.921192 C-0.0510583895,102.561533 0.188938188,102.201874 0.788929632,102.141931 Z" fill="#ECB4BF"></path>
                            <path d="M70.2679388,95.0686351 C72.007914,88.1751692 76.0278567,76.4263056 77.4678361,73.2493169 C81.4277796,64.6174987 94.1475982,58.9828396 99.9675153,61.8001692 C105.847431,64.6174987 108.607392,71.1513056 104.707448,79.7231806 C103.387466,82.5405101 97.1475555,94.8288624 92.8276171,100.523465 C79.9878002,101.542499 70.3279379,95.0686351 70.2679388,95.0686351 Z" fill="#6B9EF9"></path>
                        </g>
                        <g transform="translate(33.728460, 84.518635)">
                            <path d="M62.4591093,116.289773 L134.578081,74.4494318 C135.838063,73.7301136 136.798049,72.2914773 137.098045,70.1934659 L147.2379,5.87443182 L75.1189287,47.7147727 L64.9790733,112.09375 C64.6190785,114.131818 63.7190913,115.570455 62.4591093,116.289773 Z" fill="#9EB5DF"></path>
                            <path d="M71.4589809,42.0201705 C71.6389784,41.9002841 71.8789749,41.8403409 72.1789707,41.8403409 L85.3787824,42.4997159 C85.7387773,42.5596591 86.038773,42.6795455 86.3387687,42.859375 C87.2387559,43.3389205 88.0187448,44.3579545 88.3787396,45.5568182 C88.7987336,46.815625 88.6187362,47.8346591 87.9587456,48.1943182 L160.077717,6.35397727 C160.737708,5.934375 160.917705,4.91534091 160.497711,3.65653409 C160.137716,2.51761364 159.297728,1.49857955 158.45774,0.959090909 C158.157745,0.779261364 157.79775,0.659375 157.497754,0.659375 L144.237943,0 C143.997946,0 143.75795,0.0599431818 143.577952,0.119886364 L71.4589809,42.0201705 Z" fill="#B6CBEA"></path>
                            <g transform="translate(0.000000, 41.840341)">
                                <path d="M86.3387687,1.01903409 C86.038773,0.839204545 85.6787781,0.719318182 85.3787824,0.719318182 L72.1189715,0 C71.4589809,0 70.9789878,0.419602273 70.8589895,1.19886364 L60.4791375,66.8366477 C60.1191426,69.1744318 58.19917,69.89375 55.9792017,68.6349432 L14.5197929,44.7176136 C14.0397998,44.4178977 13.6198058,44.3579545 13.1998118,44.4178977 L3.29995294,46.7556818 C2.27996749,46.9954545 2.03997091,48.4940341 2.75996064,50.1125 C3.17995465,51.0715909 3.89994438,51.8508523 4.61993412,52.2704545 C5.03992813,52.5102273 5.51992128,52.6301136 5.93991529,52.5701705 L15.2397827,50.2923295 L55.9792017,73.85 C60.4791375,76.4275568 64.1990845,74.8690341 64.9790733,70.2534091 L75.1189287,5.87443182 L87.298755,6.53380682 C88.4387388,6.59375 88.9187319,5.33494318 88.3787396,3.71647727 C88.0187448,2.51761364 87.1787567,1.49857955 86.3387687,1.01903409 Z" fill="#83A1CC"></path>
                                <g transform="translate(0.000000, 38.233583)">
                                    <path d="M19.3797236,6.42408702 C19.1997262,6.54397338 19.0797279,6.72380293 19.0197288,6.96357566 L3.05995636,61.3320416 L7.4398939,58.7544847 L23.3996663,4.38601884 C23.5196646,4.14624611 23.6396629,3.96641657 23.8196603,3.90647338 L19.3797236,6.42408702 Z" fill="#B6CBEA"></path>
                                    <path d="M56.6391923,87.1076097 L52.1992556,89.6851666 L47.6993198,23.5078938 C47.4593232,20.7505075 45.5993497,17.633462 43.2593831,16.314712 L20.4597082,3.12721202 C19.2597253,2.46783702 18.1197416,2.40789384 17.2797536,2.88743929 L21.7196903,0.309882476 C22.4996791,-0.169662979 23.6396629,-0.109719797 24.8396458,0.609598385 L47.6993198,13.7371552 C49.9792872,15.1158484 51.8992599,18.1729507 52.0792573,20.930337 L56.6391923,87.1076097 Z" fill="#9EB5DF"></path>
                                    <path d="M43.2593831,16.314712 C45.5993497,17.633462 47.4593232,20.7505075 47.6393206,23.5078938 L52.1992556,89.6851666 L49.2592975,87.9468143 L44.6993625,22.0692575 C44.6393634,21.1701097 44.039372,20.1510757 43.2593831,19.6715302 L20.4597082,6.54397338 C19.7997176,6.18431429 19.1997262,6.30420066 19.0197288,6.96357566 L3.05995636,61.3320416 L0,59.5337461 L16.199769,4.38601884 C16.7397613,2.5277802 18.4797365,2.04823475 20.4597082,3.1871552 L43.2593831,16.314712 Z" fill="#83A1CC"></path>
                                </g>
                            </g>
                        </g>
                    </g>
                    <g transform="translate(137.338041, 17.105305)">
                        <polygon fill="#6B9EF9" points="47.399324 9.59090909 47.399324 17.3235795 52.1392564 14.5661932 52.1992556 41.2409091 47.4593232 43.9383523 47.5193223 51.6710227 64.1390853 42.0801136 64.0790862 34.3474432 59.3391538 37.1048295 59.2791546 10.4900568 64.019087 7.73267045 64.019087 0"></polygon>
                        <polygon fill="#6B9EF9" points="0 36.925 0.0599991444 44.6576705 4.79993155 41.9002841 4.85993069 68.575 0.119998289 71.2724432 0.119998289 79.0051136 16.7397613 69.4142045 16.7397613 61.6815341 11.9998289 64.4389205 11.9398297 37.7642045 16.6797621 35.0667614 16.619763 27.3340909"></polygon>
                        <polygon fill="#9EB5DF" points="36.2394832 25.05625 36.2394832 27.3940341 45.0593574 22.3588068 45.0593574 19.9610795"></polygon>
                        <polygon fill="#9EB5DF" points="19.0797279 40.4017045 19.0797279 42.7394886 24.5996492 39.5625 24.53965 37.2247159"></polygon>
                        <polygon fill="#9EB5DF" points="19.0797279 56.6463068 19.139727 59.0440341 26.2196261 54.9079545 26.2196261 52.5701705"></polygon>
                        <polygon fill="#9EB5DF" points="19.0797279 51.2514205 19.0797279 53.5892045 27.7196047 48.6139205 27.7196047 46.2761364"></polygon>
                        <polygon fill="#9EB5DF" points="19.0797279 45.7965909 19.0797279 48.1943182 35.4594943 38.7232955 35.4594943 36.3255682"></polygon>
                        <polygon fill="#9EB5DF" points="27.9596013 51.5511364 28.0196004 53.8889205 38.3994524 47.8946023 38.3994524 45.5568182"></polygon>
                        <polygon fill="#9EB5DF" points="29.519579 45.1971591 29.5795782 47.5948864 45.1193566 38.6034091 45.0593574 36.265625"></polygon>
                        <polygon fill="#9EB5DF" points="37.0794712 35.4264205 37.0794712 37.8241477 45.0593574 33.2085227 45.0593574 30.8107955"></polygon>
                        <polygon fill="#9EB5DF" points="27.839603 35.3065341 27.839603 37.7042614 45.0593574 27.7536932 45.0593574 25.4159091"></polygon>
                        <polygon fill="#9EB5DF" points="19.0197288 34.946875 19.0197288 37.3446023 34.2595114 28.5928977 34.2595114 26.1951705"></polygon>
                        <polygon fill="#9EB5DF" points="40.0794284 44.5977273 40.0794284 46.9355114 45.1193566 44.0582386 45.1193566 41.6605114"></polygon>
                    </g>
                </g>
                <g transform="translate(87.178757, 136.272351)" id="路径">
                    <g>
                        <path d="M0,16.2446023 L0.0599991444,20.6204545 C0.0599991444,20.9801136 0.239996577,21.3397727 0.719989732,21.5795455 L35.0395003,41.540625 C35.9394875,42.0801136 37.4394661,42.0801136 38.3394532,41.540625 L64.1390853,26.6147727 C64.6190785,26.375 64.859075,26.0153409 64.859075,25.6556818 L64.859075,21.2798295 C64.859075,21.6394886 64.6190785,21.9991477 64.1390853,22.2389205 L38.3394532,37.1048295 C37.4394661,37.6443182 35.9394875,37.6443182 35.0395003,37.1048295 L0.719989732,17.14375 C0.239996577,16.9039773 0,16.5443182 0,16.2446023 Z" fill="#2A2A5E"></path>
                        <path d="M0.719989732,15.2855114 C-0.179997433,15.825 -0.179997433,16.6642045 0.719989732,17.14375 L35.0395003,37.1048295 C35.9394875,37.6443182 37.4394661,37.6443182 38.3394532,37.1048295 L64.1390853,22.2389205 C65.0390725,21.6994318 65.0390725,20.8602273 64.1390853,20.3207386 L29.8195747,0.359659091 C28.9195876,-0.119886364 27.419609,-0.119886364 26.5196218,0.359659091 L0.719989732,15.2855114 Z" fill="#3A3A77"></path>
                    </g>
                    <g transform="translate(2.459965, 1.258807)">
                        <path d="M36.8994738,12.0485795 C36.7194763,12.1684659 36.7194763,12.2883523 36.8994738,12.4082386 L41.3994096,14.9857955 C41.579407,15.1056818 41.8794028,15.1056818 42.0594002,14.9857955 L46.559336,12.4082386 C46.7393335,12.2883523 46.7393335,12.1684659 46.559336,12.0485795 L42.0594002,9.41107955 C41.8794028,9.35113636 41.579407,9.35113636 41.4594088,9.41107955 L36.8994738,12.0485795 Z" fill="#DEE7F8"></path>
                        <g>
                            <path d="M30.2395688,8.15227273 C30.0595713,8.27215909 30.0595713,8.45198864 30.2395688,8.571875 L34.7395046,11.1494318 C34.919502,11.2693182 35.2194977,11.2693182 35.3994952,11.1494318 L39.899431,8.51193182 C40.0794284,8.45198864 40.0794284,8.27215909 39.899431,8.15227273 L35.3994952,5.57471591 C35.2194977,5.45482955 34.9795012,5.45482955 34.7995037,5.57471591 L30.2395688,8.15227273 Z" fill="#DEE7F8"></path>
                            <path d="M23.3996663,12.1684659 C23.2196689,12.2284091 23.2196689,12.4082386 23.3996663,12.528125 L27.839603,15.1056818 C28.0196004,15.2255682 28.3195961,15.2255682 28.4995936,15.1056818 L32.9995294,12.528125 C33.1795268,12.4082386 33.1795268,12.2284091 32.9995294,12.1684659 L28.4995936,9.53096591 C28.3795953,9.41107955 28.0795996,9.41107955 27.8996021,9.53096591 L23.3996663,12.1684659 Z" fill="#DEE7F8"></path>
                            <path d="M29.9995722,16.0048295 C29.8795739,16.1247159 29.8795739,16.2446023 29.9995722,16.3644886 L34.499508,19.0019886 C34.6795054,19.0619318 34.9795012,19.0619318 35.1594986,19.0019886 L39.6594344,16.3644886 C39.8394319,16.2446023 39.8394319,16.1247159 39.6594344,16.0048295 L35.1594986,13.4272727 C35.0395003,13.3073864 34.7395046,13.3073864 34.5595071,13.4272727 L29.9995722,16.0048295 Z" fill="#DEE7F8"></path>
                            <path d="M16.4997647,16.1247159 C16.3197673,16.2446023 16.3197673,16.3644886 16.4997647,16.484375 L20.9997005,19.0619318 C21.179698,19.1818182 21.4196945,19.1818182 21.599692,19.0619318 L26.0996278,16.484375 C26.2796252,16.3644886 26.2796252,16.2446023 26.1596269,16.1247159 L21.6596911,13.4872159 C21.4796937,13.4272727 21.179698,13.4272727 20.9997005,13.4872159 L16.4997647,16.1247159 Z" fill="#DEE7F8"></path>
                            <polygon fill="#A6C2FF" points="0 14.8659091 7.55989219 19.3017045 33.4195234 4.37585227 25.7996321 0"></polygon>
                            <path d="M9.5998631,20.0809659 C9.41986566,20.2008523 9.41986566,20.3806818 9.5998631,20.440625 L14.0997989,23.078125 C14.2797964,23.1380682 14.5197929,23.1380682 14.6997904,23.078125 L19.2597253,20.440625 C19.4397228,20.3806818 19.4397228,20.2008523 19.2597253,20.0809659 L14.7597895,17.5034091 C14.5797921,17.3835227 14.2797964,17.3835227 14.0997989,17.5034091 L9.5998631,20.0809659 Z" fill="#6B9EF9"></path>
                        </g>
                        <path d="M16.2597681,23.9772727 C16.0797707,24.0372159 16.0797707,24.2170455 16.2597681,24.3369318 L20.7597039,26.9144886 C20.9397014,27.034375 21.179698,27.034375 21.3596954,26.9144886 L25.9196304,24.3369318 C26.0996278,24.2170455 26.0996278,24.0372159 25.9196304,23.9772727 L21.4196945,21.3397727 C21.2396971,21.2198864 20.9397014,21.2198864 20.7597039,21.3397727 L16.2597681,23.9772727 Z" fill="#6B9EF9"></path>
                        <path d="M36.6594772,19.8411932 C36.4794798,19.9610795 36.4794798,20.1409091 36.6594772,20.2607955 L41.159413,22.8383523 C41.3394105,22.9582386 41.6394062,22.9582386 41.8194036,22.8383523 L46.3193394,20.2607955 C46.4993369,20.1409091 46.4993369,19.9610795 46.3193394,19.8411932 L41.8194036,17.2636364 C41.6394062,17.14375 41.3994096,17.14375 41.2194122,17.2636364 L36.6594772,19.8411932 Z" fill="#DEE7F8"></path>
                        <g transform="translate(22.784675, 21.032564)">
                            <path d="M7.03489968,2.82482244 C6.85490224,2.88476563 6.85490224,3.06459517 7.03489968,3.18448153 L11.4748364,5.76203835 C11.6548338,5.88192472 11.9548295,5.88192472 12.1348269,5.76203835 L16.6347628,3.18448153 C16.8147602,3.06459517 16.8147602,2.88476563 16.6347628,2.82482244 L12.1948261,0.187322443 C12.0148287,0.127379261 11.7148329,0.127379261 11.5348355,0.187322443 L7.03489968,2.82482244 Z" fill="#DEE7F8"></path>
                            <path d="M13.6948047,6.66118608 C13.5148073,6.78107244 13.5148073,6.96090199 13.6348056,7.02084517 L18.1347414,9.65834517 C18.3147388,9.71828835 18.6147345,9.71828835 18.794732,9.65834517 L23.2946678,7.02084517 C23.4746652,6.96090199 23.4746652,6.78107244 23.2946678,6.66118608 L18.794732,4.08362926 C18.6147345,3.9637429 18.374738,3.9637429 18.1947405,4.08362926 L13.6948047,6.66118608 Z" fill="#6B9EF9"></path>
                            <path d="M0.134998075,6.78107244 C-0.0449993583,6.90095881 -0.0449993583,7.02084517 0.134998075,7.14073153 L11.2948389,13.6145952 C11.4148372,13.7344815 11.7148329,13.7344815 11.8948304,13.6145952 L16.3947662,11.0370384 C16.5747636,10.917152 16.5747636,10.7373224 16.3947662,10.6174361 L5.29492449,4.20351563 C5.11492706,4.08362926 4.81493133,4.08362926 4.6349339,4.14357244 L0.134998075,6.78107244 Z" fill="#6B9EF9"></path>
                        </g>
                        <path d="M23.1596697,19.9610795 C22.9796723,20.0809659 22.9796723,20.2607955 23.1596697,20.3207386 L27.5996064,22.9582386 C27.7796038,23.078125 28.0795996,23.078125 28.259597,22.9582386 L32.7595328,20.3207386 C32.9395303,20.2607955 32.9395303,20.0809659 32.7595328,19.9610795 L28.3195961,17.3835227 C28.1395987,17.2636364 27.839603,17.2636364 27.6596055,17.3835227 L23.1596697,19.9610795 Z" fill="#DEE7F8"></path>
                        <path d="M43.5593788,15.8849432 C43.3793814,16.0048295 43.3793814,16.1846591 43.5593788,16.2446023 L48.0593146,18.8821023 C48.2393121,19.0019886 48.4793086,19.0019886 48.6593061,18.8821023 L53.219241,16.2446023 C53.3992385,16.1846591 53.3992385,16.0048295 53.219241,15.8849432 L48.7193052,13.3073864 C48.5393078,13.1875 48.2393121,13.1875 48.0593146,13.3073864 L43.5593788,15.8849432 Z" fill="#DEE7F8"></path>
                        <path d="M50.2192838,19.78125 C50.0392864,19.8411932 50.0392864,20.0210227 50.2192838,20.1409091 L54.7192197,22.7184659 C54.8992171,22.8383523 55.1392137,22.8383523 55.3192111,22.7184659 L59.8791461,20.1409091 C60.0591435,20.0210227 60.0591435,19.8411932 59.8791461,19.78125 L55.3792102,17.14375 C55.1992128,17.0838068 54.8992171,17.0838068 54.7192197,17.14375 L50.2192838,19.78125 Z" fill="#DEE7F8"></path>
                        <path d="M43.3193822,23.7375 C43.1393848,23.8573864 43.1393848,23.9772727 43.3193822,24.0971591 L47.8193181,26.7346591 C47.9993155,26.7946023 48.2993112,26.7946023 48.4793086,26.7346591 L52.9792445,24.0971591 C53.1592419,23.9772727 53.1592419,23.8573864 52.9792445,23.7375 L48.4793086,21.1 C48.2993112,21.0400568 47.9993155,21.0400568 47.8193181,21.1 L43.3193822,23.7375 Z" fill="#DEE7F8"></path>
                    </g>
                </g>
            </g>
            <g id="编组" transform="translate(81.658835, 106.459091)">
                <g transform="translate(14.617160, 67.121378)">
                    <polygon id="路径" fill="#3887E5" points="53.0618748 27.5289063 57.2018157 16.8590199 52.1018885 8.94651989 41.1220451 3.13203125 28.2822282 1.21384943 14.4224258 4.51072443 3.74257812 11.943679 3.74257812 23.6925426 6.50253876 27.5289063"></polygon>
                    <path d="M50.4819116,30.7058949 C39.022075,38.0789062 20.302342,38.0789062 8.7225071,30.7058949 C4.10257299,27.768679 1.34261235,25.5507812 0.442625181,21.7144176 L7.22252849,63.1351562 C7.70252165,65.8325994 10.2224857,68.4101562 14.6024232,70.3283381 C23.0623026,73.924929 35.9621186,73.924929 44.3619988,70.3283381 C48.6819372,68.4700994 51.1419022,65.8925426 51.6218953,63.2550426 L58.6417952,21.8942472 C57.741808,25.6107244 55.0418465,27.8286222 50.4819116,30.7058949 Z" id="路径" fill="#3887E5"></path>
                    <path d="M50.3619133,5.52975852 C61.9417481,12.8428267 62.0017473,24.7715199 50.4819116,32.0845881 C39.022075,39.4575994 20.302342,39.4575994 8.7225071,32.0845881 C-2.85732776,24.7715199 -2.9173269,12.8428267 8.60250881,5.52975852 C20.1223445,-1.84325284 38.7820784,-1.84325284 50.3619133,5.52975852 Z M12.2024575,29.8666903 C21.8623197,35.9808949 37.4020981,35.9808949 47.0019612,29.8666903 C56.5418252,23.7524858 56.481826,13.8618608 46.8819629,7.74765625 C37.2221007,1.6334517 21.6823223,1.6334517 12.1424583,7.74765625 C2.54259523,13.8618608 2.60259438,23.7524858 12.2024575,29.8666903" id="形状" fill="#A6C2FF"></path>
                </g>
                <g id="路径">
                    <path d="M41.0994139,91.4133523 L48.7793044,91.4133523 C46.0193437,22.2389205 57.0591863,0 57.0591863,0 C45.1793557,21.2798295 41.4594088,57.1857955 41.0994139,91.4133523 Z" fill="#3887E5"></path>
                    <g transform="translate(0.000000, 51.611080)" fill="#1E72C6">
                        <path d="M67.9790306,44.3579545 C67.4990374,8.15227273 88.3187405,0 88.3187405,0 C60.7791332,9.47102273 57.5991786,39.2627841 57.2991829,48.6738636 C60.8391324,47.2352273 64.439081,45.7965909 67.9790306,44.3579545 Z"></path>
                        <path d="M20.3397099,42.6795455 C21.8996877,43.2190341 23.4596654,44.1181818 24.8996449,45.6167614 C26.5796209,47.4150568 28.7395901,48.5539773 31.0795568,49.2133523 C30.8395602,40.5215909 28.1395987,9.71079545 0,0 C0,0 20.1597125,7.97244318 20.3397099,42.6795455 Z"></path>
                    </g>
                    <g transform="translate(8.159884, 34.407386)" fill="#3887E5">
                        <path d="M44.2193694,68.1553977 C44.7593617,67.7357955 45.4193523,67.3761364 46.139342,67.0764205 C47.9993155,66.2971591 49.9192881,65.5178977 51.7792616,64.7985795 C49.5592932,11.7488636 71.9989732,0 71.9989732,0 C41.3994096,14.0866477 40.8594173,61.6215909 40.9194165,68.0355114 C41.999401,68.0954545 43.0793856,68.1553977 44.2193694,68.1553977 Z"></path>
                        <path d="M20.1597125,65.3380682 C23.3996663,66.9565341 27.3596098,67.4360795 31.0795568,67.5559659 C31.0795568,59.7034091 29.9995722,13.7869318 0,0 C0,0 22.6196774,11.8088068 20.1597125,65.3380682 Z"></path>
                    </g>
                    <g transform="translate(14.459794, 11.449148)" fill="#6B9EF9">
                        <path d="M37.9194592,91.1136364 C38.3394532,90.8139205 38.8194464,90.5741477 39.3594387,90.2744318 C36.179484,16.2446023 59.3991529,0 59.3991529,0 C28.8595884,18.7622159 28.259597,81.8823864 28.3195961,90.6340909 C31.3195534,90.7539773 34.6195063,91.1136364 37.9194592,91.1136364 Z"></path>
                        <path d="M20.0397142,90.0946023 C22.7396757,90.5142045 25.4996364,90.5741477 27.9596013,90.6340909 C28.9795867,90.6340909 29.9995722,90.7539773 31.0795568,90.8139205 C31.1395559,82.5417614 30.6595628,18.8821023 0,0 C0,0 23.2196689,16.2446023 20.0397142,90.0946023 Z"></path>
                    </g>
                </g>
                <path d="M68.4590237,87.9965909 C67.739034,91.2934659 65.5190656,94.4704545 61.6191213,96.9880682 C52.0192582,103.102273 36.4794798,103.102273 26.8196175,96.9880682 C22.859674,94.4704545 20.6397057,91.2934659 19.9197159,87.9965909 L14.8197887,87.9965909 C15.5997775,92.1326705 18.4197373,96.0889205 23.3396672,99.2059659 C34.919502,106.578977 53.6392351,106.578977 65.0990716,99.2059659 C70.0190015,96.0889205 72.8389612,92.1326705 73.4989518,87.9965909 L68.4590237,87.9965909 Z" id="路径" fill="#A6C2FF"></path>
            </g>
        </g>
    </g>
</svg>