<?xml version="1.0" encoding="UTF-8"?>
<svg width="776px" height="574px" viewBox="0 0 776 574" version="1.1" xmlns="http://www.w3.org/2000/svg" xmlns:xlink="http://www.w3.org/1999/xlink">
    <title>2</title>
    <defs>
        <path d="M108.322118,280.173221 C116.732005,278.971277 196.325573,305.053469 204.79553,340.751215 C213.205416,376.509059 276.880271,413.709236 304.03219,404.514361 C331.124038,395.319487 366.745915,405.115334 366.745915,405.115334 L389.092184,415.99293 L394.198187,418.396818 L394.258257,418.396818 L736,221.037561 L355.933203,0 L23.8628301,191.830314 C14.611955,197.178966 6.86284537,205.171896 2.77804338,215.087936 C-19.6282969,269.896597 100.633079,281.254971 108.322118,280.173221 Z" id="path-1"></path>
        <filter x="-4.8%" y="-6.0%" width="109.5%" height="116.7%" filterUnits="objectBoundingBox" id="filter-2">
            <feOffset dx="0" dy="10" in="SourceAlpha" result="shadowOffsetOuter1"></feOffset>
            <feGaussianBlur stdDeviation="10" in="shadowOffsetOuter1" result="shadowBlurOuter1"></feGaussianBlur>
            <feColorMatrix values="0 0 0 0 0.0980392157   0 0 0 0 0.129411765   0 0 0 0 0.235294118  0 0 0 0.1 0" type="matrix" in="shadowBlurOuter1"></feColorMatrix>
        </filter>
    </defs>
    <g id="页面-1" stroke="none" stroke-width="1" fill="none" fill-rule="evenodd">
        <g id="2" transform="translate(20.000000, 0.000000)" fill-rule="nonzero">
            <g id="编组" transform="translate(0.000000, 125.603182)">
                <g id="路径">
                    <use fill="black" fill-opacity="1" filter="url(#filter-2)" xlink:href="#path-1"></use>
                    <use fill="#F3F6FD" xlink:href="#path-1"></use>
                </g>
                <polygon id="路径" fill="#FDFEFF" points="63.0889433 169.173663 279.403237 293.274414 331.124038 263.406098 114.809745 139.305347 117.933417 137.50243 334.24771 261.603182 495.71753 168.332302 279.403237 44.231551 282.466838 42.4286346 498.781132 166.529386 550.562004 136.661069 334.18764 12.5603182 337.311312 10.7574017 718.819803 230.893504 715.756202 232.696421 552.964829 138.103403 501.244027 167.971719 664.0354 262.624834 660.911728 264.367654 498.120355 169.774635 445.918988 199.943438 608.710362 294.536456 606.487749 295.798498 443.696375 201.205479 391.074515 231.614671 553.805817 326.267786 551.643275 327.529828 388.851902 232.876712 336.710606 262.985418 499.441908 357.638533 496.378307 359.441449 333.586934 264.788334 281.806061 294.716748 444.597435 389.369863 441.473763 391.112682 59.9652712 170.97658"></polygon>
            </g>
            <g id="编组" transform="translate(157.940448, 0.000000)">
                <g transform="translate(22.804245, 122.770936)" id="路径">
                    <path d="M218.91992,313.17427 C221.202603,311.611742 225.888111,307.885715 225.167264,302.59716 C224.80684,299.472104 225.647829,295.866271 226.548888,293.041702 C227.389877,290.758008 228.71143,288.414217 230.333337,286.130522 C234.898704,279.70012 238.082447,256.562692 238.262659,254.87997 C238.502941,254.278998 238.923435,254.038609 239.704353,251.334234 C239.764424,250.973651 239.584212,250.793359 239.103647,250.853456 L234.598351,247.307721 C234.057715,247.367818 233.396939,247.728401 233.276797,248.028887 L233.156656,248.269276 C233.156656,248.269276 233.757362,247.54811 230.873973,247.788498 C230.994114,247.067332 231.054184,246.586554 231.054184,246.346165 C231.835103,245.324513 229.61249,247.96879 230.273266,247.007235 C230.513549,246.706749 229.191995,245.685096 228.591289,245.685096 L222.103662,255.661234 C221.563027,255.661234 220.90225,255.901623 220.782109,256.202109 L220.601897,256.622789 C220.601897,256.622789 209.608974,253.858317 204.623113,255.120359 C199.637252,256.3824 202.460571,262.271928 205.28389,262.271928 C207.806856,262.332025 213.333352,265.216691 216.396954,266.478733 C216.276813,267.019608 215.856318,267.860969 215.315683,268.882621 C212.13194,270.324954 212.492364,271.166315 213.994129,271.28651 C210.389892,277.656815 207.566573,282.825175 204.563042,285.890133 C189.485317,300.974535 189.845741,310.890575 178.912889,327.357213 C178.252112,328.318768 177.711476,329.340421 177.230911,330.362073 C164.135517,332.826059 139.20621,339.016072 128.153217,346.347933 C128.213287,346.468127 128.333429,346.588322 128.393499,346.648419 C125.089615,346.888808 116.199164,350.314349 120.944743,349.833571 C118.7822,350.674932 116.679729,352.23746 119.623189,351.336002 C119.262765,351.456196 117.941212,351.876877 118.061353,352.297557 C117.941212,352.718238 120.103754,351.936974 120.70446,351.756682 C117.640859,353.138918 118.421777,354.160571 123.828132,351.516293 C126.291028,350.194155 127.192087,350.73503 126.591381,351.095613 C125.029545,351.816779 124.54898,352.477849 124.54898,352.898529 C123.707991,354.761543 130.495971,350.134057 131.33696,348.331141 C131.697383,348.331141 131.997736,348.331141 132.35816,348.331141 C146.594896,342.441614 162.213257,339.436753 177.411123,337.874225 C180.594866,339.556947 181.616066,339.857433 182.156702,340.5786 C180.354583,341.059378 178.432324,341.540156 176.510064,342.08103 C176.449993,342.08103 176.449993,342.08103 176.449993,342.08103 C176.029499,342.261322 160.290997,347.309488 153.382876,352.417752 C153.503017,352.537946 153.563088,352.598043 153.683229,352.718238 C151.640828,352.898529 142.930589,355.542807 144.372283,355.783196 C145.573696,355.90339 146.835179,355.783196 148.577227,354.941835 C149.177933,354.701446 150.078992,355.182224 147.435885,356.384168 C144.612566,357.766404 143.831648,358.727959 143.771577,358.788057 C144.372283,358.788057 144.132001,359.328931 146.474755,358.126987 C143.531295,360.23039 145.874049,359.629418 146.835179,358.968348 C145.273343,360.350584 148.93765,358.848154 149.958851,358.247182 C149.418215,358.968348 149.478286,359.328931 150.85991,358.727959 C155.72563,356.744751 156.206195,354.941835 156.806901,354.40096 C157.167325,354.40096 157.527749,354.40096 157.888172,354.40096 C162.213257,352.477849 166.237988,350.975418 170.743285,349.65328 C169.481802,351.275905 168.40053,352.958627 168.640813,353.799988 C162.934104,358.667862 194.230896,361.913112 195.131955,348.691724 C195.131955,348.691724 195.312167,347.48978 195.55245,346.40803 C195.672591,345.807058 195.432308,345.266183 194.951743,344.845502 L195.192026,344.605114 C199.276828,344.064239 207.926997,343.643558 208.948197,339.617045 C209.909327,338.4151 210.630175,336.852573 210.870457,334.929462 C212.252081,325.974977 214.714977,320.746519 216.577166,316.780103 C217.478225,314.796894 217.898719,315.157478 218.91992,313.17427 Z" fill="#E1E9F4"></path>
                    <g>
                        <g>
                            <g transform="translate(0.000000, 53.283859)">
                                <g>
                                    <path d="M333.534658,101.534247 C333.534658,102.555899 332.873881,103.577552 331.552327,104.418913 L135.541903,217.581971 C134.520702,218.122846 133.31929,218.423332 132.057807,218.603624 L99.9800972,222.029165 L81.8387707,237.954927 C80.2168641,239.39726 77.3334744,239.998232 75.351144,239.277066 L24.170978,219.32479 C22.2487182,218.603624 22.0084357,216.800707 23.690413,215.418471 L41.7115983,199.492709 L25.0119666,158.987185 L2.06499075,145.645603 C0.743437164,144.864339 0.0225897542,143.842687 0.0225897542,142.821034 L0.0225897542,128.337605 C0.0225897542,129.419355 0.683366546,130.441008 2.06499075,131.222271 L61.9553963,166.078657 L72.1073307,168.001768 L77.1532626,163.734865 L87.6656206,169.864781 L126.591381,174.372072 L126.291028,192.220946 C128.994205,193.543084 132.958866,193.42289 135.481832,191.980557 L163.054246,176.054795 L153.923512,192.521432 L331.492257,89.9354839 C332.81381,89.2143173 333.534658,88.1926646 333.534658,87.1109147 L333.534658,101.534247 Z" fill="#E1E9F4"></path>
                                    <path d="M0.0225897542,117.21962 L0.0225897542,131.642952 C0.0225897542,132.664605 0.743437164,133.686257 2.06499075,134.467521 L125.810463,206.403889 C128.51364,207.966416 132.838725,207.966416 135.541903,206.403889 L331.552327,93.1807335 C332.873881,92.3994697 333.534658,91.3778171 333.534658,90.3561644 L333.474587,75.9328325 C333.474587,76.9544852 332.873881,77.9761379 331.492257,78.7574017 L135.481832,191.980557 C132.778654,193.543084 128.45357,193.543084 125.810463,191.980557 L2.06499075,120.044189 C0.683366546,119.262925 0.0225897542,118.241273 0.0225897542,117.21962 Z" fill="#9EB5DF"></path>
                                    <path d="M0.0225897542,129.058772 C0.0225897542,130.080424 0.743437164,131.102077 2.06499075,131.883341 L125.810463,203.819708 C128.51364,205.382236 132.838725,205.382236 135.541903,203.819708 L331.552327,90.5965532 C332.873881,89.8152894 333.534658,88.7936368 333.534658,87.8320813 L333.534658,90.3561644 C333.534658,91.3778171 332.873881,92.3994697 331.552327,93.1807335 L135.541903,206.403889 C132.838725,207.966416 128.51364,207.966416 125.810463,206.403889 L2.06499075,134.467521 C0.743437164,133.686257 0.0225897542,132.664605 0.0225897542,131.642952 L0.0225897542,117.21962 C0.0225897542,117.21962 0.0225897542,117.21962 0.0225897542,117.279717 L0.0225897542,129.058772 Z" fill="#83A1CC"></path>
                                    <path d="M2.00492013,114.395051 C-0.698257655,115.957578 -0.638187038,118.481662 2.00492013,120.044189 L125.810463,191.980557 C128.45357,193.543084 132.778654,193.543084 135.481832,191.980557 L331.492257,78.7574017 C334.195435,77.2549713 334.195435,74.670791 331.552327,73.1683606 L207.746785,1.17189571 C205.103678,-0.390631905 200.718523,-0.390631905 198.015345,1.17189571 L2.00492013,114.395051 Z" fill="#DEE7F8"></path>
                                </g>
                                <g transform="translate(22.901918, 5.619090)">
                                    <path d="M34.5481817,135.579319 C31.6647921,137.262042 31.6647921,140.026513 34.5481817,141.709236 L55.9333215,154.149359 C58.8167112,155.832081 63.5622899,155.832081 66.5057502,154.149359 C69.4492104,152.466637 69.4492104,149.702165 66.5658208,148.019443 L45.180681,135.579319 C42.2372207,133.896597 37.491642,133.896597 34.5481817,135.579319 Z" fill="#B6CBEA"></path>
                                    <path d="M1.86976581,101.384004 C-0.593129501,102.76624 -0.653200119,105.049934 1.86976581,106.492267 L116.604645,173.200177 C119.00747,174.64251 122.972131,174.64251 125.435026,173.200177 L299.099181,72.8979231 C301.502006,71.5156871 301.562076,69.1718957 299.099181,67.7896597 L257.350102,43.5103844 C254.466712,41.8276624 250.682263,40.8661069 246.597461,40.5656209 C242.752942,40.325232 238.187575,38.942996 236.085103,37.6809545 C233.922561,36.4189129 231.519736,33.7746354 231.099242,31.5510384 C230.558606,29.207247 228.99677,27.0437472 226.113381,25.3610252 L184.364302,1.08174989 C181.841336,-0.360583297 177.936746,-0.360583297 175.533921,1.08174989 L1.86976581,101.384004 Z" fill="#1E72C6"></path>
                                </g>
                            </g>
                            <g transform="translate(77.153263, 0.000000)">
                                <g transform="translate(48.116565, 0.000000)">
                                    <path d="M4.98586125,34.5034786 C2.22261285,36.1261034 0,39.9723252 0,43.1574777 L0.24028247,144.902065 C0.24028247,148.147314 2.52296593,149.409356 5.28621434,147.786731 L63.8550664,114.012095 C66.6183148,112.389471 68.8409276,108.483152 68.8409276,105.297999 L68.6006451,3.55341227 C68.6006451,0.368259817 66.3179617,-0.893781721 63.5547133,0.668745897 L4.98586125,34.5034786 Z" fill="#DEE7F8"></path>
                                    <g transform="translate(7.448757, 14.551203)" fill="#3887E5">
                                        <polygon points="0.0600706175 41.8276624 0.0600706175 46.154662 53.8232732 15.0844012 53.8232732 10.7574017"></polygon>
                                        <polygon points="0 31.0702607 0 35.4573575 53.8232732 4.32699956 53.8232732 0"></polygon>
                                        <polygon points="0 98.3791427 0 104.148475 18.0812559 93.6915599 18.0812559 87.9222271"></polygon>
                                        <polygon points="0.0600706175 52.5249669 0.0600706175 56.9120636 53.8833439 25.8418029 53.8833439 21.4547061"></polygon>
                                        <polygon points="0.120141235 74.0397702 0.120141235 78.3667698 32.978769 59.3760495 32.978769 55.0490499"></polygon>
                                        <polygon points="0.120141235 63.2823685 0.120141235 67.6093681 53.8833439 36.5391074 53.8833439 32.2121078"></polygon>
                                    </g>
                                </g>
                                <g transform="translate(0.000000, 49.467685)">
                                    <polygon fill-opacity="0.5" fill="#6B9EF9" points="84.6995706 0 27.1519191 74.4003535 84.8797825 71.2152011 142.427434 7.87273531"></polygon>
                                    <path d="M27.3922016,143.932833 L0,167.551038 L48.6572001,195.79673 C51.3003073,197.359258 55.6253918,197.359258 58.3285695,195.79673 L85.900983,179.870968 L142.607646,77.3451171 L27.3922016,143.932833 Z" fill-opacity="0.3" fill="#E1E9F4"></path>
                                    <polygon fill="#DEE7F8" points="84.8797825 71.2152011 142.427434 7.87273531 142.427434 7.87273531 142.607646 77.3451171 27.3922016 143.932833 27.1519191 74.4003535 27.1519191 74.4003535"></polygon>
                                </g>
                                <path d="M95.2119287,108.903832 C89.2048669,106.620138 82.4168871,108.843735 78.8727207,114.252484 L27.3922016,193.400518 L142.667716,126.812802 L95.2119287,108.903832 Z" fill="#B6CBEA"></path>
                            </g>
                        </g>
                        <g transform="translate(160.951774, 82.160571)">
                            <g>
                                <path d="M28.1731196,6.79098542 C28.3533314,6.7308882 28.5936139,6.67079099 28.893967,6.67079099 C29.6148144,6.61069377 30.7561561,6.91117985 31.9575685,8.2333186 C32.1377803,8.41361025 32.3780628,8.41361025 32.5582747,8.29341582 C32.8586277,7.93283252 33.0388396,7.21166593 31.5370742,5.64913831 C29.3144613,3.18515245 29.0141082,1.44233319 29.0141082,1.32213875 C29.0141082,1.32213875 29.0741788,1.14184711 29.4346026,1.14184711 C29.7950263,1.08174989 30.455803,1.38223597 31.4770035,2.64427751 C31.4169329,2.52408308 29.8550969,0.120194432 30.7561561,0.0600972161 C30.936368,0.0600972161 31.1766505,0.120194432 31.5971448,0.360583297 C31.5971448,0.360583297 31.8374272,0.480777729 32.2579216,1.44233319 C32.0777097,0.901458241 31.7773566,0.0600972161 32.1377803,0 C32.3179922,0.0600972161 32.5582747,0.120194432 32.9186984,0.480777729 C34.3603932,1.62262483 34.7808875,2.16349978 34.9010287,2.40388864 C34.8409581,1.98320813 34.7208169,0.961555457 35.2013818,0.901458241 C35.3815937,0.961555457 35.6218761,1.08174989 36.0423705,1.44233319 C37.5441359,2.76447194 39.88689,6.06981882 39.88689,8.9544852 C39.88689,9.79584622 40.7278786,10.0963323 41.3285848,10.6372072 L41.8091497,11.0578878 L38.3250539,13.2814848 C38.2649833,13.2213875 37.6042065,12.6204154 37.0035004,12.4401237 C36.3427236,12.1997349 34.9610994,12.5002209 31.8374272,10.276624 C29.674885,8.77419355 28.5335433,7.81263809 28.0529784,7.33186036 C27.8727665,7.15156871 27.9328371,6.85108263 28.1731196,6.79098542 Z" fill="#ECB4BF"></path>
                                <path d="M75.208413,42.0680513 C69.0211395,39.6641626 61.9328066,35.9982324 53.8833439,31.3707468 C53.8232732,31.3707468 53.8232732,31.3707468 53.8232732,31.3707468 C53.5229201,31.0702607 40.0671018,22.0556783 35.5618055,12.8608042 C38.4451952,9.25497128 39.5264663,9.25497128 41.0282317,9.31506849 C46.9752228,15.3247901 52.6819315,18.8104286 61.5723829,22.9571365 C63.7349251,23.9787892 71.5441054,26.5629695 79.293215,28.1855943 C82.8373815,28.9668582 85.6006299,32.2121078 85.1801355,35.8179408 C84.6395,40.5055236 79.5935681,43.8108705 75.208413,42.0680513 Z" fill="#FFFFFF"></path>
                                <g transform="translate(41.655704, 9.302361)">
                                    <path d="M16.9732185,154.041873 C20.817738,157.707803 30.3088955,158.128483 30.3088955,158.128483 L30.3088955,158.549164 C30.3088955,159.150136 30.7894605,159.811205 31.2700254,159.9314 L36.4360985,160.472275 C36.9767341,160.592469 37.2170165,160.231886 37.2770872,159.630914 C37.5173696,157.046734 37.6975815,153.861581 37.457299,152.960123 C37.1569459,151.878373 34.8742625,155.664498 29.8884012,150.375943 C25.8636698,151.577887 20.5774555,150.255748 18.294772,149.474484 C15.7718061,148.693221 13.1286989,150.375943 16.9732185,154.041873 Z" fill="#2A2A5E"></path>
                                    <g>
                                        <g>
                                            <path d="M26.2240936,115.759946 C27.0650822,118.524418 27.6657884,121.409084 27.8460002,124.293751 C28.4467064,131.986194 29.4679069,147.371082 29.2276244,151.277401 C29.1675538,151.397595 29.2276244,151.457692 29.287695,151.51779 C30.8495311,154.10197 33.7929914,154.402456 37.3972284,153.681289 C37.3972284,153.681289 41.4820304,135.471833 39.8000531,122.731223 C39.2594175,118.584515 38.9590645,114.437807 39.2594175,110.291099 C39.6198412,105.182836 40.4608299,98.6923367 42.3830896,93.1032956 C45.9272561,82.5261856 41.8424541,75.3746169 40.5809711,73.2111171 C40.5209005,73.0308255 40.3406887,72.9707282 40.1604768,73.0308255 L22.1392916,78.8001582 C21.9590797,78.8602554 21.8389385,78.9203526 21.8389385,79.1006443 C21.7187972,81.1439496 20.7576674,96.5889342 26.2240936,115.759946 Z" fill="#3A3A77"></path>
                                            <path d="M2.19584657,167.864232 C6.64107226,170.147927 17.8742777,167.203163 17.8742777,167.203163 L17.8742777,167.92433 C17.8742777,168.525302 18.4149133,169.00608 18.9555488,168.945982 L24.90254,168.525302 C25.5032461,168.465205 25.9237405,167.984427 25.8035992,167.383455 C25.5633168,165.159858 24.9626106,159.991497 24.6622575,159.210233 C24.3018338,158.248678 22.6198565,161.193441 17.0332891,157.948192 C16.9732185,157.888095 16.7930066,157.888095 16.6728654,157.948192 C13.0085577,160.291983 6.28064856,162.755969 3.75768263,162.876164 C0.874292988,162.936261 -2.1893085,165.580538 2.19584657,167.864232 Z" fill="#2A2A5E"></path>
                                            <path d="M13.909617,123.091806 C14.690535,125.736084 15.1110293,128.440459 15.2912412,131.204931 C15.8919474,138.957471 16.9131478,154.10197 16.6728654,158.008289 C16.6728654,158.068386 16.6728654,158.188581 16.732936,158.248678 C18.294772,160.772761 21.2382323,161.133344 24.8424694,160.412178 C24.8424694,160.412178 28.8672007,142.383013 27.3053647,129.642403 C26.7046585,125.195209 26.464376,120.687918 26.8848703,116.240724 C27.3654353,110.892072 28.3866358,104.161183 30.6693192,98.8125312 C34.8742625,88.9565877 32.3512965,78.9203526 31.2700254,76.4563668 C31.1498842,76.2760751 30.9696723,76.2159779 30.7293899,76.3361723 L9.5244619,85.4709492 C9.40432067,85.5310464 9.34425005,85.5911436 9.28417943,85.7714353 C9.1640382,87.7546434 8.1428377,103.560211 13.909617,123.091806 Z" fill="#4C4A8B"></path>
                                            <path d="M34.2735563,23.390525 C31.4502373,20.1452753 31.4502373,15.9384702 31.5103079,15.4576924 C31.5103079,15.3975952 31.5103079,15.3975952 31.4502373,15.337498 L28.2664945,6.80369333 C28.2064239,6.6834989 28.1463533,6.62340168 28.0862827,6.56330446 C26.6445879,5.84213787 13.0085577,-1.24933363 10.5456624,0.192999559 C7.72234338,1.75552718 11.4467217,14.7966231 11.4467217,14.7966231 C11.7470747,17.8014839 13.0686283,18.8832338 13.0686283,18.8832338 L19.3760432,21.7679001 C19.4961844,21.8279973 19.556255,21.8880946 19.6163256,21.9481918 L21.3583735,26.7560381 C21.3583735,26.7560381 37.2170165,26.8160663 34.2735563,23.390525 Z" fill="#ECB4BF"></path>
                                        </g>
                                        <path d="M8.08276708,36.0710376 C8.44319079,34.1479266 8.92375573,32.4051074 9.64460314,31.3233575 C10.1251681,30.6622881 10.6658036,30.061316 11.3265804,29.5805382 L15.8318767,26.2150941 C17.2735716,25.1333442 18.294772,23.5107194 18.5951251,21.7679001 C18.6551958,21.5876085 18.775337,21.4674141 18.9555488,21.4674141 C20.6375261,21.5275113 29.4679069,21.7679001 31.5103079,16.0586646 L32.4714378,18.4625532 C35.2947568,18.10197 46.2876798,17.8615811 43.2240783,34.9892877 C40.4007593,51.0352444 40.4608299,60.4104101 40.4007593,67.622076 C40.4007593,71.227909 40.9413948,70.5067424 41.0615361,74.0524781 C41.542101,87.0334768 9.28417943,85.7714353 9.28417943,85.7714353 C8.80361449,80.122297 8.68347326,57.7661326 7.72234338,48.6313557 C7.30184906,44.4245506 7.30184906,40.2177455 8.08276708,36.0710376 Z" fill="#FFFFFF"></path>
                                    </g>
                                </g>
                                <path d="M7.14840348,11.2982766 C7.08833286,11.4785683 7.02826224,11.7189571 6.96819162,11.959346 C6.84805039,12.7406098 6.96819162,13.8824569 8.16960397,15.2646929 C8.28974521,15.4449845 8.28974521,15.6853734 8.10953336,15.8055678 C7.74910965,16.1060539 6.96819162,16.1661511 5.64663804,14.5435263 C3.48409581,12.0194432 1.74204791,11.4785683 1.68197729,11.4785683 C1.68197729,11.4785683 1.44169482,11.5386655 1.3816242,11.8391516 C1.32155358,12.1997349 1.50176544,12.9209015 2.64310717,14.1228458 C2.58303655,14.0026513 0.300353087,12.1396376 0.180211852,13.0410959 C0.120141235,13.2213875 0.180211852,13.4617764 0.360423705,13.9425541 C0.360423705,13.9425541 0.48056494,14.182943 1.32155358,14.7238179 C0.840988644,14.4233319 0.0600706175,14.0627486 0,14.4233319 C0,14.6036235 0,14.8440124 0.300353087,15.2646929 C1.26148297,16.8272205 1.80211852,17.3079982 1.98233038,17.4281927 C1.62190667,17.3680954 0.600706175,17.1277066 0.48056494,17.5483871 C0.48056494,17.7286787 0.600706175,18.0291648 0.901059262,18.5099426 C2.04240099,20.0724702 5.04593187,22.8369421 7.9293215,23.1975254 C8.71023953,23.3177198 8.89045138,24.1590809 9.37101632,24.8201502 L9.79151064,25.3610252 L12.4346178,22.1758727 C12.3745472,22.1157755 11.8339116,21.3946089 11.7137704,20.7335395 C11.5936292,20.0724702 12.0141235,18.6902342 10.1519343,15.3247901 C8.950522,13.0410959 8.10953336,11.7790544 7.68903903,11.2381794 C7.5688978,11.0578878 7.26854471,11.117985 7.14840348,11.2982766 Z" fill="#ECB4BF"></path>
                                <path d="M49.4381182,52.7052585 C43.0706327,50.3013699 35.6819468,46.6354397 27.2720603,42.0680513 C27.2720603,42.0680513 27.2720603,42.0680513 27.2119897,42.0680513 C26.9717072,41.7675652 12.7349709,32.8731772 7.50882718,23.7384004 C10.0918637,20.1325674 11.1731348,20.1325674 12.6148297,20.1926646 C19.1024563,26.2023862 25.1095181,29.6279275 34.3003226,33.7145382 C36.583006,34.7361909 44.9928925,37.4405656 53.1024258,39.0631905 C56.1059567,39.6641626 58.4487108,42.1281485 58.8692051,45.0729121 C59.6501231,50.4816615 54.4239794,54.5682722 49.4381182,52.7052585 Z" fill="#FFFFFF"></path>
                            </g>
                            <path d="M73.4663651,6.43040212 C68.300292,0.841361025 51.4204485,2.70437472 51.1801661,8.17322139 C50.9999542,11.2982766 53.5229201,13.0410959 55.2649681,14.3632346 C55.8656742,14.7839152 56.2260979,15.4449845 56.2260979,16.1661511 C56.2861686,18.0291648 56.1059567,19.6517897 56.1059567,19.6517897 L57.2472984,20.9138312 C57.6077221,18.8104286 57.9080752,17.7286787 58.2684989,17.0075122 C58.3886402,16.7671233 58.7490639,16.7070261 58.9893463,16.8873177 C60.0105468,17.7286787 60.6713236,18.9306231 60.8515355,20.1926646 C61.0317473,21.7551922 61.1518886,24.3393725 60.3108999,26.6831639 C59.7702644,28.1254971 60.7914649,29.5678303 62.4133715,29.6279275 C65.6571849,29.8683164 68.4204333,29.3274414 71.8444585,27.7649138 C73.5865064,26.98365 74.7278481,25.3610252 74.9681306,23.6182059 C75.2684837,21.695095 75.5688368,19.5916924 75.5688368,19.5916924 C77.9716615,8.9544852 73.4663651,6.43040212 73.4663651,6.43040212 Z" fill="#A0533F"></path>
                        </g>
                    </g>
                </g>
                <g transform="translate(266.533330, 86.239505)" id="路径">
                    <g>
                        <polygon fill="#1E72C6" points="49.1978357 10.7574017 47.9964233 10.0963323 48.1165646 35.7578436 3.7844489 61.3592576 2.58303655 66.467521 0.0600706175 65.0251878 0 28.5461776 49.3179769 0 51.8409429 1.44233319"></polygon>
                        <polygon fill="#3887E5" points="51.8409429 1.5024304 51.9010135 37.9814406 2.52296593 66.5276182 2.46289532 29.9885108"></polygon>
                        <polygon fill="#6B9EF9" points="27.2119897 31.0702607 2.52296593 66.5276182 51.9010135 37.9814406"></polygon>
                    </g>
                    <polygon fill="#A6C2FF" points="51.8409429 1.5024304 27.2119897 37.8011489 2.46289532 29.9885108"></polygon>
                </g>
                <g transform="translate(252.536876, 29.207247)" id="路径">
                    <polygon fill="#A6C2FF" points="0 39.8444543 19.4628801 43.6906761 63.9752076 0"></polygon>
                    <polygon fill="#6B9EF9" points="27.9929077 61.6597437 19.4628801 43.6906761 63.9752076 0"></polygon>
                    <polygon fill="#1E72C6" points="27.5123428 45.5536898 27.9929077 61.6597437 63.9752076 0"></polygon>
                    <polygon fill="#A6C2FF" points="47.0352935 49.0393283 27.5123428 45.5536898 63.9752076 0"></polygon>
                </g>
                <g transform="translate(126.809073, 57.032258)" id="路径">
                    <g>
                        <polygon fill="#1E72C6" points="49.1978357 10.7574017 47.9964233 10.0362351 48.056494 35.7578436 3.72437828 61.3592576 2.58303655 66.467521 0.0600706175 65.0251878 0 28.4860804 49.3179769 0 51.8409429 1.44233319"></polygon>
                        <polygon fill="#3887E5" points="51.8409429 1.44233319 51.9010135 37.9814406 2.52296593 66.467521 2.46289532 29.9284136"></polygon>
                        <polygon fill="#6B9EF9" points="27.2119897 31.0101635 2.52296593 66.467521 51.9010135 37.9814406"></polygon>
                    </g>
                    <polygon fill="#A6C2FF" points="51.8409429 1.44233319 27.2119897 37.8011489 2.46289532 29.9284136"></polygon>
                </g>
                <g transform="translate(112.812620, 0.000000)" id="路径">
                    <polygon fill="#A6C2FF" points="0 39.8444543 19.4628801 43.6305789 63.9752076 0"></polygon>
                    <polygon fill="#6B9EF9" points="27.9328371 61.5996465 19.4628801 43.6305789 63.9752076 0"></polygon>
                    <polygon fill="#1E72C6" points="27.5123428 45.5536898 27.9328371 61.5996465 63.9752076 0"></polygon>
                    <polygon fill="#A6C2FF" points="47.0352935 49.0393283 27.5123428 45.5536898 63.9752076 0"></polygon>
                </g>
                <g transform="translate(13.996454, 187.923995)" id="路径">
                    <g>
                        <polygon fill="#1E72C6" points="49.1978357 10.7574017 48.056494 10.0362351 48.1165646 35.7578436 3.7844489 61.3592576 2.58303655 66.467521 0.0600706175 65.0251878 0 28.4860804 49.3179769 0 51.8409429 1.44233319"></polygon>
                        <polygon fill="#3887E5" points="51.8409429 1.44233319 51.9010135 37.9814406 2.58303655 66.467521 2.46289532 29.9284136"></polygon>
                        <polygon fill="#6B9EF9" points="27.2119897 31.0101635 2.58303655 66.467521 51.9610841 37.9814406"></polygon>
                    </g>
                    <polygon fill="#A6C2FF" points="51.8409429 1.44233319 27.2119897 37.8011489 2.46289532 29.9284136"></polygon>
                </g>
                <g transform="translate(0.000000, 130.891737)" id="路径">
                    <polygon fill="#A6C2FF" points="0 39.8444543 19.4628801 43.6305789 63.9752076 0"></polygon>
                    <polygon fill="#6B9EF9" points="27.9929077 61.5996465 19.4628801 43.6305789 63.9752076 0"></polygon>
                    <polygon fill="#1E72C6" points="27.5123428 45.5536898 27.9929077 61.5996465 63.9752076 0"></polygon>
                    <polygon fill="#A6C2FF" points="47.0352935 49.0393283 27.5123428 45.5536898 63.9752076 0"></polygon>
                </g>
            </g>
            <path d="M609.55135,347.241715 L607.56902,343.275298 L607.56902,343.215201 C607.508949,343.095007 607.448879,342.914715 607.388808,342.794521 C606.788102,341.532479 605.706831,340.330535 604.325207,339.489174 L533.141525,297.120636 C530.318206,295.498011 527.314675,295.858595 526.353545,298.082192 L495.957813,369.417587 C495.477248,370.559434 495.65746,371.881573 496.258166,373.143615 L498.360637,377.530711 C498.961344,378.792753 500.042615,379.994697 501.484309,380.836058 L512.897727,387.687141 C514.039069,389.369863 515.600905,390.932391 517.583235,392.074238 L520.526695,393.877154 L520.586766,398.264251 C520.646836,399.285904 521.00726,400.367654 521.547896,401.329209 C521.487825,401.209015 521.367684,401.08882 521.307613,400.968626 L522.208672,402.951834 C522.989591,404.574459 524.371215,406.136986 526.113263,407.158639 L534.823502,412.327 C537.52668,413.949624 540.47014,414.009722 542.212188,412.567388 L546.357061,409.201944 L550.14151,411.485639 C552.063769,412.627486 554.10617,413.228458 555.908289,413.288555 L572.607921,423.204596 C575.43124,424.887318 578.43477,424.40654 579.3959,422.24304 L609.791633,350.907645 C610.272198,349.765798 610.091986,348.503756 609.55135,347.241715 Z M534.64329,404.454264 C534.042584,405.8365 532.240466,406.076889 530.558488,405.055236 C530.077923,404.75475 529.657429,404.394167 529.297005,403.973487 C529.236935,403.552806 529.297005,403.192223 529.417147,402.771542 C530.017853,401.449403 531.880042,401.209015 533.562019,402.17057 C534.042584,402.531153 534.463078,402.891737 534.823502,403.25232 C534.823502,403.673 534.823502,404.093681 534.64329,404.454264 Z" id="形状" fill="#E1E9F4"></path>
            <path d="M611.293398,242.191781 L610.993045,346.400354 C610.993045,348.022978 610.392339,349.164825 609.49128,349.645603 L606.307537,351.508617 C607.208596,350.967742 607.809302,349.885992 607.809302,348.263367 L608.109655,243.994697 C608.109655,240.809545 605.826972,236.903226 603.063724,235.280601 L532.060254,194.2943 C530.618559,193.452939 529.357076,193.392841 528.395946,193.933716 L531.579689,192.070703 C532.540819,191.529828 533.802302,191.650022 535.243996,192.431286 L606.247466,233.477684 C609.010715,235.100309 611.293398,239.006628 611.293398,242.191781 Z" id="路径" fill="#83A1CC"></path>
            <path d="M603.063724,235.280601 C605.826972,236.903226 608.109655,240.809545 608.109655,244.054795 L607.809302,348.263367 C607.749232,351.44852 605.526619,352.770658 602.7033,351.148034 L531.69983,310.161732 C528.936582,308.539107 526.653898,304.632788 526.653898,301.447636 L526.954251,197.178966 C526.954251,193.993814 529.236935,192.671675 532.060254,194.2943 L603.063724,235.280601 Z" id="路径" fill="#B6CBEA"></path>
            <polygon id="路径" fill="#FFFFFF" points="599.038992 236.542643 598.738639 339.729563 535.724561 303.31065 536.024915 200.12373"></polygon>
            <path d="M545.395931,199.522757 L543.954236,200.364118 C545.576143,199.402563 547.918897,199.522757 550.441863,200.965091 L554.286382,203.188688 L555.728077,202.347327 L551.883558,200.183827 C549.360592,198.681396 547.017837,198.561202 545.395931,199.522757 Z" id="路径" fill="#6262AA"></path>
            <path d="M568.042554,208.777729 C566.300506,207.816173 564.918881,205.412285 564.918881,203.429076 C564.918881,202.467521 565.279305,201.806452 565.819941,201.445868 L564.378246,202.287229 C563.83761,202.647813 563.537257,203.308882 563.537257,204.270437 C563.477187,206.253646 564.858811,208.657534 566.600859,209.61909 C567.441847,210.099867 568.222765,210.159965 568.763401,209.859479 L570.205096,209.018118 C569.66446,209.318604 568.883542,209.258506 568.042554,208.777729 Z" id="路径" fill="#6262AA"></path>
            <path d="M584.381762,218.934158 L580.537242,216.710561 L578.43477,208.717631 C577.533711,205.29209 575.190957,201.986743 572.487779,200.424216 L563.83761,195.436147 C562.095562,194.414494 560.473656,194.2943 559.272243,194.955369 L557.830549,195.79673 C559.031961,195.135661 560.653868,195.255855 562.395916,196.217411 L571.046084,201.265577 C573.749262,202.828104 576.152087,206.133451 577.053146,209.558992 L579.095547,217.551922 L582.940067,219.775519 C587.985999,222.660186 592.070801,229.751657 592.01073,235.52099 L593.452425,234.679629 C593.512495,228.910296 589.427693,221.818825 584.381762,218.934158 Z" id="路径" fill="#6262AA"></path>
            <path d="M582.940067,219.775519 C587.985999,222.660186 592.070801,229.751657 592.01073,235.52099 L541.251058,206.193548 C541.311129,200.424216 545.395931,198.080424 550.441863,200.965091 L554.286382,203.188688 L556.388854,197.659744 C557.289913,195.255855 559.692738,194.71498 562.395916,196.217411 L571.046084,201.265577 C573.749262,202.828104 576.152087,206.133451 577.053146,209.558992 L579.095547,217.551922 L582.940067,219.775519 Z M566.600859,209.61909 C568.282836,210.580645 569.66446,209.799381 569.66446,207.87627 C569.66446,205.893062 568.342907,203.489174 566.600859,202.527618 C564.918881,201.566063 563.537257,202.287229 563.537257,204.270437 C563.477187,206.253646 564.858811,208.657534 566.600859,209.61909" id="形状" fill="#2A2A5E"></path>
            <polygon id="路径" fill="#3887E5" points="542.872965 262.50464 542.752824 297.721608 590.328753 325.186036 590.448894 289.969068"></polygon>
            <polygon id="路径" fill="#6B9EF9" points="566.600859 290.99072 590.328753 325.186036 542.752824 297.721608"></polygon>
            <polygon id="路径" fill="#A6C2FF" points="542.872965 262.50464 566.600859 297.541317 590.448894 289.969068"></polygon>
            <polygon id="路径" fill="#B6CBEA" points="572.487779 258.357932 572.487779 262.684932 542.031976 245.076447 542.031976 240.749448"></polygon>
            <polygon id="路径" fill="#B6CBEA" points="592.731577 248.862572 592.731577 253.189571 542.092047 223.982324 542.092047 219.595228"></polygon>
            <polygon id="路径" fill="#B6CBEA" points="592.731577 259.439682 592.671507 263.766681 542.031976 234.499337 542.031976 230.172338"></polygon>
        </g>
    </g>
</svg>