<?xml version="1.0" encoding="UTF-8"?>
<svg width="784px" height="500px" viewBox="0 0 784 500" version="1.1" xmlns="http://www.w3.org/2000/svg" xmlns:xlink="http://www.w3.org/1999/xlink">
    <title>7</title>
    <defs>
        <path d="M109.496116,282.772302 C117.956168,281.573607 198.476661,307.884976 206.996713,343.90578 C215.516765,379.986519 279.897159,417.505693 307.317327,408.275736 C334.737495,398.985845 370.677715,408.875084 370.677715,408.875084 L393.357854,419.843149 L398.517885,422.300475 L398.517885,422.300475 L744,223.077259 L359.817648,0 L24.1155932,193.589347 C14.6955355,198.983477 6.89548778,207.014738 2.8154628,217.083781 C-19.864676,272.403585 101.696068,283.851129 109.496116,282.772302 Z" id="path-1"></path>
        <filter x="-4.7%" y="-5.9%" width="109.4%" height="116.6%" filterUnits="objectBoundingBox" id="filter-2">
            <feOffset dx="0" dy="10" in="SourceAlpha" result="shadowOffsetOuter1"></feOffset>
            <feGaussianBlur stdDeviation="10" in="shadowOffsetOuter1" result="shadowBlurOuter1"></feGaussianBlur>
            <feColorMatrix values="0 0 0 0 0.0980392157   0 0 0 0 0.129411765   0 0 0 0 0.235294118  0 0 0 0.1 0" type="matrix" in="shadowBlurOuter1"></feColorMatrix>
        </filter>
    </defs>
    <g id="页面-1" stroke="none" stroke-width="1" fill="none" fill-rule="evenodd">
        <g id="7" transform="translate(20.000000, 0.000000)" fill-rule="nonzero">
            <g id="编组" transform="translate(0.000000, 47.699525)">
                <g id="路径">
                    <use fill="black" fill-opacity="1" filter="url(#filter-2)" xlink:href="#path-1"></use>
                    <use fill="#F3F6FD" xlink:href="#path-1"></use>
                </g>
                <path d="M307.677329,222.537846 L305.097313,222.777585 L301.977294,230.868781 L297.717268,237.101998 L287.517206,238.12089 C287.037203,238.180825 286.737201,238.540433 286.797201,239.079846 C286.797201,239.619259 287.157203,240.158672 287.637206,240.518281 C287.817207,240.638151 287.997209,240.698085 288.17721,240.75802 L296.39726,243.155411 C296.39726,243.155411 296.757262,243.155411 297.237265,243.095477 L291.417229,257.959303 L298.977276,263.473303 C299.817281,266.470042 303.777305,268.387955 306.057319,269.286976 L306.17732,269.346911 C306.837324,269.646585 307.497328,269.82639 308.037331,270.006194 L309.117338,270.785346 C308.577335,270.905216 308.157332,271.08502 307.737329,271.264824 C306.537322,271.744303 306.477322,275.939737 305.877318,277.258303 C302.697299,284.450476 311.817354,289.784672 322.017417,289.784672 C326.577445,289.844607 328.797458,290.38402 329.637463,290.503889 C331.257473,290.743629 332.637482,290.024411 332.637482,289.00552 C332.637482,288.645911 332.637482,288.346237 332.637482,287.926694 L340.257528,293.500628 L355.017619,292.062194 L349.857587,305.307781 C349.617586,305.967063 349.737587,306.446541 350.27759,306.80615 C350.33759,306.80615 350.33759,306.866085 350.397591,306.866085 L352.137601,308.18465 C352.617604,308.484324 353.337609,308.664128 354.297614,308.544259 L410.517959,303.030259 C412.497971,302.850455 414.417982,301.651759 414.897985,300.393128 L420.718021,285.589237 L424.678045,285.169694 L310.257345,218.761955 L307.677329,222.537846 Z" id="路径" fill="#E1E9F4"></path>
                <path d="M164.576453,144.922303 L164.636453,162.543129 C164.636453,163.981564 165.596459,165.419999 167.456471,166.498825 L441.178146,325.385933 C444.958169,327.543585 451.078207,327.543585 454.85823,325.325998 L612.059192,234.704607 C613.919204,233.625781 614.93921,232.127412 614.881715,230.748912 L614.819209,213.068151 C614.819209,214.506586 613.859203,215.94502 611.999192,217.023846 L454.79823,307.645237 C451.018206,309.862824 444.838169,309.862824 441.118146,307.705172 L167.39647,148.758129 C165.536459,147.679303 164.576453,146.300803 164.576453,144.922303 Z" id="路径" fill="#E1E9F4"></path>
                <path d="M281.037166,281.034194 L267.237081,315.556628 C266.757079,316.755324 267.537083,318.553367 268.917092,319.572259 L325.437438,360.44778 C326.097442,360.927258 326.877447,361.166998 327.47745,361.107063 L331.857477,360.687519 C332.517481,360.627585 333.057484,360.267976 333.297486,359.668628 L347.217571,325.146194 C347.697574,323.947498 346.97757,322.149454 345.537561,321.130563 L289.017215,280.255042 C288.29721,279.775563 287.577206,279.535824 286.977202,279.595759 L282.417174,280.015302 C281.817171,280.135172 281.277167,280.434846 281.037166,281.034194 Z" id="路径" fill="#E1E9F4"></path>
                <path d="M492.41846,350.558541 L505.978543,315.976172 C506.218544,315.376824 506.038543,314.897346 505.618541,314.537737 L502.618522,312.380085 L502.438521,312.260215 C502.018519,311.780737 501.238514,311.540998 500.098507,311.720802 L424.378043,319.152715 C422.518032,319.392454 420.59802,320.47128 420.118017,321.669976 L406.557934,356.252345 C406.317933,356.911628 406.557934,357.391106 407.037937,357.750715 L410.277957,360.148106 C410.81796,360.507715 411.537965,360.627585 412.497971,360.507715 L488.218434,353.075802 C490.138446,352.895998 491.938457,351.697302 492.41846,350.558541 Z" id="路径" fill="#E1E9F4"></path>
                <polygon id="路径" fill="#FDFEFF" points="63.7158356 170.754195 282.417174 296.017889 334.737495 265.810759 116.036156 140.547064 119.216175 138.749021 337.857514 264.012716 501.058513 169.855173 282.417174 44.591478 285.537193 42.7934345 504.238532 168.057129 556.498852 137.909934 337.857514 12.646239 340.977533 10.8481956 726.659894 233.026433 723.539875 234.884411 559.018868 139.348369 506.698547 169.495564 671.219554 265.031607 668.099535 266.82965 503.578528 171.293608 450.778205 201.740477 615.299212 297.27652 613.079199 298.595085 448.558191 203.059042 395.277865 233.745651 559.858873 329.281693 557.638859 330.540324 393.117852 235.004281 340.317529 265.45115 504.898536 360.987193 501.718517 362.785237 337.19751 267.249194 284.877189 297.456324 449.398197 392.932432 446.278177 394.79041 60.5958165 172.552238"></polygon>
            </g>
            <g id="编组" transform="translate(164.576453, 0.000000)">
                <g transform="translate(0.000000, 83.360720)" id="路径">
                    <path d="M0,96.315195 L0.0600003673,113.936021 C0.0600003673,115.374456 1.02000624,116.812891 2.88001763,117.891717 L276.601693,276.778824 C280.381716,278.996411 286.501754,278.936476 290.281777,276.718889 L447.482739,186.097499 C449.342751,185.018673 450.362757,183.580238 450.305262,182.141803 L450.242756,164.461042 C450.242756,165.899477 449.28275,167.337912 447.422739,168.416738 L290.221777,259.098064 C286.441753,261.255716 280.261716,261.255716 276.541693,259.098064 L2.82001726,100.210956 C0.960005877,99.1321298 0,97.693695 0,96.315195 Z" fill="#83A1CC"></path>
                    <path d="M2.940018,92.2396298 C-0.900005509,94.4572168 -0.960005877,97.9933689 2.82001726,100.210956 L276.541693,259.098064 C280.321716,261.255716 286.441753,261.255716 290.221777,259.038129 L447.422739,168.416738 C451.202762,166.259086 451.202762,162.722934 447.482739,160.505347 L173.701063,1.61823912 C169.981041,-0.53941304 163.861003,-0.53941304 160.08098,1.61823912 L2.940018,92.2396298 Z" fill="#B6CBEA"></path>
                    <polygon fill="#1E72C6" points="166.921022 4.73484779 442.082706 164.461042 283.381735 255.981455 8.22005032 96.2552602"></polygon>
                    <g transform="translate(54.787698, 43.183011)" fill="#9EB5DF">
                        <path d="M10.9727044,26.820815 C9.95269813,27.4201629 9.95269813,28.3791194 10.9727044,28.9784672 C11.9927106,29.577815 13.6127205,29.577815 14.6327268,28.9784672 C15.652733,28.3791194 15.7127334,27.4201629 14.6927272,26.820815 C13.6727209,26.2214672 11.9927106,26.2214672 10.9727044,26.820815 Z"></path>
                        <path d="M0.95264304,32.1550107 C-0.307364673,32.874228 -0.307364673,34.0129889 0.892642673,34.7322063 C2.15265039,35.4514237 4.19266287,35.4514237 5.45267059,34.7322063 C6.7126783,34.0129889 6.7126783,32.874228 5.45267059,32.1550107 C4.25266324,31.4357933 2.21265075,31.4357933 0.95264304,32.1550107 Z"></path>
                        <path d="M20.872765,21.1270107 C19.8527587,21.7263586 19.8527587,22.6853151 20.872765,23.2846629 C21.8927712,23.8240759 23.5127811,23.8240759 24.5327874,23.2846629 L60.3530067,2.60716303 C61.3730129,2.0078152 61.4330133,1.04885869 60.413007,0.449510867 C59.3930008,-0.149836956 57.7129905,-0.149836956 56.6929843,0.449510867 L20.872765,21.1270107 Z"></path>
                    </g>
                    <path d="M326.822001,203.77826 C323.221979,205.816042 323.221979,209.112455 326.762,211.150238 C330.242022,213.18802 336.002057,213.18802 339.542079,211.150238 L364.382231,196.825825 C367.922252,194.788042 368.042253,191.431694 364.502231,189.393912 C360.96221,187.356129 355.202174,187.356129 351.662153,189.453847 L326.822001,203.77826 Z" fill="#9EB5DF"></path>
                </g>
                <path d="M151.92093,194.89935 L141.540866,264.064088 L276.541693,342.458783 C280.321716,344.616436 286.441753,344.616436 290.221777,342.398849 L312.901915,329.333066 L327.842007,230.200936 L151.92093,194.89935 Z" id="路径" fill-opacity="0.4" fill="#E1E9F4"></path>
                <g transform="translate(140.417302, 87.928839)">
                    <g>
                        <g transform="translate(19.063674, 92.499066)" id="路径">
                            <path d="M83.7005124,36.7072482 C78.3604797,37.6662047 76.5004683,39.2844438 71.5804382,36.5274439 L65.3404,39.8837917 C65.3404,39.8837917 64.8003967,46.2968134 66.9004095,47.9749873 C68.7604209,49.4733568 73.3804492,46.0570742 78.4804804,44.9183134 C79.5004867,44.738509 80.5204929,44.4987699 81.4204984,44.0192916 C83.4005105,43.0603351 86.7005307,41.2622917 87.9005381,39.1046395 C87.9005381,39.1046395 89.0405451,35.8681613 83.7005124,36.7072482 Z" fill="#2A2A5E"></path>
                            <path d="M69.1804235,20.2251831 L72.7204452,37.2466612 C71.4004371,41.5619656 65.7604026,41.5619656 64.860397,41.2622917 L60.1803684,23.9411396 C63.3003875,22.9222483 66.3004059,21.7235527 69.1804235,20.2251831 Z" fill="#4C4A8B"></path>
                            <g transform="translate(0.000000, 9.713084)">
                                <path d="M78.9604834,28.7322734 C78.900483,28.6723386 78.8404826,28.6723386 78.7804823,28.6124038 L72.3004426,27.1140343 L25.5601565,0.0235127055 L31.9801958,1.52188226 C32.1001965,1.52188226 32.1601969,1.58181704 32.2201972,1.58181704 L78.9604834,28.7322734 Z" fill="#83A1CC"></path>
                                <path d="M25.5601565,0.0235127055 C25.320155,-0.0364220767 25.0201532,0.0235127055 24.7201513,0.14338227 L2.10001286,18.1238169 C1.26000771,18.6032952 0.540003306,18.66323 0,18.3635561 L42.48026,43.0566863 C43.0202634,43.3563602 43.8002681,43.2964255 44.5802729,42.8169472 L71.5204378,27.2938386 C71.7604393,27.1140343 72.0604411,27.0540995 72.3004426,27.1140343 L25.5601565,0.0235127055 Z" fill="#DEE7F8"></path>
                            </g>
                            <path d="M15.6600959,23.1619874 C22.4401374,17.4082483 28.920177,12.9730745 34.800213,9.55679186 C46.3802839,2.90403104 53.2203258,0.986118008 57.4203515,0.147031057 C61.7403779,-0.692055894 63.7803904,2.24474843 64.4403945,4.28253103 L68.1004169,20.1652483 C64.6203956,21.903357 60.9603732,23.7613352 58.0803555,26.2186613 L57.3603511,24.3606831 C56.8203478,23.0421179 55.5003397,22.742444 54.0603309,23.5815309 C53.8803298,23.7014005 53.7603291,23.7613352 53.580328,23.8812048 C47.5802913,28.2564439 42.5402604,31.5528569 38.220234,34.010183 C8.46005179,51.2114655 15.2400933,24.3007483 15.6600959,23.1619874 Z" fill="#3A3A77"></path>
                            <g transform="translate(33.188004, 3.476217)">
                                <path d="M68.8726208,39.4642482 C63.5325881,40.4232047 61.6125764,42.0414438 56.7525466,39.3443786 L50.4525081,42.6407916 C50.4525081,42.6407916 49.9725051,49.1137481 52.072518,50.7319872 C53.9325294,52.2303568 58.5525576,48.8140742 63.6525889,47.7352481 C64.6725951,47.495509 65.632601,47.2557699 66.5926069,46.7762916 C68.572619,45.8772699 71.8726392,44.0192916 73.0726465,41.8616395 C73.0726465,41.8616395 74.1526531,38.6251612 68.8726208,39.4642482 Z" fill="#2A2A5E"></path>
                                <path d="M49.7325036,4.28253103 C49.0724996,2.24474843 47.0324871,-0.692055894 42.7124607,0.147031057 C38.512435,0.986118008 31.6723931,2.90403104 20.0923222,9.61672665 C14.2122862,12.9730745 7.73224654,17.4082483 0.952205036,23.1619874 C0.532202465,24.3606831 -6.24783904,51.2114655 23.5123431,34.010183 C27.7723692,31.5528569 32.8724004,28.2564439 38.8724372,23.8812048 C39.0524383,23.7613352 39.172439,23.7014005 39.3524401,23.5815309 C40.7924489,22.742444 42.112457,23.0421179 42.6524603,24.3606831 L50.0325055,44.0192916 C50.932511,44.3189655 56.5725455,44.3189655 57.8925536,40.0036612 L49.7325036,4.28253103 Z" fill="#4C4A8B"></path>
                            </g>
                            <g transform="translate(1.680010, 5.694565)">
                                <path d="M19.8601216,4.16190075 C19.9801223,4.22183553 20.100123,4.3417051 20.100123,4.52150944 L30.4801866,39.7631614 L27.600169,38.0849875 L17.2801058,2.84333554 C17.2201054,2.66353119 17.160105,2.54366163 17.0401043,2.48372685 L19.8601216,4.16190075 Z" fill="#B6CBEA"></path>
                                <path d="M0,58.9422917 L2.82001726,60.6204656 L5.76003526,17.7071615 C5.94003636,15.9091181 7.14004371,13.8713355 8.64005289,13.0322485 L19.2001175,2.06418337 C19.9801223,1.58470511 20.7001267,1.52477033 21.24013,1.82444424 L18.3601124,0.206205123 C17.8801095,-0.0934687881 17.1001047,-0.0934687881 16.3200999,0.38600947 L5.82003563,11.3540746 C4.32002645,12.2530963 3.06001873,14.2309442 2.940018,16.0289876 L0,58.9422917 Z" fill="#B6CBEA"></path>
                                <path d="M8.64005289,13.0322485 C7.14004371,13.8713355 5.94003636,15.9091181 5.82003563,17.7071615 L2.82001726,60.5605308 L4.74002902,59.4817047 L7.68004701,16.748205 C7.74004738,16.208792 8.16004995,15.4895746 8.64005289,15.2498355 L19.2001175,4.22183553 C19.6201201,3.9820964 19.9801223,4.10196597 20.100123,4.52150944 L30.4801866,39.7631614 L32.4601987,38.5644657 L21.9601344,2.84333554 C21.6001322,1.6446399 20.4601252,1.2850312 19.2001175,2.06418337 L8.64005289,13.0322485 Z" fill="#83A1CC"></path>
                            </g>
                        </g>
                        <g transform="translate(11.323627, 17.487881)" id="路径">
                            <g transform="translate(0.000000, 11.687283)">
                                <polygon fill="#9EB5DF" points="116.700714 147.559434 176.101078 113.096934 176.221079 55.6194779 116.820715 90.0819777"></polygon>
                                <polygon fill="#9EB5DF" points="9.06005546 85.4669994 57.3003508 57.4774561 57.4203515 0 9.1800562 27.9895433"></polygon>
                                <polygon fill="#B6CBEA" points="116.820715 90.0819777 116.700714 147.559434 107.640659 142.345108 107.76066 92.6591733 9.12005583 35.781065 9.06005546 85.4669994 0 80.2526734 0.180001102 22.835152"></polygon>
                            </g>
                            <polygon fill="#DEE7F8" points="116.820715 101.76926 176.221079 67.3067604 59.5803647 0 0.180001102 34.5224346"></polygon>
                        </g>
                        <g transform="translate(56.383903, 52.789467)" id="路径">
                            <polygon fill="#6262AA" points="63.8403908 27.4501303 47.6402916 36.9198258 0 9.40976081 16.2000992 0"></polygon>
                            <g transform="translate(0.000000, 9.409761)" fill="#3A3A77">
                                <polygon points="63.8403908 18.0403694 63.8403908 20.8573042 47.5802913 30.267065 47.6402916 27.510065"></polygon>
                                <polygon points="47.6402916 27.510065 47.5802913 30.267065 0 2.81693476 0 0"></polygon>
                            </g>
                            <g transform="translate(2.760017, 0.899022)" fill="#B6CBEA">
                                <polygon points="18.300112 4.91465214 16.2000992 6.17328257 13.8000845 4.79478258 15.9000973 3.53615215"></polygon>
                                <polygon points="15.1200926 3.05667389 12.9600793 4.31530432 10.620065 2.93680433 12.7200779 1.6781739"></polygon>
                                <polygon points="28.0201715 10.4885869 25.9201587 11.7472173 23.520144 10.3687173 25.6201568 9.1100869"></polygon>
                                <polygon points="13.6200834 5.33419562 11.5200705 6.53289126 7.92004848 4.43517388 10.0200613 3.23647824"></polygon>
                                <polygon points="31.200191 12.3465651 29.1001781 13.6051956 26.7001634 12.2266956 28.8001763 10.9680651"></polygon>
                                <polygon points="26.5201623 18.8794564 24.3601491 20.078152 21.9601344 18.6996521 24.1201477 17.5009564"></polygon>
                                <polygon points="49.0803004 31.8853041 44.3402714 34.6423041 41.8802564 33.2638041 46.6802858 30.5068041"></polygon>
                                <polygon points="43.2002645 31.5856302 41.1002516 32.7843259 38.7002369 31.4058259 40.8002498 30.2071302"></polygon>
                                <polygon points="39.9602446 29.727652 37.8602318 30.9263476 32.2201972 27.6898694 34.3202101 26.4911737"></polygon>
                                <polygon points="33.5402053 26.0116955 31.3801921 27.2103911 28.9801774 25.8318911 31.1401906 24.5732607"></polygon>
                                <polygon points="30.3001855 24.0937824 28.2001726 25.3524129 25.8001579 23.9739129 27.9001708 22.7152825"></polygon>
                                <polygon points="27.0601657 22.2358042 24.9601528 23.4944346 22.5601381 22.1159346 24.660151 20.8573042"></polygon>
                                <polygon points="23.8201458 20.377826 21.720133 21.6364564 19.3201183 20.2579564 21.4201311 18.999326"></polygon>
                                <g transform="translate(0.000000, 3.715956)">
                                    <polygon points="21.5401319 3.05667389 19.440119 4.31530432 17.0401043 2.93680433 19.1401172 1.6781739"></polygon>
                                    <polygon points="16.8601032 3.47621737 14.7600904 4.67491301 12.3600757 3.29641302 14.4600885 2.0377826"></polygon>
                                    <polygon points="7.14004371 3.95569563 5.04003085 5.21432605 2.64001616 3.83582606 4.74002902 2.57719564"></polygon>
                                    <polygon points="13.0200797 4.31530432 10.9200668 5.51399996 5.28003232 2.27752172 7.38004518 1.07882608"></polygon>
                                    <polygon points="24.7801517 4.91465214 22.6801388 6.17328257 20.2801241 4.79478258 22.380137 3.53615215"></polygon>
                                    <polygon points="20.100123 5.33419562 18.0001102 6.53289126 15.6000955 5.15439127 17.7001084 3.95569563"></polygon>
                                    <polygon points="10.3800635 5.81367387 8.28005069 7.0723043 5.82003563 5.69380431 7.98004885 4.43517388"></polygon>
                                    <polygon points="16.2600995 6.17328257 14.1600867 7.37197821 11.760072 5.99347822 13.8600848 4.79478258"></polygon>
                                    <polygon points="23.3401429 7.19217387 21.24013 8.39086951 18.8401153 7.01236952 20.9401282 5.81367387"></polygon>
                                    <polygon points="7.68004701 7.37197821 5.58003416 8.63060864 0 5.33419562 2.10001286 4.13549997"></polygon>
                                    <polygon points="13.560083 7.67165212 11.4600702 8.93028255 9.06005546 7.55178256 11.1600683 6.29315213"></polygon>
                                    <polygon points="19.5001194 8.03126082 17.3401061 9.22995646 14.9400915 7.85145647 17.1001047 6.65276083"></polygon>
                                    <polygon points="26.5201623 9.05015211 24.4201495 10.2488478 22.0201348 8.87034777 24.180148 7.67165212"></polygon>
                                    <polygon points="16.8001028 9.58956515 14.70009 10.7882608 12.3000753 9.40976081 14.4000882 8.15113038"></polygon>
                                    <polygon points="22.6801388 9.88923907 20.580126 11.0879347 18.1801113 9.70943472 20.2801241 8.51073907"></polygon>
                                    <polygon points="29.7601822 10.9081304 27.6601693 12.106826 25.2601546 10.728326 27.3601675 9.52963037"></polygon>
                                    <polygon points="20.0401227 11.4475434 17.9401098 12.646239 15.5400951 11.2677391 17.640108 10.0690434"></polygon>
                                    <polygon points="25.9201587 11.7472173 23.8201458 12.945913 21.4201311 11.567413 23.520144 10.3687173"></polygon>
                                    <polygon points="23.2801425 13.3055217 21.1801297 14.5042173 18.780115 13.1257173 20.8801278 11.8670869"></polygon>
                                    <polygon points="20.7601271 14.9237608 18.6601142 16.1224564 6.4200393 9.1100869 8.52005216 7.85145647"></polygon>
                                </g>
                                <polygon points="44.1602703 19.8384129 42.0002571 21.0371086 39.6002424 19.6586086 41.7602556 18.4599129"></polygon>
                                <polygon points="32.9402016 22.5954129 30.8401888 23.7941085 28.4401741 22.4156085 30.540187 21.2169129"></polygon>
                                <g transform="translate(23.910146, 13.395424)">
                                    <polygon points="9.09005565 3.08664128 6.99004279 4.28533693 4.5900281 2.90683694 6.69004095 1.70814129"></polygon>
                                    <polygon points="5.25003214 3.92572823 3.15001928 5.12442388 0.750004591 3.74592389 2.85001745 2.54722824"></polygon>
                                    <polygon points="8.49005197 5.78370648 6.39003912 6.98240213 3.99002443 5.60390214 6.09003728 4.40520649"></polygon>
                                    <polygon points="17.5501074 7.94135864 15.4500946 9.19998907 7.83004793 4.76481519 9.93006079 3.56611954"></polygon>
                                    <polygon points="23.4301434 8.30096734 21.3301306 9.49966298 18.9301159 8.12116299 21.0301287 6.92246735"></polygon>
                                    <polygon points="14.9100913 9.49966298 12.8100784 10.6983586 7.17004389 7.46188039 9.27005675 6.26318474"></polygon>
                                    <polygon points="20.7901273 9.79933689 18.6901144 11.0579673 16.2900997 9.67946733 18.3901126 8.4208369"></polygon>
                                    <polygon points="26.6701633 10.1589456 24.5701504 11.3576412 22.1701357 9.97914124 24.2701486 8.78044559"></polygon>
                                    <polygon points="18.1501111 11.3576412 16.0500983 12.6162717 13.6500836 11.1778369 15.7500964 9.97914124"></polygon>
                                    <polygon points="24.0301471 11.7172499 21.9301342 12.9159456 19.5301196 11.5374456 21.6301324 10.2788151"></polygon>
                                    <polygon points="29.9101831 12.0169238 27.8101702 13.2156195 25.4101555 11.8371195 27.5101684 10.6384238"></polygon>
                                    <polygon points="15.5100949 12.9159456 13.4100821 14.1146412 11.0100674 12.7361412 13.1100803 11.5374456"></polygon>
                                    <polygon points="21.3901309 13.2156195 19.2901181 14.4742499 16.8901034 13.0957499 18.9901162 11.8371195"></polygon>
                                    <polygon points="27.2701669 13.5752282 25.1101537 14.7739238 22.7701394 13.3954238 24.8701522 12.1367934"></polygon>
                                    <polygon points="18.6901144 14.7739238 16.5901016 15.9726195 14.1900869 14.5941195 16.2900997 13.3954238"></polygon>
                                    <polygon points="24.5701504 15.0735977 22.4701376 16.3322282 20.0701229 14.9537282 22.2301361 13.6950977"></polygon>
                                    <polygon points="21.9301342 16.6319021 19.8301214 17.8305977 17.4301067 16.4520977 19.5301196 15.2534021"></polygon>
                                </g>
                                <polygon points="40.9202505 17.9804347 38.8202376 19.1791303 36.4202229 17.8006303 38.5202358 16.6019347"></polygon>
                                <polygon points="37.6802307 16.1224564 35.5802178 17.3211521 33.1802031 15.9426521 35.280216 14.6840216"></polygon>
                                <polygon points="34.4402108 14.2644782 32.340198 15.4631738 29.9401833 14.0846738 32.0401961 12.8260434"></polygon>
                                <polygon points="57.0603493 27.2703259 54.9603364 28.4690216 52.5603218 27.0905216 54.6603346 25.8918259"></polygon>
                                <polygon points="54.3603328 28.8286302 52.2603199 30.0273259 49.8603052 28.6488259 51.9603181 27.3901955"></polygon>
                                <polygon points="51.7203166 30.3269998 49.6203038 31.5856302 47.2202891 30.2071302 49.3203019 28.9484998"></polygon>
                            </g>
                        </g>
                        <g transform="translate(116.487036, 89.085971)" id="路径">
                            <g>
                                <path d="M23.5373793,5.59790866 C23.5373793,5.59790866 23.5373793,5.59790866 23.5373793,5.59790866 C23.2973778,7.03634343 22.3973723,8.23503908 21.0773642,8.77445212 C19.4573543,9.43373472 18.4373481,10.2128869 16.7573378,11.1718434 C15.0773275,12.1907347 13.3373169,13.3294956 11.5973062,14.6480608 C10.3372985,15.6070173 8.65728822,15.7268869 7.27727977,14.9477347 L1.93724708,11.5913869 C0.677239366,10.8721695 -0.0427650412,9.55360428 0.0172353261,8.17510429 C0.0172353261,8.17510429 21.1373646,6.37706083 23.5373793,5.59790866 Z" fill="#2A2A5E"></path>
                                <path d="M0.197236428,7.63569125 C2.41725002,5.83764779 4.63726361,4.33927823 6.8572772,3.02071302 C8.89728969,1.82201738 10.9973025,0.863060864 12.9773147,0.143843477 C13.6973191,-0.0958956515 14.4773238,-0.0359608693 15.0773275,0.323647824 L23.2973778,5.05849562 C23.65738,5.29823475 23.5973797,5.83764779 23.1773771,5.95751735 C21.1373646,6.67673474 19.0373518,7.69562604 16.9973393,8.89432168 C14.9573268,10.0330825 12.9773147,11.4115825 10.9973025,12.9099521 C10.2172978,13.5692347 9.13729116,13.6291695 8.23728565,13.1496912 L0.257236795,8.4747782 C-0.0427650412,8.29497386 -0.102765408,7.87543038 0.197236428,7.63569125 Z" fill="#6262AA"></path>
                            </g>
                            <path d="M14.5973246,3.73993041 C15.5573305,3.20051737 16.457336,2.78097389 17.3573415,2.30149564 L17.7173437,2.54123477 C16.6373371,2.96077824 15.5573305,3.50019128 14.5373242,4.0995391 C13.0973154,4.93862605 11.6573066,5.89758257 10.2772981,6.97640865 L10.0372967,6.85653909 C11.5372967,5.65784344 13.0973154,4.63895214 14.5973246,3.73993041 Z" fill="#4C4A8B"></path>
                        </g>
                        <g transform="translate(0.000000, 14.813738)" id="路径">
                            <g>
                                <g transform="translate(19.759930, 0.000000)">
                                    <g transform="translate(0.000000, 4.052643)">
                                        <path d="M12.0238222,27.2103911 C13.1638291,22.7152825 20.483874,3.47621737 20.6038747,3.05667389 C21.0238773,2.0377826 38.1239819,0 38.1239819,0 C38.1239819,0 41.4840025,20.6774999 33.3239526,23.674239 C31.5839419,24.2735868 31.1639393,23.0748912 29.6039298,23.7941085 C27.2639155,24.9928042 28.5239232,27.8696737 29.1839272,31.645565 C30.3239342,37.3993041 10.1638108,34.5823693 12.0238222,27.2103911 Z" fill="#ECB4BF"></path>
                                        <path d="M11.5438192,21.5765216 C12.1438229,22.9550216 13.2838299,23.7941085 16.1038471,24.6931303 L21.2638787,47.7680214 L5.7237836,47.887891 C4.64377698,46.0299127 3.68377111,44.3517388 2.9637667,42.9133041 C-7.05629464,22.295739 11.5438192,21.5765216 11.5438192,21.5765216 Z" fill="#3887E5"></path>
                                        <path d="M40.4039959,34.8820432 C37.8239801,33.024065 35.2439643,30.8064781 33.1439514,28.2892172 C31.5839419,26.4911737 29.2439276,25.5322172 26.8439129,25.7719564 C21.9238828,26.1914998 14.8438394,26.0716303 13.8238332,21.3367825 C13.8238332,21.3367825 -3.0962704,20.2579564 3.08376743,42.1940867 C9.26380527,64.130217 10.4638126,91.0409342 8.24379902,99.1920646 C8.24379902,99.1920646 40.7639981,122.806369 46.464033,106.983586 C46.9440359,105.665021 47.0640367,104.286521 47.0040363,102.967956 C46.7640348,95.6559124 45.8640293,66.8872169 47.0640367,61.3132822 C48.3240444,55.6794127 46.7640348,39.616891 40.4039959,34.8820432 Z" fill="#6B9EF9"></path>
                                    </g>
                                    <path d="M39.9839933,3.15362129 L39.923993,3.15362129 C39.1439882,3.03375173 36.8639742,2.97381695 32.5439478,1.29564304 C22.8838886,-2.48024824 12.3838244,2.07479521 12.6238258,13.9418821 C12.6838262,16.159469 11.183817,22.3327516 12.0838225,23.5314472 C14.6638383,26.9477298 19.2838666,26.7679255 21.4438798,26.5281864 C22.3438853,26.4083168 22.943889,25.5692298 23.0638897,24.7301429 C23.3638916,22.4526212 24.3838978,18.0773821 27.023914,18.7366647 C29.1239268,19.2760777 27.4439166,23.3516429 27.4439166,23.3516429 L29.7239305,24.4904038 C30.2039335,22.6324255 30.5639357,21.2539255 30.7439368,20.2350342 C31.103939,18.7965994 32.4839474,18.4969255 33.8039555,17.8376429 C34.5839603,17.4180995 35.363965,17.0584908 36.0839694,16.6988821 C38.6039849,15.4402516 40.4639963,13.1627299 41.1840007,10.4057299 C41.5440029,9.14709951 41.9040051,7.76859952 42.2040069,6.62983866 C42.6240095,5.01159954 41.6040032,3.39336042 39.9839933,3.15362129 Z" fill="#A0533F"></path>
                                </g>
                                <g transform="translate(0.000000, 61.109502)">
                                    <path d="M59.503922,72.8817486 L16.9636616,48.1886183 C16.1236565,47.7690749 15.5236528,46.8101183 15.3436517,45.4915531 L8.74361131,3.77694471 L51.2838717,28.470075 L57.8239118,70.1846834 C58.0639132,71.4433138 58.6639169,72.4022703 59.503922,72.8817486 Z" fill="#9EB5DF"></path>
                                    <path d="M43.9638269,25.2935315 C44.2038284,25.173662 44.3838295,25.0537924 44.623831,25.0537924 L53.2038835,24.6342489 C53.623886,24.6342489 53.9838883,24.873988 54.0438886,25.4134011 L60.7639298,67.9670965 C61.0039312,69.465466 62.2039386,69.9449443 63.6439474,69.1058573 L90.5241119,53.5827487 C90.8241138,53.4029444 91.1241156,53.3430096 91.4241174,53.4029444 L97.8441567,54.9612487 C98.5041608,55.0811183 98.6241615,56.0400748 98.2041589,57.1189009 C97.9041571,57.7182487 97.4241542,58.2576617 97.0041516,58.4974009 C96.7041498,58.6772052 96.4041479,58.73714 96.1041461,58.6772052 L90.1041094,57.2387704 L63.6439474,72.4622051 C60.7639298,74.140379 58.3039147,73.1814225 57.8239118,70.1846834 L51.2838717,28.470075 L43.3638232,28.8296837 C42.6438188,28.8896185 42.343817,28.0505315 42.6438188,27.0316402 C42.8838203,26.252488 43.4238236,25.5932054 43.9638269,25.2935315 Z" fill="#83A1CC"></path>
                                    <path d="M53.623886,24.7541185 C53.5038853,24.6342489 53.3238842,24.6342489 53.2038835,24.6342489 L44.623831,25.0537924 C44.3838295,25.1137272 44.2038284,25.173662 43.9638269,25.2935315 C43.4238236,25.5932054 42.8838203,26.252488 42.6438188,27.0316402 C42.4038174,27.8707272 42.5238181,28.5300098 42.9438207,28.7697489 L0.463560624,4.07661862 C-0.0164423145,3.83687949 -0.136443049,3.17759688 0.163558787,2.33850993 C0.403560257,1.55935776 0.943563562,0.900075161 1.48356687,0.600401249 C1.66356797,0.480531685 1.90356944,0.420596903 2.08357054,0.420596903 L10.6636231,0.00105342732 C10.8436242,-0.0588813549 15.223651,2.4583795 15.3436517,2.51831428 L53.623886,24.7541185 Z" fill="#DEE7F8"></path>
                                </g>
                            </g>
                            <g transform="translate(63.283945, 110.505378)">
                                <path d="M24.1201477,4.18687264 C24.2401484,4.24680743 24.3001488,4.36667699 24.3601491,4.54648134 L34.6802123,39.7281985 L31.860195,38.1099594 L21.4801315,2.86830743 C21.4201311,2.68850309 21.3601308,2.56863352 21.24013,2.50869874 L24.1201477,4.18687264 Z" fill="#B6CBEA"></path>
                                <path d="M0,56.5099375 L2.82001726,58.1281766 L5.76003526,15.2748074 C5.88003599,13.4767639 7.14004371,11.4389813 8.64005289,10.5998943 L23.4001432,2.02922048 C24.180148,1.60967701 24.9001524,1.54974223 25.4401557,1.84941614 L22.6201385,0.231177017 C22.0801352,-0.128431676 21.3601308,-0.068496894 20.580126,0.410981364 L5.76003526,8.92172044 C4.26002608,9.82074217 3.06001873,11.79859 2.940018,13.5966335 L0,56.5099375 Z" fill="#B6CBEA"></path>
                                <path d="M8.64005289,10.5998943 C7.14004371,11.4389813 5.88003599,13.4767639 5.76003526,15.2748074 L2.82001726,58.1281766 L4.74002902,57.0493506 L7.68004701,14.3158508 C7.74004738,13.716503 8.16004995,13.0572204 8.64005289,12.7575465 L23.4001432,4.24680743 C23.8801462,4.0070683 24.2401484,4.12693786 24.3601491,4.54648134 L34.6802123,39.7281985 L36.7202248,38.5894376 L26.1601601,2.86830743 C25.8001579,1.66961179 24.660151,1.3100031 23.4001432,2.02922048 L8.64005289,10.5998943 Z" fill="#83A1CC"></path>
                            </g>
                        </g>
                        <g transform="translate(84.224073, 0.000000)">
                            <g id="路径">
                                <g transform="translate(11.565071, 39.843554)">
                                    <g transform="translate(0.000000, 12.586304)">
                                        <path d="M28.3951738,10.6683912 L28.3951738,11.8670869 C28.3951738,12.0468912 28.2751731,12.2266956 28.095172,12.3465651 L19.1551173,17.5009564 C18.7351147,17.7406955 18.0751106,17.7406955 17.6551081,17.5009564 L0.315001928,7.43191299 C0.0750004591,7.31204343 0.0150000918,7.19217387 0.0150000918,7.01236952 L0.0150000918,5.81367387 C0.0150000918,5.93354344 0.0750004591,6.11334779 0.315001928,6.23321735 L17.6551081,16.242326 C18.0751106,16.4820651 18.7351147,16.4820651 19.1551173,16.242326 L28.095172,11.0879347 C28.2751731,10.9680651 28.3951738,10.7882608 28.3951738,10.6683912 Z" fill="#4C4A8B"></path>
                                        <path d="M28.095172,10.2488478 C28.5151746,10.4885869 28.5151746,10.8481956 28.095172,11.0879347 L19.1551173,16.242326 C18.7951151,16.4820651 18.0751106,16.4820651 17.6551081,16.242326 L0.315001928,6.23321735 C-0.105000643,5.99347822 -0.105000643,5.63386953 0.315001928,5.3941304 L9.19505629,0.179804347 C9.61505886,-0.0599347822 10.2750629,-0.0599347822 10.6950655,0.179804347 L28.095172,10.2488478 Z" fill="#6262AA"></path>
                                    </g>
                                    <g transform="translate(9.120056, 0.000000)">
                                        <path d="M12.5550769,6.053413 L12.5550769,23.0748912 C12.5550769,23.2546955 12.4350761,23.4344998 12.255075,23.5543694 L11.1750684,24.1537172 C10.7550658,24.3934564 10.0950618,24.3934564 9.61505886,24.1537172 L0.315001928,18.7595868 C0.135000826,18.6397173 0.0150000918,18.4599129 0.0150000918,18.3400434 L0.0150000918,1.25863043 C0.0150000918,1.43843477 0.135000826,1.55830434 0.315001928,1.73810868 L9.61505886,7.0723043 C10.0950618,7.31204343 10.7550658,7.31204343 11.1750684,7.0723043 L12.255075,6.47295648 C12.4350761,6.35308691 12.5550769,6.17328257 12.5550769,6.053413 Z" fill="#4C4A8B"></path>
                                        <path d="M12.255075,5.57393475 C12.6750776,5.81367387 12.6750776,6.23321735 12.255075,6.47295648 L11.1750684,7.0723043 C10.7550658,7.31204343 10.0950618,7.31204343 9.61505886,7.0723043 L0.315001928,1.73810868 C-0.105000643,1.43843477 -0.105000643,1.07882608 0.315001928,0.779152169 L1.39500854,0.179804347 C1.81501111,-0.0599347822 2.47501515,-0.0599347822 2.95501809,0.179804347 L12.255075,5.57393475 Z" fill="#6262AA"></path>
                                    </g>
                                </g>
                                <g>
                                    <path d="M57.3603511,36.6070762 L57.2403504,70.1106194 C57.2403504,72.0884672 55.8003416,72.9275542 54.0003306,71.9086629 L3.18001947,42.6005544 C1.44000882,41.5816631 0,39.0644022 0,37.0865544 L0.0600003673,3.58301118 C0.120000735,1.54522858 1.56000955,0.70614163 3.3000202,1.72503293 L54.1203313,31.0331414 C55.9203423,32.0520327 57.3603511,34.5692936 57.3603511,36.6070762 Z" fill="#2A2A5E"></path>
                                    <path d="M51.6603162,66.6943368 C52.2603199,67.0539455 52.7403229,67.8930325 52.7403229,68.6122499 C52.7403229,69.3314673 52.2603199,69.5712064 51.6603162,69.2715325 C51.0603126,68.9119238 50.5203093,68.0129021 50.5803096,67.3536195 C50.5803096,66.6344021 51.0603126,66.3946629 51.6603162,66.6943368 Z" fill="#6262AA"></path>
                                    <path d="M59.6403651,35.288511 L59.5203644,68.7920542 C59.5203644,69.8109455 59.1603622,70.4702281 58.5603585,70.8298368 L56.3403449,72.148402 C56.8803482,71.7887933 57.2403504,71.1295107 57.2403504,70.1106194 L57.3603511,36.6070762 C57.3603511,34.5692936 55.9203423,32.0520327 54.1203313,31.0331414 L3.3000202,1.72503293 C2.46001506,1.18561989 1.62000992,1.18561989 1.02000624,1.54522858 L3.3000202,0.226663372 C3.84002351,-0.132945321 4.68002865,-0.0730105391 5.58003416,0.466402501 L56.4003453,29.774511 C58.2003563,30.7334675 59.6403651,33.2507284 59.6403651,35.288511 Z" fill="#6262AA"></path>
                                </g>
                            </g>
                            <g transform="translate(2.400015, 4.002555)">
                                <polygon id="路径" fill="#FFFFFF" points="52.5003214 30.267065 52.440321 63.2311952 0 33.024065 0.0600003673 0"></polygon>
                                <polygon id="路径" fill="#6B9EF9" points="0.0600003673 0 0.0600003673 4.67491301 52.5003214 34.941978 52.5003214 30.267065"></polygon>
                                <g transform="translate(9.240057, 28.528956)" id="路径">
                                    <polygon fill="#3887E5" points="18.1201109 10.4286521 0.0600003673 0 0 1.73810868 18.1201109 12.1667608"></polygon>
                                    <polygon fill="#A0533F" points="19.6801205 11.3276738 19.6801205 13.0657825 34.0802086 21.3967172 34.0802086 19.6586086"></polygon>
                                </g>
                                <g transform="translate(9.240057, 32.844261)" id="路径">
                                    <polygon fill="#3887E5" points="24.1201477 13.9048695 24.1201477 15.6429782 34.0802086 21.3367825 34.0802086 19.5986738"></polygon>
                                    <polygon fill="#A0533F" points="7.62004665 4.31530432 0.0600003673 0 0 1.73810868 7.62004665 6.053413"></polygon>
                                    <polygon fill="#6B9EF9" points="9.9000606 5.69380431 9.9000606 7.43191299 21.8401337 14.2644782 21.8401337 12.5263695"></polygon>
                                </g>
                                <g transform="translate(12.360076, 17.890532)" fill="#4C4A8B">
                                    <polygon id="路径" points="4.26002608 5.84364127 4.26002608 5.36416301 2.22001359 4.22540215 2.22001359 0.449510867 2.22001359 0.389576084 1.80001102 0.149836956 1.74001065 4.40520649 1.74001065 4.40520649 4.14002534 5.78370648"></polygon>
                                    <path d="M5.58003416,6.68272822 C5.82003563,6.86253256 6.00003673,6.86253256 6.12003746,6.86253256 C6.30003857,6.86253256 6.36003893,6.86253256 6.48003967,6.80259778 C6.72004114,6.62279343 6.90004224,6.26318474 6.90004224,5.78370648 C6.90004224,4.94461953 6.48003967,3.92572823 5.64003453,3.44624998 C5.16003159,3.14657607 4.86002975,3.20651085 4.74002902,3.32638041 C4.44002718,3.50618476 4.32002645,3.86579345 4.32002645,4.34527171 C4.32002645,5.18435866 4.68002865,6.20324996 5.58003416,6.68272822 Z M4.74002902,4.52507606 C4.74002902,4.16546736 4.86002975,3.86579345 5.04003085,3.74592389 C5.16003159,3.68598911 5.34003269,3.68598911 5.58003416,3.80585867 C6.12003746,4.16546736 6.48003967,5.00455431 6.4200393,5.60390214 C6.4200393,5.96351083 6.36003893,6.26318474 6.18003783,6.38305431 C6.00003673,6.44298909 5.82003563,6.44298909 5.64003453,6.26318474 C5.04003085,5.96351083 4.74002902,5.18435866 4.74002902,4.52507606 Z" id="形状"></path>
                                    <path d="M8.46005179,5.0644891 C7.98004885,4.76481519 7.68004701,4.82474997 7.56004628,4.94461953 C7.26004444,5.12442388 7.14004371,5.48403257 7.14004371,5.96351083 C7.14004371,6.80259778 7.50004591,7.82148908 8.40005142,8.30096734 C8.64005289,8.48077168 8.82005399,8.54070647 8.94005473,8.54070647 C9.12005583,8.54070647 9.1800562,8.48077168 9.30005693,8.4208369 C9.5400584,8.30096734 9.7200595,7.94135864 9.7200595,7.4019456 C9.7200595,6.62279343 9.30005693,5.54396735 8.46005179,5.0644891 Z M9.24005656,7.22214126 C9.24005656,7.58174995 9.1800562,7.88142386 9.00005509,8.00129343 C8.82005399,8.06122821 8.64005289,8.06122821 8.46005179,7.94135864 C7.86004812,7.58174995 7.56004628,6.80259778 7.56004628,6.14331518 C7.56004628,5.78370648 7.68004701,5.48403257 7.86004812,5.42409779 C7.92004848,5.36416301 7.98004885,5.36416301 8.04004922,5.36416301 C8.16004995,5.36416301 8.28005069,5.36416301 8.40005142,5.48403257 C8.94005473,5.78370648 9.24005656,6.62279343 9.24005656,7.22214126 Z" id="形状"></path>
                                    <polygon id="路径" points="11.2800691 7.94135864 12.4800764 7.46188039 11.8800727 7.16220647 10.5000643 7.70161951 10.5000643 5.18435866 10.5000643 5.18435866 10.0800617 4.94461953 10.0800617 9.19998907 10.0800617 9.19998907 10.5000643 9.4397282 10.5000643 8.24103255 10.9200668 8.12116299 11.9400731 10.2788151 11.9400731 10.2788151 12.5400768 10.6384238"></polygon>
                                    <polygon id="路径" points="13.0200797 6.62279343 12.6000771 6.38305431 12.6000771 7.10227169 13.0200797 7.34201082"></polygon>
                                    <polygon id="路径" points="13.0200797 7.82148908 13.0200797 7.82148908 12.6000771 7.52181517 12.6000771 10.6384238 12.6000771 10.6983586 13.0200797 10.9380978"></polygon>
                                    <path d="M13.9800856,9.61953255 C13.9800856,9.31985863 14.0400859,9.14005429 14.220087,9.02018472 C14.3400878,8.96024994 14.5200889,9.02018472 14.70009,9.08011951 C15.1200926,9.37979342 15.360094,9.73940211 15.360094,10.3387499 L15.360094,12.256663 L15.7800966,12.4964021 L15.7800966,10.4586195 C15.7800966,9.67946733 15.4800948,9.08011951 14.7600904,8.72051081 C14.5800893,8.60064125 14.3400878,8.54070647 14.1600867,8.60064125 C14.1000863,8.60064125 14.0400859,8.66057603 13.9800856,8.72051081 L13.9800856,8.30096734 L13.560083,8.06122821 L13.5000826,11.1778369 L13.5000826,11.2377717 L13.9800856,11.4775108 L13.9800856,9.61953255 Z" id="路径"></path>
                                    <path d="M18.6001139,10.9980325 L18.6001139,10.9980325 L18.1801113,10.7582934 L18.1201109,11.0579673 C18.0001102,10.6983586 17.7001084,10.3986847 17.4001065,10.2188804 C16.9801039,9.97914124 16.6801021,10.039076 16.500101,10.0990108 C16.2600995,10.2788151 16.1400988,10.6384238 16.1400988,11.1179021 C16.1400988,12.0768586 16.5601014,12.9159456 17.3401061,13.3954238 C17.5201073,13.5152934 17.7601087,13.5152934 17.9401098,13.5152934 C18.0001102,13.4553586 18.0601106,13.3954238 18.1201109,13.335489 L18.1201109,13.5752282 C18.1201109,13.9947716 18.0601106,14.2345108 17.9401098,14.2944456 C17.8201091,14.3543803 17.640108,14.3543803 17.4001065,14.174576 C17.2201054,14.0547064 16.7401025,13.7550325 16.6801021,13.2156195 L16.6801021,13.1556847 L16.2000992,12.9159456 L16.2000992,13.0358151 C16.2600995,13.7550325 16.8601032,14.2944456 17.3401061,14.5941195 C17.5801076,14.7739238 17.8201091,14.8338586 18.0001102,14.8338586 C18.0601106,14.8338586 18.1801113,14.8338586 18.2401117,14.7739238 C18.4801131,14.6540543 18.6001139,14.2944456 18.6001139,13.7550325 L18.6001139,10.9980325 Z M18.1201109,12.3165977 C18.1201109,12.6762064 18.0601106,12.9159456 17.8801095,13.0358151 C17.7601087,13.0957499 17.5801076,13.0957499 17.4001065,12.9758803 C16.8001028,12.6162717 16.5601014,11.8970543 16.5601014,11.2977064 C16.5601014,10.9380978 16.6801021,10.6384238 16.8601032,10.5784891 C16.8601032,10.5185543 16.9201036,10.5185543 16.9801039,10.5185543 C17.1001047,10.5185543 17.2201054,10.5784891 17.3401061,10.6384238 C17.9401098,10.9980325 18.1801113,11.7771847 18.1201109,12.3165977 Z" id="形状"></path>
                                    <path d="M20.6401263,15.3133369 L20.6401263,15.3133369 L21.1201293,15.553076 L21.1201293,12.8560108 L21.6001322,13.1556847 L21.6001322,12.7361412 L21.1201293,12.4364673 L21.1201293,12.1967282 C21.1201293,12.0768586 21.1201293,11.8371195 21.1801297,11.8371195 C21.1801297,11.8371195 21.24013,11.8371195 21.3601308,11.8970543 C21.4201311,11.8970543 21.4801315,11.9569891 21.6001322,12.0169238 L21.6601326,12.1367934 L21.6601326,11.6573151 L21.6601326,11.6573151 C21.5401319,11.5374456 21.4801315,11.5374456 21.4201311,11.4775108 L21.3601308,11.4775108 C21.1801297,11.2977064 21.0001286,11.2977064 20.8801278,11.3576412 C20.7001267,11.417576 20.6401263,11.6573151 20.6401263,12.0169238 L20.6401263,12.1967282 L20.2201238,11.9569891 L20.2201238,12.3765325 L20.6401263,12.6162717 L20.6401263,15.3133369 Z" id="路径"></path>
                                    <path d="M24.2401484,15.7928151 C24.2401484,15.0136629 23.8801462,13.9348369 22.9801407,13.4553586 C22.5601381,13.1556847 22.2601363,13.2755543 22.0801352,13.335489 C21.8401337,13.5152934 21.6601326,13.8749021 21.6601326,14.3543803 C21.6601326,15.1934673 22.0801352,16.2123586 22.9201403,16.6918368 C23.1601418,16.8716412 23.3401429,16.931576 23.520144,16.931576 C23.6401447,16.931576 23.7601454,16.8716412 23.8201458,16.8117064 C24.1201477,16.6918368 24.2401484,16.3322282 24.2401484,15.7928151 Z M23.8201458,15.6130108 C23.8201458,15.9726195 23.7001451,16.2722934 23.520144,16.3921629 C23.4001432,16.4520977 23.2201421,16.4520977 22.9801407,16.3322282 C22.380137,15.9726195 22.0801352,15.1934673 22.0801352,14.5341847 C22.0801352,14.174576 22.2001359,13.8749021 22.380137,13.8149673 C22.4401374,13.7550325 22.5001377,13.7550325 22.5601381,13.7550325 C22.6801388,13.7550325 22.8001396,13.7550325 22.9201403,13.8749021 C23.520144,14.174576 23.8201458,15.0136629 23.8201458,15.6130108 Z" id="形状"></path>
                                    <path d="M25.9201587,15.1934673 L25.9201587,15.1934673 C25.6801572,15.0735977 25.4401557,15.0136629 25.2601546,15.0735977 C25.2001543,15.0735977 25.0801535,15.1335325 25.0201532,15.2534021 L25.0201532,14.713989 L24.6001506,14.4742499 L24.6001506,17.5908586 L24.6001506,17.5908586 L25.0201532,17.8305977 L25.0801535,16.1524238 C25.0801535,15.8527499 25.1401539,15.6729455 25.320155,15.553076 C25.4401557,15.4931412 25.6801572,15.553076 25.9201587,15.6729455 C25.9201587,15.6729455 25.9201587,15.6729455 25.9201587,15.6729455 L26.0401594,15.7328803 L26.0401594,15.2534021 L25.9201587,15.1934673 Z" id="路径"></path>
                                    <polygon id="路径" points="2.70001653 11.8970543 2.70001653 11.9569891 3.1200191 12.1967282 3.1200191 10.2188804 4.80002938 11.1778369 4.86002975 11.2377717 4.86002975 10.7582934 3.1200191 9.73940211 3.1200191 8.4208369 5.04003085 9.49966298 5.10003122 9.49966298 5.10003122 9.08011951 2.70001653 7.64168473"></polygon>
                                    <path d="M6.7800415,11.1179021 L6.66004077,11.0579673 C6.4200393,10.9380978 6.18003783,10.878163 6.00003673,10.9380978 C5.88003599,10.9980325 5.82003563,11.0579673 5.76003526,11.1179021 L5.76003526,10.5784891 L5.34003269,10.3387499 L5.34003269,13.4553586 L5.34003269,13.4553586 L5.76003526,13.7550325 L5.76003526,12.0169238 C5.76003526,11.7771847 5.88003599,11.5374456 6.00003673,11.4775108 C6.18003783,11.3576412 6.36003893,11.417576 6.6000404,11.5374456 C6.66004077,11.5374456 6.66004077,11.5374456 6.66004077,11.5973804 L6.7800415,11.5973804 L6.7800415,11.1179021 Z" id="路径"></path>
                                    <path d="M9.1800562,14.2944456 L9.1800562,14.174576 C9.1800562,13.335489 8.82005399,12.256663 7.98004885,11.7771847 C7.62004665,11.5973804 7.38004518,11.5374456 7.14004371,11.6573151 C6.84004187,11.8371195 6.72004114,12.1967282 6.72004114,12.7361412 C6.72004114,13.7550325 7.14004371,14.6540543 7.92004848,15.0735977 C8.16004995,15.1934673 8.34005105,15.2534021 8.52005216,15.2534021 C8.58005252,15.2534021 8.70005326,15.2534021 8.76005363,15.1934673 C8.94005473,15.1335325 9.06005546,14.9537282 9.1800562,14.5941195 L9.1800562,14.5341847 L8.76005363,14.2944456 L8.70005326,14.4143151 C8.64005289,14.5941195 8.58005252,14.713989 8.46005179,14.7739238 C8.34005105,14.8338586 8.16004995,14.7739238 7.98004885,14.6540543 C7.44004554,14.3543803 7.20004408,13.6950977 7.14004371,13.1556847 L9.06005546,14.2345108 L9.1800562,14.2944456 Z M8.70005326,13.5752282 L7.14004371,12.6762064 C7.20004408,12.3765325 7.32004481,12.1967282 7.44004554,12.1367934 C7.56004628,12.0768586 7.74004738,12.0768586 7.92004848,12.1967282 C8.40005142,12.4964021 8.70005326,13.0957499 8.70005326,13.5752282 Z" id="形状"></path>
                                    <path d="M11.8200724,15.7928151 L11.8200724,15.7328803 C11.8200724,14.8937934 11.5200705,13.8149673 10.620065,13.2755543 C10.2600628,13.0957499 9.96006097,13.0957499 9.78005987,13.2156195 C9.48005803,13.335489 9.3600573,13.7550325 9.3600573,14.2345108 C9.3600573,15.2534021 9.78005987,16.1524238 10.5600646,16.5719673 C10.8000661,16.6918368 10.9800672,16.8117064 11.1600683,16.8117064 C11.2200687,16.8117064 11.3400694,16.7517716 11.4000698,16.7517716 C11.5800709,16.6319021 11.7000716,16.4520977 11.760072,16.092489 L11.8200724,16.092489 L11.3400694,15.8527499 L11.3400694,15.9126847 C11.2800691,16.092489 11.2200687,16.2123586 11.1000679,16.2722934 C10.9800672,16.3322282 10.8000661,16.2722934 10.620065,16.1524238 C10.0800617,15.8527499 9.84006024,15.1934673 9.78005987,14.6540543 L11.7000716,15.7328803 L11.8200724,15.7928151 Z M11.3400694,15.1335325 L9.78005987,14.174576 C9.84006024,13.9348369 9.96006097,13.6950977 10.0800617,13.635163 C10.2000624,13.5752282 10.3800635,13.5752282 10.5600646,13.6950977 C11.0400676,13.9947716 11.2800691,14.5941195 11.3400694,15.1335325 Z" id="形状"></path>
                                    <polygon id="路径" points="12.1200742 17.3511195 12.1200742 17.4110542 12.5400768 17.6507934 12.5400768 13.3954238 12.5400768 13.335489 12.1200742 13.0957499"></polygon>
                                    <path d="M15.3000937,18.7895542 C15.1800929,18.7296194 15.1800929,18.6696847 15.1800929,18.4898803 L15.1800929,16.931576 C15.1800929,16.2722934 14.8200907,15.7328803 14.1600867,15.3732716 C13.8000845,15.1335325 13.5000826,15.0735977 13.3200815,15.1934673 C13.1400804,15.2534021 13.0200797,15.4931412 13.0200797,15.7928151 L13.0200797,15.8527499 L13.4400823,16.092489 L13.4400823,15.9726195 C13.4400823,15.7928151 13.5000826,15.6729455 13.6200834,15.6130108 C13.6800837,15.553076 13.8600848,15.6130108 14.0400859,15.7328803 C14.5200889,15.9726195 14.70009,16.2722934 14.70009,16.6918368 C14.70009,16.8117064 14.70009,16.8716412 14.70009,16.8716412 C14.6400896,16.931576 14.4600885,16.8716412 14.4000882,16.8117064 L14.2800874,16.7517716 C13.8000845,16.5719673 13.3800819,16.3322282 13.0800801,16.5120325 C12.9600793,16.5719673 12.900079,16.7517716 12.900079,16.9915108 C12.900079,17.5908586 13.2600812,18.1302716 13.8000845,18.4299455 C14.2800874,18.7296194 14.5200889,18.6696847 14.7600904,18.4898803 C14.7600904,18.7296194 14.8800911,18.9693586 15.1200926,19.1491629 C15.2400933,19.2090977 15.3000937,19.2090977 15.360094,19.2690325 L15.4200944,19.2690325 L15.4200944,18.849489 L15.360094,18.849489 C15.360094,18.7895542 15.360094,18.7895542 15.3000937,18.7895542 Z M14.70009,17.2911847 L14.70009,17.7107281 C14.70009,17.9504673 14.6400896,18.0703368 14.5200889,18.1302716 C14.4000882,18.2501412 14.1600867,18.1902064 13.9200852,18.0703368 C13.6200834,17.8905325 13.3200815,17.5309238 13.3200815,17.1713151 C13.3200815,17.0514455 13.3800819,16.9915108 13.4400823,16.9915108 C13.4400823,16.931576 13.5000826,16.931576 13.560083,16.931576 C13.7400841,16.931576 13.9800856,17.0514455 14.220087,17.1113803 C14.2800874,17.1713151 14.4000882,17.2312499 14.4600885,17.2312499 C14.5200889,17.2911847 14.6400896,17.2911847 14.70009,17.2911847 Z" id="形状"></path>
                                    <path d="M16.9201036,16.931576 C16.6801021,16.8117064 16.500101,16.7517716 16.3200999,16.8117064 C16.2000992,16.8716412 16.1400988,16.8716412 16.1400988,16.931576 L16.1400988,16.5719673 L15.6600959,16.3322282 L15.6600959,19.388902 L15.6600959,19.4488368 L16.0800984,19.688576 L16.1400988,17.8305977 C16.1400988,17.5309238 16.2000992,17.3511195 16.3200999,17.2911847 C16.500101,17.1713151 16.6201017,17.2312499 16.8601032,17.3511195 C17.2801058,17.5908586 17.4601069,18.0104021 17.4601069,18.5498151 L17.4601069,20.4677281 L17.8801095,20.7074673 L17.9401098,18.7296194 C17.9401098,17.8905325 17.640108,17.3511195 16.9201036,16.931576 Z" id="路径"></path>
                                    <path d="M20.2801241,20.9472064 C20.2201238,21.1869455 20.1601234,21.3068151 20.0401227,21.4266846 C19.9201219,21.4866194 19.7401208,21.4266846 19.5601197,21.3667499 C19.0201164,21.0071412 18.7201146,20.227989 18.7201146,19.5687064 C18.7201146,19.2090977 18.8401153,18.9094238 19.0201164,18.849489 C19.1401172,18.7296194 19.3201183,18.7895542 19.5601197,18.9094238 C19.9201219,19.0892281 20.1601234,19.5087716 20.2201238,19.9882499 L20.2801241,20.0481847 L20.7001267,20.2879238 L20.7001267,20.1680542 C20.6401263,19.4488368 20.2201238,18.849489 19.6201201,18.4898803 C19.1401172,18.2501412 18.8401153,18.310076 18.6601142,18.3700107 C18.4201128,18.5498151 18.300112,18.9094238 18.2401117,19.388902 C18.2401117,20.227989 18.6601142,21.2468803 19.5001194,21.7862933 C19.7401208,21.8462281 19.9201219,21.9061629 20.0401227,21.9061629 C20.1601234,21.9061629 20.2201238,21.9061629 20.3401245,21.8462281 C20.5201256,21.7862933 20.6401263,21.5465542 20.7001267,21.1869455 L20.7001267,21.1270107 L20.2801241,20.8872716 L20.2801241,20.9472064 Z" id="路径"></path>
                                    <path d="M22.2001359,19.9882499 C21.8401337,19.7485107 21.5401319,19.7485107 21.3001304,19.8683803 C21.0601289,19.9882499 20.8801278,20.4077933 20.8801278,20.9472064 C20.8801278,21.9660977 21.3601308,22.8051846 22.0801352,23.2247281 C22.3201366,23.4045325 22.5601381,23.4644672 22.7401392,23.4644672 C22.8001396,23.4644672 22.8601399,23.4045325 22.9201403,23.4045325 C23.1001414,23.3445977 23.2801425,23.1048585 23.3401429,22.8051846 L23.3401429,22.7452498 L22.9201403,22.5055107 L22.9201403,22.5654455 C22.8601399,22.7452498 22.8001396,22.8651194 22.6801388,22.9250542 C22.5601381,22.984989 22.380137,22.9250542 22.1401355,22.8051846 C21.6001322,22.5055107 21.3601308,21.8462281 21.3601308,21.3068151 L23.2801425,22.4455759 L23.3401429,22.4455759 L23.3401429,22.3856412 C23.4001432,21.606489 23.1001414,20.4677281 22.2001359,19.9882499 Z M22.9201403,21.7862933 L21.3601308,20.8872716 C21.3601308,20.5875977 21.4801315,20.4077933 21.6601326,20.2879238 C21.7801333,20.227989 21.9001341,20.2879238 22.1401355,20.3478586 C22.5601381,20.6475325 22.8601399,21.2468803 22.9201403,21.7862933 Z" id="形状"></path>
                                    <path d="M24.3001488,21.4866194 C24.2401484,21.5465542 24.1201477,21.606489 24.0601473,21.6664238 L24.0601473,21.1270107 L23.6401447,20.8872716 L23.6401447,24.0038803 L23.6401447,24.0638151 L24.1201477,24.3035542 L24.1201477,22.6253803 C24.1201477,22.3257064 24.180148,22.0859672 24.3601491,22.0260325 C24.4801499,21.9660977 24.7201513,21.9660977 24.9601528,22.0859672 L25.0801535,22.2058368 L25.0801535,21.6664238 L25.0201532,21.6664238 C24.7201513,21.4866194 24.5401502,21.4266846 24.3001488,21.4866194 Z" id="路径"></path>
                                </g>
                                <g transform="translate(41.670255, 24.962837)" fill="#FFFFFF" id="路径">
                                    <path d="M8.67005307,5.36416301 C9.15005601,5.60390214 9.51005822,6.26318474 9.51005822,6.742663 C9.51005822,7.28207604 9.15005601,7.46188039 8.67005307,7.22214126 C8.2500505,6.98240213 7.8900483,6.32311952 7.8900483,5.84364127 C7.8900483,5.30422823 8.2500505,5.12442388 8.67005307,5.36416301 Z"></path>
                                    <path d="M5.85003581,3.68598911 C6.27003838,3.98566302 6.63004059,4.58501084 6.63004059,5.12442388 C6.63004059,5.60390214 6.27003838,5.84364127 5.85003581,5.60390214 C5.37003287,5.30422823 5.01003067,4.7048804 5.01003067,4.16546736 C5.01003067,3.68598911 5.37003287,3.44624998 5.85003581,3.68598911 Z"></path>
                                    <path d="M2.97001818,2.06774999 C3.45002112,2.30748912 3.81002332,2.96677172 3.81002332,3.44624998 C3.81002332,3.98566302 3.45002112,4.16546736 2.97001818,3.92572823 C2.55001561,3.68598911 2.19001341,3.0267065 2.19001341,2.54722824 C2.19001341,2.0078152 2.55001561,1.82801086 2.97001818,2.06774999 Z"></path>
                                </g>
                            </g>
                        </g>
                    </g>
                    <g transform="translate(54.150923, 55.155795)" id="路径">
                        <path d="M47.4132567,25.7430856 L47.3532563,28.6798899 C47.4732571,28.6798899 48.9732662,28.3202812 49.4532692,28.5600203 C49.9332721,28.7398247 52.033285,28.3202812 52.0932853,28.3202812 C52.2132861,28.3202812 55.2733048,27.4212595 55.4533059,27.1815203 C55.5133063,27.1215855 55.5733066,27.001716 55.5733066,26.9417812 C55.5733066,26.8219116 55.5133063,26.7020421 55.3333052,26.7020421 C55.0333033,26.7020421 52.6332886,27.3613247 52.5732883,27.3613247 C52.5732883,27.3613247 52.5132879,27.3013899 52.5132879,27.2414551 C52.5732883,27.1815203 52.6332886,27.1215855 52.8132897,27.001716 C53.173292,26.8818464 56.7133136,25.9828247 56.773314,25.4434116 C56.773314,24.8440638 56.5933129,24.9039986 56.1733103,25.0238682 C55.8133081,25.2036725 53.3532931,25.9228899 53.2332923,25.9228899 C53.2332923,25.9228899 53.173292,25.9228899 53.173292,25.9228899 C53.173292,25.8629551 53.2332923,25.8030203 53.3532931,25.7430856 C53.6532949,25.5033464 56.6533133,24.5443899 57.433318,24.0649117 C57.5533188,24.0049769 57.6133191,23.8851073 57.6133191,23.7652377 C57.6733195,23.5854334 57.6133191,23.4655638 57.3733177,23.405629 C56.773314,23.405629 53.4732938,24.6642595 53.2932927,24.7241943 C53.2932927,24.7241943 53.2332923,24.6642595 53.2932927,24.6043247 C53.2932927,24.5443899 53.3532931,24.4844551 53.4732938,24.3645856 C53.7732956,24.244716 56.8333144,23.0460204 56.8933147,22.9860856 C56.8933147,22.9261508 56.9533151,22.866216 57.0133155,22.7463464 C57.0133155,22.5665421 56.9533151,22.3867377 56.6533133,22.5066073 C56.0533096,22.6264769 54.4332997,22.866216 52.9332905,23.5854334 C51.9732846,24.0649117 51.7932835,24.0049769 51.8532839,23.8851073 C51.8532839,23.8251725 51.9132842,23.705303 51.9132842,23.705303 C51.9732846,23.705303 52.5732883,22.9860856 52.7532894,22.866216 C52.8732901,22.8062812 53.3532931,22.0870638 53.4732938,21.5476508 C53.5332942,21.3079117 53.4732938,21.0681725 53.2932927,20.948303 C53.2932927,20.948303 52.9932909,21.3079117 52.7532894,21.6675204 C52.4532875,22.0870638 51.3132806,22.9261508 51.2532802,22.9261508 C51.1932798,22.9860856 50.5332758,23.3456943 49.9332721,24.244716 C49.2732681,25.0838029 48.4932633,25.5033464 47.4132567,25.7430856 Z" fill="#ECB4BF"></path>
                        <path d="M0.492969467,9.92030305 C-0.767038246,5.06558569 0.552969834,2.42845527 2.59298232,0.930085716 C4.39299334,-0.508349057 7.63301317,-0.208675146 9.43302419,1.34962919 C12.2530415,3.74702048 15.9130639,13.7561291 20.2930907,25.5632812 C27.7331362,27.7808681 39.7332097,28.2004116 47.6532582,25.0838029 C49.093267,26.4023682 49.6332703,27.8408029 48.7332648,29.459042 C40.8732167,34.1339551 18.6730808,35.812129 14.8930576,34.8531724 C11.8930393,34.0740203 3.49298783,21.3079117 0.492969467,9.92030305 Z" fill="#3887E5"></path>
                    </g>
                </g>
                <g transform="translate(150.660922, 0.000000)" id="路径">
                    <g>
                        <path d="M77.9404771,2.56863352 C77.4004738,2.26895961 76.5604687,2.26895961 75.7204635,2.80837265 L7.20004408,42.3053941 C5.46003342,43.3242854 4.08002498,45.6617419 4.08002498,47.6395897 L4.26002608,104.158089 C4.26002608,105.117046 4.62002828,105.776328 5.16003159,106.135937 L1.08000661,103.738546 C0.540003306,103.438872 0.180001102,102.719655 0.180001102,101.760698 L0,45.2421985 C0,43.3242854 1.38000845,40.9268941 3.06001873,39.9679376 L71.6404386,0.410981364 C72.4804437,-0.068496894 73.2604485,-0.128431676 73.8604521,0.231177017 L77.9404771,2.56863352 Z" fill="#6B9EF9"></path>
                        <path d="M75.7204635,2.80837265 C77.4604742,1.78948135 78.8404826,2.56863352 78.8404826,4.54648134 L78.9604834,61.064981 C79.0204837,62.982894 77.6404753,65.3802853 75.9004646,66.3392418 L7.38004518,105.896198 C5.64003453,106.855155 4.26002608,106.076002 4.26002608,104.158089 L4.08002498,47.6395897 C4.08002498,45.6617419 5.46003342,43.3242854 7.20004408,42.3053941 L75.7204635,2.80837265 Z" fill="#DEE7F8"></path>
                    </g>
                    <g transform="translate(13.020080, 15.754286)">
                        <path d="M55.5603401,44.8312171 C56.4003453,44.3517388 57.0603493,44.7113475 57.0603493,45.670304 C57.0603493,46.5693258 56.4003453,47.7080866 55.5603401,48.1875649 L1.56000955,79.2937169 C0.780004775,79.7731951 0.120000735,79.4135864 0.120000735,78.5145647 C0.120000735,77.5556082 0.780004775,76.4168473 1.56000955,75.9373691 L55.5603401,44.8312171 Z" fill="#B6CBEA"></path>
                        <path d="M55.5603401,29.9074563 C56.3403449,29.4279781 57.0003489,29.8475215 57.0003489,30.7465433 C57.0003489,31.645565 56.3403449,32.7843259 55.5603401,33.2638041 L1.56000037,64.4298909 C0.720004408,64.9093691 0.0600003673,64.4898257 0.0600003673,63.5908039 C0.0600003673,62.6318474 0.720004408,61.5530213 1.50000918,61.0735431 L55.5603401,29.9074563 Z" fill="#B6CBEA"></path>
                        <path d="M12.8400786,20.0182173 C19.9801223,15.9426521 25.8001579,19.2390651 25.8001579,27.3901955 C25.8001579,35.6012606 20.0401227,45.5504345 12.9600793,49.6259997 C5.82003563,53.7614996 0,50.4650866 0,42.2540215 C0,34.1028911 5.76003526,24.1537172 12.8400786,20.0182173 Z" fill="#A6C2FF"></path>
                        <path d="M23.040141,38.1784563 C22.2601363,39.7367606 21.4201311,41.2351302 20.4001249,42.6136302 C19.9201219,43.3328475 19.3801186,43.9921301 18.8401153,44.6514127 C18.0001102,45.5504345 17.160105,46.4494562 16.3200999,47.1686736 C15.2400933,48.1276301 14.1000863,48.9667171 12.9600793,49.6259997 C12.420076,49.9256736 11.9400731,50.1654127 11.4600702,50.4051518 C10.9800672,50.5849562 10.5000643,50.7647605 10.0800617,50.9445649 C8.94005473,51.2442388 7.92004848,51.4240431 6.90004224,51.3641084 C6.00003673,51.3641084 5.16003159,51.184304 4.44002718,50.8846301 C4.08002498,47.5282823 3.78002314,40.6357823 3.96002424,39.1973476 C3.96002424,39.1973476 4.14002534,37.0396954 5.76003526,36.5002824 C5.76003526,36.4403476 5.82003563,36.4403476 5.82003563,36.3804128 C6.7800415,35.4214563 10.0800617,33.9230867 11.6400713,32.7843259 C11.3400694,32.4247172 11.0400676,32.0651085 10.8600665,31.7054998 C10.8600665,31.7654346 10.8600665,31.7654346 10.8600665,31.7654346 C9.12005583,29.9673911 8.22005032,22.1159346 13.0200797,22.835152 C17.4601069,23.4944346 19.5001194,22.3556738 20.4601252,23.4344998 C21.3601308,24.4533911 20.580126,26.131565 19.6201201,26.7908476 C19.6801205,27.6299346 19.6201201,28.888565 19.0801168,29.6677172 C19.0201164,30.7465433 18.780115,32.0651085 18.300112,33.0839998 C19.9801223,33.1439346 22.7401392,33.9830215 23.040141,38.1784563 Z" fill="#A6C2FF"></path>
                        <path d="M55.5603401,37.3393693 C56.3403449,36.9198258 57.0003489,37.2794345 57.0003489,38.1784563 C57.0003489,39.1374128 56.4003453,40.2761736 55.5603401,40.6957171 L1.56000037,71.8618039 C0.720004408,72.3412821 0.120000735,71.9816734 0.0600003673,71.0227169 C0.0600003673,70.1236952 0.720004408,68.9849343 1.56000037,68.5054561 L55.5603401,37.3393693 Z" fill="#B6CBEA"></path>
                        <polygon fill="#6B9EF9" points="38.9402384 10.3087825 38.9402384 14.024739 32.5801994 17.7406955 32.5201991 14.024739"></polygon>
                        <polygon fill="#6B9EF9" points="47.9402935 5.15439127 47.9402935 8.87034777 41.5202542 12.5863043 41.5202542 8.87034777"></polygon>
                        <polygon fill="#6B9EF9" points="56.9403486 0 56.9403486 3.65602171 50.5203093 7.37197821 50.5203093 3.65602171"></polygon>
                        <polygon fill="#6B9EF9" points="56.9403486 10.1289782 56.9403486 13.8449347 32.5801994 27.8696737 32.5801994 24.1537172"></polygon>
                    </g>
                    <g transform="translate(16.926300, 38.543029)">
                        <g transform="translate(0.479618, 0.000000)">
                            <g transform="translate(0.000000, 1.535589)">
                                <path d="M7.43423373,6.90168868 L7.314233,8.45999302 C7.314233,8.45999302 6.65422896,14.0339278 11.1542565,14.0339278 C11.1542565,14.0339278 13.4942708,11.4567321 13.194269,8.5199278 C12.8942672,5.58312347 7.43423373,6.90168868 7.43423373,6.90168868 Z" fill="#D390A1"></path>
                                <path d="M16.0142863,18.2892973 C15.5342833,19.0085147 14.99428,19.6677973 14.4542767,20.3270799 C13.6142716,21.2261016 12.7742664,22.0651886 11.9342613,22.8443407 C10.8542547,23.8032973 9.71424769,24.6423842 8.57424071,25.3016668 C8.0342374,25.6013407 7.55423447,25.8410799 7.07423153,26.080819 C6.71422932,20.6267538 6.29422675,15.5322973 6.05422528,14.5733408 C5.57422235,12.595493 7.13423189,8.93947127 7.314233,8.45999302 C7.314233,8.45999302 7.314233,8.45999302 7.314233,8.45999302 C7.314233,8.45999302 7.314233,8.5199278 7.314233,8.5199278 C8.15423814,12.1759495 10.5542528,12.595493 10.5542528,12.595493 C11.9942616,12.1759495 12.5942653,11.0971234 12.8342668,10.1381669 C12.8942672,9.83849301 12.9542675,9.47888431 12.9542675,9.23914519 C12.9542675,9.23914519 12.9542675,9.23914519 12.9542675,9.23914519 C13.0142679,8.99940606 12.9542675,8.81960171 12.9542675,8.75966693 L13.0142679,8.75966693 C13.0742683,8.81960171 13.1342686,8.87953649 13.2542694,8.99940606 C13.3142697,9.11927562 13.4342705,9.29907997 13.5542712,9.41894953 C14.7542785,11.3967973 15.5942837,15.5922321 16.0142863,18.2892973 Z" fill="#DEE7F8"></path>
                                <g transform="translate(0.000000, 8.459993)" fill="#4C4A8B">
                                    <path d="M11.9342613,14.3843477 C10.8542547,15.3433042 9.71424769,16.1823912 8.57424071,16.8416738 C8.0342374,17.1413477 7.55423447,17.3810868 7.07423153,17.620826 C6.59422859,17.8006303 6.11422565,17.9804347 5.69422308,18.160239 C4.5542161,18.4599129 3.53420986,18.6397173 2.51420361,18.5797825 C2.51420361,17.0214781 2.39420288,15.5231086 2.09420104,14.3244129 C0.954194063,9.82930428 -1.56582136,6.77263039 1.37419663,3.7159565 C1.37419663,3.65602171 1.434197,3.65602171 1.434197,3.59608693 C2.39420288,2.63713042 5.69422308,1.13876086 7.25423263,0 C7.314233,0 7.314233,0 7.314233,0 C7.314233,0 7.314233,0 7.314233,0.0599347822 C7.314233,0.359608693 7.314233,1.61823912 7.91423667,3.7159565 C7.91423667,3.7159565 7.91423667,3.7159565 7.91423667,3.77589128 C8.39423961,5.33419562 9.23424475,7.31204343 10.6142532,9.7693695 C11.2742572,10.9081304 11.6942598,12.5263695 11.9342613,14.3843477 Z"></path>
                                    <path d="M18.6543024,5.3941304 C17.8742976,6.95243474 17.0342925,8.45080429 16.0142863,9.82930428 C15.5342833,10.5485217 14.99428,11.2078043 14.4542767,11.8670869 C14.4542767,8.57067386 14.0342741,5.09445649 13.4942708,2.81693476 C13.3742701,2.27752172 13.2542694,1.85797825 13.1342686,1.43843477 C13.1342686,1.43843477 13.1342686,1.43843477 13.1342686,1.43843477 L13.1342686,1.43843477 C13.1342686,1.19869564 13.0142679,0.958956515 12.9542675,0.779152169 C12.9542675,0.779152169 12.9542675,0.779152169 12.9542675,0.779152169 C12.8942672,0.599347822 12.8342668,0.419543475 12.7142661,0.299673911 C12.7142661,0.299673911 12.8342668,0.299673911 12.9542675,0.299673911 L13.0142679,0.299673911 C13.0742683,0.239739129 13.1342686,0.239739129 13.194269,0.239739129 C13.4342705,0.239739129 13.6742719,0.239739129 13.9142734,0.299673911 C15.5942837,0.359608693 18.3543006,1.19869564 18.6543024,5.3941304 Z"></path>
                                </g>
                                <path d="M14.6942782,5.22351478 C14.7542785,4.86390608 14.7542785,3.96488435 14.4542767,2.82612349 C14.2742756,2.40658001 14.0942745,1.92710176 13.7942727,1.4476235 C13.6742719,1.20788437 13.6142716,1.02808002 13.5542712,0.908210458 C13.2542694,0.00918872529 15.2342815,1.74729741 15.2342815,1.74729741 C15.2342815,1.74729741 15.2342815,2.04697132 15.2342815,2.4665148 C15.2942818,3.30560175 15.2342815,4.56423217 14.6942782,5.34338434 C14.6942782,5.28344956 14.6942782,5.22351478 14.6942782,5.22351478 Z" fill="#5B5D70"></path>
                                <path d="M14.6942782,5.22351478 C14.6942782,5.22351478 14.6942782,5.28344956 14.6942782,5.34338434 C14.6342778,6.42221042 14.3942763,7.74077563 13.9142734,8.75966693 C13.7942727,8.99940606 13.6742719,9.23914519 13.5542712,9.41894953 C13.4342705,9.59875388 13.3142697,9.77855823 13.194269,9.89842779 L13.194269,9.89842779 C13.0742683,10.0182974 12.9542675,10.0782321 12.8342668,10.1381669 C12.1742627,10.6176452 11.2742572,10.7375147 10.1342503,10.2580365 C8.81424218,9.65868866 7.91423667,9.11927562 7.314233,8.5199278 L7.314233,8.5199278 C7.314233,8.5199278 7.314233,8.45999302 7.314233,8.45999302 C7.25423263,8.45999302 7.25423263,8.45999302 7.25423263,8.45999302 C6.95423079,8.10038432 6.65422896,7.74077563 6.47422785,7.38116694 L6.47422785,7.38116694 C6.17422602,6.8417539 5.93422455,6.30234086 5.75422345,5.76292782 C5.57422235,5.22351478 5.51422198,4.98377565 5.39422124,3.96488435 C5.39422124,3.96488435 10.4942525,-1.96865909 13.5542712,0.908210458 C14.0342741,1.26781915 14.3942763,1.92710176 14.7542785,2.70625392 C14.7542785,2.70625392 14.7542785,2.76618871 14.7542785,2.76618871 C14.7542785,3.00592784 14.8142789,4.02481913 14.6942782,5.22351478 Z" fill="#ECB4BF"></path>
                            </g>
                            <path d="M15.2342815,4.00210382 C15.0542804,4.18190817 14.8742793,4.24184295 14.7542785,4.30177773 C14.6342778,4.36171251 14.5142771,4.36171251 14.4542767,4.36171251 C14.334276,4.36171251 14.2742756,4.36171251 14.2142752,4.36171251 C6.47422785,2.26399513 8.33423924,7.47832119 8.33423924,7.47832119 L7.6742352,7.4183864 C7.61423483,6.27962554 7.19423226,5.7402125 6.71422932,5.50047337 C6.29422675,5.38060381 5.87422418,5.68027772 5.93422455,6.0998212 C5.99422492,7.11871249 6.35422712,8.55714727 6.47422785,8.91675596 L6.47422785,8.91675596 C6.47422785,8.97669074 6.47422785,8.97669074 6.47422785,8.97669074 C4.7342172,7.17864728 3.83421169,-0.672809194 8.63424108,0.0464081924 C13.0742683,0.705690797 15.1142807,-0.433070065 16.0742866,0.645756015 C16.9742921,1.66464731 16.1942874,3.34282121 15.2342815,4.00210382 Z" fill="#4C4A8B"></path>
                        </g>
                        <path d="M6.17384152,28.1558211 C5.03383455,28.455495 4.0138283,28.6352993 2.99382206,28.5753645 C2.09381655,28.5753645 1.25381141,28.3955602 0.533806998,28.0958863 C0.173804794,24.7395385 -0.126197042,17.8470385 0.0538040597,16.4086037 C0.0538040597,16.4086037 0.233805162,14.2509516 1.85381508,13.7115385 C2.33381802,13.5317342 2.93382169,13.4717994 3.71382646,13.7115385 C6.29384226,14.3708211 5.57383785,22.3421472 5.15383528,25.8183645 C5.03383455,26.7173863 5.45383712,27.616408 6.17384152,28.1558211 Z" fill="#3A3A77"></path>
                    </g>
                </g>
                <g transform="translate(297.061818, 32.544587)" id="路径">
                    <g>
                        <path d="M1.08000661,2.56863352 C1.62000992,2.26895961 2.40001469,2.26895961 3.3000202,2.80837265 L71.8204397,42.3053941 C73.5604503,43.3242854 74.9404588,45.6617419 74.9404588,47.6395897 L74.7604577,104.158089 C74.7604577,105.117046 74.4004554,105.776328 73.8604521,106.135937 L77.9404771,103.738546 C78.4804804,103.438872 78.8404826,102.719655 78.8404826,101.760698 L79.0204837,45.2421985 C79.0204837,43.3242854 77.6404753,40.9268941 75.9004646,39.9679376 L7.38004518,0.410981364 C6.54004004,-0.068496894 5.76003526,-0.128431676 5.16003159,0.231177017 L1.08000661,2.56863352 Z" fill="#6B9EF9"></path>
                        <path d="M3.3000202,2.80837265 C1.56000955,1.78948135 0.180001102,2.56863352 0.180001102,4.54648134 L0,61.064981 C0,62.982894 1.38000845,65.3802853 3.1200191,66.3392418 L71.6404386,105.896198 C73.3804492,106.855155 74.7604577,106.076002 74.7604577,104.158089 L74.9404588,47.6395897 C74.9404588,45.6617419 73.5604503,43.3242854 71.8204397,42.3053941 L3.3000202,2.80837265 Z" fill="#DEE7F8"></path>
                    </g>
                    <g transform="translate(8.096260, 16.704151)">
                        <path d="M55.4441294,75.6467865 C56.2841346,76.1262648 56.9441386,77.2650257 56.8841382,78.1640474 C56.8841382,79.0630691 56.2241342,79.4826126 55.4441294,79.0031343 L1.44379885,47.8370476 C0.603793704,47.3575693 -0.0562103364,46.2787433 0.00379003093,45.3197867 C0.00379003093,44.420765 0.663794071,44.0012215 1.44379885,44.4806998 L55.4441294,75.6467865 Z" fill="#B6CBEA"></path>
                        <path d="M55.5041298,68.2148735 C56.2841346,68.634417 56.9441386,69.7731779 56.9441386,70.7321344 C56.9441386,71.6311561 56.2841346,71.9907648 55.4441294,71.5712214 L1.44379885,40.4051346 C0.663794071,39.9256563 0.00379003093,38.7868955 0.00379003093,37.8878737 C0.00379003093,36.9289172 0.663794071,36.5693085 1.44379885,37.0487868 L55.5041298,68.2148735 Z" fill="#B6CBEA"></path>
                        <path d="M13.0238697,1.74720007 C20.1639134,5.88270005 25.8639483,15.8318739 25.8639483,23.9830043 C25.8639483,32.1940694 20.0439127,35.4305477 12.903869,31.3549825 C5.82382566,27.2194825 0.0637903982,17.2703087 0.0637903982,9.11917829 C0.123790766,0.968047905 5.88382603,-2.32836512 13.0238697,1.74720007 Z" fill="#A6C2FF"></path>
                        <path d="M18.6039039,33.0930912 C17.2838958,33.0930912 15.9038874,32.7934173 14.4038782,32.1341347 C14.1038763,30.0364173 13.8638749,27.9386999 13.8638749,27.8188303 C14.1038763,25.1217651 15.3638749,17.6898521 15.7838866,16.4312217 C15.7838866,16.4312217 16.6238918,13.4344826 19.2639079,14.7530478 C21.3039204,15.8318739 19.0839068,23.503526 18.123901,26.3803956 C18.0639006,26.6201347 18.2439017,30.2761564 18.6039039,33.0930912 Z" fill="#A6C2FF"></path>
                        <path d="M18.6039039,33.0930912 C17.2838958,33.0930912 15.9038874,32.7934173 14.4038782,32.1341347 C14.1038763,30.0364173 13.8638749,27.9386999 13.8638749,27.8188303 C14.1038763,25.1217651 15.3638749,17.6898521 15.7838866,16.4312217 C15.7838866,16.4312217 16.6238918,13.4344826 19.2639079,14.7530478 C21.3039204,15.8318739 19.0839068,23.503526 18.123901,26.3803956 C18.0639006,26.6201347 18.2439017,30.2761564 18.6039039,33.0930912 Z" fill="#3A3A77"></path>
                        <path d="M18.9039057,26.799939 C18.5439035,27.4592216 18.4839032,30.6357651 18.4839032,33.0930912 C16.8038929,33.0331564 14.9438815,32.4937433 12.903869,31.3549825 C12.0638639,30.8755042 11.1638583,30.2761564 10.3838536,29.556939 C9.84385027,29.1373955 9.36384733,28.7178521 8.88384439,28.2983086 C8.52384219,25.9009173 8.04383925,23.9830043 8.04383925,23.9830043 C5.46382345,20.3869173 5.94382639,19.3080913 7.08383337,18.6488087 C7.68383704,18.2292652 8.52384219,17.9895261 9.06384549,17.450113 C10.3238532,16.071613 10.4438539,15.5322 10.4438539,15.5322 C10.4438539,15.5322 14.1638767,14.0937652 16.503891,14.3934391 C17.4638969,14.5133087 19.1439072,14.5732435 19.5639098,15.8318739 C20.2239138,17.8097217 19.443909,19.2481565 20.0439127,19.8475043 C22.9239303,23.2038521 19.923912,24.4025477 18.9039057,26.799939 Z" fill="#4C4A8B"></path>
                        <path d="M55.5041298,60.7230258 C56.2841346,61.202504 56.9441386,62.3412649 56.9441386,63.2402866 C56.9441386,64.1992431 56.2841346,64.5588518 55.5041298,64.0793736 L1.44379885,32.9732216 C0.663794071,32.4937433 0.00379003093,31.3549825 0.00379003093,30.4559608 C0.00379003093,29.4970042 0.663794071,29.1373955 1.50379003,29.6168738 L55.5041298,60.7230258 Z" fill="#B6CBEA"></path>
                        <polygon fill="#6B9EF9" points="57.004139 42.6227215 57.004139 46.338678 32.6439898 32.2540042 32.6439898 28.5979825"></polygon>
                        <polygon fill="#6B9EF9" points="57.0641393 32.4937433 57.004139 36.2096998 50.6441 32.4937433 50.6441 28.7777869"></polygon>
                        <polygon fill="#6B9EF9" points="39.0640291 22.125026 39.0640291 25.8409825 32.6439898 22.125026 32.6439898 18.4090695"></polygon>
                        <polygon fill="#6B9EF9" points="48.0640842 27.3393521 48.0640842 30.9953738 41.6440449 27.3393521 41.6440449 23.6233956"></polygon>
                    </g>
                    <g transform="translate(12.650373, 20.624512)">
                        <g>
                            <path d="M1.44971321,9.03464324 C1.089711,7.4763389 -0.83030075,5.01901283 0.849709535,2.14214329 C3.06972312,-1.69368278 5.82974002,2.74149111 5.82974002,2.74149111 C5.82974002,2.74149111 3.54972606,3.1010998 3.54972606,7.11673021 C3.60972643,12.7505997 1.32971247,12.9903389 1.32971247,12.9903389 C1.68971468,11.6118389 1.80971541,10.5929476 1.44971321,9.03464324 Z" fill="#2A2A5E"></path>
                            <g transform="translate(4.449732, 7.429247)">
                                <path d="M2.10001286,4.90180897 C2.40001469,4.96174376 2.70001653,5.08161332 3.00001836,5.1415481 C3.06001873,5.1415481 3.24001983,5.1415481 3.36002057,5.1415481 C3.78002314,5.20148288 4.14002534,5.26141767 4.56002791,5.38128723 C4.74002902,5.26141767 4.92003012,5.1415481 5.10003122,5.02167854 C6.12003746,4.54220028 6.90004224,4.30246115 6.90004224,3.28356985 C6.90004224,3.22363507 6.90004224,3.10376551 6.90004224,2.98389594 C6.6000404,2.98389594 6.12003746,2.62428725 6.18003783,2.32461334 C6.66004077,0.226895961 1.86001139,0.646439437 1.86001139,0.646439437 C1.86001139,0.646439437 1.56000955,3.16370029 1.44000882,4.18259159 C1.44000882,4.18259159 1.68001028,4.54220028 1.38000845,4.96174376 C1.68001028,4.96174376 1.74001065,4.84187419 2.10001286,4.90180897 Z" fill="#D390A1"></path>
                                <g transform="translate(0.000000, 1.095950)" fill="#3A3A77">
                                    <path d="M4.86002975,5.18435866 C4.86002975,5.18435866 2.10001286,4.94461953 0.900005509,4.0455978 C1.32000808,3.3863152 1.5,2.60716303 1.5,2.60716303 C1.5,2.60716303 3.36002057,3.98566302 5.10003122,3.92572823 L4.86002975,5.18435866 Z"></path>
                                    <path d="M6.2400382,4.76481519 C6.2400382,4.76481519 7.14004371,3.44624998 7.08004334,1.88794564 C6.72004114,1.40846738 5.76003526,1.22866304 5.76003526,1.22866304 C5.76003526,1.22866304 6.4200393,3.3863152 5.10003122,3.92572823 L6.2400382,4.76481519 Z"></path>
                                </g>
                            </g>
                            <g transform="translate(3.015467, 0.000000)">
                                <path d="M5.51428943,3.34083893 C6.77429714,3.40077371 7.67430265,2.56168676 8.21430596,2.92129545 C9.65431477,3.94018675 8.99431073,6.33757804 8.69430889,7.8359476 C8.39430706,9.45418672 7.31430045,11.0124911 6.65429641,11.4320345 C6.1142931,11.7317084 5.45428906,11.7317084 4.91428576,11.4320345 C0.714260044,8.97470846 0.654259677,6.8170563 0.654259677,6.8170563 C0.654259677,6.8170563 0.654259677,3.22096937 5.51428943,3.34083893 Z" fill="#ECB4BF"></path>
                                <path d="M0.354257841,2.98123024 C0.834260779,1.54279546 5.03428649,-2.59270451 8.57430816,2.38188242 C8.57430816,2.38188242 10.3743192,4.17992588 8.69430889,7.8359476 C8.69430889,7.8359476 9.71431514,3.58057806 7.73430302,3.34083893 C0.534258942,2.56168676 2.994274,7.95581716 2.994274,7.95581716 C2.994274,7.95581716 2.75427253,7.29653456 2.33426996,6.51738239 C1.85426702,5.798165 0.894261146,6.27764326 0.954261514,6.87699108 C1.01426188,7.53627369 1.49426482,7.65614325 1.79426666,8.31542585 C2.03426812,8.85483889 2.4542707,9.63399106 2.4542707,9.63399106 L1.91426739,9.39425193 C1.07426225,8.4952302 0.354257841,7.41640412 0.114256371,6.21770848 C-0.0657447305,5.31868674 -0.0657447305,4.17992588 0.354257841,2.98123024 Z" fill="#2A2A5E"></path>
                            </g>
                        </g>
                        <path d="M5.82974002,25.6365779 C5.28973671,25.2170344 4.80973378,24.797491 4.32973084,24.3779475 C3.18972386,23.2391866 2.04971688,21.9805562 1.02971064,20.6020562 C1.02971064,18.8040127 1.02971064,17.4255128 1.02971064,17.0659041 C1.02971064,17.0659041 1.20971174,15.2678606 2.52971982,14.7284476 C2.88972202,14.5486432 3.42972533,14.4887084 4.14972974,14.6685128 C5.64973892,15.0281215 5.88974039,20.9616649 5.82974002,25.6365779 Z" fill="#3A3A77"></path>
                    </g>
                </g>
                <g transform="translate(290.761780, 111.075569)" id="路径">
                    <g>
                        <path d="M35.6402182,25.6271066 C35.6402182,28.2043023 34.6202119,30.0023457 32.9402016,31.021237 L30.7201881,32.2798675 C32.4601987,31.2609762 33.480205,29.5228675 33.480205,26.8857371 C33.480205,19.8134328 26.0401594,9.80432413 16.8001028,4.47012851 C10.9800672,1.11378071 5.88003599,0.454498101 2.88001763,2.19260679 L5.04003085,0.933976359 C8.04004922,-0.804132325 13.1400804,-0.144849721 18.9601161,3.1515633 C28.2001726,8.48575892 35.6402182,18.5548023 35.6402182,25.6271066 Z" fill="#DEE7F8"></path>
                        <path d="M16.8001028,4.47012851 C26.0401594,9.80432413 33.480205,19.8733675 33.480205,26.8857371 C33.480205,33.9580414 25.9201587,35.2766066 16.7401025,30.0622805 C16.6201017,30.0023457 16.5601014,29.9424109 16.500101,29.8824762 C14.4000882,28.6837805 11.6400713,26.8258023 9.66005913,24.9078892 L0,23.4694545 L3.96002424,18.1352589 C1.5,14.4792371 0.0600003673,10.7632806 0.0600003673,7.64667197 C0.0600003673,0.574367666 7.56004628,-0.864067108 16.8001028,4.47012851 Z" fill="#6B9EF9"></path>
                    </g>
                    <g transform="translate(5.640035, 9.715452)" fill="#DEE7F8">
                        <path d="M19.2001175,9.73837183 C20.7601271,10.6373936 22.0201348,12.7351109 22.0201348,14.5331544 C21.9601344,16.2712631 20.7601271,16.9904805 19.2001175,16.0914587 C17.7001084,15.192437 16.4401006,13.0947196 16.4401006,11.356611 C16.4401006,9.55856749 17.7001084,8.8393501 19.2001175,9.73837183 Z"></path>
                        <path d="M11.1000679,5.06345882 C12.6600775,5.96248056 13.8600848,8.06019793 13.8600848,9.8582414 C13.8600848,11.5963501 12.6000771,12.3155675 11.1000679,11.4165457 C9.5400584,10.517524 8.34005105,8.35987184 8.34005105,6.62176316 C8.34005105,4.88365448 9.60004958,4.16443709 11.1000679,5.06345882 Z"></path>
                        <path d="M3.00001836,0.388545809 C4.50002755,1.28756754 5.76003526,3.38528492 5.76003526,5.18332839 C5.76003526,6.92143707 4.50002755,7.64065446 3.00001836,6.74163272 C1.44000882,5.84261099 0.240001469,3.74489361 0.240001469,1.94685015 C0.240001469,0.208741463 1.5,-0.510475924 3.00001836,0.388545809 Z"></path>
                    </g>
                </g>
            </g>
        </g>
    </g>
</svg>