<?xml version="1.0" encoding="UTF-8"?>
<svg width="784px" height="526px" viewBox="0 0 784 526" version="1.1" xmlns="http://www.w3.org/2000/svg" xmlns:xlink="http://www.w3.org/1999/xlink">
    <title>6</title>
    <defs>
        <path d="M634.503884,212.69568 C626.043832,213.956412 545.58334,187.54109 537.003287,151.460163 C528.483235,115.379236 464.102841,77.7374029 436.682673,87.0428002 C409.262505,96.3481974 373.322285,86.3824171 373.322285,86.3824171 L350.642146,75.4560797 L345.482115,72.9946521 L345.482115,72.9946521 L0,272.550397 L384.182352,496 L719.884407,302.027494 C729.304464,296.62436 737.104512,288.579694 741.184537,278.553879 C763.864676,223.141739 642.303932,211.615053 634.503884,212.69568 Z" id="path-1"></path>
        <filter x="-4.7%" y="-5.9%" width="109.4%" height="116.5%" filterUnits="objectBoundingBox" id="filter-2">
            <feOffset dx="0" dy="10" in="SourceAlpha" result="shadowOffsetOuter1"></feOffset>
            <feGaussianBlur stdDeviation="10" in="shadowOffsetOuter1" result="shadowBlurOuter1"></feGaussianBlur>
            <feColorMatrix values="0 0 0 0 0.0980392157   0 0 0 0 0.129411765   0 0 0 0 0.235294118  0 0 0 0.1 0" type="matrix" in="shadowBlurOuter1"></feColorMatrix>
        </filter>
    </defs>
    <g id="页面-1" stroke="none" stroke-width="1" fill="none" fill-rule="evenodd">
        <g id="6" transform="translate(20.000000, 0.000000)" fill-rule="nonzero">
            <g id="路径">
                <use fill="black" fill-opacity="1" filter="url(#filter-2)" xlink:href="#path-1"></use>
                <use fill="#F3F6FD" xlink:href="#path-1"></use>
            </g>
            <path d="M496.083037,218.098814 L496.083037,227.644351 C496.083037,229.145221 495.183031,230.586057 493.26302,231.666684 L311.281906,336.787655 C307.501882,338.948909 301.381845,338.948909 297.541821,336.787655 L237.121452,301.667285 L161.160987,346.393226 C159.120974,347.653958 157.980967,345.972983 158.700971,342.671067 L178.621093,248.416399 C178.981096,246.795459 179.7011,245.054449 180.601106,243.553578 L183.841125,238.330549 C183.781125,238.390584 183.721125,238.450618 183.721125,238.510653 C184.62113,236.889713 185.821138,235.568947 186.901144,234.968599 L287.641761,175.534126 C289.741774,174.273395 290.881781,175.95437 290.161776,179.31632 L270.181654,273.570989 C269.821652,275.251964 269.041647,277.113043 268.021641,278.613914 C267.96164,278.794018 267.84164,278.974123 267.781639,279.094192 L265.021622,283.656839 C264.121617,285.097674 262.98161,286.41844 261.901603,287.018789 L245.281502,296.804464 L297.541821,327.242119 C301.321845,329.463407 307.441882,329.463407 311.221905,327.242119 L493.203019,222.121147 C495.123031,220.980486 496.083037,219.53965 496.083037,218.098814 Z" id="路径" fill="#DEE7F8"></path>
            <path d="M566.403467,216.05763 C566.043465,218.819232 563.58345,221.941043 561.003434,223.021669 C559.563425,223.622018 558.363418,223.441913 557.703414,222.721495 C557.643414,222.721495 557.583413,222.601426 557.523413,222.541391 L524.223209,192.824155 C512.703139,197.386801 496.863042,196.726418 486.602979,190.782971 C480.782943,187.481055 477.842925,183.038479 477.842925,178.595902 L477.902926,171.811967 C477.842925,167.429425 480.722943,163.046883 486.482978,159.684933 C498.003049,153.021068 516.783164,153.021068 528.363234,159.684933 C534.903274,163.467127 537.783292,168.570087 536.943287,173.552977 C537.063288,173.012664 537.123288,172.47235 537.123288,171.932037 L537.063288,178.776006 C537.063288,182.438131 535.023275,186.160289 530.88325,189.222065 L565.26346,212.93582 C565.26346,212.93582 565.26346,212.93582 565.26346,212.93582 C566.163466,213.476133 566.583468,214.55676 566.403467,216.05763 Z" id="路径" fill="#E1E9F4"></path>
            <path d="M455.342787,315.595363 C453.842778,306.049827 442.202707,311.332891 442.202707,311.332891 L433.862656,313.374075 L433.022651,319.617696 L423.842595,316.075642 C417.422555,321.598845 414.122535,319.857836 405.902485,320.15801 C397.802435,320.638288 400.322451,323.760099 400.322451,323.760099 C402.722465,326.581735 410.222511,329.403372 413.402531,330.12379 C414.602538,330.423964 415.802545,330.483999 417.062553,330.483999 C414.242536,339.609292 409.862509,353.717475 406.922491,357.739808 C405.482482,359.720957 403.682471,361.702106 401.462458,363.62322 C391.022394,372.748513 385.082357,380.733144 381.902338,385.716034 L381.902338,385.716034 C380.462329,387.577113 376.502305,393.940805 372.302279,400.724739 C359.762202,400.4846 341.34209,399.644112 341.34209,399.644112 C341.522091,399.824217 341.582091,400.064356 341.642091,400.304496 C341.522091,400.244461 341.40209,400.244461 341.34209,400.244461 C338.822074,398.86366 333.062039,398.803625 330.06202,399.103799 C329.222015,399.223869 328.742012,399.343938 328.502011,399.403973 C327.962008,399.704147 328.982014,400.124391 329.402016,400.304496 C329.102015,400.244461 328.022008,400.244461 325.261991,400.664704 C324.481986,400.724739 324.061984,400.844809 323.821982,400.964879 C323.40198,401.205018 324.541987,401.385122 325.261991,401.505192 C323.881983,401.385122 323.46198,401.385122 323.46198,401.385122 C322.741976,401.565227 322.381973,401.685296 322.141972,401.805366 C321.001965,402.405714 325.14199,402.525784 325.261991,402.585819 C322.921977,402.585819 321.84197,402.885993 321.361967,403.126132 C321.001965,403.366271 321.001965,403.546376 321.001965,403.546376 C321.121966,403.546376 323.041978,404.206759 327.902007,403.906585 C331.142027,403.72648 331.56203,404.146724 331.442029,404.506933 C331.382029,404.687037 331.022026,404.867142 330.662024,404.867142 C327.962008,405.047246 326.281997,405.58756 325.381992,406.067838 C325.08199,406.247943 324.781988,406.428047 324.601987,406.548117 C324.361986,406.728221 324.541987,406.908326 324.901989,406.908326 C325.921995,406.788256 328.142009,406.548117 332.162033,405.887734 C336.902062,405.167316 338.402072,404.266794 339.362077,403.786515 C338.942075,404.086689 338.582073,404.326829 338.582073,404.326829 C341.582091,404.566968 354.842172,407.688778 362.64222,407.748813 C364.922234,407.748813 365.94224,408.889475 364.802233,410.030136 C359.4022,415.493305 347.642128,428.761001 357.962191,432.36309 L358.022192,432.36309 L367.082247,436.985771 L367.082247,436.985771 C367.262248,437.826259 366.902246,438.546676 365.402237,439.08699 C363.542225,439.807408 363.062223,439.147025 360.96221,439.807408 C354.842172,441.668487 352.202156,446.351203 351.062149,449.653118 C348.782135,450.373536 346.142119,451.274058 345.182113,452.474755 C344.342108,453.555382 345.602116,454.395869 347.522127,454.575974 C349.56214,454.756078 351.482152,455.116287 355.802178,455.956774 C364.802233,457.637749 378.722318,456.737227 383.102345,448.452422 C386.402365,442.088731 385.922362,441.728522 386.222364,440.347721 C392.222401,440.047547 402.242462,438.066398 404.642477,428.160652 C407.522495,416.393828 425.162603,397.843068 423.482592,395.741849 C426.182609,393.220387 428.642624,389.798402 428.402622,385.595964 C428.162621,381.513597 429.782631,376.770846 431.462641,373.048687 C432.84265,369.986911 439.862693,353.117126 442.442708,350.115385 C446.762735,344.952391 450.242756,334.926576 452.52277,327.001979 L452.52277,327.001979 C452.52277,327.001979 456.842797,325.200935 455.342787,315.595363 Z M421.622581,362.602628 C420.542574,364.103499 419.162566,365.604369 417.722557,367.045205 C419.282567,362.482558 420.962577,358.220086 421.802582,356.539111 C423.302591,353.777509 427.502617,342.250824 430.442635,334.146123 C431.762643,334.266193 433.082651,334.266193 434.162658,334.086088 C429.66263,345.492704 424.082596,359.240678 421.622581,362.602628 Z" id="形状" fill="#DEE7F8"></path>
            <path d="M378.722318,356.89932 L374.462292,354.798101 C374.642293,354.858136 374.702294,355.038241 374.822294,355.098275 C373.862289,354.437892 372.48228,354.197753 370.682269,354.377858 L373.142284,343.991834 C374.16229,341.410336 370.86227,347.894097 366.902246,345.972983 C358.922197,342.070719 343.442102,342.070719 332.342034,345.972983 C326.822001,347.954132 327.242003,332.465148 326.281997,335.046645 L310.921903,382.654258 C309.901897,385.175721 311.221905,387.757218 315.24193,389.678332 C323.221979,393.580596 338.642073,393.580596 349.742141,389.678332 C355.682177,387.577113 359.102198,384.815512 359.882203,382.113945 C359.822203,382.234014 359.762202,382.414119 359.702202,382.594223 L362.58222,375.149906 C363.122223,375.029836 363.602226,374.969801 364.142229,374.729662 C371.042271,372.328269 378.122315,366.504891 379.922326,361.702106 C380.882332,359.360748 380.342328,357.679773 378.722318,356.89932 Z M373.322285,360.501409 C372.242279,363.263011 368.882258,366.564926 365.042235,368.906284 L368.582256,359.720957 C369.18226,359.480817 369.722263,359.240678 370.262267,359.060574 C371.522274,358.64033 372.662281,358.400191 373.622287,358.280121 C373.742288,358.880469 373.682288,359.600887 373.322285,360.501409 Z" id="形状" fill="#DEE7F8"></path>
            <polygon id="路径" fill="#FDFEFF" points="680.284164 324.960795 461.582826 199.48802 409.262505 229.685535 627.963844 355.15831 624.783825 356.959355 406.142486 231.546614 242.941487 325.801283 461.582826 451.274058 458.462807 453.075103 239.761468 327.602327 187.501148 357.799842 406.142486 483.272618 403.022467 485.133697 17.3401061 262.524582 20.4601252 260.723537 184.981132 356.419041 237.301453 326.161492 72.7804455 230.526022 75.9004646 228.664943 240.421472 324.360447 293.221795 293.862758 128.700788 198.167254 130.920801 196.906522 295.441809 292.602027 348.722135 261.804164 184.141127 166.168694 186.361141 164.847928 350.882148 260.543433 403.682471 230.105778 239.101464 134.410274 242.281483 132.609229 406.80249 228.244699 459.122811 198.047184 294.601803 102.351679 297.721823 100.550635 683.404183 323.099716"></polygon>
            <path d="M289.681773,246.615354 C289.681773,246.675389 289.621773,246.675389 289.621773,246.735424 C289.501772,246.915528 289.381771,247.095633 289.261771,247.215702 C289.381771,247.095633 289.441772,246.975563 289.501772,246.855493 L289.681773,246.615354 Z" id="路径" fill="#DEE7F8"></path>
            <path d="M289.501772,246.855493 C289.441772,246.975563 289.381771,247.095633 289.261771,247.215702 C289.381771,247.095633 289.501772,246.915528 289.621773,246.735424 C289.561773,246.795459 289.561773,246.795459 289.501772,246.855493 Z" id="路径" fill="#DEE7F8"></path>
            <path d="M185.881138,106.073838 L367.862252,0.952867022 C369.782264,-0.187794574 371.582275,-0.247829395 372.782282,0.472588455 L377.102308,2.93401611 C375.842301,2.27363308 374.16229,2.3336679 372.242279,3.4743295 L368.642257,5.51551341 L372.242279,11.338891 L372.602281,135.130692 L190.561167,240.251663 C190.561167,240.251663 184.501129,247.93612 185.701137,248.656538 L181.38111,246.135075 C180.181103,245.414658 179.401098,243.853752 179.401098,241.752534 L179.041096,117.960733 C179.041096,113.578191 182.101115,108.295127 185.881138,106.073838 Z" id="路径" fill="#B6CBEA"></path>
            <path d="M372.182278,3.4743295 C376.022302,1.25304113 379.082321,3.05408575 379.082321,7.37659286 L379.44319,131.168394 C379.502323,135.550935 376.442304,140.834 372.602281,143.055288 L190.621167,248.176259 C186.841144,250.337513 183.721125,248.596503 183.721125,244.213961 L183.361122,120.482195 C183.361122,116.099653 186.421141,110.756554 190.201164,108.595301 L372.182278,3.4743295 Z" id="路径" fill="#83A1CC"></path>
            <polygon id="路径" fill="#4C4A8B" points="190.201164 116.459862 190.561167 240.311698 372.602281 135.130692 372.242279 11.338891"></polygon>
            <path d="M187.741149,252.138558 L187.80115,261.744129 C187.80115,263.184965 188.701155,264.565766 190.621167,265.646392 L297.541821,327.842467 C301.321845,330.063755 307.501882,330.063755 311.281906,327.842467 L493.26302,222.721495 C495.183031,221.640869 496.143037,220.200033 496.143037,218.699162 L496.083037,209.153626 C496.083037,207.71279 495.123031,206.271954 493.26302,205.191328 L386.282365,142.995253 C382.562342,140.773965 376.382304,140.834 372.602281,142.995253 L190.621167,248.176259 C188.701155,249.256886 187.741149,250.697722 187.741149,252.138558 Z" id="路径" fill="#83A1CC"></path>
            <path d="M187.741149,252.138558 L187.80115,261.744129 C187.80115,263.184965 188.701155,264.565766 190.621167,265.646392 L297.541821,327.842467 C301.321845,330.00372 307.501882,330.00372 311.281906,327.842467 L493.26302,222.721495 C495.183031,221.640869 496.143037,220.139998 496.143037,218.699162 L496.083037,209.153626 C496.083037,210.594462 495.123031,212.035297 493.203019,213.175959 L311.221905,318.29693 C307.441882,320.458184 301.321845,320.458184 297.541821,318.29693 L190.561167,256.100856 C188.701155,255.020229 187.741149,253.579393 187.741149,252.138558 Z" id="路径" fill="#83A1CC"></path>
            <polygon id="路径" fill="#3A3A77" points="266.161629 302.447737 266.161629 307.730802 252.781547 299.98631 252.781547 294.703246"></polygon>
            <polygon id="路径" fill="#3A3A77" points="287.821762 314.995015 287.821762 320.218044 274.44168 312.533587 274.50168 307.250523"></polygon>
            <path d="M196.861205,261.443955 C195.361196,260.543433 194.101188,261.323885 194.101188,263.064895 C194.041188,264.86594 195.301196,267.027193 196.861205,267.927715 C198.421215,268.768203 199.681222,268.10782 199.681222,266.306775 C199.681222,264.505731 198.421215,262.344477 196.861205,261.443955 Z" id="路径" fill="#3A3A77"></path>
            <path d="M190.621167,248.176259 C186.841144,250.337513 186.781143,253.879567 190.561167,256.100856 L297.541821,318.29693 C301.321845,320.458184 307.441882,320.458184 311.221905,318.29693 L493.203019,213.175959 C496.983042,210.95467 497.043043,207.412616 493.26302,205.191328 L386.282365,142.995253 C382.562342,140.834 376.382304,140.834 372.602281,142.995253 L190.621167,248.176259 Z" id="路径" fill="#B6CBEA"></path>
            <path d="M422.462586,240.671907 L391.502397,222.661461 C390.182389,221.881008 388.022375,221.881008 386.702367,222.661461 L323.101978,259.402771 C321.78197,260.183224 321.78197,261.38392 323.101978,262.164373 L354.062167,280.174819 C355.382175,280.955272 357.542189,280.955272 358.862197,280.174819 L422.462586,243.433509 C423.782594,242.653056 423.842595,241.452359 422.462586,240.671907 Z" id="路径" fill="#83A1CC"></path>
            <polygon id="路径" fill="#83A1CC" points="224.641375 247.756016 261.541601 269.188447 245.761504 278.253705 208.861279 256.821274"></polygon>
            <polygon id="路径" fill="#83A1CC" points="426.062608 173.613012 410.282512 182.738305 373.442286 161.305874 389.222383 152.180581"></polygon>
            <polygon id="路径" fill="#3A3A77" points="272.461668 249.016747 257.941579 257.481657 250.741535 253.339254 265.261624 244.874344"></polygon>
            <polygon id="路径" fill="#3A3A77" points="265.981628 231.906823 258.421582 236.289365 251.281538 232.146962 258.781584 227.76442"></polygon>
            <polygon id="路径" fill="#3A3A77" points="256.681571 237.309957 249.181525 241.692499 242.041482 237.550096 249.541528 233.167554"></polygon>
            <polygon id="路径" fill="#3A3A77" points="270.481656 239.771384 262.921609 244.153926 255.781566 239.951489 263.281612 235.628982"></polygon>
            <polygon id="路径" fill="#3A3A77" points="261.181599 245.114484 248.881524 252.258627 241.74148 248.116225 254.041555 240.972081"></polygon>
            <polygon id="路径" fill="#3A3A77" points="247.441515 242.713091 239.881468 247.095633 232.741425 242.95323 240.241471 238.570688"></polygon>
            <polygon id="路径" fill="#3A3A77" points="275.581687 215.937561 268.021641 220.320103 264.001616 217.978745 271.561662 213.596203"></polygon>
            <polygon id="路径" fill="#3A3A77" points="266.28163 221.340694 258.781584 225.723236 254.76156 223.381878 262.261605 218.999336"></polygon>
            <polygon id="路径" fill="#3A3A77" points="298.321826 223.561983 290.76178 227.944525 283.621736 223.802122 291.121782 219.41958"></polygon>
            <polygon id="路径" fill="#3A3A77" points="304.441864 251.29807 296.941818 255.680612 289.741774 251.538209 297.30182 247.155667"></polygon>
            <polygon id="路径" fill="#3A3A77" points="313.741921 245.894936 306.241875 250.277478 299.041831 246.135075 306.601877 241.752534"></polygon>
            <polygon id="路径" fill="#3A3A77" points="275.281685 226.503689 267.721639 230.886231 260.581595 226.743828 268.081641 222.361286"></polygon>
            <polygon id="路径" fill="#3A3A77" points="289.021769 228.965117 281.461723 233.347659 274.321679 229.205256 281.821725 224.822714"></polygon>
            <polygon id="路径" fill="#3A3A77" points="300.301838 232.86738 292.741792 237.249922 285.601748 233.107519 293.101794 228.724977"></polygon>
            <polygon id="路径" fill="#3A3A77" points="279.721712 234.368251 272.221666 238.750793 265.021622 234.60839 272.581669 230.225848"></polygon>
            <polygon id="路径" fill="#3A3A77" points="291.001781 238.270514 283.501735 242.593021 276.301691 238.450618 283.861738 234.128111"></polygon>
            <polygon id="路径" fill="#3A3A77" points="304.741865 240.731942 297.24182 245.114484 290.041776 240.972081 297.601822 236.589539"></polygon>
            <polygon id="路径" fill="#3A3A77" points="303.061855 210.354322 295.561809 214.736864 288.421766 210.594462 295.921812 206.21192"></polygon>
            <polygon id="路径" fill="#3A3A77" points="321.601969 199.548054 314.101923 203.930596 306.961879 199.788194 314.461925 195.405652"></polygon>
            <polygon id="路径" fill="#3A3A77" points="312.661914 194.38506 305.161868 198.767602 301.141843 196.426244 308.641889 192.043702"></polygon>
            <polygon id="路径" fill="#3A3A77" points="303.421857 199.728159 295.861811 204.110701 291.841787 201.829378 299.401833 197.446836"></polygon>
            <polygon id="路径" fill="#3A3A77" points="294.1218 205.131293 286.561754 209.513835 282.54173 207.232512 290.101776 202.84997"></polygon>
            <polygon id="路径" fill="#3A3A77" points="284.821744 210.534427 277.321698 214.916969 273.301673 212.575611 280.801719 208.193069"></polygon>
            <polygon id="路径" fill="#3A3A77" points="328.142009 216.657978 320.581962 221.04052 313.441919 216.898118 320.941965 212.515576"></polygon>
            <polygon id="路径" fill="#3A3A77" points="323.041978 240.551837 315.481931 244.874344 308.341888 240.731942 315.841933 236.3494"></polygon>
            <polygon id="路径" fill="#3A3A77" points="314.041922 235.328808 306.481876 239.71135 299.341832 235.568947 306.841878 231.186405"></polygon>
            <polygon id="路径" fill="#3A3A77" points="332.282034 235.148703 324.781988 239.47121 317.581944 235.328808 325.14199 231.006301"></polygon>
            <polygon id="路径" fill="#3A3A77" points="323.281979 229.925674 315.781933 234.308216 308.581889 230.165813 316.141935 225.783271"></polygon>
            <polygon id="路径" fill="#3A3A77" points="309.601895 227.464246 302.041849 231.846788 294.901805 227.704385 302.401851 223.321844"></polygon>
            <polygon id="路径" fill="#3A3A77" points="341.582091 229.745569 334.082045 234.128111 326.882001 229.985709 334.382047 225.603167"></polygon>
            <polygon id="路径" fill="#3A3A77" points="332.582036 224.52254 325.08199 228.905082 317.881946 224.762679 325.381992 220.380137"></polygon>
            <polygon id="路径" fill="#3A3A77" points="318.841952 222.061112 311.341906 226.443654 304.141862 222.301252 311.641908 217.91871"></polygon>
            <polygon id="路径" fill="#3A3A77" points="307.561883 218.158849 300.061837 222.541391 292.861793 218.398988 300.361839 214.016446"></polygon>
            <polygon id="路径" fill="#3A3A77" points="293.821799 215.697421 286.261752 220.079963 279.121709 215.937561 286.621755 211.615053"></polygon>
            <polygon id="路径" fill="#3A3A77" points="284.521742 221.100555 277.021696 225.483097 269.821652 221.340694 277.381698 216.958153"></polygon>
            <polygon id="路径" fill="#3A3A77" points="326.101996 207.412616 318.60195 211.735123 311.401906 207.59272 318.961953 203.270213"></polygon>
            <polygon id="路径" fill="#3A3A77" points="316.86194 212.755715 309.301893 217.138257 302.16185 212.995854 309.661896 208.613312"></polygon>
            <polygon id="路径" fill="#3A3A77" points="312.361912 204.951188 304.861866 209.33373 297.661822 205.191328 305.221868 200.808786"></polygon>
            <polygon id="路径" fill="#3A3A77" points="331.202027 183.578792 323.701982 187.961334 319.681957 185.619976 327.182003 181.237434"></polygon>
            <polygon id="路径" fill="#3A3A77" points="349.442139 183.338653 341.942093 187.721195 334.80205 183.578792 342.302095 179.19625"></polygon>
            <polygon id="路径" fill="#3A3A77" points="340.202083 188.741787 332.642036 193.124329 325.501993 188.981926 333.002038 184.599384"></polygon>
            <polygon id="路径" fill="#3A3A77" points="360.122205 218.939302 352.622159 223.321844 345.422115 219.179441 352.92216 214.796899"></polygon>
            <polygon id="路径" fill="#3A3A77" points="351.122149 213.776307 343.622104 218.098814 336.422059 213.956412 343.922105 209.57387"></polygon>
            <polygon id="路径" fill="#3A3A77" points="369.422261 213.536168 361.862215 217.91871 354.722171 213.776307 362.222217 209.393765"></polygon>
            <polygon id="路径" fill="#3A3A77" points="355.982179 200.508612 348.422133 204.891154 341.282089 200.688716 348.782135 196.366209"></polygon>
            <polygon id="路径" fill="#3A3A77" points="369.662263 202.970039 362.162217 207.352581 354.962173 203.210179 362.522219 198.827637"></polygon>
            <polygon id="路径" fill="#3A3A77" points="360.422206 208.373173 352.86216 212.69568 345.722116 208.553278 353.222162 204.230771"></polygon>
            <polygon id="路径" fill="#3A3A77" points="341.882093 219.119406 334.322047 223.501948 327.182003 219.359545 334.682049 214.977003"></polygon>
            <polygon id="路径" fill="#3A3A77" points="337.382065 211.254845 329.882019 215.637386 322.681975 211.494984 330.242022 207.112442"></polygon>
            <polygon id="路径" fill="#3A3A77" points="346.682122 205.851711 339.182076 210.234253 331.982032 206.09185 339.482078 201.709308"></polygon>
            <polygon id="路径" fill="#3A3A77" points="330.902026 194.144921 323.40198 198.527463 316.261936 194.38506 323.761982 190.002518"></polygon>
            <polygon id="路径" fill="#3A3A77" points="344.70211 196.606348 337.142064 200.98889 330.00202 196.846488 337.502066 192.463946"></polygon>
            <polygon id="路径" fill="#3A3A77" points="335.402053 202.009482 327.902007 206.331989 320.701963 202.189587 328.202009 197.86708"></polygon>
            <polygon id="路径" fill="#3A3A77" points="381.782337 174.993813 374.282291 179.376355 367.082247 175.233952 374.642293 170.85141"></polygon>
            <polygon id="路径" fill="#3A3A77" points="372.542281 180.396947 364.982234 184.779489 357.842191 180.637086 365.342236 176.254544"></polygon>
            <polygon id="路径" fill="#3A3A77" points="353.942167 191.203214 346.442121 195.585756 339.242077 191.443354 346.802123 187.060812"></polygon>
            <polygon id="路径" fill="#3A3A77" points="378.96232 197.566905 371.462274 201.949447 364.26223 197.807045 371.762276 193.424503"></polygon>
            <polygon id="路径" fill="#3A3A77" points="365.222236 195.105478 357.72219 199.48802 350.522146 195.345617 358.082192 190.963075"></polygon>
            <polygon id="路径" fill="#3A3A77" points="390.542391 201.229029 382.682343 205.851711 379.682324 204.050666 387.542372 199.48802"></polygon>
            <polygon id="路径" fill="#3A3A77" points="408.902503 190.602866 401.042455 195.165513 397.982436 193.424503 405.842484 188.861856"></polygon>
            <polygon id="路径" fill="#3A3A77" points="399.842448 185.439872 380.70233 196.546313 373.562287 192.403911 392.642404 181.297469"></polygon>
            <polygon id="路径" fill="#3A3A77" points="395.582422 193.544572 387.722373 198.107219 384.662355 196.366209 392.582403 191.743528"></polygon>
            <polygon id="路径" fill="#3A3A77" points="399.722447 195.945965 391.862399 200.508612 388.86238 198.767602 396.722429 194.144921"></polygon>
            <polygon id="路径" fill="#3A3A77" points="374.522293 189.702344 366.962246 194.084886 359.822203 189.942483 367.322249 185.559941"></polygon>
            <polygon id="路径" fill="#3A3A77" points="390.842393 180.216842 376.262303 188.681752 369.12226 184.539349 383.642348 176.07444"></polygon>
            <polygon id="路径" fill="#3A3A77" points="372.782282 169.830818 360.482207 176.974962 353.342163 172.832559 365.642238 165.688416"></polygon>
            <polygon id="路径" fill="#3A3A77" points="358.742196 177.995554 351.24215 182.318061 344.042106 178.235693 351.602152 173.853151"></polygon>
            <polygon id="路径" fill="#3A3A77" points="238.44146 237.550096 230.941414 241.872603 226.921389 239.59128 234.421435 235.208738"></polygon>
            <polygon id="路径" fill="#3A3A77" points="247.741517 232.146962 240.18147 236.469469 236.161446 234.188146 243.721492 229.805604"></polygon>
            <polygon id="路径" fill="#3A3A77" points="256.981573 226.743828 249.481527 231.12637 245.461503 228.785012 252.961549 224.40247"></polygon>
            <polygon id="路径" fill="#3A3A77" points="321.961971 188.981926 314.401925 193.364468 310.3819 191.02311 317.941946 186.640568"></polygon>
            <polygon id="路径" fill="#3A3A77" points="349.742141 172.772524 342.242095 177.155066 338.22207 174.813708 345.722116 170.491201"></polygon>
            <polygon id="路径" fill="#3A3A77" points="340.502084 178.175658 333.002038 182.5582 328.982014 180.216842 336.48206 175.8343"></polygon>
            <polygon id="路径" fill="#3A3A77" points="363.842227 164.607789 351.542152 171.751932 347.522127 169.470609 359.822203 162.326466"></polygon>
            <polygon id="路径" fill="#3A3A77" points="363.242224 185.800081 355.742178 190.182622 348.542134 186.04022 356.04218 181.657678"></polygon>
            <polygon id="路径" fill="#3A3A77" points="281.761725 243.673648 274.201679 247.996155 267.061635 243.853752 274.561681 239.47121"></polygon>
            <polygon id="路径" fill="#3A3A77" points="295.441809 246.135075 287.941763 250.457583 280.741719 246.31518 288.301765 241.992673"></polygon>
            <polygon id="路径" fill="#3A3A77" points="286.201752 251.478175 266.941634 262.704686 259.74159 258.562283 279.001708 247.335772"></polygon>
            <polygon id="路径" fill="#3A3A77" points="381.062333 206.752233 371.162272 212.515576 363.962228 208.373173 373.862289 202.60983"></polygon>
            <polygon id="路径" fill="#3A3A77" points="350.882148 224.342436 343.322102 228.724977 336.182058 224.582575 343.682104 220.200033"></polygon>
            <polygon id="路径" fill="#3A3A77" points="295.201807 256.701204 287.701761 261.083746 280.501717 256.941343 288.001763 252.558801"></polygon>
            <polygon id="路径" fill="#3A3A77" points="285.90175 262.104338 275.941689 267.927715 268.741645 263.725278 278.761706 257.961935"></polygon>
            <path d="M397.742435,180.216842 L306.901879,233.047485 L257.761578,204.651014 C250.681535,200.568646 244.921499,190.602866 244.9815,182.438131 L245.161501,116.760037 C245.161501,107.934918 238.981463,97.1886849 231.301416,92.7461081 L322.201972,40.2156399 C329.882019,44.6582166 336.062057,55.1042755 336.062057,63.8693593 L335.882056,129.607488 C335.822056,137.772224 341.582091,147.738004 348.662134,151.820372 L397.742435,180.216842 Z" id="路径" fill="#FFFFFF"></path>
            <polygon id="路径" fill="#83A1CC" points="306.901879 233.047485 397.742435 180.156807 397.742435 181.357504 306.901879 234.188146"></polygon>
            <path d="M322.021971,47.6599577 L246.72151,91.4253421 C247.501515,92.3858992 248.28152,93.4064912 248.941524,94.487118 L324.241985,50.7217335 C323.52198,49.6411068 322.801976,48.6205148 322.021971,47.6599577 Z" id="路径" fill="#B6CBEA"></path>
            <path d="M305.761872,67.3513789 L251.461539,98.9296947 C251.701541,99.5300429 251.941542,100.070356 252.181544,100.670705 L306.541877,69.0923887 C306.301875,68.4920405 306.061874,67.8916923 305.761872,67.3513789 Z" id="路径" fill="#B6CBEA"></path>
            <path d="M307.741884,72.6344432 L253.381551,104.212759 C253.561552,104.873142 253.681553,105.533525 253.861554,106.193908 L308.161886,74.5555574 C308.041886,73.9552092 307.921885,73.2948262 307.741884,72.6344432 Z" id="路径" fill="#B6CBEA"></path>
            <path d="M308.70189,79.1182038 C308.70189,78.9380993 308.641889,78.7579949 308.641889,78.5778904 L254.281557,110.156206 C254.281557,110.336311 254.341557,110.516415 254.341557,110.69652 L254.341557,112.31746 L308.70189,80.739144 L308.70189,79.1182038 Z" id="路径" fill="#B6CBEA"></path>
            <polygon id="路径" fill="#B6CBEA" points="308.70189 85.0016163 254.341557 116.579932 254.341557 118.80122 308.641889 87.1628698"></polygon>
            <polygon id="路径" fill="#B6CBEA" points="329.582018 88.1234269 254.281557 131.948846 254.281557 136.331388 329.582018 92.5660037"></polygon>
            <polygon id="路径" fill="#B6CBEA" points="254.221556 144.376054 308.581889 112.797738 308.581889 110.57645 254.221556 142.214801"></polygon>
            <polygon id="路径" fill="#B6CBEA" points="254.221556 150.859815 308.581889 119.221464 308.581889 117.060211 254.221556 148.638526"></polygon>
            <polygon id="路径" fill="#B6CBEA" points="254.221556 157.283541 308.581889 125.705225 308.581889 123.483936 254.221556 155.122287"></polygon>
            <polygon id="路径" fill="#B6CBEA" points="254.161556 163.767301 308.521889 132.128951 308.521889 129.967697 254.221556 161.546013"></polygon>
            <path d="M254.161556,180.697121 C254.161556,180.877225 254.161556,181.05733 254.161556,181.237434 L329.462017,137.47205 C329.462017,137.291945 329.462017,137.111841 329.462017,136.871701 L329.462017,133.089508 L254.161556,176.914927 L254.161556,180.697121 Z" id="路径" fill="#B6CBEA"></path>
            <path d="M255.601565,188.501647 L309.961897,156.863297 C309.721896,156.262949 309.541895,155.6626 309.361894,155.062252 L255.001561,186.640568 C255.181562,187.240916 255.361563,187.841264 255.601565,188.501647 Z" id="路径" fill="#B6CBEA"></path>
            <path d="M257.881579,193.604607 L312.181911,162.026291 C311.881909,161.485978 311.641908,160.88563 311.341906,160.345316 L256.981573,191.923632 C257.281575,192.463946 257.581577,193.064294 257.881579,193.604607 Z" id="路径" fill="#B6CBEA"></path>
            <path d="M261.001598,198.227288 L315.361931,166.648973 C314.941928,166.168694 314.521925,165.688416 314.161923,165.148102 L259.80159,196.726418 C260.221593,197.266731 260.581595,197.74701 261.001598,198.227288 Z" id="路径" fill="#B6CBEA"></path>
            <path d="M264.961622,202.369691 L319.321955,170.791375 C318.841952,170.371132 318.361949,169.890853 317.881946,169.410574 L263.521613,200.98889 C264.001616,201.469169 264.481619,201.949447 264.961622,202.369691 Z" id="路径" fill="#B6CBEA"></path>
            <polygon id="路径" fill="#B6CBEA" points="279.781713 211.254845 355.082174 167.48946 351.302151 165.328207 276.00169 209.093591"></polygon>
            <polygon id="路径" fill="#B6CBEA" points="286.741755 215.277178 341.042088 183.698862 339.182076 182.618235 284.821744 214.196551"></polygon>
            <polygon id="路径" fill="#B6CBEA" points="292.261789 218.519058 346.622122 186.880707 344.76211 185.800081 290.401778 217.378396"></polygon>
            <polygon id="路径" fill="#B6CBEA" points="297.841823 221.700903 352.202156 190.122588 350.282144 189.041961 295.981812 220.620277"></polygon>
            <polygon id="路径" fill="#B6CBEA" points="303.421857 224.942784 357.72219 193.304433 355.862178 192.223806 301.501846 223.802122"></polygon>
            <path d="M306.901879,233.047485 L306.901879,234.188146 L257.761578,205.851711 C250.141531,201.409134 243.901493,190.662901 243.901493,181.837782 L244.141495,116.159688 C244.141495,107.994953 238.381459,98.0291724 231.301416,93.8867697 L230.34141,93.3464564 L231.301416,92.7461081 C238.981463,97.1886849 245.161501,107.934918 245.161501,116.760037 L244.9815,182.438131 C244.921499,190.602866 250.681535,200.568646 257.761578,204.651014 L306.901879,233.047485 Z" id="路径" fill="#83A1CC"></path>
            <path d="M453.842778,305.989792 L442.442708,301.667285 C435.962669,307.190488 432.722649,305.389444 424.502599,305.749653 C416.342549,306.229931 418.862564,309.351742 418.862564,309.351742 C421.262579,312.173378 428.762625,314.93498 431.942644,315.715433 C433.502654,316.075642 435.062663,316.135677 436.622673,316.135677 C437.942681,316.135677 441.242701,316.375816 442.562709,316.55592 C442.562709,316.67599 442.502709,318.176861 442.442708,318.417 C442.382708,318.717174 453.122774,321.238636 454.802784,318.657139 C455.162786,318.116826 455.522789,315.775468 455.582789,314.334632 C455.642789,313.974423 455.642789,313.674249 455.642789,313.494145 C455.70279,309.711951 453.842778,305.989792 453.842778,305.989792 Z" id="路径" fill="#2A2A5E"></path>
            <path d="M367.62225,187.601125 C366.182242,187.841264 365.762239,187.721195 365.762239,187.721195 C365.162235,187.421021 364.862234,187.240916 364.682232,186.940742 C363.902228,185.860115 368.102253,185.619976 368.282254,185.559941 C365.88224,185.439872 364.982234,184.899558 364.682232,184.41928 C364.442231,183.999036 364.562232,183.698862 364.562232,183.698862 C364.682232,183.638827 366.962246,182.438131 371.702275,182.978444 C374.762294,183.338653 375.422298,182.498165 375.542299,181.837782 C375.602299,181.477573 375.302297,181.177399 375.002296,181.177399 C372.362279,180.877225 371.042271,179.736564 370.442268,178.776006 C370.202266,178.475832 370.022265,178.175658 369.962265,177.875484 C369.842264,177.57531 370.082265,177.215101 370.442268,177.275136 C371.402274,177.45524 373.502286,177.935519 377.102308,179.136215 C382.442341,180.93726 382.682343,183.098514 383.522348,183.698862 C384.362353,184.29921 386.282365,184.239175 386.402365,184.29921 L387.12237,189.462205 L386.162364,189.222065 C385.022357,188.981926 383.82235,189.342135 382.922344,190.062553 C379.622324,192.64405 373.862289,192.704085 371.042271,192.103737 C370.202266,191.923632 369.842264,191.743528 369.662263,191.563423 C369.302261,190.963075 370.562268,190.182622 371.042271,189.882448 C370.682269,189.942483 369.662263,189.942483 367.082247,189.222065 C366.362243,189.101996 366.062241,188.861856 365.88224,188.681752 C365.582238,188.201473 366.782245,187.78123 367.62225,187.601125 Z" id="路径" fill="#ECB4BF"></path>
            <path d="M422.942589,92.806143 C422.942589,92.806143 446.222732,98.5694858 446.342732,99.8902518 C446.342732,100.310496 448.382745,124.02425 448.202744,129.427384 C448.022743,138.252502 424.7426,135.010622 427.802619,128.947105 C429.722631,124.984807 432.002645,122.103136 429.782631,120.061952 C428.282622,118.741186 427.502617,120.001917 425.762606,118.741186 C417.602556,112.857773 422.942589,92.806143 422.942589,92.806143 Z" id="路径" fill="#ECB4BF"></path>
            <path d="M461.342824,222.241217 C466.562856,206.872303 460.142817,196.666383 458.702808,194.024851 L432.662649,202.309656 C432.662649,202.309656 430.502635,225.603167 439.082688,254.900159 C440.162694,258.562283 440.762698,262.344477 441.0627,266.186706 C441.902705,277.173078 441.362702,297.464847 440.942699,302.627842 C443.102712,306.350001 449.28275,308.091011 454.442782,307.070419 C454.442782,307.070419 460.142817,281.55562 457.802802,263.725278 C457.022798,257.9019 456.602795,252.078523 457.022798,246.255145 C457.562801,239.171036 458.702808,230.045744 461.342824,222.241217 Z" id="路径" fill="#3A3A77"></path>
            <path d="M436.262671,315.715433 L424.862601,311.332891 C418.382561,316.856094 415.142541,315.115085 406.922491,315.415259 C398.822441,315.895537 401.342457,319.017348 401.342457,319.017348 C403.742472,321.838985 411.182517,324.660621 414.422537,325.381039 C415.922546,325.741248 417.482556,325.801283 419.042565,325.801283 C420.362573,325.801283 423.722594,326.041422 425.042602,326.221527 C424.982602,326.401631 424.922601,327.842467 424.862601,328.082606 C424.8026,328.442815 435.542666,330.904243 437.282677,328.38278 C437.642679,327.842467 437.942681,325.441074 438.062682,324.060273 C438.122682,323.700064 438.122682,323.339855 438.122682,323.159751 C438.122682,319.377557 436.262671,315.715433 436.262671,315.715433 Z" id="路径" fill="#2A2A5E"></path>
            <path d="M445.022724,230.225848 C451.082761,215.757456 447.002736,201.168995 445.622728,198.527463 L415.142541,211.675088 C415.142541,211.675088 412.982528,234.968599 421.562581,264.265591 C422.642587,267.927715 423.242591,271.709909 423.482592,275.552138 C424.322598,286.53851 423.782594,306.830279 423.362592,311.993274 C425.522605,315.715433 431.762643,317.456443 436.862674,316.375816 C436.862674,316.375816 442.442708,291.5214 440.282695,273.691058 C439.562691,267.387402 441.842705,237.790235 445.022724,230.225848 Z" id="路径" fill="#4C4A8B"></path>
            <path d="M462.602832,140.894034 C467.462862,113.518156 446.642734,117.900698 446.642734,117.900698 C445.98273,123.844145 436.622673,125.705225 430.262634,124.02425 L417.902558,133.329647 C417.002553,134.050065 416.222548,134.830518 415.562544,135.791075 C414.602538,137.291945 413.882534,139.753373 413.34253,142.45494 C412.262524,148.218283 412.262524,154.16173 412.862527,160.045142 C414.242536,173.012664 414.182535,214.916969 414.90254,222.061112 C414.90254,222.061112 435.362665,239.47121 462.422831,202.910004 C465.362849,198.947706 458.582807,163.407092 462.602832,140.894034 Z" id="路径" fill="#3887E5"></path>
            <path d="M430.082633,87.8232528 C425.282603,89.3841582 423.12259,90.1646109 421.022577,90.464785 C419.042565,90.8249939 417.242554,92.5059689 417.422555,94.487118 C417.662557,97.2487197 420.602575,99.1097992 422.522586,100.550635 C428.162621,104.572968 427.382616,108.595301 427.622618,110.45638 L429.362628,110.816589 C429.362628,110.816589 429.302628,105.173316 431.582642,104.452898 C435.602667,103.132132 434.282658,111.777146 433.862656,121.562822 C433.502654,129.00714 445.742729,123.303832 449.042749,121.502787 C450.062755,120.962474 450.90276,120.302091 451.022761,119.161429 C451.682765,114.898957 452.52277,116.219723 452.942773,102.171575 C453.482776,86.3824171 440.102694,84.5813725 430.082633,87.8232528 Z" id="路径" fill="#4C4A8B"></path>
            <path d="M418.382561,132.969438 C405.902485,139.813408 409.862509,165.268172 412.082523,175.534126 C412.562526,177.815449 410.882515,179.916668 408.602501,179.976703 C400.802454,180.036738 385.682361,181.717713 382.622342,182.197991 C382.622342,182.197991 385.44236,187.180881 382.562342,191.14318 C382.562342,191.14318 418.442562,196.306174 424.562599,191.083145 C430.622636,185.800081 434.162658,124.264389 418.382561,132.969438 Z" id="路径" fill="#6B9EF9"></path>
            <path d="M370.022265,300.526623 L369.902264,342.490963 C369.902264,339.309118 367.862252,336.187307 363.722227,333.785914 C358.562195,330.844208 351.422151,329.703546 344.822111,330.423964 C344.462109,330.483999 344.162107,330.544034 343.802105,330.604068 C342.842099,330.724138 341.882093,330.904243 340.922087,331.144382 C339.72208,331.384521 338.582073,331.74473 337.502066,332.164974 C337.442066,332.164974 337.322065,332.225009 337.262065,332.225009 C336.122058,332.705287 334.982051,333.185566 333.962044,333.785914 C329.882019,336.187307 327.902007,339.249083 327.842007,342.370893 L327.962008,300.406554 C327.962008,297.284743 330.00202,294.162932 334.082045,291.821574 C335.102051,291.221226 336.242058,290.740947 337.382065,290.260669 C337.442066,290.260669 337.562066,290.200634 337.622067,290.200634 C338.702073,289.78039 339.84208,289.420181 341.042088,289.120007 C342.002094,288.939903 342.962099,288.759798 343.922105,288.639729 C344.282108,288.579694 344.582109,288.519659 344.942112,288.459624 C351.542152,287.739206 358.682196,288.879868 363.842227,291.821574 C367.982253,294.222967 370.082265,297.344778 370.022265,300.526623 Z" id="路径" fill="#9EB5DF"></path>
            <path d="M363.842227,301.847389 C372.062278,306.59014 372.122278,314.334632 363.962228,319.077383 C355.742178,323.820134 342.422096,323.820134 334.202046,319.077383 C325.981996,314.334632 325.921995,306.59014 334.082045,301.847389 C342.302095,297.044604 355.622177,297.044604 363.842227,301.847389 Z" id="路径" fill="#3A3A77"></path>
            <path d="M373.442286,300.526623 L373.322285,342.490963 C373.262285,346.093052 370.922271,349.695142 366.182242,352.396708 C356.702184,357.919912 341.282089,357.919912 331.68203,352.396708 C326.882001,349.635107 324.481986,345.972983 324.481986,342.370893 L324.601987,300.406554 C324.601987,304.008643 327.002002,307.670767 331.802031,310.432369 C341.40209,315.955572 356.822184,315.955572 366.302242,310.432369 C371.042271,307.730802 373.382286,304.128712 373.442286,300.526623 Z" id="路径" fill="#9EB5DF"></path>
            <path d="M380.882332,334.446297 L375.842301,337.388003 C374.282291,338.288526 372.062278,338.168456 369.662263,336.787655 C368.762257,336.307376 367.862252,335.586959 367.022247,334.746471 L372.062278,331.804765 C372.962283,332.645252 373.802288,333.36567 374.702294,333.845949 C377.102308,335.22675 379.322322,335.346819 380.882332,334.446297 Z" id="路径" fill="#B6CBEA"></path>
            <path d="M385.44236,330.063755 C385.44236,333.425705 384.242352,335.827098 382.32234,336.967759 L377.28231,339.849431 C379.202321,338.768804 380.402329,336.367411 380.402329,333.005461 C380.402329,326.221527 375.6623,317.936721 369.722263,314.514736 C368.822258,314.034458 367.922252,313.614214 367.082247,313.374075 L372.122278,310.432369 C373.022283,310.672508 373.862289,311.092752 374.762294,311.57303 C380.70233,314.995015 385.50236,323.27982 385.44236,330.063755 Z" id="路径" fill="#B6CBEA"></path>
            <path d="M369.722263,314.514736 C375.6623,317.936721 380.402329,326.221527 380.402329,333.005461 C380.402329,339.789396 375.542299,342.550998 369.662263,339.129013 C368.762257,338.648734 367.862252,337.988351 367.022247,337.207899 L367.022247,334.746471 C367.862252,335.586959 368.762257,336.307376 369.662263,336.787655 C374.462292,339.549257 378.362316,337.327968 378.362316,331.8648 C378.362316,326.341596 374.522293,319.617696 369.722263,316.856094 C368.822258,316.375816 367.922252,316.015607 367.082247,315.835503 L367.082247,313.374075 C367.922252,313.614214 368.822258,314.034458 369.722263,314.514736 Z" id="路径" fill="#83A1CC"></path>
            <path d="M366.242242,290.440773 C375.7823,295.963977 375.842301,304.909165 366.302242,310.432369 C356.822184,315.955572 341.40209,315.955572 331.802031,310.432369 C322.261973,304.909165 322.201972,295.963977 331.68203,290.440773 C341.222089,284.91757 356.642183,284.91757 366.242242,290.440773 Z M334.202046,309.051568 C342.422096,313.854353 355.742178,313.854353 363.962228,309.051568 C372.122278,304.308817 372.062278,296.564325 363.842227,291.821574 C355.622177,287.078823 342.302095,287.078823 334.082045,291.821574 C325.921995,296.564325 325.981996,304.308817 334.202046,309.051568" id="形状" fill="#DEE7F8"></path>
            <path d="M532.203258,163.046883 L532.143258,170.070957 C532.143258,166.408833 529.743243,162.686674 524.883213,159.925073 C520.023183,157.103436 513.723145,155.722635 507.363106,155.722635 C506.583101,155.722635 505.743096,155.78267 504.903091,155.78267 C502.563076,155.962775 500.283063,156.262949 498.123049,156.803262 C496.383039,157.163471 494.823029,157.703784 493.26302,158.304133 C492.123013,158.784411 490.983006,159.324725 489.962999,159.925073 L489.962999,159.925073 C485.16297,162.686674 482.822956,166.348799 482.822956,169.950888 L482.822956,162.926814 C482.822956,159.26469 485.22297,155.6626 489.962999,152.900999 C490.983006,152.30065 492.123013,151.760337 493.26302,151.280059 C494.823029,150.67971 496.443039,150.139397 498.123049,149.719153 C500.343063,149.238875 502.563076,148.878666 504.903091,148.758596 C505.743096,148.698561 506.583101,148.698561 507.423106,148.698561 C513.723145,148.698561 520.083184,150.079362 524.883213,152.900999 C529.743243,155.6626 532.203258,159.384759 532.203258,163.046883 Z" id="路径" fill="#4C4A8B"></path>
            <path d="M524.883213,156.803262 C534.543272,162.3865 534.603273,171.451758 525.003214,177.034997 C515.403155,182.618235 499.743059,182.618235 490.083,177.034997 C480.422941,171.451758 480.362941,162.3865 489.962999,156.803262 C499.563058,151.220024 515.223154,151.220024 524.883213,156.803262 Z" id="路径" fill-opacity="0.7" fill="#6B9EF9"></path>
            <path d="M537.123288,163.106918 L537.063288,169.950888 C537.063288,174.273395 534.18327,178.655937 528.483235,181.957852 C516.963165,188.681752 498.18305,188.681752 486.602979,181.957852 C480.782943,178.595902 477.842925,174.153325 477.842925,169.770783 L477.902926,162.926814 C477.842925,167.309356 480.782943,171.751932 486.602979,175.113882 C498.24305,181.837782 516.963165,181.837782 528.483235,175.113882 C534.24327,171.811967 537.063288,167.429425 537.123288,163.106918 Z" id="路径" fill="#4C4A8B"></path>
            <path d="M528.363234,150.859815 C539.943305,157.583715 540.003306,168.450017 528.483235,175.113882 C516.963165,181.837782 498.24305,181.837782 486.602979,175.113882 C475.022908,168.450017 474.962908,157.583715 486.482978,150.859815 C498.003049,144.135915 516.783164,144.135915 528.363234,150.859815 Z M490.083,173.132733 C499.743059,178.715972 515.403155,178.715972 525.003214,173.132733 C534.603273,167.549495 534.543272,158.484237 524.883213,152.900999 C515.223154,147.31776 499.563058,147.31776 489.962999,152.900999 C480.362941,158.484237 480.422941,167.549495 490.083,173.132733 L490.083,173.132733 Z" id="形状" fill="#6262AA"></path>
            <path d="M522.7832,181.417539 C522.6632,182.137956 522.7832,182.738305 523.143202,183.038479 L557.703414,213.836342 C557.04341,213.235994 564.483456,203.630422 565.26346,204.110701 L527.64323,178.175658 L527.64323,178.175658 C527.283228,177.815449 526.683224,177.755415 525.96322,177.995554 C524.583211,178.415798 523.143202,179.976703 522.7832,181.417539 Z" id="路径" fill="#6262AA"></path>
            <path d="M562.383443,204.110701 C564.963458,203.090109 566.763469,204.47091 566.403467,207.232512 C566.043465,209.994113 563.58345,213.115924 561.003434,214.196551 C558.423418,215.217143 556.623407,213.836342 556.98341,211.07474 C557.343412,208.313138 559.743426,205.191328 562.383443,204.110701 Z" id="路径" fill="#3A3A77"></path>
        </g>
    </g>
</svg>