<?xml version="1.0" encoding="UTF-8"?>
<svg width="784px" height="478px" viewBox="0 0 784 478" version="1.1" xmlns="http://www.w3.org/2000/svg" xmlns:xlink="http://www.w3.org/1999/xlink">
    <title>3</title>
    <defs>
        <path d="M634.503884,139.559438 C626.043832,140.818892 545.58334,114.430343 537.003287,78.3859844 C528.483235,42.3416258 464.102841,4.73794397 436.682673,14.03391 C409.262505,23.329876 373.322285,13.3741963 373.322285,13.3741963 L350.642146,2.45893294 L345.482115,0 L345.482115,0 L0,199.35349 L384.182352,422.576623 L719.884407,228.800712 C729.304464,223.403054 737.104512,215.366542 741.184537,205.350888 C763.864676,149.99491 642.303932,138.479907 634.503884,139.559438 Z" id="path-1"></path>
        <filter x="-4.7%" y="-5.9%" width="109.4%" height="116.6%" filterUnits="objectBoundingBox" id="filter-2">
            <feOffset dx="0" dy="10" in="SourceAlpha" result="shadowOffsetOuter1"></feOffset>
            <feGaussianBlur stdDeviation="10" in="shadowOffsetOuter1" result="shadowBlurOuter1"></feGaussianBlur>
            <feColorMatrix values="0 0 0 0 0.0980392157   0 0 0 0 0.129411765   0 0 0 0 0.235294118  0 0 0 0.1 0" type="matrix" in="shadowBlurOuter1"></feColorMatrix>
        </filter>
    </defs>
    <g id="页面-1" stroke="none" stroke-width="1" fill="none" fill-rule="evenodd">
        <g id="3" transform="translate(20.000000, 0.000000)" fill-rule="nonzero">
            <g id="编组" transform="translate(0.000000, 25.423377)">
                <g id="路径">
                    <use fill="black" fill-opacity="1" filter="url(#filter-2)" xlink:href="#path-1"></use>
                    <use fill="#F3F6FD" xlink:href="#path-1"></use>
                </g>
                <polygon id="路径" fill="#FDFEFF" points="680.284164 251.71077 461.582826 126.365164 409.262505 156.532073 627.963844 281.877679 624.783825 283.676898 406.142486 158.391266 242.941487 252.550406 461.582826 377.896012 458.462807 379.695231 239.761468 254.349625 187.501148 284.516534 406.142486 409.86214 403.022467 411.721333 17.3401061 189.337837 20.4601252 187.538617 184.981132 283.137132 237.301453 252.910249 72.7804455 157.371708 75.9004646 155.512515 240.421472 251.11103 293.221795 220.644251 128.700788 125.045736 130.920801 123.786283 295.441809 219.384798 348.722135 188.618149 184.141127 93.079608 186.361141 91.7601806 350.882148 187.358696 403.682471 156.951891 239.101464 61.3533757 242.281483 59.5541564 406.80249 155.092697 459.122811 124.925788 294.601803 29.3272734 297.721823 27.5280542 683.404183 249.851577"></polygon>
            </g>
            <g id="编组" transform="translate(167.513446, 0.000000)">
                <path d="M370.209845,242.16932 L354.969752,250.685625 C352.269736,252.184974 347.889709,252.184974 345.309693,250.565677 L197.648789,165.162737 C195.008773,163.54344 194.888772,161.144481 197.648789,159.585158 L212.888882,151.128827 C215.588899,149.629478 219.968926,149.629478 222.668942,151.248775 L370.209845,236.651715 C372.969862,238.151064 372.969862,240.669971 370.209845,242.16932 Z" id="路径" fill="#E1E9F4"></path>
                <g transform="translate(200.708808, 0.000000)" id="路径">
                    <g>
                        <g transform="translate(25.380155, 167.801592)">
                            <polygon fill="#83A1CC" points="65.5804015 61.2334277 105.780648 37.8435778 105.780648 43.0613135 65.5804015 66.3911895"></polygon>
                            <polygon fill="#DEE7F8" points="0 23.38985 40.2002461 0 105.780648 37.8435778 65.5804015 61.2334277"></polygon>
                            <polygon fill="#9EB5DF" points="65.5804015 61.2334277 65.5804015 66.3911895 0 28.5476117 0 23.38985"></polygon>
                        </g>
                        <g transform="translate(57.660353, 155.926745)">
                            <path d="M41.2802527,53.8566289 L36.4202229,56.6754057 L29.8201825,10.3754975 C31.9201954,11.574977 32.7002002,13.5541182 34.6802123,14.6936237 L41.2802527,53.8566289 Z" fill="#83A1CC"></path>
                            <path d="M36.4202229,56.6754057 L0,35.6245407 L12.1200742,0 C24.4201495,6.2972673 17.8801095,3.53846448 29.8201825,10.3754975 L36.4202229,56.6754057 Z" fill="#9EB5DF"></path>
                        </g>
                        <g>
                            <path d="M170.522047,100.031001 L170.221042,226.456139 C170.221042,228.315332 169.561038,229.574786 168.541032,230.234499 L164.461007,232.573484 C163.381,233.233198 161.880991,233.173224 160.200981,232.213641 L5.88003599,143.152289 C2.64001616,141.233122 0,136.735074 0,132.956713 L0.300001836,6.59154948 C0.300001836,4.61240833 1.02000624,3.29298089 2.22001359,2.69324115 C2.16001322,2.75321512 2.10001286,2.75321512 2.04001249,2.8131891 L6.12003746,0.414230129 C7.20004408,-0.245483588 8.70005326,-0.12553564 10.3200632,0.834047948 L164.701008,89.8953997 C167.941028,91.7545929 170.581044,96.312615 170.522047,100.031001 Z" fill="#83A1CC"></path>
                            <path d="M166.441019,102.489934 L166.141017,228.795124 C166.141017,232.573484 163.441001,234.072834 160.260981,232.213641 L5.88003599,143.152289 C2.58001579,141.233122 0,136.6751 0,132.956713 L0.300001836,6.59154948 C0.300001836,2.87316307 2.940018,1.37381372 6.18003783,3.23300692 L160.560983,92.2943587 C163.801003,94.1535519 166.441019,98.7115739 166.441019,102.489934 Z" fill="#B6CBEA"></path>
                            <polygon fill="#FFFFFF" points="5.28003232 8.45074268 5.04003085 123.240929 161.160987 213.381813 161.400988 98.591626"></polygon>
                            <polygon fill="#83A1CC" points="5.28003232 8.45074268 5.28003232 27.6424144 161.400988 117.723324 161.400988 98.591626"></polygon>
                            <path d="M75.9004646,168.82115 C73.9204525,167.681644 72.360443,168.581254 72.360443,170.860265 C72.360443,173.079302 73.9204525,175.778131 75.9004646,176.917636 C77.8204764,178.057142 79.3804859,177.157532 79.4404863,174.938495 C79.4404863,172.659484 77.8204764,169.960655 75.9004646,168.82115 Z" fill="#83A1CC"></path>
                        </g>
                    </g>
                    <g transform="translate(18.240112, 43.355596)">
                        <polygon fill="#3887E5" points="32.2201972 49.1186849 32.1601969 69.2699403 7.86004812 55.2360303 7.92004848 35.0847749"></polygon>
                        <polygon fill="#6262AA" points="16.9201036 66.5111374 16.9201036 68.5502526 7.86004812 63.3325168 7.86004812 61.2334277"></polygon>
                        <polygon fill="#83A1CC" points="32.1601969 79.7054118 32.1001965 94.3990355 7.80004775 80.4250995 7.80004775 65.6715018"></polygon>
                        <polygon fill="#6262AA" points="61.8603787 92.4198943 61.8603787 94.5189834 52.8003232 89.2412737 52.8003232 87.2021586"></polygon>
                        <polygon fill="#6262AA" points="106.860654 118.388625 106.860654 120.42774 97.8005987 115.210005 97.8005987 113.170889"></polygon>
                        <g transform="translate(97.740598, 86.962263)">
                            <polygon fill="#83A1CC" points="24.3601491 44.6206368 24.3001488 59.3742345 0 45.3403245 0 30.5867269"></polygon>
                            <polygon fill="#3887E5" points="24.4201495 14.03391 24.3601491 34.1851653 0.0600003673 20.1512553 0.120000735 0"></polygon>
                        </g>
                        <g transform="translate(13.800084, 7.976539)">
                            <polygon fill="#83A1CC" points="63.3003875 97.6376301 63.2403871 112.391228 38.9402384 98.3573178 39.0002387 83.6636941"></polygon>
                            <polygon fill="#3887E5" points="63.3603879 67.0509032 63.3003875 87.2021586 39.0002387 73.1682486 39.0602391 53.0169932"></polygon>
                            <polygon fill="#6262AA" points="116.400713 67.1108772 116.340712 88.4016381 0 21.2907609 11.2200687 17.0925827 0.0600003673 0"></polygon>
                        </g>
                        <polygon fill="#6262AA" points="8.64005289 4.97783986 19.8001212 22.0704225 8.58005252 26.2686007 0 21.2907609 0.0600003673 0"></polygon>
                    </g>
                    <g transform="translate(129.000790, 88.307872)" fill="#DEE7F8">
                        <path d="M3.1200191,0.448022243 C4.80002938,1.40760583 6.18003783,3.74659083 6.12003746,5.72573198 C6.12003746,7.64489915 4.74002902,8.42456082 3.06001873,7.46497723 C1.38000845,6.50539364 0,4.10643467 0,2.1872675 C0,0.208126346 1.38000845,-0.571535319 3.1200191,0.448022243 Z"></path>
                        <path d="M14.0400859,6.74528954 C15.7200962,7.70487313 17.1001047,10.1038321 17.1001047,12.0229993 C17.1001047,13.9421665 15.7200962,14.7818021 14.0400859,13.7622445 C12.3600757,12.8026609 10.9800672,10.403702 10.9800672,8.48453479 C10.9800672,6.56536762 12.3600757,5.78570595 14.0400859,6.74528954 Z"></path>
                        <path d="M25.0201532,13.0425568 C26.7001634,14.0621144 28.0801719,16.4010994 28.0801719,18.3802405 C28.0801719,20.2994077 26.7001634,21.0790694 24.9601528,20.1194858 C23.2801425,19.1599022 21.9001341,16.7609432 21.9001341,14.8417761 C21.9601344,12.8626349 23.3401429,12.0829732 25.0201532,13.0425568 Z"></path>
                    </g>
                </g>
                <path d="M453.910358,299.984232 L446.530313,304.122436 C445.210305,304.842123 443.050291,304.842123 441.790284,304.062462 L369.849843,262.500498 C368.589836,261.660862 368.529835,260.521356 369.849843,259.741695 L377.289889,255.663465 C378.609897,254.883803 380.76991,254.883803 382.089918,255.663465 L453.910358,297.285403 C455.290366,298.00509 455.290366,299.264544 453.910358,299.984232 Z" id="路径" fill="#E1E9F4"></path>
                <path d="M450.490337,240.550023 L450.370336,285.890348 C450.370336,286.550061 450.130335,287.029853 449.770333,287.269749 L447.970322,288.289307 C447.610319,288.529202 447.070316,288.529202 446.470312,288.169359 L382.209919,251.105443 C381.069912,250.445729 380.109906,248.766458 380.109906,247.44703 L380.229907,202.106706 C380.229907,201.387018 380.469908,200.907226 380.82991,200.727304 L382.629922,199.647773 C383.049924,199.467851 383.529927,199.467851 384.129931,199.827695 L448.390324,236.891611 C449.530331,237.551324 450.490337,239.230596 450.490337,240.550023 Z" id="路径" fill="#83A1CC"></path>
                <path d="M448.690326,241.629555 L448.570325,286.969879 C448.570325,288.289307 447.610319,288.829072 446.470312,288.169359 L382.209919,251.105443 C381.069912,250.445729 380.109906,248.766458 380.109906,247.44703 L380.229907,202.106706 C380.229907,200.727304 381.189913,200.247512 382.32992,200.907226 L446.590313,237.971142 C447.73032,238.630856 448.690326,240.250153 448.690326,241.629555 Z" id="路径" fill="#9EB5DF"></path>
                <path d="M444.610301,260.821226 C445.750308,261.48094 446.710314,263.160211 446.710314,264.479639 C446.710314,265.85904 445.750308,266.398806 444.550301,265.739092 C443.410294,265.019405 442.450288,263.400107 442.450288,262.020706 C442.450288,260.701278 443.410294,260.161513 444.610301,260.821226 Z" id="路径" fill="#83A1CC"></path>
                <path d="M382.38992,233.952886 C382.749922,234.192782 383.049924,234.672574 383.049924,235.092391 C383.049924,235.512209 382.749922,235.692131 382.38992,235.512209 C382.029918,235.272313 381.729916,234.732548 381.729916,234.31273 C381.729916,233.952886 382.029918,233.772964 382.38992,233.952886 Z" id="路径" fill="#83A1CC"></path>
                <path d="M382.38992,231.374005 C382.749922,231.553927 383.049924,232.093693 383.049924,232.51351 C383.049924,232.933328 382.749922,233.11325 382.38992,232.873354 C382.029918,232.693432 381.729916,232.153667 381.729916,231.733849 C381.729916,231.314031 382.029918,231.134109 382.38992,231.374005 Z" id="路径" fill="#83A1CC"></path>
                <path d="M382.38992,228.795124 C382.749922,228.975046 383.049924,229.514812 383.049924,229.93463 C383.049924,230.354447 382.749922,230.474395 382.38992,230.294473 C382.029918,230.054578 381.729916,229.574786 381.729916,229.154968 C381.729916,228.73515 382.029918,228.555228 382.38992,228.795124 Z" id="路径" fill="#83A1CC"></path>
                <path d="M382.38992,226.156269 C382.749922,226.396165 383.049924,226.875957 383.049924,227.295775 C383.049924,227.715593 382.749922,227.895514 382.38992,227.715593 C382.029918,227.475697 381.729916,226.935931 381.729916,226.516113 C381.729916,226.156269 382.029918,225.976347 382.38992,226.156269 Z" id="路径" fill="#83A1CC"></path>
                <path d="M382.38992,223.577388 C382.749922,223.75731 383.049924,224.297076 383.049924,224.716894 C383.049924,225.136712 382.749922,225.316634 382.38992,225.076738 C382.029918,224.896816 381.729916,224.35705 381.729916,223.937232 C381.729916,223.517414 382.029918,223.337492 382.38992,223.577388 Z" id="路径" fill="#83A1CC"></path>
                <path d="M382.38992,220.998507 C382.749922,221.178429 383.049924,221.718195 383.049924,222.138013 C383.049924,222.557831 382.749922,222.677779 382.38992,222.497857 C382.029918,222.257961 381.729916,221.778169 381.729916,221.358351 C381.729916,220.938533 382.029918,220.758612 382.38992,220.998507 Z" id="路径" fill="#83A1CC"></path>
                <polygon id="路径" fill="#FFFFFF" points="385.089937 204.565638 384.969936 249.066327 441.010279 281.3923 441.070279 236.891611"></polygon>
                <polygon id="路径" fill="#83A1CC" points="385.089937 204.565638 385.029936 211.402672 441.070279 243.728644 441.070279 236.891611"></polygon>
                <polygon id="路径" fill="#3887E5" points="401.290036 234.672574 401.230035 241.929424 392.529982 236.891611 392.529982 229.63476"></polygon>
                <polygon id="路径" fill="#6262AA" points="395.770002 240.909867 395.770002 241.629555 392.529982 239.770361 392.529982 239.050674"></polygon>
                <polygon id="路径" fill="#83A1CC" points="401.230035 245.647811 401.230035 250.925521 392.529982 245.887707 392.529982 240.609997"></polygon>
                <polygon id="路径" fill="#6262AA" points="411.910101 250.205833 411.910101 250.985495 408.670081 249.066327 408.670081 248.34664"></polygon>
                <polygon id="路径" fill="#6262AA" points="428.0502 259.561773 428.0502 260.281461 424.81018 258.422267 424.81018 257.642606"></polygon>
                <polygon id="路径" fill="#83A1CC" points="433.510233 264.299717 433.510233 269.577427 424.81018 264.539613 424.81018 259.261903"></polygon>
                <polygon id="路径" fill="#3887E5" points="433.570233 253.32448 433.510233 260.521356 424.81018 255.483543 424.81018 248.286666"></polygon>
                <polygon id="路径" fill="#83A1CC" points="417.370134 254.943777 417.370134 260.221487 408.670081 255.243647 408.670081 249.905963"></polygon>
                <polygon id="路径" fill="#3887E5" points="417.430135 243.96854 417.370134 251.22539 408.670081 246.187577 408.670081 238.930726"></polygon>
                <polygon id="路径" fill="#6262AA" points="436.450251 244.028514 436.390251 251.645208 394.689995 227.535671 398.71002 226.036321 394.689995 219.918976"></polygon>
                <polygon id="路径" fill="#6262AA" points="392.829984 218.839444 396.850009 224.95679 392.769984 226.456139 389.709965 224.716894 389.709965 217.040225"></polygon>
                <path d="M430.570215,233.353146 C431.170219,233.71299 431.650222,234.552626 431.650222,235.212339 C431.650222,235.932027 431.170219,236.231897 430.570215,235.872053 C429.970211,235.512209 429.490208,234.672574 429.490208,233.952886 C429.490208,233.293172 429.970211,232.993302 430.570215,233.353146 Z" id="路径" fill="#DEE7F8"></path>
                <path d="M434.470239,235.632157 C435.130243,235.932027 435.610246,236.831637 435.610246,237.49135 C435.610246,238.211038 435.070243,238.510908 434.470239,238.151064 C433.870235,237.79122 433.390232,236.951585 433.390232,236.231897 C433.390232,235.512209 433.870235,235.272313 434.470239,235.632157 Z" id="路径" fill="#DEE7F8"></path>
                <path d="M438.430263,237.851194 C439.030267,238.211038 439.51027,239.050674 439.51027,239.770361 C439.51027,240.490049 439.030267,240.729945 438.430263,240.430075 C437.830259,240.070231 437.350256,239.170622 437.350256,238.510908 C437.350256,237.79122 437.830259,237.551324 438.430263,237.851194 Z" id="路径" fill="#DEE7F8"></path>
                <path d="M173.468641,83.7180804 L71.7080182,25.0035596 C70.6280116,24.4038198 69.6680057,24.3438459 69.0080017,24.7636637 L66.5479866,26.1430651 C67.267991,25.7232473 68.2279969,25.7832212 69.3080035,26.382961 L71.2880156,27.5224665 L69.2480031,30.8210351 L69.068002,99.9710274 L170.888625,158.685548 C170.888625,158.685548 174.308646,163.003674 173.588642,163.363518 L175.988657,161.984117 C176.708661,161.564299 177.128664,160.724663 177.128664,159.525184 L177.308665,90.3751915 C177.308665,87.9162586 175.628654,84.9775338 173.468641,83.7180804 Z" id="路径" fill="#6262AA"></path>
                <path d="M171.068626,85.1574558 C173.168639,86.3569352 174.90865,89.3556339 174.90865,91.7545929 L174.728649,160.904585 C174.728649,163.363518 172.988638,164.323102 170.828625,163.123622 L69.068002,104.409101 C66.9679892,103.149648 65.2279785,100.210923 65.2279785,97.7519903 L65.4079796,28.601998 C65.46798,26.1430651 67.1479903,25.1834815 69.3080035,26.382961 L171.068626,85.1574558 Z" id="路径" fill="#2A2A5E"></path>
                <polygon id="路径" fill="#FFFFFF" points="171.068626 89.5355559 170.888625 158.745522 69.068002 99.9710274 69.2480031 30.8210351"></polygon>
                <polygon id="路径" fill="#83A1CC" points="69.2480031 30.8210351 69.2480031 40.5967929 171.008626 99.3113137 171.068626 89.5355559"></polygon>
                <path d="M154.988528,83.6581064 C155.828533,84.1378982 156.488537,85.3373777 156.488537,86.2969613 C156.488537,87.2565449 155.828533,87.6763627 154.988528,87.1965709 C154.088522,86.6568051 153.428518,85.5172996 153.428518,84.497742 C153.428518,83.5381584 154.148523,83.1183406 154.988528,83.6581064 Z" id="路径" fill="#DEE7F8"></path>
                <path d="M160.508562,86.836727 C161.348567,87.3165188 162.008571,88.5159983 162.008571,89.4755819 C162.008571,90.4351655 161.348567,90.8549833 160.448561,90.3751915 C159.608556,89.8354257 158.948552,88.6959202 158.948552,87.6763627 C158.948552,86.7167791 159.608556,86.2969613 160.508562,86.836727 Z" id="路径" fill="#DEE7F8"></path>
                <path d="M166.028596,90.0153477 C166.868601,90.4951395 167.528605,91.6946189 167.528605,92.6542025 C167.528605,93.6137861 166.868601,94.0336039 165.968595,93.5538121 C165.12859,93.0740204 164.468586,91.8745409 164.468586,90.8549833 C164.468586,89.8953997 165.12859,89.4755819 166.028596,90.0153477 Z" id="路径" fill="#DEE7F8"></path>
                <path d="M172.448635,165.342659 L172.448635,170.680343 C172.448635,171.519979 171.908632,172.29964 170.828625,172.89938 L111.068259,207.624311 C108.908246,208.883765 105.488225,208.883765 103.388212,207.624311 L1.56758882,148.90979 C0.487582213,148.310051 0.00757927437,147.470415 0.00757927437,146.690753 L0.00757927437,141.35307 C0.00757927437,140.513434 0.54758258,139.733772 1.56758882,139.134033 L61.4479554,104.349128 C63.5479682,103.149648 66.9679892,103.149648 69.068002,104.349128 L170.828625,163.123622 C171.908632,163.723362 172.448635,164.562998 172.448635,165.342659 Z" id="路径" fill="#83A1CC"></path>
                <path d="M172.448635,165.342659 L172.448635,170.680343 C172.448635,171.519979 171.908632,172.29964 170.828625,172.89938 L111.068259,207.624311 C108.908246,208.883765 105.488225,208.883765 103.388212,207.624311 L1.56758882,148.90979 C0.487582213,148.310051 0.00757927437,147.470415 0.00757927437,146.690753 L0.00757927437,141.35307 C0.00757927437,142.132731 0.54758258,142.912393 1.62758919,143.572107 L103.388212,202.286627 C105.548225,203.546081 108.968246,203.546081 111.068259,202.286627 L170.888625,167.561696 C171.908632,166.961957 172.448635,166.122321 172.448635,165.342659 Z" id="路径" fill="#9EB5DF"></path>
                <path d="M172.448635,169.720759 L172.448635,175.058443 C172.448635,175.898079 171.908632,176.67774 170.828625,177.27748 L111.068259,212.002411 C108.908246,213.261865 105.488225,213.261865 103.388212,212.002411 L1.56758882,153.287891 C0.487582213,152.688151 0.00757927437,151.848515 0.00757927437,151.068853 L0.00757927437,145.73117 C0.00757927437,146.510831 0.54758258,147.290493 1.62758919,147.950207 L103.388212,206.664728 C105.548225,207.924181 108.968246,207.924181 111.068259,206.664728 L170.888625,171.939797 C171.908632,171.340057 172.448635,170.500421 172.448635,169.720759 Z" id="路径" fill="#E1E9F4"></path>
                <path d="M170.828625,163.123622 C172.988638,164.323102 172.988638,166.302243 170.888625,167.561696 L111.068259,202.286627 C108.968246,203.546081 105.488225,203.546081 103.388212,202.286627 L1.62758919,143.572107 C-0.532424031,142.312653 -0.532424031,140.333512 1.56758882,139.134033 L61.387955,104.349128 C63.5479682,103.149648 66.9679892,103.149648 69.068002,104.349128 L170.828625,163.123622 Z" id="路径" fill="#DEE7F8"></path>
                <path d="M95.2881625,167.861566 L62.9479646,149.149686 C62.2879605,148.789842 61.1479535,148.789842 60.4879495,149.149686 L44.7678533,158.325704 C44.1078492,158.685548 44.1078492,159.345262 44.7678533,159.705106 L77.1080512,178.416986 C77.7680553,178.77683 78.8480619,178.77683 79.5680663,178.416986 L95.2881625,169.240968 C95.9481666,168.881124 95.9481666,168.22141 95.2881625,167.861566 Z" id="路径" fill="#B6CBEA"></path>
                <polygon id="路径" fill="#3A3A77" points="85.3881019 120.722022 83.1680883 122.04145 78.9680626 119.582517 81.1880762 118.323064"></polygon>
                <polygon id="路径" fill="#3A3A77" points="80.2280703 117.723324 77.9480564 119.042751 73.7480307 116.583818 75.9680443 115.324365"></polygon>
                <polygon id="路径" fill="#3A3A77" points="76.9880505 119.582517 73.0280263 121.921502 68.7680002 119.462569 72.7280244 117.183558"></polygon>
                <polygon id="路径" fill="#3A3A77" points="100.688196 139.074059 96.7281714 141.35307 92.4681453 138.954111 96.4881699 136.615126"></polygon>
                <polygon id="路径" fill="#3A3A77" points="73.808031 135.115776 69.7880064 137.394787 65.5879807 134.995828 69.548005 132.656843"></polygon>
                <polygon id="路径" fill="#3A3A77" points="58.3879367 131.99713 54.4279124 134.336115 48.7878779 131.09752 52.8079025 128.758535"></polygon>
                <polygon id="路径" fill="#3A3A77" points="63.6079686 134.995828 59.587944 137.334813 55.3879183 134.87588 59.3479425 132.596869"></polygon>
                <polygon id="路径" fill="#3A3A77" points="68.8280006 137.994527 64.807976 140.333512 60.6079502 137.874579 64.5679745 135.595568"></polygon>
                <polygon id="路径" fill="#3A3A77" points="73.9880321 140.993226 70.0280079 143.332211 65.8279822 140.873278 69.7880064 138.594267"></polygon>
                <polygon id="路径" fill="#3A3A77" points="82.2080825 122.64119 78.1880579 124.920201 73.9880321 122.461268 77.9480564 120.182257"></polygon>
                <polygon id="路径" fill="#3A3A77" points="74.6480362 124.020591 70.6880119 126.359576 63.7879697 122.401294 67.747994 120.062309"></polygon>
                <polygon id="路径" fill="#3A3A77" points="87.3681141 125.639888 83.4080898 127.918899 79.2080641 125.51994 83.1680883 123.180955"></polygon>
                <polygon id="路径" fill="#3A3A77" points="79.8680681 127.079264 75.9080439 129.358275 71.6480178 126.899342 75.6080421 124.620331"></polygon>
                <polygon id="路径" fill="#3A3A77" points="70.9280134 127.679003 66.9679892 130.017988 58.8079392 125.280045 62.7679635 123.001034"></polygon>
                <polygon id="路径" fill="#3A3A77" points="92.588146 128.638587 88.6281218 130.917598 84.4280961 128.518639 88.3881203 126.179654"></polygon>
                <polygon id="路径" fill="#3A3A77" points="101.048198 129.778093 98.8281842 131.037546 94.5681581 128.638587 96.7881717 127.31916"></polygon>
                <polygon id="路径" fill="#3A3A77" points="85.0881001 130.077962 81.0680755 132.356973 76.8680498 129.958015 80.828074 127.61903"></polygon>
                <polygon id="路径" fill="#3A3A77" points="76.1480454 130.677702 72.1880211 133.016687 67.9279951 130.557754 71.8880193 128.218769"></polygon>
                <polygon id="路径" fill="#3A3A77" points="97.808178 131.637286 93.8481537 133.916297 89.5881276 131.517338 93.6081523 129.178353"></polygon>
                <polygon id="路径" fill="#3A3A77" points="106.208229 132.776791 103.988216 134.036245 99.7881901 131.637286 102.008204 130.317858"></polygon>
                <polygon id="路径" fill="#3A3A77" points="68.5879991 132.117078 64.6279749 134.396089 53.8279087 128.158795 57.787933 125.879784"></polygon>
                <polygon id="路径" fill="#3A3A77" points="90.2481317 133.076661 86.2881074 135.355672 82.0880817 132.956713 86.048106 130.617728"></polygon>
                <polygon id="路径" fill="#3A3A77" points="81.3680773 133.676401 77.3480527 136.015386 73.148027 133.556453 77.1080512 131.277442"></polygon>
                <polygon id="路径" fill="#3A3A77" points="103.02821 134.635985 99.0081853 136.914996 94.8081596 134.516037 98.7681838 132.177052"></polygon>
                <polygon id="路径" fill="#3A3A77" points="95.4681636 136.07536 91.5081394 138.354371 87.3081137 135.955412 91.2681379 133.616427"></polygon>
                <polygon id="路径" fill="#3A3A77" points="86.5281089 136.6751 82.5680847 139.014085 78.368059 136.555152 82.3280832 134.276141"></polygon>
                <polygon id="路径" fill="#3A3A77" points="78.9680626 138.114475 75.0080384 140.45346 70.8080127 137.994527 74.7680369 135.655542"></polygon>
                <polygon id="路径" fill="#3A3A77" points="84.1880946 141.113174 80.2280703 143.452159 76.0280446 140.993226 79.9880689 138.654241"></polygon>
                <polygon id="路径" fill="#3A3A77" points="137.468421 150.768984 135.248407 152.088411 131.048381 149.629478 133.268395 148.370025"></polygon>
                <polygon id="路径" fill="#3A3A77" points="132.248389 147.770285 130.028375 149.089712 125.828349 146.630779 128.048363 145.371326"></polygon>
                <polygon id="路径" fill="#3A3A77" points="127.088357 144.771586 124.808343 146.091014 120.608318 143.632081 122.828331 142.372627"></polygon>
                <polygon id="路径" fill="#3A3A77" points="139.448433 155.686849 135.488409 157.96586 131.288383 155.566902 135.248407 153.227917"></polygon>
                <polygon id="路径" fill="#3A3A77" points="137.34842 166.002373 133.388396 168.341358 125.228346 163.603414 129.18837 161.324403"></polygon>
                <polygon id="路径" fill="#3A3A77" points="137.168419 160.124924 133.148394 162.403935 128.948369 160.004976 132.908393 157.665991"></polygon>
                <polygon id="路径" fill="#3A3A77" points="126.728355 154.127526 122.768331 156.406537 118.508305 153.947604 122.528329 151.668593"></polygon>
                <polygon id="路径" fill="#3A3A77" points="123.008332 157.725965 119.048308 160.06495 114.788282 157.606017 118.808307 155.267032"></polygon>
                <polygon id="路径" fill="#3A3A77" points="122.288328 168.881124 120.608318 169.840707 116.16829 167.3218 117.848301 166.302243"></polygon>
                <polygon id="路径" fill="#3A3A77" points="125.108345 173.19925 123.428335 174.158834 119.048308 171.579953 120.728318 170.620369"></polygon>
                <polygon id="路径" fill="#3A3A77" points="132.36839 168.941098 128.408365 171.220109 117.6683 165.042789 121.628324 162.703804"></polygon>
                <polygon id="路径" fill="#3A3A77" points="120.668318 162.164039 116.648293 164.44305 112.448268 162.044091 116.408292 159.705106"></polygon>
                <polygon id="路径" fill="#3A3A77" points="128.228364 160.724663 124.20834 163.063648 120.008314 160.604715 123.968338 158.325704"></polygon>
                <polygon id="路径" fill="#3A3A77" points="131.948387 157.126225 127.988363 159.405236 123.728337 157.006277 127.688361 154.667292"></polygon>
                <polygon id="路径" fill="#3A3A77" points="134.228401 152.688151 130.268377 154.967162 126.068351 152.508229 130.028375 150.229218"></polygon>
                <polygon id="路径" fill="#3A3A77" points="111.428261 135.77549 109.208248 137.034943 105.008222 134.635985 107.228236 133.316557"></polygon>
                <polygon id="路径" fill="#3A3A77" points="105.008222 153.167943 101.048198 155.446954 96.8481721 152.988021 100.808196 150.70901"></polygon>
                <polygon id="路径" fill="#3A3A77" points="91.7481409 139.673798 87.7881166 142.012783 83.5880909 139.55385 87.5481152 137.274839"></polygon>
                <polygon id="路径" fill="#3A3A77" points="116.648293 138.774189 114.42828 140.093616 110.228254 137.634683 112.448268 136.315256"></polygon>
                <polygon id="路径" fill="#3A3A77" points="113.408273 140.633382 109.448249 142.972367 105.248224 140.513434 109.208248 138.234423"></polygon>
                <polygon id="路径" fill="#3A3A77" points="121.868325 141.772887 119.648312 143.092315 115.388286 140.633382 117.608299 139.313955"></polygon>
                <polygon id="路径" fill="#3A3A77" points="105.908228 142.072757 101.948203 144.411742 97.6881772 141.952809 101.648201 139.613824"></polygon>
                <polygon id="路径" fill="#3A3A77" points="96.9681728 142.732471 93.0081486 145.011482 88.7481225 142.552549 92.7681471 140.273538"></polygon>
                <polygon id="路径" fill="#3A3A77" points="118.628305 143.632081 114.668281 145.971066 110.408255 143.512133 114.42828 141.233122"></polygon>
                <polygon id="路径" fill="#3A3A77" points="89.4081265 144.111872 85.4481023 146.450857 81.1880762 143.991924 85.2081008 141.712913"></polygon>
                <polygon id="路径" fill="#3A3A77" points="111.12826 145.071456 107.108235 147.410441 102.908209 144.951508 106.868233 142.672497"></polygon>
                <polygon id="路径" fill="#3A3A77" points="102.188205 145.73117 98.1681802 148.010181 93.9681545 145.611222 97.9281787 143.272237"></polygon>
                <polygon id="路径" fill="#3A3A77" points="123.848337 146.630779 119.888313 148.969764 115.628287 146.510831 119.648312 144.23182"></polygon>
                <polygon id="路径" fill="#3A3A77" points="84.4280961 147.050597 80.4680718 149.329608 76.2080457 146.870675 80.16807 144.591664"></polygon>
                <polygon id="路径" fill="#3A3A77" points="94.6281585 147.110571 90.6681343 149.449556 86.4081082 146.990623 90.3681324 144.711612"></polygon>
                <polygon id="路径" fill="#3A3A77" points="116.288291 148.070155 112.328267 150.40914 108.128241 147.950207 112.088265 145.671196"></polygon>
                <polygon id="路径" fill="#3A3A77" points="107.348236 148.729868 103.388212 151.008879 99.1881864 148.609921 103.148211 146.270936"></polygon>
                <polygon id="路径" fill="#3A3A77" points="129.068369 149.629478 125.048345 151.968463 120.848319 149.50953 124.808343 147.230519"></polygon>
                <polygon id="路径" fill="#3A3A77" points="89.648128 150.049296 85.6281034 152.328307 81.4280777 149.929348 85.3881019 147.590363"></polygon>
                <polygon id="路径" fill="#3A3A77" points="121.508323 151.068853 117.548299 153.407838 113.348273 150.948906 117.308297 148.669894"></polygon>
                <polygon id="路径" fill="#3A3A77" points="112.568268 151.728567 108.608244 154.007578 104.408218 151.608619 108.368243 149.269634"></polygon>
                <polygon id="路径" fill="#3A3A77" points="94.8081596 153.047995 90.8481354 155.327006 86.6481096 152.928047 90.6081339 150.589062"></polygon>
                <polygon id="路径" fill="#3A3A77" points="117.7883 154.727266 113.828276 157.006277 109.56825 154.607318 113.588275 152.268333"></polygon>
                <polygon id="路径" fill="#3A3A77" points="100.028192 156.046693 96.0681673 158.325704 91.8681416 155.926745 95.8281658 153.58776"></polygon>
                <polygon id="路径" fill="#3A3A77" points="110.228254 156.166641 106.26823 158.445652 102.068204 156.046693 106.028228 153.707708"></polygon>
                <polygon id="路径" fill="#3A3A77" points="105.248224 159.045392 101.288199 161.384377 97.0281732 158.925444 101.048198 156.586459"></polygon>
                <polygon id="路径" fill="#3A3A77" points="108.248242 137.634683 104.228217 139.973668 100.028192 137.514735 103.988216 135.17575"></polygon>
                <polygon id="路径" fill="#3A3A77" points="142.688453 153.767682 140.468439 155.08711 136.208413 152.628177 138.488427 151.368723"></polygon>
                <polygon id="路径" fill="#3A3A77" points="150.548501 158.325704 148.328487 159.645132 141.428445 155.686849 143.648459 154.367422"></polygon>
                <polygon id="路径" fill="#3A3A77" points="142.32845 163.123622 138.368426 165.402633 134.168401 163.003674 138.128425 160.664689"></polygon>
                <polygon id="路径" fill="#3A3A77" points="147.368481 160.184898 143.348457 162.523883 136.448415 158.5656 140.468439 156.226615"></polygon>
                <polygon id="路径" fill="#3A3A77" points="95.8281658 126.71942 93.6081523 128.038847 89.3481262 125.579914 91.6281401 124.320461"></polygon>
                <polygon id="路径" fill="#3A3A77" points="90.6081339 123.720721 88.3881203 125.040149 84.1880946 122.581216 86.4081082 121.321762"></polygon>
                <polygon id="路径" fill="#3A3A77" points="114.848282 167.201853 113.168272 168.22141 108.728245 165.642529 110.408255 164.682946"></polygon>
                <polygon id="路径" fill="#3A3A77" points="111.788264 162.823752 107.828239 165.102763 102.248205 161.924143 106.208229 159.585158"></polygon>
                <polygon id="路径" fill="#3A3A77" points="115.448286 159.16534 111.488262 161.444351 107.228236 159.045392 111.24826 156.706407"></polygon>
                <polygon id="路径" fill="#3A3A77" points="99.8481905 150.10927 95.8281658 152.448255 91.6281401 149.989322 95.5881644 147.710311"></polygon>
                <polygon id="路径" fill="#3A3A77" points="119.948313 170.200551 118.268303 171.160135 113.888276 168.641228 115.568287 167.681644"></polygon>
                <polygon id="路径" fill="#3A3A77" points="79.2080641 143.991924 75.2480399 146.330909 70.9880138 143.871977 75.0080384 141.592966"></polygon>
                <polygon id="路径" fill="#B6CBEA" points="159.548556 167.981514 140.048437 179.316595 132.248389 174.818547 151.808509 163.483466"></polygon>
                <polygon id="路径" fill="#B6CBEA" points="67.0879899 114.604677 47.5278702 125.939758 39.7878228 121.501684 59.3479425 110.106629"></polygon>
                <polygon id="路径" fill="#3887E5" points="99.6681894 84.4377681 99.608189 96.252641 85.3281016 88.0362065 85.3881019 76.1613596"></polygon>
                <polygon id="路径" fill="#6262AA" points="90.6681343 94.6333437 90.6681343 95.8328232 85.3281016 92.7741505 85.3281016 91.574671"></polygon>
                <polygon id="路径" fill="#83A1CC" points="99.608189 102.42996 99.608189 111.066213 85.2681012 102.849778 85.3281016 94.1535519"></polygon>
                <polygon id="路径" fill="#6262AA" points="117.128296 109.926707 117.128296 111.126187 111.788264 108.067514 111.788264 106.80806"></polygon>
                <polygon id="路径" fill="#6262AA" points="143.588458 125.160097 143.588458 126.41955 138.248426 123.300903 138.248426 122.101424"></polygon>
                <polygon id="路径" fill="#83A1CC" points="152.528513 132.956713 152.528513 141.65294 138.248426 133.376531 138.248426 124.680305"></polygon>
                <polygon id="路径" fill="#3887E5" points="152.588513 114.964521 152.588513 126.839368 138.248426 118.562959 138.308426 106.688113"></polygon>
                <polygon id="路径" fill="#83A1CC" points="126.068351 117.66335 126.068351 126.359576 111.728263 118.083168 111.788264 109.446915"></polygon>
                <polygon id="路径" fill="#3887E5" points="126.128351 99.6711575 126.128351 111.546004 111.788264 103.269596 111.848264 91.454723"></polygon>
                <polygon id="路径" fill="#6262AA" points="157.328542 99.7311315 157.268542 112.265692 88.8081229 72.7428431 95.4681636 70.2839101 88.8681232 60.2082825"></polygon>
                <polygon id="路径" fill="#6262AA" points="85.8081045 58.4090632 92.3481445 68.4846909 85.7481041 70.9436239 80.7080733 68.0648731 80.7680737 55.5303125"></polygon>
                <path d="M361.869794,351.202006 L417.850137,320.075513 C418.690142,319.595721 419.110145,318.995981 419.110145,318.396242 L419.170145,315.517491 C419.170145,314.857777 418.750143,314.258037 417.910137,313.718272 L326.76958,261.001148 C325.089569,260.041565 322.389553,260.041565 320.709542,260.941174 L264.7292,292.067667 C263.889195,292.547459 263.469192,293.147198 263.469192,293.806912 L263.469192,296.685663 C263.469192,297.285403 263.829194,297.885142 264.669199,298.424908 L355.869758,351.142032 C357.489768,352.101615 360.189784,352.101615 361.869794,351.202006 Z" id="路径" fill="#E1E9F4"></path>
                <path d="M361.869794,348.563151 L417.850137,317.436658 C418.690142,316.956866 419.110145,316.357127 419.110145,315.757387 L419.170145,312.878636 C419.170145,312.218922 418.750143,311.619183 417.910137,311.079417 L326.76958,258.362293 C325.089569,257.40271 322.389553,257.342736 320.709542,258.302319 L264.7292,289.428812 C263.889195,289.908604 263.469192,290.508344 263.469192,291.168057 L263.469192,294.046808 C263.469192,294.646548 263.829194,295.246288 264.669199,295.786053 L355.869758,348.503177 C357.489768,349.46276 360.189784,349.46276 361.869794,348.563151 Z" id="路径" fill="#83A1CC"></path>
                <path d="M361.869794,345.624426 L417.910137,314.497933 C419.530147,313.598324 419.530147,312.039 417.910137,311.079417 L326.76958,258.362293 C325.089569,257.40271 322.389553,257.342736 320.709542,258.302319 L264.7292,289.428812 C263.049189,290.328422 263.10919,291.887745 264.7292,292.847329 L355.869758,345.564452 C357.549768,346.524036 360.249785,346.58401 361.869794,345.624426 Z" id="路径" fill="#B6CBEA"></path>
                <path d="M382.749922,327.512286 C384.429933,328.471869 387.129949,328.531843 388.809959,327.57226 C390.48997,326.67265 390.48997,325.113327 388.809959,324.153743 C387.129949,323.19416 384.429933,323.134186 382.749922,324.093769 C381.069912,324.993379 381.069912,326.552702 382.749922,327.512286 Z" id="路径" fill="#83A1CC"></path>
                <path d="M305.64945,270.23714 C306.189454,270.53701 307.029459,270.596984 307.569462,270.297114 C308.049465,269.997244 308.049465,269.517453 307.569462,269.217583 C307.029459,268.917713 306.189454,268.917713 305.64945,269.217583 C305.169447,269.457479 305.169447,269.93727 305.64945,270.23714 Z" id="路径" fill="#83A1CC"></path>
                <path d="M302.469431,272.03636 C302.949434,272.336229 303.789439,272.336229 304.329442,272.03636 C304.869446,271.796464 304.869446,271.316672 304.329442,271.016802 C303.789439,270.716932 302.949434,270.656958 302.469431,270.956828 C301.929428,271.256698 301.929428,271.73649 302.469431,272.03636 Z" id="路径" fill="#83A1CC"></path>
                <path d="M299.229411,273.835579 C299.769414,274.135449 300.609419,274.135449 301.149423,273.835579 C301.629426,273.535709 301.629426,273.055917 301.149423,272.756047 C300.609419,272.456177 299.769414,272.456177 299.229411,272.756047 C298.749408,273.055917 298.749408,273.535709 299.229411,273.835579 Z" id="路径" fill="#83A1CC"></path>
                <path d="M296.049392,275.574824 C296.529394,275.874694 297.3694,275.874694 297.909403,275.634798 C298.449406,275.334928 298.449406,274.855136 297.909403,274.555266 C297.3694,274.255397 296.529394,274.255397 296.049392,274.495292 C295.509388,274.795162 295.509388,275.274954 296.049392,275.574824 Z" id="路径" fill="#83A1CC"></path>
                <path d="M292.809372,277.374043 C293.349375,277.673913 294.18938,277.673913 294.669383,277.374043 C295.209386,277.074173 295.209386,276.594382 294.669383,276.294512 C294.18938,275.994642 293.349375,275.994642 292.809372,276.294512 C292.269368,276.594382 292.269368,277.074173 292.809372,277.374043 Z" id="路径" fill="#83A1CC"></path>
                <path d="M289.629352,279.173262 C290.109355,279.473132 290.94936,279.473132 291.489364,279.173262 C291.969367,278.873393 291.969367,278.393601 291.489364,278.093731 C290.94936,277.793861 290.109355,277.793861 289.629352,278.093731 C289.089349,278.393601 289.089349,278.873393 289.629352,279.173262 Z" id="路径" fill="#83A1CC"></path>
                <polygon id="路径" fill="#FFFFFF" points="405.670063 309.100276 350.709726 339.627029 271.209239 293.686964 326.169576 263.100237"></polygon>
                <polygon id="路径" fill="#83A1CC" points="405.670063 309.100276 397.210011 313.83822 317.709524 267.838181 326.169576 263.100237"></polygon>
                <path d="M398.050016,308.020744 C397.390012,307.6609 396.310005,307.600926 395.650001,308.020744 C394.989997,308.380588 394.989997,308.980328 395.650001,309.340172 C396.310005,309.700015 397.390012,309.759989 398.050016,309.400145 C398.71002,308.980328 398.71002,308.380588 398.050016,308.020744 Z" id="路径" fill="#DEE7F8"></path>
                <path d="M391.389975,305.501837 C390.729971,305.921655 390.729971,306.521395 391.389975,306.881239 C392.049979,307.241082 393.129986,307.301056 393.78999,306.881239 C394.449994,306.521395 394.449994,305.921655 393.78999,305.561811 C393.129986,305.201967 392.049979,305.141993 391.389975,305.501837 Z" id="路径" fill="#DEE7F8"></path>
                <path d="M387.129949,303.042904 C386.469945,303.402748 386.469945,304.062462 387.129949,304.422306 C387.789953,304.782149 388.86996,304.782149 389.529964,304.422306 C390.189968,304.062462 390.189968,303.462722 389.529964,303.102878 C388.86996,302.68306 387.789953,302.68306 387.129949,303.042904 Z" id="路径" fill="#DEE7F8"></path>
                <polygon id="路径" fill="#3887E5" points="357.009765 309.999885 348.06971 314.977725 360.429786 322.114628 369.36984 317.196762"></polygon>
                <polygon id="路径" fill="#6262AA" points="353.169741 320.975123 352.209735 321.454914 356.829764 324.153743 357.789769 323.613977"></polygon>
                <polygon id="路径" fill="#83A1CC" points="343.449682 317.556606 336.909642 321.215018 349.269717 328.351921 355.809757 324.693509"></polygon>
                <polygon id="路径" fill="#6262AA" points="330.249601 307.720874 329.349595 308.200666 333.969624 310.899495 334.869629 310.359729"></polygon>
                <polygon id="路径" fill="#6262AA" points="307.329461 294.466626 306.429455 294.946418 311.049483 297.645247 311.949489 297.105481"></polygon>
                <polygon id="路径" fill="#83A1CC" points="297.669401 291.048109 291.129361 294.706522 303.489437 301.843425 310.029477 298.244986"></polygon>
                <polygon id="路径" fill="#3887E5" points="311.229484 283.491389 302.28943 288.469228 314.649505 295.666105 323.58956 290.688266"></polygon>
                <polygon id="路径" fill="#83A1CC" points="320.529541 304.302358 313.989501 307.96077 326.409577 315.097673 332.889617 311.499235"></polygon>
                <polygon id="路径" fill="#3887E5" points="334.089624 296.745637 325.14957 301.723477 337.569646 308.920354 346.4497 303.942514"></polygon>
                <polygon id="路径" fill="#6262AA" points="320.649542 273.655657 311.229484 278.873393 370.449847 313.178506 369.489841 307.241082 379.869905 307.900796"></polygon>
                <polygon id="路径" fill="#6262AA" points="382.569921 309.460119 372.129857 308.800406 373.089863 314.737829 377.46989 317.256736 386.889948 311.979026"></polygon>
            </g>
            <g id="编组" transform="translate(282.556642, 114.744166)">
                <path d="M117.465807,169.766781 C113.565783,170.066651 104.145725,175.584256 99.1056943,175.884126 C100.0057,176.783736 100.665704,177.683345 100.845705,178.463007 C100.845705,178.463007 101.265707,180.382174 96.4056777,178.642929 C93.1656579,182.301341 88.0656267,188.178791 85.3656102,191.957151 C84.1056024,193.75637 83.1455966,195.495616 82.4255922,197.414783 C77.1455598,212.588198 67.1254985,222.12406 67.1254985,222.12406 C64.9654853,225.482603 53.4454148,239.276617 49.5453909,245.333988 C49.5453909,245.393962 49.4853905,245.393962 49.4853905,245.453936 C54.7054225,245.453936 59.8654541,245.633858 63.8254783,245.81378 C74.3855429,246.533468 66.0454919,270.283162 66.0454919,270.283162 C65.9254912,270.283162 65.8054904,270.283162 65.7454901,270.223188 C65.7454901,270.583031 65.7454901,270.882901 65.8054904,271.122797 C66.225493,271.842485 65.6254893,274.78121 65.6254893,274.901158 C65.6254893,274.961131 64.6054831,278.739492 64.2454809,278.85944 C63.8254783,279.039362 63.4054757,278.919414 63.4054757,278.499596 C63.3454754,278.079778 64.0654798,275.261001 64.0654798,275.141053 C64.0054794,275.081079 63.7054776,274.961131 63.4654761,275.380949 C63.2254746,275.860741 62.3854695,280.298815 61.2454625,280.358789 C60.345457,280.418763 60.4654577,279.998945 60.6454588,279.399206 C60.8254599,278.85944 61.7854658,275.560871 61.7854658,275.560871 C61.7854658,275.560871 61.7254654,275.320975 61.4254636,275.680819 C61.0654614,276.040663 60.4654577,279.759049 59.3854511,280.898555 C59.3254508,281.018503 58.6654467,281.318373 58.4854456,280.538711 C58.3654449,279.699075 59.685453,275.261001 59.685453,275.261001 C59.685453,275.261001 59.4454515,274.961131 59.20545,275.320975 C58.9654485,275.740793 58.1254434,279.099336 57.5854401,279.819023 C57.5254397,279.878997 56.8054353,279.998945 56.8054353,279.219284 C56.745435,278.319674 56.9854364,276.400507 57.8854419,274.301418 C58.6654467,272.382251 58.065443,272.922016 58.065443,272.922016 C58.065443,272.922016 56.8654357,273.58173 56.745435,273.761652 C56.5054335,273.941574 54.3454203,274.841184 53.5054151,273.8816 C53.5054151,273.8816 54.0454184,273.641704 54.6454221,273.341834 C55.3654265,273.101938 56.745435,271.722537 56.745435,271.722537 C56.745435,271.722537 57.405439,270.942875 58.7854474,270.343135 C59.5054519,269.983292 60.0454552,269.563474 60.4654577,268.963734 C60.4054574,268.90376 60.345457,268.90376 60.345457,268.843786 C62.2054684,257.208835 56.5054335,252.770761 56.5054335,252.770761 C49.1253883,254.090188 42.705349,254.989798 38.3853226,255.289668 L38.3253222,255.289668 C37.7853189,255.46959 37.1253149,255.589538 36.4653108,255.589538 L25.2452421,256.249252 C24.7652392,256.609095 24.2852363,256.968939 23.925234,257.268809 C23.7452329,257.508705 23.7452329,257.808575 23.925234,258.168419 C24.3452366,259.128002 25.3652429,258.828132 26.0252469,259.787716 C27.7052572,262.486545 25.1852418,265.905061 22.605226,268.423968 L22.605226,268.483942 C22.605226,269.5035 22.0052223,271.122797 21.7052205,272.68212 C21.4052186,274.301418 18.7052021,275.081079 16.6651896,274.121496 C15.0451797,273.341834 12.5251643,272.442225 11.0251551,272.262303 C3.40510843,270.882901 -3.85493601,266.084983 2.32510182,259.24795 C5.38512055,255.949382 7.78513524,254.450032 9.705147,253.490449 C6.10512496,251.871151 1.00509374,247.732947 10.5451521,240.056278 C21.3452183,231.420026 31.1252781,215.227053 33.4652924,213.127964 C33.4652924,213.008016 33.5252928,213.008016 33.5252928,213.008016 C34.5452991,210.609057 36.7053123,207.670332 41.3853409,204.91153 C45.9453688,202.212701 50.0253938,198.554288 53.0254122,195.55559 C55.4254269,193.096657 57.2854383,190.457802 58.9654485,187.698999 C64.0654798,179.302643 77.1455598,169.766781 77.1455598,169.766781 C77.1455598,169.766781 77.1455598,169.766781 77.2055602,169.766781 C77.3255609,168.987119 77.7455635,167.667692 78.645569,166.58816 C78.7655698,166.468212 78.8855705,166.348264 79.0655716,166.168342 C79.6655753,165.628576 80.7455819,164.668993 81.1655844,164.549045 C81.7655881,164.369123 82.725594,164.609019 83.7456002,164.908889 C83.5055988,164.189201 83.385598,163.709409 83.385598,163.709409 C83.385598,163.709409 88.1856274,160.110971 88.60563,160.110971 C89.0856329,160.110971 95.8056741,160.890632 95.8056741,160.890632 L94.6656671,166.108368 C95.14567,165.628576 95.7456737,165.148785 96.0456755,165.088811 C98.085688,164.489071 104.025724,168.507327 103.845723,168.567301 C103.785723,168.687249 103.185719,169.346963 103.125719,169.406937 C103.845723,169.826755 113.325781,165.928446 119.925822,166.828056 C119.925822,166.828056 122.745839,169.346963 117.465807,169.766781 Z" id="路径" fill="#E1E9F4"></path>
                <g transform="translate(75.866272, 0.000000)" id="路径">
                    <g>
                        <path d="M6.79932154,156.152688 L14.8993711,153.034042 C19.459399,156.93235 21.7994134,155.732871 27.619449,155.972767 C33.3794843,156.272636 31.5794732,158.491673 31.5794732,158.491673 C29.8994629,160.470815 24.6194306,162.50993 22.3394167,162.989722 C21.2594101,163.229617 20.1194031,163.289591 19.0393965,163.289591 C18.0793906,163.289591 15.6793759,163.469513 14.7793704,163.589461 C14.7793704,163.709409 14.8393708,164.728967 14.8393708,164.908889 C14.8993711,165.148785 7.27932448,166.948004 6.07931713,165.148785 C5.7793153,164.728967 5.53931383,163.049696 5.53931383,162.030138 C5.47931346,161.790242 5.47931346,161.550346 5.47931346,161.430398 C5.41931309,158.731569 6.79932154,156.152688 6.79932154,156.152688 Z" fill="#2A2A5E"></path>
                        <g>
                            <path d="M28.759456,4.77837747 C28.759456,4.77837747 12.1993546,8.85660772 12.0793539,9.81619131 C12.0793539,10.1160612 10.639345,26.9687479 10.7593458,30.8070823 C10.9393469,37.0443756 27.4394479,34.7653646 25.2794347,30.4472385 C23.8994262,27.6284617 22.2794163,25.5893465 23.8394259,24.1499712 C24.9194325,23.1903876 25.5194361,24.0899972 26.7194435,23.1903876 C32.5394791,18.9922094 28.759456,4.77837747 28.759456,4.77837747 Z" fill="#ECB4BF"></path>
                            <path d="M1.39928848,96.658506 C-2.26073392,85.7432427 2.29929399,78.4863918 3.31930024,76.6271986 L21.7994134,82.5646221 C21.7994134,82.5646221 23.3594229,99.057465 17.2393855,119.868434 C16.4593807,122.447315 16.0393781,125.146144 15.859377,127.844973 C15.2593733,135.641589 15.6193755,150.095317 15.9793777,153.75373 C14.4193682,156.392584 9.97934101,157.592064 6.37931897,156.872376 C6.37931897,156.872376 2.29929399,138.760236 3.97930428,126.105727 C4.51930758,122.027497 4.75930905,117.889293 4.51930758,113.751089 C4.09930501,108.713275 3.31930024,102.236086 1.39928848,96.658506 Z" fill="#3A3A77"></path>
                            <g transform="translate(10.731486, 79.865793)">
                                <path d="M8.54791168,83.1239283 L16.6479613,80.0652556 C21.2079892,83.963564 23.5480035,82.7041105 29.3680391,82.9440064 C35.1280744,83.3038502 33.3280634,85.5228873 33.3280634,85.5228873 C31.6480531,87.5020284 26.3680208,89.4811696 24.0880068,90.0209354 C23.0080002,90.2608313 21.8679932,90.3208052 20.7879866,90.3208052 C19.8279807,90.3208052 17.427966,90.5007272 16.5279605,90.6206751 C16.5279605,90.740623 16.5879609,91.7601806 16.5879609,91.9401025 C16.6479613,92.1799984 9.02791462,93.9192437 7.82790727,92.1200245 C7.52790543,91.7601806 7.28790396,90.0809093 7.28790396,89.0613518 C7.2279036,88.8214559 7.2279036,88.58156 7.2279036,88.461612 C7.16790323,85.7627832 8.54791168,83.1239283 8.54791168,83.1239283 Z" fill="#2A2A5E"></path>
                                <path d="M2.30787348,22.4302664 C-2.01215297,12.2346907 0.867864664,1.79921923 1.88787091,0 L23.5480035,9.29596601 C23.5480035,9.29596601 25.1080131,25.8487829 18.9879756,46.599778 C18.2079708,49.2386329 17.7879682,51.9374617 17.6079671,54.6362905 C17.0079635,62.4329072 17.3679657,76.826661 17.6679675,80.5450474 C16.1679583,83.1239283 11.7279311,84.3833818 8.12790911,83.6636941 C8.12790911,83.6636941 4.16788486,65.9713717 5.66789405,53.3168631 C6.20789735,48.818815 4.58788744,27.8279241 2.30787348,22.4302664 Z" fill="#4C4A8B"></path>
                            </g>
                            <path d="M0.559283342,38.9635428 C-2.92073796,19.4720012 11.8993528,22.5906478 11.8993528,22.5906478 C12.3793557,26.8488 19.0993968,28.2881754 23.6594248,27.0886959 L32.2994776,33.5658851 C32.9594817,34.0456769 33.499485,34.6454167 33.9794879,35.3051304 C34.639492,36.3846619 35.1794953,38.1239072 35.5394975,40.0430743 C36.3195023,44.1213046 36.3195023,48.3194828 35.8994997,52.517661 C34.8794934,61.753653 34.8194931,84.0639714 34.2794898,89.1617593 C34.2794898,89.1617593 3.85930354,102.356034 0.679284077,82.9244659 C0.139280771,79.5059494 3.37930061,54.91662 0.559283342,38.9635428 Z" fill="#3887E5"></path>
                            <path d="M28.9394571,1.41983491 C27.0794457,1.47980889 24.4394295,1.23991299 23.0594211,0.820095172 C15.859377,-1.45891585 6.73932117,0.64017325 7.09932338,11.8553064 C7.39932521,21.8109862 10.1593421,23.6102054 10.5793447,26.6089041 C10.6993454,27.3885658 11.2393487,28.0482795 11.9593531,28.2881754 C14.6593697,29.067837 24.8594321,32.2464577 23.6594248,27.0886959 C20.6594064,14.0143695 23.4194233,12.6949421 24.5594303,13.8944216 C25.7594376,15.213849 26.8394442,17.7927299 26.8394442,17.7927299 L27.7394497,17.432886 C27.9194508,16.1734326 25.6394369,14.6141093 29.1194582,12.0352284 C30.2594652,11.2555667 30.9194692,8.31684195 32.0594762,5.67798709 C32.9594817,3.57889799 31.2794714,1.23991299 28.9394571,1.41983491 Z" fill="#753025"></path>
                        </g>
                    </g>
                    <g transform="translate(22.605588, 14.552126)">
                        <path d="M47.31412,5.39966742 C47.0141181,5.87945922 45.6341097,9.59784562 45.5741093,9.6578196 C45.4541086,9.77776755 45.1541067,9.77776755 45.2741075,9.11805383 C45.3341078,8.45834011 47.7341225,2.64086461 46.8941174,2.04112487 C46.174113,1.5013591 45.9341115,2.16107282 45.69411,2.88076051 C45.5141089,3.6004482 43.9540994,8.03852229 43.9540994,8.03852229 C43.9540994,8.03852229 43.7740983,8.27841819 43.7740983,7.67867845 C43.7740983,7.13891268 45.7541104,2.40096871 45.7541104,0.54177551 C45.7541104,0.241905639 45.4541086,-0.477782052 44.7341042,0.481801536 C44.0741001,1.38141115 42.094088,7.37880858 42.094088,7.37880858 C42.094088,7.37880858 41.7340858,7.61870447 41.7340858,7.01896473 C41.7940862,6.41922499 43.4740965,1.98115089 43.4740965,0.901619356 C43.4740965,0.721697433 42.9340931,0.241905639 42.4540902,1.14151525 C41.7940862,2.22104679 40.6540792,4.62000576 39.9340748,7.5587305 C39.2740707,10.3175333 39.15407,9.29797575 39.15407,9.29797575 C39.15407,9.29797575 38.6740671,7.97854832 38.6140667,7.61870447 C38.6140667,7.25886063 37.4140594,5.09979755 36.0940513,5.87945922 C36.0940513,5.87945922 36.3340527,6.47919896 36.6940549,7.0789387 C37.0540572,7.73865242 37.2340583,10.0776374 37.2340583,10.0776374 C37.2340583,10.0776374 37.2340583,11.3970649 37.9540627,12.7764663 C38.6740671,14.2158416 38.494066,15.715191 37.8940623,17.5743842 L42.5740909,18.7738637 C42.5740909,18.7738637 43.4140961,16.1350088 44.2541012,15.4752951 C45.034106,14.7556074 46.5941156,10.977247 46.6541159,10.7973251 C46.7141163,10.6773772 48.5141273,5.75951127 48.2741258,5.33969345 C48.0341244,4.97984961 47.6141218,4.85990166 47.31412,5.39966742 Z" fill="#ECB4BF"></path>
                        <path d="M0.393832735,22.732146 C2.01384265,17.8742541 6.93387277,17.2145404 11.0138977,20.333187 C14.3139179,22.8520939 18.8739459,27.2301941 24.0339774,32.5678778 C24.0339774,32.5678778 31.7740248,30.1689188 38.1940641,15.2953732 C39.2140704,14.4557375 42.1540884,15.8351389 43.8340987,16.5548266 C43.8340987,16.5548266 34.2940403,49.1806686 25.2939852,44.5626726 C19.053947,41.444026 9.75389003,35.8064724 3.27385037,31.4283723 C0.51383347,29.5092051 -0.686173876,25.9707406 0.393832735,22.732146 Z" fill="#3887E5"></path>
                    </g>
                </g>
            </g>
        </g>
    </g>
</svg>