<?xml version="1.0" encoding="UTF-8"?>
<svg width="784px" height="587px" viewBox="0 0 784 587" version="1.1" xmlns="http://www.w3.org/2000/svg" xmlns:xlink="http://www.w3.org/1999/xlink">
    <title>5</title>
    <defs>
        <path d="M628.671035,275.504108 C619.731162,274.243082 535.01237,301.985649 526.012499,339.996569 C517.012627,378.067538 449.213594,417.699777 420.354005,407.911815 C391.434418,398.123853 353.574958,408.572352 353.574958,408.572352 L329.755297,420.10173 L324.295375,422.74388 L324.235376,422.74388 L0,235.33143 L404.63423,0 L718.609752,181.407565 C728.509611,187.112206 736.729494,195.579093 741.049432,206.207739 C764.869092,264.575218 636.890917,276.645036 628.671035,275.504108 Z" id="path-1"></path>
        <filter x="-4.7%" y="-5.9%" width="109.4%" height="116.6%" filterUnits="objectBoundingBox" id="filter-2">
            <feOffset dx="0" dy="10" in="SourceAlpha" result="shadowOffsetOuter1"></feOffset>
            <feGaussianBlur stdDeviation="10" in="shadowOffsetOuter1" result="shadowBlurOuter1"></feGaussianBlur>
            <feColorMatrix values="0 0 0 0 0.0980392157   0 0 0 0 0.129411765   0 0 0 0 0.235294118  0 0 0 0.1 0" type="matrix" in="shadowBlurOuter1"></feColorMatrix>
        </filter>
    </defs>
    <g id="页面-1" stroke="none" stroke-width="1" fill="none" fill-rule="evenodd">
        <g id="5" transform="translate(20.000000, 0.000000)">
            <g id="编组" transform="translate(0.000000, 134.256120)" fill-rule="nonzero">
                <g id="路径">
                    <use fill="black" fill-opacity="1" filter="url(#filter-2)" xlink:href="#path-1"></use>
                    <use fill="#F3F6FD" xlink:href="#path-1"></use>
                </g>
                <path d="M274.85608,392.479261 C274.85608,392.479261 270.176147,377.887391 263.756239,368.459722 L263.756239,368.159478 L262.676254,367.01855 C261.53627,365.397231 260.276288,364.016108 259.016306,362.935229 C258.956307,362.87518 258.836309,362.815131 258.77631,362.815131 L254.036377,357.65093 L288.295889,379.328564 L303.65567,395.962094 L308.155605,398.844439 L308.395602,396.442485 L291.895837,378.547929 L309.055593,227.404982 L304.855652,226.98464 L300.775711,225.723614 L298.975736,240.435582 L261.716268,216.836385 L265.07622,199.422219 L260.036292,198.581536 L256.196346,199.962659 L245.4565,290.636417 C242.876536,291.837394 238.376601,294.419495 236.876622,298.502816 C236.216631,300.424379 235.316644,302.105747 233.876665,303.306724 C232.196689,304.747896 229.676725,306.309166 226.616768,306.609411 C220.676853,307.269948 222.29683,313.39493 222.716824,315.136347 C222.596826,315.136347 222.596826,315.136347 222.536826,315.136347 C222.29683,315.856933 222.116832,316.457421 222.056833,316.817714 C222.056833,316.937812 222.116832,317.178008 222.29683,317.358154 C221.036848,319.339766 216.116918,326.605676 210.117004,331.289486 C204.357086,335.79315 212.936963,344.740428 216.296915,347.923017 C216.956906,348.523505 217.3769,349.244092 217.556897,349.784531 C217.556897,349.784531 217.556897,349.84458 217.556897,349.904629 C217.316901,349.84458 216.956906,349.664433 216.716909,349.664433 C216.056919,349.664433 214.316944,352.786974 213.956949,353.387462 C212.996962,354.888683 213.656953,357.170539 215.096933,359.632542 L235.016648,371.161921 C235.916636,368.759967 235.676639,365.337182 231.116704,361.614154 C231.116704,361.614154 231.116704,361.31391 231.116704,360.953617 C231.296701,360.112933 232.016691,359.75264 233.096676,359.992835 C235.376643,360.353128 237.536613,360.893568 239.876579,361.854349 C242.036548,362.755082 243.536527,363.115375 244.676511,363.235473 C250.376429,365.45728 259.616298,370.261188 259.616298,370.261188 C258.956307,371.522214 268.796167,386.594474 269.696154,389.476819 C269.516156,389.656965 269.396158,389.777063 269.036163,389.837112 C268.436172,389.897161 268.196175,390.137356 268.076177,390.257454 L274.976079,394.220678 C274.85608,393.740287 274.676083,392.899603 274.436086,392.479261 C274.616084,392.479261 274.85608,392.53931 274.85608,392.479261 Z M286.375916,353.087218 L268.376173,341.617888 C268.676168,340.777204 268.796167,339.816423 269.27616,339.035788 C270.536142,336.753931 272.996107,332.310317 274.136091,330.929193 C277.616041,333.090952 281.87598,337.294371 283.795953,339.215934 C285.955922,341.49779 288.295889,342.338474 284.935937,337.414469 C284.815938,337.294371 284.635941,337.114225 284.575942,336.934078 L287.935894,339.095836 L286.375916,353.087218 Z M261.176275,221.580244 L298.435744,245.239489 L296.875766,259.230871 L259.616298,235.631674 L261.176275,221.580244 Z M259.136304,240.375533 L296.335774,264.034778 L294.775796,277.966111 L257.576327,254.366914 L259.136304,240.375533 Z M257.036334,259.170822 L294.235804,282.770018 L292.675826,296.7614 L255.476357,273.162203 L257.036334,259.170822 Z M254.936364,277.966111 L292.135834,301.565307 L290.575856,315.556689 L253.376387,291.957492 L254.936364,277.966111 Z M252.596398,298.622914 C252.836394,298.32267 253.016392,298.142523 253.13639,297.962377 C256.67634,300.964819 260.336287,305.528531 261.956264,307.630241 C263.816238,310.032195 266.4562,311.713562 264.296231,307.14985 C263.516242,305.58858 262.136262,303.606968 260.576284,301.625356 L290.035864,320.360596 L288.475886,334.291929 L272.876109,324.383869 C272.75611,324.203723 272.636112,324.023576 272.456115,323.843429 L267.956179,319.880206 C267.536185,319.459864 267.296188,319.519913 267.236189,319.820157 C267.17619,320.120401 267.116191,320.420645 267.116191,320.780938 L251.276417,310.752781 L252.596398,298.622914 Z M250.736424,315.49664 L265.556213,324.924309 C264.476228,326.125286 263.096248,327.926751 261.896265,330.208607 C259.976292,334.111782 258.536313,331.589731 249.716439,324.744162 L250.736424,315.49664 Z M251.276417,340.116667 C251.336416,340.176716 251.456414,340.236765 251.516413,340.236765 C251.636411,339.996569 251.816409,339.636276 251.996406,339.095836 L251.996406,339.035788 C254.156375,339.876471 257.756324,341.257595 261.056277,342.158328 L285.895923,357.891125 L284.335945,371.882507 L248.996449,349.484287 C249.956435,345.040672 251.096419,340.717155 251.276417,340.116667 Z" id="形状" fill="#E1E9F4"></path>
                <path d="M505.432792,282.349677 L500.872857,284.151142 C500.092868,284.451386 499.192881,284.451386 498.412892,284.031044 L426.293921,248.902469 L368.334747,282.589872 C364.674799,284.691582 358.794883,284.691582 355.134935,282.589872 L179.337442,181.047272 C177.477469,179.966393 176.577482,178.58527 176.577482,177.204146 L176.637481,169.277698 C176.637481,170.658822 177.537468,172.099994 179.397442,173.120825 L355.134935,274.663424 C358.854882,276.825183 364.734799,276.825183 368.394746,274.663424 L418.914026,245.299538 L403.314248,237.733384 L481.433134,196.78007 L507.292766,278.566599 C507.772759,280.127869 506.932771,281.749188 505.432792,282.349677 Z" id="路径" fill="#E1E9F4"></path>
                <path d="M563.151969,259.951457 L558.17204,253.225986 C553.492107,246.680662 545.932214,240.915972 534.172382,236.8927 C473.933241,233.650062 461.153424,291.897443 460.493433,294.959934 L465.773358,302.105747 C468.713316,302.345942 471.473276,302.766284 473.933241,303.246675 C490.673003,306.429264 499.552876,313.815272 503.752816,318.499082 L506.812772,322.702501 C507.71276,322.282159 521.272566,315.076298 541.37228,316.577519 C548.632176,309.852048 557.632048,303.727066 567.171912,298.382719 C570.711861,286.553096 571.911844,271.901177 563.151969,259.951457 Z" id="路径" fill="#E1E9F4"></path>
                <polygon id="路径" fill="#FAFCFF" points="716.449783 180.14654 486.113068 312.314051 431.033853 280.488162 661.310569 148.320651 658.010616 146.399088 427.7339 278.566599 255.836352 179.245807 486.113068 47.0782957 482.813115 45.1567326 252.536399 177.324244 197.457184 145.498355 427.7339 13.3308439 424.433947 11.4092808 18.2397399 245.900027 21.5396928 247.82159 194.817222 146.999576 249.896436 178.825465 76.6189073 279.647478 79.9188603 281.569041 253.196389 180.747028 308.815596 212.873161 135.538067 313.695174 137.878034 315.016249 311.155563 214.254285 367.254763 246.620613 193.917235 347.442626 196.257201 348.763701 369.53473 248.001736 425.093938 280.06782 251.816409 380.889834 255.116362 382.811397 428.393891 281.989383 483.533104 313.815272 310.255575 414.637285 313.555528 416.558849 719.749736 182.068103"></polygon>
            </g>
            <g id="编组" transform="translate(176.577482, 0.000000)">
                <g transform="translate(0.000000, 93.245688)" fill-rule="nonzero">
                    <g>
                        <g id="路径">
                            <g transform="translate(112.678393, 0.000000)">
                                <path d="M187.857321,102.500451 L12.059828,0.897802391 C10.1998545,-0.183076847 8.5198785,-0.243125693 7.37989476,0.477460465 L2.27996749,3.3598051 C3.47995037,2.69926779 6.95990075,11.4663994 6.95990075,11.4663994 C6.95990075,11.4663994 188.277315,240.012309 187.077332,240.672847 L192.177259,237.730453 C193.317243,237.069916 194.097232,235.568695 194.097232,233.527034 L194.457227,113.909732 C194.457227,109.706312 191.517269,104.60216 187.857321,102.500451 Z" fill="#83A1CC"></path>
                                <path d="M182.757394,105.382795 C186.417342,107.544554 189.3573,112.648706 189.3573,116.852125 L189.057304,236.409379 C188.997305,240.672847 186.057347,242.354214 182.397399,240.252505 L6.59990588,138.709905 C2.93995807,136.548147 0,131.443995 0,127.180527 L0.359994866,7.62327321 C0.359994866,3.41985395 3.29995294,1.73848624 7.01989989,3.84019587 L182.757394,105.382795 Z" fill="#B6CBEA"></path>
                                <polygon fill="#3A3A77" points="182.757394 113.008999 182.757394 130.363116 6.95990075 28.820516 6.95990075 11.4663994"></polygon>
                                <g transform="translate(149.697865, 100.419685)" fill="#6262AA">
                                    <path d="M24.9596441,20.635859 C23.0996706,19.6150286 21.599692,16.9728793 21.599692,14.8711697 C21.599692,12.7094112 23.0996706,11.8687274 24.9596441,12.9496066 C26.8196175,14.0304858 28.3195961,16.6125862 28.3195961,18.7743447 C28.3195961,20.8760543 26.8196175,21.7167382 24.9596441,20.635859 Z"></path>
                                    <path d="M14.1597981,14.4508278 C12.2998246,13.3699485 10.799846,10.7277993 10.799846,8.62608964 C10.799846,6.52438001 12.2998246,5.62364732 14.1597981,6.70452655 C16.0197715,7.78540579 17.5197502,10.3675062 17.5197502,12.5292647 C17.5197502,14.6309743 16.0197715,15.4716582 14.1597981,14.4508278 Z"></path>
                                    <path d="M3.35995208,8.20574772 C1.49997861,7.12486848 0,4.54276808 0,2.3810096 C0,0.279299973 1.49997861,-0.621432725 3.35995208,0.459446513 C5.21992556,1.54032575 6.71990417,4.12242615 6.71990417,6.28418463 C6.71990417,8.38589426 5.21992556,9.28662696 3.35995208,8.20574772 Z"></path>
                                </g>
                                <polygon fill="#2A2A5E" points="182.757394 130.363116 182.397399 232.626301 6.59990588 131.083702 6.95990075 28.820516"></polygon>
                            </g>
                            <g transform="translate(0.000000, 137.073574)">
                                <path d="M297.775753,107.022057 L297.775753,114.948505 C297.775753,116.329628 296.875766,117.650703 295.075792,118.731582 L191.757265,178.840477 C188.097318,180.942187 182.157402,180.942187 178.497454,178.840477 L2.75996064,77.2978777 C0.899987165,76.2169985 0,74.7758262 0,73.3947027 L0.0599991444,65.468255 C0.0599991444,64.0871315 0.95998631,62.706008 2.75996064,61.6851776 L106.078487,1.57628222 C109.678436,-0.525427407 115.618351,-0.525427407 119.278299,1.57628222 L295.075792,103.178931 C296.875766,104.25981 297.775753,105.640933 297.775753,107.022057 Z" fill="#83A1CC"></path>
                                <g>
                                    <g>
                                        <path d="M297.775753,107.022057 L297.775753,114.948505 C297.775753,116.329628 296.875766,117.650703 295.075792,118.731582 L191.757265,178.780428 C188.097318,180.942187 182.157402,180.942187 178.497454,178.780428 L2.75996064,77.2378289 C0.899987165,76.2169985 0,74.7758262 0,73.3947027 L0.0599991444,65.468255 C0.0599991444,66.8493784 0.95998631,68.2905507 2.81995978,69.37143 L178.557454,170.91403 C182.217401,173.015739 188.157317,173.015739 191.817265,170.91403 L295.075792,110.805134 C296.875766,109.784304 297.775753,108.40318 297.775753,107.022057 Z" fill="#83A1CC"></path>
                                        <polygon fill="#3A3A77" points="279.296017 122.574708 279.296017 125.817346 287.875895 120.833291 287.875895 117.590654"></polygon>
                                        <polygon fill="#3A3A77" points="220.85685 156.081964 220.85685 160.345433 234.536655 152.358936 234.536655 148.095468"></polygon>
                                        <polygon fill="#3A3A77" points="198.057176 169.292711 198.057176 173.556179 211.79698 165.569682 211.79698 161.366263"></polygon>
                                        <path d="M295.015793,103.178931 C298.73574,105.28064 298.73574,108.703424 295.135791,110.805134 L191.817265,170.91403 C188.157317,173.015739 182.217401,173.015739 178.557454,170.91403 L2.81995978,69.37143 C-0.839988021,67.2096715 -0.839988021,63.7868873 2.75996064,61.6851776 L106.078487,1.57628222 C109.678436,-0.525427407 115.618351,-0.525427407 119.278299,1.57628222 L295.015793,103.178931 Z" fill="#DEE7F8"></path>
                                    </g>
                                    <path d="M167.637609,109.303913 L106.258485,73.8750935 C104.998503,73.0944585 102.898533,73.0944585 101.638551,73.8150446 L69.7190057,92.3701382 C68.4590237,93.1507732 68.5190229,94.3517501 69.7790049,95.0723363 L131.09813,130.561205 C132.418112,131.281791 134.458083,131.281791 135.718065,130.561205 L167.637609,111.946062 C168.897591,111.225476 168.897591,110.024499 167.637609,109.303913 Z" fill="#B6CBEA"></path>
                                </g>
                            </g>
                        </g>
                        <path d="M238.136604,152.340993 L242.696539,157.685341 L241.496556,162.90959 L236.33663,159.967197 C235.316644,161.828711 233.876665,163.209835 232.196689,164.110567 L233.756666,170.655892 L229.31673,171.25638 L225.656782,164.951251 C223.616811,164.590958 221.456842,163.810323 219.236873,162.549297 C219.056876,162.4292 218.876879,162.369151 218.75688,162.249053 L216.356915,166.152228 L211.256987,161.828711 L211.256987,155.883875 C209.097018,153.421873 207.177045,150.719675 205.617068,147.897379 L200.697138,146.876548 L197.937177,140.151078 L201.597125,137.989319 C200.817136,135.046926 200.397142,132.164581 200.51714,129.402334 L195.897206,124.118036 L197.157188,118.893786 L202.317115,121.836179 C203.3371,119.974665 204.717081,118.533493 206.397057,117.692809 L204.837079,111.147485 L209.337015,110.546996 L212.996962,116.852125 C215.036933,117.212418 217.196903,117.993053 219.416871,119.254079 C219.536869,119.374177 219.716867,119.434225 219.896864,119.554323 L222.236831,115.651148 L227.396757,119.974665 L227.396757,125.919501 C229.556726,128.321455 231.4167,131.083702 233.036677,133.905998 L237.956607,134.926828 L240.656568,141.652299 L237.056619,143.814057 C237.836608,146.756451 238.196603,149.638795 238.136604,152.340993 Z M229.796723,149.818942 C230.456713,146.996646 230.036719,143.393715 228.536741,139.670687 C227.036762,136.007707 224.636796,132.644972 221.816837,130.303067 C221.036848,129.582481 220.136861,128.981992 219.296873,128.501601 C217.3769,127.360673 215.396928,126.820234 213.716952,127.060429 C211.256987,127.420722 209.517012,129.10209 208.857022,131.984434 C208.137032,134.80673 208.617025,138.409661 210.117004,142.072641 C211.616982,145.795669 213.956949,149.158405 216.776909,151.50031 C217.616897,152.220896 218.456885,152.821384 219.296873,153.301775 C221.276844,154.442703 223.196817,154.983143 224.936792,154.742947 C227.396757,154.382654 229.136732,152.701286 229.796723,149.818942" id="形状" fill="#4C4A8B"></path>
                        <path d="M265.496214,213.290573 L269.576156,207.645981 C271.196132,209.2673 272.936108,210.648423 274.796081,211.729303 C276.596055,212.810182 278.39603,213.41067 280.016007,213.710915 L283.97595,223.979267 C281.275989,223.739072 278.276032,222.77829 275.156076,221.036874 L295.19579,232.626301 L295.19579,218.574871 C293.575813,221.096923 291.295846,222.838339 288.595884,223.558925 L284.575942,213.290573 C287.275903,212.269742 289.195876,209.687642 289.855866,205.904565 L295.255789,209.027105 L295.255789,202.902122 L289.855866,199.779582 C289.255875,195.275919 287.335902,190.53206 284.69594,186.388689 L288.715883,180.684049 C291.415844,184.587224 293.695812,188.97079 295.255789,193.354356 L295.315789,174.559067 L291.115848,175.039457 C288.055892,171.016185 284.635941,167.353205 280.975993,164.350763 L279.05602,154.202508 L270.776138,149.3986 L268.856166,157.385097 C265.196218,156.124071 261.776267,155.763778 258.71631,156.304217 L251.816409,147.477037 L245.936493,150.839772 L250.136433,161.228223 C248.096462,163.570128 246.656482,166.692668 245.876494,170.475745 L238.016606,168.13384 L237.956607,177.621558 L245.816494,184.347029 C246.596483,189.030839 248.036463,193.834746 250.016435,198.458508 L245.756495,203.983001 L245.876494,204.103099 L274.316088,220.556483 C271.196132,218.694969 268.256174,216.232966 265.496214,213.290573 Z M274.796081,204.703588 C269.756153,201.761194 265.616212,194.67543 265.676211,188.850692 C265.676211,183.025954 269.816152,180.684049 274.85608,183.626442 C279.896008,186.508787 284.035949,193.6546 283.97595,199.479338 C283.97595,205.244027 279.836009,207.645981 274.796081,204.703588 Z M274.916079,167.473303 C278.156033,169.394866 281.275989,171.976966 284.155948,174.979409 L280.076006,180.684049 C278.456029,179.06273 276.716054,177.621558 274.85608,176.600727 C273.056106,175.519848 271.256132,174.859311 269.636155,174.619115 L265.676211,164.350763 C268.496171,164.530909 271.616127,165.55174 274.916079,167.473303 Z M260.936279,207.585932 C255.95635,200.440119 252.476399,191.853134 251.75641,183.866638 L259.796295,188.490399 C260.396287,192.994063 262.316259,197.79797 264.956221,201.941341 L260.936279,207.585932 Z M259.796295,182.425466 L251.75641,177.801704 C252.536399,170.71594 256.016349,166.092179 261.056277,164.711056 L265.07622,175.039457 C262.376258,176.060288 260.456286,178.642388 259.796295,182.425466 Z" id="形状" fill="#4C4A8B"></path>
                    </g>
                    <g transform="translate(64.259084, 144.474595)" fill="#83A1CC" id="路径">
                        <polygon points="204.77708 89.7129768 200.697138 92.0548818 193.917235 88.1517067 197.997176 85.8098017"></polygon>
                        <polygon points="196.617196 84.9691179 192.537254 87.3710717 185.697352 83.4078479 189.777294 81.0659428"></polygon>
                        <polygon points="163.437669 104.304846 156.177773 108.508266 149.33787 104.545042 156.597767 100.341623"></polygon>
                        <polygon points="108.298456 40.7731668 101.038559 44.9765861 93.3586686 40.5329714 100.618565 36.3295522"></polygon>
                        <polygon points="83.5188089 58.1272835 76.2589125 62.3307027 68.579022 57.8870881 75.8389185 53.6836688"></polygon>
                        <polygon points="93.4186678 74.4005209 86.1587713 78.6039401 78.4788808 74.1603255 85.7387773 69.9569062"></polygon>
                        <polygon points="83.938803 68.876027 76.6789065 73.1394951 68.999016 68.6358316 76.1989133 64.4324124"></polygon>
                        <polygon points="92.9986738 63.5917285 85.7387773 67.7951478 78.0588868 63.3515331 85.3187833 59.1481139"></polygon>
                        <polygon points="78.2988834 44.5562441 71.0389869 48.7596634 63.3590964 44.3160488 70.6189929 40.1126295"></polygon>
                        <polygon points="74.398939 63.411582 67.1990417 67.6150012 59.4591521 63.1713866 66.7190485 58.9679673"></polygon>
                        <polygon points="45.9593446 46.958198 38.6994481 51.1616173 31.0195576 46.7180026 38.2794541 42.5145834"></polygon>
                        <polygon points="55.4392094 52.422643 48.1793129 56.6260623 40.4994224 52.1824477 47.7593189 47.9790284"></polygon>
                        <polygon points="64.9190742 57.9471369 57.6591777 62.1505562 49.9792872 57.7069415 57.2391837 53.5035223"></polygon>
                        <polygon points="74.0389441 52.6027896 66.7790477 56.8662577 59.0991572 52.422643 66.3590537 48.1591749"></polygon>
                        <polygon points="139.078017 105.625921 136.01806 107.427386 127.978175 102.743576 131.038131 101.00216"></polygon>
                        <polygon points="129.71815 100.221525 126.658194 102.02299 118.618308 97.3391803 121.678265 95.5977637"></polygon>
                        <polygon points="133.91809 97.7595222 130.858134 99.5609876 122.818248 94.9372264 125.878205 93.135761"></polygon>
                        <polygon points="102.898533 79.8649659 95.6386361 84.0683852 87.9587456 79.6247705 95.2186421 75.4213513"></polygon>
                        <g transform="translate(72.838961, 27.442323)">
                            <polygon points="31.8595457 4.44361465 27.7796038 6.78551966 20.0997134 2.34190502 24.1796552 0"></polygon>
                            <polygon points="25.9796295 7.8663989 18.719733 12.0698182 11.0398426 7.62620351 18.299739 3.42278425"></polygon>
                            <polygon points="41.3394105 9.90805968 37.2594686 12.3100135 29.5795782 7.8663989 33.65952 5.46444504"></polygon>
                            <polygon points="50.8192753 15.4325536 46.7993326 17.7744586 39.059443 13.3308439 43.1393848 10.9889389"></polygon>
                            <polygon points="21.7196903 15.9729932 14.5197929 20.1764124 6.77990331 15.7327978 14.0397998 11.5293785"></polygon>
                            <polygon points="44.9393591 18.8553378 37.7394618 23.0587571 29.9995722 18.6151424 37.2594686 14.4117232"></polygon>
                            <polygon points="60.3591392 20.8969986 56.2791974 23.2389036 48.5993069 18.795289 52.6192496 16.453384"></polygon>
                            <polygon points="31.2595542 21.4374382 23.9996577 25.6408575 16.3197673 21.1972428 23.5196646 16.9938236"></polygon>
                            <polygon points="14.9397869 22.5783663 7.73988962 26.7817856 0 22.3381709 7.25989647 18.1347517"></polygon>
                            <polygon points="54.4792231 24.3197829 47.2193266 28.5232021 39.5394361 24.0795875 46.7393335 19.8761682"></polygon>
                            <polygon points="69.839004 26.3614436 65.7590622 28.7633975 58.0791717 24.3197829 62.0991144 21.917829"></polygon>
                            <polygon points="40.739419 26.9619321 33.4795226 31.1653514 25.7996321 26.7217367 33.0595285 22.5183175"></polygon>
                            <polygon points="24.4196518 28.1028602 17.2197544 32.3062794 9.53986395 27.8626648 16.7397613 23.6592455"></polygon>
                            <polygon points="63.9590879 29.7842279 56.6991914 33.9876471 49.0193009 29.5440325 56.2791974 25.3406132"></polygon>
                            <polygon points="50.2192838 32.4263771 42.9593874 36.6297964 35.2794969 32.1861818 42.5393933 27.9827625"></polygon>
                            <polygon points="73.4389527 35.3087218 66.1790562 39.512141 58.4991657 35.0685264 65.7590622 30.8651071"></polygon>
                            <polygon points="59.6991486 37.8908222 52.4992513 42.0942414 44.7593617 37.6506268 52.0192582 33.4472075"></polygon>
                            <polygon points="43.4393805 39.0317503 36.179484 43.2351695 28.4995936 38.7915549 35.75949 34.5881356"></polygon>
                            <polygon points="82.9188175 40.7731668 75.658921 44.9765861 67.9790306 40.5329714 75.238927 36.3295522"></polygon>
                            <polygon points="69.1790134 43.3552672 61.9791161 47.6187353 54.2392265 43.1751207 61.499123 38.9116526"></polygon>
                            <polygon points="52.9192453 44.5562441 45.6593489 48.7596634 37.9794584 44.3160488 45.2393548 40.1126295"></polygon>
                            <polygon points="39.1794413 47.1383445 31.9195448 51.3417638 24.2396543 46.8981492 31.4395516 42.6947299"></polygon>
                            <polygon points="78.7188774 48.8797611 71.4589809 53.0831804 63.7790905 48.6395657 70.9789878 44.4361465"></polygon>
                            <polygon points="62.3991101 50.0206892 55.1992128 54.2241084 47.4593232 49.7804938 54.7192197 45.5770745"></polygon>
                            <polygon points="48.6593061 52.6027896 41.3994096 56.8062088 33.7195191 52.3625942 40.9794156 48.1591749"></polygon>
                            <polygon points="106.798477 54.5243527 99.5385805 58.7878208 86.9987593 51.5219103 94.1986566 47.3184911"></polygon>
                            <polygon points="71.8789749 55.4851342 64.6790776 59.6885535 56.9991871 55.2449388 64.1990845 51.0415196"></polygon>
                            <polygon points="58.1391709 58.0672346 50.8792744 62.3307027 43.1993839 57.8870881 50.4592804 53.62362"></polygon>
                            <polygon points="97.678607 59.8687 90.4187105 64.0721193 82.7388201 59.6285046 89.9987165 55.3650365"></polygon>
                            <polygon points="117.898319 60.9495793 110.638422 65.1529985 103.79852 61.2498235 111.058416 57.0464042"></polygon>
                            <polygon points="140.158001 67.0145128 136.078059 69.3564178 129.298156 65.4532427 133.318099 63.1113377"></polygon>
                            <polygon points="88.5587371 65.1529985 81.3588397 69.3564178 66.4790519 60.7694327 73.6789493 56.5660135"></polygon>
                            <polygon points="126.058202 65.6934381 118.798306 69.8968574 112.018403 65.9936824 119.278299 61.7902631"></polygon>
                            <polygon points="108.778449 66.2338777 101.518552 70.4973459 94.7386489 66.534122 101.998545 62.3307027"></polygon>
                            <polygon points="148.317885 71.7583716 144.297942 74.1002766 137.45804 70.1971016 141.537982 67.7951478"></polygon>
                            <polygon points="134.278085 70.437297 127.018189 74.6407163 120.238285 70.7375412 127.438183 66.4740731"></polygon>
                            <polygon points="79.4988663 70.437297 72.2389698 74.6407163 52.6792487 63.3515331 59.9391452 59.1481139"></polygon>
                            <polygon points="116.998331 70.9777366 109.738435 75.1811559 102.898533 71.2779809 110.158429 67.0745616"></polygon>
                            <polygon points="99.6585788 71.5782251 92.4586815 75.7816444 85.618779 71.8184205 92.8786755 67.6150012"></polygon>
                            <polygon points="142.497968 75.1811559 135.238071 79.3845751 128.398169 75.4814001 135.658065 71.217932"></polygon>
                            <polygon points="125.158215 75.7215955 117.898319 79.9250148 111.118415 76.0218397 118.378312 71.8184205"></polygon>
                            <polygon points="107.878462 76.2620351 100.618565 80.4654544 93.8386618 76.5622794 101.038559 72.3588601"></polygon>
                            <polygon points="116.038345 81.005894 108.838448 85.2093133 101.998545 81.3061382 109.258442 77.102719"></polygon>
                            <polygon points="98.7585916 81.5463336 91.4986951 85.8098017 84.7187918 81.8465779 91.9786883 77.6431586"></polygon>
                            <polygon points="133.378098 80.4654544 126.118201 84.6688736 116.998331 89.9531721 110.218428 86.0499971 119.338298 80.7656986 126.538195 76.5022305"></polygon>
                            <polygon points="106.978474 86.2901925 99.7185779 90.5536606 92.9386746 86.5904367 100.138572 82.3870175"></polygon>
                            <polygon points="89.6987208 86.890681 82.4388243 91.0941002 67.4390383 82.3870175 74.6989347 78.1835982"></polygon>
                            <polygon points="97.8586044 91.574491 90.598708 95.8379591 83.8188047 91.8747352 91.0787011 87.671316"></polygon>
                            <polygon points="115.198357 91.0340514 99.1185865 100.401671 92.3386832 96.4384476 108.358455 87.1308764"></polygon>
                        </g>
                        <polygon points="76.1989133 15.4325536 72.1789707 17.7744586 64.4990802 13.3308439 68.5190229 10.9889389"></polygon>
                        <polygon points="85.7387773 20.8969986 81.6588355 23.2989525 73.978945 18.8553378 77.9988877 16.453384"></polygon>
                        <g transform="translate(0.000000, 19.335729)">
                            <polygon points="17.459751 11.1690855 10.2598537 15.3725047 0 9.48771776 7.25989647 5.2842985"></polygon>
                            <polygon points="36.0594858 11.349232 28.7995893 15.5526513 9.11986994 4.20341926 16.3797664 0"></polygon>
                            <polygon points="26.999615 16.6335305 19.7397185 20.8969986 11.9998289 16.3933351 19.2597253 12.1899159"></polygon>
                            <polygon points="45.5393506 16.813677 38.2794541 21.0771451 30.5995636 16.6335305 37.8594601 12.3700624"></polygon>
                            <polygon points="36.4794798 22.1580244 29.2195833 26.3614436 21.5396928 21.917829 28.7395901 17.7144097"></polygon>
                        </g>
                        <polygon points="49.859289 28.1028602 42.5993925 32.3062794 34.919502 27.8626648 42.1193993 23.6592455"></polygon>
                        <polygon points="56.6391923 21.4974871 49.3792958 25.7009063 41.6994053 21.2572917 48.9593018 17.0538724"></polygon>
                        <polygon points="66.1190571 26.9619321 58.8591606 31.1653514 51.1792701 26.7217367 58.4391666 22.5183175"></polygon>
                        <polygon points="85.0787867 37.950871 77.8188902 42.1542903 70.1389998 37.7106756 77.3988962 33.4472075"></polygon>
                        <g transform="translate(60.659135, 19.876168)">
                            <polygon points="19.1997262 4.44361465 11.9398297 8.70708275 4.25993925 4.20341926 11.4598366 0"></polygon>
                            <polygon points="28.679591 9.96810853 21.4196945 14.1715278 13.7398041 9.72791314 20.9997005 5.52449388"></polygon>
                            <polygon points="14.9397869 12.5502089 7.67989048 16.7536282 0 12.3100135 7.25989647 8.10659428"></polygon>
                        </g>
                        <polygon points="70.3789963 18.8553378 63.1190999 23.0587571 55.3792102 18.6151424 62.6391067 14.4117232"></polygon>
                        <polygon points="66.7190485 9.96810853 62.6991059 12.3100135 54.9592162 7.8663989 59.039158 5.52449388"></polygon>
                        <polygon points="60.8391324 13.3908928 53.5792359 17.594312 45.8993454 13.1506974 53.1592419 8.94727814"></polygon>
                        <polygon points="57.2391837 4.44361465 53.1592419 6.84556851 45.4793514 2.40195386 49.5592932 0"></polygon>
                        <polygon points="51.3592676 7.8663989 44.0993711 12.0698182 36.4194806 7.62620351 43.6793771 3.42278425"></polygon>
                        <polygon points="161.037703 81.786529 153.777807 85.9899483 146.097917 81.5463336 153.357813 77.3429144"></polygon>
                        <polygon points="165.237644 73.6799347 158.037746 77.883354 150.297857 73.4397393 157.557753 69.2363201"></polygon>
                        <polygon points="95.2186421 26.4214925 91.1387003 28.7633975 83.4588098 24.3197829 87.5387516 21.9778778"></polygon>
                        <polygon points="152.15783 59.3282604 148.077888 61.6701654 140.397998 57.2265508 144.47794 54.8846458"></polygon>
                        <g transform="translate(159.357727, 65.813536)">
                            <polygon points="11.7598323 4.44361465 7.73988962 6.84556851 0 2.40195386 4.07994182 0"></polygon>
                            <polygon points="26.1596269 12.7904043 22.0796851 15.1323093 9.53986395 7.8663989 13.5598066 5.52449388"></polygon>
                        </g>
                        <polygon points="161.637695 64.7927054 157.557753 67.1346104 149.877863 62.6909958 153.957804 60.3490908"></polygon>
                        <polygon points="40.319425 22.6384152 33.1195277 26.8418344 18.2397399 18.2548494 25.4996364 14.0514301"></polygon>
                        <polygon points="47.1593275 15.9729932 39.899431 20.1764124 27.2996107 12.9705509 34.5595071 8.70708275"></polygon>
                        <polygon points="102.478539 69.0561735 95.2786412 73.3196416 87.5387516 68.876027 94.7986481 64.6125589"></polygon>
                        <polygon points="106.798477 61.0096281 99.5385805 65.2130474 91.85869 60.7694327 99.1185865 56.5660135"></polygon>
                        <polygon points="55.0192154 41.6738995 47.8193181 45.8773188 40.0794284 41.4337041 47.3393249 37.2302849"></polygon>
                        <polygon points="68.8190186 39.0917991 61.5591221 43.2952184 53.8792316 38.8516037 61.1391281 34.6481845"></polygon>
                        <polygon points="59.3391538 33.5673052 52.0792573 37.7707245 44.3993668 33.3271098 51.5992641 29.1236906"></polygon>
                        <polygon points="64.5590793 47.1383445 57.2991829 51.3417638 49.6192924 46.8981492 56.8191897 42.6947299"></polygon>
                        <polygon points="114.778363 86.7705833 107.578466 90.9740025 97.4386104 85.0892156 104.698507 80.8857963"></polygon>
                        <polygon points="120.358284 94.8171287 117.298327 96.5585453 109.258442 91.9347841 112.318398 90.1333187"></polygon>
                    </g>
                </g>
                <g transform="translate(314.317682, 259.217770)" fill-rule="nonzero">
                    <path d="M25.2774747,17.234019 L9.31770227,21.0170963 C8.9577074,23.7192944 2.89779382,80.5855521 38.8372813,108.928608 C46.5171718,111.750903 56.7770255,114.212906 61.0369647,111.690855 L77.1167354,93.3159075 C72.796797,95.7779103 24.9174798,19.9362171 25.2774747,17.234019 Z" id="路径" fill="#A6C2FF"></path>
                    <path d="M40.2172616,12.4901601 L47.0571641,8.52693621 C43.0972205,10.8087924 32.4173728,14.7720163 15.017621,4.68381003 C12.7376535,3.42278425 10.3376877,1.86151424 7.8777228,0 L1.03782035,4.02327272 C3.49778526,5.82473812 5.89775104,7.38600813 8.17771852,8.70708275 C25.5774704,18.7352401 36.2573181,14.8320651 40.2172616,12.4901601 Z" id="路径" fill="#3887E5"></path>
                    <path d="M45.9171803,24.1996852 C45.4971863,24.5599782 37.5173001,31.3454979 21.9775217,22.3381709 C20.3575448,21.4374382 18.6775688,20.356559 16.9375936,19.0354844 C16.5775987,21.7376825 9.73769628,72.8992997 45.6771837,101.242355 C81.6766704,114.453102 75.1967628,55.6052319 74.8367679,52.4826919 C73.0967927,51.7621057 71.4168167,50.9214219 69.7968398,50.0206892 C54.2570614,41.0133622 46.3371743,25.040369 45.9171803,24.1996852 Z" id="路径" fill="#1E72C6"></path>
                    <path d="M66.556886,119.7374 L73.3967884,115.774176 C95.7164701,102.803625 89.9565523,50.6211776 89.5365583,47.1983934 L82.6966558,51.1616173 C83.0566507,54.6444504 88.8765677,106.766849 66.556886,119.7374 Z" id="路径" fill="#3887E5"></path>
                    <path d="M8.17771852,8.70708275 C30.0774062,21.3773894 41.3572454,11.8296228 41.8972377,11.349232 C42.4972291,12.4901601 53.6570699,35.0084775 75.6167568,47.6787842 C77.8367251,48.9398099 80.2366909,50.1407869 82.6966558,51.1616173 C83.176649,55.5451831 92.4165172,138.592738 41.5972419,119.917547 C-9.10203505,79.9850636 0.55782719,7.80635005 1.03782035,4.02327272 C3.49778526,5.82473812 5.89775104,7.38600813 8.17771852,8.70708275 Z M41.6572411,105.265628 C77.6567277,118.536423 71.116821,59.6285046 70.8168252,56.5660135 C69.0168509,55.7853784 67.3368749,54.9446946 65.7768971,54.0439619 C50.1771196,45.0366349 42.3172317,29.1236906 41.8972377,28.2830067 C41.4772436,28.6432998 33.4973574,35.3687706 17.8975799,26.4214925 C16.3376022,25.4607109 14.6576261,24.3798317 12.9176509,23.0587571 C12.5576561,25.7609552 5.7177536,76.9225724 41.6572411,105.265628 L41.6572411,105.265628 Z" id="形状" fill="#6B9EF9"></path>
                    <path d="M41.8972377,11.349232 C42.4972291,12.4901601 53.6570699,35.0084775 75.5567576,47.6787842 C77.8367251,48.9398099 80.2366909,50.1407869 82.6966558,51.1616173 L89.5365583,47.1983934 C87.0765934,46.177563 84.6766276,44.9765861 82.3966601,43.6555114 C60.4969724,30.9852048 49.3371316,8.52693621 48.7371401,7.32595928 L41.8972377,11.349232 Z" id="路径" fill="#A6C2FF"></path>
                </g>
                <g transform="translate(138.238029, 0.000000)" fill-rule="nonzero" id="路径">
                    <path d="M116.998331,63.5786279 L7.85988791,0.467290131 C6.8999016,-0.0731494884 5.99991444,-0.133198335 5.33992385,0.227094744 L1.19998289,2.62904861 C1.85997348,2.26875553 3.65994781,6.89251671 3.65994781,6.89251671 C3.65994781,6.89251671 115.798349,155.393314 115.138358,155.753607 L119.278299,153.351653 C119.93829,152.99136 120.298284,152.210725 120.298284,151.129846 L120.478282,69.5835125 C120.478282,67.421754 118.918304,64.6595071 116.998331,63.5786279 Z" fill="#A6C2FF"></path>
                    <path d="M0.179997433,12.7172548 L0,86.3971896 C0,88.6189969 1.55997775,91.321195 3.47995037,92.4621231 L112.678393,155.513412 C114.598366,156.65434 116.158343,155.753607 116.158343,153.471751 L116.338341,79.8518653 L0.179997433,12.7172548 Z" fill="#6B9EF9"></path>
                    <polygon fill="#FFFFFF" points="111.118415 82.7942588 110.998417 148.547746 5.15992641 87.4180199 5.33992385 21.664533"></polygon>
                    <path d="M54.1192282,62.9781394 C63.8990887,68.622731 71.7589766,82.2538191 71.6993187,93.4229046 C71.6993187,104.652039 63.7790905,109.155702 53.9992299,103.511111 C44.2793685,97.9265681 36.4194806,84.2954799 36.4194806,73.0663456 C36.4794798,61.8972602 44.3993668,57.3335478 54.1192282,62.9781394 Z" fill="#4C4A8B"></path>
                    <polygon fill="#DEE7F8" points="48.3593104 69.8237079 48.2993112 93.1827092 65.3390682 90.3604134"></polygon>
                    <path d="M112.858391,65.9805817 L3.71994695,2.86924399 C1.73997519,1.72831591 0.179997433,2.68909745 0.179997433,4.91090478 L0.179997433,12.7172548 L116.338341,79.8518653 L116.338341,72.0455152 C116.338341,69.8237079 114.778363,67.061461 112.858391,65.9805817 Z" fill="#1E72C6"></path>
                    <path d="M110.75842,73.5467364 C109.618437,72.8861991 108.65845,71.2648802 108.65845,69.8837567 C108.65845,68.5626821 109.618437,68.0222425 110.75842,68.6827798 C111.958403,69.403366 112.858391,71.0246848 112.858391,72.3457595 C112.858391,73.6668341 111.958403,74.2072737 110.75842,73.5467364 Z" fill="#DEE7F8"></path>
                    <path d="M103.978517,69.6435614 C102.838533,68.983024 101.878547,67.3016563 101.878547,65.9805817 C101.878547,64.6595071 102.838533,64.1190675 103.978517,64.7796048 C105.1785,65.4401421 106.078487,67.061461 106.078487,68.4425844 C106.078487,69.7636591 105.118501,70.3040987 103.978517,69.6435614 Z" fill="#DEE7F8"></path>
                    <path d="M97.1986139,65.7403863 C95.998631,65.0198002 95.0986438,63.3984813 95.0986438,62.0774067 C95.0986438,60.6962832 96.0586301,60.1558436 97.1986139,60.8764298 C98.3385976,61.5369671 99.2985839,63.1582859 99.2985839,64.4793606 C99.2985839,65.860484 98.3385976,66.4009236 97.1986139,65.7403863 Z" fill="#DEE7F8"></path>
                </g>
                <g transform="translate(270.176147, 95.321001)" fill-rule="nonzero" id="路径">
                    <path d="M58.4391666,68.2990049 L58.4391666,76.6457946 L64.5590793,80.1886766 C67.6790348,82.0501908 72.0589724,81.7499466 76.8589039,78.9876996 L58.4391666,68.2990049 Z" fill="#6B9EF9"></path>
                    <g>
                        <path d="M118.618308,71.8418869 C118.618308,76.2855015 117.058331,79.4080415 114.478367,80.9092627 L99.5385805,89.6163455 C102.058545,88.1151243 103.618522,84.9925843 103.618522,80.5489696 C103.678521,71.6016915 97.3786113,60.7328503 89.5787225,56.2291868 C88.3187405,55.5086006 87.1187576,54.968161 85.9187747,54.6679168 C86.0987722,53.5870375 86.2187704,52.4461094 86.2187704,51.2451325 C86.2187704,36.7733605 76.078915,19.1189996 63.4790947,11.8530892 C59.9391452,9.81142839 56.6391923,8.790598 53.6992342,8.73054915 C54.5392222,9.6913307 55.259212,10.7121611 55.9192025,11.8530892 L40.9194165,20.5601719 C38.8194464,17.0773388 35.9394875,14.0748965 32.819532,12.3334799 C32.5795354,12.1533334 32.3395388,12.0332357 32.0995422,11.913138 L20.8197031,18.4584623 C18.8397313,16.0565084 16.5597638,14.0748965 14.1597981,12.6337242 C10.2598537,10.4119169 6.71990417,10.1717215 4.13994096,11.6729426 L19.0797279,2.96585988 C21.6596911,1.46463872 25.1996406,1.64478526 29.1595842,3.92664143 C30.4195662,4.64722759 31.6195491,5.54796029 32.7595328,6.56879068 L39.2994396,2.7256645 C41.5194079,1.52468757 44.5193651,1.64478526 47.8193181,3.6263972 C49.4992941,4.52712989 50.9992727,5.78815567 52.379253,7.28937684 L62.2191127,1.52468757 C66.3590537,-0.877266296 72.1189715,-0.516973216 78.4788808,3.14600642 C91.018702,10.4119169 101.218557,28.0662777 101.158557,42.5380498 C101.158557,43.7390267 101.098558,44.8799548 100.918561,45.960834 C102.118544,46.2610782 103.318527,46.8015179 104.578509,47.522104 C112.378397,52.0257675 118.618308,62.8946087 118.618308,71.8418869 Z" fill="#9EB5DF"></path>
                        <path d="M63.4790947,11.8530892 C76.0189159,19.1189996 86.2187704,36.7733605 86.2187704,51.2451325 C86.1587713,52.4461094 86.0987722,53.5870375 85.9787739,54.6679168 C87.1187576,54.968161 88.3187405,55.5086006 89.5787225,56.2291868 C97.3786113,60.7328503 103.678521,71.6016915 103.618947,80.5489696 C103.618947,89.4962478 97.258613,93.0991786 89.5187234,88.6555639 L14.0397998,45.0601013 C6.29991016,40.5564378 0,29.6275478 0,20.6802696 C0.0599991444,11.7329915 6.3599093,8.13006069 14.1597981,12.6337242 C16.5597638,14.0748965 18.8397313,16.0565084 20.8197031,18.4584623 C21.179698,11.3726984 26.4596227,8.61045146 32.8795311,12.3334799 C35.9394875,14.1349453 38.8194464,17.0773388 40.9194165,20.5601719 C42.8393891,9.33103762 52.1992556,5.36781375 63.4790947,11.8530892 Z" fill="#DEE7F8"></path>
                    </g>
                    <path d="M51.6592633,27.3456916 L64.859075,55.4485518 L59.5191512,52.3860606 L59.5191512,71.421545 C59.4591521,75.0244757 61.4391238,78.3872112 64.5590793,80.1886766 L64.5590793,80.1886766 L48.6593061,71.001203 L48.6593061,71.001203 C45.5393506,69.1997376 43.5593788,65.8370022 43.6193779,62.2340714 L43.6193779,43.1985871 L38.3394532,40.0760471 L51.6592633,27.3456916 Z" fill="#3887E5"></path>
                </g>
                <g transform="translate(79.618865, 41.000262)">
                    <g transform="translate(0.000000, 81.486285)">
                        <g transform="translate(24.839646, 0.000000)" fill-rule="nonzero" id="路径">
                            <polygon fill="#1E72C6" points="60.2391409 2.5821004 58.9791589 7.14581274 37.7394618 10.5085481 32.0995422 31.6457421 27.3596098 34.5280868 33.4795226 11.5894274 38.0994567 8.10659428 39.479437 5.94483581"></polygon>
                            <polygon fill="#A6C2FF" points="28.5595927 32.7266214 32.4595371 30.4447652 70.258998 52.1824477 69.2990117 55.2449388 68.4590237 55.7253296"></polygon>
                            <g>
                                <g transform="translate(0.000000, 36.869992)" fill="#1E72C6">
                                    <polygon points="0 99.7411341 4.13994096 99.0805968 9.83985967 77.883354 5.63991957 78.6039401"></polygon>
                                    <polygon points="6.47990759 75.541449 11.21984 72.6591043 16.7997604 51.9422523 12.5998203 52.6027896"></polygon>
                                    <polygon points="13.4398083 49.6003473 18.1797407 46.7180026 23.7596612 26.0011506 19.5597211 26.6616879"></polygon>
                                    <polygon points="20.3997091 23.6592455 25.1396415 20.7769009 30.7195619 0 26.5196218 0.720586159"></polygon>
                                </g>
                                <polygon fill="#A6C2FF" points="7.67989048 110.609975 11.5798349 108.328119 49.3792958 130.065802 48.4193095 133.128293 47.5793215 133.608684"></polygon>
                                <polygon fill="#A6C2FF" points="14.6397912 84.6088248 18.5397356 82.3870175 56.3391966 104.1247 55.3792102 107.187191 54.5392222 107.667582"></polygon>
                                <polygon fill="#A6C2FF" points="21.599692 58.6677231 25.4996364 56.4459158 63.2990973 78.1835982 62.339111 81.1860405 61.499123 81.7264802"></polygon>
                                <polygon fill="#A6C2FF" points="104.638508 28.2229579 79.6788637 32.2462306 30.7795611 4.02327272 55.7392051 0 60.2391409 2.5821004 40.9194165 5.70464042 80.8188474 28.7633975 100.138572 25.6408575"></polygon>
                            </g>
                        </g>
                        <g transform="translate(0.000000, 4.023273)">
                            <polygon id="路径" fill="#1E72C6" fill-rule="nonzero" points="28.1395987 120.337888 24.9596441 132.167511 29.099585 131.506974 32.0995422 120.337888"></polygon>
                            <polygon id="路径" fill="#A6C2FF" fill-rule="nonzero" points="25.5596355 132.527804 29.4595799 130.305997 68.3990246 152.704217 66.3590537 155.046122 65.4590665 155.586561"></polygon>
                            <g>
                                <g transform="translate(4.079942, 136.731224)" fill="#1E72C6" fill-rule="nonzero" id="路径">
                                    <polygon points="0 73.3196416 4.79993155 70.437297 9.71986139 51.9422523 5.57992043 52.6027896"></polygon>
                                    <polygon points="6.3599093 49.6003473 11.1598409 46.7180026 16.6797621 25.9411017 12.5398212 26.601639"></polygon>
                                    <polygon points="13.31981 23.5991967 18.0597425 20.7168521 23.6396629 0 19.4397228 0.660537312"></polygon>
                                </g>
                                <polygon id="路径" fill="#A6C2FF" fill-rule="nonzero" points="11.6998331 184.470057 15.5397784 182.1882 53.3992385 203.985932 52.4392522 206.988374 51.539265 207.528814"></polygon>
                                <polygon id="路径" fill="#A6C2FF" fill-rule="nonzero" points="18.6597339 158.468906 22.4996791 156.247099 60.2991401 177.984781 59.3991529 181.047272 58.4991657 181.527663"></polygon>
                                <polygon id="路径" fill="#1E72C6" fill-rule="nonzero" points="129.478154 24.1996852 128.218171 28.7633975 107.458468 32.1261329 52.8592462 235.151283 48.6593061 235.81182 104.518509 28.2229579"></polygon>
                                <g>
                                    <polygon id="路径" points="31.9195448 106.22641 72.4189672 129.585411 77.9988877 108.868559 37.4394661 85.4495086"></polygon>
                                    <polygon id="路径" points="24.9596441 132.167511 65.4590665 155.586561 71.0389869 134.809661 30.4795653 111.450659"></polygon>
                                    <polygon id="路径" points="17.9997433 158.108613 58.4991657 181.527663 64.0790862 160.810811 23.5196646 137.391761"></polygon>
                                    <polygon id="路径" points="11.0398426 184.109764 51.539265 207.528814 57.1191854 186.751913 16.619763 163.332863"></polygon>
                                    <polygon id="路径" points="45.8393463 54.2841573 86.3387687 77.7032074 91.85869 56.9263065 51.3592676 33.5673052"></polygon>
                                    <polygon id="路径" points="38.8794455 80.225259 79.378868 103.644309 84.8987893 82.9274571 44.3993668 59.5084069"></polygon>
                                    <polygon id="路径" points="58.3191683 7.56615467 52.799247 28.2830067 93.2986695 51.7020569 98.8185908 30.9852048"></polygon>
                                    <path d="M55.6192068,0 L0,207.70896 L4.07994182,210.050865 L9.65986224,189.334013 L50.1592847,212.693014 L44.5793643,233.469915 L48.6593061,235.81182 L104.518509,28.2229579 L55.6192068,0 Z M51.539265,207.528814 L11.0398426,184.109764 L16.619763,163.332863 L57.1191854,186.751913 L51.539265,207.528814 Z M58.4991657,181.527663 L17.9997433,158.108613 L23.5196646,137.391761 L64.0790862,160.810811 L58.4991657,181.527663 Z M65.4590665,155.586561 L24.9596441,132.167511 L30.4795653,111.450659 L71.0389869,134.809661 L65.4590665,155.586561 Z M72.4189672,129.585411 L31.9195448,106.22641 L37.4394661,85.4495086 L77.9988877,108.868559 L72.4189672,129.585411 Z M79.378868,103.644309 L38.8794455,80.225259 L44.3993668,59.5084069 L84.8987893,82.9274571 L79.378868,103.644309 Z M86.3387687,77.7032074 L45.8393463,54.2841573 L51.3592676,33.5673052 L91.85869,56.9263065 L86.3387687,77.7032074 Z M52.799247,28.2830067 L58.3191683,7.56615467 L98.8185908,30.9852048 L93.2986695,51.7020569 L52.799247,28.2830067 Z" id="形状" fill="#6B9EF9" fill-rule="nonzero"></path>
                                </g>
                            </g>
                        </g>
                    </g>
                    <g transform="translate(23.528084, 0.000000)" fill-rule="nonzero" id="路径">
                        <g transform="translate(0.000000, 111.330562)" fill="#3A3A77">
                            <path d="M25.131222,83.2277013 C21.1112794,87.4311206 11.4514171,88.8122441 11.4514171,88.8122441 L11.391418,89.2926348 C11.391418,89.8931233 10.9114248,90.6137095 10.4314317,90.793856 L5.15150698,91.8146864 C4.61151468,92.0548818 4.3715181,91.6345398 4.31151896,91.0340514 C4.13152152,88.3318533 4.07152238,85.0291667 4.31151896,84.0683852 C4.67151382,82.8674082 6.89148216,86.5904367 12.1114077,80.5855521 C16.1913495,81.4862848 21.5912725,79.5647217 23.9312392,78.5438913 C26.5112024,77.4630121 29.1511647,78.9642332 25.131222,83.2277013 Z"></path>
                            <path d="M16.6713427,44.4961953 C15.7713555,47.3184911 15.2913624,50.2008357 14.9913667,53.1432292 C14.1513786,61.4900189 12.5914009,77.7632563 12.7713983,81.6063825 C11.0914223,84.5487759 8.09146505,85.2093133 4.3715181,84.7889713 C4.3715181,84.7889713 0.771569438,65.9936824 2.87153949,52.422643 C3.59152922,47.9790284 4.01152323,43.5954626 3.8315258,39.2118968 C3.59152922,33.9275983 2.93153863,27.1420786 1.19156345,21.4374382 C-2.22838778,10.2083039 2.69154206,2.04166078 3.77152666,0 L22.4912597,4.44361465 C22.4912597,4.44361465 23.5112451,21.7977313 16.6713427,44.4961953 Z"></path>
                        </g>
                        <g transform="translate(10.658220, 108.719459)">
                            <path d="M45.0125669,68.0643453 C40.0926371,70.9466899 30.8527689,69.0851757 30.8527689,69.0851757 L30.6727714,69.5655665 C30.492774,70.1660549 29.8327834,70.7064946 29.2927911,70.7064946 L24.1928638,70.0459572 C23.6528715,70.0459572 23.5328733,69.5655665 23.6528715,68.965078 C24.3128621,66.2028311 25.2728484,62.9001445 25.8128407,62.0594607 C26.4728313,60.9785814 27.3728185,65.4221961 33.9727244,61.158728 C37.3926756,63.4405841 42.9125969,63.3204864 45.3125627,63.080291 C48.0125242,62.8400957 49.9924959,65.1820007 45.0125669,68.0643453 Z" fill="#3A3A77"></path>
                            <path d="M23.5328733,8.61598722 C19.0329374,-1.35212131 5.41313166,-2.61314709 2.05317958,4.53266565 C-2.98674855,15.0412138 1.75318385,28.4321066 10.8130547,30.0534254 C12.3130333,30.2936208 13.7530127,30.6539139 15.0729939,31.0742558 C25.0328519,34.3168935 27.4328176,32.0350374 26.4128322,42.1832924 C25.2728484,52.8719871 25.6328433,62.6599491 25.6328433,62.6599491 C27.9728099,63.2604376 33.3727329,64.6415611 34.4527175,62.4197537 C34.3327192,59.3572626 35.5327021,45.7862232 36.1326936,39.1808501 C36.312691,36.9590428 36.9126824,34.7372355 37.2126782,32.4553793 C38.2926628,23.7482966 23.5328733,8.61598722 23.5328733,8.61598722 Z" fill="#4C4A8B"></path>
                        </g>
                        <g transform="translate(3.591529, 0.000000)">
                            <g>
                                <g transform="translate(1.079985, 0.000000)">
                                    <path d="M41.8194036,7.56615467 C41.0394147,7.50610582 40.0794284,8.46688736 40.0194293,8.70708275 C39.8394319,9.00732698 39.1194421,10.0281574 39.1194421,10.0882062 C39.1194421,10.0882062 38.9994438,10.2083039 38.8794455,10.2083039 C38.7594473,10.2083039 38.639449,9.84801083 38.9394447,8.28674082 C39.5394361,5.58454273 38.8794455,3.12254002 38.8794455,2.16175848 C38.8794455,1.6813677 38.7594473,1.50122116 38.5194507,1.44117232 C38.5194507,1.44117232 38.5194507,1.44117232 38.5194507,1.44117232 C38.219455,1.44117232 37.9794584,1.6813677 37.9794584,1.98161194 C37.9794584,3.18258887 37.8594601,6.66542197 37.6794627,7.14581274 C37.6194635,7.38600813 37.5594644,7.44605697 37.4994652,7.44605697 C37.3794669,7.44605697 37.3194678,7.38600813 37.3194678,7.38600813 C37.3794669,7.08576389 37.7994609,1.44117232 37.4994652,0.360293079 C37.4394661,0.18014654 37.3194678,0.0600488466 37.1394704,0 C37.1394704,0 37.1394704,0 37.0794712,0 C36.8394746,0 36.5994781,0.240195386 36.5394789,0.540439619 C36.4194806,1.98161194 36.0594858,6.66542197 35.9394875,7.08576389 C35.8194892,7.38600813 35.75949,7.44605697 35.75949,7.38600813 C35.6994909,7.38600813 35.6394917,7.32595928 35.6394917,7.32595928 C35.6994909,7.08576389 35.9394875,2.64214925 35.9994866,1.92156309 C36.0594858,1.14092808 36.1194849,0.840683852 35.339496,0.720586159 C34.6195063,0.660537312 34.4395089,7.32595928 34.3795097,7.92644775 C34.2595114,8.28674082 34.1395131,8.40683852 34.079514,8.40683852 C34.0195148,8.40683852 33.9595157,8.34678967 33.9595157,8.34678967 C33.8995166,8.22669198 34.1395131,3.90317503 34.0195148,3.36273541 C34.0195148,3.06249117 33.8395174,2.88234463 33.65952,2.88234463 C33.5395217,2.88234463 33.4195234,2.88234463 33.2995251,3.00244233 C32.9995294,3.30268656 32.7595328,8.88722929 32.819532,9.00732698 C32.819532,9.12742468 32.819532,12.9705509 33.239526,13.8112347 C33.65952,14.7119674 33.65952,17.4742143 33.65952,17.6543609 L37.6794627,18.0747028 C37.7994609,16.1531397 38.0394575,14.7119674 38.9994438,13.691137 C39.9594301,12.6102578 40.319425,11.4693297 40.3794242,11.4092808 C40.3794242,11.2891832 41.2194122,9.30757122 41.6394062,8.88722929 C42.1193993,8.40683852 42.4193951,7.92644775 42.4793942,7.92644775 C42.2993968,7.68625236 42.0594002,7.56615467 41.8194036,7.56615467 Z" fill="#ECB4BF"></path>
                                    <path d="M38.9994438,14.9521628 C38.639449,13.9313324 34.6195063,13.0906485 32.9995294,13.9913812 C32.6395345,18.014654 22.0796851,39.6922876 11.5798349,52.06235 C11.5198357,52.06235 15.4197801,54.7044992 13.0198143,54.0439619 L13.1998118,58.4275277 C16.0197715,59.088065 18.4797365,59.4483581 20.2197116,58.9679673 C29.8195747,56.3858669 38.9994438,14.9521628 38.9994438,14.9521628 Z" fill="#A6C2FF"></path>
                                    <path d="M39.7794327,23.6592455 C39.7794327,23.6592455 20.0997134,26.601639 20.2197116,27.6825183 C20.2797108,28.7633975 16.3797664,41.7339484 14.1597981,49.4202007 L30.2395688,51.0415196 C30.4195662,47.5586865 31.3195534,45.4569768 31.3195534,45.4569768 C41.4594088,47.738833 39.7794327,23.6592455 39.7794327,23.6592455 Z" fill="#ECB4BF"></path>
                                    <path d="M36.9594729,59.6285046 C34.919502,57.4066973 33.239526,54.5844015 31.6195491,51.642008 C30.8395602,50.2008357 30.5995636,48.3993703 30.9595585,46.6579538 C30.9595585,46.6579538 17.8197459,47.4385888 16.8597596,41.1334599 L16.199769,42.9349253 C15.8397741,43.835658 14.9997861,44.4361465 14.0997989,44.4361465 C10.1398554,44.2559999 -0.41999401,45.4569768 0.539992299,62.6909958 C1.73997519,83.8281898 0,108.508266 0,108.508266 C0,108.508266 0.239996577,109.108754 0.659990588,110.069536 C8.81987422,114.03276 17.3397527,122.980038 27.0596141,120.518035 C27.2996107,120.457986 27.5396073,120.457986 27.7196047,120.397937 C28.7995893,119.317058 30.5995636,118.836667 31.4395516,116.374665 C31.4395516,116.374665 37.5594644,84.3085806 40.0794284,78.4237936 C42.2393976,73.2595928 43.7393762,66.9544639 36.9594729,59.6285046 Z" fill="#A6C2FF"></path>
                                </g>
                                <path d="M32.7595328,116.314616 C32.819532,116.07442 32.5795354,116.014372 32.399538,116.134469 C24.5996492,124.96165 5.39992299,110.189633 1.6199769,107.067093 C1.25998203,106.826898 0.779988877,107.067093 0.659990588,107.487435 C0.479993155,108.26807 0.239996577,109.529096 0,111.330562 C0,111.510708 0.0599991444,111.690855 0.179997433,111.810952 C2.87995893,113.912662 23.9396586,129.465313 32.2795397,119.437156 C32.3395388,119.317058 32.399538,119.19696 32.4595371,119.076863 C32.5795354,117.815837 32.6995337,116.915104 32.7595328,116.314616 Z" fill="#2A2A5E"></path>
                            </g>
                            <path d="M42.6593916,23.8994409 C40.8594173,18.1948005 18.1197416,14.3516743 16.8597596,30.9852048 C16.7397613,32.6065237 16.0197715,40.8932645 16.4397656,42.0341926 C18.5397356,47.4986376 29.6395773,46.6579538 29.6395773,46.6579538 C31.1395559,43.1150718 31.3795525,39.6322387 31.3195534,38.9717014 C31.2595542,37.950871 31.2595542,36.8099429 31.8595457,35.8491614 C32.5795354,34.5881356 33.4195234,34.828331 34.1395131,38.2511153 L35.5794926,37.7707245 C36.5394789,35.4288195 36.7194763,32.1261329 36.7194763,32.1261329 C43.8593745,30.4447652 43.3193822,26.0011506 42.6593916,23.8994409 Z" fill="#A0533F"></path>
                        </g>
                    </g>
                    <g transform="translate(55.187304, 51.011495)" fill-rule="nonzero" id="路径">
                        <path d="M52.4511614,5.07412753 C52.2711639,4.89398099 52.0911665,4.89398099 51.9711682,5.13417638 C51.7311716,5.49446946 50.5311887,8.97730256 50.4711896,8.97730256 C50.4111904,9.03735141 50.4111904,9.03735141 50.3511913,8.97730256 C50.231193,8.91725371 50.1711939,8.73710717 50.231193,8.37681409 C50.4111904,7.83637448 52.3911622,2.61212483 51.7311716,2.07168521 C51.071181,1.53124559 50.9511827,1.83148982 50.7711853,2.43197829 C50.5911879,3.03246675 49.391205,6.69544639 49.3312058,6.87559293 C49.3312058,6.87559293 49.3312058,6.93564178 49.2712067,6.87559293 C49.2112076,6.87559293 49.2112076,6.75549524 49.2112076,6.51529985 C49.2112076,6.03490908 50.4111904,2.1917829 50.7711853,0.990805968 C50.8311845,0.690561735 50.7111862,0.330268656 50.5311887,0.150122116 C50.4711896,0.0900732698 50.4711896,0.0900732698 50.4111904,0.0900732698 C50.2911922,-0.0300244233 50.1711939,-0.0300244233 50.0511956,0.0900732698 C49.4512041,0.690561735 48.0112247,5.31432292 47.9512255,5.55451831 C47.9512255,5.55451831 47.8912264,5.55451831 47.7712281,5.49446946 C47.711229,5.43442061 47.711229,5.37437177 47.711229,5.07412753 C47.7712281,4.65378561 48.7912135,1.89153867 49.0912093,0.930757122 C49.2112076,0.690561735 49.0912093,0.330268656 48.8512127,0.0900732698 C48.8512127,0.0900732698 48.8512127,0.0900732698 48.8512127,0.0900732698 C48.6712153,-0.0300244233 48.4912178,-0.0300244233 48.3112204,0.330268656 C48.0112247,1.11090366 46.6912435,2.43197829 46.3312486,4.95402984 C46.0912521,6.455251 45.8512555,6.5753487 45.7312572,6.51529985 C45.671258,6.455251 45.6112589,6.27510446 45.6112589,6.27510446 C45.6112589,6.15500677 45.3712623,4.83393215 45.3112632,4.47363907 C45.3112632,4.23344368 44.83127,2.73222252 44.1712794,2.13173405 C43.991282,1.95158751 43.7512854,1.89153867 43.5112888,1.89153867 C43.5112888,1.95158751 43.6312871,2.55207598 43.8712837,3.27266214 C44.1112803,3.9932483 44.1712794,6.15500677 44.1712794,6.27510446 C44.1712794,6.33515331 44.1112803,7.4760814 44.5312743,9.03735141 C45.0112675,10.5986214 44.7712709,11.919696 44.2312786,13.4809661 L47.711229,16.3633107 C47.7712281,16.243213 48.6712153,14.0814545 49.2712067,13.7812103 C49.9311973,13.4209172 51.1311802,10.5385726 51.1911793,10.4184749 C51.2511785,10.358426 52.8111562,5.91481139 52.6911579,5.49446946 C52.6311588,5.25427407 52.5711596,5.13417638 52.4511614,5.07412753 Z" fill="#ECB4BF"></path>
                        <path d="M49.7511999,14.2015522 C49.7511999,14.2015522 32.351448,40.5629958 22.5715875,38.7014816 C16.991667,37.5605535 7.63180052,26.2113215 1.87188266,20.5066811 C-1.90806343,16.7236038 0.371904054,10.2383283 5.7118279,9.69788872 C5.7118279,9.69788872 5.77182705,9.69788872 5.77182705,9.63783987 C8.23179196,9.39764449 10.6917569,10.4785237 12.1917355,12.4601357 C16.5116739,18.0446784 27.2515207,27.0520054 27.2515207,27.1721031 C27.5515164,23.8093677 42.6713008,14.0814545 44.7712709,10.6586703 C46.6312444,10.5986214 49.8711981,13.120673 49.7511999,14.2015522 Z" fill="#A6C2FF"></path>
                    </g>
                </g>
            </g>
        </g>
    </g>
</svg>