<?xml version="1.0" encoding="UTF-8"?>
<svg width="174px" height="16px" viewBox="0 0 174 16" version="1.1" xmlns="http://www.w3.org/2000/svg" xmlns:xlink="http://www.w3.org/1999/xlink">
    <title>普元logo-标准色</title>
    <g id="页面-1" stroke="none" stroke-width="1" fill="none" fill-rule="evenodd" opacity="0.5">
        <g id="login备份" transform="translate(-21.000000, -19.000000)" fill-rule="nonzero">
            <g id="普元logo-标准色" transform="translate(21.000000, 19.000000)">
                <polygon id="路径" fill="#023D93" points="173.62591 0.801700577 161.017144 0.801700577 160.417641 2.75007592 173.031202 2.75007592"></polygon>
                <path d="M169.098456,7.60886729 L173.448456,7.60886729 L174,5.72851503 L158.50882,5.72851503 L157.942889,7.60886729 L162.384013,7.60886729 C161.5543,10.3443668 159.616703,12.506529 156.470507,14.2119648 L155.914168,14.5132098 L157.271444,16 L157.573594,15.8348011 C161.352867,13.7941087 163.640573,11.1023383 164.561411,7.6040085 L166.868302,7.6040085 L165.261632,13.5803219 C165.151386,14.0195805 165.229794,14.4855891 165.477453,14.8630428 C165.775854,15.212218 166.206281,15.4170073 166.662073,15.4266626 L172.311797,15.4266626 L172.882525,13.4831461 L167.78914,13.4831461 C167.711731,13.5004032 167.631544,13.5004032 167.554135,13.4831461 C167.538503,13.4209744 167.538503,13.3558249 167.554135,13.2936532 L169.098456,7.60886729 Z" id="路径" fill="#023D93"></path>
                <polygon id="路径" fill="#023D93" points="144.120728 3.59550562 141.880981 3.59550562 142.974476 5.2960826 145.228611 5.2960826"></polygon>
                <polygon id="路径" fill="#023D93" points="154.432194 3.61979957 152.302756 5.31551776 154.839857 5.31551776 156.95011 3.61979957"></polygon>
                <path d="M156.724697,3.09505011 L157.266648,1.27786213 L154.101268,1.27786213 C154.451378,0.845429699 155.060474,0.24779836 155.060474,0.238080777 L155.266703,0 L152.389085,0 L151.252426,1.27786213 L148.22613,1.27786213 C147.967144,0.845429699 147.530706,0 147.530706,0 L144.739416,0 C144.739416,0 145.118302,0.709383541 145.430044,1.27786213 L142.240684,1.27786213 L141.717916,3.09505011 L146.302922,3.09505011 L145.478004,5.79653811 L140.744322,5.79653811 L140.207166,7.54570301 L155.880595,7.54570301 L156.417751,5.79653811 L151.554576,5.79653811 L152.513782,3.09505011 L156.724697,3.09505011 Z M147.746527,5.79653811 L148.643385,3.09505011 L150.178115,3.09505011 L149.281257,5.79653811 L147.746527,5.79653811 Z" id="形状" fill="#023D93"></path>
                <path d="M154.964553,8.23079259 L143.372547,8.23079259 C142.247365,8.19806218 141.236423,8.92310395 140.892999,10.0091102 L139.765932,13.8961433 C139.612459,14.3820225 139.286329,15.5675676 139.286329,15.5675676 L150.873539,15.5675676 C151.459847,15.5944669 152.038402,15.4235847 152.518578,15.0816884 C152.907968,14.7792363 153.179673,14.3474207 153.285943,13.8621318 L154.964553,8.23079259 Z M150.254851,12.7203158 L150.76323,11.0051625 L142.878556,11.0051625 L143.070397,10.3443668 C143.137541,10.1062861 143.22387,10.0091102 143.55,10.0091102 L152.091731,10.0091102 C152.125232,10.0122495 152.158947,10.0122495 152.192448,10.0091102 C152.192448,10.0091102 152.192448,10.0674157 152.134895,10.2763438 L151.122933,13.4782873 C151.099567,13.5763894 151.051669,13.6667467 150.983848,13.740662 L150.983848,13.740662 C150.874451,13.7916905 150.752093,13.8069731 150.633738,13.7843911 L142.389361,13.7843911 C142.154355,13.7843911 142.111191,13.7358032 142.111191,13.7358032 C142.111191,13.7358032 142.111191,13.6969329 142.111191,13.5900395 L142.36538,12.7251746 L150.254851,12.7203158 Z" id="形状" fill="#023D93"></path>
                <polygon id="路径" fill="#023D93" points="58.5403528 1.51108412 50.3775083 12.7251746 48.5454245 1.51108412 44.0755237 1.51108412 40.0324697 15.3197692 42.9004961 15.3197692 46.2673098 3.81901002 48.1473539 15.3197692 51.3606946 15.3197692 59.3077178 4.39720619 56.1087652 15.3197692 58.9767916 15.3197692 63.0198456 1.51108412"></polygon>
                <polygon id="路径" fill="#023D93" points="127.598401 1.51594291 124.341896 13.2402065 119.9871 1.51594291 116.179052 1.51594291 112.275083 15.533556 114.845755 15.533556 118.207773 3.88217431 122.725634 15.533556 126.332249 15.533556 130.384895 1.51594291"></polygon>
                <polygon id="路径" fill="#023D93" points="40.5072767 1.51108412 37.6440463 1.51108412 33.6057883 15.3197692 36.4690187 15.3197692"></polygon>
                <path d="M13.5439912,1.51108412 L4.04305402,1.51108412 L3.56345094,3.14363802 L12.42172,3.14363802 C13.6830761,3.22623747 14.7046307,3.70725782 14.1722712,5.61676283 C13.5631753,7.80321895 10.9972988,8.18220468 10.9972988,8.18220468 L2.09586549,8.18220468 L0,15.3149104 L2.84884234,15.3149104 L4.42194046,9.93136957 L10.882194,9.93136957 C10.882194,9.93136957 15.1650496,9.88764045 16.4120176,6.04433647 C17.7549063,1.88035226 13.5343991,1.52566049 13.5343991,1.52566049" id="路径" fill="#023D93"></path>
                <path d="M29.6202867,1.50622533 L19.7836273,1.50622533 L19.3040243,3.17279077 L28.5076075,3.17279077 C29.7689636,3.25053143 30.7281698,3.76070452 30.2197905,5.57303371 C29.6490628,7.59429092 27.0831863,7.51655026 27.0831863,7.51655026 L18.023484,7.51655026 L15.7453693,15.3149104 L18.5606395,15.3149104 L20.3063947,9.35803219 L23.3758545,9.35803219 L27.2702315,15.3149104 L30.0902977,15.3149104 L26.1767365,9.35803219 L26.9393054,9.35803219 C26.9393054,9.35803219 31.4571665,9.61554813 32.473925,5.78682053 C33.5434399,1.75888248 29.5963065,1.51108412 29.5963065,1.51108412" id="路径" fill="#023D93"></path>
                <path d="M95.6712238,1.51108412 L73.4991731,1.51108412 C73.4991731,1.51108412 66.5593164,1.37017917 64.1948732,7.07440024 C61.83043,12.7786213 64.5210033,15.1351351 67.0437155,15.3877923 L74.88043,15.3877923 L75.3600331,13.6920741 L68.9189636,13.6920741 L68.357828,13.6434862 C68.357828,13.6434862 65.6960309,13.1138779 66.5785006,9.39204373 L76.6022051,9.39204373 L77.0818082,7.70118433 L67.11086,7.70118433 C68.2762955,4.71302763 69.9357222,3.81415123 71.8061742,3.39629517 L72.7653804,3.2699666 L86.4676406,3.2699666 L82.9521499,15.3197692 L85.8297685,15.3197692 L89.3452591,3.2699666 L95.1868247,3.2699666 L95.6712238,1.51108412 Z" id="路径" fill="#023D93"></path>
                <path d="M103.810088,0.121469784 C103.699779,0.121469784 103.594267,0.121469784 103.488754,0.121469784 C105.767442,0.262354233 107.579776,2.11169402 107.702402,4.42115649 C107.825029,6.73061896 106.218978,8.76624804 103.968357,9.15396295 L103.968357,15.55785 C108.108445,15.4163919 111.378817,11.9505178 111.331881,7.75413762 C111.284944,3.55775744 107.937889,0.167849605 103.7957,0.121469784" id="路径" fill="#023D93"></path>
                <path d="M102.4672,8.31339204 C104.577453,7.95870027 106.174531,6.27269967 106.174531,4.24172487 C106.174531,2.21075008 104.32806,0.2818099 102.476792,0.35469177 C98.9133407,0.35469177 96.1891951,3.95505618 96.1891951,7.82751291 C96.1918322,11.5646121 98.8360925,14.7632849 102.4672,15.4218038 L102.4672,8.31339204 Z" id="路径" fill="#FFAA00"></path>
            </g>
        </g>
    </g>
</svg>