<?xml version="1.0" standalone="no"?><!DOCTYPE svg PUBLIC "-//W3C//DTD SVG 1.1//EN" "http://www.w3.org/Graphics/SVG/1.1/DTD/svg11.dtd"><svg class="icon" width="200px" height="200.00px" viewBox="0 0 1024 1024" version="1.1" xmlns="http://www.w3.org/2000/svg"><path fill="#ffffff" d="M112 1024l800 0c27.808 0 48-20.192 48-48l0-896c0-27.808-20.192-48-48-48l-128 0c-8.832 0-16 7.168-16 16s7.168 16 16 16l128 0c10.016 0 16 5.984 16 16l0 896c0 10.016-5.984 16-16 16l-800 0c-10.016 0-16-5.984-16-16l0-896c0-10.016 5.984-16 16-16l128 0c8.832 0 16-7.168 16-16s-7.168-16-16-16l-128 0c-27.808 0-48 20.192-48 48l0 896c0 27.808 20.192 48 48 48zM240 160c8.832 0 16-7.168 16-16s-7.168-16-16-16l-64 0c-8.832 0-16 7.168-16 16l0 768c0 8.832 7.168 16 16 16l672 0c8.832 0 16-7.168 16-16l0-768c0-8.832-7.168-16-16-16l-64 0c-8.832 0-16 7.168-16 16s7.168 16 16 16l48 0 0 736-640 0 0-736 48 0zM352 224l320 0c38.88 0 64-25.12 64-64l0-144c0-8.832-7.168-16-16-16l-416 0c-8.832 0-16 7.168-16 16l0 144c0 38.88 25.12 64 64 64zM320 32l384 0 0 128c0 21.248-10.784 32-32 32l-320 0c-21.216 0-32-10.752-32-32l0-128zM336 512l352 0c8.832 0 16-7.168 16-16s-7.168-16-16-16l-352 0c-8.832 0-16 7.168-16 16s7.168 16 16 16zM336 384l352 0c8.832 0 16-7.168 16-16s-7.168-16-16-16l-352 0c-8.832 0-16 7.168-16 16s7.168 16 16 16zM336 640l352 0c8.832 0 16-7.168 16-16s-7.168-16-16-16l-352 0c-8.832 0-16 7.168-16 16s7.168 16 16 16zM336 768l352 0c8.832 0 16-7.168 16-16s-7.168-16-16-16l-352 0c-8.832 0-16 7.168-16 16s7.168 16 16 16z" /></svg>