<?xml version="1.0" standalone="no"?>
<!DOCTYPE svg PUBLIC "-//W3C//DTD SVG 1.1//EN" "http://www.w3.org/Graphics/SVG/1.1/DTD/svg11.dtd" >
<!--
2013-9-30: Created.
-->
<svg>
<metadata>
Created by iconfont
</metadata>
<defs>

<font id="iconfont" horiz-adv-x="1024" >
  <font-face
    font-family="iconfont"
    font-weight="500"
    font-stretch="normal"
    units-per-em="1024"
    ascent="896"
    descent="-128"
  />
    <missing-glyph />
    
    <glyph glyph-name="plus-square" unicode="&#59287;" d="M328 352h152v-152c0-4.4 3.6-8 8-8h48c4.4 0 8 3.6 8 8V352h152c4.4 0 8 3.6 8 8v48c0 4.4-3.6 8-8 8H544V568c0 4.4-3.6 8-8 8h-48c-4.4 0-8-3.6-8-8v-152H328c-4.4 0-8-3.6-8-8v-48c0-4.4 3.6-8 8-8zM880 784H144c-17.7 0-32-14.3-32-32v-736c0-17.7 14.3-32 32-32h736c17.7 0 32 14.3 32 32V752c0 17.7-14.3 32-32 32z m-40-728H184V712h656v-656z"  horiz-adv-x="1024" />

    
    <glyph glyph-name="application-home" unicode="&#58962;" d="M1047.053838 418.594595c17.933838 0 32.657297-13.616432 34.42854-31.052109l0.166054-3.542486v-115.324541a34.594595 34.594595 0 0 0-68.995459-3.51481l-0.19373 3.51481V349.405405H205.242811v-80.729946a34.594595 34.594595 0 0 0-31.052108-34.400864l-3.514811-0.19373a34.594595 34.594595 0 0 0-34.428541 31.079784l-0.166054 3.51481V384c0 17.906162 13.616432 32.657297 31.052108 34.428541l3.542487 0.166054h876.377946zM597.324108 533.919135c17.933838 0 32.657297-13.616432 34.428541-31.079784l0.166054-3.51481v-207.567568a34.594595 34.594595 0 0 0-68.99546-3.542487l-0.193729 3.542487v207.567568c0 19.096216 15.498378 34.594595 34.594594 34.594594zM724.189405 879.865081h-230.649081c-19.096216 0-34.594595-15.498378-34.594594-34.594595v-207.567567c0-19.096216 15.498378-34.594595 34.594594-34.594595h230.649081c19.096216 0 34.594595 15.498378 34.594595 34.594595v207.567567c0 19.096216-15.498378 34.594595-34.594595 34.594595z m-34.62227-69.189189v-138.378378h-161.432216v138.378378h161.432216zM720.923676 186.118919H496.778378c-19.096216 0-34.594595-15.470703-34.594594-34.594595v-218.997621c0-19.096216 15.498378-34.594595 34.594594-34.594595h224.117622c19.096216 0 34.594595 15.498378 34.594595 34.594595V151.52432399999998c0 19.096216-15.498378 34.594595-34.594595 34.594595z m-34.622271-69.161514v-149.836108h-154.900756v149.836108h154.900756zM280.271568 186.118919H56.181622c-19.096216 0-34.594595-15.470703-34.594595-34.594595v-218.997621c0-19.096216 15.498378-34.594595 34.594595-34.594595h224.06227c19.096216 0 34.594595 15.498378 34.594594 34.594595V151.52432399999998c0 19.096216-15.498378 34.594595-34.594594 34.594595z m-34.622271-69.161514v-149.836108H90.776216v149.836108h154.873081zM1161.520432 186.118919h-224.06227c-19.096216 0-34.594595-15.470703-34.594594-34.594595v-218.997621c0-19.096216 15.498378-34.594595 34.594594-34.594595h224.06227c19.096216 0 34.594595 15.498378 34.594595 34.594595V151.52432399999998c0 19.096216-15.498378 34.594595-34.594595 34.594595z m-34.62227-69.161514v-149.836108h-154.873081v149.836108h154.873081z"  horiz-adv-x="1217" />

    
    <glyph glyph-name="zuzhi1" unicode="&#58892;" d="M738 286v61a8 8 0 0 1-8 8H294a8 8 0 0 1-8-8v-61h96c17.673 0 32-14.327 32-32v-286c0-17.673-14.327-32-32-32H96c-17.673 0-32 14.327-32 32V254c0 17.673 14.327 32 32 32h126V387c0 17.673 14.327 32 32 32h226v63H369c-17.673 0-32 14.327-32 32V800c0 17.673 14.327 32 32 32h286c17.673 0 32-14.327 32-32v-286c0-17.673-14.327-32-32-32H544v-63h226c17.673 0 32-14.327 32-32v-101h126c17.673 0 32-14.327 32-32v-286c0-17.673-14.327-32-32-32H642c-17.673 0-32 14.327-32 32V254c0 17.673 14.327 32 32 32h96zM409 768a8 8 0 0 1-8-8v-206a8 8 0 0 1 8-8h206a8 8 0 0 1 8 8V760a8 8 0 0 1-8 8H409zM136 222a8 8 0 0 1-8-8v-206a8 8 0 0 1 8-8h206a8 8 0 0 1 8 8V214a8 8 0 0 1-8 8H136z m546 0a8 8 0 0 1-8-8v-206a8 8 0 0 1 8-8h206a8 8 0 0 1 8 8V214a8 8 0 0 1-8 8H682z"  horiz-adv-x="1024" />

    
    <glyph glyph-name="tongxunlu1" unicode="&#58938;" d="M116.948037 552.1506979999999h115.494431c13.866822 0 25.148773 11.700483 25.148773 26.077935 0 14.381545-11.281951 26.083052-25.148773 26.083052H116.948037c-13.867846 0-25.15082-11.701506-25.15082-26.083052 0-14.377452 11.281951-26.077935 25.15082-26.077935zM116.948037 364.791519h115.494431c13.866822 0 25.148773 11.69946 25.148773 26.078959 0 6.965645-2.615571 13.514805-7.365758 18.439978-4.750187 4.925173-11.066033 7.640004-17.783015 7.640004H116.948037c-13.867846 0-25.15082-11.700483-25.15082-26.079982 0-14.379499 11.281951-26.078958 25.15082-26.078959zM257.591241 204.19998399999997c0 6.969739-2.615571 13.520945-7.366781 18.445095-4.749164 4.926196-11.06501 7.641027-17.781992 7.641027H116.948037c-13.867846 0-25.15082-11.70253-25.15082-26.086122 0-14.377452 11.282974-26.073842 25.15082-26.073842h115.494431c13.866822-0.001023 25.148773 11.695367 25.148773 26.073842zM338.175581 177.73523999999998l-3.39533-8.241709h56.053644l1.681292 3.171226c26.273387 49.514717 88.028892 85.744873 150.142555 88.105641h6.066159c2.289136 0 4.562922 0 6.782474-0.005117 62.145385-2.360767 123.900891-38.587853 150.178371-88.100524l1.681292-3.171226h56.056713l-3.396353 8.241709c-10.207479 24.774243-28.0171 49.005111-51.503001 70.068845-18.481933 16.575514-40.379663 31.149441-63.423495 42.22366 22.687722 14.728446 41.967834 34.592866 55.834656 57.547671 16.476253 27.269064 25.184589 58.594513 25.184589 90.589204 0 97.816816-79.580476 177.394223-177.395246 177.394223-97.820909 0-177.402409-79.579453-177.402409-177.394223 0-32.061207 8.743128-63.443961 25.285896-90.75191 13.928221-22.998807 33.288151-42.878576 56.062854-57.594743-22.958898-11.092639-44.763506-25.65224-63.158459-42.178634-23.408129-21.027919-41.160445-45.200458-51.336202-69.904093z m210.547297 386.233621c69.365834 0 125.799124-56.434314 125.799124-125.803217 0-69.365834-56.432267-125.798101-125.799124-125.798101-69.367881 0-125.803217 56.431244-125.803218 125.798101 0 69.368904 56.435337 125.803217 125.803218 125.803217zM848.424 832.749h-599.407c-52.319 0-94.881-42.561-94.881-94.88v-71.012h50.908v60.41c0 35.955 19.006 54.962 54.966 54.962h578.356c35.955 0 54.96-19.006 54.96-54.962v-672.747c0-35.96-19.003-54.968-54.96-54.968h-578.357c-35.959 0-54.966 19.006-54.966 54.968v60.401h-50.908v-69.968c0-52.32 42.562-94.883 94.881-94.883h599.408c52.319 0 94.883 42.563 94.883 94.883v692.92c0 52.314-42.564 94.877-94.883 94.877z"  horiz-adv-x="1024" />

    
    <glyph glyph-name="wenjianjia" unicode="&#59023;" d="M819.2 18.77333299999998H204.8c-58.026667 0-102.4 44.373333-102.4 102.4v477.866667c0 58.026667 44.373333 102.4 102.4 102.4h211.626667c27.306667 0 54.613333-10.24 71.68-30.72l13.653333-13.653333c13.653333-13.653333 13.653333-34.133333 0-47.786667s-34.133333-13.653333-47.786667 0l-13.653333 13.653333c-6.826667 6.826667-13.653333 10.24-23.893333 10.24H204.8c-20.48 0-34.133333-13.653333-34.133333-34.133333v-477.866667c0-20.48 13.653333-34.133333 34.133333-34.133333h614.4c20.48 0 34.133333 13.653333 34.133333 34.133333v341.333334c0 20.48-13.653333 34.133333-34.133333 34.133333H273.066667c-20.48 0-34.133333 13.653333-34.133334 34.133333s13.653333 34.133333 34.133334 34.133334h546.133333c58.026667 0 102.4-44.373333 102.4-102.4v-341.333334c0-54.613333-44.373333-102.4-102.4-102.4z"  horiz-adv-x="1024" />

    
    <glyph glyph-name="boy" unicode="&#58882;" d="M511.6928 896C229.33504 896 0.43008 667.09504 0.43008 384.7168c0-126.09536 45.64992-241.50016 121.30304-330.62912 1.37216-1.59744 2.74432-3.21536 4.11648-4.79232 29.5936 28.44672 164.7616 152.12544 376.27904 155.7504 223.72352 3.82976 368.0256-129.41312 395.42784-155.7504 78.09024 89.76384 125.41952 207.07328 125.41952 335.42144C1022.976 667.09504 794.07104 896 511.6928 896zM897.55648 49.29536c-80.95744-93.06112-195.03104-156.52864-323.82976-172.09344l-30.18752 176.88576 21.44256 31.6416-14.56128 14.56128-38.85056 38.85056-38.85056-38.85056-14.49984-14.49984 18.67776-31.70304-26.29632-176.98816c-129.18784 15.38048-243.56864 78.90944-324.75136 172.19584 29.5936 28.44672 164.7616 152.12544 376.27904 155.7504 223.744 3.85024 368.0256-129.41312 395.42784-155.7504zM610.73408 286.6176v-170.10688h-60.33408c-11.81696 3.19488-23.63392 6.41024-35.45088 9.60512-14.09024-3.19488-28.16-6.41024-42.25024-9.60512H412.672v170.10688h198.06208zM573.72672-122.79808a508.5184 508.5184 0 0 0-62.01344-3.74784c-20.6848 0-41.0624 1.2288-61.09184 3.62496l26.29632 176.98816h66.62144l30.18752-176.86528zM412.20096 667.136c-35.10272-30.78144-53.12512-76.71808-51.44576-123.37152l6.02112-168.01792c0-50.688 20.6848-99.10272 57.05728-133.57056l28.52864-22.05696c35.77856-27.66848 85.72928-27.58656 121.46688 0.12288 9.25696 7.168 18.49344 14.35648 27.7504 21.52448 34.05824 34.26304 53.248 81.03936 53.248 129.86368l7.18848 168.61184c2.84672 66.99008-35.61472 130.49856-98.24256 154.46016-23.30624 8.92928-48.55808 12.20608-73.66656 8.68352-29.06112-4.096-55.95136-16.9984-77.90592-36.2496zM656.829903 383.833492a61.19424 36.2496 69.697 1 1 42.466937 114.784577 61.19424 36.2496 69.697 1 1-42.466937-114.784577ZM317.337109 428.629942a36.2496 61.19424 20.303 1 1 67.99488 25.156117 36.2496 61.19424 20.303 1 1-67.99488-25.156117ZM673.75104 666.74688c-4.34176 19.82464-14.60224 37.82656-30.96576 49.80736-16.4864 12.06272-38.23616 24.30976-65.35168 32.03072-73.8304 20.992-134.5536-6.79936-150.3232-14.41792-46.46912-22.46656-82.90304-60.33408-104.8576-106.0864-25.21088-52.5312-22.528-114.25792 4.38272-165.94944 6.51264-12.51328 13.02528-25.02656 19.5584-37.53984 3.23584 3.54304 6.94272 8.23296 10.3424 14.11072a82.96448 82.96448 0 0 1 8.47872 20.70528c14.76608 2.1504 30.16704 4.9152 46.10048 8.45824 50.23744 11.18208 93.67552 27.36128 129.86368 44.21632l-20.70528-41.41056c15.54432 5.61152 33.32096 13.18912 52.224 23.53152a369.68448 369.68448 0 0 1 51.28192 33.87392c0.18432-27.52512 7.92576-44.29824 15.0528-54.5792 5.81632-8.3968 11.9808-13.5168 19.29216-26.33728 7.3728-12.94336 10.89536-24.92416 12.6976-32.93184 3.50208 8.47872 9.03168 21.44256 16.34304 37.02784 7.8848 16.77312 11.50976 22.03648 15.872 31.96928 10.01472 22.85568 13.0048 43.58144 13.88544 52.16256 1.04448 10.19904 6.9632 77.43488-25.41568 105.61536-4.01408 3.50208-13.1072 10.30144-16.93696 22.58944a37.6832 37.6832 0 0 0-0.8192 3.15392zM511.6928 139.28448l-38.99392-38.99392-14.47936-14.49984-13.12768-13.1072-26.48064 27.60704-5.91872 6.20544-71.41376 74.50624 58.20416 41.69728 13.2096-9.80992 98.85696-73.5232zM681.82016 181.00224l-71.08608-74.19904-6.2464-6.51264-26.46016-27.60704-27.62752 27.60704-38.85056 38.85056-0.12288 0.14336 0.12288 0.08192 99.18464 73.74848 12.88192 9.58464zM564.96128 85.72928l-21.44256-31.6416h-66.62144l-18.67776 31.70304 14.47936 14.49984 38.85056 38.85056 38.85056-38.85056z"  horiz-adv-x="1024" />

    
    <glyph glyph-name="caret-down" unicode="&#59628;" d="M840.4 596H183.6c-19.7 0-30.7-20.8-18.5-35l328.4-380.8c9.4-10.9 27.5-10.9 37 0L858.9 561c12.2 14.2 1.2 35-18.5 35z"  horiz-adv-x="1024" />

    
    <glyph glyph-name="caret-up" unicode="&#59629;" d="M858.9 207L530.5 587.8c-9.4 10.9-27.5 10.9-37 0L165.1 207c-12.2-14.2-1.2-35 18.5-35h656.8c19.7 0 30.7 20.8 18.5 35z"  horiz-adv-x="1024" />

    
    <glyph glyph-name="jia" unicode="&#58930;" d="M938.67 341.37l-0.01 85.33-384-0.03-0.03 384-85.33-0.01 0.03-384-384-0.03 0.01-85.33 384 0.03 0.03-384 85.33 0.01-0.03 384z"  horiz-adv-x="1024" />

    
    <glyph glyph-name="jian" unicode="&#58932;" d="M85.33 426.67h853.33v-85.33H85.33z"  horiz-adv-x="1024" />

    
    <glyph glyph-name="tongxunlu" unicode="&#59358;" d="M441.390545 357.166545A150.830545 150.830545 0 0 0 395.636364 465.454545c0 83.409455 67.863273 151.272727 151.272727 151.272728s151.272727-67.863273 151.272727-151.272728a150.830545 150.830545 0 0 0-45.754182-108.288C721.221818 319.627636 768 246.621091 768 162.909091a34.909091 34.909091 0 0 0-69.818182 0c0 83.409455-67.863273 151.272727-151.272727 151.272727a151.458909 151.458909 0 0 1-151.272727-151.272727 34.909091 34.909091 0 0 0-69.818182 0c0 83.712 46.778182 156.718545 115.572363 194.257454zM221.090909 337.454545h-139.636364a34.909091 34.909091 0 0 0 0 69.818182h139.636364a34.909091 34.909091 0 0 0 0-69.818182z m0 151.272728h-139.636364a34.909091 34.909091 0 0 0 0 69.818182h139.636364a34.909091 34.909091 0 0 0 0-69.818182z m0-302.545455h-139.636364a34.909091 34.909091 0 0 0 0 69.818182h139.636364a34.909091 34.909091 0 0 0 0-69.818182zM853.410909-104.727273H240.407273A124.183273 124.183273 0 0 0 116.363636 19.316364V104.727273a34.909091 34.909091 0 0 0 69.818182 0v-85.410909A54.272 54.272 0 0 1 240.407273-34.909091h613.003636A54.272 54.272 0 0 1 907.636364 19.316364V725.410909A54.272 54.272 0 0 1 853.410909 779.636364H240.407273A54.272 54.272 0 0 1 186.181818 725.410909V640a34.909091 34.909091 0 0 0-69.818182 0V725.410909A124.183273 124.183273 0 0 0 240.407273 849.454545h613.003636A124.183273 124.183273 0 0 0 977.454545 725.410909v-706.094545A124.183273 124.183273 0 0 0 853.410909-104.727273zM546.909091 546.909091c-44.916364 0-81.454545-36.538182-81.454546-81.454546s36.538182-81.454545 81.454546-81.454545 81.454545 36.538182 81.454545 81.454545-36.538182 81.454545-81.454545 81.454546z"  horiz-adv-x="1024" />

    
    <glyph glyph-name="zuzhi" unicode="&#59154;" d="M738 286v61a8 8 0 0 1-8 8H294a8 8 0 0 1-8-8v-61h96c17.673 0 32-14.327 32-32v-286c0-17.673-14.327-32-32-32H96c-17.673 0-32 14.327-32 32V254c0 17.673 14.327 32 32 32h126V387c0 17.673 14.327 32 32 32h226v63H369c-17.673 0-32 14.327-32 32V800c0 17.673 14.327 32 32 32h286c17.673 0 32-14.327 32-32v-286c0-17.673-14.327-32-32-32H544v-63h226c17.673 0 32-14.327 32-32v-101h126c17.673 0 32-14.327 32-32v-286c0-17.673-14.327-32-32-32H642c-17.673 0-32 14.327-32 32V254c0 17.673 14.327 32 32 32h96zM409 768a8 8 0 0 1-8-8v-206a8 8 0 0 1 8-8h206a8 8 0 0 1 8 8V760a8 8 0 0 1-8 8H409zM136 222a8 8 0 0 1-8-8v-206a8 8 0 0 1 8-8h206a8 8 0 0 1 8 8V214a8 8 0 0 1-8 8H136z m546 0a8 8 0 0 1-8-8v-206a8 8 0 0 1 8-8h206a8 8 0 0 1 8 8V214a8 8 0 0 1-8 8H682z"  horiz-adv-x="1024" />

    
    <glyph glyph-name="right" unicode="&#59371;" d="M765.7 409.2L314.9 761.3c-5.3 4.1-12.9 0.4-12.9-6.3v-77.3c0-4.9 2.3-9.6 6.1-12.6l360-281.1-360-281.1c-3.9-3-6.1-7.7-6.1-12.6V13c0-6.7 7.7-10.4 12.9-6.3l450.8 352.1c16.4 12.8 16.4 37.6 0 50.4z"  horiz-adv-x="1024" />

    
    <glyph glyph-name="left" unicode="&#59372;" d="M724 677.7V755c0 6.7-7.7 10.4-12.9 6.3L260.3 409.2c-16.4-12.8-16.4-37.5 0-50.3l450.8-352.1c5.3-4.1 12.9-0.4 12.9 6.3v77.3c0 4.9-2.3 9.6-6.1 12.6l-360 281 360 281.1c3.8 3 6.1 7.7 6.1 12.6z"  horiz-adv-x="1024" />

    
    <glyph glyph-name="search" unicode="&#59631;" d="M909.6 41.5L649.9 301.2C690.2 353.3 712 417 712 484c0 80.2-31.3 155.4-87.9 212.1-56.6 56.7-132 87.9-212.1 87.9s-155.5-31.3-212.1-87.9C143.2 639.5 112 564.2 112 484c0-80.1 31.3-155.5 87.9-212.1C256.5 215.2 331.8 184 412 184c67 0 130.6 21.8 182.7 62l259.7-259.6c3.2-3.2 8.4-3.2 11.6 0l43.6 43.5c3.2 3.2 3.2 8.4 0 11.6zM570.4 325.6C528 283.3 471.8 260 412 260s-116 23.3-158.4 65.6C211.3 368 188 424.2 188 484s23.3 116.1 65.6 158.4C296 684.7 352.2 708 412 708s116.1-23.2 158.4-65.6S636 543.8 636 484s-23.3-116.1-65.6-158.4z"  horiz-adv-x="1024" />

    
    <glyph glyph-name="close-circle-fill" unicode="&#59462;" d="M512 832C264.6 832 64 631.4 64 384s200.6-448 448-448 448 200.6 448 448S759.4 832 512 832z m165.4-618.2l-66 0.3L512 332.6l-99.3-118.4-66.1-0.3c-4.4 0-8 3.5-8 8 0 1.9 0.7 3.7 1.9 5.2l130.1 155L340.5 537c-1.2 1.5-1.9 3.3-1.9 5.2 0 4.4 3.6 8 8 8l66.1-0.3L512 431.4l99.3 118.4 66 0.3c4.4 0 8-3.5 8-8 0-1.9-0.7-3.7-1.9-5.2L553.5 382l130-155c1.2-1.5 1.9-3.3 1.9-5.2 0-4.4-3.6-8-8-8z"  horiz-adv-x="1024" />

    
    <glyph glyph-name="Down" unicode="&#58880;" d="M482.24256 579.2768c11.25888 11.264 26.54208 21.71904 41.02144 18.50368 14.47936 2.41152 28.15488-8.85248 39.41888-18.50368l348.30336-349.91104c17.69472-17.69984 17.69472-46.65344 0-64.35328-17.69984-17.69472-46.65344-17.69472-64.35328 0l-324.16768 333.02016001-324.98688-333.02016001c-17.69984-17.69472-46.65344-17.69472-64.34816 0-17.69984 17.69984-17.69984 46.65344 0 64.35328L482.24256 579.2768z"  horiz-adv-x="1024" />

    
    <glyph glyph-name="xiala1" unicode="&#58881;" d="M565.19752647 156.62347561c-12.01234468-12.01234468-28.31481246-23.16666475-43.75925564-19.73456629-15.44444316-2.57407386-30.03086171 9.43827083-42.0432064 19.73456626L107.87040379 529.8641854800001c-18.87654164 18.87654164-18.87654164 49.76542799 1e-8 68.6419696s49.76542799 18.87654164 68.64196963-1e-8l345.78392203-355.22219283L868.93824208 598.50615508c18.87654164 18.87654164 49.76542799 18.87654164 68.64196962-1e-8s18.87654164-49.76542799 0-68.64196959L565.19752647 156.62347561z"  horiz-adv-x="1024" />

    
    <glyph glyph-name="xiala" unicode="&#58963;" d="M522.085 425.89L196.267 100.074l51.2-51.2L517.43 318.836l269.964-269.963 51.2 51.2-316.51 325.818z m269.963-83.78l51.2 51.2L517.43 719.126 191.612 393.31l51.2-51.2 269.964 269.964 279.272-269.964z"  horiz-adv-x="1024" />

    
    <glyph glyph-name="shangla" unicode="&#58889;" d="M501.915 342.11L827.733 667.9259999999999l-51.2 51.2L506.57 449.164l-269.964 269.963-51.2-51.2 316.51-325.818z m-269.963 83.78l-51.2-51.2L506.57 48.874000000000024 832.388 374.69000000000005l-51.2 51.2-269.964-269.964-279.272 269.964z"  horiz-adv-x="1024" />

    
    <glyph glyph-name="shuju" unicode="&#58972;" d="M896 896a128 128 0 0 0 128-128v-768a128 128 0 0 0-128-128H128a128 128 0 0 0-128 128V768a128 128 0 0 0 128 128zM298.666667 426.666667a42.666667 42.666667 0 0 1-42.666667-42.666667v-256a42.666667 42.666667 0 0 1 85.333333 0v256a42.666667 42.666667 0 0 1-42.666666 42.666667z m426.666666 0a42.666667 42.666667 0 0 1-42.666666-42.666667v-256a42.666667 42.666667 0 0 1 85.333333 0v256a42.666667 42.666667 0 0 1-42.666667 42.666667z m-213.333333 170.666666a42.666667 42.666667 0 0 1-42.666667-42.666666v-426.666667a42.666667 42.666667 0 0 1 85.333334 0V554.666667a42.666667 42.666667 0 0 1-42.666667 42.666666z"  horiz-adv-x="1024" />

    
    <glyph glyph-name="unorderedlist" unicode="&#59381;" d="M912 704H328c-4.4 0-8-3.6-8-8v-56c0-4.4 3.6-8 8-8h584c4.4 0 8 3.6 8 8v56c0 4.4-3.6 8-8 8zM912 420H328c-4.4 0-8-3.6-8-8v-56c0-4.4 3.6-8 8-8h584c4.4 0 8 3.6 8 8v56c0 4.4-3.6 8-8 8zM912 136H328c-4.4 0-8-3.6-8-8v-56c0-4.4 3.6-8 8-8h584c4.4 0 8 3.6 8 8v56c0 4.4-3.6 8-8 8zM160 668m-56 0a56 56 0 1 1 112 0 56 56 0 1 1-112 0ZM160 384m-56 0a56 56 0 1 1 112 0 56 56 0 1 1-112 0ZM160 100m-56 0a56 56 0 1 1 112 0 56 56 0 1 1-112 0Z"  horiz-adv-x="1024" />

    
    <glyph glyph-name="indent" unicode="&#59379;" d="M408 454h480c4.4 0 8 3.6 8 8v56c0 4.4-3.6 8-8 8H408c-4.4 0-8-3.6-8-8v-56c0-4.4 3.6-8 8-8zM400 250c0-4.4 3.6-8 8-8h480c4.4 0 8 3.6 8 8v56c0 4.4-3.6 8-8 8H408c-4.4 0-8-3.6-8-8v-56zM904 736H120c-4.4 0-8-3.6-8-8v-56c0-4.4 3.6-8 8-8h784c4.4 0 8 3.6 8 8v56c0 4.4-3.6 8-8 8zM904 104H120c-4.4 0-8-3.6-8-8v-56c0-4.4 3.6-8 8-8h784c4.4 0 8 3.6 8 8v56c0 4.4-3.6 8-8 8zM142.4 253.9L298.7 377c4.5 3.5 4.5 10.3 0 13.9L142.4 514.1c-5.8 4.6-14.4 0.5-14.4-6.9v-246.3c0-7.4 8.5-11.6 14.4-7z"  horiz-adv-x="1024" />

    
    <glyph glyph-name="outdent" unicode="&#59380;" d="M408 454h480c4.4 0 8 3.6 8 8v56c0 4.4-3.6 8-8 8H408c-4.4 0-8-3.6-8-8v-56c0-4.4 3.6-8 8-8zM400 250c0-4.4 3.6-8 8-8h480c4.4 0 8 3.6 8 8v56c0 4.4-3.6 8-8 8H408c-4.4 0-8-3.6-8-8v-56zM904 736H120c-4.4 0-8-3.6-8-8v-56c0-4.4 3.6-8 8-8h784c4.4 0 8 3.6 8 8v56c0 4.4-3.6 8-8 8zM904 104H120c-4.4 0-8-3.6-8-8v-56c0-4.4 3.6-8 8-8h784c4.4 0 8 3.6 8 8v56c0 4.4-3.6 8-8 8zM115.4 377.1L271.7 254c5.8-4.6 14.4-0.5 14.4 6.9V507.1c0 7.4-8.5 11.5-14.4 6.9L115.4 390.9c-4.5-3.5-4.5-10.3 0-13.8z"  horiz-adv-x="1024" />

    
    <glyph glyph-name="user2" unicode="&#59310;" d="M858.5 132.39999999999998c-18.9 44.8-46.1 85-80.6 119.5-34.5 34.5-74.7 61.6-119.5 80.6-0.4 0.2-0.8 0.3-1.2 0.5C719.5 378 760 451.3 760 534c0 137-111 248-248 248S264 671 264 534c0-82.7 40.5-156 102.8-201.1-0.4-0.2-0.8-0.3-1.2-0.5-44.8-18.9-85-46-119.5-80.6-34.5-34.5-61.6-74.7-80.6-119.5C146.9 88.5 137 42 136-5.7999999999999545c-0.1-4.5 3.5-8.2 8-8.2h60c4.4 0 7.9 3.5 8 7.8 2 77.2 33 149.5 87.8 204.3 56.7 56.7 132 87.9 212.2 87.9s155.5-31.2 212.2-87.9C779 143.29999999999995 810 71 812-6.2000000000000455c0.1-4.4 3.6-7.8 8-7.8h60c4.5 0 8.1 3.7 8 8.2-1 47.8-10.9 94.3-29.5 138.2zM512 362c-45.9 0-89.1 17.9-121.6 50.4S340 488.1 340 534c0 45.9 17.9 89.1 50.4 121.6S466.1 706 512 706s89.1-17.9 121.6-50.4S684 579.9 684 534c0-45.9-17.9-89.1-50.4-121.6S557.9 362 512 362z"  horiz-adv-x="1024" />

    
    <glyph glyph-name="lock2" unicode="&#59337;" d="M832 432h-68V656c0 70.7-57.3 128-128 128H388c-70.7 0-128-57.3-128-128v-224h-68c-17.7 0-32-14.3-32-32v-384c0-17.7 14.3-32 32-32h640c17.7 0 32 14.3 32 32V400c0 17.7-14.3 32-32 32zM332 656c0 30.9 25.1 56 56 56h248c30.9 0 56-25.1 56-56v-224H332V656z m460-600H232V360h560v-304zM484 195v-53c0-4.4 3.6-8 8-8h40c4.4 0 8 3.6 8 8v53c12.1 8.7 20 22.9 20 39 0 26.5-21.5 48-48 48s-48-21.5-48-48c0-16.1 7.9-30.3 20-39z"  horiz-adv-x="1024" />

    
    <glyph glyph-name="check-circle-fill" unicode="&#59460;" d="M512 832C264.6 832 64 631.4 64 384s200.6-448 448-448 448 200.6 448 448S759.4 832 512 832z m193.5-301.7l-210.6-292c-12.7-17.7-39-17.7-51.7 0L318.5 411.1c-3.8 5.3 0 12.7 6.5 12.7h46.9c10.2 0 19.9-4.9 25.9-13.3l71.2-98.8 157.2 218c6 8.3 15.6 13.3 25.9 13.3H699c6.5 0 10.3-7.4 6.5-12.7z"  horiz-adv-x="1024" />

    
    <glyph glyph-name="minus-circle-fill" unicode="&#59461;" d="M512 832C264.6 832 64 631.4 64 384s200.6-448 448-448 448 200.6 448 448S759.4 832 512 832z m192-472c0-4.4-3.6-8-8-8H328c-4.4 0-8 3.6-8 8v48c0 4.4 3.6 8 8 8h368c4.4 0 8-3.6 8-8v-48z"  horiz-adv-x="1024" />

    
    <glyph glyph-name="check-circle" unicode="&#59261;" d="M699 543h-46.9c-10.2 0-19.9-4.9-25.9-13.3L469 311.70000000000005l-71.2 98.8c-6 8.3-15.6 13.3-25.9 13.3H325c-6.5 0-10.3-7.4-6.5-12.7l124.6-172.8c12.7-17.7 39-17.7 51.7 0l210.6 292c3.9 5.3 0.1 12.7-6.4 12.7zM512 832C264.6 832 64 631.4 64 384s200.6-448 448-448 448 200.6 448 448S759.4 832 512 832z m0-820c-205.4 0-372 166.6-372 372s166.6 372 372 372 372-166.6 372-372-166.6-372-372-372z"  horiz-adv-x="1024" />

    
    <glyph glyph-name="safetycertificate" unicode="&#59328;" d="M866.9 726.1L527.1 841.9C523 843.3 517.5 844 512 844s-11-0.7-15.1-2.1L157.1 726.1c-8.3-2.8-15.1-12.4-15.1-21.2v-482.4c0-8.8 5.7-20.4 12.6-25.9L499.3-72c3.5-2.7 8-4.1 12.6-4.1s9.2 1.4 12.6 4.1l344.7 268.6c6.9 5.4 12.6 17 12.6 25.9V704.9c0.2 8.8-6.6 18.3-14.9 21.2zM810 241.7L512 9.5 214 241.7V669.3l298 101.6 298-101.6v-427.6zM404.2 442.7c-3 4.1-7.8 6.6-13 6.6H336c-6.5 0-10.3-7.4-6.5-12.7l126.4-174c6.4-8.8 19.6-8.8 26 0l212.6 292.7c3.8 5.3 0 12.7-6.5 12.7h-55.2c-5.1 0-10-2.5-13-6.6L468.9 353.6l-64.7 89.1z"  horiz-adv-x="1024" />

    
    <glyph glyph-name="guanbi1" unicode="&#58929;" d="M840.83 115.56L572.34 384.01 840.79 652.5l-60.34 60.33L512 444.34 243.5 712.79l-60.33-60.35 268.49-268.45L183.21 115.5l60.34-60.33L512 323.66l268.5-268.45z"  horiz-adv-x="1024" />

    
    <glyph glyph-name="edit-square" unicode="&#59281;" d="M904 384h-56c-4.4 0-8-3.6-8-8v-320H184V712h320c4.4 0 8 3.6 8 8v56c0 4.4-3.6 8-8 8H144c-17.7 0-32-14.3-32-32v-736c0-17.7 14.3-32 32-32h736c17.7 0 32 14.3 32 32V376c0 4.4-3.6 8-8 8zM355.9 361.1L354 242.20000000000005c-0.1-8.9 7.1-16.2 16-16.2h0.4l118 2.9c2 0.1 4 0.9 5.4 2.3l415.9 415c3.1 3.1 3.1 8.2 0 11.3L785.4 781.7c-1.6 1.6-3.6 2.3-5.7 2.3s-4.1-0.8-5.7-2.3l-415.8-415c-1.4-1.5-2.3-3.5-2.3-5.6z m63.5-23.6L779.7 697l45.2-45.1-360.5-359.7-45.7-1.1 0.7 46.4z"  horiz-adv-x="1024" />

    
    <glyph glyph-name="export" unicode="&#59282;" d="M888.3 138.6h-53.8c-4.2 0-7.7-3.5-7.7-7.7v-61.8H197.1V698.9h629.8v-61.8c0-4.2 3.5-7.7 7.7-7.7h53.8c4.2 0 7.7 3.4 7.7 7.7V737.3c0 17-13.7 30.7-30.7 30.7H158.7c-17 0-30.7-13.7-30.7-30.7v-706.6c0-17 13.7-30.7 30.7-30.7h706.6c17 0 30.7 13.7 30.7 30.7V130.9c0 4.3-3.5 7.7-7.7 7.7zM906.9 390.3L765 502.3c-5.3 4.2-13 0.4-13-6.3v-76H438c-4.4 0-8-3.6-8-8v-56c0-4.4 3.6-8 8-8h314v-76c0-6.7 7.8-10.5 13-6.3l141.9 112c4.1 3.2 4.1 9.4 0 12.6z"  horiz-adv-x="1024" />

    
    <glyph glyph-name="Import" unicode="&#59283;" d="M888.3 138.6h-53.8c-4.2 0-7.7-3.5-7.7-7.7v-61.8H197.1V698.9h629.8v-61.8c0-4.2 3.5-7.7 7.7-7.7h53.8c4.2 0 7.7 3.4 7.7 7.7V737.3c0 17-13.7 30.7-30.7 30.7H158.7c-17 0-30.7-13.7-30.7-30.7v-706.6c0-17 13.7-30.7 30.7-30.7h706.6c17 0 30.7 13.7 30.7 30.7V130.9c0 4.3-3.5 7.7-7.7 7.7zM902 420H588v76c0 6.7-7.8 10.5-13 6.3l-141.9-112c-4.1-3.2-4.1-9.4 0-12.6l141.9-112c5.3-4.2 13-0.4 13 6.3v76h314c4.4 0 8 3.6 8 8v56c0 4.4-3.6 8-8 8z"  horiz-adv-x="1024" />

    
    <glyph glyph-name="biyan" unicode="&#58898;" d="M660.79 215.58c-10.1 0-19.95 5.15-25.52 14.43l-59.38 99.07c-8.44 14.09-3.86 32.33 10.22 40.79 14.08 8.44 32.33 3.85 40.77-10.22l59.38-99.07c8.44-14.09 3.86-32.33-10.22-40.79a29.613 29.613 0 0 0-15.25-4.21zM819.12 314.65c-7.61 0-15.22 2.9-21.02 8.71l-79.18 79.26c-11.6 11.63-11.59 30.44 0.02 42.05 11.61 11.57 30.42 11.59 42.03-0.02l79.18-79.26c11.6-11.63 11.59-30.44-0.02-42.05a29.66 29.66 0 0 0-21.01-8.69zM363.2 215.58c-5.2 0-10.47 1.35-15.25 4.24-14.09 8.44-18.65 26.68-10.22 40.77l59.38 99.07c8.44 14.07 26.69 18.67 40.77 10.2 14.09-8.44 18.65-26.68 10.22-40.77l-59.38-99.07c-5.57-9.29-15.42-14.44-25.52-14.44zM204.88 314.65c-7.6 0-15.2 2.9-21 8.69-11.61 11.61-11.62 30.42-0.02 42.05l79.18 79.26c11.61 11.61 30.42 11.59 42.03 0.02 11.61-11.61 11.62-30.42 0.02-42.05l-79.18-79.26c-5.81-5.81-13.42-8.71-21.03-8.71zM521.59 334.46c-82.82 0-204.66 28.37-314.89 163.53-1.27 1.57-2.25 2.79-2.97 3.62-10.9 10.82-11.83 28.37-1.74 40.29 10.6 12.54 29.35 14.09 41.88 3.5 1.26-1.06 4.41-4.33 8.9-9.83 95.47-117.09 198.88-141.66 268.82-141.66 120.69 0 258.07 124.61 271.62 144.41 9.08 13.22 27.35 17.49 40.9 8.84 13.52-8.63 18.14-25.81 9.97-39.61-14.06-23.72-168.76-173.09-322.49-173.09z"  horiz-adv-x="1024" />

    
    <glyph glyph-name="wendang" unicode="&#58966;" d="M979.478261 189.61808699999995a44.521739 44.521739 0 0 0-11.842783-57.967304l-4.36313-2.849392-393.794783-227.862261-5.38713-4.763826a84.012522 84.012522 0 0 0-43.942957-17.808695l-8.102956-0.400696c-19.055304 0-37.309217 6.544696-52.045913 18.253913l-5.431652 4.719304-393.750261 227.862261a44.521739 44.521739 0 0 0-18.610087 56.186435l2.359652 4.630261a44.521739 44.521739 0 0 0 60.816696 16.250435l405.325913-234.540522 1.335652-1.513739 1.335652 1.513739 405.281391 234.540522a44.521739 44.521739 0 0 0 60.861218-16.250435z m0 222.608696a44.521739 44.521739 0 0 0-11.842783-57.967305l-4.36313-2.849391-393.794783-227.862261-5.38713-4.763826a84.012522 84.012522 0 0 0-43.942957-17.808696l-8.102956-0.400695c-19.055304 0-37.309217 6.544696-52.045913 18.253913l-5.431652 4.719304-393.750261 227.862261a44.521739 44.521739 0 0 0-18.610087 56.186435l2.359652 4.630261a44.521739 44.521739 0 0 0 60.816696 16.250434l405.325913-234.540521 1.335652-1.513739 1.335652 1.513739 405.281391 234.540521a44.521739 44.521739 0 0 0 60.861218-16.250434zM512 896c18.788174 0 36.864-6.099478 51.645217-17.185391l4.58574-3.739826 403.500521-199.68 5.609739-6.144c32.50087-35.439304 32.50087-89.889391 0-125.328696l-5.609739-6.144-403.500521-199.590957-4.541218-3.784347a86.238609 86.238609 0 0 0-43.675826-16.829218L512 317.217391c-18.788174 0-36.864 6.099478-51.645217 17.185392l-4.630261 3.784347L52.268522 537.778087l-5.609739 6.144a92.738783 92.738783 0 0 0 0 125.328696l5.609739 6.144L455.724522 875.074783l4.585739 3.739826c12.688696 9.48313 27.826087 15.315478 43.675826 16.829217z"  horiz-adv-x="1024" />

    
    <glyph glyph-name="quanxian" unicode="&#58983;" d="M527.503039 896l426.567846-155.61195c16.209578-4.990844 27.172372-20.048689 27.044401-37.026089v-287.720011c0-342.278039-372.820297-492.643204-464.105816-539.352384a37.836568 37.836568 0 0 0-33.997457 0C391.51321-77.00125500000001 42.666027 71.74295300000006 42.666027 413.551767V702.338198a39.628153 39.628153 0 0 0 26.233922 36.940776L501.525058 896h25.977981zM511.890656 640.059293a127.970354 127.970354 0 0 1-42.059589-248.859681c-0.426568-2.303466-0.597195-4.692246-0.597195-7.081026v-213.283923a42.656785 42.656785 0 0 1 85.313569 0v213.283923a37.495314 37.495314 0 0 1-0.639852 7.038369A128.01301 128.01301 0 0 1 511.890656 640.059293z"  horiz-adv-x="1024" />

    
    <glyph glyph-name="tiaocha" unicode="&#58984;" d="M725.333333 896c70.570667 0 298.666667-228.010667 298.666667-298.666667v-597.333333a128 128 0 0 0-128-128H128a128 128 0 0 0-128 128V768a128 128 0 0 0 128 128z m-213.333333-682.666667a42.666667 42.666667 0 1 1 0-85.333333 42.666667 42.666667 0 0 1 0 85.333333z m4.394667 426.666667c-54.4 0-97.152-15.104-128.341334-45.312-28.928-28.074667-44.416-64.512-46.506666-109.312L341.333333 474.88h68.181334c1.28 29.866667 6.528 52.736 15.701333 68.608 16.341333 28.501333 45.866667 42.752 88.490667 42.752 34.474667 0 59.221333-8.277333 74.154666-24.832 14.933333-16.554667 22.4-36.096 22.4-58.581333 0-16.085333-5.12-31.616-15.36-46.549334-4.181333-6.4-9.386667-12.544-15.616-18.56l-6.570666-5.930666-30.634667-27.221334c-29.397333-25.984-48.384-49.024-57.088-69.12-7.594667-17.578667-11.861333-40.064-12.8-67.413333l-0.213333-12.032h68.181333c0 28.970667 3.626667 50.858667 10.922667 65.706667 7.253333 14.762667 23.168 32.853333 47.701333 54.229333 33.706667 29.44 56.106667 51.712 67.2 66.901333 11.093333 15.146667 16.682667 34.901333 16.682667 59.306667 0 40.192-15.146667 73.216-45.397334 99.072-30.293333 25.856-70.570667 38.784-120.874666 38.784z"  horiz-adv-x="1024" />

    
    <glyph glyph-name="duofang" unicode="&#58988;" d="M512 896a186.181818 186.181818 0 0 0 110.778182-335.825455l207.965091-291.141818A46.498909 46.498909 0 0 0 837.818182 244.36363600000004a186.181818 186.181818 0 1 0 0-372.363636 186.274909 186.274909 0 0 0-180.410182 139.962182h-0.325818L651.636364 11.636363999999958H372.363636a46.545455 46.545455 0 0 0-5.771636 0.372363A186.274909 186.274909 0 0 0 0 58.18181800000002a186.181818 186.181818 0 0 0 186.181818 186.181818h0.046546a45.986909 45.986909 0 0 0 7.028363 24.669091L401.221818 560.1745450000001A186.181818 186.181818 0 0 0 512 896zM186.181818 151.27272700000003a93.090909 93.090909 0 1 1 0-186.181818 93.090909 93.090909 0 0 1 0 186.181818z m651.636364 0a93.090909 93.090909 0 1 1 0-186.181818 93.090909 93.090909 0 0 1 0 186.181818zM512 802.909091a93.090909 93.090909 0 1 1 0-186.181818 93.090909 93.090909 0 0 1 0 186.181818z"  horiz-adv-x="1024" />

    
    <glyph glyph-name="zhengyan" unicode="&#59050;" d="M512.1 562.76c-98.64 0-178.88-80.25-178.88-178.89s80.24-178.88 178.88-178.88 178.89 80.24 178.89 178.88-80.25 178.89-178.89 178.89z m0-295.68c-64.4 0-116.79 52.39-116.79 116.79 0 64.41 52.39 116.8 116.79 116.8 64.41 0 116.8-52.39 116.8-116.8 0-64.39-52.39-116.79-116.8-116.79zM512.1 740.17c-239.74 0-445-271.59-445-356.3s205.26-356.3 445-356.3 445 271.59 445 356.3-205.26 356.3-445 356.3z m0-650.5c-209.73 0-382.91 249.99-382.91 294.2 0 44.22 173.18 294.2 382.91 294.2s382.91-249.99 382.91-294.2c0-44.21-173.19-294.2-382.91-294.2z"  horiz-adv-x="1024" />

    


  </font>
</defs>
</svg>
